<?xml version="1.0" encoding="UTF-8"?>
<svg width="156px" height="156px" viewBox="0 0 156 156" version="1.1" xmlns="http://www.w3.org/2000/svg" xmlns:xlink="http://www.w3.org/1999/xlink">
    <title>ico_auto_01</title>
    <g id="Page-1" stroke="none" stroke-width="1" fill="none" fill-rule="evenodd">
        <g id="08_로밍안내_인덱스_B_4" transform="translate(-62.000000, -816.000000)">
            <g id="content" transform="translate(0.000000, 661.000000)">
                <g id="ico_auto_01" transform="translate(62.000000, 155.000000)">
                    <circle id="Oval" fill="#F0F4FF" cx="78" cy="78" r="78"></circle>
                    <g transform="translate(50.000000, 36.000000)" stroke-width="3">
                        <path d="M50,1.5 C51.2426407,1.5 52.3676407,2.00367966 53.1819805,2.81801948 C53.9963203,3.63235931 54.5,4.75735931 54.5,6 L54.5,6 L54.5,78 C54.5,79.2426407 53.9963203,80.3676407 53.1819805,81.1819805 C52.3676407,81.9963203 51.2426407,82.5 50,82.5 L50,82.5 L6,82.5 C4.75735931,82.5 3.63235931,81.9963203 2.81801948,81.1819805 C2.00367966,80.3676407 1.5,79.2426407 1.5,78 L1.5,78 L1.5,6 C1.5,4.75735931 2.00367966,3.63235931 2.81801948,2.81801948 C3.63235931,2.00367966 4.75735931,1.5 6,1.5 L6,1.5 Z" id="Rectangle" stroke="#000000" fill="#FFFFFF"></path>
                        <path d="M54.5,13.5 L54.5,73.5 L1.5,73.5 L1.5,13.5 L54.5,13.5 Z" id="Rectangle-Copy" stroke="#000000" fill="#8EA3FF"></path>
                        <line x1="32" y1="7.5" x2="24" y2="7.5" id="Stroke-1" stroke="#000000" stroke-linecap="round"></line>
                        <g id="Group-3" transform="translate(17.000000, 30.000000)" stroke="#FFFFFF" stroke-linecap="round">
                            <polyline id="Stroke-2" stroke-linejoin="round" points="15 8 21 8 21 2"></polyline>
                            <path d="M0,10 C0,4.47714286 4.53285714,0 10.1256429,0 C13.9487143,0 17.2764286,2.09285714 19,5.18142857" id="Stroke-3"></path>
                            <polyline id="Stroke-5" stroke-linejoin="round" points="6 16 1 16 1 22"></polyline>
                            <path d="M22,13 C22,18.5228571 17.4671429,23 11.8743571,23 C8.05128571,23 4.72357143,20.9071429 3,17.8185714" id="Stroke-7"></path>
                        </g>
                    </g>
                </g>
            </g>
        </g>
    </g>
</svg>