<?xml version="1.0" encoding="UTF-8"?>
<svg width="156px" height="156px" viewBox="0 0 156 156" version="1.1" xmlns="http://www.w3.org/2000/svg" xmlns:xlink="http://www.w3.org/1999/xlink">
    <title>icon_guide_03</title>
    <g id="Page-1" stroke="none" stroke-width="1" fill="none" fill-rule="evenodd">
        <g id="08_로밍안내_인덱스_B_4" transform="translate(-502.000000, -816.000000)">
            <g id="content" transform="translate(0.000000, 661.000000)">
                <g id="icon_guide_03" transform="translate(502.000000, 155.000000)">
                    <circle id="Oval-Copy-2" fill="#F0F4FF" cx="78" cy="78" r="78"></circle>
                    <g id="icon_guide-copy" transform="translate(50.000000, 36.000000)">
                        <path d="M54.5,9.5 L54.5,78 C54.5,79.2426407 53.9963203,80.3676407 53.1819805,81.1819805 C52.3676407,81.9963203 51.2426407,82.5 50,82.5 L50,82.5 L6,82.5 C4.75735931,82.5 3.63235931,81.9963203 2.81801948,81.1819805 C2.00367966,80.3676407 1.5,79.2426407 1.5,78 L1.5,78 L1.5,9.5 L54.5,9.5 Z" id="Rectangle" stroke="#000000" stroke-width="3" fill="#8EA3FF"></path>
                        <path d="M54.5,1.5 L54.5,13.5 L6,13.5 C4.75735931,13.5 3.63235931,12.9963203 2.81801948,12.1819805 C2.00367966,11.3676407 1.5,10.2426407 1.5,9 L1.5,9 L1.5,6 C1.5,4.75735931 2.00367966,3.63235931 2.81801948,2.81801948 C3.63235931,2.00367966 4.75735931,1.5 6,1.5 L6,1.5 L54.5,1.5 Z" id="Rectangle-Copy-2" stroke="#000000" stroke-width="3" fill="#FFFFFF"></path>
                        <line x1="16" y1="60.5" x2="40" y2="60.5" id="Line" stroke="#FFFFFF" stroke-width="3" stroke-linecap="square"></line>
                        <line x1="16" y1="66.5" x2="40" y2="66.5" id="Line-Copy" stroke="#FFFFFF" stroke-width="3" stroke-linecap="square"></line>
                        <g id="Group-11" transform="translate(16.000000, 23.000000)" fill="#FFFFFF">
                            <path d="M12,0 C13.5714611,0 14.8106309,2.54609467 14.7681714,3.95840237 L14.1266645,24.7428405 C14.0865127,26.1546156 13.1348672,27.2629958 12,27.2629958 C10.8651328,27.2629958 9.91348733,26.1546156 9.87333546,24.7428405 L9.23182857,3.95840237 C9.18936913,2.54609467 10.4285389,0 12,0 Z" id="Stroke-1"></path>
                            <polyline id="Stroke-3" points="10.5230769 16.2267692 0 19.5044308 0 17.1937846 10.1226462 8.98135385"></polyline>
                            <polyline id="Stroke-5" points="13.4769231 16.2267692 24 19.5044308 24 17.1937846 13.8756923 8.98135385"></polyline>
                            <polyline id="Stroke-7" points="12.3692308 27.2582769 17.9076923 28.9198154 17.9076923 26.7044308 13.4769231 23.3813538"></polyline>
                            <polyline id="Stroke-9" points="11.6307692 27.2582769 6.09230769 28.9198154 6.09230769 26.7044308 10.5230769 23.3813538"></polyline>
                        </g>
                    </g>
                </g>
            </g>
        </g>
    </g>
</svg>