<?xml version="1.0" encoding="UTF-8"?>
<svg width="156px" height="156px" viewBox="0 0 156 156" version="1.1" xmlns="http://www.w3.org/2000/svg" xmlns:xlink="http://www.w3.org/1999/xlink">
    <title>ico_roaming_02</title>
    <g id="Page-1" stroke="none" stroke-width="1" fill="none" fill-rule="evenodd">
        <g id="08_로밍안내_인덱스_B_4" transform="translate(-282.000000, -816.000000)">
            <g id="content" transform="translate(0.000000, 661.000000)">
                <g id="ico_roaming_02" transform="translate(282.000000, 155.000000)">
                    <circle id="Oval-Copy" fill="#F0F4FF" cx="78" cy="78" r="78"></circle>
                    <g id="icon_roaming" transform="translate(44.000000, 37.000000)">
                        <g id="Group-10">
                            <path d="M4.17391304,1.5 L52.826087,1.5 C53.5626537,1.5 54.2287958,1.80295231 54.7112708,2.29052348 C55.1993949,2.78380336 55.5,3.46562384 55.5,4.218 L55.5,4.218 L55.5,51.8628889 C55.5,52.1322817 55.43444,52.3966029 55.3098976,52.6346958 C55.1682053,52.9054943 54.9622511,53.1201175 54.719829,53.2675151 C54.4708997,53.4188693 54.1843436,53.5 53.8925217,53.5 C53.6804573,53.5 53.4654712,53.4562029 53.2608098,53.3651606 L53.2608098,53.3651606 L45.6968187,47.244 L4.17391304,47.244 C3.43734626,47.244 2.77120424,46.9410477 2.28872921,46.4534765 C1.80060514,45.9601966 1.5,45.2783762 1.5,44.526 L1.5,44.526 L1.5,4.218 C1.5,3.46562384 1.80060514,2.78380336 2.28872921,2.29052348 C2.77120424,1.80295231 3.43734626,1.5 4.17391304,1.5 L4.17391304,1.5 L4.17391304,1.5 Z" id="Path" stroke="#000000" stroke-width="3" fill="#8EA3FF" transform="translate(28.500000, 27.500000) scale(-1, 1) translate(-28.500000, -27.500000) "></path>
                            <g id="Group-15" transform="translate(28.575736, 17.675736) rotate(-45.000000) translate(-28.575736, -17.675736) translate(16.575736, 6.175736)">
                                <path d="M2.94248543,17.0280773 C4.37728075,15.0456052 6.36573104,13.8209259 8.56397666,13.8280773 C10.7356141,13.8352916 12.7035965,15.0384223 14.1424854,16.9849801" id="Stroke-5" stroke="#FFFFFF" stroke-width="3" stroke-linecap="round" transform="translate(8.542485, 15.428077) rotate(45.000000) translate(-8.542485, -15.428077) "></path>
                                <path d="M1.06796883,14.1025939 C4.13529231,10.1351919 8.38269242,7.68706725 13.0821998,7.70266804 C17.7499612,7.71706877 21.9864144,10.1579931 25.0679688,14.0953936" id="Stroke-7" stroke="#FFFFFF" stroke-width="3" stroke-linecap="round" transform="translate(13.067969, 10.902594) rotate(45.000000) translate(-13.067969, -10.902594) "></path>
                                <circle id="Oval" fill="#FFFFFF" cx="3.0627417" cy="20.6" r="2.4"></circle>
                            </g>
                        </g>
                        <g id="icon_plan" transform="translate(41.500000, 59.000000) scale(-1, 1) translate(-41.500000, -59.000000) translate(5.000000, 35.000000)">
                            <path d="M20.7008813,21 C20.3632737,21 20.0248157,21.1059633 19.7348303,21.31789 C19.1820723,21.7210896 18.9056933,22.4296072 19.0290008,23.1264509 L22.7409837,44.0631922 C22.8302753,44.5633751 23.1160087,45.0015964 23.5276009,45.2656068 L27.3671433,47.7377856 C27.6375695,47.9128945 27.9445628,48 28.2524065,48 C28.504124,48 28.7566919,47.9416304 28.9905511,47.8221971 C29.5101436,47.5572887 29.8673104,47.0328599 29.9395941,46.4276117 L31.9864997,29.1995876 C32.070689,28.4982539 31.7560421,27.8103901 31.1845753,27.4422124 L21.5861446,21.2622144 C21.3140175,21.0871055 21.0070242,21 20.7008813,21" id="Path" stroke="#000000" stroke-width="3" fill="#FFFFFF"></path>
                            <path d="M49.2347255,1.56837642 C49.6130906,1.5 49.7148112,1.52505938 49.8030422,1.57613658 L49.8030422,1.57613658 L54.3326168,4.20525525 C54.4420194,4.26870821 54.5268932,4.37124205 54.5438457,4.49558382 C54.5592935,4.6090777 54.5106385,4.71824406 54.4314321,4.79687716 L54.4314321,4.79687716 L37.8109271,21.2417232 L53.7695916,30.5045667 L68.573783,26.4808297 C68.6251314,26.4667869 68.6776496,26.4604334 68.7298139,26.4604334 C68.8307134,26.4604334 68.9320113,26.4847873 69.0207484,26.5363788 L69.0207484,26.5363788 L71.2859723,27.8519599 C71.3989519,27.9174415 71.4864878,28.0242523 71.4985853,28.1542179 C71.509836,28.2750869 71.4508639,28.388029 71.3570466,28.4670179 L71.3570466,28.4670179 L62.3715181,36.0443851 L52.8940744,44.3673181 C52.7906919,44.4582006 52.656667,44.5 52.5241888,44.5 C52.4227748,44.5 52.3203602,44.4742604 52.2329007,44.4238494 L52.2329007,44.4238494 L46.9483667,41.3566585 L37.1359557,35.6617069 L30.3435284,31.7178008 L19.0211476,25.1460933 L12.2277891,21.2031838 L4.67935232,16.8230883 C3.12028045,15.9181811 2.08591281,14.4976724 1.68594447,12.9261527 C1.2903604,11.3718592 1.51857837,9.67469303 2.45992693,8.20488081 C3.67070412,6.31472322 5.88141642,5.15922112 8.21276363,5.15922112 C9.44614988,5.15922112 10.6545002,5.48053581 11.7070845,6.091943 L11.7070845,6.091943 L25.7675965,14.2524016 Z" id="Path" stroke="#000000" stroke-width="3" fill="#FFFFFF"></path>
                            <path d="M44.2756675,31.9870621 C43.7163939,32.9397628 44.0351685,34.1657979 44.9869547,34.7249424 C45.9398752,35.2829528 47.1650589,34.9653859 47.7243325,34.0126852 C48.2836061,33.0599846 47.9648315,31.8339495 47.0130453,31.274805 C46.0601248,30.7167946 44.8349411,31.0354956 44.2756675,31.9870621" id="Fill-10" fill="#A5BDFF"></path>
                            <path d="M39.2759031,28.9873252 C38.7166649,29.9400359 39.034285,31.1660838 39.9871453,31.7252343 C40.9400056,32.2832506 42.1651117,31.9645462 42.7243499,31.0118354 C43.2835882,30.0591247 42.9648337,28.8342109 42.0131078,28.2750605 C41.0602475,27.7170442 39.8351414,28.0346144 39.2759031,28.9873252" id="Fill-12" fill="#A5BDFF"></path>
                            <path d="M34.2759031,25.9877048 C33.7166649,26.9402954 34.034285,28.1661889 34.9871453,28.7252689 C35.9400056,29.2832149 37.1651117,28.9645506 37.7243499,28.0119599 C38.2835882,27.0593693 37.9648337,25.8346098 37.0131078,25.2755298 C36.0602475,24.7164498 34.8351414,25.0351141 34.2759031,25.9877048" id="Fill-14" fill="#A5BDFF"></path>
                            <path d="M11.9814646,10.2537032 C12.9803472,10.8327501 13.3004245,12.0825743 12.6904659,13.0319821 C12.0805074,13.9813898 10.7639633,14.2852461 9.76387285,13.7061991 L3.06408691,9.91052246 C3.84216309,8.43029785 4.91943359,7.37756348 6.01883476,7 L11.9814646,10.2537032 Z" id="Fill-16" fill="#A5BDFF"></path>
                        </g>
                    </g>
                </g>
            </g>
        </g>
    </g>
</svg>