<?xml version="1.0" encoding="UTF-8"?>
<svg width="124px" height="124px" viewBox="0 0 124 124" version="1.1" xmlns="http://www.w3.org/2000/svg" xmlns:xlink="http://www.w3.org/1999/xlink">
    <title>ico_3g_02</title>
    <g id="Page-1" stroke="none" stroke-width="1" fill="none" fill-rule="evenodd">
        <g id="자동로밍_3G/GSM-자동로밍_RM_0807_t" transform="translate(-40.000000, -863.000000)">
            <g id="content" transform="translate(0.000000, 556.000000)">
                <g id="01" transform="translate(0.000000, 122.000000)">
                    <g id="Group-4" transform="translate(40.000000, 183.000000)">
                        <g id="ico_3g_02" transform="translate(0.000000, 2.000000)">
                            <circle id="Oval-Copy" fill="#F3F4F9" cx="62" cy="62" r="62"></circle>
                            <g id="icon_01" transform="translate(27.000000, 29.000000)">
                                <g id="icon_phone" transform="translate(15.000000, 0.000000)">
                                    <path d="M39,1.2 C39.4970563,1.2 39.9470563,1.40147186 40.2727922,1.72720779 C40.5985281,2.05294373 40.8,2.50294373 40.8,3 L40.8,3 L40.8,61 C40.8,61.4970563 40.5985281,61.9470563 40.2727922,62.2727922 C39.9470563,62.5985281 39.4970563,62.8 39,62.8 L39,62.8 L3,62.8 C2.50294373,62.8 2.05294373,62.5985281 1.72720779,62.2727922 C1.40147186,61.9470563 1.2,61.4970563 1.2,61 L1.2,61 L1.2,3 C1.2,2.50294373 1.40147186,2.05294373 1.72720779,1.72720779 C2.05294373,1.40147186 2.50294373,1.2 3,1.2 L3,1.2 Z" id="Rectangle" stroke="#000000" stroke-width="2.4" fill="#FFFFFF"></path>
                                    <path d="M40.8,9.2 L40.8,55.8 L1.2,55.8 L1.2,9.2 L40.8,9.2 Z" id="Rectangle-Copy" stroke="#000000" stroke-width="2.4" fill="#8EA3FF"></path>
                                    <g id="Group-7" transform="translate(14.000000, 32.500000)" fill="#FFFFFF">
                                        <ellipse id="Oval" cx="6.73863899" cy="3.43699329" rx="3.5" ry="3.43699329"></ellipse>
                                        <path d="M6.84659746,6.56801471 C10.6278688,6.56801471 13.6931949,9.6333408 13.6931949,13.4146122 L13.6931949,15.5026961 L13.6931949,15.5026961 L0,15.5026961 L0,13.4146122 C-1.35125061e-15,9.6333408 3.0653261,6.56801471 6.84659746,6.56801471 Z" id="Rectangle"></path>
                                    </g>
                                    <g id="Group-15" transform="translate(20.691508, 19.920675) rotate(-45.000000) translate(-20.691508, -19.920675) translate(14.191508, 13.420675)">
                                        <path d="M1.59384627,9.22354188 C2.37102707,8.14970282 3.44810431,7.48633485 4.63882069,7.49020855 C5.8151243,7.49411629 6.88111479,8.1458121 7.66051294,9.20019755" id="Stroke-5" stroke="#FFFFFF" stroke-width="2" stroke-linecap="round" transform="translate(4.627180, 8.356875) rotate(45.000000) translate(-4.627180, -8.356875) "></path>
                                        <path d="M0.578483115,7.63890504 C2.23995,5.48989561 4.54062506,4.16382809 7.08619156,4.17227852 C9.6145623,4.18007892 11.9093078,5.50224624 13.5784831,7.63500484" id="Stroke-7" stroke="#FFFFFF" stroke-width="2" stroke-linecap="round" transform="translate(7.078483, 5.905572) rotate(45.000000) translate(-7.078483, -5.905572) "></path>
                                        <circle id="Oval" fill="#FFFFFF" cx="1.65898509" cy="11.1583333" r="1.3"></circle>
                                    </g>
                                    <line x1="23" y1="5.75" x2="19" y2="5.75" id="Stroke-1" stroke="#000000" stroke-width="2" stroke-linecap="round"></line>
                                </g>
                                <g id="Group-3" transform="translate(0.000000, 13.000000)">
                                    <path d="M26.9130435,1.2 C27.1565322,1.2 27.3763957,1.30072597 27.5357701,1.46178377 C27.6996745,1.62741938 27.8,1.85653246 27.8,2.109 L27.8,2.109 L27.8,19.4314444 L23.507681,16.672 L2.08695652,16.672 C1.84346781,16.672 1.6236043,16.571274 1.4642299,16.4102162 C1.30032553,16.2445806 1.2,16.0154675 1.2,15.763 L1.2,15.763 L1.2,2.109 C1.2,1.85653246 1.30032553,1.62741938 1.4642299,1.46178377 C1.6236043,1.30072597 1.84346781,1.2 2.08695652,1.2 L2.08695652,1.2 Z" id="Path" stroke="#000000" stroke-width="2.4" fill="#FFFFFF"></path>
                                    <path d="M11.0235,12.221 C12.4545,12.221 13.3005,11.519 13.3005,10.358 C13.3005,9.449 12.7785,8.999 12.0045,8.855 C12.6795,8.612 13.0935,8.135 13.0935,7.397 C13.0935,6.389 12.3465,5.858 11.1765,5.858 C10.5375,5.858 9.7725,6.002 9.3765,6.209 L9.5115,7.136 C9.8715,6.983 10.3845,6.848 10.8255,6.848 C11.4735,6.848 11.8335,7.055 11.8335,7.622 C11.8335,8.171 11.4195,8.459 10.7445,8.477 L10.1415,8.495 L10.1415,9.386 L10.8165,9.404 C11.5455,9.422 11.9595,9.647 11.9595,10.268 C11.9595,10.916 11.5545,11.231 10.7985,11.231 C10.3215,11.231 9.6285,11.078 9.3225,10.889 L9.1245,11.789 C9.4845,12.014 10.2675,12.221 11.0235,12.221 Z M17.0805,12.23 C17.9175,12.23 18.6825,12.032 19.1505,11.852 L19.1505,8.936 L16.8465,8.936 L16.8465,9.836 L17.9175,9.836 L17.9175,11.132 C17.7195,11.195 17.3865,11.267 17.0535,11.267 C15.7035,11.267 15.3975,10.421 15.3975,9.17 L15.3975,8.891 C15.3975,7.766 15.8205,6.875 17.2335,6.875 C18.0255,6.875 18.5025,7.064 18.8715,7.199 L18.8715,6.209 C18.5115,6.029 17.9445,5.858 17.1255,5.858 C15.5055,5.858 14.0565,6.623 14.0565,8.972 L14.0565,9.17 C14.0565,11.357 15.2265,12.23 17.0805,12.23 Z" id="3G" fill="#000000" fill-rule="nonzero"></path>
                                </g>
                            </g>
                        </g>
                    </g>
                </g>
            </g>
        </g>
    </g>
</svg>