<svg height="18" viewBox="0 0 36 36" width="18" xmlns="http://www.w3.org/2000/svg"><g fill="none" fill-rule="evenodd"><path d="m0 .3h36v36h-36z" fill-rule="nonzero" opacity=".5"/><path d="m31 6.9.1 22.1-26.1.1-.1-22.1z" stroke="#333" stroke-width="1.8"/><g transform="translate(10 13)"><path d="m7.99983118 7c-1.10272643 0-1.99983118.89710475-1.99983118 2.00016882 0 1.10238878.89710475 1.99983118 1.99983118 1.99983118 1.10306407 0 2.00016882-.8974424 2.00016882-1.99983118 0-1.10306407-.89710475-2.00016882-2.00016882-2.00016882" fill="#333"/><g stroke="#333" stroke-width="2"><path d="m11.961685 5.94917915c-.9142809-1.18549626-2.34879912-1.94917915-3.961685-1.94917915-1.6103707 0-3.04292957.76130293-3.95740397 1.94363614"/><path d="m15.0159258 3.36240319c-1.649623-2.05031947-4.1795476-3.36240319-7.0159258-3.36240319-2.84010975 0-5.37295904 1.31553837-7.02243205 3.37049927"/></g></g></g></svg>
