<svg height="88" viewBox="0 0 88 88" width="88" xmlns="http://www.w3.org/2000/svg"
     xmlns:xlink="http://www.w3.org/1999/xlink">
    <mask id="a" fill="#fff">
        <path d="m0 .00007333h88v87.99992667h-88z" fill="#fff" fill-rule="evenodd"/>
    </mask>
    <g fill="none" fill-rule="evenodd" transform="translate(-316 -1186)">
        <g transform="translate(0 678)">
            <g transform="translate(40 460)">
                <path d="m12 0h616c6.627417 0 12 5.372583 12 12v412c0 6.627417-5.372583 12-12 12h-616c-6.627417 0-12-5.372583-12-12v-412c0-6.627417 5.372583-12 12-12z"
                      />
                <g transform="translate(276 48)">
                    <g>
                        <path d="m44 .00007333c24.3004667 0 44 19.69953337 44 43.99999997 0 24.3004667-19.6995333 44-44 44s-44-19.6995333-44-44c0-24.3004666 19.6995333-43.99999997 44-43.99999997"
                              fill="#4559fc"/>
                        <path d="m23.5157267 46.6240133 12.4021333 12.4021334 28.3352667-28.336" stroke="#fff"
                              stroke-width="6"/>
                    </g>
                    <g>
                        <path d="m44 .00007333c24.3004667 0 44 19.69953337 44 43.99999997 0 24.3004667-19.6995333 44-44 44s-44-19.6995333-44-44c0-24.3004666 19.6995333-43.99999997 44-43.99999997"
                              fill="#4559fc" mask="url(#a)"/>
                        <path d="m39.6 25.5199267v-2.0533334h8.3306667v2.0533334l-2.1706667 26.0487333h-3.9306667zm.2933333 39.0133333h7.8026667v-8.0373333h-7.8026667z"
                              fill="#fff"/>
                    </g>
                </g>
            </g>
        </g>
    </g>
</svg>
