<svg width="20" height="20" viewBox="0 0 40 40" xmlns="http://www.w3.org/2000/svg">
    <g fill="none" fill-rule="evenodd" transform="translate(-41 -1864)">
        <path d="m0-50h720v6288h-720z" fill="#f6f6f6"/>
        <path d="m0 1162h720v1380h-720z" fill="#fff"/>
        <g transform="translate(41 1864)">
            <path d="m0 0h40v40h-40z" fill="#9d9d9d" opacity="0"/>
            <g stroke="#333" stroke-linecap="round" stroke-linejoin="round" stroke-width="2">
                <path d="m13 18-6 4-4 15 9-5 8 5 8-5 9 5-4-15-6-4"/>
                <path d="m27 23 2 5"/>
                <path d="m13 23-2 5"/>
            </g>
            <g fill="#333" transform="translate(10 2)">
                <path d="m10 0c-5.523 0-10 4.478-10 10s10 17 10 17 10-11.478 10-17-4.477-10-10-10m0 2c4.411 0 8 3.589 8 8 0 3.026-4.429 9.484-8 13.889-3.572-4.403-8-10.859-8-13.889 0-4.411 3.589-8 8-8"/>
                <path d="m10 5c-2.209 0-4 1.791-4 4s1.791 4 4 4 4-1.791 4-4-1.791-4-4-4m0 2c1.103 0 2 .897 2 2s-.897 2-2 2-2-.897-2-2 .897-2 2-2"/>
            </g>
        </g>
    </g>
</svg>
