<?xml version="1.0" encoding="UTF-8"?>
<svg width="124px" height="124px" viewBox="0 0 124 124" version="1.1" xmlns="http://www.w3.org/2000/svg" xmlns:xlink="http://www.w3.org/1999/xlink">
    <title>ico_lease2</title>
    <g id="Page-1" stroke="none" stroke-width="1" fill="none" fill-rule="evenodd">
        <g id="T로밍센터_지점대리점_RM_0902_t" transform="translate(-299.000000, -1822.000000)">
            <g id="content" transform="translate(0.000000, 298.000000)">
                <g id="01" transform="translate(0.000167, 0.000000)">
                    <g id="Group-4-Copy-3" transform="translate(91.999833, 1524.000000)">
                        <g id="ico_lease2" transform="translate(207.000000, 0.000000)">
                            <circle id="Oval-Copy-2" fill="#F3F4F9" cx="62" cy="62" r="62"></circle>
                            <g id="ico_barobox" transform="translate(39.000000, 23.000000)">
                                <path d="M4.65454545,68.8 C2.09512727,68.8 0,66.6567442 0,64.0372093 L0,29.5627907 C0,26.9438512 2.09512727,24.8 4.65454545,24.8 L40.1454545,24.8 C42.7054545,24.8 44.8,26.9438512 44.8,29.5627907 L44.8,64.0372093 C44.8,66.6567442 42.7054545,68.8 40.1454545,68.8 L4.65454545,68.8 Z" id="Fill-1" stroke="#000000" stroke-width="2.4" fill="#8EA3FF"></path>
                                <text id="baro-Box" font-family="TGothicNeoBlack, T Gothic Neo" font-size="12" font-weight="700" letter-spacing="-0.375" fill="#FFFFFF">
                                    <tspan x="8.08554688" y="45">baro</tspan>
                                    <tspan x="10.9039063" y="57">Box</tspan>
                                </text>
                                <g id="Group-7" transform="translate(6.400000, 0.000000)" fill="#FFFFFF" stroke="#000000" stroke-width="2.4">
                                    <path d="M15.8706759,21.7397517 C14.0687448,21.7397517 12.6028138,23.2056828 12.6028138,25.0081655 C12.6028138,26.8095448 14.0687448,28.2760276 15.8706759,28.2760276 C17.6731586,28.2760276 19.1390897,26.8095448 19.1390897,25.0081655 C19.1390897,23.2056828 17.6731586,21.7397517 15.8706759,21.7397517" id="Path"></path>
                                    <path d="M15.9084138,11.0312276 C12.5798621,11.0312276 9.4697931,12.4850207 7.15089655,15.1250207 L6.45351724,15.9184 L7.21655172,16.6499862 L10.1384828,19.4494345 L10.969931,20.2461241 L11.7307586,19.3815724 C12.8204138,18.1418483 14.3056552,17.4582621 15.9117241,17.4582621 C17.4924138,17.4582621 18.9577931,18.1230897 20.0391724,19.3302621 L20.8088276,20.1892966 L21.6331034,19.3832276 L24.528,16.5506759 L25.2827586,15.8119172 L24.5776552,15.0251586 C22.2692414,12.4497103 19.190069,11.0312276 15.9084138,11.0312276" id="Path" stroke-linecap="round" stroke-linejoin="round"></path>
                                    <path d="M0.697931034,7.12551724 L7.2475359e-13,7.91889655 L0.761931034,8.65048276 L3.68165517,11.4543448 L4.51310345,12.2521379 L5.27503448,11.3870345 C8.13186207,8.13903448 11.9084138,6.35034483 15.9084138,6.35034483 C19.8802759,6.35034483 23.6364138,8.11586207 26.4844138,11.321931 L27.2496552,12.1837241 L28.0772414,11.382069 L30.9831724,8.56551724 L31.7423448,7.83062069 L31.0411034,7.04110345 C27.0096552,2.50041379 21.6358621,9.85878046e-14 15.9084138,9.85878046e-14 C10.1423448,9.85878046e-14 4.74041379,2.53075862 0.697931034,7.12551724 Z" id="Path" stroke-linecap="round" stroke-linejoin="round"></path>
                                </g>
                            </g>
                        </g>
                    </g>
                </g>
            </g>
        </g>
    </g>
</svg>
