<svg height="18" viewBox="0 0 36 36" width="18" xmlns="http://www.w3.org/2000/svg"><g fill="none" fill-rule="evenodd"><path d="m0 0h36v36h-36z" fill-rule="nonzero" opacity=".5"/><path d="m28.1 2.9v30.2h-21.2v-30.2z" stroke="#333" stroke-width="1.8"/><g fill="#333" transform="translate(12 12)"><path d="m5.36473395 9.64598425v-2.34573678c0-.62542182.18110154-1.16688414.65635307-1.33390326l2.02796391-.69624297c.05106317-.12229472.14544134-.36670416.13806659-.71100113-.02567161-1.18749156-.70088165-2.0495838-1.63336791-2.34384702l-5.55374961-1.67379077 1.44843896-.50006749c.07794834-.02654669.17484701-.04139483.26091692-.04139483.09055077 0 .19827818.01754781.27043875.04040495l5.66642464 1.70726659c.98616326.31676041 1.35378073 1.4527784 1.35378073 2.06704162 0 .49934758-.17634063 1.07446569-.72627321 1.26740158-.48869412.17178852-1.95589669.6783352-1.95589669.6783352-.05377036.12175478-.14310756.35212599-.14310756.85642295v2.11446569c0 .66510686-.33279743 1.26866142-.97066694 1.26866142-.27650659 0-.59166062-.12445444-.83932165-.35401575"/><path d="m4.04039754 3.5158052c.28122227.42031495.42363265.9496956.42363265 1.39818512v1.9378433c0 1.19936835.56289435 2.17714993 1.49022614 2.45614903l-1.43175062.48667581c-.28635012.09843379-.56748243-.00336677-.73742129-.11048329-.69684827-.43998399-1.0648842-1.1215782-1.0648842-2.16953039 0-.49270056-.00278883-1.16570064-.00278883-2.03379631 0-.49518134-.21393044-1.0716082-.54400226-1.49945409-.24829605-.32188116-.53509599-.52291291-.89953342-.65147045-.70494488-.24772357-1.27386671-1.14824658-1.27386671-2.03299892 0-.76053615.39304545-1.23976962.91563668-1.27653832.11272281-.00788533.20763307.0122267.29867496.03951528.30983029.09320643.55974567.17826174.55974567.17826174-.17272769.87943638.34806429 2.2292463 1.39864448 2.5948069.41283717.14335362.65654514.36706678.86768675.68283459" transform="translate(0 1)"/></g><g stroke="#333" stroke-linecap="square" stroke-width="1.8"><path d="m16 6.8h2.8"/><path d="m7.369056 27.8h19.530944"/></g></g></svg>
