<svg height="64" viewBox="0 0 64 64" width="64" xmlns="http://www.w3.org/2000/svg"><g fill="none" fill-rule="evenodd"><path d="m9.57142857 62c-2.51371428 0-4.57142857-2.0571429-4.57142857-4.5714286v-33.8571428c0-2.5137143 2.05771429-4.5714286 4.57142857-4.5714286h34.85714283c2.5142857 0 4.5714286 2.0577143 4.5714286 4.5714286v33.8571428c0 2.5142857-2.0571429 4.5714286-4.5714286 4.5714286z" fill="#fff" stroke="#000" stroke-width="3"/><path d="m18.809082 39.4941406c.3795573 0 .7430013-.0716146 1.0903321-.2148437.3473307-.1432292.6552734-.3544922.9238281-.6337891s.4816081-.6248372.6391601-1.0366211c.1575521-.4117838.2363282-.8862305.2363282-1.4233398 0-.5371094-.0805664-1.0097657-.2416993-1.4179688-.1611328-.4082031-.3759765-.7519531-.6445312-1.03125s-.5764974-.4905599-.9238281-.633789c-.3473308-.1432292-.707194-.2148438-1.0795899-.2148438-.4511718 0-.8378906.093099-1.1601562.2792969s-.5836589.4010417-.7841797.6445312v-3.0830078h-2.7607422v1.600586h.9345703v7.046875h1.8261719v-.7734375c.171875.2434895.4171549.4529622.7358398.6284179.3186849.1754558.721517.2631836 1.2084961.2631836zm-.461914-1.5361328c-.2148438 0-.4135742-.0411784-.5961914-.1235351-.1826172-.0823568-.34375-.2005209-.4833985-.3544922-.1396484-.1539714-.2488607-.3401693-.3276367-.5585938s-.1181641-.4637044-.1181641-.7358398c0-.264974.0393881-.5066732.1181641-.7250977s.1879883-.4046224.3276367-.5585937c.1396485-.1539714.3007813-.2721354.4833985-.3544922s.3813476-.1235352.5961914-.1235352c.2148437 0 .4153646.0411784.6015625.1235352s.3491211.2005208.4887695.3544922c.1396484.1539713.250651.3401692.3330078.5585937s.1235352.4601237.1235352.7250977c0 .2721354-.0411784.5174153-.1235352.7358398s-.1933594.4046224-.3330078.5585938c-.1396484.1539713-.3025716.2721354-.4887695.3544922-.1861979.0823567-.3867188.1235351-.6015625.1235351zm5.9404297 1.5898438c.4511718 0 .825358-.0769857 1.1225585-.2309571.2972006-.1539713.5353191-.363444.7143555-.6284179v.6875h1.8046875v-3.6953125c0-.4296875-.0519206-.8164063-.1557617-1.1601563s-.2685547-.6373698-.4941406-.8808594c-.225586-.2434895-.515625-.4296875-.8701172-.5585937-.3544922-.1289063-.7788086-.1933594-1.2729492-.1933594-.5371094 0-.9972331.0537109-1.3803711.1611328s-.7501628.2399089-1.1010742.397461l.4511718 1.2890625c.2936198-.1145834.5747071-.2005209.8432618-.2578125.2685546-.0572917.5782877-.0859375.9291992-.0859375.4511718 0 .7734375.09847.9667968.2954101.1933594.1969401.2900391.4851888.2900391.8647461v.1181641c-.1145833-.0429688-.2220052-.0805664-.3222656-.112793s-.2041016-.059082-.3115235-.0805664c-.1074218-.0214844-.2255859-.039388-.3544921-.0537109-.1289063-.014323-.2721355-.0214844-.4296875-.0214844-.3795573 0-.7286784.0465495-1.0473633.1396484-.3186849.093099-.5926107.2291667-.8217774.4082032-.2291666.1790364-.4082031.3992513-.5371093.6606445-.1289063.2613932-.1933594.5639648-.1933594.9077148 0 .3294271.0572916.6194662.171875.8701172.1145833.2506511.270345.4619141.4672851.6337891s.4278972.3025716.6928711.3920898c.264974.0895182.5442709.1342774.8378907.1342774zm.5371093-1.2890625c-.2936198 0-.5174153-.0698243-.6713867-.2094727-.1539713-.1396484-.230957-.3312174-.230957-.574707 0-.3007813.1020508-.5174154.3061523-.6499024.2041016-.1324869.4995117-.1987304.8862305-.1987304.2220052 0 .4117838.019694.5693359.059082s.3186849.0948893.4833985.1665039v.1933594c0 .3365885-.1163737.6230469-.3491211.859375s-.5639649.3544922-.9936524.3544922zm6.4560547 1.1171875v-2.3095704c0-.766276.152181-1.3320312.456543-1.6972656s.7573242-.5478515 1.3588867-.5478515h.1933594v-1.9335938h-.171875c-.4941406 0-.8880209.132487-1.1816406.3974609-.2936198.264974-.5120443.6051433-.6552735 1.0205079v-1.2890625h-2.75v1.6005859h.9345703v4.7587891zm5.4140625.171875c.4941406 0 .9506836-.0877279 1.3696289-.2631836.4189453-.1754558.7788086-.4135742 1.0795899-.7143555.3007812-.3007813.535319-.6516927.7036132-1.0527344.1682943-.4010416.2524415-.8307291.2524415-1.2890625 0-.4583333-.0841472-.8898112-.2524415-1.2944336-.1682942-.4046224-.402832-.7591146-.7036132-1.0634765-.3007813-.304362-.6606446-.5442709-1.0795899-.7197266s-.8754883-.2631836-1.3696289-.2631836-.9488932.0877279-1.3642578.2631836-.7752279.4153646-1.0795898.7197266c-.304362.3043619-.5406901.6588541-.7089844 1.0634765s-.2524414.8361003-.2524414 1.2944336c0 .4583334.0841471.8880209.2524414 1.2890625.1682943.4010417.4046224.7519531.7089844 1.0527344.3043619.3007813.6642252.5388997 1.0795898.7143555.4153646.1754557.8701172.2631836 1.3642578.2631836zm0-1.5683594c-.2578125 0-.4851888-.0465495-.6821289-.1396484-.1969401-.093099-.3616536-.2184245-.4941406-.3759766s-.230957-.3419596-.2954102-.5532227c-.0644531-.211263-.0966797-.4386393-.0966797-.6821289s.0322266-.4726562.0966797-.6875c.0644532-.2148437.1629232-.402832.2954102-.5639648s.2972005-.2864584.4941406-.3759766.4243164-.1342773.6821289-.1342773.4833985.0447591.6767578.1342773c.1933594.0895182.3580729.2148438.4941407.3759766.1360677.1611328.2381184.3491211.3061523.5639648.0680339.2148438.1020508.4440104.1020508.6875s-.0340169.4708659-.1020508.6821289c-.0680339.2112631-.1700846.3956706-.3061523.5532227-.1360678.1575521-.3007813.2828776-.4941407.3759766-.1933593.0930989-.4189453.1396484-.6767578.1396484zm-15.6567383 12.3964844c.4726563 0 .8987631-.0483399 1.2783203-.1450196.3795573-.0966797.7036133-.2416992.972168-.4350586.2685547-.1933593.4744466-.4332682.6176758-.7197265.1432292-.2864584.2148438-.6230469.2148438-1.0097657 0-.2792968-.0358073-.5245768-.1074219-.7358398s-.1754558-.3974609-.3115235-.5585937c-.1360677-.1611329-.2989908-.3007813-.4887695-.4189454-.1897786-.118164-.402832-.2237955-.6391601-.3168945.1503906-.078776.2918294-.171875.4243164-.2792969.1324869-.1074218.2488606-.2327474.349121-.3759765.1002605-.1432292.1790365-.3079427.2363282-.4941406.0572916-.186198.0859375-.397461.0859375-.6337891 0-.3294271-.0626628-.628418-.1879883-.8969727s-.304362-.4977213-.5371094-.6875c-.2327474-.1897786-.5174153-.3365885-.8540039-.4404297-.3365885-.1038411-.7161458-.1557617-1.1386719-.1557617h-4.2646484v1.600586h.9345703v6.703125zm-.5585937-4.9521485h-.9775391v-1.7509765h1.1064453c.7591146 0 1.1386719.2828776 1.1386719.8486328 0 .3222656-.1092122.5532226-.3276367.6928711-.2184245.1396484-.5317383.2094726-.9399414.2094726zm.4941406 3.3515625h-1.4716797v-1.8261718h1.428711c.4726562 0 .8020833.078776.9882812.2363281s.2792969.3759765.2792969.6552734c0 .3222656-.1020508.5585938-.3061524.7089844-.2041015.1503906-.5102539.2255859-.918457.2255859zm6.8212891 1.772461c.4941406 0 .9506836-.0877279 1.3696289-.2631836.4189453-.1754558.7788086-.4135742 1.0795898-.7143555.3007813-.3007813.535319-.6516927.7036133-1.0527344.1682943-.4010416.2524414-.8307291.2524414-1.2890625 0-.4583333-.0841471-.8898112-.2524414-1.2944336s-.402832-.7591146-.7036133-1.0634765c-.3007812-.304362-.6606445-.5442709-1.0795898-.7197266s-.8754883-.2631836-1.3696289-.2631836c-.4941407 0-.9488933.0877279-1.3642578.2631836-.4153646.1754557-.7752279.4153646-1.0795899.7197266-.304362.3043619-.5406901.6588541-.7089844 1.0634765-.1682942.4046224-.2524414.8361003-.2524414 1.2944336 0 .4583334.0841472.8880209.2524414 1.2890625.1682943.4010417.4046224.7519531.7089844 1.0527344s.6642253.5388997 1.0795899.7143555c.4153645.1754557.8701171.2631836 1.3642578.2631836zm0-1.5683594c-.2578125 0-.4851888-.0465495-.6821289-.1396484-.1969401-.093099-.3616537-.2184245-.4941407-.3759766-.1324869-.1575521-.230957-.3419596-.2954101-.5532227-.0644531-.211263-.0966797-.4386393-.0966797-.6821289s.0322266-.4726562.0966797-.6875c.0644531-.2148437.1629232-.402832.2954101-.5639648.132487-.1611328.2972006-.2864584.4941407-.3759766s.4243164-.1342773.6821289-.1342773.4833984.0447591.6767578.1342773.3580729.2148438.4941406.3759766.2381185.3491211.3061524.5639648c.0680338.2148438.1020507.4440104.1020507.6875s-.0340169.4708659-.1020507.6821289c-.0680339.2112631-.1700847.3956706-.3061524.5532227s-.3007812.2828776-.4941406.3759766c-.1933594.0930989-.4189453.1396484-.6767578.1396484zm5.2636719 1.3964844 1.2783203-1.9335938 1.2460937 1.9335938h2.0625l-2.2236328-3.2548828 2.1591797-3.1044922h-2.1162109l-1.1708985 1.8154296-1.1064453-1.8154296h-2.1162109l2.1376953 3.1904296-2.2021485 3.1689454z" fill="#000" fill-rule="nonzero"/><path d="m0 0h64v64h-64z" fill="#4559fc" opacity="0" transform="matrix(0 -1 1 0 0 64)"/><g fill="#b9c0ff" stroke="#000" stroke-width="2"><path d="m38.8709517 23.739531c-1.801931 0-3.267862 1.4659311-3.267862 3.2684138 0 1.8013793 1.465931 3.2678621 3.267862 3.2678621 1.8024828 0 3.2684138-1.4664828 3.2684138-3.2678621 0-1.8024827-1.465931-3.2684138-3.2684138-3.2684138"/><path d="m38.9086897 13.0310069c-3.3285518 0-6.4386207 1.4537931-8.7575173 4.0937931l-.6973793.7933793.7630345.7315862 2.921931 2.7994483.8314483.7966896.7608276-.8645517c1.0896552-1.2397241 2.5748965-1.9233103 4.1809655-1.9233103 1.5806897 0 3.046069.6648276 4.1274483 1.872l.7696551.8590345.8242759-.806069 2.8948966-2.8325517.7547586-.7387586-.7051035-.7867587c-2.3084138-2.5754482-5.3875862-3.993931-8.6692413-3.993931"/><path d="m23.6982069 9.12529655-.697931.79337931.761931.73158624 2.9197241 2.803862.8314483.7977931.761931-.8651034c2.8568276-3.248 6.6333794-5.03668966 10.6333794-5.03668966 3.971862 0 7.728 1.76551726 10.576 4.97158616l.7652413.8617931.8275862-.8016551 2.9059311-2.8165517.7591724-.7348966-.7012414-.78951724c-4.0314483-4.54068966-9.4052414-7.04110345-15.1326896-7.04110345-5.766069 0-11.168 2.53075862-15.2104828 7.12551724z"/></g></g></svg>