<svg height="44" viewBox="0 0 44 44" width="44" xmlns="http://www.w3.org/2000/svg"><g fill="none" fill-rule="evenodd" transform="translate(-624 -2768)"><path d="m0 0h720v3061h-720z" fill="#f6f6f6"/><g transform="translate(0 2582)"><path d="m.00016667 0h720.00000033v408h-720.00000033z" fill="#fff"/><path d="m665.976888 220.574615c-.081937.62244-.375186 1.252787-.766184 1.643788l-2.908768 2.915982c-9.918703 8.303037-22.514018-4.065987-22.63908-4.19105l-6.585875-6.590248c-.12578-.125782-12.499003-12.718338-4.234136-22.601914l2.959798-2.961982c.39028-.390283 1.020621-.684253 1.642336-.765472.121469-.016531.239343-.023719.352905-.023719.456404 0 .835902.125063 1.050808.337095l6.153908 7.101282c.736715.737441.736715 1.937759 0 2.674481l-2.245364 2.247541c-.55056.59369-.945152 1.15863-1.191682 1.722133-.491623 1.344787-1.272182 4.860928 2.103771 8.498538l3.784201 3.785673c3.616014 3.359453 7.128529 2.576012 8.516428 2.066416.518935-.227126 1.083151-.622441 1.698398-1.193849l2.22524-2.226698c.714434-.715159 1.918334-.751816 2.712549.038094l7.033655 6.098621c.29253.307627.415435.825129.337092 1.425288z" fill="#b9c0ff" stroke="#000" stroke-width="3"/></g></g></svg>
