<svg height="50" viewBox="0 0 48 50" width="48" xmlns="http://www.w3.org/2000/svg"><g fill="none" fill-rule="evenodd"><path d="m-65-6180h720v7196h-720z" fill="#f6f6f6"/><g transform="translate(-65 -1471)"><path d="m0 0h720v1980h-720z" fill="#fff"/><g transform="translate(65 1471)"><path d="m24.7438028 9.85110191c2.6765998.00010788 5.2508493.94623869 7.1906897 2.64284139.1460751.1309841.3795604.1293318.5234278-.003704l1.3963443-1.2964184c.0728467-.0674754.1134615-.1588748.1128636-.253973-.0006112-.0950982-.0423851-.1860543-.1160847-.2527414-5.0914599-4.48880868-13.1238268-4.48880868-18.2152867 0-.0737533.0666376-.1156001.1575661-.1162886.2526644-.0006717.0950984.039871.1865255.1126648.25405l1.3967469 1.2964184c.1437757.1332366.3774411.1348901.5234278.003704 1.9400875-1.6967141 4.5146328-2.6428476 7.1914951-2.64284139zm.4372657 4.61621089c1.5049957-.0000901 2.956284.5468743 4.071868 1.5346137.1508881.1401828.3885762.1371436.5356637-.0068491l1.4273377-1.4101203c.075167-.0739648.1168739-.1743045.1158103-.2785705-.0011048-.104266-.0448895-.2037559-.121579-.2762111-3.3971775-3.089834-8.6581395-3.089834-12.055317 0-.0767372.0724544-.1205192.171994-.121544.2762938-.0009893.1042997.0408629.2046298.1161874.2784878l1.4269256 1.4101203c.1470875.1439927.3847756.1470319.5356637.0068491 1.1148466-.9870868 2.5649828-1.5340044 4.0689836-1.5346137zm2.5296767 3.2858892c.0703558-.0788879.1091012-.1874483.1070883-.30005-.0020128-.1126017-.0446055-.2192642-.1177219-.2948044-1.4532652-1.4043301-3.5817037-1.4043301-5.034969 0-.0731671.0754794-.1158295.1821084-.1179143.2947107-.0020847.1126023.036593.2211969.106901.3001437l2.2759518 2.6236942c.0667065.0771085.1576522.1205038.252546.1205038s.1858395-.0433953.252546-.1205038z" fill="#4559fc" fill-rule="nonzero"/><rect height="47.19376" rx="3.51384" stroke="#4559fc" stroke-width="2" width="45.43684" x="1" y="1"/><path d="m15.2954527 38.9348113v-11.1286241h-1.0468315l-2.8022874 1.2561978v1.1595672l1.8520865-.3704173v9.0832764zm7.6177123.1127357c1.4816692 0 2.7700772-.3382071 3.6075424-.6764142v-5.1214218h-3.9779597v1.4816692h2.0453477v2.5123956c-.4026275.1288408-1.0468315.2415765-1.6910355.2415765-2.5929211 0-3.1888098-1.6266151-3.1888098-3.9135393v-.4992581c0-2.0775579.7730448-3.8169087 3.3659659-3.8169087 1.4655641 0 2.3191344.322102 2.9794435.6119938v-1.5782998c-.644204-.3382071-1.61051-.644204-3.0277588-.644204-2.8667078 0-5.4113136 1.3850386-5.4113136 5.5884697v.3382071c0 3.8813291 2.0614528 5.475734 5.2985779 5.475734zm10.0173722-.1771561c2.6090262 0 3.8491189-1.3206182 3.8491189-3.1565996 0-1.61051-.9018856-2.3835548-2.2869242-2.6412364v-.0483153c1.3206182-.4187326 1.8037712-1.2561978 1.8037712-2.415765 0-1.7554559-1.0951468-2.7861823-3.6397526-2.7861823h-3.865224v11.0480986zm-.6280989-6.3454094h-1.5460896v-3.2371251h1.6266151c1.2723029 0 1.9487171.4026275 1.9487171 1.5944049 0 1.2561978-.8696754 1.6427202-2.0292426 1.6427202zm.3543122 4.8637402h-1.9004018v-3.543122h1.7876661c1.4011437 0 2.1580834.483153 2.1580834 1.7554559 0 1.2078825-.7086244 1.7876661-2.0453477 1.7876661z" fill="#4559fc" fill-rule="nonzero"/></g></g></g></svg>
