<?xml version="1.0" encoding="UTF-8"?>
<svg width="124px" height="124px" viewBox="0 0 124 124" version="1.1" xmlns="http://www.w3.org/2000/svg" xmlns:xlink="http://www.w3.org/1999/xlink">
    <title>ico_lease</title>
    <g id="Page-1" stroke="none" stroke-width="1" fill="none" fill-rule="evenodd">
        <g id="T로밍센터_지점대리점_RM_0902_t" transform="translate(-92.000000, -462.000000)">
            <g id="content" transform="translate(0.000000, 298.000000)">
                <g id="01" transform="translate(0.000167, 0.000000)">
                    <g id="Group-4" transform="translate(84.999833, 164.000000)">
                        <g id="ico_lease" transform="translate(7.000000, 0.000000)">
                            <circle id="Oval-Copy" fill="#F3F4F9" cx="62" cy="62" r="62"></circle>
                            <g id="icon_auto" transform="translate(40.000000, 28.000000)" stroke-width="2.4">
                                <path d="M40,1.2 C40.9941125,1.2 41.8941125,1.60294373 42.5455844,2.25441559 C43.1970563,2.90588745 43.6,3.80588745 43.6,4.8 L43.6,4.8 L43.6,62.4 C43.6,63.3941125 43.1970563,64.2941125 42.5455844,64.9455844 C41.8941125,65.5970563 40.9941125,66 40,66 L40,66 L4.8,66 C3.80588745,66 2.90588745,65.5970563 2.25441559,64.9455844 C1.60294373,64.2941125 1.2,63.3941125 1.2,62.4 L1.2,62.4 L1.2,4.8 C1.2,3.80588745 1.60294373,2.90588745 2.25441559,2.25441559 C2.90588745,1.60294373 3.80588745,1.2 4.8,1.2 L4.8,1.2 Z" id="Rectangle" stroke="#000000" fill="#FFFFFF"></path>
                                <path d="M43.6,10.8 L43.6,58 L1.2,58 L1.2,10.8 L43.6,10.8 Z" id="Rectangle-Copy" stroke="#000000" fill="#8EA3FF"></path>
                                <line x1="25.6" y1="6" x2="19.2" y2="6" id="Stroke-1" stroke="#000000" stroke-linecap="round"></line>
                                <g id="Group-3" transform="translate(13.600000, 24.000000)" stroke="#FFFFFF" stroke-linecap="round">
                                    <polyline id="Stroke-2" stroke-linejoin="round" points="12 6.4 16.8 6.4 16.8 1.6"></polyline>
                                    <path d="M0,8 C0,3.58171429 3.62628571,0 8.10051429,0 C11.1589714,0 13.8211429,1.67428571 15.2,4.14514286" id="Stroke-3"></path>
                                    <polyline id="Stroke-5" stroke-linejoin="round" points="4.8 12.8 0.8 12.8 0.8 17.6"></polyline>
                                    <path d="M17.6,10.4 C17.6,14.8182857 13.9737143,18.4 9.49948571,18.4 C6.44102857,18.4 3.77885714,16.7257143 2.4,14.2548571" id="Stroke-7"></path>
                                </g>
                            </g>
                        </g>
                    </g>
                </g>
            </g>
        </g>
    </g>
</svg>