<svg height="214" viewBox="0 0 289 214" width="289" xmlns="http://www.w3.org/2000/svg" xmlns:xlink="http://www.w3.org/1999/xlink"><mask id="a" fill="#fff"><ellipse cx="115.423148" cy="107" fill="#fff" fill-rule="evenodd" rx="99.008" ry="99"/></mask><g fill="none" fill-rule="evenodd"><g transform="translate(.6)"><path d="m.4 0h286v214h-286z" fill="#747474" opacity="0"/><ellipse cx="115.423148" cy="107" rx="100.508" ry="100.5" stroke="#fff" stroke-width="3"/><g fill="#bed4ff"><path d="m175.606109 24.6182465c-2.726788-3.9505877-2.726788 3.5944277 0 22.635046l-16.857313 6.182241-12.335519 17.6179356-5.54258 12.2193589-13.298911-12.2193589-12.073149-7.4302991-9.498637 26.3294637 9.498637 33.7887873 25.304418 18.318673 11.628348 16.145973v25.081406l13.331708 11.912527 25.228576-19.985514 5.308906-33.154392v-18.318673l7.137301-15.694019 11.786181 15.694019h13.175925c0-46.8705917-17.597964-79.9116499-52.793891-99.1231745z" mask="url(#a)" opacity=".3"/><path d="m67.8140871 16.2608691c5.0568896-4.8821905 7.7855272 7.0867446 8.1859129 35.9068055l-8.1859129 15.8716598-12.6364645 7.3621555-7.3802468 12.8381389v25.1035262l-23.8554736 7.456845-13.9419022-7.456845c.3389255-40.7836536 19.6102879-73.1444156 57.8140871-97.0822859z" mask="url(#a)" opacity=".3"/></g></g><path d="m17.0151481 163.571429c-32.3047219 53.741919 13.5418014 44.511347 137.5395699-27.691715" stroke="#fff" stroke-linecap="round" stroke-width="3"/><g transform="matrix(.96592583 -.25881905 .25881905 .96592583 126.10281870619 53.06599032065)"><path d="m99.6351205 55.2064787-21.3332162 7.4084027-3.0511538 35.0651271 7.5885634-2.6338169z" fill="#fff" stroke="#fff" stroke-width="2.4"/><path d="m123.966734 24.6164596-31.179884 10.8240873-40.1193-35.40095999-9.8427789 3.41620364 25.3551315 40.53626185-36.103121 12.5340218-27.15262107-14.3227637-4.92323685 1.7099346 14.02706842 18.8807564 14.6052947 20.5100509 11.4850895-3.9843491 21.3352579-7.4097164 14.7641684-5.1298036 24.6124894-8.54784 14.769711-5.1298037 16.410173-5.6942836c6.316153-2.19744 9.676516-9.1178182 7.461521-15.3857455-2.2113-6.2660945-9.18881-9.5979927-15.504963-7.4060509" fill="#4559fc"/><path d="m52.399016 1.40301177-7.7585058 2.69280006 25.3550616 40.53615007-38.0176333 13.1986884-27.15253861-14.3227202-2.88600647 1.0023654 13.06608638 17.5876328 14.08383 19.7777639 10.6353747-3.6895703 21.3351057-7.4096635 14.7643229-5.1298573 24.6124669-8.5478322 14.770036-5.1299167 16.409253-5.6939635c5.691605-1.9801551 8.716555-8.2151979 6.724225-13.8530362-1.990855-5.6414258-8.285577-8.6478746-13.979933-6.6717196l.000114-.0000394-31.84192 11.0539127z" fill="#fff" stroke="#fff" stroke-width="2.4"/><g fill="#697dfc"><path d="m50.5428916 60.5113396c.6059368 1.8052364-.3787105 3.7607564-2.2002158 4.3618909-1.8252.5974691-3.7926474-.3848727-4.3985842-2.190109-.6040895-1.8070691.3842526-3.7589237 2.2039105-4.3600582 1.8252-.5993018 3.7944947.38304 4.3948895 2.1882763"/><path d="m60.4453405 57.2531171c.6059369 1.8070691-.3805579 3.7589236-2.2020631 4.3618909-1.8270474.5974691-3.7944948-.38304-4.3967369-2.1901091-.6040894-1.8070691.3842527-3.7589236 2.2039106-4.3600582 1.8233526-.5974691 3.7944947.38304 4.3948894 2.1882764"/><path d="m70.3479742 53.9956276c.6059369 1.8107346-.3824053 3.7607564-2.2039105 4.3618909-1.8252.6011346-3.7926474-.3812072-4.3948895-2.190109-.6059368-1.8070691.3805579-3.7589237 2.2002158-4.3563928 1.8233526-.6011345 3.7926474.3793746 4.3985842 2.1846109"/><path d="m121.830876 29.9883992c-1.804879.62496-2.767358 2.6043055-2.133711 4.3967128.633647 1.7887418 2.626958 2.7399272 4.42999 2.1149672l13.073826-4.5414981c-1.093642-2.406371-2.922537-4.301411-5.122753-5.5293382z"/></g></g></g></svg>
