<svg height="40" viewBox="0 0 40 40" width="40" xmlns="http://www.w3.org/2000/svg"><g fill="none" fill-rule="evenodd"><path d="m0 0h40v40h-40z" fill="#fff" opacity="0"/><g stroke="#fff" stroke-width="1.8"><path d="m17.0364033 29-5.0364033 3.8934897v3.1065103l7-2.3287325-.3684211-4.6712675z" stroke-linejoin="round"/><path d="m16.6084798 14-12.6084798 9.1907418v2.8092582l14-4.3092582z" stroke-linejoin="round"/><path d="m34.6084798 14-12.6084798 9.1907418v2.8092582l14-4.3092582z" stroke-linejoin="round" transform="matrix(-1 0 0 1 58 0)"/><path d="m27.0364033 29-5.0364033 3.8934897v3.1065103l7-2.3287325-.3684211-4.6712675z" stroke-linejoin="round" transform="matrix(-1 0 0 1 51 0)"/><path d="m20.5 3.9c-.0392524 0-.0785019.0006701-.1177314.00201001-1.903678.06502126-3.3942038 1.66096732-3.3291825 3.5646453l.787746 23.06345159c.0489547 1.4332862 1.2250459 2.5698931 2.6591679 2.5698931s2.6102132-1.1366069 2.6591679-2.5698931l.787746-23.06345159c.0013399-.0392295.00201-.07847902.00201-.1177314 0-1.90478808-1.5441358-3.44892391-3.4489239-3.44892391z" fill="#4559fc"/></g></g></svg>
