<svg width="60" height="60" viewBox="0 0 120 120" xmlns="http://www.w3.org/2000/svg"><mask id="a" fill="#fff"><path d="m0 .0001h120v119.9999h-120z" fill="#fff" fill-rule="evenodd"/></mask><g fill="none" fill-rule="evenodd" transform="translate(-300 -535)"><path d="m0 0h720v1560h-720z" fill="#f6f6f6"/><g transform="translate(0 282)"><path d="m0 0h720v559h-720z" fill="#fff"/><g transform="translate(300 253)"><path d="m0 120h120v-120h-120z" fill="#fff"/><path d="m60 .0001c33.137 0 60 26.863 60 60s-26.863 60-60 60-60-26.863-60-60 26.863-60 60-60" fill="#dcdcdc" mask="url(#a)"/><path d="m54 34.7999v-2.8h11.36v2.8l-2.96 35.521h-5.36zm.4 53.2h10.64v-10.96h-10.64z" fill="#fff"/></g></g></g></svg>
