<svg height="88" viewBox="0 0 88 88" width="88" xmlns="http://www.w3.org/2000/svg"><g fill="none" fill-rule="evenodd" transform="translate(-316 -1186)"><path d="m0 0h720v7408h-720z" fill="#f6f6f6"/><g transform="translate(0 678)"><path d="m0 0h720v890h-720z" fill="#fff"/><g transform="translate(40 460)"><path d="m12 0h616c6.627417 0 12 5.372583 12 12v334c0 6.627417-5.372583 12-12 12h-616c-6.627417 0-12-5.372583-12-12v-334c0-6.627417 5.372583-12 12-12z" fill="#f3f4f9"/><g transform="translate(276 48)"><path d="m44 .00007333c24.3004667 0 44 19.69953337 44 43.99999997 0 24.3004667-19.6995333 44-44 44s-44-19.6995333-44-44c0-24.3004666 19.6995333-43.99999997 44-43.99999997" fill="#4559fc"/><path d="m23.5157267 46.6240133 12.4021333 12.4021334 28.3352667-28.336" stroke="#fff" stroke-width="6"/></g></g></g></g></svg>
