<svg width="12" height="12" viewBox="0 0 24 24" xmlns="http://www.w3.org/2000/svg">
    <g fill="none" fill-rule="evenodd">
        <path d="m0 0h24v24h-24z" fill="#4559fc" opacity="0"/>
        <g stroke="#4559fc" stroke-linecap="round" stroke-width="2">
            <path d="m21.761 5.29333333c0 1.819-4.4236667 3.29333334-9.8803333 3.29333334-5.45700003 0-9.8806667-1.47433334-9.8806667-3.29333334s4.42366667-3.29333333 9.8806667-3.29333333c5.4566666 0 9.8803333 1.47433333 9.8803333 3.29333333z"/>
            <path d="m2 5v6.587c0 1.8186667 4.42366667 3.2933333 9.8806667 3.2933333 5.4566666 0 9.8803333-1.4746666 9.8803333-3.2933333v-6.587"/>
            <path d="m2.0001 11.8802667v6.587c0 1.8186666 4.42366667 3.2936666 9.8806667 3.2936666 5.4566666 0 9.8803333-1.475 9.8803333-3.2936666v-6.587"/>
        </g>
    </g>
</svg>
