<svg height="20" viewBox="0 0 40 40" width="20" xmlns="http://www.w3.org/2000/svg"><g fill="none" fill-rule="evenodd"><path d="m0 0h40v40h-40z" fill="#fff" opacity="0"/><g stroke="#fff" stroke-linejoin="round" stroke-width="1.8"><path d="m4 34v-2.5c0-6.9035594 5.59644063-12.5 12.5-12.5 6.9035594 0 12.5 5.5964406 12.5 12.5v2.5c-6.8857191 0-15.2190525 0-25 0z" stroke-linecap="square"/><g transform="translate(20 19)"><circle cx="8.5" cy="8.5" fill="#4559fc" r="8.5" stroke-linecap="square"/><path d="m1 8.5h16" fill="#4559fc" stroke-linecap="square"/><g stroke-linecap="round"><path d="m8 0c-4 5.35671158-4 11.0233782 0 17"/><path d="m12 0c-4 5.35671158-4 11.0233782 0 17" transform="matrix(-1 0 0 1 21 0)"/></g></g><circle cx="17" cy="12" r="7" stroke-linecap="square"/></g></g></svg>
