<svg width="16" height="16" viewBox="0 0 41 41" xmlns="http://www.w3.org/2000/svg">
    <g fill="none" fill-rule="evenodd">
        <path d="m0 0h41v41h-41z"/>
        <path d="m37.979199 31.3171533c-.0737434.5601963-.3376671 1.1275082-.6895655 1.4794098l-2.6178907 2.6243836c-8.9268327 7.4727335-20.2626165-3.6593883-20.3751722-3.771945l-5.92728752-5.9312235c-.11320259-.1132036-11.24910295-11.4465044-3.81072257-20.34172244l2.66381863-2.66578383c.35125146-.3512547.91855814-.61582776 1.47810237-.68892496.10932136-.01487819.21540835-.02134697.31761412-.02134697.41076368 0 .75231206.11255675.94572677.30338574l5.5385175 6.39115365c.6630437.66369673.6630437 1.74398281 0 2.40703271l-2.0208279 2.0227872c-.4955039.5343211-.8506366 1.0427671-1.0725137 1.5499194-.4424604 1.2103086-1.1449633 4.3748352 1.8933942 7.6486843l3.4057807 3.4071059c3.2544127 3.0235073 6.4156759 2.3184104 7.6647856 1.859774.4670415-.2044135.974836-.5601963 1.5285583-1.0744642l2.0027155-2.0040278c.6429908-.6436435 1.7265012-.6766343 2.4412947.0342846l6.3302888 5.4887589c.2632769.2768638.373892.7426159.3033829 1.2827589z"
              fill="#bebebe"/>
    </g>
</svg>
