<?xml version="1.0" encoding="UTF-8"?>
<svg width="124px" height="124px" viewBox="0 0 124 124" version="1.1" xmlns="http://www.w3.org/2000/svg" xmlns:xlink="http://www.w3.org/1999/xlink">
    <title>ico_speed_01</title>
    <g id="Page-1" stroke="none" stroke-width="1" fill="none" fill-rule="evenodd">
        <g id="자동로밍_LTE자동로밍_RM_0807_t" transform="translate(-40.000000, -863.000000)">
            <g id="content" transform="translate(0.000000, 556.000000)">
                <g id="01" transform="translate(0.000000, 122.000000)">
                    <g id="ico_speed_01" transform="translate(40.000000, 185.000000)">
                        <circle id="Oval-Copy" fill="#F3F4F9" cx="62" cy="62" r="62"></circle>
                        <g id="icon_01" transform="translate(26.000000, 29.000000)">
                            <g id="icon_phone" transform="translate(15.000000, 0.000000)" stroke="#000000">
                                <path d="M39,1.2 C39.4970563,1.2 39.9470563,1.40147186 40.2727922,1.72720779 C40.5985281,2.05294373 40.8,2.50294373 40.8,3 L40.8,3 L40.8,61 C40.8,61.4970563 40.5985281,61.9470563 40.2727922,62.2727922 C39.9470563,62.5985281 39.4970563,62.8 39,62.8 L39,62.8 L3,62.8 C2.50294373,62.8 2.05294373,62.5985281 1.72720779,62.2727922 C1.40147186,61.9470563 1.2,61.4970563 1.2,61 L1.2,61 L1.2,3 C1.2,2.50294373 1.40147186,2.05294373 1.72720779,1.72720779 C2.05294373,1.40147186 2.50294373,1.2 3,1.2 L3,1.2 Z" id="Rectangle" stroke-width="2.4" fill="#FFFFFF"></path>
                                <path d="M40.8,9.2 L40.8,55.8 L1.2,55.8 L1.2,9.2 L40.8,9.2 Z" id="Rectangle-Copy" stroke-width="2.4" fill="#8EA3FF"></path>
                                <line x1="23" y1="5.75" x2="19" y2="5.75" id="Stroke-1" stroke-width="2" stroke-linecap="round"></line>
                            </g>
                            <g id="Group-3" transform="translate(28.500000, 23.500000)" stroke="#FFFFFF" stroke-linecap="round" stroke-width="2">
                                <polyline id="Stroke-2" stroke-linejoin="round" points="10.4090909 4.74675325 14.7727273 4.74675325 14.7727273 0.383116883"></polyline>
                                <path d="M0,7.27272727 C0,3.2561039 3.29662338,0 7.3641039,0 C10.1445195,0 12.5646753,1.52207792 13.8181818,3.76831169" id="Stroke-3"></path>
                                <polyline id="Stroke-5" stroke-linejoin="round" points="4.36363636 11.6363636 0.727272727 11.6363636 0.727272727 16"></polyline>
                                <path d="M15.5,8.95454545 C15.5,12.9711688 12.2033766,16.2272727 8.1358961,16.2272727 C5.35548052,16.2272727 2.93532468,14.7051948 1.68181818,12.458961" id="Stroke-7"></path>
                            </g>
                            <g id="Group-3" transform="translate(0.000000, 13.000000)">
                                <path d="M26.9130435,1.2 C27.1565322,1.2 27.3763957,1.30072597 27.5357701,1.46178377 C27.6996745,1.62741938 27.8,1.85653246 27.8,2.109 L27.8,2.109 L27.8,19.4314444 L23.507681,16.672 L2.08695652,16.672 C1.84346781,16.672 1.6236043,16.571274 1.4642299,16.4102162 C1.30032553,16.2445806 1.2,16.0154675 1.2,15.763 L1.2,15.763 L1.2,2.109 C1.2,1.85653246 1.30032553,1.62741938 1.4642299,1.46178377 C1.6236043,1.30072597 1.84346781,1.2 2.08695652,1.2 L2.08695652,1.2 Z" id="Path" stroke="#000000" stroke-width="2.4" fill="#FFFFFF"></path>
                                <path d="M11.253,11.131 L11.253,10.15 L8.715,10.15 L8.715,4.957 L7.437,4.957 L7.437,11.131 L11.253,11.131 Z M14.673,11.131 L14.673,5.92 L16.41,5.92 L16.41,4.957 L11.685,4.957 L11.685,5.92 L13.404,5.92 L13.404,11.131 L14.673,11.131 Z M21.252,11.131 L21.252,10.15 L18.507,10.15 L18.507,8.44 L20.604,8.44 L20.604,7.486 L18.507,7.486 L18.507,5.92 L21.189,5.92 L21.189,4.957 L17.229,4.957 L17.229,11.131 L21.252,11.131 Z" id="LTE" fill="#000000" fill-rule="nonzero"></path>
                            </g>
                        </g>
                    </g>
                </g>
            </g>
        </g>
    </g>
</svg>