<?xml version="1.0" encoding="UTF-8"?>
<svg width="124px" height="124px" viewBox="0 0 124 124" version="1.1" xmlns="http://www.w3.org/2000/svg" xmlns:xlink="http://www.w3.org/1999/xlink">
    <title>ico_lease3</title>
    <g id="Page-1" stroke="none" stroke-width="1" fill="none" fill-rule="evenodd">
        <g id="T로밍센터_지점대리점_RM_0902_t" transform="translate(-495.000000, -1822.000000)">
            <g id="content" transform="translate(0.000000, 298.000000)">
                <g id="01" transform="translate(0.000167, 0.000000)">
                    <g id="Group-4-Copy-3" transform="translate(91.999833, 1524.000000)">
                        <g id="ico_lease3" transform="translate(403.000000, 0.000000)">
                            <circle id="Oval-Copy-2" fill="#F3F4F9" cx="62" cy="62" r="62"></circle>
                            <g id="Group-2-Copy" transform="translate(49.000000, 28.000000)" stroke-width="2.4">
                                <path d="M33.6,1.2 C34.5941125,1.2 35.4941125,1.60294373 36.1455844,2.25441559 C36.7970563,2.90588745 37.2,3.80588745 37.2,4.8 L37.2,4.8 L37.2,52.8 C37.2,53.7941125 36.7970563,54.6941125 36.1455844,55.3455844 C35.4941125,55.9970563 34.5941125,56.4 33.6,56.4 L33.6,56.4 L4.8,56.4 C3.80588745,56.4 2.90588745,55.9970563 2.25441559,55.3455844 C1.60294373,54.6941125 1.2,53.7941125 1.2,52.8 L1.2,52.8 L1.2,4.8 C1.2,3.80588745 1.60294373,2.90588745 2.25441559,2.25441559 C2.90588745,1.60294373 3.80588745,1.2 4.8,1.2 L4.8,1.2 Z" id="Rectangle" stroke="#000000" fill="#FFFFFF"></path>
                                <path d="M37.2,9.2 L37.2,50 L1.2,50 L1.2,9.2 L37.2,9.2 Z" id="Rectangle-Copy" stroke="#000000" fill="#8EA3FF"></path>
                                <polyline id="Stroke-15-Copy" stroke="#FFFFFF" stroke-linecap="round" stroke-linejoin="round" transform="translate(19.925231, 25.976562) scale(1, -1) translate(-19.925231, -25.976562) " points="12.56 25.3525118 17.4719164 21.1765625 27.290462 30.7765625"></polyline>
                                <line x1="21.6" y1="5.2" x2="16.8" y2="5.2" id="Stroke-1" stroke="#000000" stroke-linecap="round"></line>
                            </g>
                            <g id="icon_plan" transform="translate(44.000000, 77.000000) scale(-1, 1) translate(-44.000000, -77.000000) translate(20.000000, 61.000000)">
                                <path d="M13.1513658,14.3342466 C12.9228314,14.3342466 12.6937214,14.403319 12.4974236,14.5414638 C12.1232489,14.8042901 11.9361616,15.2661387 12.0196313,15.7203775 L14.5323582,29.3680311 C14.5928018,29.6940763 14.7862213,29.9797317 15.0648375,30.1518273 L17.6639124,31.7633216 C17.8469701,31.8774667 18.054781,31.9342466 18.2631675,31.9342466 C18.4335609,31.9342466 18.6045299,31.8961982 18.7628346,31.8183454 C19.1145588,31.6456644 19.3563332,31.3038145 19.4052637,30.9092823 L20.7908613,19.6791629 C20.847851,19.2219973 20.6348593,18.773612 20.2480202,18.5336147 L13.7506209,14.5051715 C13.5664119,14.3910264 13.358601,14.3342466 13.1513658,14.3342466" id="Path" stroke="#000000" stroke-width="2.4" fill="#FFFFFF"></path>
                                <path d="M31.9413917,1.95108208 C32.0393184,1.93424658 32.0659002,1.94000213 32.0880528,1.95276426 L32.0880528,1.95276426 L35.016829,3.64458247 C35.02308,3.64819067 35.0374305,3.64966701 35.0342074,3.65201316 L35.0342074,3.65201316 L24.0660817,14.4522369 L34.7343728,20.6147433 L44.3572398,18.0118049 C44.4250013,17.998756 44.4740963,17.9911948 44.5136975,18.0141085 L44.5136975,18.0141085 L45.978511,18.8607577 C45.9835942,18.8636898 45.9992238,18.8635252 46.0001253,18.8731644 L46.0001253,18.8731644 L45.9915179,18.8708431 L40.1799216,23.7482039 L34.0502055,29.1054339 C34.0252295,29.1272849 33.9921152,29.1342466 33.9608454,29.1342466 C33.9340867,29.1342466 33.9069497,29.1278065 33.8858683,29.1157177 L33.8858683,29.1157177 L30.4690149,27.1420448 L24.1245889,23.4774887 L19.7327411,20.9396524 L12.4119672,16.7109005 L8.01952823,14.173712 L3.13891716,11.3552284 C2.18894477,10.8064922 1.5566289,9.94623485 1.31277592,8.99269898 C1.07280096,8.05432735 1.21197642,7.0299186 1.78290037,6.14275361 C2.5252712,4.98938155 3.88230356,4.28887582 5.31017046,4.28887582 C6.06753857,4.28887582 6.80966487,4.4848694 7.45615366,4.85859202 L7.45615366,4.85859202 L16.6567661,10.1728779 Z" id="Path" stroke="#000000" stroke-width="2.4" fill="#FFFFFF"></path>
                                <path d="M28.9654005,21.3264839 C28.6298363,21.8981043 28.8211011,22.6337253 29.3921728,22.969212 C29.9639251,23.3040183 30.6990353,23.1134781 31.0345995,22.5418577 C31.3701637,21.9702373 31.1788989,21.2346163 30.6078272,20.8991295 C30.0360749,20.5643233 29.3009647,20.7555439 28.9654005,21.3264839" id="Fill-10" fill="#8EA3FF"></path>
                                <path d="M25.7655419,19.7266417 C25.4299989,20.2982681 25.620571,21.0338969 26.1922872,21.3693872 C26.7640033,21.7041969 27.499067,21.5129743 27.8346099,20.9413478 C28.1701529,20.3697214 27.9789002,19.6347731 27.4078647,19.2992829 C26.8361485,18.9644731 26.1010848,19.1550152 25.7655419,19.7266417" id="Fill-12" fill="#8EA3FF"></path>
                                <path d="M22.5655419,18.1268694 C22.2299989,18.6984238 22.420571,19.4339599 22.9922872,19.7694079 C23.5640033,20.1041755 24.299067,19.9129769 24.6346099,19.3414225 C24.9701529,18.7698681 24.7789002,18.0350125 24.2078647,17.6995645 C23.6361485,17.3641165 22.9010848,17.555315 22.5655419,18.1268694" id="Fill-14" fill="#8EA3FF"></path>
                                <path d="M8.14393283,7.76535731 C8.78734109,8.1624181 8.99351181,9.0194404 8.60062043,9.67046285 C8.20772906,10.3214853 7.35970609,10.5298439 6.71551983,10.1327831 L2.4,7.53003341 C2.90118066,6.51502224 3.59508078,5.79314724 4.30323587,5.53424658 L8.14393283,7.76535731 Z" id="Fill-16" fill="#8EA3FF"></path>
                            </g>
                        </g>
                    </g>
                </g>
            </g>
        </g>
    </g>
</svg>