<svg height="37" viewBox="0 0 36 37" width="36" xmlns="http://www.w3.org/2000/svg"><g fill="none" fill-rule="evenodd"><path d="m0 .7h36v36h-36z" fill-rule="nonzero" opacity=".5"/><g stroke="#333" stroke-width="1.8"><circle cx="18" cy="18.7" r="14.4"/><g stroke-linecap="square" transform="translate(14.4 11.5)"><path d="m7.0875 4.34700808c0-.17959457-.02777351-.35544758-.0825699-.52306918-.3280277-1.02668227-1.59885353-1.7989389-3.10612953-1.7989389h-.70859987c-1.75423507 0-3.1902007 1.04464173-3.1902007 2.32200808 0 .75205224.49767131 1.42253862 1.26557138 1.8475791l4.55710787 2.20003343c.76714944.42504047 1.26482075 1.09627516 1.26482075 1.84757909 0 1.2773664-1.435215 2.4140503-3.18869943 2.4140503h-.70859987c-1.75423507 0-3.1902007-1.1366839-3.1902007-2.4140503"/><path d="m3.54375 0v2.025"/><path d="m3.54375 12.65625v2.025"/></g></g></g></svg>