<svg height="124" viewBox="0 0 124 124" width="124" xmlns="http://www.w3.org/2000/svg"><g fill="none" fill-rule="evenodd"><path d="m-299-462h720v4176h-720z" fill="#f6f6f6"/><g transform="translate(-298.999833 -164)"><path d="m0 0h720v2344h-720z" fill="#fff"/><circle cx="360.999833" cy="226" fill="#f3f4f9" r="62"/><g stroke="#000" stroke-linecap="round" stroke-linejoin="round" stroke-width="2.4" transform="translate(329.999833 195)"><path d="m52.1958194 21.2731355c.270658-.0235355.5354322-.0686452.8158967-.0686452 4.0539871 0 7.3391484 2.7379613 7.3391484 6.1162839v10.6027355c0 3.3783226-3.2851613 6.1162838-7.3391484 6.1162838-.2804645 0-.8158967-.0686451-.8158967-.0686451" fill="#8ea3ff"/><path d="m8.15582968 21.2731355c-.27065807-.0235355-.53543226-.0686452-.81589678-.0686452-4.05398709 0-7.34012903 2.7379613-7.34012903 6.1162839v10.6027355c0 3.3783226 3.28614194 6.1162838 7.34012903 6.1162838.28046452 0 .54523871-.044129.81589678-.0686451l1.25424516-.1774968" fill="#8ea3ff"/><path d="m40.7780697 56.2732439c0 2.2525419-1.8259613 4.0785032-4.0775226 4.0785032h-11.4186323c-2.2525419 0-4.0775225-1.8259613-4.0775225-4.0785032 0-2.2515613 1.8249806-4.0775226 4.0775225-4.0775226h11.4186323c2.2515613 0 4.0775226 1.8259613 4.0775226 4.0775226z" fill="#fff"/><path d="m22.153951 53.6641394c-7.9138065-1.1238194-13.99772906-7.9255742-13.99772906-16.1482839v-21.2044903c0-9.00820649 7.30090326-16.31107101 16.31009036-16.31107101h11.4176516c9.0101677 0 16.3120516 7.30286452 16.3120516 16.31107101v27.7287225"/></g></g></g></svg>