<svg height="195" viewBox="0 0 195 195" width="195" xmlns="http://www.w3.org/2000/svg" xmlns:xlink="http://www.w3.org/1999/xlink"><defs><path id="a" d="m20 0h616c11.045695 0 20 8.954305 20 20v515c0 11.045695-8.954305 20-20 20h-616c-11.045695 0-20-8.954305-20-20v-515c0-11.045695 8.954305-20 20-20z"/><filter id="b" height="115.5%" width="113.1%" x="-6.6%" y="-6.3%"><feMorphology in="SourceAlpha" operator="dilate" radius="1" result="shadowSpreadOuter1"/><feOffset dx="0" dy="8" in="shadowSpreadOuter1" result="shadowOffsetOuter1"/><feGaussianBlur in="shadowOffsetOuter1" result="shadowBlurOuter1" stdDeviation="12"/><feColorMatrix in="shadowBlurOuter1" type="matrix" values="0 0 0 0 0   0 0 0 0 0.176470588   0 0 0 0 0.929411765  0 0 0 0.152862762 0"/></filter><path id="c" d="m97.0315 0c-53.5890177 0-97.0315 43.4424823-97.0315 97.0315 0 53.589018 43.4424823 97.0315 97.0315 97.0315 27.134907 0 52.494507-11.204564 70.71421-30.588553 16.795725-17.869016 26.31729-41.418658 26.31729-66.442947 0-53.5890177-43.442482-97.0315-97.0315-97.0315zm0 14c45.857031 0 83.0315 37.1744688 83.0315 83.0315 0 21.425525-8.139421 41.556717-22.518405 56.854555-15.600473 16.597384-37.282159 26.176945-60.513095 26.176945-45.8570312 0-83.0315-37.174469-83.0315-83.0315 0-45.8570312 37.1744688-83.0315 83.0315-83.0315z"/><filter id="d" height="102.1%" width="102.1%" x="-1%" y="-1%"><feGaussianBlur in="SourceAlpha" result="shadowBlurInner1" stdDeviation="1.5"/><feOffset dx="0" dy="1" in="shadowBlurInner1" result="shadowOffsetInner1"/><feComposite in="shadowOffsetInner1" in2="SourceAlpha" k2="-1" k3="1" operator="arithmetic" result="shadowInnerInner1"/><feColorMatrix in="shadowInnerInner1" type="matrix" values="0 0 0 0 0.526126585   0 0 0 0 0.526126585   0 0 0 0 0.526126585  0 0 0 0.184877622 0"/></filter></defs><g fill="none" fill-rule="evenodd" transform="translate(-435 -977)"><path d="m0 0h76.1085353 643.8914647v3700h-720z" fill="#f6f6f6"/><g transform="translate(64 742)"><use fill="#000" filter="url(#b)" xlink:href="#a"/><use fill="#fff" fill-rule="evenodd" xlink:href="#a"/></g><g fill-rule="nonzero" transform="translate(435 977)"><use fill="#f0f0f0" xlink:href="#c"/><use fill="#000" filter="url(#d)" xlink:href="#c"/></g></g></svg>