<?xml version="1.0" encoding="UTF-8" standalone="no"?>
<svg width="80px" height="80px" viewBox="0 0 80 80" version="1.1" xmlns="http://www.w3.org/2000/svg" xmlns:xlink="http://www.w3.org/1999/xlink">
    <!-- Generator: Sketch 50.2 (55047) - http://www.bohemiancoding.com/sketch -->
    <title>graphic_80px_thumb_gift</title>
    <desc>Created with Sketch.</desc>
    <defs></defs>
    <g id="Icon_Badge_Graphic" stroke="none" stroke-width="1" fill="none" fill-rule="evenodd">
        <g id="##Element/Thumbnail/Gift">
            <circle id="Oval-3" fill="#59BCF5" cx="40" cy="40" r="40"></circle>
            <g id="Gift" transform="translate(22.000000, 21.000000)" stroke="#FFFFFF" stroke-width="2">
                <path d="M17.5,7.5 L8.5,15.5" id="Line-11" stroke-linecap="round"></path>
                <path d="M28.5,7.5 L19.5,15.5" id="Line-11-Copy" stroke-linecap="round" transform="translate(24.000000, 11.500000) scale(-1, 1) translate(-24.000000, -11.500000) "></path>
                <rect id="Rectangle-10" x="0" y="8" width="36" height="27" rx="3"></rect>
                <path d="M0,21.5 L35.6247837,21.5" id="Line-9" stroke-linecap="square"></path>
                <path d="M18.5,8.5 L18.5,35" id="Line-10" stroke-linecap="square"></path>
                <path d="M17.8767169,6.61361278 C17.8767169,4.99095621 16.4657041,2.41205031 13.6378067,0.823147713 C10.8099094,-0.765754881 7.73094778,0.0774143729 7.11013774,2.22466047 C6.4893277,4.37190656 8.53066997,6.72720299 12.2819533,7.22781614 C13.6055415,7.35903437 15.1690729,7.42464348 16.9725477,7.42464348" id="Oval-2" stroke-linecap="round"></path>
                <path d="M28.9725477,7.42464348 C27.1690729,7.42464348 25.6055415,7.35903437 24.2819533,7.22781614 C20.53067,6.72720299 18.4893277,4.37190656 19.1101377,2.22466047 C19.7309478,0.0774143729 22.8099094,-0.765754881 25.6378067,0.823147713 C28.4657041,2.41205031 29.8767169,4.99095621 29.8767169,6.61361278" id="Oval-2-Copy" stroke-linecap="round" transform="translate(24.438358, 3.712322) scale(-1, 1) translate(-24.438358, -3.712322) "></path>
            </g>
        </g>
    </g>
</svg>