<?xml version="1.0" encoding="UTF-8" standalone="no"?>
<svg width="56px" height="56px" viewBox="0 0 56 56" version="1.1" xmlns="http://www.w3.org/2000/svg" xmlns:xlink="http://www.w3.org/1999/xlink">
    <!-- Generator: Sketch 50.2 (55047) - http://www.bohemiancoding.com/sketch -->
    <title>graphic_56px_bi_skt</title>
    <desc>Created with Sketch.</desc>
    <defs></defs>
    <g id="Icon_Badge_Graphic" stroke="none" stroke-width="1" fill="none" fill-rule="evenodd">
        <g id="##Element/BI/size56">
            <rect id="Icon_Area" fill-opacity="0" fill="#FFFFFF" x="0" y="0" width="56" height="56"></rect>
            <g id="BI/Tlogo/Prototype" transform="translate(6.300000, 3.500000)" fill="#F44333">
                <path d="M24.1635328,32.7231935 C24.1635328,29.9227934 24.9169751,27.4854082 26.9261545,26.7593785 L35.4149376,23.6478229 C35.6158555,23.077371 36.0176914,21.9883265 35.9674619,20.484408 C35.867003,15.1429041 33.0541518,11.2534596 29.1362519,9.95697806 L5.88,2.43738525 L11.9577678,0.207437043 C12.2591447,0.103718521 12.7112101,0 13.0628165,0 C13.4646523,0 13.9167177,0.103718521 14.2180946,0.155577782 L37.9264119,7.83074837 C42.0452297,9.23094841 43.6023437,14.3650152 43.6023437,17.113556 C43.6023437,19.3435042 42.8489015,21.9364673 40.5383451,22.8180747 C38.4789362,23.5959636 32.350939,25.8777711 32.350939,25.8777711 C32.150021,26.448223 31.7481851,27.4335489 31.7481851,29.7153564 C31.7481851,31.0118379 31.7481851,37.9609788 31.7481851,39.2056011 C31.7481851,42.161579 30.3417595,44.9101198 27.6795968,44.9101198 C26.5243186,44.8582605 25.218352,44.2878086 24.1635328,43.2506234 L24.1635328,32.7231935 Z" id="Shape"></path>
                <path d="M18.848964,26.2635561 L18.848964,35.1208568 C18.848964,40.5915424 21.2417081,45.0722945 25.1482292,46.3748387 L19.0931216,48.6152147 C17.8723337,49.0841306 16.7003774,48.6152147 15.9679047,48.094197 C13.038014,46.0622281 11.4754055,42.9882238 11.4754055,38.1948611 C11.4754055,35.954485 11.4754055,32.8804807 11.4754055,28.8686446 C11.4754055,26.5761668 10.5964383,23.9710783 9.18032443,21.9912112 C8.15486266,20.5323616 6.93407484,19.5945298 5.37146642,19.0214104 C2.39274413,17.8751715 0,13.7591318 0,9.74729562 C0,6.25647714 1.66027144,4.06820288 3.85768952,3.91189757 C4.34600465,3.85979581 4.73665676,3.96399934 5.12730886,4.06820288 C6.44575971,4.48501702 7.47122148,4.90183117 7.47122148,4.90183117 C6.73874879,8.91366732 8.93616687,15.1137777 13.3798345,16.7810343 C15.137769,17.4062555 16.1632308,18.3961891 17.042198,19.8550387 C18.2141543,21.7828041 18.848964,24.1794854 18.848964,26.2635561 Z" id="Shape"></path>
            </g>
        </g>
    </g>
</svg>