<?xml version="1.0" encoding="utf-8"?>
<!-- Generator: Adobe Illustrator 21.0.1, SVG Export Plug-In . SVG Version: 6.00 Build 0)  -->
<svg version="1.1" id="레이어_1" xmlns="http://www.w3.org/2000/svg" xmlns:xlink="http://www.w3.org/1999/xlink" x="0px"
	 y="0px" viewBox="0 0 88 88" style="enable-background:new 0 0 88 88;" xml:space="preserve">
<style type="text/css">
	.st0{fill:#F76252;}
	.st1{enable-background:new    ;}
	.st2{fill:#FFFFFF;}
</style>
<title>graphic_80px_thumb_recieve</title>
<desc>Created with Sketch.</desc>
<g id="Icon_Badge_Graphic">
	<g id="_x23__x23_Element_x2F_Thumbnail_x2F_받음">
		<circle id="Oval-3" class="st0" cx="44" cy="44" r="44"/>
		<g class="st1">
			<path class="st2" d="M21.7,43.3V31.9h2.5v3.8h6.7v-3.8h2.5v11.5H21.7z M30.9,37.7h-6.7v3.6h6.7V37.7z M24.3,54.6V46h15.5v2h-13
				v4.6h13.3v2H24.3z M39.7,38.8v5.8h-2.5V30.5h2.5v6.2h3.6v2H39.7z"/>
		</g>
		<g class="st1">
			<path class="st2" d="M44.1,44.2v-2h22.1v2H44.1z M55.1,40.4c-5.3,0-8.4-1.9-8.4-4.7s3.1-4.6,8.4-4.6c5.3,0,8.4,1.8,8.4,4.6
				S60.4,40.4,55.1,40.4z M46.8,54.6v-8h16.7v8H46.8z M61,48.5H49.2v4.1H61V48.5z M55.1,33.1c-3.6,0-5.8,1.1-5.8,2.7
				s2.2,2.7,5.8,2.7c3.6,0,5.9-1.1,5.9-2.7S58.7,33.1,55.1,33.1z"/>
		</g>
	</g>
</g>
</svg>
