<?xml version="1.0" encoding="UTF-8" standalone="no"?>
<svg width="80px" height="80px" viewBox="0 0 80 80" version="1.1" xmlns="http://www.w3.org/2000/svg" xmlns:xlink="http://www.w3.org/1999/xlink">
    <!-- Generator: Sketch 50.2 (55047) - http://www.bohemiancoding.com/sketch -->
    <title>graphic_80px_bi_skt</title>
    <desc>Created with Sketch.</desc>
    <defs></defs>
    <g id="New-GUI" stroke="none" stroke-width="1" fill="none" fill-rule="evenodd">
        <g id="##Element/BI/size80">
            <rect id="Icon_Area" fill-opacity="0" fill="#FFFFFF" x="0" y="0" width="80" height="80"></rect>
            <g id="BI/Tlogo/Prototype" transform="translate(9.000000, 5.000000)" fill="#F44333">
                <path d="M34.5193326,46.7474193 C34.5193326,42.7468478 35.5956787,39.2648688 38.465935,38.2276836 L50.592768,33.7826041 C50.8797936,32.9676729 51.4538449,31.4118951 51.3820885,29.26344 C51.2385756,21.6327202 47.2202168,16.0763708 41.623217,14.2242544 L8.4,3.48197893 L17.0825254,0.296338633 C17.5130638,0.148169316 18.1588715,0 18.6611664,0 C19.2352176,0 19.8810253,0.148169316 20.3115637,0.222253974 L54.1805884,11.1867834 C60.0646138,13.1870692 62.2890625,20.5214503 62.2890625,24.4479372 C62.2890625,27.6335775 61.2127164,31.3378104 57.9119216,32.5972496 C54.9699089,33.7085195 46.2156271,36.9682444 46.2156271,36.9682444 C45.9286014,37.7831757 45.3545502,39.1907842 45.3545502,42.4505091 C45.3545502,44.3026256 45.3545502,54.2299698 45.3545502,56.0080016 C45.3545502,60.2308271 43.3453708,64.157314 39.5422811,64.157314 C37.8918837,64.0832293 36.0262171,63.2682981 34.5193326,61.7866049 L34.5193326,46.7474193 Z" id="Shape"></path>
                <path d="M26.9270914,37.5193659 L26.9270914,50.1726525 C26.9270914,57.9879177 30.3452973,64.3889921 35.9260417,66.2497696 L27.2758879,69.4503068 C25.5319053,70.1201866 23.857682,69.4503068 22.8112925,68.7059958 C18.6257342,65.803183 16.3934365,61.4117482 16.3934365,54.5640873 C16.3934365,51.3635501 16.3934365,46.9721153 16.3934365,41.2409208 C16.3934365,37.9659525 15.137769,34.2443976 13.1147492,31.4160159 C11.6498038,29.3319452 9.9058212,27.9921854 7.67352346,27.1734434 C3.41820591,25.5359592 0,19.6559025 0,13.924708 C0,8.93782449 2.37181634,5.8117184 5.51098503,5.5884251 C6.20857807,5.51399401 6.76665251,5.6628562 7.32472694,5.8117184 C9.20822816,6.40716718 10.6731735,7.00261596 10.6731735,7.00261596 C9.62678398,12.7338105 12.7659527,21.5911111 19.1140494,23.9729062 C21.6253843,24.8660794 23.0903297,26.2802702 24.3459972,28.3643409 C26.0202205,31.1182915 26.9270914,34.542122 26.9270914,37.5193659 Z" id="Shape"></path>
            </g>
        </g>
    </g>
</svg>