<?xml version="1.0" encoding="UTF-8" standalone="no"?>
<svg width="80px" height="80px" viewBox="0 0 80 80" version="1.1" xmlns="http://www.w3.org/2000/svg" xmlns:xlink="http://www.w3.org/1999/xlink">
    <!-- Generator: Sketch 50.2 (55047) - http://www.bohemiancoding.com/sketch -->
    <title>icon_80px_watch</title>
    <desc>Created with Sketch.</desc>
    <defs></defs>
    <g id="Icon_Badge_Graphic" stroke="none" stroke-width="1" fill="none" fill-rule="evenodd">
        <g id="##Icon/80/Watch">
            <rect id="Icon_Area" fill-opacity="0" fill="#FFFFFF" x="0" y="0" width="80" height="80"></rect>
            <g id="icon_80px_watch" transform="translate(19.000000, 4.000000)">
                <path d="M33.2,16.1 L30.7,3.4 C30.3,2.1 30.1,0.8 28.4,0.8 L12.4,0.8 C10.7,0.8 10.6,1.9 10.2,3.4 L7.6,16" id="Shape" stroke="#333333" stroke-width="3"></path>
                <path d="M7.7,55.8 L10.3,68.5 C10.7,69.9 10.9,71.2 12.6,71.2 L28.7,71.2 C30.4,71.2 30.5,70 30.9,68.6 L33.5,55.9" id="Shape" stroke="#333333" stroke-width="3"></path>
                <path d="M38.3,15.6 L34.2,15.6 L34.1,15.6 L6.8,15.6 L6.7,15.6 L2.6,15.6 C1.2,15.6 0,16.9 0,18.4 L0,53.5 C0,55 1.1,56.3 2.6,56.3 L6.7,56.3 L6.8,56.3 L34,56.3 L34.1,56.3 L38.3,56.3 C39.7,56.3 40.9,55 40.9,53.5 L40.9,18.4 C40.9,16.8 39.7,15.6 38.3,15.6 Z" id="Shape" stroke="#333333" stroke-width="3"></path>
                <path d="M43.4,36 C42,36 40.8,34.8 40.8,33.4 L40.8,28.3 C40.8,26.9 42,25.7 43.4,25.7 C44.8,25.7 46,26.9 46,28.3 L46,33.4 C46,34.7 44.8,36 43.4,36 Z" id="Shape" fill="#333333" fill-rule="nonzero"></path>
            </g>
        </g>
    </g>
</svg>