<?xml version="1.0" encoding="UTF-8" standalone="no"?>
<svg width="80px" height="80px" viewBox="0 0 80 80" version="1.1" xmlns="http://www.w3.org/2000/svg" xmlns:xlink="http://www.w3.org/1999/xlink">
    <!-- Generator: Sketch 50.2 (55047) - http://www.bohemiancoding.com/sketch -->
    <title>icon_80px_movie</title>
    <desc>Created with Sketch.</desc>
    <defs></defs>
    <g id="Icon_Badge_Graphic" stroke="none" stroke-width="1" fill="none" fill-rule="evenodd">
        <g id="##Icon/80/Movie">
            <rect id="Icon_Area" fill-opacity="0" fill="#FFFFFF" x="0" y="0" width="80" height="80"></rect>
            <g id="icon_80px_movie" transform="translate(10.000000, 10.000000)">
                <path d="M29.5,0 C45.7923327,0 59,13.2073952 59,29.4993923 C59,45.7926048 45.7923327,59 29.5,59 C13.2076673,59 0,45.7926048 0,29.4993923 C0,13.2073952 13.2076673,0 29.5,0 Z" id="Stroke-1" stroke="#333333" stroke-width="3"></path>
                <path d="M29,59 L57,59" id="Stroke-3" stroke="#333333" stroke-width="3"></path>
                <path d="M29.5,8 C32.5384615,8 35,10.4630769 35,13.5 C35,16.5369231 32.5384615,19 29.5,19 C26.4615385,19 24,16.5369231 24,13.5 C24,10.4630769 26.4615385,8 29.5,8" id="Fill-5" stroke="#333333" stroke-width="3" fill-rule="nonzero"></path>
                <path d="M13.5,24 C16.5384615,24 19,26.4630769 19,29.5 C19,32.5369231 16.5384615,35 13.5,35 C10.4615385,35 8,32.5369231 8,29.5 C8,26.4630769 10.4615385,24 13.5,24" id="Fill-5-Copy-2" stroke="#333333" stroke-width="3" fill-rule="nonzero"></path>
                <path d="M45.5,24 C48.5384615,24 51,26.4630769 51,29.5 C51,32.5369231 48.5384615,35 45.5,35 C42.4615385,35 40,32.5369231 40,29.5 C40,26.4630769 42.4615385,24 45.5,24" id="Fill-5-Copy-3" stroke="#333333" stroke-width="3" fill-rule="nonzero"></path>
                <path d="M29.5,40 C32.5384615,40 35,42.4630769 35,45.5 C35,48.5369231 32.5384615,51 29.5,51 C26.4615385,51 24,48.5369231 24,45.5 C24,42.4630769 26.4615385,40 29.5,40" id="Fill-5-Copy" stroke="#333333" stroke-width="3" fill-rule="nonzero"></path>
                <path d="M29.4990543,26 C31.430154,26 33,27.5660632 33,29.4990543 C33,31.4320454 31.430154,33 29.4990543,33 C27.5660632,33 26,31.4320454 26,29.4990543 C26,27.5660632 27.5660632,26 29.4990543,26" id="Fill-9" fill="#333333" fill-rule="nonzero"></path>
            </g>
        </g>
    </g>
</svg>