<?xml version="1.0" encoding="UTF-8" standalone="no"?>
<svg width="48px" height="48px" viewBox="0 0 48 48" version="1.1" xmlns="http://www.w3.org/2000/svg" xmlns:xlink="http://www.w3.org/1999/xlink">
    <!-- Generator: Sketch 50.2 (55047) - http://www.bohemiancoding.com/sketch -->
    <title>icon_48px_alarm</title>
    <desc>Created with Sketch.</desc>
    <defs></defs>
    <g id="New-GUI" stroke="none" stroke-width="1" fill="none" fill-rule="evenodd">
        <g id="##Icon/48/Alram">
            <rect id="Icon_Area" fill-opacity="0" fill="#FFFFFF" x="0" y="0" width="48" height="48"></rect>
            <path d="M27,7.64834603 L27,7 C27,5.34314575 25.6568542,4 24,4 C22.3431458,4 21,5.34314575 21,7 L21,7.64834603" id="Oval-16" stroke="#333333" stroke-width="2" stroke-linecap="round"></path>
            <path d="M29,44 C29,41.2385763 26.7614237,39 24,39 C21.2385763,39 19,41.2385763 19,44" id="Oval-16-Copy" stroke="#333333" stroke-width="2" stroke-linecap="round" transform="translate(24.000000, 41.500000) rotate(-180.000000) translate(-24.000000, -41.500000) "></path>
            <path d="M11.4024096,30.9412883 L11.4024096,20.3838498 C11.4024096,13.5444384 16.9628172,8 23.8219276,8 C30.681038,8 36.2414456,13.5444384 36.2414456,20.3838498 L36.2414456,30.9412883 L41,38 L7,38 L11.4024096,30.9412883 Z" id="Rectangle-36" stroke="#333333" stroke-width="2" stroke-linejoin="round"></path>
        </g>
    </g>
</svg>