<?xml version="1.0" encoding="UTF-8" standalone="no"?>
<svg width="80px" height="80px" viewBox="0 0 80 80" version="1.1" xmlns="http://www.w3.org/2000/svg" xmlns:xlink="http://www.w3.org/1999/xlink">
    <!-- Generator: Sketch 50.2 (55047) - http://www.bohemiancoding.com/sketch -->
    <title>icon_80px_data</title>
    <desc>Created with Sketch.</desc>
    <defs></defs>
    <g id="Icon_Badge_Graphic" stroke="none" stroke-width="1" fill="none" fill-rule="evenodd">
        <g id="##Icon/80/Data">
            <rect id="Icon_Area" fill-opacity="0" fill="#FFFFFF" x="0" y="0" width="80" height="80"></rect>
            <g id="icon_80px_data" transform="translate(17.000000, 10.000000)" stroke="#333333" stroke-width="3">
                <path d="M45.7429974,7.74559804 C45.7429974,11.8725645 35.7187013,15.2182591 23.3529723,15.2182591 C10.9884007,15.2182591 0.964104598,11.8725645 0.964104598,7.74559804 C0.964104598,3.61863156 10.9884007,0.271860833 23.3529723,0.271860833 C35.7187013,0.271860833 45.7429974,3.61863156 45.7429974,7.74559804 Z" id="Stroke-1"></path>
                <path d="M45.7429974,22.1394025 C45.7429974,26.266369 35.7187013,29.6120636 23.3529723,29.6120636 C10.9884007,29.6120636 0.964104598,26.266369 0.964104598,22.1394025" id="Stroke-3"></path>
                <path d="M45.7429974,37.5326689 C45.7429974,41.6607115 35.7187013,45.00533 23.3529723,45.00533 C10.9884007,45.00533 0.964104598,41.6607115 0.964104598,37.5326689" id="Stroke-5"></path>
                <path d="M0.963554353,7.74559804 L0.963554353,50.9264733 C0.963554353,55.0534398 10.1460677,59.4002105 23.3535795,59.4002105 C36.5610912,59.4002105 45.7424472,55.0534398 45.7424472,50.9264733 L45.7424472,7.74559804" id="Stroke-7"></path>
            </g>
        </g>
    </g>
</svg>