<?xml version="1.0" encoding="UTF-8" standalone="no"?>
<svg width="80px" height="80px" viewBox="0 0 80 80" version="1.1" xmlns="http://www.w3.org/2000/svg" xmlns:xlink="http://www.w3.org/1999/xlink">
    <!-- Generator: Sketch 50.2 (55047) - http://www.bohemiancoding.com/sketch -->
    <title>icon_80px_price_plan</title>
    <desc>Created with Sketch.</desc>
    <defs></defs>
    <g id="Icon_Badge_Graphic" stroke="none" stroke-width="1" fill="none" fill-rule="evenodd">
        <g id="##Icon/80/PricePlan">
            <rect id="Icon_Area" fill-opacity="0" fill="#FFFFFF" x="0" y="0" width="80" height="80"></rect>
            <g id="icon_80px_cell" transform="translate(19.000000, 7.000000)" stroke="#333333" stroke-width="3">
                <path d="M2.6,0.2 L39.4,0.2 C40.8,0.2 42,1.3 42,2.7 L42,63.3 C42,64.6 40.8,65.8 39.4,65.8 L2.6,65.8 C1.2,65.8 0,64.7 0,63.3 L0,2.7 C0,1.2 1.2,0.2 2.6,0.2 Z" id="Rectangle"></path>
                <path d="M17.1,9.4 L25,9.4" id="Line-2" stroke-linecap="round"></path>
                <path d="M0,53.3 L42,53.3" id="Line-2-Copy" stroke-linecap="round"></path>
                <polyline id="Shape" stroke-linecap="round" stroke-linejoin="round" points="9.2 23.2 15.1 38.9 21 23.2 26.9 38.9 32.8 23.2"></polyline>
                <path d="M9.2,32.3 L32.8,32.3" id="Shape" stroke-linecap="round" stroke-linejoin="round"></path>
            </g>
        </g>
    </g>
</svg>