<?xml version="1.0" encoding="UTF-8"?>
<svg width="48px" height="48px" viewBox="0 0 48 48" version="1.1" xmlns="http://www.w3.org/2000/svg" xmlns:xlink="http://www.w3.org/1999/xlink">
    <!-- Generator: Sketch 52.4 (67378) - http://www.bohemiancoding.com/sketch -->
    <title>mdpi/##Icon/48/Tcoupon Copy 2</title>
    <desc>Created with Sketch.</desc>
    <g id="##Icon/48/Tcoupon-Copy-2" stroke="none" stroke-width="1" fill="none" fill-rule="evenodd">
        <rect id="Icon_Area" fill-opacity="0" fill="#FFFFFF" x="0" y="0" width="48" height="48"></rect>
        <g id="Group-21" transform="translate(3.000000, 9.000000)" stroke="#333333" stroke-width="2">
            <path d="M27,32 L5,32 C5,29.239 2.761,27 0,27 L0,5 C2.761,5 5,2.761 5,0 L20,0 L26,10.875" id="Stroke-3"></path>
            <path d="M26,11 L26,12" id="Stroke-5" stroke-linecap="square"></path>
            <path d="M26,15.2729 L26,18.5449" id="Stroke-7" stroke-linecap="square" stroke-dasharray="1.636,3.273"></path>
            <path d="M26,20.1816 L26,28.3636" id="Stroke-9" stroke-linecap="square" stroke-dasharray="1.636,3.273,1.636,3.273"></path>
            <path d="M26,30 L26,31" id="Stroke-11" stroke-linecap="square"></path>
            <path d="M27,32 L37,32 C37,29.239 39.239,27 42,27 L42,5 C39.239,5 37,2.761 37,0 L32,0 L26,10.875" id="Stroke-13"></path>
            <path d="M16.5,13.5 L9.5,20.5" id="Stroke-15" stroke-linecap="square"></path>
            <path d="M8,12 C9.104,12 10,12.896 10,14 C10,15.104 9.104,16 8,16 C6.896,16 6,15.104 6,14 C6,12.896 6.896,12 8,12 Z" id="Stroke-17"></path>
            <path d="M18,18 C19.104,18 20,18.896 20,20 C20,21.104 19.104,22 18,22 C16.896,22 16,21.104 16,20 C16,18.896 16.896,18 18,18 Z" id="Stroke-19"></path>
        </g>
    </g>
</svg>