<?xml version="1.0" encoding="UTF-8"?>
<svg width="32px" height="32px" viewBox="0 0 32 32" version="1.1" xmlns="http://www.w3.org/2000/svg" xmlns:xlink="http://www.w3.org/1999/xlink">
    <!-- Generator: Sketch 52.4 (67378) - http://www.bohemiancoding.com/sketch -->
    <title>mdpi/##Icon/32/Timer Copy</title>
    <desc>Created with Sketch.</desc>
    <defs>
        <polygon id="path-1" points="0 32 32 32 32 0 0 0"></polygon>
    </defs>
    <g id="##Icon/32/Timer-Copy" stroke="none" stroke-width="1" fill="none" fill-rule="evenodd">
        <rect id="Icon_Area" fill-opacity="0" fill="#FFFFFF" x="0" y="0" width="32" height="32"></rect>
        <g id="Group-11">
            <path d="M28.4443,27 L3.5553,27 C2.7003,27 2.0003,26.293 2.0003,25.429 L2.0003,6.571 C2.0003,5.707 2.7003,5 3.5553,5 L28.4443,5 C29.2993,5 30.0003,5.707 30.0003,6.571 L30.0003,25.429 C30.0003,26.293 29.2993,27 28.4443,27 Z" id="Stroke-3" stroke="#666666" stroke-width="2"></path>
            <path d="M24,18 L7,18" id="Stroke-5" stroke="#666666" stroke-width="2" stroke-linecap="round"></path>
            <path d="M17,22 L7,22" id="Stroke-7" stroke="#666666" stroke-width="2" stroke-linecap="round"></path>
            <mask id="mask-2" fill="white">
                <use xlink:href="#path-1"></use>
            </mask>
            <g id="Clip-10"></g>
            <polygon id="Stroke-9" stroke="#666666" stroke-width="2" stroke-linecap="round" stroke-linejoin="round" mask="url(#mask-2)" points="7 14 11 14 11 10 7 10"></polygon>
        </g>
    </g>
</svg>