<?xml version="1.0" encoding="UTF-8" standalone="no"?>
<svg width="136px" height="56px" viewBox="0 0 136 56" version="1.1" xmlns="http://www.w3.org/2000/svg" xmlns:xlink="http://www.w3.org/1999/xlink">
    <!-- Generator: Sketch 50.2 (55047) - http://www.bohemiancoding.com/sketch -->
    <title>graphic_home_tab_store_on</title>
    <desc>Created with Sketch.</desc>
    <defs></defs>
    <g id="Icon_Badge_Graphic" stroke="none" stroke-width="1" fill="none" fill-rule="evenodd">
        <g id="##Element/HomeTab/StoreOn">
            <rect id="Icon_Area" fill-opacity="0" fill="#FFFFFF" x="0" y="0" width="136" height="56"></rect>
            <path d="M25.928,40.548 C24.0919908,40.548 22.3353417,40.2363364 20.658,39.613 C18.9806583,38.9896636 17.4280071,38.0320065 16,36.74 L18.516,33.748 C19.6720058,34.7453383 20.8393274,35.5103307 22.018,36.043 C23.1966726,36.5756693 24.5339925,36.842 26.03,36.842 C27.3220065,36.842 28.3476629,36.5700027 29.107,36.026 C29.8663371,35.4819973 30.246,34.7566712 30.246,33.85 L30.246,33.782 C30.246,33.3513312 30.1723341,32.9716683 30.025,32.643 C29.8776659,32.3143317 29.6056687,32.0026681 29.209,31.708 C28.8123313,31.4133319 28.2683368,31.1413346 27.577,30.892 C26.8856632,30.6426654 25.9846722,30.3933346 24.874,30.144 C23.6046603,29.8493319 22.4770049,29.5150019 21.491,29.141 C20.5049951,28.7669981 19.67767,28.3136693 19.009,27.781 C18.34033,27.2483307 17.8303351,26.5966705 17.479,25.826 C17.1276649,25.0553295 16.952,24.1260054 16.952,23.038 L16.952,22.97 C16.952,21.9499949 17.155998,21.0150043 17.564,20.165 C17.972002,19.3149958 18.5329964,18.5896697 19.247,17.989 C19.9610036,17.3883303 20.8166617,16.9180017 21.814,16.578 C22.8113383,16.2379983 23.8993274,16.068 25.078,16.068 C26.8233421,16.068 28.392993,16.3229975 29.787,16.833 C31.181007,17.3430026 32.4899939,18.0853285 33.714,19.06 L31.47,22.222 C30.3819946,21.4286627 29.3053387,20.8223354 28.24,20.403 C27.1746613,19.9836646 26.0980054,19.774 25.01,19.774 C23.7859939,19.774 22.8340034,20.0459973 22.154,20.59 C21.4739966,21.1340027 21.134,21.8026627 21.134,22.596 L21.134,22.664 C21.134,23.1173356 21.2133325,23.5196649 21.372,23.871 C21.5306675,24.2223351 21.8196646,24.5396652 22.239,24.823 C22.6583354,25.1063348 23.2363296,25.3726654 23.973,25.622 C24.7096703,25.8713346 25.644661,26.1319986 26.778,26.404 C28.0246729,26.7213349 29.1296619,27.0726647 30.093,27.458 C31.0563381,27.8433353 31.8553302,28.3136639 32.49,28.869 C33.1246698,29.4243361 33.6063317,30.0703297 33.935,30.807 C34.2636683,31.5436703 34.428,32.3993285 34.428,33.374 L34.428,33.442 C34.428,34.5526722 34.2183354,35.5499956 33.799,36.434 C33.3796646,37.3180044 32.7960037,38.0659969 32.048,38.678 C31.2999963,39.2900031 30.4046719,39.7546651 29.362,40.072 C28.3193281,40.3893349 27.1746729,40.548 25.928,40.548 Z M42.206,20.284 L34.658,20.284 L34.658,16.408 L53.97,16.408 L53.97,20.284 L46.422,20.284 L46.422,40.208 L42.206,40.208 L42.206,20.284 Z M66.814,36.774 C67.9926726,36.774 69.0749951,36.5530022 70.061,36.111 C71.0470049,35.6689978 71.8913298,35.0683371 72.594,34.309 C73.2966702,33.5496629 73.8463313,32.6600051 74.243,31.64 C74.6396687,30.6199949 74.838,29.5320058 74.838,28.376 L74.838,28.308 C74.838,27.1519942 74.6396687,26.0583385 74.243,25.027 C73.8463313,23.9956615 73.2910036,23.1003371 72.577,22.341 C71.8629964,21.5816629 71.0073383,20.9753356 70.01,20.522 C69.0126617,20.0686644 67.9246726,19.842 66.746,19.842 C65.5673274,19.842 64.4850049,20.0629978 63.499,20.505 C62.5129951,20.9470022 61.6686702,21.5476629 60.966,22.307 C60.2633298,23.0663371 59.7136687,23.9559949 59.317,24.976 C58.9203313,25.9960051 58.722,27.0839942 58.722,28.24 L58.722,28.308 C58.722,29.4640058 58.9203313,30.5576615 59.317,31.589 C59.7136687,32.6203385 60.2689964,33.5156629 60.983,34.275 C61.6970036,35.0343371 62.5526617,35.6406644 63.55,36.094 C64.5473383,36.5473356 65.6353274,36.774 66.814,36.774 Z M66.746,40.616 C64.9099908,40.616 63.2326743,40.2930032 61.714,39.647 C60.1953257,39.0009968 58.8920054,38.1226722 57.804,37.012 C56.7159946,35.9013278 55.8660031,34.6036741 55.254,33.119 C54.6419969,31.6343259 54.336,30.0533417 54.336,28.376 L54.336,28.308 C54.336,26.6306583 54.6419969,25.0496741 55.254,23.565 C55.8660031,22.0803259 56.7273278,20.7770056 57.838,19.655 C58.9486722,18.5329944 60.2633257,17.6433366 61.782,16.986 C63.3006743,16.3286634 64.9779908,16 66.814,16 C68.6500092,16 70.3273257,16.3229968 71.846,16.969 C73.3646743,17.6150032 74.6679946,18.4933278 75.756,19.604 C76.8440054,20.7146722 77.6939969,22.0123259 78.306,23.497 C78.9180031,24.9816741 79.224,26.5626583 79.224,28.24 L79.224,28.308 C79.224,29.9853417 78.9180031,31.5663259 78.306,33.051 C77.6939969,34.5356741 76.8326722,35.8389944 75.722,36.961 C74.6113278,38.0830056 73.2966743,38.9726634 71.778,39.63 C70.2593257,40.2873366 68.5820092,40.616 66.746,40.616 Z M91.592,28.206 C93.0880075,28.206 94.2779956,27.8490036 95.162,27.135 C96.0460044,26.4209964 96.488,25.4520061 96.488,24.228 L96.488,24.16 C96.488,22.8679935 96.0573376,21.88767 95.196,21.219 C94.3346624,20.55033 93.1220078,20.216 91.558,20.216 L85.472,20.216 L85.472,28.206 L91.592,28.206 Z M81.29,16.408 L91.898,16.408 C93.3940075,16.408 94.7199942,16.6176646 95.876,17.037 C97.0320058,17.4563354 97.9953295,18.0399963 98.766,18.788 C99.4006698,19.4453366 99.8879983,20.2046624 100.228,21.066 C100.568002,21.9273376 100.738,22.8793281 100.738,23.922 L100.738,23.99 C100.738,24.9646715 100.596335,25.8429961 100.313,26.625 C100.029665,27.4070039 99.6386692,28.0983303 99.14,28.699 C98.6413308,29.2996697 98.0463368,29.8096646 97.355,30.229 C96.6636632,30.6483354 95.8986709,30.9713322 95.06,31.198 L101.486,40.208 L96.556,40.208 L90.708,31.912 L85.472,31.912 L85.472,40.208 L81.29,40.208 L81.29,16.408 Z M102.872,16.408 L120.518,16.408 L120.518,20.148 L107.054,20.148 L107.054,26.336 L118.988,26.336 L118.988,30.076 L107.054,30.076 L107.054,36.468 L120.688,36.468 L120.688,40.208 L102.872,40.208 L102.872,16.408 Z" id="STORE-Copy" fill="#EF4B49"></path>
        </g>
    </g>
</svg>