<?xml version="1.0" encoding="UTF-8" standalone="no"?>
<svg width="136px" height="56px" viewBox="0 0 136 56" version="1.1" xmlns="http://www.w3.org/2000/svg" xmlns:xlink="http://www.w3.org/1999/xlink">
    <!-- Generator: Sketch 50.2 (55047) - http://www.bohemiancoding.com/sketch -->
    <title>graphic_home_tab_store_off</title>
    <desc>Created with Sketch.</desc>
    <defs></defs>
    <g id="Icon_Badge_Graphic" stroke="none" stroke-width="1" fill="none" fill-rule="evenodd">
        <g id="##Element/HomeTab/StoreOff">
            <rect id="Icon_Area" fill-opacity="0" fill="#FFFFFF" x="0" y="0" width="136" height="56"></rect>
            <path d="M25.724,40.548 C23.8199905,40.548 22.0803412,40.2363364 20.505,39.613 C18.9296588,38.9896636 17.4280071,38.0320065 16,36.74 L17.666,34.768 C18.9126729,35.901339 20.1706603,36.7456639 21.44,37.301 C22.7093397,37.8563361 24.1713251,38.134 25.826,38.134 C27.4353414,38.134 28.7216619,37.7543371 29.685,36.995 C30.6483382,36.2356629 31.13,35.2666726 31.13,34.088 L31.13,34.02 C31.13,33.4759973 31.0393342,32.9830022 30.858,32.541 C30.6766658,32.0989978 30.3593356,31.6966685 29.906,31.334 C29.4526644,30.9713315 28.8236707,30.6426681 28.019,30.348 C27.2143293,30.0533319 26.1886729,29.7700014 24.942,29.498 C23.5819932,29.2033319 22.3976717,28.8633353 21.389,28.478 C20.3803283,28.0926647 19.5473366,27.6280027 18.89,27.084 C18.2326634,26.5399973 17.7453349,25.905337 17.428,25.18 C17.1106651,24.454663 16.952,23.6046715 16.952,22.63 L16.952,22.562 C16.952,21.632662 17.1446647,20.7713373 17.53,19.978 C17.9153353,19.1846627 18.4593298,18.4990029 19.162,17.921 C19.8646702,17.3429971 20.6919952,16.8896683 21.644,16.561 C22.5960048,16.2323317 23.638661,16.068 24.772,16.068 C26.5173421,16.068 28.0416601,16.3116642 29.345,16.799 C30.6483398,17.2863358 31.9119939,18.0173285 33.136,18.992 L31.572,21.066 C30.4613278,20.1593288 29.3450056,19.502002 28.223,19.094 C27.1009944,18.685998 25.9280061,18.482 24.704,18.482 C23.1399922,18.482 21.9046712,18.8503297 20.998,19.587 C20.0913288,20.3236703 19.638,21.2359946 19.638,22.324 L19.638,22.392 C19.638,22.9586695 19.7286658,23.4629978 19.91,23.905 C20.0913342,24.3470022 20.4199976,24.7549981 20.896,25.129 C21.3720024,25.5030019 22.0293291,25.8429985 22.868,26.149 C23.7066709,26.4550015 24.7833268,26.7439986 26.098,27.016 C28.7500133,27.6053363 30.7049937,28.4213281 31.963,29.464 C33.2210063,30.5066719 33.85,31.9346576 33.85,33.748 L33.85,33.816 C33.85,34.8360051 33.646002,35.7596625 33.238,36.587 C32.829998,37.4143375 32.2690036,38.1226637 31.555,38.712 C30.8409964,39.3013363 29.9853383,39.7546651 28.988,40.072 C27.9906617,40.3893349 26.9026726,40.548 25.724,40.548 Z M42.614,18.89 L34.624,18.89 L34.624,16.408 L53.324,16.408 L53.324,18.89 L45.334,18.89 L45.334,40.208 L42.614,40.208 L42.614,18.89 Z M66.474,38.134 C67.8340068,38.134 69.0863276,37.8790025 70.231,37.369 C71.3756724,36.8589975 72.3559959,36.1620044 73.172,35.278 C73.9880041,34.3939956 74.628331,33.3626726 75.093,32.184 C75.557669,31.0053274 75.79,29.7360068 75.79,28.376 L75.79,28.308 C75.79,26.9479932 75.557669,25.673006 75.093,24.483 C74.628331,23.2929941 73.9766709,22.2560044 73.138,21.372 C72.2993291,20.4879956 71.3076724,19.7853359 70.163,19.264 C69.0183276,18.7426641 67.7660068,18.482 66.406,18.482 C65.0459932,18.482 63.7936724,18.7369975 62.649,19.247 C61.5043276,19.7570025 60.5240041,20.4539956 59.708,21.338 C58.8919959,22.2220044 58.251669,23.2533274 57.787,24.432 C57.322331,25.6106726 57.09,26.8799932 57.09,28.24 L57.09,28.308 C57.09,29.6680068 57.322331,30.942994 57.787,32.133 C58.251669,33.3230059 58.9033291,34.3599956 59.742,35.244 C60.5806709,36.1280044 61.5723276,36.8306641 62.717,37.352 C63.8616724,37.8733359 65.1139932,38.134 66.474,38.134 Z M66.406,40.616 C64.5926576,40.616 62.9436741,40.2873366 61.459,39.63 C59.9743259,38.9726634 58.6993387,38.0830056 57.634,36.961 C56.5686613,35.8389944 55.7470029,34.5356741 55.169,33.051 C54.5909971,31.5663259 54.302,30.0080082 54.302,28.376 L54.302,28.308 C54.302,26.6759918 54.5966637,25.1120075 55.186,23.616 C55.7753363,22.1199925 56.6026613,20.8110056 57.668,19.689 C58.7333387,18.5669944 60.0139925,17.67167 61.51,17.003 C63.0060075,16.33433 64.6606576,16 66.474,16 C68.2873424,16 69.9363259,16.3286634 71.421,16.986 C72.9056741,17.6433366 74.1806613,18.5329944 75.246,19.655 C76.3113387,20.7770056 77.1329971,22.0803259 77.711,23.565 C78.2890029,25.0496741 78.578,26.6079918 78.578,28.24 C78.6006668,28.2626668 78.6006668,28.2853332 78.578,28.308 C78.578,29.9400082 78.2833363,31.5039925 77.694,33 C77.1046637,34.4960075 76.2773387,35.8049944 75.212,36.927 C74.1466613,38.0490056 72.8660075,38.94433 71.37,39.613 C69.8739925,40.28167 68.2193424,40.616 66.406,40.616 Z M91.252,28.546 C92.1360044,28.546 92.9519963,28.4326678 93.7,28.206 C94.4480037,27.9793322 95.0939973,27.6563354 95.638,27.237 C96.1820027,26.8176646 96.6069985,26.3076697 96.913,25.707 C97.2190015,25.1063303 97.372,24.4206705 97.372,23.65 L97.372,23.582 C97.372,22.1086593 96.8393387,20.9583375 95.774,20.131 C94.7086613,19.3036625 93.2126763,18.89 91.286,18.89 L83.942,18.89 L83.942,28.546 L91.252,28.546 Z M81.256,16.408 L91.49,16.408 C92.9633407,16.408 94.2723276,16.6176646 95.417,17.037 C96.5616724,17.4563354 97.5079963,18.0399963 98.256,18.788 C98.8453363,19.3773363 99.2986651,20.0686627 99.616,20.862 C99.9333349,21.6553373 100.092,22.5279952 100.092,23.48 L100.092,23.548 C100.092,24.5453383 99.9333349,25.4349961 99.616,26.217 C99.2986651,26.9990039 98.8510029,27.6789971 98.273,28.257 C97.6949971,28.8350029 97.0093373,29.3109981 96.216,29.685 C95.4226627,30.0590019 94.561338,30.3253325 93.632,30.484 L100.942,40.208 L97.644,40.208 L90.742,30.96 L83.942,30.96 L83.942,40.208 L81.256,40.208 L81.256,16.408 Z M102.838,16.408 L120.042,16.408 L120.042,18.856 L105.524,18.856 L105.524,26.982 L118.512,26.982 L118.512,29.43 L105.524,29.43 L105.524,37.76 L120.212,37.76 L120.212,40.208 L102.838,40.208 L102.838,16.408 Z" id="STORE-Copy" fill="#959595"></path>
        </g>
    </g>
</svg>