<?xml version="1.0" encoding="UTF-8" standalone="no"?>
<svg width="48px" height="48px" viewBox="0 0 48 48" version="1.1" xmlns="http://www.w3.org/2000/svg" xmlns:xlink="http://www.w3.org/1999/xlink">
    <!-- Generator: Sketch 50.2 (55047) - http://www.bohemiancoding.com/sketch -->
    <title>icon_48px_tmembership</title>
    <desc>Created with Sketch.</desc>
    <defs></defs>
    <g id="New-GUI" stroke="none" stroke-width="1" fill="none" fill-rule="evenodd">
        <g id="##Icon/48/Tmembership">
            <rect id="Icon_Area" fill-opacity="0" fill="#FFFFFF" x="0" y="0" width="48" height="48"></rect>
            <g id="Group-17" transform="translate(3.000000, 6.600000)">
                <rect id="Rectangle-29" stroke="#333333" stroke-width="2" x="0" y="0.4" width="42" height="34" rx="2.4"></rect>
                <path d="M21.9611185,20.4297876 C21.9611185,19.2804873 22.2727031,18.2801703 23.1035952,17.9822035 L26.6141145,16.7052031 C26.6972037,16.4710864 26.8633822,16.0241362 26.8426099,15.4069193 C26.8010652,13.2147353 25.6378162,11.6184848 24.0175766,11.0864013 L14.4,8.00031699 L16.9134487,7.08513336 C17.0380826,7.04256668 17.2250333,7 17.3704394,7 C17.5366178,7 17.7235686,7.04256668 17.8482024,7.06385002 L27.6527297,10.2137844 C29.3560586,10.7884345 30,12.8954852 30,14.0235022 C30,14.9386859 29.6884154,16.0028529 28.7328895,16.3646697 C27.881225,16.6839198 25.347004,17.6203867 25.347004,17.6203867 C25.2639148,17.8545035 25.0977364,18.2588869 25.0977364,19.1953539 C25.0977364,19.7274374 25.0977364,22.579405 25.0977364,23.0902051 C25.0977364,24.3033555 24.5161119,25.4313725 23.4151798,25.4313725 C22.9374168,25.4100892 22.3973369,25.1759725 21.9611185,24.7503057 L21.9611185,20.4297876 Z M19.7949515,17.7475648 L19.7949515,21.3826521 C19.7949515,23.6278531 20.784466,25.4667796 22.4,26.0013513 L19.8959223,26.9208146 C19.391068,27.1132604 18.9064078,26.9208146 18.6034951,26.7069859 C17.3918447,25.8730541 16.7456311,24.611465 16.7456311,22.6442412 C16.7456311,21.724778 16.7456311,20.4631888 16.7456311,18.8167081 C16.7456311,17.875862 16.3821359,16.8067186 15.7965049,15.9941697 C15.3724272,15.3954495 14.8675728,15.0105579 14.2213592,14.7753463 C12.9895146,14.3049233 12,12.6156768 12,10.9691961 C12,9.536544 12.6866019,8.6384636 13.5953398,8.574315 C13.7972816,8.55293213 13.958835,8.59569787 14.1203883,8.6384636 C14.6656311,8.80952653 15.0897087,8.98058947 15.0897087,8.98058947 C14.7867961,10.6270702 15.695534,13.1716313 17.5332039,13.8558831 C18.2601942,14.1124775 18.6842718,14.5187519 19.047767,15.1174722 C19.5324272,15.9086383 19.7949515,16.8922501 19.7949515,17.7475648 Z" id="Combined-Shape" fill="#333333" fill-rule="nonzero"></path>
            </g>
        </g>
    </g>
</svg>