<?xml version="1.0" encoding="UTF-8" standalone="no"?>
<svg width="48px" height="48px" viewBox="0 0 48 48" version="1.1" xmlns="http://www.w3.org/2000/svg" xmlns:xlink="http://www.w3.org/1999/xlink">
    <!-- Generator: Sketch 50.2 (55047) - http://www.bohemiancoding.com/sketch -->
    <title>icon_48px_tcoupon</title>
    <desc>Created with Sketch.</desc>
    <defs></defs>
    <g id="Icon_Badge_Graphic" stroke="none" stroke-width="1" fill="none" fill-rule="evenodd">
        <g id="##Icon/48/Tcoupon">
            <rect id="Icon_Area" fill-opacity="0" fill="#FFFFFF" x="0" y="0" width="48" height="48"></rect>
            <g id="Group-15" transform="translate(1.200000, 6.400000)" stroke="#333333" stroke-width="2">
                <path d="M43.8,28.406746 L43.8,6.13932024 C41.2975937,5.85741883 39.2534933,4.01927119 38.6964795,1.6 L6.90352046,1.6 C6.34650671,4.01927119 4.30240633,5.85741883 1.8,6.13932024 L1.8,28.406746 C4.53387915,28.7141084 6.70535533,30.8752969 7.01565283,33.6 L38.5843472,33.6 C38.8946447,30.8752969 41.0661209,28.7141084 43.8,28.406746 Z" id="Combined-Shape"></path>
            </g>
            <path d="M24.9611185,27.4297876 C24.9611185,26.2804873 25.2727031,25.2801703 26.1035952,24.9822035 L29.6141145,23.7052031 C29.6972037,23.4710864 29.8633822,23.0241362 29.8426099,22.4069193 C29.8010652,20.2147353 28.6378162,18.6184848 27.0175766,18.0864013 L17.4,15.000317 L19.9134487,14.0851334 C20.0380826,14.0425667 20.2250333,14 20.3704394,14 C20.5366178,14 20.7235686,14.0425667 20.8482024,14.06385 L30.6527297,17.2137844 C32.3560586,17.7884345 33,19.8954852 33,21.0235022 C33,21.9386859 32.6884154,23.0028529 31.7328895,23.3646697 C30.881225,23.6839198 28.347004,24.6203867 28.347004,24.6203867 C28.2639148,24.8545035 28.0977364,25.2588869 28.0977364,26.1953539 C28.0977364,26.7274374 28.0977364,29.579405 28.0977364,30.0902051 C28.0977364,31.3033555 27.5161119,32.4313725 26.4151798,32.4313725 C25.9374168,32.4100892 25.3973369,32.1759725 24.9611185,31.7503057 L24.9611185,27.4297876 Z M22.7949515,24.7475648 L22.7949515,28.3826521 C22.7949515,30.6278531 23.784466,32.4667796 25.4,33.0013513 L22.8959223,33.9208146 C22.391068,34.1132604 21.9064078,33.9208146 21.6034951,33.7069859 C20.3918447,32.8730541 19.7456311,31.611465 19.7456311,29.6442412 C19.7456311,28.724778 19.7456311,27.4631888 19.7456311,25.8167081 C19.7456311,24.875862 19.3821359,23.8067186 18.7965049,22.9941697 C18.3724272,22.3954495 17.8675728,22.0105579 17.2213592,21.7753463 C15.9895146,21.3049233 15,19.6156768 15,17.9691961 C15,16.536544 15.6866019,15.6384636 16.5953398,15.574315 C16.7972816,15.5529321 16.958835,15.5956979 17.1203883,15.6384636 C17.6656311,15.8095265 18.0897087,15.9805895 18.0897087,15.9805895 C17.7867961,17.6270702 18.695534,20.1716313 20.5332039,20.8558831 C21.2601942,21.1124775 21.6842718,21.5187519 22.047767,22.1174722 C22.5324272,22.9086383 22.7949515,23.8922501 22.7949515,24.7475648 Z" id="Combined-Shape" fill="#333333" fill-rule="nonzero"></path>
        </g>
    </g>
</svg>