<?xml version="1.0" encoding="UTF-8" standalone="no"?>
<svg width="80px" height="80px" viewBox="0 0 80 80" version="1.1" xmlns="http://www.w3.org/2000/svg" xmlns:xlink="http://www.w3.org/1999/xlink">
    <!-- Generator: Sketch 50.2 (55047) - http://www.bohemiancoding.com/sketch -->
    <title>icon_80px_data_gift</title>
    <desc>Created with Sketch.</desc>
    <defs></defs>
    <g id="Icon_Badge_Graphic" stroke="none" stroke-width="1" fill="none" fill-rule="evenodd">
        <g id="##Icon/80/DataGift">
            <rect id="Icon_Area" fill-opacity="0" fill="#FFFFFF" x="0" y="0" width="80" height="80"></rect>
            <g id="Group-12" transform="translate(2.000000, 14.000000)">
                <path d="M50.40017,15.0389172 C46.1259768,6.14197045 37.0302554,0 26.5,0 C11.8644541,0 0,11.8644541 0,26.5 C0,41.1355459 11.8644541,53 26.5,53 C36.5301424,53 45.2587755,47.4275766 49.7589244,39.2097049 C49.9029053,38.9467766 50.0425577,38.6811403 50.1777856,38.4128917" id="Oval-17-Copy" stroke="#333333" stroke-width="3" stroke-linecap="round"></path>
                <path d="M74.9683689,2.14794579 C71.7571324,0.765675314 68.2179827,0 64.5,0 C49.8644541,0 38,11.8644541 38,26.5 C38,41.1355459 49.8644541,53 64.5,53 C68.450263,53 72.1986499,52.1356653 75.5663572,50.5857993" id="Oval-17-Copy-2" stroke="#333333" stroke-width="3" transform="translate(56.783179, 26.500000) scale(-1, 1) translate(-56.783179, -26.500000) "></path>
                <path d="M25.828,32.864 C26.8546718,32.864 27.7879958,32.7006683 28.628,32.374 C29.4680042,32.0473317 30.1819971,31.5900029 30.77,31.002 C31.3580029,30.4139971 31.8153317,29.7140041 32.142,28.902 C32.4686683,28.0899959 32.632,27.2080048 32.632,26.256 L32.632,26.2 C32.632,25.2479952 32.4686683,24.3613374 32.142,23.54 C31.8153317,22.7186626 31.3580029,22.0140029 30.77,21.426 C30.1819971,20.8379971 29.4680042,20.3760017 28.628,20.04 C27.7879958,19.7039983 26.8546718,19.536 25.828,19.536 L21.964,19.536 L21.964,32.864 L25.828,32.864 Z M18.52,16.4 L25.828,16.4 C27.3586743,16.4 28.7633269,16.6473309 30.042,17.142 C31.3206731,17.6366691 32.4219954,18.3226623 33.346,19.2 C34.2700046,20.0773377 34.9839975,21.1086607 35.488,22.294 C35.9920025,23.4793393 36.244,24.7626598 36.244,26.144 L36.244,26.2 C36.244,27.5813402 35.9920025,28.8693274 35.488,30.064 C34.9839975,31.2586726 34.2700046,32.2946623 33.346,33.172 C32.4219954,34.0493377 31.3206731,34.7399975 30.042,35.244 C28.7633269,35.7480025 27.3586743,36 25.828,36 L18.52,36 L18.52,16.4 Z" id="D" fill="#333333"></path>
                <path d="M50,27 L61.5108644,27" id="Line-13-Copy-2" stroke="#333333" stroke-width="3" stroke-linecap="round" stroke-linejoin="round"></path>
                <polygon id="Path-8" fill="#333333" points="58 20 58 34.1291994 66 27.0825008"></polygon>
            </g>
        </g>
    </g>
</svg>