<?xml version="1.0" encoding="UTF-8"?>
<svg width="80px" height="80px" viewBox="0 0 80 80" version="1.1" xmlns="http://www.w3.org/2000/svg" xmlns:xlink="http://www.w3.org/1999/xlink">
    <!-- Generator: Sketch 52.4 (67378) - http://www.bohemiancoding.com/sketch -->
    <title>mdpi/##Icon/80/Charge</title>
    <desc>Created with Sketch.</desc>
    <g id="##Icon/80/Charge" stroke="none" stroke-width="1" fill="none" fill-rule="evenodd">
        <rect id="Icon_Area" fill-opacity="0" fill="#FFFFFF" x="0" y="0" width="80" height="80"></rect>
        <g id="Group-12" transform="translate(11.000000, 10.000000)" stroke="#333333" stroke-linecap="round" stroke-width="3">
            <polyline id="Stroke-3" stroke-linejoin="round" points="13.5 19.5 19.5 35.5 25.5 19.5 31.5 35.5 37.5 19.5"></polyline>
            <path d="M12.5,27 L38.5,27" id="Stroke-4" stroke-linejoin="round"></path>
            <g id="Group-11">
                <path d="M35.999,57 L30.304,51.698 L24.609,57 L18.917,51.698 L13.223,57 L7.527,51.698 L0.5,57 L0.504,51.698 L0.5,50.041 L0.5,2.651 C0.5,1.193 1.7,0 3.167,0 L47.833,0 C49.3,0 50.5,1.193 50.5,2.651 L50.5,33.157" id="Stroke-5" stroke-linejoin="round"></path>
                <path d="M50.5,51 C53.813,51 56.5,48.313 56.5,45 C56.5,41.687 53.813,39 50.5,39 C47.187,39 44.5,41.687 44.5,45 C44.5,48.313 47.187,51 50.5,51 Z" id="Stroke-7"></path>
                <path d="M59.5,60 C59.5,55.029 55.471,51 50.5,51 C45.529,51 41.5,55.029 41.5,60" id="Stroke-9"></path>
            </g>
        </g>
    </g>
</svg>