<?xml version="1.0" encoding="UTF-8" standalone="no"?>
<svg width="41px" height="41px" viewBox="0 0 41 41" version="1.1" xmlns="http://www.w3.org/2000/svg" xmlns:xlink="http://www.w3.org/1999/xlink">
    <!-- Generator: Sketch 50.2 (55047) - http://www.bohemiancoding.com/sketch -->
    <title>icon_40px_event</title>
    <desc>Created with Sketch.</desc>
    <defs></defs>
    <g id="Icon_Badge_Graphic" stroke="none" stroke-width="1" fill="none" fill-rule="evenodd">
        <g id="##Icon/40/Event">
            <rect id="Icon_Area" fill-opacity="0" fill="#FFFFFF" x="0" y="0" width="40.32" height="40.32"></rect>
            <rect id="Rectangle-7" stroke="#666666" stroke-width="2" x="4.2" y="5.88" width="31.92" height="30.24" rx="3.6288"></rect>
            <path d="M15.1428013,18.1646602 L13.0573941,18.1646602 C13.1659289,17.3375234 13.4682711,16.6727792 13.96443,16.1704078 C14.656985,15.4701324 15.5278341,15.12 16.5770033,15.12 C17.5124694,15.12 18.2967504,15.411777 18.9298697,15.9953398 C19.5629891,16.5789026 19.879544,17.2715559 19.879544,18.0733204 C19.879544,18.5706174 19.7412935,19.0247746 19.4647883,19.4358058 C19.1882831,19.846837 18.7864521,20.1792091 18.2592834,20.432932 C18.9518384,20.6359104 19.4932119,20.9898486 19.8834202,21.4947573 C20.2736284,21.999666 20.4687296,22.5946374 20.4687296,23.2796893 C20.4687296,24.2844322 20.0914479,25.1356599 19.336873,25.8333981 C18.5822981,26.5311362 17.6210048,26.88 16.4529642,26.88 C15.3469434,26.88 14.4450849,26.5514337 13.7473616,25.8942913 C13.0496382,25.2371488 12.6671882,24.3427888 12.6,23.2111845 L14.7474267,23.2111845 C14.8404565,23.7896728 15.0458942,24.2197267 15.3637459,24.5013592 C15.6815977,24.7829917 16.0834286,24.9238058 16.5692508,24.9238058 C17.0757463,24.9238058 17.4956661,24.7639628 17.8290228,24.4442718 C18.1623795,24.1245809 18.3290554,23.7338534 18.3290554,23.2720777 C18.3290554,22.7646318 18.1042368,22.3358464 17.6545928,21.9857087 C17.2049489,21.6355711 16.5563343,21.4554305 15.7087296,21.4452816 L15.7087296,19.6184854 C16.2307301,19.5778898 16.6196404,19.4979682 16.8754723,19.3787184 C17.1313042,19.2594687 17.3302816,19.0958198 17.4724104,18.887767 C17.6145393,18.6797142 17.6856026,18.4589785 17.6856026,18.2255534 C17.6856026,17.9210859 17.5770695,17.6686353 17.36,17.4681942 C17.1429305,17.267753 16.8586771,17.167534 16.5072313,17.167534 C16.197132,17.167534 15.9154627,17.2601415 15.662215,17.4453592 C15.4089672,17.630577 15.2358311,17.8703416 15.1428013,18.1646602 Z M23.6317264,15.4016311 L26.88,15.4016311 L26.88,26.5983689 L24.7248208,26.5983689 L24.7248208,17.4034951 L22.3758306,17.4034951 L23.6317264,15.4016311 Z" id="31" fill="#666666"></path>
            <path d="M14.28,2.89333333 L14.28,8.86666667" id="Line" stroke="#666666" stroke-width="2" stroke-linecap="round"></path>
            <path d="M26.04,2.89333333 L26.04,8.86666667" id="Line-Copy" stroke="#666666" stroke-width="2" stroke-linecap="round"></path>
        </g>
    </g>
</svg>