<?xml version="1.0" encoding="UTF-8" standalone="no"?>
<svg width="32px" height="32px" viewBox="0 0 32 32" version="1.1" xmlns="http://www.w3.org/2000/svg" xmlns:xlink="http://www.w3.org/1999/xlink">
    <!-- Generator: Sketch 50.2 (55047) - http://www.bohemiancoding.com/sketch -->
    <title>icon_32px_history</title>
    <desc>Created with Sketch.</desc>
    <defs></defs>
    <g id="New-GUI" stroke="none" stroke-width="1" fill="none" fill-rule="evenodd">
        <g id="##Icon/32/History">
            <rect id="Icon_Area" fill-opacity="0" fill="#FFFFFF" x="0" y="0" width="32" height="32"></rect>
            <path d="M21.1268268,5 L27,5 C27.5522847,5 28,5.44771525 28,6 L28,28 C28,28.5522847 27.5522847,29 27,29 L5,29 C4.44771525,29 4,28.5522847 4,28 L4,6 C4,5.44771525 4.44771525,5 5,5 L11.0528936,5" id="Rectangle-24" stroke="#333333" stroke-width="2"></path>
            <path d="M22,13 L10,13" id="Line-6" stroke="#333333" stroke-width="2" stroke-linecap="square"></path>
            <path d="M20,8 L12,8" id="Line-6-Copy-3" stroke="#333333" stroke-width="2" stroke-linecap="square"></path>
            <path d="M14,9 L14,4.71428571 C14,3.76751186 14.8954305,3 16,3 C17.1045695,3 18,3.76751186 18,4.71428571 L18,9" id="Rectangle-25" stroke="#333333" stroke-width="2"></path>
            <path d="M22,18 L10,18" id="Line-6-Copy" stroke="#333333" stroke-width="2" stroke-linecap="square"></path>
            <path d="M22,23 L10,23" id="Line-6-Copy-2" stroke="#333333" stroke-width="2" stroke-linecap="square"></path>
        </g>
    </g>
</svg>