<?xml version="1.0" encoding="UTF-8" standalone="no"?>
<svg width="48px" height="48px" viewBox="0 0 48 48" version="1.1" xmlns="http://www.w3.org/2000/svg" xmlns:xlink="http://www.w3.org/1999/xlink">
    <!-- Generator: Sketch 50.2 (55047) - http://www.bohemiancoding.com/sketch -->
    <title>icon_48px_history</title>
    <desc>Created with Sketch.</desc>
    <defs></defs>
    <g id="Icon_Badge_Graphic" stroke="none" stroke-width="1" fill="none" fill-rule="evenodd">
        <g id="##Icon/48/History">
            <rect id="Icon_Area" fill-opacity="0" fill="#FFFFFF" x="0" y="0" width="48" height="48"></rect>
            <g id="Group" transform="translate(8.500000, 4.500000)" stroke="#333333" stroke-width="2">
                <path d="M21.1761296,2 L29.8928571,2 C30.5043153,2 31,2.48841664 31,3.09090909 L31,36.9090909 C31,37.5115834 30.5043153,38 29.8928571,38 L1.10714286,38 C0.495684741,38 0,37.5115834 0,36.9090909 L0,3.09090909 C0,2.48841664 0.495684741,2 1.10714286,2 L10.0228464,2" id="Rectangle-24"></path>
                <path d="M23,15 L8,15" id="Line-6" stroke-linecap="square"></path>
                <path d="M21,6 L10,6" id="Line-6-Copy-3" stroke-linecap="square"></path>
                <path d="M13,6 L13,2.04498938 C13,1.17127257 13.9445958,2.28578489e-16 15.5,0 C17.0554042,0 18,1.17127257 18,2.04498938 L18,6" id="Rectangle-25"></path>
                <path d="M23,22 L8,22" id="Line-6-Copy" stroke-linecap="square"></path>
                <path d="M23,29 L8,29" id="Line-6-Copy-2" stroke-linecap="square"></path>
            </g>
        </g>
    </g>
</svg>