<?xml version="1.0" encoding="UTF-8" standalone="no"?>
<svg width="41px" height="41px" viewBox="0 0 41 41" version="1.1" xmlns="http://www.w3.org/2000/svg" xmlns:xlink="http://www.w3.org/1999/xlink">
    <!-- Generator: Sketch 50.2 (55047) - http://www.bohemiancoding.com/sketch -->
    <title>icon_40px_history</title>
    <desc>Created with Sketch.</desc>
    <defs></defs>
    <g id="Icon_Badge_Graphic" stroke="none" stroke-width="1" fill="none" fill-rule="evenodd">
        <g id="##Icon/40/History">
            <rect id="Icon_Area" fill-opacity="0" fill="#FFFFFF" x="0" y="0" width="40.32" height="40.32"></rect>
            <g id="Group" transform="translate(6.500000, 3.500000)" stroke="#666666" stroke-width="2">
                <path d="M18.3479489,1.88 L25.67,1.88 C26.1836248,1.88 26.6,2.29026997 26.6,2.79636364 L26.6,31.2036364 C26.6,31.70973 26.1836248,32.12 25.67,32.12 L1.49,32.12 C0.976375183,32.12 0.56,31.70973 0.56,31.2036364 L0.56,2.79636364 C0.56,2.29026997 0.976375183,1.88 1.49,1.88 L8.97919101,1.88" id="Rectangle-24"></path>
                <path d="M19.88,12.8 L7.28,12.8" id="Line-6" stroke-linecap="square"></path>
                <path d="M18.2,5.24 L8.96,5.24" id="Line-6-Copy-3" stroke-linecap="square"></path>
                <path d="M11.48,5.24 L11.48,1.91779108 C11.48,1.18386895 12.2734605,0.2 13.58,0.2 C14.8865395,0.2 15.68,1.18386895 15.68,1.91779108 L15.68,5.24" id="Rectangle-25"></path>
                <path d="M19.88,18.68 L7.28,18.68" id="Line-6-Copy" stroke-linecap="square"></path>
                <path d="M19.88,24.56 L7.28,24.56" id="Line-6-Copy-2" stroke-linecap="square"></path>
            </g>
        </g>
    </g>
</svg>