<?xml version="1.0" encoding="utf-8"?>
<!-- Generator: Adobe Illustrator 22.0.1, SVG Export Plug-In . SVG Version: 6.00 Build 0)  -->
<svg version="1.1" id="레이어_1" xmlns="http://www.w3.org/2000/svg" xmlns:xlink="http://www.w3.org/1999/xlink" x="0px"
	 y="0px" viewBox="0 0 32 32" style="enable-background:new 0 0 32 32;" xml:space="preserve">
<style type="text/css">
	.st0{fill:none;stroke:#666666;stroke-width:2;}
	.st1{fill:none;}
</style>
<title>icon_32px_history</title>
<desc>Created with Sketch.</desc>
<g>
	<g>
		<path id="Line_1_" class="st0" d="M11,2.5v5"/>
		<path id="Line-Copy_1_" class="st0" d="M21,2.5v5"/>
	</g>
	<line class="st0" x1="3.5" y1="11" x2="28.5" y2="11"/>
	<line class="st0" x1="8" y1="17" x2="10" y2="17"/>
	<line class="st0" x1="15" y1="17" x2="17" y2="17"/>
	<line class="st0" x1="22" y1="17" x2="24" y2="17"/>
	<line class="st0" x1="8" y1="23" x2="10" y2="23"/>
	<line class="st0" x1="15" y1="23" x2="17" y2="23"/>
	<line class="st0" x1="22" y1="23" x2="24" y2="23"/>
	<rect x="0" y="0" class="st1" width="32" height="32"/>
	<path class="st0" d="M25.5,29h-19c-1.7,0-3-1.4-3-3V8c0-1.6,1.3-3,3-3h19c1.6,0,3,1.3,3,3v18C28.5,27.6,27.1,29,25.5,29z"/>
</g>
</svg>
