<?xml version="1.0" encoding="UTF-8"?>
<svg width="32px" height="32px" viewBox="0 0 32 32" version="1.1" xmlns="http://www.w3.org/2000/svg" xmlns:xlink="http://www.w3.org/1999/xlink">
    <!-- Generator: Sketch 52.4 (67378) - http://www.bohemiancoding.com/sketch -->
    <title>mdpi/##Icon/32/Logout Copy</title>
    <desc>Created with Sketch.</desc>
    <g id="##Icon/32/Logout-Copy" stroke="none" stroke-width="1" fill="none" fill-rule="evenodd">
        <rect id="Icon_Area" fill-opacity="0" fill="#FFFFFF" x="0" y="0" width="32" height="32"></rect>
        <path d="M27,23 L27,26.2 C27,27.1941125 26.1791887,28 25.1666667,28 L6.83333333,28 C5.82081129,28 5,27.1941125 5,26.2 L5,5.8 C5,4.80588745 5.82081129,4 6.83333333,4 L25.1666667,4 C26.1791887,4 27,4.80588745 27,5.8 L27,8.69999981" id="Rectangle" stroke="#666666" stroke-width="1.8" stroke-linecap="round"></path>
        <path d="M28.4362596,16 L16.6636749,16" id="Line" stroke="#666666" stroke-width="1.8" stroke-linecap="round" transform="translate(22.549967, 16.000000) scale(-1, 1) translate(-22.549967, -16.000000) "></path>
        <polyline id="Line-5" stroke="#666666" stroke-width="1.8" stroke-linecap="round" stroke-linejoin="round" transform="translate(18.500000, 16.000000) scale(-1, 1) translate(-18.500000, -16.000000) " points="16 11.5 21 16.0052243 16 20.5"></polyline>
    </g>
</svg>