<?xml version="1.0" encoding="UTF-8" standalone="no"?>
<svg width="88px" height="80px" viewBox="0 0 88 80" version="1.1" xmlns="http://www.w3.org/2000/svg" xmlns:xlink="http://www.w3.org/1999/xlink">
    <!-- Generator: Sketch 50.2 (55047) - http://www.bohemiancoding.com/sketch -->
    <title>icon_gnb_lock_s</title>
    <desc>Created with Sketch.</desc>
    <defs></defs>
    <g id="Icon_Badge_Graphic" stroke="none" stroke-width="1" fill="none" fill-rule="evenodd">
        <g id="##Icon/GNB/Lock/3Selected">
            <rect id="Icon_Area" fill-opacity="0" fill="#FFFFFF" x="0" y="0" width="88" height="80"></rect>
            <polygon id="*" fill="#FFFFFF" points="42.8360656 49.7295082 42.9672131 46.2540984 40.1147541 48.1229508 39 46.057377 42.0163934 44.6147541 39 43.1721311 40.1147541 41.1065574 42.9672131 42.942623 42.8360656 39.5 45.1967213 39.5 45.0655738 42.942623 47.8196721 41.1065574 49 43.1721311 46.0163934 44.6147541 49 46.057377 47.8196721 48.1229508 45.0655738 46.2540984 45.1967213 49.7295082"></polygon>
            <g id="Lock" transform="translate(30.000000, 22.000000)" stroke="#333333" stroke-width="2">
                <rect id="Rectangle-3" fill="#333333" x="0" y="12" width="28" height="22" rx="2"></rect>
                <path d="M7,13 L7,7 C7,3.13400675 10.1340068,0 14,0 C17.8659932,0 21,3.13400675 21,7 L21,13" id="Rectangle-4"></path>
            </g>
            <polygon id="*" fill="#FFFFFF" points="42.8360656 49.7295082 42.9672131 46.2540984 40.1147541 48.1229508 39 46.057377 42.0163934 44.6147541 39 43.1721311 40.1147541 41.1065574 42.9672131 42.942623 42.8360656 39.5 45.1967213 39.5 45.0655738 42.942623 47.8196721 41.1065574 49 43.1721311 46.0163934 44.6147541 49 46.057377 47.8196721 48.1229508 45.0655738 46.2540984 45.1967213 49.7295082"></polygon>
        </g>
    </g>
</svg>