<?xml version="1.0" encoding="UTF-8" standalone="no"?>
<svg width="48px" height="48px" viewBox="0 0 48 48" version="1.1" xmlns="http://www.w3.org/2000/svg" xmlns:xlink="http://www.w3.org/1999/xlink">
    <!-- Generator: Sketch 50.2 (55047) - http://www.bohemiancoding.com/sketch -->
    <title>icon_48px_dcoupon</title>
    <desc>Created with Sketch.</desc>
    <defs></defs>
    <g id="Icon_Badge_Graphic" stroke="none" stroke-width="1" fill="none" fill-rule="evenodd">
        <g id="##Icon/48/Dcoupon">
            <rect id="Icon_Area" fill-opacity="0" fill="#FFFFFF" x="0" y="0" width="48" height="48"></rect>
            <g id="Group-15" transform="translate(1.200000, 6.400000)" stroke="#333333" stroke-width="2">
                <path d="M43.8,28.406746 L43.8,6.13932024 C41.2975937,5.85741883 39.2534933,4.01927119 38.6964795,1.6 L6.90352046,1.6 C6.34650671,4.01927119 4.30240633,5.85741883 1.8,6.13932024 L1.8,28.406746 C4.53387915,28.7141084 6.70535533,30.8752969 7.01565283,33.6 L38.5843472,33.6 C38.8946447,30.8752969 41.0661209,28.7141084 43.8,28.406746 Z" id="Combined-Shape"></path>
            </g>
            <path d="M24.006,28.342 C24.6953368,28.342 25.3259971,28.2320011 25.898,28.012 C26.4700029,27.7919989 26.9576646,27.4766687 27.361,27.066 C27.7643354,26.6553313 28.0796655,26.1713361 28.307,25.614 C28.5343345,25.0566639 28.648,24.4333368 28.648,23.744 L28.648,23.7 C28.648,23.02533 28.5343345,22.4020029 28.307,21.83 C28.0796655,21.2579971 27.7643354,20.7666687 27.361,20.356 C26.9576646,19.9453313 26.4700029,19.6263345 25.898,19.399 C25.3259971,19.1716655 24.6953368,19.058 24.006,19.058 L21.388,19.058 L21.388,28.342 L24.006,28.342 Z M18,16 L24.006,16 C25.2086727,16 26.3123283,16.1943314 27.317,16.583 C28.3216717,16.9716686 29.1869964,17.5106632 29.913,18.2 C30.6390036,18.8893368 31.199998,19.699662 31.596,20.631 C31.992002,21.562338 32.19,22.5706612 32.19,23.656 L32.19,23.7 C32.19,24.7853388 31.992002,25.7973286 31.596,26.736 C31.199998,27.6746714 30.6390036,28.4886632 29.913,29.178 C29.1869964,29.8673368 28.3216717,30.409998 27.317,30.806 C26.3123283,31.202002 25.2086727,31.4 24.006,31.4 L18,31.4 L18,16 Z" id="D" fill="#333333"></path>
        </g>
    </g>
</svg>