<?xml version="1.0" encoding="UTF-8"?>
<svg width="40px" height="40px" viewBox="0 0 40 40" version="1.1" xmlns="http://www.w3.org/2000/svg" xmlns:xlink="http://www.w3.org/1999/xlink">
    <!-- Generator: Sketch 52.4 (67378) - http://www.bohemiancoding.com/sketch -->
    <title>mdpi/##Icon/40/Charge</title>
    <desc>Created with Sketch.</desc>
    <g id="##Icon/40/Charge" stroke="none" stroke-width="1" fill="none" fill-rule="evenodd">
        <rect id="Icon_Area" fill-opacity="0" fill="#FFFFFF" x="0" y="0" width="40.32" height="40.32"></rect>
        <g id="Group-12" transform="translate(4.000000, 3.000000)" stroke="#666666" stroke-linecap="round" stroke-width="2">
            <polyline id="Stroke-3" stroke-linejoin="round" points="7 10 10.5 20 14 10 17.5 20 21 10"></polyline>
            <path d="M6,15 L22,15" id="Stroke-4" stroke-linejoin="round"></path>
            <g id="Group-11">
                <path d="M19.2285,31.5 L16.1435,28.616 L13.0595,31.5 L9.9755,28.616 L6.8915,31.5 L3.8065,28.616 L-0.0005,31.5 L0.0025,28.616 L-0.0005,27.715 L-0.0005,1.942 C-0.0005,1.149 0.6495,0.5 1.4445,0.5 L26.5555,0.5 C27.3505,0.5 27.9995,1.149 27.9995,1.942 L27.9995,18.533" id="Stroke-5" stroke-linejoin="round"></path>
                <path d="M27.8335,28.3335 C29.4905,28.3335 30.8335,26.9905 30.8335,25.3335 C30.8335,23.6765 29.4905,22.3335 27.8335,22.3335 C26.1765,22.3335 24.8335,23.6765 24.8335,25.3335 C24.8335,26.9905 26.1765,28.3335 27.8335,28.3335 Z" id="Stroke-7"></path>
                <path d="M33,33.5 C33,30.739 30.761,28.5 28,28.5 C25.239,28.5 23,30.739 23,33.5" id="Stroke-9"></path>
            </g>
        </g>
    </g>
</svg>