<?xml version="1.0" encoding="utf-8"?>
<!-- Generator: Adobe Illustrator 22.1.0, SVG Export Plug-In . SVG Version: 6.00 Build 0)  -->
<svg version="1.1" id="Layer_1" xmlns="http://www.w3.org/2000/svg" xmlns:xlink="http://www.w3.org/1999/xlink" x="0px" y="0px"
	 viewBox="0 0 80 80" style="enable-background:new 0 0 80 80;" xml:space="preserve">
<style type="text/css">
	.st0{fill:#FFFFFF;fill-opacity:0;}
	.st1{fill:none;stroke:#000000;stroke-width:3;stroke-linecap:round;stroke-linejoin:round;}
</style>
<title>icon_80px_pc</title>
<desc>Created with Sketch.</desc>
<rect id="Icon_Area" class="st0" width="80" height="80"/>
<g>
	<path class="st1" d="M21.5,12h38c6.6,0,12,5.4,12,12v20"/>
	<g>
		<path d="M57.8,22.5c1.8,0,3.2,1.5,3.2,3.2v24.9c0,1.8-1.4,3.2-3.2,3.2H32.9c-0.7,0-1.4,0.3-2,0.7L19.3,64.9v-8c0-1.7-1.3-3-3-3
			c-4.1,0-5.3-1.2-5.3-5.3V25.7c0-1.8,1.4-3.2,3.2-3.2H57.8 M57.8,19.5H14.2c-3.4,0-6.2,2.8-6.2,6.2v22.9c0,6.1,2.9,8.3,8.3,8.3
			v14.6l16.6-14.6h24.8c3.4,0,6.2-2.8,6.2-6.2V25.7C64,22.3,61.2,19.5,57.8,19.5L57.8,19.5z"/>
	</g>
</g>
</svg>
