<?xml version="1.0" encoding="UTF-8"?>
<svg width="80px" height="80px" viewBox="0 0 80 80" version="1.1" xmlns="http://www.w3.org/2000/svg" xmlns:xlink="http://www.w3.org/1999/xlink">
    <!-- Generator: Sketch 52.4 (67378) - http://www.bohemiancoding.com/sketch -->
    <title>mdpi/Artboard</title>
    <desc>Created with Sketch.</desc>
    <g id="Artboard" stroke="none" stroke-width="1" fill="none" fill-rule="evenodd" stroke-linecap="round">
        <g id="Group-15" transform="translate(17.000000, 8.000000)" stroke="#333333" stroke-width="3">
            <path d="M46.5,8.6467 C46.5,13.1457 36.202,16.7917 23.5,16.7917 C10.798,16.7917 0.5,13.1457 0.5,8.6467 C0.5,4.1477 10.798,0.5007 23.5,0.5007 C36.202,0.5007 46.5,4.1477 46.5,8.6467 Z" id="Stroke-1" stroke-linejoin="round"></path>
            <path d="M46.5,23.5729 C46.5,28.0719 36.202,31.7189 23.5,31.7189 C10.798,31.7189 0.5,28.0719 0.5,23.5729" id="Stroke-3" stroke-linejoin="round"></path>
            <path d="M46.5,39.0729 C46.5,43.5729 36.202,47.2189 23.5,47.2189 C10.798,47.2189 0.5,43.5729 0.5,39.0729" id="Stroke-5" stroke-linejoin="round"></path>
            <path d="M0.5,9.1457 L0.5,53.4517 C0.5,57.6867 9.933,62.1457 23.5,62.1457 C37.068,62.1457 46.5,57.6867 46.5,53.4517 L46.5,9.1457" id="Stroke-7" stroke-linejoin="round"></path>
            <path d="M34,22.8571 L37,22.4341" id="Stroke-9"></path>
            <path d="M34,38.3571 L37,37.9341" id="Stroke-11"></path>
            <path d="M34,53.3571 L37,52.9341" id="Stroke-13"></path>
        </g>
    </g>
</svg>