<?xml version="1.0" encoding="UTF-8"?>
<svg width="48px" height="48px" viewBox="0 0 48 48" version="1.1" xmlns="http://www.w3.org/2000/svg" xmlns:xlink="http://www.w3.org/1999/xlink">
    <!-- Generator: Sketch 52.3 (67297) - http://www.bohemiancoding.com/sketch -->
    <title>Artboard</title>
    <desc>Created with Sketch.</desc>
    <g id="Artboard" stroke="none" stroke-width="1" fill="none" fill-rule="evenodd">
        <path d="M24,24 C21.791,24 20,22.209 20,20 C20,17.79 21.791,16 24,16 C26.209,16 28,17.79 28,20 C28,22.209 26.209,24 24,24 M24,2 C14.059,2 6,10.059 6,20 C6,24.83 7.913,29.206 11.01,32.439 L11,32.449 L11.214,32.664 C11.255,32.705 11.295,32.745 11.336,32.785 L24,45.449 L36.664,32.785 C36.705,32.745 36.745,32.705 36.786,32.664 L37,32.449 L36.99,32.439 C40.087,29.206 42,24.83 42,20 C42,10.059 33.941,2 24,2 M24,26 C27.309,26 30,23.308 30,20 C30,16.691 27.309,14 24,14 C20.691,14 18,16.691 18,20 C18,23.308 20.691,26 24,26 M24,4 C32.822,4 40,11.177 40,20 C40,24.131 38.418,28.057 35.546,31.056 L35.212,31.409 L24,42.621 L12.907,31.528 L12.454,31.056 C9.582,28.057 8,24.131 8,20 C8,11.177 15.178,4 24,4" id="Fill-1" fill="#333333"></path>
    </g>
</svg>