<?xml version="1.0" encoding="UTF-8"?>
<svg width="80px" height="80px" viewBox="0 0 80 80" version="1.1" xmlns="http://www.w3.org/2000/svg" xmlns:xlink="http://www.w3.org/1999/xlink">
    <!-- Generator: Sketch 52.4 (67378) - http://www.bohemiancoding.com/sketch -->
    <title>mdpi/Artboard Copy 2</title>
    <desc>Created with Sketch.</desc>
    <g id="Artboard-Copy-2" stroke="none" stroke-width="1" fill="none" fill-rule="evenodd">
        <g id="Group-17" transform="translate(8.000000, 5.000000)" stroke="#333333" stroke-width="3">
            <path d="M17.5,28.75 L17.5,13.5 C17.5,12.396 18.324,11.5 19.34,11.5 L61.66,11.5 C62.676,11.5 63.5,12.396 63.5,13.5 L63.5,63.5 C63.5,64.6 62.672,65.5 61.66,65.5 L32.22,65.5" id="Stroke-1"></path>
            <path d="M30.5,69.5 L2.5,69.5 C1.4,69.5 0.5,68.6 0.5,67.5 L0.5,29.5 C0.5,28.396 1.396,27.5 2.5,27.5 L30.5,27.5 C31.604,27.5 32.5,28.396 32.5,29.5 L32.5,67.5 C32.5,68.6 31.6,69.5 30.5,69.5 Z" id="Stroke-3"></path>
            <path d="M25.5,21.5 L31.5,21.5" id="Stroke-5" stroke-linecap="round"></path>
            <path d="M7.5,35.5 L11.5,35.5" id="Stroke-7" stroke-linecap="round"></path>
            <path d="M20.5,35.5 L24.5,35.5" id="Stroke-9" stroke-linecap="round"></path>
            <path d="M49.5,21.5 L55.5,21.5" id="Stroke-11" stroke-linecap="round"></path>
            <path d="M28.5,20.5 L28.5,12.5 C28.5,5.9 33.9,0.5 40.5,0.5 C47.1,0.5 52.5,5.9 52.5,12.5 L52.5,20.5" id="Stroke-13" stroke-linecap="round"></path>
            <path d="M22.5,36.5 L22.5,39.342 C22.5,42.729 19.575,45.5 16,45.5 C12.425,45.5 9.5,42.729 9.5,39.342 L9.5,36.5" id="Stroke-15" stroke-linecap="round"></path>
        </g>
    </g>
</svg>