<?xml version="1.0" encoding="UTF-8"?>
<svg width="80px" height="80px" viewBox="0 0 80 80" version="1.1" xmlns="http://www.w3.org/2000/svg" xmlns:xlink="http://www.w3.org/1999/xlink">
    <!-- Generator: Sketch 52.4 (67378) - http://www.bohemiancoding.com/sketch -->
    <title>mdpi/Artboard Copy</title>
    <desc>Created with Sketch.</desc>
    <g id="Artboard-Copy" stroke="none" stroke-width="1" fill="none" fill-rule="evenodd">
        <g id="Group-17" transform="translate(4.000000, 10.000000)">
            <path d="M43.7236,57.9915 C39.5256,57.9935 26.9066,52.4955 15.8166,40.6725 C4.7276,28.8485 0.4996,19.3495 0.4996,15.0855 C0.4996,13.0875 0.9156,10.1365 3.1066,7.9585 L8.1236,2.9715 C9.1836,1.9285 11.0696,1.5905 12.2206,2.6345 L22.2116,12.7025 C23.4156,13.8975 23.4156,15.4845 22.2116,16.6465 L16.3426,22.4595 C15.2546,24.1065 17.5856,28.7475 23.1076,34.2465 C28.5756,39.6675 33.8746,43.3415 36.2286,42.5805 L37.5476,41.5135 L41.5326,37.3545 C42.8006,36.0915 44.7446,36.0845 46.0226,37.3545 L55.5136,46.8095 C56.8276,48.1135 56.8276,49.5655 55.5156,50.8745 L50.8866,55.4705 C50.8336,55.5245 50.7766,55.5735 50.7126,55.6175 L50.3406,55.8865 C48.5386,57.3135 46.5726,58.0005 44.2076,58.0005 C44.0486,58.0005 43.8846,57.9985 43.7236,57.9915 Z" id="Stroke-1" stroke="#333333" stroke-width="3"></path>
            <path d="M45.7168,11.8977 C43.4508,9.6317 40.6158,8.5757 37.7128,8.5707 C37.0658,8.5677 36.5808,9.0507 36.5838,9.6997 L36.5888,11.9617 C36.5868,12.6037 37.0738,13.0917 37.7208,13.0937 C39.5028,13.0977 41.1958,13.8327 42.4888,15.1257 C43.7868,16.4227 44.4388,18.1977 44.5258,19.8987 C44.5238,20.5407 45.0108,21.0287 45.6568,21.0307 L47.9198,21.0357 C48.5678,21.0377 49.0508,20.5527 49.0498,19.9067 C49.0398,16.9997 47.9878,14.1687 45.7168,11.8977" id="Fill-3" fill="#333333"></path>
            <path d="M58.4258,20.5725 C58.4098,15.2485 56.4568,10.0665 52.4068,6.0175 C48.3588,1.9685 43.1028,-0.0595 37.8538,0.0015 C37.5308,0.0015 37.2888,0.0845 37.0448,0.3275 C36.8058,0.5665 36.7248,0.8075 36.7248,1.1305 L36.7308,3.3945 C36.7328,4.0425 37.2178,4.5275 37.8648,4.5295 C41.9048,4.5395 46.0298,6.0845 49.1858,9.2405 C52.3458,12.4005 53.8898,16.5255 53.9008,20.5645 C53.9028,21.2125 54.3878,21.6975 55.0348,21.6995 L57.2958,21.7025 C57.6188,21.7035 57.8638,21.6245 58.1018,21.3845 C58.3458,21.1405 58.5048,20.8175 58.4258,20.5725" id="Fill-5" fill="#333333"></path>
            <path d="M39.3633,21.3323 C38.4693,22.2263 37.0263,22.2223 36.1273,21.3233 C35.2343,20.4303 35.2313,18.9873 36.1253,18.0943 C37.0123,17.2053 38.4573,17.2083 39.3493,18.1013 C40.2493,19.0003 40.2513,20.4433 39.3633,21.3323" id="Fill-7" fill="#333333"></path>
            <path d="M72.4961,44.9983 C72.4961,53.2813 65.7811,59.9963 57.4981,59.9963 C49.2151,59.9963 42.5001,53.2813 42.5001,44.9983 C42.5001,36.7153 49.2151,30.0003 57.4981,30.0003 C65.7811,30.0003 72.4961,36.7153 72.4961,44.9983" id="Fill-9" fill="#FFFFFF"></path>
            <path d="M72.4961,44.9983 C72.4961,53.2813 65.7811,59.9963 57.4981,59.9963 C49.2151,59.9963 42.5001,53.2813 42.5001,44.9983 C42.5001,36.7153 49.2151,30.0003 57.4981,30.0003 C65.7811,30.0003 72.4961,36.7153 72.4961,44.9983 Z" id="Stroke-11" stroke="#333333" stroke-width="3" stroke-linecap="round" stroke-linejoin="round"></path>
            <path d="M57.498,39.3938 L57.498,51.1658" id="Stroke-13" stroke="#333333" stroke-width="3" stroke-linecap="round"></path>
            <polyline id="Stroke-15" stroke="#333333" stroke-width="3" stroke-linecap="round" stroke-linejoin="round" points="51.998 44.8294 57.503 38.8294 62.998 44.8294"></polyline>
        </g>
    </g>
</svg>