<?xml version="1.0" encoding="UTF-8"?>
<svg width="80px" height="80px" viewBox="0 0 80 80" version="1.1" xmlns="http://www.w3.org/2000/svg" xmlns:xlink="http://www.w3.org/1999/xlink">
    <!-- Generator: Sketch 52.3 (67297) - http://www.bohemiancoding.com/sketch -->
    <title>Artboard</title>
    <desc>Created with Sketch.</desc>
    <defs>
        <polygon id="path-1" points="0 61 67.962 61 67.962 0 0 0"></polygon>
    </defs>
    <g id="Artboard" stroke="none" stroke-width="1" fill="none" fill-rule="evenodd">
        <g id="Group-19" transform="translate(6.000000, 9.000000)">
            <path d="M59.5,30.5001 C59.5,46.5171 46.517,59.5001 30.5,59.5001 C14.484,59.5001 1.5,46.5171 1.5,30.5001 C1.5,14.4831 14.484,1.5001 30.5,1.5001 C46.517,1.5001 59.5,14.4831 59.5,30.5001 Z" id="Stroke-1" stroke="#333333" stroke-width="3" stroke-linecap="round"></path>
            <path d="M35.5,18.3351 C35.5,21.0961 33.261,23.3351 30.5,23.3351 C27.739,23.3351 25.5,21.0961 25.5,18.3351 C25.5,15.5731 27.739,13.3351 30.5,13.3351 C33.261,13.3351 35.5,15.5731 35.5,18.3351 Z" id="Stroke-3" stroke="#333333" stroke-width="3" stroke-linecap="round"></path>
            <path d="M35.0059,42.6652 C35.0059,45.4272 32.7669,47.6652 30.0059,47.6652 C27.2439,47.6652 25.0059,45.4272 25.0059,42.6652 C25.0059,39.9032 27.2439,37.6652 30.0059,37.6652 C32.7669,37.6652 35.0059,39.9032 35.0059,42.6652 Z" id="Stroke-5" stroke="#333333" stroke-width="3" stroke-linecap="round"></path>
            <path d="M17.8877,25.006 C20.6487,25.006 22.8877,27.244 22.8877,30.006 C22.8877,32.767 20.6487,35.006 17.8877,35.006 C15.1257,35.006 12.8877,32.767 12.8877,30.006 C12.8877,27.244 15.1257,25.006 17.8877,25.006 Z" id="Stroke-7" stroke="#333333" stroke-width="3" stroke-linecap="round"></path>
            <path d="M42.2178,25.5001 C44.9798,25.5001 47.2178,27.7381 47.2178,30.5001 C47.2178,33.2621 44.9798,35.5001 42.2178,35.5001 C39.4568,35.5001 37.2178,33.2621 37.2178,30.5001 C37.2178,27.7381 39.4568,25.5001 42.2178,25.5001 Z" id="Stroke-9" stroke="#333333" stroke-width="3" stroke-linecap="round"></path>
            <polyline id="Stroke-11" stroke="#333333" stroke-width="3" stroke-linecap="round" points="30.5376 59.5001 66.4616 59.5001 66.4616 39.5001 59.0596 39.5001"></polyline>
            <mask id="mask-2" fill="white">
                <use xlink:href="#path-1"></use>
            </mask>
            <g id="Clip-14"></g>
            <polygon id="Fill-13" fill="#333333" mask="url(#mask-2)" points="61.694 56 65.063 56 65.063 53 61.694 53"></polygon>
            <polygon id="Fill-15" fill="#333333" mask="url(#mask-2)" points="54.955 56 58.324 56 58.324 53 54.955 53"></polygon>
            <polygon id="Fill-16" fill="#333333" mask="url(#mask-2)" points="61.694 46 65.063 46 65.063 43 61.694 43"></polygon>
            <polygon id="Fill-17" fill="#333333" mask="url(#mask-2)" points="54.955 46 58.324 46 58.324 43 54.955 43"></polygon>
            <polygon id="Fill-18" fill="#333333" mask="url(#mask-2)" points="48.217 56 51.586 56 51.586 53 48.217 53"></polygon>
        </g>
    </g>
</svg>