<?xml version="1.0" encoding="UTF-8"?>
<svg width="52px" height="17px" viewBox="0 0 52 17" version="1.1" xmlns="http://www.w3.org/2000/svg" xmlns:xlink="http://www.w3.org/1999/xlink">
    <title>AiPick 2</title>
    <defs>
        <path d="M43.5217391,0 C48.2041533,0 52,3.80557963 52,8.5 C52,13.1944204 48.2041533,17 43.5217391,17 L8.47826087,17 C3.79584669,17 0,13.1944204 0,8.5 C0,3.80557963 3.79584669,0 8.47826087,0 L43.5217391,0 Z" id="path-1"></path>
        <linearGradient x1="8.65743886%" y1="47.5651786%" x2="95.463938%" y2="52.2231665%" id="linearGradient-3">
            <stop stop-color="#735CE2" offset="0%"></stop>
            <stop stop-color="#0BACA2" offset="100%"></stop>
        </linearGradient>
        <linearGradient x1="8.65743886%" y1="46.0644146%" x2="95.463938%" y2="53.5934715%" id="linearGradient-4">
            <stop stop-color="#735CE2" offset="0%"></stop>
            <stop stop-color="#0BACA2" offset="100%"></stop>
        </linearGradient>
    </defs>
    <g id="AiPick">
        <g id="Rectangle-Copy-13">
            <use fill="black" fill-opacity="1" filter="url(#filter-2)" xlink:href="#path-1"></use>
            <use fill="#FFFFFF" xlink:href="#path-1"></use>
        </g>
        <path d="M18.021159,3.34652508 L18.0551864,3.3959538 L18.0847911,3.44165011 L18.1054038,3.49224205 C18.1777601,3.66983297 18.1653917,3.75403168 18.1207882,3.90378518 C18.1108133,3.93727529 18.098841,3.96983343 18.0838631,4.00657547 L18.046078,4.09421644 L17.9756051,4.24541312 L17.1944263,5.81778263 L16.9144954,6.38987498 L16.743605,6.74601438 L16.5206102,7.22168626 L16.429,7.42 L16.9939994,7.42035715 C17.3044508,7.42035715 17.5561214,7.6774979 17.5561214,7.99469709 C17.5561214,8.2932375 17.3331883,8.53857736 17.0481355,8.56640786 L16.9939994,8.56903703 L15.94,8.569 L15.9116038,8.64385567 L15.8408229,8.83472916 L15.7793216,9.01150377 L15.7272883,9.17383759 L15.6849114,9.32138868 L15.6523794,9.45381513 L15.6196744,9.61995229 L15.5522833,9.98897089 L15.5151087,10.2131603 L15.4963345,10.3396772 L15.4821451,10.4491421 L15.47235,10.5426711 L15.4667585,10.6213804 L15.4654023,10.6496792 L15.4871114,10.650078 C15.5042677,10.650078 15.5321088,10.6410471 15.5692317,10.6237262 L15.6317019,10.5916198 L15.7070425,10.547634 L15.7942011,10.4923244 L15.944796,10.3893434 L16.0568959,10.3081553 L16.1771309,10.2175882 L16.3704346,10.0653673 L16.5064033,9.95378356 L16.646824,9.83476554 L16.7906444,9.7088689 L16.9368123,9.57664928 L17.0131794,9.5057853 C17.4922576,9.05726377 17.9391803,8.57521868 18.2849459,8.13826889 L18.3966812,7.9939313 L18.43786,7.87055067 C18.5234762,7.61655649 18.6202499,7.34907764 18.7281242,7.06785708 L18.8291681,6.80815217 L18.8907348,6.73535632 C19.0300358,6.57064823 19.1377563,6.45611023 19.2301411,6.37988478 C19.3392999,6.28981936 19.4351366,6.23357435 19.589683,6.21650029 C19.9918606,6.17206829 20.2345044,6.49205163 20.2345044,6.81688046 C20.2345044,6.94475986 20.1982517,7.08331977 20.1135433,7.28078543 L20.056806,7.40671932 C20.0463481,7.42901502 20.0353813,7.45199622 20.0238933,7.47571116 L19.9486137,7.6271914 L19.8109607,7.89249341 C19.7289769,8.04801636 19.6278505,8.21329245 19.5113597,8.38462625 L19.4070019,8.53304506 L19.3849974,8.6037157 C19.1891272,9.2392413 19.0858884,9.74792848 19.0737486,10.1228371 L19.0725349,10.1960331 L19.0730518,10.2619932 L19.0775535,10.3745628 C19.0940219,10.6086681 19.1549021,10.650078 19.3160584,10.650078 C19.6490047,10.650078 20.0669007,10.4344536 20.5583178,10.0005774 L20.7007133,9.87067167 C21.0135289,9.57633201 21.3541021,9.19825804 21.7197217,8.73582649 L21.8902377,8.51640439 L21.9768111,8.40219667 L22.1525514,8.16477937 C22.1821272,8.12420905 22.211845,8.08313815 22.2417036,8.04156639 L22.4225349,7.78612327 L22.6066862,7.5186459 C22.6376514,7.47306272 22.6687525,7.42697756 22.6999883,7.38039011 L22.8890084,7.09483584 L23.0812003,6.79721329 C23.1485113,6.69172242 23.2439909,6.61629502 23.3509371,6.57452669 C23.4328839,6.49815243 23.5620939,6.44789769 23.7326823,6.4311461 L23.8683821,6.42486426 L25.2627082,6.42486426 L25.4609391,6.42756479 C25.7781087,6.43656655 26.0292012,6.46807271 26.2142168,6.52208326 C26.4337957,6.58440313 26.6234875,6.68785412 26.7832921,6.83243622 C26.9430968,6.97701833 27.0644751,7.15400676 27.1474272,7.36340153 C27.2303792,7.5727963 27.2718552,7.80836542 27.2718552,8.07010888 C27.2718552,8.62849493 27.1035114,9.05164686 26.7668237,9.33956467 C26.4675458,9.59549161 26.038147,9.73767324 25.4786274,9.76610957 L25.2627082,9.77144138 L24.2672838,9.77144138 L24.2672838,11.3232062 L24.2611356,11.44989 C24.2447403,11.6102266 24.1955547,11.7362623 24.1135785,11.8279972 C24.0111084,11.9426657 23.8818008,12 23.7256558,12 C23.5621915,12 23.4304441,11.9432889 23.3304137,11.8298667 C23.2503894,11.739129 23.2023748,11.6144893 23.18637,11.4559475 L23.1803682,11.3306846 L23.18,8.677 L23.0274612,8.88998881 L22.8361619,9.14756936 C21.5058224,10.9091263 20.3581285,11.7987579 19.3160584,11.7987579 C18.4650074,11.7987579 17.9792499,11.2126497 17.9497212,10.2866943 L17.9481079,10.187527 L17.9045958,10.2297335 C17.7143101,10.4107568 17.5214125,10.5840379 17.33055,10.7450314 L17.1405379,10.9017608 C16.5105731,11.4094172 15.9204321,11.7637118 15.5422305,11.796303 L15.4871114,11.7987579 C14.8847162,11.7987579 14.4761061,11.5667582 14.3678493,10.9894665 C14.3597357,10.9461995 14.3533868,10.9023219 14.348851,10.8567767 L14.3422114,10.7631499 C14.3415126,10.7470705 14.3410187,10.7307275 14.3407317,10.7140818 L14.3415061,10.6102618 L14.3473306,10.4972976 L14.3582914,10.3733101 L14.3744744,10.2364203 L14.3959657,10.0847493 L14.4228513,9.91641801 L14.4931497,9.52225859 L14.5367345,9.29267243 C14.5665845,9.13753277 14.6128646,8.96155959 14.6749618,8.76473888 L14.739,8.569 L12.7913448,8.56968805 C12.737527,8.68576473 12.6892365,8.80054867 12.6468814,8.91361496 C11.8625795,11.0072942 10.4453321,12.0090398 8.50205028,11.7954637 C8.19337948,11.7615393 7.97006851,11.4783722 8.00327125,11.1629924 C8.036474,10.8476125 8.31361726,10.6194478 8.62228806,10.6533722 C9.99706751,10.8044671 10.940729,10.1641977 11.5527273,8.61778101 L11.571,8.569 L10.9980312,8.56903703 C10.6875798,8.56903703 10.4359092,8.31189628 10.4359092,7.99469709 C10.4359092,7.69615667 10.6588424,7.45081681 10.9438951,7.42298631 L10.9980312,7.42035715 L12.1222839,7.42024922 C12.7414332,6.36939193 13.6659613,5.31416411 14.7021898,4.43554718 L14.8830041,4.28457143 L15.0613971,4.14041307 L15.237177,4.00337191 L15.4101523,3.87374778 C15.4959067,3.81083994 15.5805375,3.75082591 15.6639368,3.69387436 L15.8290614,3.5841045 C16.8095732,2.9505847 17.6023924,2.7742501 18.021159,3.34652508 Z M28.0867858,6.33138445 C28.2502501,6.33138445 28.3826074,6.38684914 28.4838576,6.49777851 C28.5851079,6.60870788 28.6357331,6.77759474 28.6357331,7.00443907 L28.6357331,7.00443907 L28.6357331,11.3232062 L28.629658,11.4524327 C28.613458,11.6155612 28.5648579,11.7419957 28.4838576,11.8317363 C28.3826074,11.9439121 28.2502501,12 28.0867858,12 C27.9306408,12 27.8019431,11.9432889 27.7006928,11.8298667 C27.5994426,11.7164446 27.5488174,11.5475577 27.5488174,11.3232062 L27.5488174,11.3232062 L27.5488174,7.00443907 L27.5548193,6.87655869 C27.5708241,6.71502558 27.6188387,6.58938872 27.698863,6.49964811 C27.7988934,6.38747234 27.928201,6.33138445 28.0867858,6.33138445 Z M31.5220247,6.33138445 C31.956303,6.33138445 32.3430058,6.41987867 32.6821333,6.59686711 C33.0212607,6.77385554 33.2810957,6.99259829 33.4616384,7.25309536 C33.6421811,7.51359242 33.7324524,7.75975592 33.7324524,7.99158584 C33.7324524,8.11871838 33.6885366,8.23089415 33.600705,8.32811315 C33.5128735,8.42533215 33.4067437,8.47394165 33.2823156,8.47394165 C33.143249,8.47394165 33.038949,8.44028892 32.9694157,8.37298346 C32.8998824,8.30567799 32.8224198,8.18976303 32.737028,8.02523857 C32.5955216,7.75352393 32.4290076,7.55036115 32.237486,7.41575022 C32.0459644,7.2811393 31.809917,7.21383384 31.529344,7.21383384 C31.0828668,7.21383384 30.727271,7.38708308 30.4625564,7.73358157 C30.1978418,8.08008006 30.0654845,8.57240705 30.0654845,9.21056253 C30.0654845,9.63683046 30.1240389,9.99143053 30.2411477,10.2743627 C30.3582564,10.557295 30.5241605,10.7685593 30.7388599,10.9081558 C30.9535593,11.0477524 31.2048551,11.1175506 31.4927475,11.1175506 C31.8050375,11.1175506 32.0691421,11.0384044 32.2850614,10.8801119 C32.5009807,10.7218194 32.663835,10.4893663 32.7736245,10.1827525 C32.81998,10.0381704 32.8773145,9.92038587 32.945628,9.82939886 C33.0139414,9.73841185 33.1237309,9.69291834 33.2749963,9.69291834 C33.4043039,9.69291834 33.5153132,9.73903505 33.6080243,9.83126846 C33.7007354,9.92350187 33.747091,10.0381704 33.747091,10.1752742 C33.747091,10.3497698 33.705005,10.538599 33.6208331,10.7417618 C33.5366612,10.9449246 33.4043039,11.1443482 33.2237612,11.3400326 C33.0432186,11.535717 32.8126607,11.6946326 32.5320877,11.8167796 C32.2515146,11.9389265 31.924586,12 31.5513019,12 C31.268289,12 31.0108938,11.9725793 30.779116,11.9177378 C30.5473383,11.8628963 30.3369085,11.7775181 30.1478266,11.6616031 C29.9587448,11.5456881 29.7849115,11.3930044 29.6263267,11.203552 C29.4848203,11.0315492 29.3640519,10.8389808 29.2640215,10.6258468 C29.1639911,10.4127129 29.0889683,10.1852453 29.0389531,9.94344423 C28.9889379,9.70164312 28.9639303,9.44488525 28.9639303,9.17317061 C28.9639303,8.73194592 29.0267543,8.33683793 29.1524022,7.98784665 C29.2780502,7.63885537 29.4579829,7.34034318 29.6922004,7.09231009 C29.9264179,6.844277 30.2008915,6.65544779 30.5156213,6.52582245 C30.8303511,6.39619712 31.1658189,6.33138445 31.5220247,6.33138445 Z M37.826428,6.33138445 C37.982573,6.33138445 38.1088309,6.37812436 38.2052017,6.47160416 C38.3015724,6.56508397 38.3497578,6.67912934 38.3497578,6.81374026 C38.3497578,6.97577193 38.2680256,7.1365572 38.1045613,7.29609607 L38.1045613,7.29609607 L36.7834282,8.57489984 L38.305842,10.8034585 L38.3813222,10.9157511 C38.4517705,11.0244214 38.5071227,11.1222246 38.5473788,11.2091608 C38.6010536,11.3250758 38.6278911,11.4378748 38.6278911,11.5475577 C38.6278911,11.6697047 38.5809256,11.7756485 38.4869946,11.8653891 C38.3930636,11.9551297 38.2655859,12 38.1045613,12 C37.9532959,12 37.8300877,11.9669705 37.7349368,11.9009114 C37.639786,11.8348523 37.5592737,11.7469813 37.4934,11.6372983 C37.4275263,11.5276154 37.368972,11.4279036 37.3177369,11.338163 L37.3177369,11.338163 L36.0332002,9.31899911 L35.1439056,10.1902309 L35.1439056,11.3232062 L35.1377574,11.453704 C35.1213622,11.6182285 35.0721765,11.7448624 34.9902004,11.8336059 C34.8877303,11.9445353 34.7559829,12 34.5949584,12 C34.5022473,12 34.4131958,11.9750721 34.327804,11.9252162 C34.2424122,11.8753603 34.1765385,11.8080548 34.130183,11.7232998 C34.0960263,11.6535015 34.0752883,11.5724857 34.067969,11.4802523 C34.0606497,11.3880189 34.05699,11.2546543 34.05699,11.0801587 L34.05699,11.0801587 L34.05699,7.00443907 L34.0627723,6.87655869 C34.0781916,6.71502558 34.1244496,6.58938872 34.2015461,6.49964811 C34.2979169,6.38747234 34.4290543,6.33138445 34.5949584,6.33138445 C34.7584227,6.33138445 34.89078,6.38684914 34.9920302,6.49777851 C35.0932805,6.60870788 35.1439056,6.77759474 35.1439056,7.00443907 L35.1439056,7.00443907 L35.1439056,8.92638392 L37.2774808,6.65295499 L37.3514743,6.57606785 C37.4226087,6.5045558 37.4851658,6.44916901 37.5391456,6.40990749 C37.6111187,6.3575588 37.7068795,6.33138445 37.826428,6.33138445 Z M40.8554459,6.33138445 C41.1848143,6.33138445 41.469657,6.37313877 41.7099739,6.4566474 C41.9502908,6.54015602 42.1497417,6.6510854 42.3083264,6.78943551 C42.4669112,6.92778563 42.5828001,7.07299093 42.655993,7.22505142 C42.729186,7.3771119 42.7657825,7.5254332 42.7657825,7.6700153 C42.7657825,7.80213343 42.7200369,7.92116438 42.6285457,8.02710817 C42.5370545,8.13305195 42.4229954,8.18602384 42.2863685,8.18602384 C42.1619405,8.18602384 42.0673996,8.15424071 42.0027458,8.09067444 C41.938092,8.02710817 41.8679487,7.92303398 41.792316,7.77845188 C41.6947254,7.5715499 41.5776166,7.41014144 41.4409897,7.29422647 C41.3043628,7.17831151 41.0847839,7.12035403 40.782253,7.12035403 C40.5016799,7.12035403 40.2753917,7.1832971 40.1033882,7.30918324 C39.9313847,7.43506938 39.8453829,7.58650667 39.8453829,7.76349511 C39.8453829,7.87317808 39.8746601,7.96790429 39.9332145,8.04767372 C39.9917689,8.12744316 40.0722812,8.19599502 40.1747513,8.2533293 C40.2772215,8.31066358 40.3809115,8.35553389 40.4858214,8.38794023 C40.5907314,8.42034656 40.7639547,8.46770966 41.0054915,8.53002953 C41.3080225,8.60232058 41.5818862,8.68209002 41.8270826,8.76933784 C42.0722791,8.85658566 42.2808791,8.96252944 42.4528825,9.08716919 C42.624886,9.21180893 42.7590731,9.36947821 42.8554439,9.56017702 C42.9518146,9.75087582 43,9.98457534 43,10.2612756 C43,10.5928173 42.916438,10.8907063 42.7493141,11.1549425 C42.5821901,11.4191788 42.3376036,11.6260808 42.0155545,11.7756485 C41.6935055,11.9252162 41.3116821,12 40.8700845,12 C40.3406554,12 39.9039373,11.8977954 39.5599304,11.6933862 C39.3159538,11.5463113 39.1177228,11.3500037 38.9652375,11.1044634 C38.8127521,10.8589231 38.7365094,10.620238 38.7365094,10.3884081 C38.7365094,10.2537972 38.782255,10.1385054 38.8737463,10.0425328 C38.9652375,9.94656022 39.0817363,9.89857392 39.2232427,9.89857392 C39.3379117,9.89857392 39.4348924,9.93596584 39.5141848,10.0107497 C39.5934771,10.0855335 39.6611806,10.1964629 39.7172952,10.3435378 C39.7856087,10.5180334 39.8594116,10.6638619 39.938704,10.7810233 C40.0179964,10.8981847 40.1296157,10.9947805 40.2735618,11.0708107 C40.417508,11.146841 40.6065898,11.1848561 40.8408074,11.1848561 C41.1628564,11.1848561 41.4245213,11.1082026 41.625802,10.9548957 C41.8270826,10.8015889 41.927723,10.6102669 41.927723,10.3809297 C41.927723,10.1989557 41.8734382,10.0512576 41.7648686,9.93783544 C41.656299,9.82441327 41.5160125,9.73778865 41.344009,9.67796157 C41.1720055,9.6181345 40.9420576,9.55456823 40.6541653,9.48726277 C40.2686823,9.39502935 39.9460233,9.28721598 39.6861882,9.16382263 C39.4263532,9.04042928 39.220193,8.87216563 39.0677076,8.65903167 C38.9152223,8.44589771 38.8389796,8.18103825 38.8389796,7.8644533 C38.8389796,7.56282512 38.9194919,7.29484967 39.0805164,7.06052695 C39.2415409,6.82620424 39.4745386,6.64609981 39.7795093,6.52021366 C40.08448,6.39432752 40.4431255,6.33138445 40.8554459,6.33138445 Z M24.9992135,7.25870415 L24.2672838,7.25870415 L24.2672838,8.9338623 L24.9992135,8.9338623 C25.2553889,8.9338623 25.4694783,8.90644156 25.6414818,8.85160007 C25.8134853,8.79675858 25.9446227,8.70701797 26.034894,8.58237823 C26.1251654,8.45773848 26.170301,8.29446042 26.170301,8.09254403 C26.170301,7.85074293 26.1007677,7.65381213 25.961701,7.50175165 C25.805556,7.33971998 25.4847269,7.25870415 24.9992135,7.25870415 Z M16.6106322,4.45714595 L16.5296572,4.50557988 C16.2275977,4.68819914 15.8872921,4.93279759 15.5371708,5.22161072 L15.4201392,5.31949497 C14.6745496,5.95167945 13.9933071,6.68484587 13.4705632,7.42091707 L15.194,7.42 L15.2951198,7.19165891 L15.4276887,6.89747325 L15.569781,6.58936587 L15.6497656,6.4186294 L15.8174761,6.06593474 L15.9979734,5.69287788 L16.6106322,4.45714595 Z M19.9919835,4.7401041 C20.3024349,4.7401041 20.5541055,4.99724485 20.5541055,5.31444404 C20.5541055,5.63164323 20.3024349,5.88878398 19.9919835,5.88878398 C19.6815321,5.88878398 19.4298615,5.63164323 19.4298615,5.31444404 C19.4298615,4.99724485 19.6815321,4.7401041 19.9919835,4.7401041 Z" id="Combined-Shape" fill="url(#linearGradient-3)"></path>
        <path d="M43.5217391,0 C48.2041533,0 52,3.80557963 52,8.5 C52,13.1944204 48.2041533,17 43.5217391,17 L8.47826087,17 C3.79584669,17 0,13.1944204 0,8.5 C0,3.80557963 3.79584669,0 8.47826087,0 L43.5217391,0 Z M43.5217391,1.13333333 L8.47826087,1.13333333 C4.42016858,1.13333333 1.13043478,4.43150234 1.13043478,8.5 C1.13043478,12.5252158 4.35054655,15.7964057 8.34901119,15.8655499 L8.47826087,15.8666667 L43.5217391,15.8666667 C47.5798314,15.8666667 50.8695652,12.5684977 50.8695652,8.5 C50.8695652,4.47478423 47.6494534,1.20359432 43.6509888,1.13445008 L43.5217391,1.13333333 Z" id="Rectangle" fill="url(#linearGradient-4)"></path>
    </g>
</svg>