<svg xmlns="http://www.w3.org/2000/svg" width="6" height="187" viewBox="0 0 6 187">
  <g fill-rule="evenodd" opacity=".3" transform="translate(0 .766)">
    <rect width="5" height="1.323" x="1" y="138.206"/>
    <rect width="3" height="1.323" x="3" y="165.796"/>
    <rect width="3" height="1.323" x="3" y="174.993"/>
    <rect width="6" height="1.323" y="184.19"/>
    <rect width="3" height="1.346" x="3" y="156.6"/>
    <rect width="3" height="1.346" x="3" y="147.403"/>
    <rect width="5" height="1.323" x="1" y="92.223"/>
    <rect width="3" height="1.323" x="3" y="119.813"/>
    <rect width="3" height="1.323" x="3" y="129.01"/>
    <rect width="3" height="1.346" x="3" y="110.616"/>
    <rect width="3" height="1.346" x="3" y="101.419"/>
    <rect width="5" height="1.323" x="1" y="46.239"/>
    <rect width="3" height="1.323" x="3" y="73.829"/>
    <rect width="3" height="1.323" x="3" y="83.026"/>
    <rect width="3" height="1.346" x="3" y="64.633"/>
    <rect width="3" height="1.346" x="3" y="55.436"/>
    <rect width="5" height="1.323" x="1"/>
    <rect width="3" height="1.323" x="3" y="27.846"/>
    <rect width="3" height="1.323" x="3" y="37.042"/>
    <rect width="3" height="1.346" x="3" y="18.649"/>
    <rect width="3" height="1.346" x="3" y="9.452"/>
  </g>
</svg>
