<?xml version="1.0" encoding="UTF-8"?>
<svg width="8px" height="8px" viewBox="0 0 8 8" version="1.1" xmlns="http://www.w3.org/2000/svg" xmlns:xlink="http://www.w3.org/1999/xlink">
    <title>btn_close</title>
    <g id="서브메인" stroke="none" stroke-width="1" fill="none" fill-rule="evenodd">
        <g id="퀵필터" transform="translate(-154.000000, -219.000000)" fill="#222222">
            <g id="filter" transform="translate(-16.000000, 194.000000)">
                <g id="Group-5-Copy" transform="translate(36.000000, 15.000000)">
                    <g id="btn_close" transform="translate(134.000000, 10.000000)">
                        <path d="M6.91917388,0.353553391 L0.353553391,6.91917388 C0.158291245,7.11443603 0.158291245,7.43101852 0.353553391,7.62628066 L0.373719337,7.64644661 C0.568981483,7.84170876 0.885563972,7.84170876 1.08082612,7.64644661 L7.64644661,1.08082612 C7.84170876,0.885563972 7.84170876,0.568981483 7.64644661,0.373719337 L7.62628066,0.353553391 C7.43101852,0.158291245 7.11443603,0.158291245 6.91917388,0.353553391 Z" id="Rectangle"></path>
                        <path d="M1.08082612,0.353553391 L7.64644661,6.91917388 C7.84170876,7.11443603 7.84170876,7.43101852 7.64644661,7.62628066 L7.62628066,7.64644661 C7.43101852,7.84170876 7.11443603,7.84170876 6.91917388,7.64644661 L0.353553391,1.08082612 C0.158291245,0.885563972 0.158291245,0.568981483 0.353553391,0.373719337 L0.373719337,0.353553391 C0.568981483,0.158291245 0.885563972,0.158291245 1.08082612,0.353553391 Z" id="Rectangle"></path>
                    </g>
                </g>
            </g>
        </g>
    </g>
</svg>