<?xml version="1.0" encoding="UTF-8"?>
<svg width="24px" height="24px" viewBox="0 0 24 24" version="1.1" xmlns="http://www.w3.org/2000/svg" xmlns:xlink="http://www.w3.org/1999/xlink">
    <title>Slice</title>
    <g id="Page-1" stroke="none" stroke-width="1" fill="none" fill-rule="evenodd">
        <g id="icon_Membership_VIP">
            <rect id="Rectangle" fill-opacity="0" fill="#D8D8D8" x="0" y="0" width="24" height="24"></rect>
            <g id="Membership_VIP" transform="translate(4.000000, 4.000000)">
                <path d="M7.76652832,11.5 L1.13333333,11.5 C0.507410617,11.5 0,11.0115834 0,10.4090909 L0,1.59090909 C0,0.988416637 0.507410617,0.5 1.13333333,0.5 L12.8666667,0.5 C13.4925894,0.5 14,0.988416637 14,1.59090909 L14,7.64318182" id="Path" stroke="#222222"></path>
                <path d="M4.55347443,3.42697542 C4.6218393,3.42265118 4.6799026,3.4338942 4.7351564,3.44946146 C4.92245739,3.50221719 5.07417119,3.55064867 5.07417119,3.55064867 C4.96928264,4.04966592 5.28488481,4.81678603 5.92077168,5.02348468 C6.17081851,5.10564523 6.31878629,5.23191303 6.44615096,5.4118014 C6.61659487,5.65049943 6.70275332,5.9514665 6.70275332,6.20573179 L6.70275332,7.30581835 C6.70275332,7.98731851 7.04364113,8.54255087 7.60554411,8.70081804 L6.73834051,8.97756938 C6.56508709,9.03291965 6.39464319,8.97583968 6.29162765,8.91443548 C5.87020041,8.66449443 5.64731223,8.27790741 5.64731223,7.68202719 C5.64731223,7.49579661 5.64647978,7.26382518 5.64592482,6.98406289 L5.64543922,6.52832007 L5.64543922,6.52832007 C5.64543922,6.24637964 5.51620154,5.91860228 5.31578947,5.67644486 C5.16594868,5.4930971 4.99175876,5.37893718 4.77074358,5.30628995 C4.34369732,5.16531974 4,4.65419462 4,4.15171798 C4,3.72015886 4.23787226,3.44773177 4.55347443,3.42697542 Z M5.74452145,3 C5.79790223,3 5.86064806,3.00951333 5.90279078,3.02248605 L9.20958981,3.97727815 C9.78460386,4.15457198 10,4.78937035 10,5.13271497 C10,5.41206085 9.89604795,5.73378428 9.57576325,5.84102542 C9.29012924,5.93788839 8.4341637,6.22069366 8.4341637,6.22069366 C8.40325904,6.28901665 8.35268777,6.41701414 8.35268777,6.69981941 L8.35233321,6.895956 C8.3522253,6.94087352 8.35209812,6.99061118 8.35195938,7.0432281 L8.35104985,7.3779539 C8.35043322,7.60343601 8.34987825,7.81287868 8.34987825,7.88206652 C8.34987825,8.25308628 8.15602173,8.59124181 7.78329275,8.59124181 C7.6231504,8.59124181 7.43865892,8.52118913 7.29443716,8.39319164 L7.29443716,7.08121734 C7.29443716,6.73181878 7.40026222,6.42912201 7.67746769,6.33571843 L8.86027346,5.94653687 C8.89024162,5.87821388 8.94549541,5.74156791 8.94081289,5.54870682 C8.92676531,4.88536847 8.53249672,4.40364818 7.98838734,4.23846222 L4.74714366,3.30269677 L5.59280764,3.02335089 C5.63775988,3.00778363 5.69488668,3 5.74452145,3 Z" id="Combined-Shape" fill="#F76252"></path>
                <circle id="Oval" stroke="#222222" cx="12.5" cy="11.5" r="4.5"></circle>
                <path d="M10,12 C10,13.1045695 11.1192881,14 12.5,14 C13.8807119,14 15,13.1045695 15,12" id="Path" stroke="#222222" stroke-linecap="round" stroke-linejoin="round"></path>
            </g>
        </g>
    </g>
</svg>