<?xml version="1.0" encoding="UTF-8"?>
<svg width="24px" height="24px" viewBox="0 0 24 24" version="1.1" xmlns="http://www.w3.org/2000/svg" xmlns:xlink="http://www.w3.org/1999/xlink">
    <title>Slice</title>
    <g id="Page-1" stroke="none" stroke-width="1" fill="none" fill-rule="evenodd">
        <g id="icon_watch">
            <rect id="Rectangle" x="0" y="0" width="24" height="24"></rect>
            <path d="M11,8 C12.311419,8 13.3869956,9.0097613 13.4916511,10.2942051 C12.0296718,10.8902867 11,12.324897 11,14 C11,14.7078062 11.1838419,15.3726738 11.5063804,15.9494575 C11.3436151,15.9822484 11.1738806,16 11,16 L8,16 C6.61928813,16 5.5,14.8807119 5.5,13.5 L5.5,10.5 C5.5,9.11928813 6.61928813,8 8,8 L11,8 Z" id="Combined-Shape" fill="#FD7D6F"></path>
            <g id="watch" transform="translate(4.000000, 2.000000)">
                <path d="M11.5,7.5 C13.9852814,7.5 16,9.51471863 16,12 C16,14.4852814 13.9852814,16.5 11.5,16.5 C9.01471863,16.5 7,14.4852814 7,12 C7,9.51471863 9.01471863,7.5 11.5,7.5 Z M11.5,8.5 C9.56700338,8.5 8,10.0670034 8,12 C8,13.9329966 9.56700338,15.5 11.5,15.5 C13.4329966,15.5 15,13.9329966 15,12 C15,10.0670034 13.4329966,8.5 11.5,8.5 Z" id="Oval" fill="#222222" fill-rule="nonzero"></path>
                <path d="M6.76270593,0.5 C7.11253361,0.5 7.43913041,0.620924458 7.69775786,0.827107037 C7.95638531,1.03328962 8.14704341,1.32473032 8.22499369,1.6657628 L8.22499369,1.6657628 L8.87281934,4.5 L2.12718066,4.5 L2.77500631,1.6657628 C2.85295659,1.32473032 3.04361469,1.03328962 3.30224214,0.827107037 C3.56086959,0.620924458 3.88746639,0.5 4.23729407,0.5 L4.23729407,0.5 Z" id="Rectangle" stroke="#222222"></path>
                <path d="M6.76270593,15.5 C7.11253361,15.5 7.43913041,15.6209245 7.69775786,15.827107 C7.95638531,16.0332896 8.14704341,16.3247303 8.22499369,16.6657628 L8.22499369,16.6657628 L8.87281934,19.5 L2.12718066,19.5 L2.77500631,16.6657628 C2.85295659,16.3247303 3.04361469,16.0332896 3.30224214,15.827107 C3.56086959,15.6209245 3.88746639,15.5 4.23729407,15.5 L4.23729407,15.5 Z" id="Rectangle" stroke="#222222" transform="translate(5.500000, 17.500000) scale(1, -1) translate(-5.500000, -17.500000) "></path>
                <path d="M7.5,15.5 L7,15.5 L3.5,15.5 C1.56700338,15.5 0,13.9329966 0,12 L0,8 C0,6.06700338 1.56700338,4.5 3.5,4.5 L7.5,4.5 C9.43299662,4.5 11,6.06700338 11,8" id="Path" stroke="#222222"></path>
                <g id="화살표" transform="translate(9.500000, 10.000000)">
                    <rect id="Rectangle" fill="#222222" x="1.5" y="0" width="1" height="4" rx="0.5"></rect>
                    <polyline id="Path-2" stroke="#222222" stroke-linecap="round" stroke-linejoin="round" points="1.76783047e-13 2 2 4 4 2"></polyline>
                </g>
            </g>
        </g>
    </g>
</svg>