<?xml version="1.0" encoding="UTF-8"?>
<svg width="24px" height="24px" viewBox="0 0 24 24" version="1.1" xmlns="http://www.w3.org/2000/svg" xmlns:xlink="http://www.w3.org/1999/xlink">
    <title>Slice</title>
    <defs>
        <linearGradient x1="50%" y1="0%" x2="50%" y2="100%" id="linearGradient-1">
            <stop stop-color="#FE8578" offset="0%"></stop>
            <stop stop-color="#FD7768" offset="100%"></stop>
        </linearGradient>
    </defs>
    <g id="Page-1" stroke="none" stroke-width="1" fill="none" fill-rule="evenodd">
        <g id="MY/Do/shield">
            <polygon id="Rectangle" fill-opacity="0" fill="#D3D3D3" points="0 0 24 0 24 24 0 24"></polygon>
            <path d="M8,6.2 L13,6.2 C13.5522847,6.2 14,6.64771525 14,7.2 L14,8.59661255 C13.041125,8.86232346 12.4525787,9.23489732 12.2343612,9.71433411 C12.0677475,10.0803945 11.9828054,10.8036352 11.9795351,11.8840564 L11.9838249,12.4080742 C11.9855064,12.4996375 11.9876712,12.5933143 11.9903192,12.6891046 C11.9957016,12.8845418 12.0582743,13.074108 12.1702778,13.2343575 L13.5441284,15.2 L8,15.2 C7.44771525,15.2 7,14.7522847 7,14.2 L7,7.2 C7,6.64771525 7.44771525,6.2 8,6.2 Z" id="Rectangle" fill="url(#linearGradient-1)"></path>
            <path d="M14.5,4.15 C15.2796961,4.15 15.9204487,4.74488808 15.9931334,5.50553999 L16,5.65 L15.9997225,7.094 L17.5351247,7.87400688 L19.2236298,8.71836805 C19.3930092,8.80306863 19.5,8.97619338 19.5,9.16557014 L19.5,9.16557014 L19.5,12.1764543 C19.5,13.6334077 18.2389349,15.1555506 15.7797333,16.8154844 L15.9997225,16.664 L16,18.3937134 C16,19.1734095 15.4051119,19.8141621 14.64446,19.8868468 C14.1373587,19.9353033 14.0892054,19.9375922 14.5,19.8937134 L6.5,19.8937134 C5.8664969,19.8937134 5.32471827,19.5009943 5.10483645,18.9457285 L5.08672246,18.891 L5.14896267,18.8920023 L5.14896267,18.8920023 L5.80985692,18.8929539 C5.86139004,18.8930173 5.91441787,18.8930806 5.96894039,18.8931439 L6.5,18.8937134 L6.5,18.8937134 C9.16661047,18.8963687 11.8332771,18.8963687 14.5,18.8937134 C14.7454599,18.8937134 14.9496084,18.7168382 14.9919443,18.483589 C14.9925631,18.6449932 14.993177,18.7690503 14.993786,18.8557604 L14.9946957,18.9578153 C14.9957529,19.0442007 14.996795,19.0162108 14.9978221,18.8738457 L14.9986987,18.7238081 C14.9991353,18.6347843 14.999569,18.5247527 15,18.3937134 C15.0020756,17.7626557 15.0024852,17.1864895 15.001229,16.6652146 C12.6858052,15.0633722 11.5,13.5892637 11.5,12.1764543 L11.5,12.1764543 L11.5,9.16557014 C11.5,8.97678044 11.6063353,8.80408753 11.7749135,8.71909948 L11.7749135,8.71909948 L14.9997225,7.093 L15,5.65 C15,5.40454011 14.8231248,5.20039163 14.5898756,5.15805567 L14.5,5.15 L6.5,5.15 C6.25454011,5.15 6.05039163,5.32687516 6.00805567,5.56012437 L6,5.65 L6,18.3937134 C6,18.6391733 6.17687516,18.8433217 6.41012437,18.8856577 C6.28599611,18.885787 6.16784666,18.8859162 6.05567601,18.8860454 L5.45439773,18.8868195 C5.41027001,18.8868839 5.36763699,18.8869484 5.32649867,18.8870128 L5.08472246,18.887 L5.0599134,18.8148095 C5.03391382,18.7257463 5.01595217,18.6332549 5.00686658,18.5381734 C4.98609951,18.3208443 4.97381221,18.1878117 4.97000468,18.1390757 L4.96872246,18.121 L4.97369598,18.1539991 C4.9786952,18.1964387 4.98746321,18.2763435 5,18.3937134 L5,5.65 C5,4.87030388 5.59488808,4.22955132 6.35553999,4.15686658 L6.5,4.15 L14.5,4.15 Z M11.28125,16.85 C11.5573924,16.85 11.78125,17.0738576 11.78125,17.35 C11.78125,17.5954599 11.6043748,17.7996084 11.3711256,17.8419443 L11.28125,17.85 L9.7,17.85 C9.42385763,17.85 9.2,17.6261424 9.2,17.35 C9.2,17.1045401 9.37687516,16.9003916 9.61012437,16.8580557 L9.7,16.85 L11.28125,16.85 Z M15.499,7.961 L12.499,9.474 L12.5,12.1764543 C12.5,13.1202853 13.4075678,14.291253 15.2717052,15.6328237 L15.2717052,15.6328237 L15.5,15.794 L15.7282948,15.6328237 C17.5113827,14.3495822 18.4192728,13.2224311 18.4948491,12.3008461 L18.4948491,12.3008461 L18.5,12.1764543 L18.499,9.473 L17.0850569,8.76699576 L15.499,7.961 Z" id="Combined-Shape" fill="#222222" fill-rule="nonzero"></path>
            <path d="M16.5465381,10.4982311 C16.7432822,10.3044622 17.0598555,10.3068741 17.2536243,10.5036182 C17.4258634,10.6785018 17.4430954,10.9480653 17.3066186,11.1418993 L17.2482373,11.2107044 L15.4884717,12.9438587 C15.3145294,13.1151706 15.0467032,13.1332586 14.8529331,12.9987626 L14.7840687,12.9411755 L13.8464466,12.0035534 C13.6511845,11.8082912 13.6511845,11.4917088 13.8464466,11.2964466 C14.020013,11.1228803 14.2894374,11.1035951 14.4843055,11.2385912 L14.5535534,11.2964466 L15.14,11.883 L16.5465381,10.4982311 Z" id="Path-2" fill="#222222" fill-rule="nonzero"></path>
        </g>
    </g>
</svg>