<?xml version="1.0" encoding="UTF-8"?>
<svg width="24px" height="24px" viewBox="0 0 24 24" version="1.1" xmlns="http://www.w3.org/2000/svg" xmlns:xlink="http://www.w3.org/1999/xlink">
    <title>Slice</title>
    <g id="Page-1" stroke="none" stroke-width="1" fill="none" fill-rule="evenodd">
        <g id="Group">
            <rect id="Rectangle" x="0" y="0" width="24" height="24"></rect>
            <g id="Group-2" transform="translate(3.000000, 3.000000)">
                <g id="Group" transform="translate(0.000000, 5.000000)">
                    <path d="M0.882643106,6 C2.14575858,8.3658376 4.63531934,10 7.5,10 C10.3760415,10 8.74165498,8.38115672 10,6.00496438" id="Path" fill="#FE7C6E"></path>
                    <path d="M10.020959,0.505102228 L10.1087043,0.526156225 C10.3413236,0.604506894 10.4783341,0.837293371 10.4440024,1.07185436 L10.4229484,1.15959974 L10.1236741,2.04786376 L10.4903259,2.04847548 C10.7664683,2.04847548 10.9903259,2.2723331 10.9903259,2.54847548 C10.9903259,2.79393537 10.8134508,2.99808385 10.5802016,3.04041981 L10.4903259,3.04847548 L9.78667407,3.04786376 L9.23388406,4.68987318 C9.09586667,5.09964002 8.55304462,5.14304408 8.33863735,4.80063926 L8.29532233,4.71476524 L7.534,2.797 L6.7900968,4.71158071 C6.63423979,5.11214174 6.09422638,5.13330755 5.89326593,4.78525963 L5.85323831,4.69839143 L5.26367407,3.04786376 L4.50967407,3.04847548 C4.2335317,3.04847548 4.00967407,2.82461785 4.00967407,2.54847548 C4.00967407,2.30301559 4.18654923,2.09886711 4.41979844,2.05653115 L4.50967407,2.04847548 L4.90667407,2.04786376 L4.59285081,1.16811799 C4.50000181,0.908053238 4.63555695,0.621960116 4.8956217,0.529111115 C5.12679037,0.44657867 5.37852467,0.5445137 5.49682251,0.749947745 L5.53462858,0.831882012 L6.344,3.099 L7.06387317,1.25021128 C7.21683682,0.85708634 7.74367326,0.827240702 7.95236389,1.16304224 L7.99456073,1.24702675 L8.721,3.078 L9.47526083,0.84040026 C9.55361149,0.607780979 9.78639797,0.470770464 10.020959,0.505102228 Z" id="Combined-Shape" fill="#222222" fill-rule="nonzero"></path>
                </g>
                <path d="M13.5,9 C15.9852814,9 18,11.0147186 18,13.5 C18,15.9852814 15.9852814,18 13.5,18 C11.0147186,18 9,15.9852814 9,13.5 C9,11.0147186 11.0147186,9 13.5,9 Z M13.5,10 C11.5670034,10 10,11.5670034 10,13.5 C10,15.4329966 11.5670034,17 13.5,17 C15.4329966,17 17,15.4329966 17,13.5 C17,11.5670034 15.4329966,10 13.5,10 Z" id="Oval" fill="#222222" fill-rule="nonzero"></path>
                <line x1="16.5" y1="10.5" x2="11" y2="16" id="Path-3" stroke="#222222"></line>
                <path d="M14.5671024,10.0172849 C14.8473889,9.23045808 15,8.38305116 15,7.5 C15,3.35786438 11.6421356,0 7.5,0 C3.35786438,0 0,3.35786438 0,7.5 C0,11.6421356 3.35786438,15 7.5,15 C8.2521142,15 8.97837098,14.8892912 9.66336333,14.6832806" id="Path" stroke="#222222" fill-rule="nonzero"></path>
            </g>
        </g>
    </g>
</svg>