<svg xmlns="http://www.w3.org/2000/svg" width="26" height="24" viewBox="0 0 26 24">
  <g fill="none" fill-rule="evenodd" transform="translate(-4 -5)">
    <polygon points="0 0 34 0 34 34 0 34"/>
    <path fill="#222" fill-rule="nonzero" d="M14.7024439,6.71511077 L5.19889263,24.7598995 C4.99441351,25.1481525 4.8875,25.5820225 4.8875,26.0225887 C4.8875,27.4904337 6.05141217,28.6875 7.4962598,28.6875 L26.5033622,28.6875 C26.9400198,28.6875 27.3694884,28.5755561 27.7524928,28.3621858 C29.0141125,27.6593425 29.479621,26.0489392 28.8007294,24.7598995 L19.2971782,6.71511077 C19.0576538,6.26031586 18.6936602,5.88595391 18.2489416,5.63820289 C16.9769657,4.92959012 15.3867289,5.4158302 14.7024439,6.71511077 Z M17.6284361,6.75202421 C17.8562505,6.8789387 18.0443053,7.07235031 18.1690697,7.30924558 L27.6726209,25.3540343 C28.0307851,26.0340957 27.7849322,26.8846115 27.1319873,27.2483645 C26.9383911,27.3562162 26.7224604,27.4125 26.5033622,27.4125 L7.4962598,27.4125 C6.76371397,27.4125 6.1625,26.7941604 6.1625,26.0225887 C6.1625,25.78872 6.21915492,25.5588064 6.32700115,25.3540343 L15.8305524,7.30924558 C16.1625719,6.67882628 16.892989,6.42437797 17.513502,6.69507755 L17.6284361,6.75202421 Z"/>
    <path fill="#222" d="M17,22.0633728 C17.3520815,22.0633728 17.6375,22.3487913 17.6375,22.7008728 C17.6375,23.0529543 17.3520815,23.3383728 17,23.3383728 C16.6479185,23.3383728 16.3625,23.0529543 16.3625,22.7008728 C16.3625,22.3487913 16.6479185,22.0633728 17,22.0633728 Z"/>
    <path fill="#222" fill-rule="nonzero" d="M17,14.2375 C17.3227414,14.2375 17.5894673,14.4773308 17.6316804,14.788495 L17.6375,14.875 L17.6375,19.9563232 C17.6375,20.3084048 17.3520815,20.5938232 17,20.5938232 C16.6772586,20.5938232 16.4105327,20.3539924 16.3683196,20.0428282 L16.3625,19.9563232 L16.3625,14.875 C16.3625,14.5229185 16.6479185,14.2375 17,14.2375 Z"/>
  </g>
</svg>
