<svg xmlns="http://www.w3.org/2000/svg" width="16" height="16" viewBox="0 0 16 16">
  <defs>
    <linearGradient id="icon16_12-a" x1="50%" x2="50%" y1="0%" y2="100%">
      <stop offset="0%" stop-color="#744CD8"/>
      <stop offset="100%" stop-color="#47269A"/>
    </linearGradient>
  </defs>
  <g fill="none" fill-rule="evenodd">
    <rect width="16" height="16" fill="url(#icon16_12-a)" rx="4"/>
    <path fill="#FFF" fill-rule="nonzero" d="M7.9,3.7 C10.2748244,3.7 12.2,5.62517558 12.2,8 C12.2,10.3748244 10.2748244,12.3 7.9,12.3 C5.52517558,12.3 3.6,10.3748244 3.6,8 C3.6,5.62517558 5.52517558,3.7 7.9,3.7 Z M7.9,4.3 C5.85654643,4.3 4.2,5.95654643 4.2,8 C4.2,10.0434536 5.85654643,11.7 7.9,11.7 C9.94345357,11.7 11.6,10.0434536 11.6,8 C11.6,5.95654643 9.94345357,4.3 7.9,4.3 Z M7.88111378,4.9 C9.5931965,4.9 10.9811138,6.28791728 10.9811138,8 C10.9811138,9.71208272 9.5931965,11.1 7.88111378,11.1 C7.33784212,11.1 6.81426567,10.9598143 6.35180821,10.6970803 C6.20784257,10.6152897 6.1573624,10.4323274 6.23901997,10.2882863 L7.20873966,8.57636733 C7.07841794,8.42023648 7,8.21927598 7,8 C7,7.6150755 7.24164865,7.28659107 7.58151889,7.15797377 L7.58111378,5.2 C7.58111378,5.03431458 7.71542836,4.9 7.88111378,4.9 Z M8.1808,5.518 L8.18208736,7.14509327 C8.54097029,7.26344489 8.8,7.60147263 8.8,8 C8.8,8.49705627 8.39705627,8.9 7.9,8.9 C7.8400165,8.9 7.78140356,8.89413191 7.72470394,8.88293847 L6.9176,10.3068 L6.99595123,10.3388847 C7.23544298,10.4295785 7.48909648,10.4831676 7.75005658,10.4966279 L7.88111378,10.5 C9.26182565,10.5 10.3811138,9.38071187 10.3811138,8 C10.3811138,6.74201807 9.45196645,5.70105013 8.2425044,5.52592877 L8.1808,5.518 Z M7.9,7.7 C7.73431458,7.7 7.6,7.83431458 7.6,8 C7.6,8.16568542 7.73431458,8.3 7.9,8.3 C8.06568542,8.3 8.2,8.16568542 8.2,8 C8.2,7.83431458 8.06568542,7.7 7.9,7.7 Z"/>
  </g>
</svg>
