<svg xmlns="http://www.w3.org/2000/svg" xmlns:xlink="http://www.w3.org/1999/xlink" width="16" height="16" viewBox="0 0 16 16">
  <defs>
    <linearGradient id="icon16_07-b" x1="50%" x2="50%" y1="0%" y2="100%">
      <stop offset="0%" stop-color="#FF723D" stop-opacity="0"/>
      <stop offset="100%" stop-color="#FB8134"/>
    </linearGradient>
    <rect id="icon16_07-a" width="16" height="16" x="0" y="0" rx="4"/>
  </defs>
  <g fill="none" fill-rule="evenodd">
    <use fill="#DDA953" xlink:href="#icon16_07-a"/>
    <use fill="url(#icon16_07-b)" xlink:href="#icon16_07-a"/>
    <path stroke="#FFF" stroke-width=".5" d="M4.33563616,6.7572123 L7.33563616,4.09054563 C7.71452218,3.75375806 8.28547782,3.75375806 8.66436384,4.09054563 L11.6643638,6.7572123 C11.8778522,6.94697974 12,7.21898381 12,7.50462162 L12,10.5 C12,11.0522847 11.5522847,11.5 11,11.5 L5,11.5 C4.44771525,11.5 4,11.0522847 4,10.5 L4,7.50462162 C4,7.21898381 4.1221478,6.94697974 4.33563616,6.7572123 Z"/>
    <path fill="#FFF" fill-rule="nonzero" d="M6.74660952,8.53867574 L7.31966403,8.61590273 C7.36772044,8.62237899 7.40318116,8.67079266 7.39886777,8.72403769 C7.39679641,8.74960685 7.38564238,8.77289332 7.36785945,8.78877434 L7.22196709,8.91783761 C7.76346579,9.43919911 8.56000722,9.40060482 9.06374633,8.80205473 C9.14066901,8.7106541 9.26538531,8.7106541 9.34230799,8.80205473 C9.41923067,8.89345537 9.41923067,9.04164508 9.34230799,9.13304571 C8.67130556,9.93034048 7.59622358,9.95487263 6.90035471,9.20664215 L6.74336938,9.34647412 C6.70633834,9.37954463 6.65124423,9.37211994 6.62031324,9.32989061 C6.60545966,9.30961137 6.59827868,9.28385401 6.60035004,9.25828484 L6.6517856,8.62335807 C6.65609899,8.57011305 6.6985531,8.53219947 6.74660952,8.53867574 Z M9.09964529,7.29335785 L9.25663062,7.15352588 C9.29366166,7.12045537 9.34875577,7.12788006 9.37968676,7.17010939 C9.39454034,7.19038863 9.40172132,7.21614599 9.39964996,7.24171516 L9.3482144,7.87664193 C9.34390101,7.92988695 9.3014469,7.96780053 9.25339048,7.96132426 L8.68033597,7.88409727 C8.63227956,7.87762101 8.59681884,7.82920734 8.60113223,7.77596231 C8.60320359,7.75039315 8.61435762,7.72710668 8.63214055,7.71122566 L8.77803291,7.58216239 C8.23653421,7.06080089 7.43999278,7.09939518 6.93625367,7.69794527 C6.85933099,7.7893459 6.73461469,7.7893459 6.65769201,7.69794527 C6.58076933,7.60654463 6.58076933,7.45835492 6.65769201,7.36695429 C7.32869444,6.56965952 8.40377642,6.54512737 9.09964529,7.29335785 Z"/>
  </g>
</svg>
