<svg xmlns="http://www.w3.org/2000/svg" xmlns:xlink="http://www.w3.org/1999/xlink" width="16" height="16" viewBox="0 0 16 16">
  <defs>
    <linearGradient id="icon16_03-a" x1="0%" x2="112.506%" y1="0%" y2="108.716%">
      <stop offset="0%" stop-color="#F77184"/>
      <stop offset="100%" stop-color="#EF8B4A"/>
    </linearGradient>
    <polygon id="icon16_03-b" points=".264 .032 4.43 .032 4.43 4.834 .264 4.834"/>
    <polygon id="icon16_03-d" points="-.329 .398 2.531 .398 2.531 5.185 -.329 5.185"/>
  </defs>
  <g fill="none" fill-rule="evenodd">
    <rect width="16" height="16" fill="url(#icon16_03-a)" rx="4"/>
    <path fill="#FFF" fill-rule="nonzero" d="M4.24376,12.0447552 C4.739264,12.0447552 5.0014016,11.7858144 5.0014016,11.4501504 C5.0014016,11.12088 4.7488544,10.9898112 4.5218816,10.9034976 C4.3332704,10.8363648 4.1670368,10.7948064 4.1670368,10.6861152 C4.1670368,10.5998016 4.2309728,10.5550464 4.3588448,10.5550464 C4.4803232,10.5550464 4.6081952,10.6189824 4.7360672,10.7084928 L4.9918112,10.369632 C4.8319712,10.2513504 4.627376,10.1362656 4.339664,10.1362656 C3.9176864,10.1362656 3.636368,10.369632 3.636368,10.7148864 C3.636368,11.0153856 3.892112,11.1624384 4.1094944,11.248752 C4.2949088,11.3222784 4.4707328,11.3734272 4.4707328,11.4821184 C4.4707328,11.5716288 4.4067968,11.6259744 4.2565472,11.6259744 C4.1126912,11.6259744 3.9624416,11.5620384 3.796208,11.4341664 L3.5436608,11.7890112 C3.7258784,11.9424576 4.0071968,12.0447552 4.24376,12.0447552 Z M5.8965056,12 L5.8965056,10.785216 C6.0083936,10.6797216 6.0851168,10.6221792 6.2129888,10.6221792 C6.3568448,10.6221792 6.4239776,10.6957056 6.4239776,10.945056 L6.4239776,12 L6.993008,12 L6.993008,10.8747264 C6.993008,10.4207808 6.8235776,10.1362656 6.4271744,10.1362656 C6.1810208,10.1362656 6.002,10.2609408 5.8709312,10.3824192 L5.8965056,10.0595424 L5.8965056,9.4457568 L5.330672,9.4457568 L5.330672,12 L5.8965056,12 Z M7.8945056,12.0447552 C8.095904,12.0447552 8.2653344,11.952048 8.415584,11.8177824 L8.4283712,11.8177824 L8.4699296,12 L8.9334656,12 L8.9334656,10.9674336 C8.9334656,10.3984032 8.6681312,10.1362656 8.1982016,10.1362656 C7.9136864,10.1362656 7.6547456,10.2321696 7.4149856,10.3760256 L7.6131872,10.7500512 C7.7954048,10.6477536 7.9456544,10.5902112 8.0895104,10.5902112 C8.2749248,10.5902112 8.351648,10.6765248 8.3644352,10.8235776 C7.6547456,10.9003008 7.3542464,11.1080928 7.3542464,11.4917088 C7.3542464,11.7954048 7.5588416,12.0447552 7.8945056,12.0447552 Z M8.0895104,11.6035968 C7.9712288,11.6035968 7.8945056,11.552448 7.8945056,11.4469536 C7.8945056,11.3190816 8.0095904,11.216784 8.3644352,11.168832 L8.3644352,11.4597408 C8.2813184,11.5492512 8.2045952,11.6035968 8.0895104,11.6035968 Z M9.9372608,12 L9.9372608,10.96104 C10.0331648,10.72128 10.1962016,10.6349664 10.3304672,10.6349664 C10.4103872,10.6349664 10.4647328,10.6477536 10.5286688,10.6637376 L10.6245728,10.1746272 C10.573424,10.1522496 10.5126848,10.1362656 10.4039936,10.1362656 C10.221776,10.1362656 10.0203776,10.2545472 9.886112,10.497504 L9.8733248,10.497504 L9.8349632,10.1810208 L9.3714272,10.1810208 L9.3714272,12 L9.9372608,12 Z M11.67632,12.0447552 C11.8905056,12.0447552 12.139856,11.9712288 12.3284672,11.8369632 L12.139856,11.4949056 C12.0087872,11.5716288 11.8873088,11.6099904 11.75624,11.6099904 C11.5260704,11.6099904 11.3534432,11.5076928 11.3022944,11.2583424 L12.3700256,11.2583424 C12.3828128,11.216784 12.3956,11.1144864 12.3956,11.0153856 C12.3956,10.5166848 12.139856,10.1362656 11.6155808,10.1362656 C11.1744224,10.1362656 10.7524448,10.5007008 10.7524448,11.0921088 C10.7524448,11.6931072 11.1552416,12.0447552 11.67632,12.0447552 Z M11.9128832,10.8875136 L11.292704,10.8875136 C11.3310656,10.6701312 11.468528,10.5710304 11.6251712,10.5710304 C11.8329632,10.5710304 11.9128832,10.705296 11.9128832,10.8875136 Z"/>
    <g transform="translate(6 3.4)">
      <mask id="icon16_03-c" fill="#fff">
        <use xlink:href="#icon16_03-b"/>
      </mask>
      <path fill="#FEFEFE" d="M2.2843177,4.66410456 L2.2843177,3.53742958 C2.2843177,3.23738902 2.36810873,2.97729987 2.58818167,2.89729985 L3.52676427,2.562881 C3.55035277,2.50403935 3.59393317,2.38651806 3.59053099,2.22136615 C3.57893115,1.65128909 3.26612428,1.23761546 2.83466207,1.09608445 L0.264195817,0.29209888 L0.934750823,0.0520664334 C0.970781611,0.0394621378 1.01556088,0.032398548 1.05528547,0.032398548 C1.0974726,0.032398548 1.14730655,0.0407906111 1.18045358,0.0516776119 L3.80328113,0.87141045 C4.25975752,1.02350444 4.42996411,1.56911815 4.42996411,1.86413644 C4.42996411,2.10365045 4.348182,2.3799729 4.09366595,2.47257721 C3.86733946,2.55497496 3.18813318,2.79818278 3.18813318,2.79818278 C3.16341062,2.85676522 3.12407484,2.96719051 3.12407484,3.20965309 C3.12407484,3.34774951 3.12187152,4.09146775 3.12187152,4.22473631 C3.12187152,4.54405593 2.96796303,4.83405193 2.67265313,4.83405193 C2.54486048,4.83405193 2.39908483,4.77443264 2.2843177,4.66410456" mask="url(#icon16_03-c)"/>
      <mask id="icon16_03-e" fill="#fff">
        <use xlink:href="#icon16_03-d"/>
      </mask>
      <path fill="#FEFEFE" d="M1.61188663,2.10363425 C1.74687248,2.30860796 1.81514305,2.56681781 1.81514305,2.78552988 L1.81514305,3.73056044 C1.81514305,4.31557472 2.08556837,4.79239944 2.53112536,4.92842214 L1.84346221,5.16576524 C1.70591662,5.2139791 1.57073636,5.16440437 1.48914866,5.11194587 C1.1547298,4.89718682 0.978204861,4.56503609 0.978204861,4.05386548 C0.978204861,3.81363862 0.976519968,3.48505209 0.976519968,3.06204674 C0.976519968,2.82039421 0.87400071,2.53904948 0.71526435,2.33070598 C0.596090573,2.17375172 0.458447777,2.0755419 0.282927291,2.01287684 C-0.0554121807,1.89218018 -0.328526853,1.45300635 -0.328526853,1.02154414 C-0.328526853,0.650608465 -0.139883642,0.416861965 0.111003403,0.398943776 C0.165179193,0.395087964 0.210930518,0.404938107 0.254478521,0.418287644 C0.403364738,0.463682549 0.523640175,0.505059633 0.523640175,0.505059633 C0.440432383,0.934059308 0.690638991,1.59230163 1.19539405,1.77051147 C1.39330417,1.84062894 1.51046903,1.94953135 1.61188663,2.10363425" mask="url(#icon16_03-e)"/>
    </g>
  </g>
</svg>
