<svg xmlns="http://www.w3.org/2000/svg" xmlns:xlink="http://www.w3.org/1999/xlink" width="16" height="16" viewBox="0 0 16 16">
  <defs>
    <linearGradient id="icon16_08-a" x1="50%" x2="50%" y1="0%" y2="100%">
      <stop offset="0%" stop-color="#464646"/>
      <stop offset="100%" stop-color="#040404"/>
    </linearGradient>
    <rect id="icon16_08-b" width="16" height="16" x="0" y="0" rx="4"/>
  </defs>
  <g fill="none" fill-rule="evenodd">
    <use fill="url(#icon16_08-a)" xlink:href="#icon16_08-b"/>
    <g transform="translate(5 4.022)">
      <path stroke="#FFF" stroke-linecap="round" stroke-linejoin="round" stroke-width=".5" d="M6,1.2625 L6,4.625 C6,6.4875 3,8 3,8 C3,8 0,6.4875 0,4.625 L0,1.2625 C1.91653846,1.2625 3,0 3,0 C3,0 4.089,1.2625 6,1.2625 Z"/>
      <path fill="#FFF" fill-rule="nonzero" d="M3,2.75 C3.11834673,2.75 3.21748682,2.83223341 3.24339732,2.94267729 L3.25,3 L3.25083464,3.74978907 L4,3.75 C4.13807119,3.75 4.25,3.86192881 4.25,4 C4.25,4.11834673 4.16776659,4.21748682 4.05732271,4.24339732 L4,4.25 L3.25083464,4.24978907 L3.25,5 C3.25,5.13807119 3.13807119,5.25 3,5.25 C2.88165327,5.25 2.78251318,5.16776659 2.75660268,5.05732271 L2.75,5 L2.75083464,4.24978907 L2,4.25 C1.86192881,4.25 1.75,4.13807119 1.75,4 C1.75,3.88165327 1.83223341,3.78251318 1.94267729,3.75660268 L2,3.75 L2.75083464,3.74978907 L2.75,3 C2.75,2.86192881 2.86192881,2.75 3,2.75 Z"/>
    </g>
  </g>
</svg>
