<svg xmlns="http://www.w3.org/2000/svg" width="16" height="16" viewBox="0 0 16 16">
  <defs>
    <linearGradient id="icon16_02-a" x1="50%" x2="50%" y1="0%" y2="100%">
      <stop offset="0%" stop-color="#466ADE"/>
      <stop offset="100%" stop-color="#2144B4"/>
    </linearGradient>
  </defs>
  <g fill="none" fill-rule="evenodd">
    <rect width="16" height="16" fill="url(#icon16_02-a)" rx="4"/>
    <path fill="#FFF" fill-rule="nonzero" d="M8.46492096,10.9 C8.6385325,10.9 8.77927246,11.0343146 8.77927246,11.2 C8.77927246,11.3518783 8.6610118,11.4773964 8.5075766,11.4972614 L8.46492096,11.5 L7.59362396,11.5 C7.42001242,11.5 7.27927246,11.3656854 7.27927246,11.2 C7.27927246,11.0481217 7.39753312,10.9226036 7.55096832,10.9027386 L7.59362396,10.9 L8.46492096,10.9 Z"/>
    <rect width="5.5" height="8.5" x="5.25" y="3.75" stroke="#FFF" stroke-width=".5" rx="1"/>
    <path fill="#FFF" d="M6.85828807,6.2992552 C6.89019167,6.29723722 6.91728788,6.30248396 6.94307298,6.30974868 C7.03048011,6.33436802 7.10127989,6.35696938 7.10127989,6.35696938 C7.0523319,6.5898441 7.19961291,6.94783348 7.49636012,7.04429285 C7.61304864,7.08263444 7.68210027,7.14155941 7.74153712,7.22550732 C7.82107761,7.33689973 7.86128488,7.47735103 7.86128488,7.59600817 L7.86128488,8.1093819 C7.86128488,8.4274153 8.02036586,8.68652374 8.28258725,8.76038175 L7.87789224,8.88953238 C7.79704064,8.9153625 7.71750016,8.88872519 7.66942623,8.86006989 C7.47276019,8.74343073 7.36874571,8.56302346 7.36874571,8.28494602 L7.36800821,7.90922365 C7.36792627,7.8581688 7.36787164,7.80396085 7.36787164,7.74654936 C7.36787164,7.61497717 7.30756072,7.4620144 7.21403509,7.3490076 C7.14410938,7.26344531 7.06282075,7.21017068 6.95968034,7.17626864 C6.76039208,7.11048255 6.6,6.87195749 6.6,6.63746839 C6.6,6.43607414 6.71100706,6.30894149 6.85828807,6.2992552 Z M7.41411001,6.1 C7.43902104,6.1 7.46830243,6.10443955 7.48796903,6.11049349 L9.03114191,6.55606314 C9.2994818,6.63880026 9.4,6.9350395 9.4,7.09526699 C9.4,7.2256284 9.35148904,7.375766 9.20202285,7.42581186 C9.06872698,7.47101458 8.66927639,7.60299037 8.66927639,7.60299037 C8.65485422,7.63487443 8.63125429,7.6946066 8.63125429,7.82658239 C8.63125429,7.85160532 8.63110861,7.91317609 8.63091438,7.98683978 L8.6300403,8.31741829 C8.62997961,8.34487774 8.62994319,8.36618984 8.62994319,8.37829771 C8.62994319,8.55144026 8.53947681,8.70924618 8.36553662,8.70924618 C8.29080352,8.70924618 8.2047075,8.67655493 8.13740401,8.61682276 L8.13740401,8.00456809 C8.13740401,7.84151543 8.18678904,7.70025694 8.31615159,7.6566686 L8.86812761,7.47505054 C8.88211276,7.44316648 8.90789786,7.37939836 8.90571268,7.28939652 C8.89915715,6.97983862 8.71516514,6.75503582 8.46124742,6.67794904 L6.94866704,6.24125849 L7.34331023,6.11089708 C7.36428794,6.10363236 7.39094712,6.1 7.41411001,6.1 Z"/>
  </g>
</svg>
