<?xml version="1.0" encoding="UTF-8"?>
<svg width="10px" height="10px" viewBox="0 0 10 10" version="1.1" xmlns="http://www.w3.org/2000/svg" xmlns:xlink="http://www.w3.org/1999/xlink">
    <title>Icons/refresh_16px</title>
    <g id="필터" stroke="none" stroke-width="1" fill="none" fill-rule="evenodd">
        <g id="01_Filter_user_Scroll" transform="translate(-33.000000, -1064.000000)">
            <g id="Bottom" transform="translate(0.000000, 973.000000)">
                <g id="btn_ok" transform="translate(0.000000, 2.000000)">
                    <g id="Group-9" transform="translate(30.000000, 85.000000)">
                        <g id="Group-2" transform="translate(0.000000, 1.000000)">
                            <rect id="Rectangle-Copy" fill-opacity="0" fill="#D8D8D8" x="0" y="0" width="16" height="16"></rect>
                            <path d="M8,3 C9.99153279,3 11.7686348,4.17524121 12.5670499,5.96204911 C12.6797058,6.21416667 12.5666498,6.50987397 12.3145322,6.62252987 C12.0624147,6.73518577 11.7667073,6.62212976 11.6540514,6.37001221 C11.0151448,4.94017503 9.59349026,4 8,4 C5.790861,4 4,5.790861 4,8 C4,10.209139 5.790861,12 8,12 C9.14424283,12 10.2096967,11.5176354 10.963645,10.6864616 C11.2139635,10.4105035 11.4248769,10.1010415 11.5896137,9.76712175 C11.7117876,9.51947653 12.0115852,9.4177619 12.2592304,9.53993578 C12.5068756,9.66210965 12.6085903,9.96190726 12.4864164,10.2095525 C12.2804459,10.6270525 12.0169306,11.0136944 11.7043228,11.358322 C10.7627601,12.3963272 9.42935894,13 8,13 C5.23857625,13 3,10.7614237 3,8 C3,5.23857625 5.23857625,3 8,3 Z" id="Path" fill="#222222" fill-rule="nonzero"></path>
                            <path d="M12.2968969,7.26493508 L10.2076273,6.28066787 C10.0259915,6.19509819 9.94895195,5.98024167 10.0355546,5.8007724 C10.0672759,5.73503552 10.118429,5.68035024 10.1822601,5.64393694 L12.4534741,4.34829157 C12.6277402,4.24887907 12.8505735,4.30787487 12.9511861,4.48006238 C12.9880389,4.54313207 13.0046662,4.61576242 12.9988723,4.68836367 L12.8169279,6.96827624 C12.8011101,7.16648603 12.6256668,7.3144969 12.4250643,7.29886779 C12.3805999,7.29540353 12.3371572,7.28390194 12.2968969,7.26493508 Z" id="Triangle-Copy" fill="#222222"></path>
                        </g>
                    </g>
                </g>
            </g>
        </g>
    </g>
</svg>