<svg xmlns="http://www.w3.org/2000/svg" width="16" height="16" viewBox="0 0 16 16">
  <defs>
    <linearGradient id="icon16_11-a" x1="50%" x2="50%" y1="0%" y2="100%">
      <stop offset="0%" stop-color="#5453DD"/>
      <stop offset="100%" stop-color="#3837A7"/>
    </linearGradient>
  </defs>
  <g fill="none" fill-rule="evenodd">
    <rect width="16" height="16" fill="url(#icon16_11-a)" rx="4"/>
    <rect width="8" height="6" x="4" y="5.056" stroke="#FFF" stroke-width=".5" rx=".5"/>
    <line x1="6.5" x2="6.5" y1="4.556" y2="5.556" stroke="#FFF" stroke-linecap="round" stroke-width=".5"/>
    <line x1="9.5" x2="9.5" y1="4.556" y2="5.556" stroke="#FFF" stroke-linecap="round" stroke-width=".5"/>
    <g fill="#FFF" transform="translate(5.75 6.25)">
      <path d="M1.375.806329872C1.58210678.806329872 1.75.974223091 1.75 1.18132987 1.75 1.38843665 1.58210678 1.55632987 1.375 1.55632987 1.16789322 1.55632987 1 1.38843665 1 1.18132987 1 .974223091 1.16789322.806329872 1.375.806329872zM3.125 2.55632987C3.33210678 2.55632987 3.5 2.72422309 3.5 2.93132987 3.5 3.13843665 3.33210678 3.30632987 3.125 3.30632987 2.91789322 3.30632987 2.75 3.13843665 2.75 2.93132987 2.75 2.72422309 2.91789322 2.55632987 3.125 2.55632987z"/>
      <path fill-rule="nonzero" d="M3.0732233,0.879553176 C3.17085438,0.781922103 3.32914562,0.781922103 3.4267767,0.879553176 C3.50813592,0.960912404 3.52169579,1.08439675 3.46745631,1.17979768 L3.4267767,1.23310657 L1.4267767,3.23310657 C1.32914562,3.33073764 1.17085438,3.33073764 1.0732233,3.23310657 C0.991864077,3.15174734 0.978304206,3.02826299 1.03254369,2.93286206 L1.0732233,2.87955318 L3.0732233,0.879553176 Z"/>
    </g>
  </g>
</svg>
