<svg xmlns="http://www.w3.org/2000/svg" xmlns:xlink="http://www.w3.org/1999/xlink" width="16" height="16" viewBox="0 0 16 16">
  <defs>
    <rect id="icon16_04-a" width="16" height="16" x="0" y="0" rx="4"/>
    <polygon id="icon16_04-c" points=".24 .029 4.027 .029 4.027 4.395 .24 4.395"/>
    <polygon id="icon16_04-e" points="-.299 .362 2.301 .362 2.301 4.714 -.299 4.714"/>
  </defs>
  <g fill="none" fill-rule="evenodd">
    <mask id="icon16_04-b" fill="#fff">
      <use xlink:href="#icon16_04-a"/>
    </mask>
    <use fill="#E40134" xlink:href="#icon16_04-a"/>
    <text fill="#FFF" font-family="Helvetica" font-size="3.197" letter-spacing=".355" mask="url(#icon16_04-b)">
      <tspan x="5.391" y="11">VIP</tspan>
    </text>
    <g mask="url(#icon16_04-b)">
      <g transform="translate(6.222 3.556)">
        <mask id="icon16_04-d" fill="#fff">
          <use xlink:href="#icon16_04-c"/>
        </mask>
        <path fill="#FEFEFE" d="M2.07665246,4.24009505 L2.07665246,3.21584507 C2.07665246,2.94308093 2.15282611,2.70663624 2.35289243,2.63390896 L3.20614933,2.32989182 C3.22759343,2.27639941 3.26721198,2.16956188 3.26411908,2.01942377 C3.25357377,1.5011719 2.96920389,1.12510496 2.57696552,0.996440408 L0.240178016,0.265544436 L0.849773475,0.0473331212 C0.882528738,0.0358746707 0.923237166,0.0294532254 0.959350432,0.0294532254 C0.997702366,0.0294532254 1.04300596,0.0370823737 1.07313962,0.0469796472 L3.4575283,0.792191318 C3.87250684,0.930458585 4.0272401,1.42647105 4.0272401,1.69466949 C4.0272401,1.9124095 3.95289273,2.16361173 3.7215145,2.24779747 C3.51576315,2.32270451 2.89830289,2.54380253 2.89830289,2.54380253 C2.87582783,2.59705929 2.84006804,2.69744592 2.84006804,2.91786645 C2.84006804,3.04340865 2.83806502,3.71951614 2.83806502,3.84066937 C2.83806502,4.13095994 2.69814821,4.39459267 2.42968467,4.39459267 C2.31350953,4.39459267 2.18098621,4.34039331 2.07665246,4.24009505" mask="url(#icon16_04-d)"/>
        <mask id="icon16_04-f" fill="#fff">
          <use xlink:href="#icon16_04-e"/>
        </mask>
        <path fill="#FEFEFE" d="M1.46535148,1.91239477 C1.58806589,2.09873451 1.65013004,2.33347074 1.65013004,2.53229989 L1.65013004,3.39141858 C1.65013004,3.92324975 1.89597125,4.35672676 2.30102306,4.48038377 L1.67587474,4.69615022 C1.55083329,4.739981 1.42794215,4.69491306 1.35377151,4.64722352 C1.04975437,4.45198802 0.889277146,4.15003281 0.889277146,3.68533225 C0.889277146,3.4669442 0.887745426,3.16822917 0.887745426,2.78367886 C0.887745426,2.56399473 0.7945461,2.3082268 0.650240318,2.11882362 C0.541900521,1.97613793 0.416770707,1.88685627 0.257206628,1.82988804 C-0.0503747097,1.7201638 -0.298660775,1.32091486 -0.298660775,0.928676487 C-0.298660775,0.591462241 -0.127166948,0.378965423 0.100912185,0.36267616 C0.150162903,0.359170876 0.191755016,0.368125552 0.23134411,0.380261494 C0.366695216,0.42152959 0.476036523,0.45914512 0.476036523,0.45914512 C0.400393076,0.849144825 0.627853628,1.44754694 1.08672186,1.60955588 C1.26664015,1.67329903 1.37315367,1.77230123 1.46535148,1.91239477" mask="url(#icon16_04-f)"/>
      </g>
    </g>
  </g>
</svg>
