<svg xmlns="http://www.w3.org/2000/svg" width="375" height="667" viewBox="0 0 375 667">
  <defs>
    <filter id="icons18-data-a">
      <feColorMatrix in="SourceGraphic" values="0 0 0 0 0.384314 0 0 0 0 0.211765 0 0 0 0 1.000000 0 0 0 1.000000 0"/>
    </filter>
    <filter id="icons18-data-b">
      <feColorMatrix in="SourceGraphic" values="0 0 0 0 0.968627 0 0 0 0 0.384314 0 0 0 0 0.321569 0 0 0 1.000000 0"/>
    </filter>
    <filter id="icons18-data-c">
      <feColorMatrix in="SourceGraphic" values="0 0 0 0 0.231373 0 0 0 0 0.541176 0 0 0 0 0.866667 0 0 0 1.000000 0"/>
    </filter>
    <filter id="icons18-data-d">
      <feColorMatrix in="SourceGraphic" values="0 0 0 0 0.462745 0 0 0 0 0.466667 0 0 0 0 0.470588 0 0 0 1.000000 0"/>
    </filter>
    <filter id="icons18-data-e">
      <feColorMatrix in="SourceGraphic" values="0 0 0 0 0.207843 0 0 0 0 0.666667 0 0 0 0 0.886275 0 0 0 1.000000 0"/>
    </filter>
    <filter id="icons18-data-f">
      <feColorMatrix in="SourceGraphic" values="0 0 0 0 0.384314 0 0 0 0 0.211765 0 0 0 0 1.000000 0 0 0 1.000000 0"/>
    </filter>
  </defs>
  <g fill="none" fill-rule="evenodd">
    <g filter="url(#icons18-data-a)" transform="translate(0 72)">
      <g transform="translate(4 3)">
        <path fill="#F76252" fill-rule="nonzero" d="M9.1,6.57142857 C9.29636791,6.57142857 9.4596867,6.7129287 9.49355546,6.89952807 L9.5,6.97142857 L9.5,9.6 C9.5,10.4140071 8.4568176,10.9747253 6.89830472,11.2309912 L6.70884337,11.2602785 L6.43243417,11.2962732 L6.15287957,11.3250962 C5.81162572,11.3557653 5.45869936,11.3714286 5.1,11.3714286 C4.86086709,11.3714286 4.62429996,11.3644671 4.3904854,11.3505883 L4.04185132,11.3245875 L3.75677641,11.2950112 L3.45120912,11.2529759 L2.59370436,11.0504135 C1.55458402,10.76001 0.852486239,10.356072 0.720634608,9.77688878 L0.703333654,9.67284826 L0.7,9.6 L0.7,6.97142857 C0.7,6.75051467 0.8790861,6.57142857 1.1,6.57142857 C1.29636791,6.57142857 1.4596867,6.7129287 1.49355546,6.89952807 L1.5,6.97142857 L1.50046768,9.60866177 C1.51522664,9.74595759 1.95637072,10.0200149 2.6424725,10.2315538 L2.79317755,10.275854 L3.59488234,10.4670314 L3.84971271,10.500502 L4.11872909,10.5283076 C4.43604894,10.5568256 4.76508382,10.5714286 5.1,10.5714286 C5.32327745,10.5714286 5.543941,10.5649384 5.7587009,10.5523125 L6.0760018,10.5288163 L6.33949787,10.501764 L6.59957445,10.4677957 C7.81839845,10.2910463 8.62080082,9.90486878 8.69445632,9.63894539 L8.7,9.6 L8.7,6.97142857 C8.7,6.75051467 8.8790861,6.57142857 9.1,6.57142857 Z"/>
        <path fill="#F76252" fill-rule="nonzero" d="M9.1,4.17142857 C9.29636791,4.17142857 9.4596867,4.3129287 9.49355546,4.49952807 L9.5,4.57142857 L9.5,7.2 C9.5,8.0140071 8.4568176,8.57472532 6.89830472,8.83099121 L6.70884337,8.86027847 L6.43243417,8.89627323 L6.15287957,8.92509623 C5.81162572,8.95576525 5.45869936,8.97142857 5.1,8.97142857 C4.86086709,8.97142857 4.62429996,8.9644671 4.3904854,8.95058827 L4.04185132,8.92458752 L3.75677641,8.89501115 L3.45120912,8.85297594 L2.59370436,8.65041352 C1.55458402,8.36000996 0.852486239,7.95607204 0.720634608,7.37688878 L0.703333654,7.27284826 L0.7,7.2 L0.7,4.57142857 C0.7,4.35051467 0.8790861,4.17142857 1.1,4.17142857 C1.29636791,4.17142857 1.4596867,4.3129287 1.49355546,4.49952807 L1.5,4.57142857 L1.50046768,7.20866177 C1.51522664,7.34595759 1.95637072,7.62001486 2.6424725,7.83155375 L2.79317755,7.87585398 L3.59488234,8.06703136 L3.84971271,8.10050197 L4.11872909,8.12830755 C4.43604894,8.15682559 4.76508382,8.17142857 5.1,8.17142857 C5.32327745,8.17142857 5.543941,8.16493836 5.7587009,8.15231249 L6.0760018,8.12881626 L6.33949787,8.10176405 L6.59957445,8.06779567 C7.81839845,7.89104627 8.62080082,7.50486878 8.69445632,7.23894539 L8.7,7.2 L8.7,4.57142857 C8.7,4.35051467 8.8790861,4.17142857 9.1,4.17142857 Z"/>
        <path fill="#F76252" fill-rule="nonzero" d="M9.1,1.77142857 C9.29636791,1.77142857 9.4596867,1.9129287 9.49355546,2.09952807 L9.5,2.17142857 L9.5,4.8 C9.5,5.6140071 8.4568176,6.17472532 6.89830472,6.43099121 L6.70884337,6.46027847 L6.43243417,6.49627323 L6.15287957,6.52509623 C5.81162572,6.55576525 5.45869936,6.57142857 5.1,6.57142857 C4.86086709,6.57142857 4.62429996,6.5644671 4.3904854,6.55058827 L4.04185132,6.52458752 L3.75677641,6.49501115 L3.45120912,6.45297594 L2.59370436,6.25041352 C1.55458402,5.96000996 0.852486239,5.55607204 0.720634608,4.97688878 L0.703333654,4.87284826 L0.7,4.8 L0.7,2.17142857 C0.7,1.95051467 0.8790861,1.77142857 1.1,1.77142857 C1.29636791,1.77142857 1.4596867,1.9129287 1.49355546,2.09952807 L1.5,2.17142857 L1.50046768,4.80866177 C1.51522664,4.94595759 1.95637072,5.22001486 2.6424725,5.43155375 L2.79317755,5.47585398 L3.59488234,5.66703136 L3.84971271,5.70050197 L4.11872909,5.72830755 C4.43604894,5.75682559 4.76508382,5.77142857 5.1,5.77142857 C5.32327745,5.77142857 5.543941,5.76493836 5.7587009,5.75231249 L6.0760018,5.72881626 L6.33949787,5.70176405 L6.59957445,5.66779567 C7.81839845,5.49104627 8.62080082,5.10486878 8.69445632,4.83894539 L8.7,4.8 L8.7,2.17142857 C8.7,1.95051467 8.8790861,1.77142857 9.1,1.77142857 Z"/>
        <path fill="#F76252" fill-rule="nonzero" d="M5.1,0.4 C2.67641376,0.4 0.7,1.09174481 0.7,2.2 C0.7,3.30825519 2.67641376,4 5.1,4 C7.52358624,4 9.5,3.30825519 9.5,2.2 C9.5,1.09174481 7.52358624,0.4 5.1,0.4 Z M5.1,1.2 C7.09469175,1.2 8.7,1.76185789 8.7,2.2 C8.7,2.63814211 7.09469175,3.2 5.1,3.2 C3.10530825,3.2 1.5,2.63814211 1.5,2.2 C1.5,1.76185789 3.10530825,1.2 5.1,1.2 Z"/>
      </g>
    </g>
    <g filter="url(#icons18-data-b)" transform="translate(0 36)">
      <g transform="translate(4 3)">
        <path fill="#F76252" fill-rule="nonzero" d="M9.1,6.57142857 C9.29636791,6.57142857 9.4596867,6.7129287 9.49355546,6.89952807 L9.5,6.97142857 L9.5,9.6 C9.5,10.4140071 8.4568176,10.9747253 6.89830472,11.2309912 L6.70884337,11.2602785 L6.43243417,11.2962732 L6.15287957,11.3250962 C5.81162572,11.3557653 5.45869936,11.3714286 5.1,11.3714286 C4.86086709,11.3714286 4.62429996,11.3644671 4.3904854,11.3505883 L4.04185132,11.3245875 L3.75677641,11.2950112 L3.45120912,11.2529759 L2.59370436,11.0504135 C1.55458402,10.76001 0.852486239,10.356072 0.720634608,9.77688878 L0.703333654,9.67284826 L0.7,9.6 L0.7,6.97142857 C0.7,6.75051467 0.8790861,6.57142857 1.1,6.57142857 C1.29636791,6.57142857 1.4596867,6.7129287 1.49355546,6.89952807 L1.5,6.97142857 L1.50046768,9.60866177 C1.51522664,9.74595759 1.95637072,10.0200149 2.6424725,10.2315538 L2.79317755,10.275854 L3.59488234,10.4670314 L3.84971271,10.500502 L4.11872909,10.5283076 C4.43604894,10.5568256 4.76508382,10.5714286 5.1,10.5714286 C5.32327745,10.5714286 5.543941,10.5649384 5.7587009,10.5523125 L6.0760018,10.5288163 L6.33949787,10.501764 L6.59957445,10.4677957 C7.81839845,10.2910463 8.62080082,9.90486878 8.69445632,9.63894539 L8.7,9.6 L8.7,6.97142857 C8.7,6.75051467 8.8790861,6.57142857 9.1,6.57142857 Z"/>
        <path fill="#F76252" fill-rule="nonzero" d="M9.1,4.17142857 C9.29636791,4.17142857 9.4596867,4.3129287 9.49355546,4.49952807 L9.5,4.57142857 L9.5,7.2 C9.5,8.0140071 8.4568176,8.57472532 6.89830472,8.83099121 L6.70884337,8.86027847 L6.43243417,8.89627323 L6.15287957,8.92509623 C5.81162572,8.95576525 5.45869936,8.97142857 5.1,8.97142857 C4.86086709,8.97142857 4.62429996,8.9644671 4.3904854,8.95058827 L4.04185132,8.92458752 L3.75677641,8.89501115 L3.45120912,8.85297594 L2.59370436,8.65041352 C1.55458402,8.36000996 0.852486239,7.95607204 0.720634608,7.37688878 L0.703333654,7.27284826 L0.7,7.2 L0.7,4.57142857 C0.7,4.35051467 0.8790861,4.17142857 1.1,4.17142857 C1.29636791,4.17142857 1.4596867,4.3129287 1.49355546,4.49952807 L1.5,4.57142857 L1.50046768,7.20866177 C1.51522664,7.34595759 1.95637072,7.62001486 2.6424725,7.83155375 L2.79317755,7.87585398 L3.59488234,8.06703136 L3.84971271,8.10050197 L4.11872909,8.12830755 C4.43604894,8.15682559 4.76508382,8.17142857 5.1,8.17142857 C5.32327745,8.17142857 5.543941,8.16493836 5.7587009,8.15231249 L6.0760018,8.12881626 L6.33949787,8.10176405 L6.59957445,8.06779567 C7.81839845,7.89104627 8.62080082,7.50486878 8.69445632,7.23894539 L8.7,7.2 L8.7,4.57142857 C8.7,4.35051467 8.8790861,4.17142857 9.1,4.17142857 Z"/>
        <path fill="#F76252" fill-rule="nonzero" d="M9.1,1.77142857 C9.29636791,1.77142857 9.4596867,1.9129287 9.49355546,2.09952807 L9.5,2.17142857 L9.5,4.8 C9.5,5.6140071 8.4568176,6.17472532 6.89830472,6.43099121 L6.70884337,6.46027847 L6.43243417,6.49627323 L6.15287957,6.52509623 C5.81162572,6.55576525 5.45869936,6.57142857 5.1,6.57142857 C4.86086709,6.57142857 4.62429996,6.5644671 4.3904854,6.55058827 L4.04185132,6.52458752 L3.75677641,6.49501115 L3.45120912,6.45297594 L2.59370436,6.25041352 C1.55458402,5.96000996 0.852486239,5.55607204 0.720634608,4.97688878 L0.703333654,4.87284826 L0.7,4.8 L0.7,2.17142857 C0.7,1.95051467 0.8790861,1.77142857 1.1,1.77142857 C1.29636791,1.77142857 1.4596867,1.9129287 1.49355546,2.09952807 L1.5,2.17142857 L1.50046768,4.80866177 C1.51522664,4.94595759 1.95637072,5.22001486 2.6424725,5.43155375 L2.79317755,5.47585398 L3.59488234,5.66703136 L3.84971271,5.70050197 L4.11872909,5.72830755 C4.43604894,5.75682559 4.76508382,5.77142857 5.1,5.77142857 C5.32327745,5.77142857 5.543941,5.76493836 5.7587009,5.75231249 L6.0760018,5.72881626 L6.33949787,5.70176405 L6.59957445,5.66779567 C7.81839845,5.49104627 8.62080082,5.10486878 8.69445632,4.83894539 L8.7,4.8 L8.7,2.17142857 C8.7,1.95051467 8.8790861,1.77142857 9.1,1.77142857 Z"/>
        <path fill="#F76252" fill-rule="nonzero" d="M5.1,0.4 C2.67641376,0.4 0.7,1.09174481 0.7,2.2 C0.7,3.30825519 2.67641376,4 5.1,4 C7.52358624,4 9.5,3.30825519 9.5,2.2 C9.5,1.09174481 7.52358624,0.4 5.1,0.4 Z M5.1,1.2 C7.09469175,1.2 8.7,1.76185789 8.7,2.2 C8.7,2.63814211 7.09469175,3.2 5.1,3.2 C3.10530825,3.2 1.5,2.63814211 1.5,2.2 C1.5,1.76185789 3.10530825,1.2 5.1,1.2 Z"/>
      </g>
    </g>
    <g filter="url(#icons18-data-c)" transform="translate(0 18)">
      <g transform="translate(4 3)">
        <path fill="#F76252" fill-rule="nonzero" d="M9.1,6.57142857 C9.29636791,6.57142857 9.4596867,6.7129287 9.49355546,6.89952807 L9.5,6.97142857 L9.5,9.6 C9.5,10.4140071 8.4568176,10.9747253 6.89830472,11.2309912 L6.70884337,11.2602785 L6.43243417,11.2962732 L6.15287957,11.3250962 C5.81162572,11.3557653 5.45869936,11.3714286 5.1,11.3714286 C4.86086709,11.3714286 4.62429996,11.3644671 4.3904854,11.3505883 L4.04185132,11.3245875 L3.75677641,11.2950112 L3.45120912,11.2529759 L2.59370436,11.0504135 C1.55458402,10.76001 0.852486239,10.356072 0.720634608,9.77688878 L0.703333654,9.67284826 L0.7,9.6 L0.7,6.97142857 C0.7,6.75051467 0.8790861,6.57142857 1.1,6.57142857 C1.29636791,6.57142857 1.4596867,6.7129287 1.49355546,6.89952807 L1.5,6.97142857 L1.50046768,9.60866177 C1.51522664,9.74595759 1.95637072,10.0200149 2.6424725,10.2315538 L2.79317755,10.275854 L3.59488234,10.4670314 L3.84971271,10.500502 L4.11872909,10.5283076 C4.43604894,10.5568256 4.76508382,10.5714286 5.1,10.5714286 C5.32327745,10.5714286 5.543941,10.5649384 5.7587009,10.5523125 L6.0760018,10.5288163 L6.33949787,10.501764 L6.59957445,10.4677957 C7.81839845,10.2910463 8.62080082,9.90486878 8.69445632,9.63894539 L8.7,9.6 L8.7,6.97142857 C8.7,6.75051467 8.8790861,6.57142857 9.1,6.57142857 Z"/>
        <path fill="#F76252" fill-rule="nonzero" d="M9.1,4.17142857 C9.29636791,4.17142857 9.4596867,4.3129287 9.49355546,4.49952807 L9.5,4.57142857 L9.5,7.2 C9.5,8.0140071 8.4568176,8.57472532 6.89830472,8.83099121 L6.70884337,8.86027847 L6.43243417,8.89627323 L6.15287957,8.92509623 C5.81162572,8.95576525 5.45869936,8.97142857 5.1,8.97142857 C4.86086709,8.97142857 4.62429996,8.9644671 4.3904854,8.95058827 L4.04185132,8.92458752 L3.75677641,8.89501115 L3.45120912,8.85297594 L2.59370436,8.65041352 C1.55458402,8.36000996 0.852486239,7.95607204 0.720634608,7.37688878 L0.703333654,7.27284826 L0.7,7.2 L0.7,4.57142857 C0.7,4.35051467 0.8790861,4.17142857 1.1,4.17142857 C1.29636791,4.17142857 1.4596867,4.3129287 1.49355546,4.49952807 L1.5,4.57142857 L1.50046768,7.20866177 C1.51522664,7.34595759 1.95637072,7.62001486 2.6424725,7.83155375 L2.79317755,7.87585398 L3.59488234,8.06703136 L3.84971271,8.10050197 L4.11872909,8.12830755 C4.43604894,8.15682559 4.76508382,8.17142857 5.1,8.17142857 C5.32327745,8.17142857 5.543941,8.16493836 5.7587009,8.15231249 L6.0760018,8.12881626 L6.33949787,8.10176405 L6.59957445,8.06779567 C7.81839845,7.89104627 8.62080082,7.50486878 8.69445632,7.23894539 L8.7,7.2 L8.7,4.57142857 C8.7,4.35051467 8.8790861,4.17142857 9.1,4.17142857 Z"/>
        <path fill="#F76252" fill-rule="nonzero" d="M9.1,1.77142857 C9.29636791,1.77142857 9.4596867,1.9129287 9.49355546,2.09952807 L9.5,2.17142857 L9.5,4.8 C9.5,5.6140071 8.4568176,6.17472532 6.89830472,6.43099121 L6.70884337,6.46027847 L6.43243417,6.49627323 L6.15287957,6.52509623 C5.81162572,6.55576525 5.45869936,6.57142857 5.1,6.57142857 C4.86086709,6.57142857 4.62429996,6.5644671 4.3904854,6.55058827 L4.04185132,6.52458752 L3.75677641,6.49501115 L3.45120912,6.45297594 L2.59370436,6.25041352 C1.55458402,5.96000996 0.852486239,5.55607204 0.720634608,4.97688878 L0.703333654,4.87284826 L0.7,4.8 L0.7,2.17142857 C0.7,1.95051467 0.8790861,1.77142857 1.1,1.77142857 C1.29636791,1.77142857 1.4596867,1.9129287 1.49355546,2.09952807 L1.5,2.17142857 L1.50046768,4.80866177 C1.51522664,4.94595759 1.95637072,5.22001486 2.6424725,5.43155375 L2.79317755,5.47585398 L3.59488234,5.66703136 L3.84971271,5.70050197 L4.11872909,5.72830755 C4.43604894,5.75682559 4.76508382,5.77142857 5.1,5.77142857 C5.32327745,5.77142857 5.543941,5.76493836 5.7587009,5.75231249 L6.0760018,5.72881626 L6.33949787,5.70176405 L6.59957445,5.66779567 C7.81839845,5.49104627 8.62080082,5.10486878 8.69445632,4.83894539 L8.7,4.8 L8.7,2.17142857 C8.7,1.95051467 8.8790861,1.77142857 9.1,1.77142857 Z"/>
        <path fill="#F76252" fill-rule="nonzero" d="M5.1,0.4 C2.67641376,0.4 0.7,1.09174481 0.7,2.2 C0.7,3.30825519 2.67641376,4 5.1,4 C7.52358624,4 9.5,3.30825519 9.5,2.2 C9.5,1.09174481 7.52358624,0.4 5.1,0.4 Z M5.1,1.2 C7.09469175,1.2 8.7,1.76185789 8.7,2.2 C8.7,2.63814211 7.09469175,3.2 5.1,3.2 C3.10530825,3.2 1.5,2.63814211 1.5,2.2 C1.5,1.76185789 3.10530825,1.2 5.1,1.2 Z"/>
      </g>
    </g>
    <g filter="url(#icons18-data-d)" transform="translate(0 2)">
      <g transform="translate(4 3)">
        <path fill="#F76252" fill-rule="nonzero" d="M9.1,6.57142857 C9.29636791,6.57142857 9.4596867,6.7129287 9.49355546,6.89952807 L9.5,6.97142857 L9.5,9.6 C9.5,10.4140071 8.4568176,10.9747253 6.89830472,11.2309912 L6.70884337,11.2602785 L6.43243417,11.2962732 L6.15287957,11.3250962 C5.81162572,11.3557653 5.45869936,11.3714286 5.1,11.3714286 C4.86086709,11.3714286 4.62429996,11.3644671 4.3904854,11.3505883 L4.04185132,11.3245875 L3.75677641,11.2950112 L3.45120912,11.2529759 L2.59370436,11.0504135 C1.55458402,10.76001 0.852486239,10.356072 0.720634608,9.77688878 L0.703333654,9.67284826 L0.7,9.6 L0.7,6.97142857 C0.7,6.75051467 0.8790861,6.57142857 1.1,6.57142857 C1.29636791,6.57142857 1.4596867,6.7129287 1.49355546,6.89952807 L1.5,6.97142857 L1.50046768,9.60866177 C1.51522664,9.74595759 1.95637072,10.0200149 2.6424725,10.2315538 L2.79317755,10.275854 L3.59488234,10.4670314 L3.84971271,10.500502 L4.11872909,10.5283076 C4.43604894,10.5568256 4.76508382,10.5714286 5.1,10.5714286 C5.32327745,10.5714286 5.543941,10.5649384 5.7587009,10.5523125 L6.0760018,10.5288163 L6.33949787,10.501764 L6.59957445,10.4677957 C7.81839845,10.2910463 8.62080082,9.90486878 8.69445632,9.63894539 L8.7,9.6 L8.7,6.97142857 C8.7,6.75051467 8.8790861,6.57142857 9.1,6.57142857 Z"/>
        <path fill="#F76252" fill-rule="nonzero" d="M9.1,4.17142857 C9.29636791,4.17142857 9.4596867,4.3129287 9.49355546,4.49952807 L9.5,4.57142857 L9.5,7.2 C9.5,8.0140071 8.4568176,8.57472532 6.89830472,8.83099121 L6.70884337,8.86027847 L6.43243417,8.89627323 L6.15287957,8.92509623 C5.81162572,8.95576525 5.45869936,8.97142857 5.1,8.97142857 C4.86086709,8.97142857 4.62429996,8.9644671 4.3904854,8.95058827 L4.04185132,8.92458752 L3.75677641,8.89501115 L3.45120912,8.85297594 L2.59370436,8.65041352 C1.55458402,8.36000996 0.852486239,7.95607204 0.720634608,7.37688878 L0.703333654,7.27284826 L0.7,7.2 L0.7,4.57142857 C0.7,4.35051467 0.8790861,4.17142857 1.1,4.17142857 C1.29636791,4.17142857 1.4596867,4.3129287 1.49355546,4.49952807 L1.5,4.57142857 L1.50046768,7.20866177 C1.51522664,7.34595759 1.95637072,7.62001486 2.6424725,7.83155375 L2.79317755,7.87585398 L3.59488234,8.06703136 L3.84971271,8.10050197 L4.11872909,8.12830755 C4.43604894,8.15682559 4.76508382,8.17142857 5.1,8.17142857 C5.32327745,8.17142857 5.543941,8.16493836 5.7587009,8.15231249 L6.0760018,8.12881626 L6.33949787,8.10176405 L6.59957445,8.06779567 C7.81839845,7.89104627 8.62080082,7.50486878 8.69445632,7.23894539 L8.7,7.2 L8.7,4.57142857 C8.7,4.35051467 8.8790861,4.17142857 9.1,4.17142857 Z"/>
        <path fill="#F76252" fill-rule="nonzero" d="M9.1,1.77142857 C9.29636791,1.77142857 9.4596867,1.9129287 9.49355546,2.09952807 L9.5,2.17142857 L9.5,4.8 C9.5,5.6140071 8.4568176,6.17472532 6.89830472,6.43099121 L6.70884337,6.46027847 L6.43243417,6.49627323 L6.15287957,6.52509623 C5.81162572,6.55576525 5.45869936,6.57142857 5.1,6.57142857 C4.86086709,6.57142857 4.62429996,6.5644671 4.3904854,6.55058827 L4.04185132,6.52458752 L3.75677641,6.49501115 L3.45120912,6.45297594 L2.59370436,6.25041352 C1.55458402,5.96000996 0.852486239,5.55607204 0.720634608,4.97688878 L0.703333654,4.87284826 L0.7,4.8 L0.7,2.17142857 C0.7,1.95051467 0.8790861,1.77142857 1.1,1.77142857 C1.29636791,1.77142857 1.4596867,1.9129287 1.49355546,2.09952807 L1.5,2.17142857 L1.50046768,4.80866177 C1.51522664,4.94595759 1.95637072,5.22001486 2.6424725,5.43155375 L2.79317755,5.47585398 L3.59488234,5.66703136 L3.84971271,5.70050197 L4.11872909,5.72830755 C4.43604894,5.75682559 4.76508382,5.77142857 5.1,5.77142857 C5.32327745,5.77142857 5.543941,5.76493836 5.7587009,5.75231249 L6.0760018,5.72881626 L6.33949787,5.70176405 L6.59957445,5.66779567 C7.81839845,5.49104627 8.62080082,5.10486878 8.69445632,4.83894539 L8.7,4.8 L8.7,2.17142857 C8.7,1.95051467 8.8790861,1.77142857 9.1,1.77142857 Z"/>
        <path fill="#F76252" fill-rule="nonzero" d="M5.1,0.4 C2.67641376,0.4 0.7,1.09174481 0.7,2.2 C0.7,3.30825519 2.67641376,4 5.1,4 C7.52358624,4 9.5,3.30825519 9.5,2.2 C9.5,1.09174481 7.52358624,0.4 5.1,0.4 Z M5.1,1.2 C7.09469175,1.2 8.7,1.76185789 8.7,2.2 C8.7,2.63814211 7.09469175,3.2 5.1,3.2 C3.10530825,3.2 1.5,2.63814211 1.5,2.2 C1.5,1.76185789 3.10530825,1.2 5.1,1.2 Z"/>
      </g>
    </g>
    <g filter="url(#icons18-data-e)" transform="translate(0 54)">
      <g transform="translate(4 3)">
        <path fill="#F76252" fill-rule="nonzero" d="M9.1,6.57142857 C9.29636791,6.57142857 9.4596867,6.7129287 9.49355546,6.89952807 L9.5,6.97142857 L9.5,9.6 C9.5,10.4140071 8.4568176,10.9747253 6.89830472,11.2309912 L6.70884337,11.2602785 L6.43243417,11.2962732 L6.15287957,11.3250962 C5.81162572,11.3557653 5.45869936,11.3714286 5.1,11.3714286 C4.86086709,11.3714286 4.62429996,11.3644671 4.3904854,11.3505883 L4.04185132,11.3245875 L3.75677641,11.2950112 L3.45120912,11.2529759 L2.59370436,11.0504135 C1.55458402,10.76001 0.852486239,10.356072 0.720634608,9.77688878 L0.703333654,9.67284826 L0.7,9.6 L0.7,6.97142857 C0.7,6.75051467 0.8790861,6.57142857 1.1,6.57142857 C1.29636791,6.57142857 1.4596867,6.7129287 1.49355546,6.89952807 L1.5,6.97142857 L1.50046768,9.60866177 C1.51522664,9.74595759 1.95637072,10.0200149 2.6424725,10.2315538 L2.79317755,10.275854 L3.59488234,10.4670314 L3.84971271,10.500502 L4.11872909,10.5283076 C4.43604894,10.5568256 4.76508382,10.5714286 5.1,10.5714286 C5.32327745,10.5714286 5.543941,10.5649384 5.7587009,10.5523125 L6.0760018,10.5288163 L6.33949787,10.501764 L6.59957445,10.4677957 C7.81839845,10.2910463 8.62080082,9.90486878 8.69445632,9.63894539 L8.7,9.6 L8.7,6.97142857 C8.7,6.75051467 8.8790861,6.57142857 9.1,6.57142857 Z"/>
        <path fill="#F76252" fill-rule="nonzero" d="M9.1,4.17142857 C9.29636791,4.17142857 9.4596867,4.3129287 9.49355546,4.49952807 L9.5,4.57142857 L9.5,7.2 C9.5,8.0140071 8.4568176,8.57472532 6.89830472,8.83099121 L6.70884337,8.86027847 L6.43243417,8.89627323 L6.15287957,8.92509623 C5.81162572,8.95576525 5.45869936,8.97142857 5.1,8.97142857 C4.86086709,8.97142857 4.62429996,8.9644671 4.3904854,8.95058827 L4.04185132,8.92458752 L3.75677641,8.89501115 L3.45120912,8.85297594 L2.59370436,8.65041352 C1.55458402,8.36000996 0.852486239,7.95607204 0.720634608,7.37688878 L0.703333654,7.27284826 L0.7,7.2 L0.7,4.57142857 C0.7,4.35051467 0.8790861,4.17142857 1.1,4.17142857 C1.29636791,4.17142857 1.4596867,4.3129287 1.49355546,4.49952807 L1.5,4.57142857 L1.50046768,7.20866177 C1.51522664,7.34595759 1.95637072,7.62001486 2.6424725,7.83155375 L2.79317755,7.87585398 L3.59488234,8.06703136 L3.84971271,8.10050197 L4.11872909,8.12830755 C4.43604894,8.15682559 4.76508382,8.17142857 5.1,8.17142857 C5.32327745,8.17142857 5.543941,8.16493836 5.7587009,8.15231249 L6.0760018,8.12881626 L6.33949787,8.10176405 L6.59957445,8.06779567 C7.81839845,7.89104627 8.62080082,7.50486878 8.69445632,7.23894539 L8.7,7.2 L8.7,4.57142857 C8.7,4.35051467 8.8790861,4.17142857 9.1,4.17142857 Z"/>
        <path fill="#F76252" fill-rule="nonzero" d="M9.1,1.77142857 C9.29636791,1.77142857 9.4596867,1.9129287 9.49355546,2.09952807 L9.5,2.17142857 L9.5,4.8 C9.5,5.6140071 8.4568176,6.17472532 6.89830472,6.43099121 L6.70884337,6.46027847 L6.43243417,6.49627323 L6.15287957,6.52509623 C5.81162572,6.55576525 5.45869936,6.57142857 5.1,6.57142857 C4.86086709,6.57142857 4.62429996,6.5644671 4.3904854,6.55058827 L4.04185132,6.52458752 L3.75677641,6.49501115 L3.45120912,6.45297594 L2.59370436,6.25041352 C1.55458402,5.96000996 0.852486239,5.55607204 0.720634608,4.97688878 L0.703333654,4.87284826 L0.7,4.8 L0.7,2.17142857 C0.7,1.95051467 0.8790861,1.77142857 1.1,1.77142857 C1.29636791,1.77142857 1.4596867,1.9129287 1.49355546,2.09952807 L1.5,2.17142857 L1.50046768,4.80866177 C1.51522664,4.94595759 1.95637072,5.22001486 2.6424725,5.43155375 L2.79317755,5.47585398 L3.59488234,5.66703136 L3.84971271,5.70050197 L4.11872909,5.72830755 C4.43604894,5.75682559 4.76508382,5.77142857 5.1,5.77142857 C5.32327745,5.77142857 5.543941,5.76493836 5.7587009,5.75231249 L6.0760018,5.72881626 L6.33949787,5.70176405 L6.59957445,5.66779567 C7.81839845,5.49104627 8.62080082,5.10486878 8.69445632,4.83894539 L8.7,4.8 L8.7,2.17142857 C8.7,1.95051467 8.8790861,1.77142857 9.1,1.77142857 Z"/>
        <path fill="#F76252" fill-rule="nonzero" d="M5.1,0.4 C2.67641376,0.4 0.7,1.09174481 0.7,2.2 C0.7,3.30825519 2.67641376,4 5.1,4 C7.52358624,4 9.5,3.30825519 9.5,2.2 C9.5,1.09174481 7.52358624,0.4 5.1,0.4 Z M5.1,1.2 C7.09469175,1.2 8.7,1.76185789 8.7,2.2 C8.7,2.63814211 7.09469175,3.2 5.1,3.2 C3.10530825,3.2 1.5,2.63814211 1.5,2.2 C1.5,1.76185789 3.10530825,1.2 5.1,1.2 Z"/>
      </g>
    </g>
    <g filter="url(#icons18-data-f)" transform="translate(0 72)">
      <g transform="translate(4 3)">
        <path fill="#F76252" fill-rule="nonzero" d="M9.1,6.57142857 C9.29636791,6.57142857 9.4596867,6.7129287 9.49355546,6.89952807 L9.5,6.97142857 L9.5,9.6 C9.5,10.4140071 8.4568176,10.9747253 6.89830472,11.2309912 L6.70884337,11.2602785 L6.43243417,11.2962732 L6.15287957,11.3250962 C5.81162572,11.3557653 5.45869936,11.3714286 5.1,11.3714286 C4.86086709,11.3714286 4.62429996,11.3644671 4.3904854,11.3505883 L4.04185132,11.3245875 L3.75677641,11.2950112 L3.45120912,11.2529759 L2.59370436,11.0504135 C1.55458402,10.76001 0.852486239,10.356072 0.720634608,9.77688878 L0.703333654,9.67284826 L0.7,9.6 L0.7,6.97142857 C0.7,6.75051467 0.8790861,6.57142857 1.1,6.57142857 C1.29636791,6.57142857 1.4596867,6.7129287 1.49355546,6.89952807 L1.5,6.97142857 L1.50046768,9.60866177 C1.51522664,9.74595759 1.95637072,10.0200149 2.6424725,10.2315538 L2.79317755,10.275854 L3.59488234,10.4670314 L3.84971271,10.500502 L4.11872909,10.5283076 C4.43604894,10.5568256 4.76508382,10.5714286 5.1,10.5714286 C5.32327745,10.5714286 5.543941,10.5649384 5.7587009,10.5523125 L6.0760018,10.5288163 L6.33949787,10.501764 L6.59957445,10.4677957 C7.81839845,10.2910463 8.62080082,9.90486878 8.69445632,9.63894539 L8.7,9.6 L8.7,6.97142857 C8.7,6.75051467 8.8790861,6.57142857 9.1,6.57142857 Z"/>
        <path fill="#F76252" fill-rule="nonzero" d="M9.1,4.17142857 C9.29636791,4.17142857 9.4596867,4.3129287 9.49355546,4.49952807 L9.5,4.57142857 L9.5,7.2 C9.5,8.0140071 8.4568176,8.57472532 6.89830472,8.83099121 L6.70884337,8.86027847 L6.43243417,8.89627323 L6.15287957,8.92509623 C5.81162572,8.95576525 5.45869936,8.97142857 5.1,8.97142857 C4.86086709,8.97142857 4.62429996,8.9644671 4.3904854,8.95058827 L4.04185132,8.92458752 L3.75677641,8.89501115 L3.45120912,8.85297594 L2.59370436,8.65041352 C1.55458402,8.36000996 0.852486239,7.95607204 0.720634608,7.37688878 L0.703333654,7.27284826 L0.7,7.2 L0.7,4.57142857 C0.7,4.35051467 0.8790861,4.17142857 1.1,4.17142857 C1.29636791,4.17142857 1.4596867,4.3129287 1.49355546,4.49952807 L1.5,4.57142857 L1.50046768,7.20866177 C1.51522664,7.34595759 1.95637072,7.62001486 2.6424725,7.83155375 L2.79317755,7.87585398 L3.59488234,8.06703136 L3.84971271,8.10050197 L4.11872909,8.12830755 C4.43604894,8.15682559 4.76508382,8.17142857 5.1,8.17142857 C5.32327745,8.17142857 5.543941,8.16493836 5.7587009,8.15231249 L6.0760018,8.12881626 L6.33949787,8.10176405 L6.59957445,8.06779567 C7.81839845,7.89104627 8.62080082,7.50486878 8.69445632,7.23894539 L8.7,7.2 L8.7,4.57142857 C8.7,4.35051467 8.8790861,4.17142857 9.1,4.17142857 Z"/>
        <path fill="#F76252" fill-rule="nonzero" d="M9.1,1.77142857 C9.29636791,1.77142857 9.4596867,1.9129287 9.49355546,2.09952807 L9.5,2.17142857 L9.5,4.8 C9.5,5.6140071 8.4568176,6.17472532 6.89830472,6.43099121 L6.70884337,6.46027847 L6.43243417,6.49627323 L6.15287957,6.52509623 C5.81162572,6.55576525 5.45869936,6.57142857 5.1,6.57142857 C4.86086709,6.57142857 4.62429996,6.5644671 4.3904854,6.55058827 L4.04185132,6.52458752 L3.75677641,6.49501115 L3.45120912,6.45297594 L2.59370436,6.25041352 C1.55458402,5.96000996 0.852486239,5.55607204 0.720634608,4.97688878 L0.703333654,4.87284826 L0.7,4.8 L0.7,2.17142857 C0.7,1.95051467 0.8790861,1.77142857 1.1,1.77142857 C1.29636791,1.77142857 1.4596867,1.9129287 1.49355546,2.09952807 L1.5,2.17142857 L1.50046768,4.80866177 C1.51522664,4.94595759 1.95637072,5.22001486 2.6424725,5.43155375 L2.79317755,5.47585398 L3.59488234,5.66703136 L3.84971271,5.70050197 L4.11872909,5.72830755 C4.43604894,5.75682559 4.76508382,5.77142857 5.1,5.77142857 C5.32327745,5.77142857 5.543941,5.76493836 5.7587009,5.75231249 L6.0760018,5.72881626 L6.33949787,5.70176405 L6.59957445,5.66779567 C7.81839845,5.49104627 8.62080082,5.10486878 8.69445632,4.83894539 L8.7,4.8 L8.7,2.17142857 C8.7,1.95051467 8.8790861,1.77142857 9.1,1.77142857 Z"/>
        <path fill="#F76252" fill-rule="nonzero" d="M5.1,0.4 C2.67641376,0.4 0.7,1.09174481 0.7,2.2 C0.7,3.30825519 2.67641376,4 5.1,4 C7.52358624,4 9.5,3.30825519 9.5,2.2 C9.5,1.09174481 7.52358624,0.4 5.1,0.4 Z M5.1,1.2 C7.09469175,1.2 8.7,1.76185789 8.7,2.2 C8.7,2.63814211 7.09469175,3.2 5.1,3.2 C3.10530825,3.2 1.5,2.63814211 1.5,2.2 C1.5,1.76185789 3.10530825,1.2 5.1,1.2 Z"/>
      </g>
    </g>
  </g>
</svg>
