<svg xmlns="http://www.w3.org/2000/svg" xmlns:xlink="http://www.w3.org/1999/xlink" width="16" height="16" viewBox="0 0 16 16">
  <defs>
    <rect id="icon16_13-a" width="16" height="16" x="0" y="0" rx="4"/>
  </defs>
  <g fill="none" fill-rule="evenodd">
    <mask id="icon16_13-b" fill="#fff">
      <use xlink:href="#icon16_13-a"/>
    </mask>
    <use fill="#5375DD" xlink:href="#icon16_13-a"/>
    <g mask="url(#icon16_13-b)">
      <g transform="translate(4.8 4)">
        <path stroke="#FFF" stroke-width=".592" d="M5.68758857,6.22666406 L5.68758857,6.95149714 C5.68758857,7.47502521 5.26318521,7.89942857 4.73965714,7.89942857 L1.26390857,7.89942857 C0.7403805,7.89942857 0.315977143,7.47502521 0.315977143,6.95149714 L0.315977143,1.26390857 C0.315977143,0.7403805 0.7403805,0.315977143 1.26390857,0.315977143 L4.73965714,0.315977143 C5.26318521,0.315977143 5.68758857,0.7403805 5.68758857,1.26390857 L5.68758857,2.69095982 L5.68758857,2.69095982"/>
        <rect width="1.58" height="1" x="2.212" y=".948" fill="#FFF" rx=".5"/>
        <circle cx="4.108" cy="4.424" r="2.232" stroke="#FFF" stroke-width=".592"/>
        <g stroke-linecap="round" stroke-linejoin="round" transform="rotate(180 1.975 2.528)">
          <polyline stroke="#FFF" stroke-width=".592" points=".632 0 .632 1.58 1.264 1.053"/>
          <polyline stroke="#FFF" stroke-width=".592" points="0 0 0 1.58 .632 1.053" transform="matrix(-1 0 0 1 .632 0)"/>
        </g>
        <g stroke-linecap="round" stroke-linejoin="round" transform="matrix(-1 0 0 1 5.53 3.792)">
          <polyline stroke="#FFF" stroke-width=".592" points=".632 0 .632 1.58 1.264 1.053"/>
          <polyline stroke="#FFF" stroke-width=".592" points="0 0 0 1.58 .632 1.053" transform="matrix(-1 0 0 1 .632 0)"/>
        </g>
      </g>
    </g>
  </g>
</svg>
