<svg xmlns="http://www.w3.org/2000/svg" xmlns:xlink="http://www.w3.org/1999/xlink" width="16" height="16" viewBox="0 0 16 16">
  <defs>
    <linearGradient id="icon16_06-b" x1="50%" x2="50%" y1="0%" y2="100%">
      <stop offset="0%" stop-color="#DD7853" stop-opacity="0"/>
      <stop offset="100%" stop-color="#E85A42"/>
    </linearGradient>
    <rect id="icon16_06-a" width="16" height="16" x="0" y="0" rx="4"/>
  </defs>
  <g fill="none" fill-rule="evenodd">
    <use fill="#DD7853" xlink:href="#icon16_06-a"/>
    <use fill="url(#icon16_06-b)" xlink:href="#icon16_06-a"/>
    <path stroke="#FFF" stroke-width=".5" d="M4.33563616,6.7572123 L7.33563616,4.09054563 C7.71452218,3.75375806 8.28547782,3.75375806 8.66436384,4.09054563 L11.6643638,6.7572123 C11.8778522,6.94697974 12,7.21898381 12,7.50462162 L12,10.5 C12,11.0522847 11.5522847,11.5 11,11.5 L5,11.5 C4.44771525,11.5 4,11.0522847 4,10.5 L4,7.50462162 C4,7.21898381 4.1221478,6.94697974 4.33563616,6.7572123 Z"/>
    <path fill="#FFF" fill-rule="nonzero" d="M8.025,9.04289322 C8.23210678,9.04289322 8.4,9.21078644 8.4,9.41789322 C8.4,9.625 8.23210678,9.79289322 8.025,9.79289322 C7.81789322,9.79289322 7.65,9.625 7.65,9.41789322 C7.65,9.21078644 7.81789322,9.04289322 8.025,9.04289322 Z M9.06866075,8.54675327 C9.1748295,8.64537965 9.18061274,8.811044 9.08157799,8.91677496 C8.98254324,9.02250591 8.81619294,9.02826531 8.71002419,8.92963893 C8.25768174,8.50943146 7.77099809,8.5015885 7.31744511,8.9046752 C7.20911958,9.00094748 7.04293713,8.9915385 6.94626623,8.88365965 C6.84959532,8.7757808 6.85904326,8.61028361 6.96736879,8.51401133 C7.62456105,7.92994406 8.41845367,7.94273773 9.06866075,8.54675327 Z M9.6730022,7.69012269 C9.77566593,7.79236308 9.77566593,7.95812752 9.6730022,8.06036792 C9.57033847,8.16260832 9.40388767,8.16260832 9.30122393,8.06036792 C8.5825778,7.34468513 7.4174222,7.34468513 6.69877607,8.06036792 C6.59611233,8.16260832 6.42966153,8.16260832 6.3269978,8.06036792 C6.22433407,7.95812752 6.22433407,7.79236308 6.3269978,7.69012269 C7.2509714,6.7699591 8.7490286,6.7699591 9.6730022,7.69012269 Z"/>
  </g>
</svg>
