<svg xmlns="http://www.w3.org/2000/svg" xmlns:xlink="http://www.w3.org/1999/xlink" width="16" height="16" viewBox="0 0 16 16">
  <defs>
    <rect id="icon16_09-a" width="16" height="16" x="0" y="0" rx="4"/>
  </defs>
  <g fill="none" fill-rule="evenodd">
    <mask id="icon16_09-b" fill="#fff">
      <use xlink:href="#icon16_09-a"/>
    </mask>
    <use fill="#5375DD" xlink:href="#icon16_09-a"/>
    <path fill="#FFF" fill-rule="nonzero" d="M8.52,8.784 L8.52,4.392 L7.736,4.392 L7.736,6.224 L6.936,6.224 L6.936,4.528 L6.168,4.528 L6.168,8.736 L6.936,8.736 L6.936,6.896 L7.736,6.896 L7.736,8.784 L8.52,8.784 Z M3.44222222,8.44711111 C3.61940741,8.44592593 3.78533333,8.44355556 3.94,8.44 C4.172,8.43466667 4.392,8.42666667 4.6,8.416 C4.808,8.40533333 5.00933333,8.388 5.204,8.364 C5.39866667,8.34 5.6,8.30933333 5.808,8.272 L5.808,8.272 L5.72,7.6 C5.544,7.632 5.37066667,7.65866667 5.2,7.68 C5.02933333,7.70133333 4.85466667,7.72 4.676,7.736 C4.49733333,7.752 4.31066667,7.76266667 4.116,7.768 C3.92133333,7.77333333 3.70933333,7.776 3.48,7.776 L3.48,7.776 L3.48,6.968 L5.416,6.968 L5.416,6.328 L3.48,6.328 L3.48,5.568 L5.496,5.568 L5.496,4.904 L2.68,4.904 L2.68,8.448 L3.44222222,8.44711111 Z M8.52,11.624 L8.52,9.136 L3.616,9.136 L3.616,9.8 L7.696,9.8 L7.696,11.624 L8.52,11.624 Z M13.3218462,11 L13.3218462,10.232 L12.2098462,10.232 L12.2098462,5.072 L11.4898462,5.072 L9.88984615,6.44 L10.3778462,7.032 L11.3378462,6.224 C11.3325128,6.29333333 11.3298462,6.36133333 11.3298462,6.428 L11.3298462,6.428 L11.3298462,10.232 L10.0978462,10.232 L10.0978462,11 L13.3218462,11 Z" mask="url(#icon16_09-b)"/>
  </g>
</svg>
