<?xml version="1.0" encoding="UTF-8"?>
<svg width="78px" height="78px" viewBox="0 0 78 78" version="1.1" xmlns="http://www.w3.org/2000/svg" xmlns:xlink="http://www.w3.org/1999/xlink">
    <title>Group</title>
    <defs>
        <path d="M47.8295455,29.2766585 L48.00768,29.2808214 C50.0148693,29.3748341 51.6136364,31.0493694 51.6136364,33.1013204 L51.6136364,33.1013204 L51.6136364,68.7981647 L51.6095176,68.9782091 C51.5165022,71.0069184 49.8597298,72.6228266 47.8295455,72.6228266 L47.8295455,72.6228266 L32.667,72.622 L32.556493,72.8598681 L32.551847,72.8693048 L32.5515674,73.7251127 L32.5457932,73.8478929 C32.484672,74.4943898 31.9458573,75 31.2902038,75 L31.2902038,75 L21.2273243,75 L21.1058466,74.9941639 C20.4662075,74.9323874 19.9659607,74.3877958 19.9659607,73.7251127 L19.9659607,73.7251127 L19.9659607,54.349442 L19.9717666,54.227227 C19.9987427,53.9440335 20.1188935,53.6767517 20.3148338,53.4692438 L20.3148338,53.4692438 L25.545,47.928 L25.5454545,33.1013204 L25.5495733,32.9212759 C25.6425887,30.8925666 27.2993611,29.2766585 29.3295455,29.2766585 L29.3295455,29.2766585 L47.8295455,29.2766585 Z M25.545,51.622 L22.4886879,54.8602468 L22.4886879,72.4494419 L30.0344914,72.4491578 C30.0495199,72.2892357 30.0943563,72.1332471 30.1670085,71.9895569 C31.6317406,69.0926363 31.6317406,66.7268617 30.2520593,64.7062412 C29.9040831,64.1966106 29.9687334,63.5079531 30.4053328,63.0735652 L30.4053328,63.0735652 L30.5870912,62.8920628 L33.1695296,60.2778702 L34.3787989,59.0671369 C34.935393,58.5189325 34.935393,57.6246023 34.3724697,57.0623118 C33.9625029,56.6528058 33.0159075,56.7953788 32.3720412,57.4211335 L32.3720412,57.4211335 L26.1298825,63.3722793 C25.622284,63.8545109 24.8240151,63.8295351 24.346899,63.3164945 C23.8697828,62.8034538 23.8944937,61.9966263 24.4020921,61.5143948 L24.4020921,61.5143948 L25.545,60.424 L25.545,51.622 Z M38.5795455,2 C44.1526007,2 48.6704545,6.56629188 48.6704545,12.1990984 C48.6704545,12.7373443 48.6292026,13.2658521 48.5499835,13.7805967 C53.4133942,15.3703257 57.8270301,18.1090987 61.4384915,21.751366 C62.7859608,21.0772365 64.303748,20.698347 65.9090909,20.698347 C71.4821461,20.698347 76,25.2646389 76,30.8974454 C76,34.8269402 73.8013507,38.2374072 70.5817179,39.9404785 C70.8292996,41.5784795 70.9545455,43.2420086 70.9545455,44.9212057 C70.9545455,47.4056812 70.6803446,49.8541649 70.1409675,52.2331609 C73.6001296,53.8505236 76,57.3893674 76,61.4947406 C76,67.1275471 71.4821461,71.6938389 65.9090909,71.6938389 C60.3360357,71.6938389 55.8181818,67.1275471 55.8181818,61.4947406 C55.8181818,55.8619341 60.3360357,51.2956422 65.9090909,51.2956422 C66.5299488,51.2956422 67.1377109,51.3523132 67.7287445,51.4620518 C68.1943837,49.3323565 68.4318182,47.143147 68.4318182,44.9212057 C68.4318182,43.5473093 68.3410482,42.1854499 68.1608553,40.8416673 C67.4368068,41.0084595 66.6831264,41.0965438 65.9090909,41.0965438 C60.3360357,41.0965438 55.8181818,36.5302519 55.8181818,30.8974454 C55.8181818,27.8226299 57.1644161,25.0656154 59.2949351,23.1957572 C56.0514642,20.0353958 52.1414737,17.6475693 47.8506685,16.2324691 C46.304064,19.8592902 42.7351562,22.3981968 38.5795455,22.3981968 C34.4235508,22.3981968 30.8543677,19.8588212 29.3085537,16.2318809 C25.0480076,17.6375414 21.1636762,20.0014627 17.9361671,23.1277561 C20.0213603,25.0007456 21.3409091,27.7901798 21.3409091,30.8974454 C21.3409091,36.5167151 17.0254356,41.0965438 11.6704545,41.0965438 C6.31547348,41.0965438 2,36.5167151 2,30.8974454 C2,25.2781758 6.31547348,20.698347 11.6704545,20.698347 C13.1486977,20.698347 14.5477265,21.0473468 15.7986306,21.6708371 C19.395896,18.0697911 23.7806958,15.3587825 28.6092169,13.7805686 C28.529835,13.2651693 28.4886364,12.7369966 28.4886364,12.1990984 C28.4886364,6.56629188 33.0064903,2 38.5795455,2 Z M47.8295455,31.8264331 L29.3295455,31.8264331 L29.2080677,31.8322691 C28.5684286,31.8940457 28.0681818,32.4386372 28.0681818,33.1013204 L28.0681818,33.1013204 L28.068,58.019 L30.6234954,55.5831926 C32.1027734,54.1455258 34.4564559,53.7505267 35.9901031,55.10262 L36.1457616,55.2487528 C37.7100418,56.8112745 37.7100418,59.3463164 36.1394324,60.8932515 L36.1394324,60.8932515 L35.9480903,61.0824686 L32.8814834,64.1805229 L32.995826,64.4093166 C33.8319087,66.1454536 34.0117228,68.0456875 33.552062,70.0732931 L47.8295455,70.073052 L47.9510232,70.0672159 C48.5906623,70.0054393 49.0909091,69.4608478 49.0909091,68.7981647 L49.0909091,68.7981647 L49.0909091,33.1013204 L49.0851349,32.9785402 C49.0240137,32.3320432 48.485199,31.8264331 47.8295455,31.8264331 L47.8295455,31.8264331 Z M65.9090909,53.8454168 C61.7292995,53.8454168 58.3409091,57.2701357 58.3409091,61.4947406 C58.3409091,65.7193454 61.7292995,69.1440643 65.9090909,69.1440643 C70.0888823,69.1440643 73.4772727,65.7193454 73.4772727,61.4947406 C73.4772727,57.2701357 70.0888823,53.8454168 65.9090909,53.8454168 Z M39.8409091,65.3984652 L39.9623868,65.4043013 C40.6020259,65.4660779 41.1022727,66.0106694 41.1022727,66.6733525 C41.1022727,67.3774533 40.537541,67.9482398 39.8409091,67.9482398 L39.8409091,67.9482398 L37.3181818,67.9482398 L37.1967041,67.9424037 C36.557065,67.8806272 36.0568182,67.3360356 36.0568182,66.6733525 C36.0568182,65.9692517 36.6215499,65.3984652 37.3181818,65.3984652 L37.3181818,65.3984652 L39.8409091,65.3984652 Z M8.00103471,52.3657557 C8.66802005,52.1625364 9.37171273,52.5442901 9.5727763,53.2184265 C9.77383987,53.8925629 9.39613565,54.6038002 8.72915031,54.8070195 C8.06216497,55.0102388 7.35847229,54.628485 7.15740872,53.9543486 C6.95634515,53.2802122 7.33404937,52.5689749 8.00103471,52.3657557 Z M38.5707555,48.7035125 C39.863035,48.7035125 41.0756036,49.2377042 41.9958846,50.1713934 C42.4875409,50.670213 42.4860234,51.4774255 41.9924952,51.9743531 C41.498967,52.4712806 40.7003171,52.4697469 40.2086608,51.9709273 C39.7511004,51.5067003 39.1758744,51.2532871 38.5707555,51.2532871 C37.9709651,51.2532871 37.4006115,51.5021875 36.9448327,51.9588462 C36.4500926,52.4545413 35.651449,52.4510155 35.1610121,51.9509711 C34.6705753,51.4509267 34.6740637,50.6437204 35.1688037,50.1480254 C36.0865199,49.2285377 37.2896115,48.7035125 38.5707555,48.7035125 Z M7.14433164,47.3285818 C7.83514247,47.2377494 8.46800836,47.7301322 8.55787717,48.4283496 C8.64774598,49.1265669 8.16058622,49.766218 7.46977539,49.8570504 C6.77896456,49.9478827 6.14609867,49.4554999 6.05622986,48.7572826 C5.96636105,48.0590652 6.45352081,47.4194141 7.14433164,47.3285818 Z M38.5590356,44.575306 C41.1162473,44.575306 43.520679,45.6345677 45.359521,47.500201 C45.8511773,47.9990205 45.8496598,48.8062331 45.3561315,49.3031606 C44.8626033,49.8000882 44.0639535,49.7985544 43.5722972,49.2997349 C42.1961758,47.9035638 40.4290868,47.1250806 38.5590356,47.1250806 C36.705289,47.1250806 34.9526385,47.8899314 33.5811963,49.264021 C33.0864563,49.7597161 32.2878126,49.7561903 31.7973757,49.2561459 C31.3069389,48.7561015 31.3104273,47.9488952 31.8051673,47.4532002 C33.6385469,45.6162816 36.0239353,44.575306 38.5590356,44.575306 Z M7.10015953,42.2235535 C7.79645286,42.2455028 8.34330546,42.8338053 8.32158901,43.5375639 C8.29987256,44.2413225 7.71781062,44.7940382 7.0215173,44.7720889 C6.32522397,44.7501396 5.77837136,44.1618371 5.80008781,43.4580785 C5.82180427,42.7543199 6.4038662,42.2016043 7.10015953,42.2235535 Z M65.9090909,23.2481216 C61.7292995,23.2481216 58.3409091,26.6728405 58.3409091,30.8974454 C58.3409091,35.1220503 61.7292995,38.5467692 65.9090909,38.5467692 C70.0888823,38.5467692 73.4772727,35.1220503 73.4772727,30.8974454 C73.4772727,26.6728405 70.0888823,23.2481216 65.9090909,23.2481216 Z M11.6704545,23.2481216 C7.73701027,23.2481216 4.52272727,26.6593037 4.52272727,30.8974454 C4.52272727,35.1355871 7.73701027,38.5467692 11.6704545,38.5467692 C15.6038988,38.5467692 18.8181818,35.1355871 18.8181818,30.8974454 C18.8181818,26.6593037 15.6038988,23.2481216 11.6704545,23.2481216 Z M38.5795455,4.5497746 C34.3997541,4.5497746 31.0113636,7.97449351 31.0113636,12.1990984 C31.0113636,16.4237033 34.3997541,19.8484222 38.5795455,19.8484222 C42.7593369,19.8484222 46.1477273,16.4237033 46.1477273,12.1990984 C46.1477273,7.97449351 42.7593369,4.5497746 38.5795455,4.5497746 Z" id="path-1"></path>
        <filter x="-2.7%" y="-2.7%" width="105.4%" height="105.5%" filterUnits="objectBoundingBox" id="filter-2">
            <feGaussianBlur stdDeviation="1.5" in="SourceAlpha" result="shadowBlurInner1"></feGaussianBlur>
            <feOffset dx="0" dy="1" in="shadowBlurInner1" result="shadowOffsetInner1"></feOffset>
            <feComposite in="shadowOffsetInner1" in2="SourceAlpha" operator="arithmetic" k2="-1" k3="1" result="shadowInnerInner1"></feComposite>
            <feColorMatrix values="0 0 0 0 0   0 0 0 0 0   0 0 0 0 0  0 0 0 0.5 0" type="matrix" in="shadowInnerInner1"></feColorMatrix>
        </filter>
    </defs>
    <g id="필터" stroke="none" stroke-width="1" fill="none" fill-rule="evenodd">
        <g id="00_Filter_Full" transform="translate(-252.000000, -69.000000)">
            <g id="Group" transform="translate(252.000000, 69.000000)">
                <rect id="Rectangle" fill-opacity="0" fill="#D8D8D8" x="0" y="0" width="78" height="78" rx="1"></rect>
                <g id="Combined-Shape" opacity="0.300000012" fill-rule="nonzero">
                    <use fill="#C8C8C8" xlink:href="#path-1"></use>
                    <use fill="black" fill-opacity="1" filter="url(#filter-2)" xlink:href="#path-1"></use>
                </g>
                <path d="M11.3465493,28 C13.7634017,28 15.3600156,29.9337838 14.9300782,32.3192512 C14.8512408,32.7566734 14.3987166,33.0529574 13.9193371,32.9810202 C13.4399577,32.9090829 13.1152543,32.4961655 13.1940917,32.0587433 C13.3806723,31.023518 13.0110063,30.2154415 12.3181655,29.8381917 L12.2262022,29.7914456 L12.2262022,34.03512 C12.2262022,34.1442654 12.2023278,34.2483226 12.1590843,34.3431808 C12.018521,34.8658761 11.5920134,35.374806 10.9574914,35.6957432 C9.89522445,36.2330311 8.65221792,36.0399752 8.18115859,35.2645408 C7.71009925,34.4891064 8.18936769,33.4249348 9.25163462,32.8876469 C9.64801786,32.6871588 10.0695672,32.5883636 10.4667839,32.5835734 L10.4668964,28.8026621 C10.4668964,28.3593641 10.8607304,28 11.3465493,28 Z" id="Combined-Shape" fill="#FE8578"></path>
                <path d="M36,9.77868856 L36,15.2213114 C36,15.8213924 36.7325626,16.1952781 37.3158871,15.8929147 L42.5658871,13.1716033 C43.1447043,12.8715763 43.1447043,12.1284237 42.5658871,11.8283967 L37.3158871,9.1070853 C36.7325626,8.80472191 36,9.17860763 36,9.77868856 Z M37.749125,11.1315691 L40.389,12.5 L37.749125,13.8676534 L37.749125,11.1315691 Z" id="Path-5" fill="#FE8578" fill-rule="nonzero"></path>
                <path d="M65.1598758,28 C65.6462017,28 66.0404467,28.3646818 66.0404467,28.8145396 C66.0404467,29.2322647 65.7005109,29.5765472 65.262569,29.6235991 L65.1598758,29.6290791 L65.049,29.629 L66.5595961,32.364303 L68.005,29.629 L67.8401242,29.6290791 C67.3537983,29.6290791 66.9595533,29.2643974 66.9595533,28.8145396 C66.9595533,28.3968145 67.2994891,28.052532 67.737431,28.00548 L67.8401242,28 L70.1194291,28 C70.605755,28 71,28.3646818 71,28.8145396 C71,29.2322647 70.6600642,29.5765472 70.2221223,29.6235991 L70.1194291,29.6290791 L69.9654483,29.6294955 C69.9611525,29.6384064 69.9566695,29.6472811 69.9519979,29.6561158 L67.3677404,34.5433533 C67.0488983,35.1463339 66.1226923,35.1537875 65.7925571,34.5560296 L63.0933892,29.6687921 L63.075,29.629 L62.8805709,29.6290791 C62.394245,29.6290791 62,29.2643974 62,28.8145396 C62,28.3968145 62.3399358,28.052532 62.7778777,28.00548 L62.8805709,28 L65.1598758,28 Z" id="Combined-Shape" fill="#FE8578" fill-rule="nonzero"></path>
                <path d="M66.5,61 C67.0917337,61 67.5714286,61.4477153 67.5714286,62 C67.5714286,62.5522847 67.0917337,63 66.5,63 C65.9082663,63 65.4285714,62.5522847 65.4285714,62 C65.4285714,61.4477153 65.9082663,61 66.5,61 Z M63.0714286,61 C63.6631622,61 64.1428571,61.4477153 64.1428571,62 C64.1428571,62.5522847 63.6631622,63 63.0714286,63 C62.4796949,63 62,62.5522847 62,62 C62,61.4477153 62.4796949,61 63.0714286,61 Z M69.9285714,61 C70.5203051,61 71,61.4477153 71,62 C71,62.5522847 70.5203051,63 69.9285714,63 C69.3368378,63 68.8571429,62.5522847 68.8571429,62 C68.8571429,61.4477153 69.3368378,61 69.9285714,61 Z" id="Combined-Shape" fill="#FE8578"></path>
            </g>
        </g>
    </g>
</svg>