<?xml version="1.0" encoding="UTF-8"?>
<svg width="52px" height="52px" viewBox="0 0 52 52" version="1.1" xmlns="http://www.w3.org/2000/svg" xmlns:xlink="http://www.w3.org/1999/xlink">
    <title>Slice</title>
    <defs>
        <path d="M16.338961,14.8672257 C16.8584416,15.0186606 17.2792208,15.1576827 17.2792208,15.1576827 C16.9883117,16.5901076 17.8636364,18.7921194 19.6272727,19.3854461 C20.3207792,19.6212873 20.7311688,19.983738 21.0844156,20.500106 C21.5571429,21.1852867 21.7961039,22.0492102 21.7961039,22.7790765 L21.7961039,25.9368658 C21.7961039,27.8931063 22.7415584,29.4868961 24.3,29.9412007 L21.8948052,30.7356131 C21.4142857,30.8944956 20.9415584,30.730648 20.6558442,30.5543878 C19.487013,29.8369341 18.8688312,28.7272393 18.8688312,27.0167701 L18.8683784,26.5499745 C18.8671139,25.8054759 18.8636364,24.8607981 18.8636364,23.7050635 C18.8636364,22.8957559 18.5051948,21.9548737 17.9493506,21.2597629 C17.5337662,20.7334647 17.0506494,20.4057695 16.4376623,20.1972363 C15.2532468,19.7925825 14.3,18.3254021 14.3,16.8830471 C14.3,15.6442603 14.9597403,14.8622606 15.8350649,14.8026797 C16.0246753,14.790267 16.1857143,14.82254 16.338961,14.8672257 Z M19.3582278,13.2 C19.5004992,13.2 19.6677304,13.2272235 19.7800499,13.2643465 L28.5933856,15.9965971 C30.1259226,16.5039443 30.7,18.320495 30.7,19.3030162 C30.7,20.1023975 30.4229453,21.0230472 29.5693172,21.3299304 C29.2838385,21.4338747 28.7846018,21.612645 28.272071,21.7955046 L27.9306142,21.9172406 C27.1960567,22.1789508 26.5267071,22.416396 26.5267071,22.416396 C26.4443395,22.6119103 26.3095561,22.9781903 26.3095561,23.787471 L26.3092695,24.0270971 C26.3081722,24.6474807 26.3042217,26.0355367 26.3026854,26.7671939 L26.3020681,27.170611 L26.3020681,27.170611 C26.3020681,28.2323279 25.7853985,29.2 24.791995,29.2 C24.365181,29.2 23.8734712,28.999536 23.489089,28.633256 L23.489089,24.8788863 C23.489089,23.879041 23.7711357,23.0128384 24.5099483,22.745553 L27.6623819,21.6318639 C27.7422535,21.4363496 27.8895168,21.045321 27.8770369,20.4934261 C27.8395971,18.5952049 26.7887859,17.2167053 25.3386165,16.7440062 L16.7,14.0662026 L18.9538777,13.2668213 C19.0736851,13.2222738 19.2259405,13.2 19.3582278,13.2 Z" id="path-1"></path>
        <filter x="-12.2%" y="-11.4%" width="124.4%" height="122.7%" filterUnits="objectBoundingBox" id="filter-2">
            <feGaussianBlur stdDeviation="1.5" in="SourceAlpha" result="shadowBlurInner1"></feGaussianBlur>
            <feOffset dx="0" dy="1" in="shadowBlurInner1" result="shadowOffsetInner1"></feOffset>
            <feComposite in="shadowOffsetInner1" in2="SourceAlpha" operator="arithmetic" k2="-1" k3="1" result="shadowInnerInner1"></feComposite>
            <feColorMatrix values="0 0 0 0 0   0 0 0 0 0   0 0 0 0 0  0 0 0 0.5 0" type="matrix" in="shadowInnerInner1"></feColorMatrix>
        </filter>
        <path d="M39,5.5 C41.4142733,5.5 43.3844891,7.40123652 43.495102,9.7881643 L43.5,10 L43.500706,24.3347611 C48.180394,26.1414892 51.5,30.6830768 51.5,36 C51.5,42.9035594 45.9035594,48.5 39,48.5 C32.9529678,48.5 27.908826,44.2061157 26.7502536,38.5010262 L5,38.5 C2.58572667,38.5 0.615510911,36.5987635 0.50489799,34.2118357 L0.5,34 L0.5,10 C0.5,7.58572667 2.40123652,5.61551091 4.7881643,5.50489799 L5,5.5 L39,5.5 Z M39,26.5 C33.7532949,26.5 29.5,30.7532949 29.5,36 C29.5,41.2467051 33.7532949,45.5 39,45.5 C44.2467051,45.5 48.5,41.2467051 48.5,36 C48.5,30.7532949 44.2467051,26.5 39,26.5 Z M39.14446,8.50686658 L39,8.5 L5,8.5 C4.22030388,8.5 3.57955132,9.09488808 3.50686658,9.85553999 L3.5,10 L3.5,34 C3.5,34.7796961 4.09488808,35.4204487 4.85553999,35.4931334 L5,35.5 L26.5098052,35.5003068 C26.7721008,28.8283967 32.2637935,23.5 39,23.5 C39.5079783,23.5 40.0088795,23.5303009 40.5009946,23.589194 L40.5,10 C40.5,9.22030388 39.9051119,8.57955132 39.14446,8.50686658 Z" id="path-3"></path>
        <filter x="-3.9%" y="-4.7%" width="107.8%" height="109.3%" filterUnits="objectBoundingBox" id="filter-4">
            <feGaussianBlur stdDeviation="1.5" in="SourceAlpha" result="shadowBlurInner1"></feGaussianBlur>
            <feOffset dx="0" dy="1" in="shadowBlurInner1" result="shadowOffsetInner1"></feOffset>
            <feComposite in="shadowOffsetInner1" in2="SourceAlpha" operator="arithmetic" k2="-1" k3="1" result="shadowInnerInner1"></feComposite>
            <feColorMatrix values="0 0 0 0 0   0 0 0 0 0   0 0 0 0 0  0 0 0 0.5 0" type="matrix" in="shadowInnerInner1"></feColorMatrix>
        </filter>
        <path d="M42.5156476,37.3851174 C42.843907,36.624501 43.7266152,36.2740065 44.4872316,36.6022659 C45.247848,36.9305253 45.5983426,37.8132335 45.2700831,38.5738499 C44.2503021,40.9368048 41.9185683,42.5 39.3,42.5 C36.7080417,42.5 34.3954597,40.9683759 33.359585,38.6415296 C33.0226615,37.8847112 33.3630537,36.9980583 34.1198721,36.6611348 C34.8766905,36.3242114 35.7633434,36.6646035 36.1002669,37.4214219 C36.6584809,38.675317 37.9036605,39.5 39.3,39.5 C40.7106072,39.5 41.966202,38.6582488 42.5156476,37.3851174 Z" id="path-5"></path>
        <filter x="-16.4%" y="-33.2%" width="132.9%" height="166.4%" filterUnits="objectBoundingBox" id="filter-6">
            <feGaussianBlur stdDeviation="1.5" in="SourceAlpha" result="shadowBlurInner1"></feGaussianBlur>
            <feOffset dx="0" dy="1" in="shadowBlurInner1" result="shadowOffsetInner1"></feOffset>
            <feComposite in="shadowOffsetInner1" in2="SourceAlpha" operator="arithmetic" k2="-1" k3="1" result="shadowInnerInner1"></feComposite>
            <feColorMatrix values="0 0 0 0 0   0 0 0 0 0   0 0 0 0 0  0 0 0 0.5 0" type="matrix" in="shadowInnerInner1"></feColorMatrix>
        </filter>
    </defs>
    <g id="Page-1" stroke="none" stroke-width="1" fill="none" fill-rule="evenodd" opacity="0.300000012">
        <g id="Group" fill-rule="nonzero">
            <g>
                <g id="Combined-Shape">
                    <use fill="#C8C8C8" xlink:href="#path-1"></use>
                    <use fill="black" fill-opacity="1" filter="url(#filter-2)" xlink:href="#path-1"></use>
                </g>
                <g id="Combined-Shape">
                    <use fill="#C8C8C8" xlink:href="#path-3"></use>
                    <use fill="black" fill-opacity="1" filter="url(#filter-4)" xlink:href="#path-3"></use>
                </g>
                <g id="Path">
                    <use fill="#C8C8C8" xlink:href="#path-5"></use>
                    <use fill="black" fill-opacity="1" filter="url(#filter-6)" xlink:href="#path-5"></use>
                </g>
            </g>
        </g>
    </g>
</svg>