<?xml version="1.0" encoding="UTF-8"?>
<svg width="52px" height="52px" viewBox="0 0 52 52" version="1.1" xmlns="http://www.w3.org/2000/svg" xmlns:xlink="http://www.w3.org/1999/xlink">
    <title>Slice</title>
    <defs>
        <path d="M39,0.5 C41.4142733,0.5 43.3844891,2.40123652 43.495102,4.7881643 L43.5,5 L43.500706,19.3347611 C48.180394,21.1414892 51.5,25.6830768 51.5,31 C51.5,37.9035594 45.9035594,43.5 39,43.5 C32.9529678,43.5 27.908826,39.2061157 26.7502536,33.5010262 L5,33.5 C2.58572667,33.5 0.615510911,31.5987635 0.50489799,29.2118357 L0.5,29 L0.5,5 C0.5,2.58572667 2.40123652,0.615510911 4.7881643,0.50489799 L5,0.5 L39,0.5 Z M39,21.5 C33.7532949,21.5 29.5,25.7532949 29.5,31 C29.5,36.2467051 33.7532949,40.5 39,40.5 C44.2467051,40.5 48.5,36.2467051 48.5,31 C48.5,25.7532949 44.2467051,21.5 39,21.5 Z M39,3.5 L5,3.5 C4.22030388,3.5 3.57955132,4.09488808 3.50686658,4.85553999 L3.5,5 L3.5,29 C3.5,29.7796961 4.09488808,30.4204487 4.85553999,30.4931334 L5,30.5 L26.5098052,30.5003068 C26.5577534,29.280667 26.7804505,28.1059229 27.1535543,27.0004167 L18.6626913,27.0010375 C18.1007474,28.1829519 16.8957896,29 15.5,29 C14.1042104,29 12.8992526,28.1829519 12.3373087,27.0010375 L8,27 C7.17157288,27 6.5,26.3284271 6.5,25.5 C6.5,24.7203039 7.09488808,24.0795513 7.85553999,24.0068666 L8,24 L12.3368314,23.9999667 C12.8985702,22.817511 14.1038151,22 15.5,22 C16.8961849,22 18.1014298,22.817511 18.6631686,23.9999667 L28.6423813,23.9999278 C30.8896931,20.6811999 34.6901233,18.5 39,18.5 C39.5079783,18.5 40.0088795,18.5303009 40.5009946,18.589194 L40.5,5 C40.5,4.22030388 39.9051119,3.57955132 39.14446,3.50686658 L39,3.5 Z M15.5,24.625 C15.0167508,24.625 14.625,25.0167508 14.625,25.5 C14.625,25.9832492 15.0167508,26.375 15.5,26.375 C15.9832492,26.375 16.375,25.9832492 16.375,25.5 C16.375,25.0167508 15.9832492,24.625 15.5,24.625 Z M20.8656424,7.97987958 C21.3341916,7.97987958 21.7933107,8.1115532 22.1906397,8.35988382 L22.1906397,8.35988382 L27.3038435,11.5556362 C28.4746848,12.287412 28.8306177,13.829788 28.0988419,15.0006293 C27.8976401,15.3225521 27.6257663,15.5944259 27.3038435,15.7956277 L27.3038435,15.7956277 L22.1906397,18.9913801 C21.0197984,19.7231559 19.4774224,19.367223 18.7456466,18.1963816 C18.497316,17.7990526 18.3656424,17.3399336 18.3656424,16.8713843 L18.3656424,16.8713843 L18.3656424,10.4798796 C18.3656424,9.09916771 19.4849305,7.97987958 20.8656424,7.97987958 Z M21.3656424,11.3817775 L21.3656424,15.9680721 L25.0348194,13.6749248 L21.3656424,11.3817775 Z" id="path-1"></path>
        <filter x="-3.9%" y="-4.7%" width="107.8%" height="109.3%" filterUnits="objectBoundingBox" id="filter-2">
            <feGaussianBlur stdDeviation="1.5" in="SourceAlpha" result="shadowBlurInner1"></feGaussianBlur>
            <feOffset dx="0" dy="1" in="shadowBlurInner1" result="shadowOffsetInner1"></feOffset>
            <feComposite in="shadowOffsetInner1" in2="SourceAlpha" operator="arithmetic" k2="-1" k3="1" result="shadowInnerInner1"></feComposite>
            <feColorMatrix values="0 0 0 0 0   0 0 0 0 0   0 0 0 0 0  0 0 0 0.5 0" type="matrix" in="shadowInnerInner1"></feColorMatrix>
        </filter>
        <path d="M11,0.5 C13.4852814,0.5 15.5,2.51471863 15.5,5 C15.5,7.48528137 13.4852814,9.5 11,9.5 C9.84733525,9.5 8.79589193,9.06661957 7.9997242,8.3539129 C7.20499535,9.06625377 6.1531511,9.5 5,9.5 C2.51471863,9.5 0.5,7.48528137 0.5,5 C0.5,2.51471863 2.51471863,0.5 5,0.5 C6.14884795,0.5 7.20058723,0.931623672 7.99812157,1.64885735 C8.79323021,0.934478287 9.84587618,0.5 11,0.5 Z M11,3.5 C10.1715729,3.5 9.5,4.17157288 9.5,5 C9.5,5.82842712 10.1715729,6.5 11,6.5 C11.8284271,6.5 12.5,5.82842712 12.5,5 C12.5,4.17157288 11.8284271,3.5 11,3.5 Z M5,3.5 C4.17157288,3.5 3.5,4.17157288 3.5,5 C3.5,5.82842712 4.17157288,6.5 5,6.5 C5.77969612,6.5 6.42044868,5.90511192 6.49365501,5.18057484 L6.50062562,5.04331839 L6.49741888,4.91049368 C6.45170322,4.12149446 5.79537884,3.5 5,3.5 Z" id="path-3"></path>
        <filter x="-13.3%" y="-22.2%" width="126.7%" height="144.4%" filterUnits="objectBoundingBox" id="filter-4">
            <feGaussianBlur stdDeviation="1.5" in="SourceAlpha" result="shadowBlurInner1"></feGaussianBlur>
            <feOffset dx="0" dy="1" in="shadowBlurInner1" result="shadowOffsetInner1"></feOffset>
            <feComposite in="shadowOffsetInner1" in2="SourceAlpha" operator="arithmetic" k2="-1" k3="1" result="shadowInnerInner1"></feComposite>
            <feColorMatrix values="0 0 0 0 0   0 0 0 0 0   0 0 0 0 0  0 0 0 0.5 0" type="matrix" in="shadowInnerInner1"></feColorMatrix>
        </filter>
    </defs>
    <g id="Page-1" stroke="none" stroke-width="1" fill="none" fill-rule="evenodd" opacity="0.300000012">
        <g id="Group" fill-rule="nonzero">
            <g>
                <g id="Combined-Shape" transform="translate(0.000000, 5.000000)">
                    <use fill="#C8C8C8" xlink:href="#path-1"></use>
                    <use fill="black" fill-opacity="1" filter="url(#filter-2)" xlink:href="#path-1"></use>
                </g>
                <g id="Combined-Shape" transform="translate(31.000000, 31.000000)">
                    <use fill="#C8C8C8" xlink:href="#path-3"></use>
                    <use fill="black" fill-opacity="1" filter="url(#filter-4)" xlink:href="#path-3"></use>
                </g>
            </g>
        </g>
    </g>
</svg>