<?xml version="1.0" encoding="UTF-8"?>
<svg width="52px" height="52px" viewBox="0 0 52 52" version="1.1" xmlns="http://www.w3.org/2000/svg" xmlns:xlink="http://www.w3.org/1999/xlink">
    <title>Slice</title>
    <defs>
        <path d="M23,0.5 C25.4142733,0.5 27.3844891,2.40123652 27.495102,4.7881643 L27.5,5 L27.5009946,9.58919397 C30.0765118,9.89741455 32.4113781,10.9887786 34.2606317,12.6183244 L35.1970917,11.6819675 C34.7530937,10.8885511 34.5,9.97383217 34.5,9 C34.5,5.96243388 36.9624339,3.5 40,3.5 C43.0375661,3.5 45.5,5.96243388 45.5,9 C45.5,12.0375661 43.0375661,14.5 40,14.5 C39.0261678,14.5 38.1114489,14.2469063 37.3180325,13.8029083 L36.261488,14.8600176 C37.672543,16.884176 38.5,19.3454566 38.5,22 C38.5,25.3250975 37.2017016,28.3469611 35.0843773,30.5863183 L38.4298927,32.8160441 C39.3906499,31.9954602 40.6374645,31.5 42,31.5 C45.0375661,31.5 47.5,33.9624339 47.5,37 C47.5,40.0375661 45.0375661,42.5 42,42.5 C38.9624339,42.5 36.5,40.0375661 36.5,37 C36.5,36.4113386 36.5924792,35.8442769 36.7637017,35.3125509 L32.6616737,32.5788843 C31.1332509,33.5433774 29.3812531,34.1857893 27.5009946,34.410806 L27.5,39 C27.5,41.4142733 25.5987635,43.3844891 23.2118357,43.495102 L23,43.5 L5,43.5 C2.58572667,43.5 0.615510911,41.5987635 0.50489799,39.2118357 L0.5,39 L0.5,5 C0.5,2.58572667 2.40123652,0.615510911 4.7881643,0.50489799 L5,0.5 L23,0.5 Z M23,3.5 L5,3.5 C4.22030388,3.5 3.57955132,4.09488808 3.50686658,4.85553999 L3.5,5 L3.5,39 C3.5,39.7796961 4.09488808,40.4204487 4.85553999,40.4931334 L5,40.5 L23,40.5 C23.7796961,40.5 24.4204487,39.9051119 24.4931334,39.14446 L24.5,39 L24.5000036,34.4109254 C18.3036619,33.6698937 13.5,28.3959245 13.5,22 C13.5,15.6040755 18.3036619,10.3301063 24.5000036,9.58907455 L24.5,5 C24.5,4.22030388 23.9051119,3.57955132 23.14446,3.50686658 L23,3.5 Z M42,34.5 C40.6192881,34.5 39.5,35.6192881 39.5,37 C39.5,38.3807119 40.6192881,39.5 42,39.5 C43.3807119,39.5 44.5,38.3807119 44.5,37 C44.5,35.6192881 43.3807119,34.5 42,34.5 Z M26,12.5 C20.7532949,12.5 16.5,16.7532949 16.5,22 C16.5,27.2467051 20.7532949,31.5 26,31.5 C31.2467051,31.5 35.5,27.2467051 35.5,22 C35.5,16.7532949 31.2467051,12.5 26,12.5 Z M40,6.5 C38.6192881,6.5 37.5,7.61928813 37.5,9 C37.5,10.3807119 38.6192881,11.5 40,11.5 C41.3807119,11.5 42.5,10.3807119 42.5,9 C42.5,7.61928813 41.3807119,6.5 40,6.5 Z" id="path-1"></path>
        <filter x="-4.3%" y="-4.7%" width="108.5%" height="109.3%" filterUnits="objectBoundingBox" id="filter-2">
            <feGaussianBlur stdDeviation="1.5" in="SourceAlpha" result="shadowBlurInner1"></feGaussianBlur>
            <feOffset dx="0" dy="1" in="shadowBlurInner1" result="shadowOffsetInner1"></feOffset>
            <feComposite in="shadowOffsetInner1" in2="SourceAlpha" operator="arithmetic" k2="-1" k3="1" result="shadowInnerInner1"></feComposite>
            <feColorMatrix values="0 0 0 0 0   0 0 0 0 0   0 0 0 0 0  0 0 0 0.5 0" type="matrix" in="shadowInnerInner1"></feColorMatrix>
        </filter>
        <rect id="path-3" x="11" y="35" width="6" height="3" rx="1.5"></rect>
        <filter x="-33.3%" y="-66.7%" width="166.7%" height="233.3%" filterUnits="objectBoundingBox" id="filter-4">
            <feGaussianBlur stdDeviation="1.5" in="SourceAlpha" result="shadowBlurInner1"></feGaussianBlur>
            <feOffset dx="0" dy="1" in="shadowBlurInner1" result="shadowOffsetInner1"></feOffset>
            <feComposite in="shadowOffsetInner1" in2="SourceAlpha" operator="arithmetic" k2="-1" k3="1" result="shadowInnerInner1"></feComposite>
            <feColorMatrix values="0 0 0 0 0   0 0 0 0 0   0 0 0 0 0  0 0 0 0.5 0" type="matrix" in="shadowInnerInner1"></feColorMatrix>
        </filter>
        <path d="M26.9907078,28.4789916 C27.6534485,28.4789916 28.1907059,29.0433386 28.1907059,29.7394958 C28.1907059,30.435653 27.6534485,31 26.9907078,31 C26.3279672,31 25.7907097,30.435653 25.7907097,29.7394958 C25.7907097,29.0433386 26.3279672,28.4789916 26.9907078,28.4789916 Z M26.9891603,24.697479 C28.237006,24.697479 29.4102555,25.2007661 30.2409464,26.0768812 C30.7086254,26.570134 30.7070877,27.3682395 30.2375118,27.8594997 C29.8106246,28.3060999 29.1438868,28.345365 28.6748155,27.9782251 L28.5404617,27.8558919 C28.1638447,27.4586807 27.6039126,27.2184874 26.9891603,27.2184874 C26.4521726,27.2184874 25.9569929,27.4017513 25.5892595,27.7129151 L25.439712,27.8539403 C24.9713452,28.3464725 24.2115486,28.3469181 23.7426586,27.8549354 C23.2737687,27.3629528 23.2733445,26.5648458 23.7417113,26.0723136 C24.5722143,25.1989606 25.7435433,24.697479 26.9891603,24.697479 Z M26.9947561,21 C29.1201794,21 31.1209773,21.8039281 32.6057622,23.2171932 C33.0968708,23.6846458 33.1342376,24.4817871 32.6892235,24.9976583 C32.2442094,25.5135294 31.485332,25.5527804 30.9942235,25.0853278 C29.9526263,24.0939028 28.5268198,23.5210084 26.9947561,23.5210084 C25.4670057,23.5210084 24.0448445,24.0906595 23.0038452,25.0772012 C22.5117718,25.5435329 21.7529773,25.5025516 21.3090303,24.985667 C20.8650833,24.4687824 20.9040974,23.6717281 21.3961707,23.2053964 C22.8798642,21.7993191 24.8754028,21 26.9947561,21 Z" id="path-5"></path>
        <filter x="-16.7%" y="-20.0%" width="133.3%" height="140.0%" filterUnits="objectBoundingBox" id="filter-6">
            <feGaussianBlur stdDeviation="1.5" in="SourceAlpha" result="shadowBlurInner1"></feGaussianBlur>
            <feOffset dx="0" dy="1" in="shadowBlurInner1" result="shadowOffsetInner1"></feOffset>
            <feComposite in="shadowOffsetInner1" in2="SourceAlpha" operator="arithmetic" k2="-1" k3="1" result="shadowInnerInner1"></feComposite>
            <feColorMatrix values="0 0 0 0 0   0 0 0 0 0   0 0 0 0 0  0 0 0 0.5 0" type="matrix" in="shadowInnerInner1"></feColorMatrix>
        </filter>
    </defs>
    <g id="Page-1" stroke="none" stroke-width="1" fill="none" fill-rule="evenodd" opacity="0.300000012">
        <g id="Group" fill-rule="nonzero">
            <g>
                <g transform="translate(1.000000, 4.000000)">
                    <g id="Combined-Shape">
                        <use fill="#C8C8C8" xlink:href="#path-1"></use>
                        <use fill="black" fill-opacity="1" filter="url(#filter-2)" xlink:href="#path-1"></use>
                    </g>
                    <g id="Rectangle">
                        <use fill="#C8C8C8" xlink:href="#path-3"></use>
                        <use fill="black" fill-opacity="1" filter="url(#filter-4)" xlink:href="#path-3"></use>
                    </g>
                </g>
                <g id="Combined-Shape">
                    <use fill="#C8C8C8" xlink:href="#path-5"></use>
                    <use fill="black" fill-opacity="1" filter="url(#filter-6)" xlink:href="#path-5"></use>
                </g>
            </g>
        </g>
    </g>
</svg>