<?xml version="1.0" encoding="UTF-8"?>
<svg width="52px" height="52px" viewBox="0 0 52 52" version="1.1" xmlns="http://www.w3.org/2000/svg" xmlns:xlink="http://www.w3.org/1999/xlink">
    <title>Slice</title>
    <defs>
        <path d="M23,0.5 C25.4142733,0.5 27.3844891,2.40123652 27.495102,4.7881643 L27.5,5 L27.5009946,9.58919397 C33.696854,10.3306728 38.5,15.604419 38.5,22 C38.5,28.395581 33.696854,33.6693272 27.5009946,34.410806 L27.5,39 C27.5,41.4142733 25.5987635,43.3844891 23.2118357,43.495102 L23,43.5 L5,43.5 C2.58572667,43.5 0.615510911,41.5987635 0.50489799,39.2118357 L0.5,39 L0.5,5 C0.5,2.58572667 2.40123652,0.615510911 4.7881643,0.50489799 L5,0.5 L23,0.5 Z M23,3.5 L5,3.5 C4.22030388,3.5 3.57955132,4.09488808 3.50686658,4.85553999 L3.5,5 L3.5,39 C3.5,39.7796961 4.09488808,40.4204487 4.85553999,40.4931334 L5,40.5 L23,40.5 C23.7796961,40.5 24.4204487,39.9051119 24.4931334,39.14446 L24.5,39 L24.5000036,34.4109254 C18.3036619,33.6698937 13.5,28.3959245 13.5,22 C13.5,15.6040755 18.3036619,10.3301063 24.5000036,9.58907455 L24.5,5 C24.5,4.22030388 23.9051119,3.57955132 23.14446,3.50686658 L23,3.5 Z M26,12.5 C20.7532949,12.5 16.5,16.7532949 16.5,22 C16.5,27.2467051 20.7532949,31.5 26,31.5 C31.2467051,31.5 35.5,27.2467051 35.5,22 C35.5,16.7532949 31.2467051,12.5 26,12.5 Z" id="path-1"></path>
        <filter x="-5.3%" y="-4.7%" width="110.5%" height="109.3%" filterUnits="objectBoundingBox" id="filter-2">
            <feGaussianBlur stdDeviation="1.5" in="SourceAlpha" result="shadowBlurInner1"></feGaussianBlur>
            <feOffset dx="0" dy="1" in="shadowBlurInner1" result="shadowOffsetInner1"></feOffset>
            <feComposite in="shadowOffsetInner1" in2="SourceAlpha" operator="arithmetic" k2="-1" k3="1" result="shadowInnerInner1"></feComposite>
            <feColorMatrix values="0 0 0 0 0   0 0 0 0 0   0 0 0 0 0  0 0 0 0.5 0" type="matrix" in="shadowInnerInner1"></feColorMatrix>
        </filter>
        <path d="M29,17.5 C31.4852814,17.5 33.5,19.5147186 33.5,22 C33.5,24.4852814 31.4852814,26.5 29,26.5 C27.8468489,26.5 26.7950047,26.0662538 25.9987165,25.3530106 C25.2041081,26.0666196 24.1526647,26.5 23,26.5 C20.5147186,26.5 18.5,24.4852814 18.5,22 C18.5,19.5147186 20.5147186,17.5 23,17.5 C24.1488479,17.5 25.2005872,17.9316237 25.9981216,18.6488574 C26.7932302,17.9344783 27.8458762,17.5 29,17.5 Z M29,20.5 C28.1715729,20.5 27.5,21.1715729 27.5,22 C27.5,22.8284271 28.1715729,23.5 29,23.5 C29.8284271,23.5 30.5,22.8284271 30.5,22 C30.5,21.1715729 29.8284271,20.5 29,20.5 Z M23,20.5 C22.1715729,20.5 21.5,21.1715729 21.5,22 C21.5,22.8284271 22.1715729,23.5 23,23.5 C23.7796961,23.5 24.4204487,22.9051119 24.493655,22.1805748 L24.5006256,22.0433184 L24.4974189,21.9104937 C24.4517032,21.1214945 23.7953788,20.5 23,20.5 Z" id="path-3"></path>
        <filter x="-13.3%" y="-22.2%" width="126.7%" height="144.4%" filterUnits="objectBoundingBox" id="filter-4">
            <feGaussianBlur stdDeviation="1.5" in="SourceAlpha" result="shadowBlurInner1"></feGaussianBlur>
            <feOffset dx="0" dy="1" in="shadowBlurInner1" result="shadowOffsetInner1"></feOffset>
            <feComposite in="shadowOffsetInner1" in2="SourceAlpha" operator="arithmetic" k2="-1" k3="1" result="shadowInnerInner1"></feComposite>
            <feColorMatrix values="0 0 0 0 0   0 0 0 0 0   0 0 0 0 0  0 0 0 0.5 0" type="matrix" in="shadowInnerInner1"></feColorMatrix>
        </filter>
        <rect id="path-5" x="11" y="35" width="6" height="3" rx="1.5"></rect>
        <filter x="-33.3%" y="-66.7%" width="166.7%" height="233.3%" filterUnits="objectBoundingBox" id="filter-6">
            <feGaussianBlur stdDeviation="1.5" in="SourceAlpha" result="shadowBlurInner1"></feGaussianBlur>
            <feOffset dx="0" dy="1" in="shadowBlurInner1" result="shadowOffsetInner1"></feOffset>
            <feComposite in="shadowOffsetInner1" in2="SourceAlpha" operator="arithmetic" k2="-1" k3="1" result="shadowInnerInner1"></feComposite>
            <feColorMatrix values="0 0 0 0 0   0 0 0 0 0   0 0 0 0 0  0 0 0 0.5 0" type="matrix" in="shadowInnerInner1"></feColorMatrix>
        </filter>
    </defs>
    <g id="Page-1" stroke="none" stroke-width="1" fill="none" fill-rule="evenodd" opacity="0.300000012">
        <g id="Group" fill-rule="nonzero">
            <g transform="translate(9.000000, 4.000000)">
                <g id="Combined-Shape">
                    <use fill="#C8C8C8" xlink:href="#path-1"></use>
                    <use fill="black" fill-opacity="1" filter="url(#filter-2)" xlink:href="#path-1"></use>
                </g>
                <g id="Combined-Shape">
                    <use fill="#C8C8C8" xlink:href="#path-3"></use>
                    <use fill="black" fill-opacity="1" filter="url(#filter-4)" xlink:href="#path-3"></use>
                </g>
                <g id="Rectangle">
                    <use fill="#C8C8C8" xlink:href="#path-5"></use>
                    <use fill="black" fill-opacity="1" filter="url(#filter-6)" xlink:href="#path-5"></use>
                </g>
            </g>
        </g>
    </g>
</svg>