<?xml version="1.0" encoding="UTF-8"?>
<svg width="52px" height="52px" viewBox="0 0 52 52" version="1.1" xmlns="http://www.w3.org/2000/svg" xmlns:xlink="http://www.w3.org/1999/xlink">
    <title>Slice</title>
    <defs>
        <path d="M5,42.5 C2.51471863,42.5 0.5,40.4852814 0.5,38 L0.5,38 L0.5,18.3957081 C0.5,17.0683115 1.08604858,15.8086314 2.10138914,14.9536077 L2.10138914,14.9536077 L18.1013891,1.47992351 C19.7763969,0.0693906967 22.2236031,0.0693906967 23.8986109,1.47992351 L23.8986109,1.47992351 L39.8986109,14.9536077 C40.9139514,15.8086314 41.5,17.0683115 41.5,18.3957081 L41.5,18.3957081 L41.5,38 C41.5,40.4852814 39.4852814,42.5 37,42.5 L37,42.5 Z M21.9662036,3.7746571 C21.4078677,3.3044795 20.5921323,3.3044795 20.0337964,3.7746571 L20.0337964,3.7746571 L4.03379638,17.2483413 C3.69534953,17.5333492 3.5,17.9532426 3.5,18.3957081 L3.5,18.3957081 L3.5,38 C3.5,38.8284271 4.17157288,39.5 5,39.5 L5,39.5 L8.5,39.4990239 L8.5,39 C8.5,36.0365209 10.84378,33.6204609 13.7787929,33.5043672 L14,33.5 C17.0375661,33.5 19.5,35.9624339 19.5,39 L19.5,39 L19.5,39.4990239 L22.5,39.4990239 L22.5,39 C22.5,36.0365209 24.84378,33.6204609 27.7787929,33.5043672 L28,33.5 C31.0375661,33.5 33.5,35.9624339 33.5,39 L33.5,39 L33.5,39.4990239 L37,39.5 C37.7796961,39.5 38.4204487,38.9051119 38.4931334,38.14446 L38.5,38 L38.5,18.3957081 C38.5,17.9532426 38.3046505,17.5333492 37.9662036,17.2483413 L37.9662036,17.2483413 Z M28,36.5 C26.6192881,36.5 25.5,37.6192881 25.5,39 L25.5,39 L25.5,39.5 L30.5,39.5 L30.5,39 C30.5,37.6745166 29.4684641,36.5899613 28.1643757,36.5053177 L28.1643757,36.5053177 Z M14,36.5 C12.6192881,36.5 11.5,37.6192881 11.5,39 L11.5,39 L11.5,39.5 L16.5,39.5 L16.5,39 C16.5,37.6745166 15.4684641,36.5899613 14.1643757,36.5053177 L14.1643757,36.5053177 Z M28,23.5 C30.4852814,23.5 32.5,25.5147186 32.5,28 C32.5,30.4852814 30.4852814,32.5 28,32.5 C25.5147186,32.5 23.5,30.4852814 23.5,28 C23.5,25.5147186 25.5147186,23.5 28,23.5 Z M14,23.5 C16.4852814,23.5 18.5,25.5147186 18.5,28 C18.5,30.4852814 16.4852814,32.5 14,32.5 C11.5147186,32.5 9.5,30.4852814 9.5,28 C9.5,25.5147186 11.5147186,23.5 14,23.5 Z M28,26.5 C27.1715729,26.5 26.5,27.1715729 26.5,28 C26.5,28.8284271 27.1715729,29.5 28,29.5 C28.8284271,29.5 29.5,28.8284271 29.5,28 C29.5,27.1715729 28.8284271,26.5 28,26.5 Z M14,26.5 C13.1715729,26.5 12.5,27.1715729 12.5,28 C12.5,28.8284271 13.1715729,29.5 14,29.5 C14.8284271,29.5 15.5,28.8284271 15.5,28 C15.5,27.1715729 14.8284271,26.5 14,26.5 Z" id="path-1"></path>
        <filter x="-4.9%" y="-4.8%" width="109.8%" height="109.5%" filterUnits="objectBoundingBox" id="filter-2">
            <feGaussianBlur stdDeviation="1.5" in="SourceAlpha" result="shadowBlurInner1"></feGaussianBlur>
            <feOffset dx="0" dy="1" in="shadowBlurInner1" result="shadowOffsetInner1"></feOffset>
            <feComposite in="shadowOffsetInner1" in2="SourceAlpha" operator="arithmetic" k2="-1" k3="1" result="shadowInnerInner1"></feComposite>
            <feColorMatrix values="0 0 0 0 0   0 0 0 0 0   0 0 0 0 0  0 0 0 0.5 0" type="matrix" in="shadowInnerInner1"></feColorMatrix>
        </filter>
        <path d="M11.4444984,7.68431736 L11.7042822,10.1559956 C11.748395,10.5757004 11.4439175,10.9516988 11.0242127,10.9958115 C10.8226633,11.0169952 10.6209537,10.9572461 10.4634577,10.8297083 L10.2463182,10.6540519 L10.111538,10.7974596 C8.95372953,11.9920851 7.38888905,12.679204 5.71934142,12.679204 C3.76928386,12.679204 1.97177995,11.7412991 0.800245497,10.1802564 C0.302984845,9.51766802 0.437009439,8.57742462 1.09959781,8.08016397 C1.76218617,7.58290331 2.70242958,7.71692791 3.19969023,8.37951628 C3.81582609,9.20050312 4.73326101,9.67920402 5.71934142,9.67920402 C6.53909265,9.67920402 7.31139059,9.34995887 7.90730423,8.76010309 L7.73199561,8.61781397 C7.40402707,8.35223029 7.35345416,7.87106115 7.61903784,7.54309261 C7.74657563,7.38559657 7.93145485,7.28521534 8.1330042,7.26403165 L10.6046824,7.0042478 C11.0243872,6.96013505 11.4003856,7.26461256 11.4444984,7.68431736 Z M6.28065858,0.320795977 C8.23071614,0.320795977 10.02822,1.25870092 11.1997545,2.81974361 C11.6970152,3.48233198 11.5629906,4.42257538 10.9004022,4.91983603 C10.2378138,5.41709669 9.29757042,5.28307209 8.80030977,4.62048372 C8.18417391,3.79949688 7.26673899,3.32079598 6.28065858,3.32079598 C5.46090735,3.32079598 4.68860941,3.65004113 4.09269577,4.23989691 L4.26800439,4.38218603 C4.59597293,4.64776971 4.64654584,5.12893885 4.38096216,5.45690739 C4.25342437,5.61440343 4.06854515,5.71478466 3.8669958,5.73596835 L1.3953176,5.9957522 C0.975612796,6.03986495 0.599614381,5.73538744 0.555501629,5.31568264 L0.295717782,2.84400444 C0.25160503,2.42429964 0.556082543,2.04830123 0.975787342,2.00418847 C1.17733669,1.98300478 1.3790463,2.04275389 1.53654234,2.17029167 L1.75368185,2.34594815 L1.88846204,2.20254043 C3.04627047,1.00791491 4.61111095,0.320795977 6.28065858,0.320795977 Z" id="path-3"></path>
        <filter x="-17.5%" y="-16.2%" width="135.0%" height="132.4%" filterUnits="objectBoundingBox" id="filter-4">
            <feGaussianBlur stdDeviation="1.5" in="SourceAlpha" result="shadowBlurInner1"></feGaussianBlur>
            <feOffset dx="0" dy="1" in="shadowBlurInner1" result="shadowOffsetInner1"></feOffset>
            <feComposite in="shadowOffsetInner1" in2="SourceAlpha" operator="arithmetic" k2="-1" k3="1" result="shadowInnerInner1"></feComposite>
            <feColorMatrix values="0 0 0 0 0   0 0 0 0 0   0 0 0 0 0  0 0 0 0.5 0" type="matrix" in="shadowInnerInner1"></feColorMatrix>
        </filter>
    </defs>
    <g id="Page-1" stroke="none" stroke-width="1" fill="none" fill-rule="evenodd">
        <g id="Group">
            <g id="Group-4" transform="translate(5.000000, 5.000000)" fill-rule="nonzero" opacity="0.300000012">
                <g id="Combined-Shape">
                    <use fill="#C8C8C8" xlink:href="#path-1"></use>
                    <use fill="black" fill-opacity="1" filter="url(#filter-2)" xlink:href="#path-1"></use>
                </g>
            </g>
            <g id="Group-3" transform="translate(20.432763, 13.826601)">
                <g id="Group-2" fill-rule="nonzero" opacity="0.300000012">
                    <g id="Combined-Shape">
                        <use fill="#C8C8C8" xlink:href="#path-3"></use>
                        <use fill="black" fill-opacity="1" filter="url(#filter-4)" xlink:href="#path-3"></use>
                    </g>
                </g>
                <g id="Group" transform="translate(6.000000, 3.000000) scale(-1, -1) translate(-6.000000, -3.000000) "></g>
            </g>
        </g>
    </g>
</svg>