<?xml version="1.0" encoding="UTF-8"?>
<svg width="20px" height="10px" viewBox="0 0 20 10" version="1.1" xmlns="http://www.w3.org/2000/svg" xmlns:xlink="http://www.w3.org/1999/xlink">
    <title>Slice</title>
    <defs>
        <filter id="filter-1">
            <feColorMatrix in="SourceGraphic" type="matrix" values="0 0 0 0 1.000000 0 0 0 0 1.000000 0 0 0 0 1.000000 0 0 0 1.000000 0"></feColorMatrix>
        </filter>
    </defs>
    <g id="Page-1" stroke="none" stroke-width="1" fill="none" fill-rule="evenodd">
        <g id="btn_arrow10" transform="translate(10.000000, 0.000000)" filter="url(#filter-1)">
            <g id="btn_arrow">
                <rect id="Rectangle" x="0" y="0" width="10" height="10"></rect>
                <path d="M4.12552567,2.12552567 C4.27429682,1.97675451 4.50523202,1.96022438 4.67226186,2.07593528 L4.73161719,2.12552567 L7.30304576,4.69695424 C7.45181692,4.8457254 7.46834705,5.0766606 7.35263615,5.24369043 L7.30304576,5.30304576 L4.73161719,7.87447433 C4.56424964,8.04184189 4.29289322,8.04184189 4.12552567,7.87447433 C3.97675451,7.72570318 3.96022438,7.49476798 4.07593528,7.32773814 L4.12552567,7.26838281 L6.394,5 L4.12552567,2.73161719 C3.97675451,2.58284603 3.96022438,2.35191083 4.07593528,2.184881 L4.12552567,2.12552567 Z" fill="#222222" fill-rule="nonzero"></path>
            </g>
        </g>
        <g id="btn_arrow">
            <rect id="Rectangle" x="0" y="0" width="10" height="10"></rect>
            <path d="M4.12552567,2.12552567 C4.27429682,1.97675451 4.50523202,1.96022438 4.67226186,2.07593528 L4.73161719,2.12552567 L7.30304576,4.69695424 C7.45181692,4.8457254 7.46834705,5.0766606 7.35263615,5.24369043 L7.30304576,5.30304576 L4.73161719,7.87447433 C4.56424964,8.04184189 4.29289322,8.04184189 4.12552567,7.87447433 C3.97675451,7.72570318 3.96022438,7.49476798 4.07593528,7.32773814 L4.12552567,7.26838281 L6.394,5 L4.12552567,2.73161719 C3.97675451,2.58284603 3.96022438,2.35191083 4.07593528,2.184881 L4.12552567,2.12552567 Z" fill="#222222" fill-rule="nonzero"></path>
        </g>
    </g>
</svg>