<?xml version="1.0" encoding="UTF-8"?>
<svg width="52px" height="52px" viewBox="0 0 52 52" version="1.1" xmlns="http://www.w3.org/2000/svg" xmlns:xlink="http://www.w3.org/1999/xlink">
    <title>Slice</title>
    <defs>
        <path d="M29,0.5 C29.7796961,0.5 30.4204487,1.09488808 30.4931334,1.85553999 L30.5,2 L30.5,3.5 L35,3.5 C37.4142733,3.5 39.3844891,5.40123652 39.495102,7.7881643 L39.5,8 L39.5006937,19.5098446 C46.172136,19.7726498 51.5,25.2641302 51.5,32 C51.5,38.9035594 45.9035594,44.5 39,44.5 C34.0701413,44.5 29.8068405,41.6461266 27.7720682,37.5003503 L5,37.5 C2.58572667,37.5 0.615510911,35.5987635 0.50489799,33.2118357 L0.5,33 L0.5,8 C0.5,5.58572667 2.40123652,3.61551091 4.7881643,3.50489799 L5,3.5 L10.5,3.5 L10.5,2 C10.5,1.17157288 11.1715729,0.5 12,0.5 C12.7796961,0.5 13.4204487,1.09488808 13.4931334,1.85553999 L13.5,2 L13.5,3.5 L27.5,3.5 L27.5,2 C27.5,1.17157288 28.1715729,0.5 29,0.5 Z M39,22.5 C33.7532949,22.5 29.5,26.7532949 29.5,32 C29.5,37.2467051 33.7532949,41.5 39,41.5 C44.2467051,41.5 48.5,37.2467051 48.5,32 C48.5,26.7532949 44.2467051,22.5 39,22.5 Z M36.499,15 L3.5,15 L3.5,33 C3.5,33.7796961 4.09488808,34.4204487 4.85553999,34.4931334 L5,34.5 L26.7502536,34.5010262 C26.5861486,33.6929333 26.5,32.8565272 26.5,32 C26.5,27.9108664 28.4634886,24.2803301 31.4990848,21.999772 C31.2238576,22 31,21.7761424 31,21.5 L31,19.5 C31,19.2238576 31.2238576,19 31.5,19 L33.5,19 C33.7761424,19 34,19.2238576 34,19.5 L34.0000981,20.5400664 C34.7938175,20.1932837 35.6305112,19.926544 36.499976,19.7500502 L36.499,15 Z M9.5,27 C9.77614237,27 10,27.2238576 10,27.5 L10,29.5 C10,29.7761424 9.77614237,30 9.5,30 L7.5,30 C7.22385763,30 7,29.7761424 7,29.5 L7,27.5 C7,27.2238576 7.22385763,27 7.5,27 L9.5,27 Z M17.5,27 C17.7761424,27 18,27.2238576 18,27.5 L18,29.5 C18,29.7761424 17.7761424,30 17.5,30 L15.5,30 C15.2238576,30 15,29.7761424 15,29.5 L15,27.5 C15,27.2238576 15.2238576,27 15.5,27 L17.5,27 Z M25.5,27 C25.7761424,27 26,27.2238576 26,27.5 L26,29.5 C26,29.7761424 25.7761424,30 25.5,30 L23.5,30 C23.2238576,30 23,29.7761424 23,29.5 L23,27.5 C23,27.2238576 23.2238576,27 23.5,27 L25.5,27 Z M9.5,19 C9.77614237,19 10,19.2238576 10,19.5 L10,21.5 C10,21.7761424 9.77614237,22 9.5,22 L7.5,22 C7.22385763,22 7,21.7761424 7,21.5 L7,19.5 C7,19.2238576 7.22385763,19 7.5,19 L9.5,19 Z M17.5,19 C17.7761424,19 18,19.2238576 18,19.5 L18,21.5 C18,21.7761424 17.7761424,22 17.5,22 L15.5,22 C15.2238576,22 15,21.7761424 15,21.5 L15,19.5 C15,19.2238576 15.2238576,19 15.5,19 L17.5,19 Z M25.5,19 C25.7761424,19 26,19.2238576 26,19.5 L26,21.5 C26,21.7761424 25.7761424,22 25.5,22 L23.5,22 C23.2238576,22 23,21.7761424 23,21.5 L23,19.5 C23,19.2238576 23.2238576,19 23.5,19 L25.5,19 Z M10.5,6.5 L5,6.5 C4.22030388,6.5 3.57955132,7.09488808 3.50686658,7.85553999 L3.5,8 L3.5,12 L36.5,12 L36.5,8 C36.5,7.22030388 35.9051119,6.57955132 35.14446,6.50686658 L35,6.5 L30.5,6.5 L30.5,8 C30.5,8.82842712 29.8284271,9.5 29,9.5 C28.2203039,9.5 27.5795513,8.90511192 27.5068666,8.14446001 L27.5,8 L27.5,6.5 L13.5,6.5 L13.5,8 C13.5,8.82842712 12.8284271,9.5 12,9.5 C11.2203039,9.5 10.5795513,8.90511192 10.5068666,8.14446001 L10.5,8 L10.5,6.5 Z" id="path-1"></path>
        <filter x="-3.9%" y="-4.5%" width="107.8%" height="109.1%" filterUnits="objectBoundingBox" id="filter-2">
            <feGaussianBlur stdDeviation="1.5" in="SourceAlpha" result="shadowBlurInner1"></feGaussianBlur>
            <feOffset dx="0" dy="1" in="shadowBlurInner1" result="shadowOffsetInner1"></feOffset>
            <feComposite in="shadowOffsetInner1" in2="SourceAlpha" operator="arithmetic" k2="-1" k3="1" result="shadowInnerInner1"></feComposite>
            <feColorMatrix values="0 0 0 0 0   0 0 0 0 0   0 0 0 0 0  0 0 0 0.5 0" type="matrix" in="shadowInnerInner1"></feColorMatrix>
        </filter>
        <path d="M5.99070784,7.4789916 C6.65344849,7.4789916 7.19070595,8.04333855 7.19070595,8.7394958 C7.19070595,9.43565305 6.65344849,10 5.99070784,10 C5.32796718,10 4.79070973,9.43565305 4.79070973,8.7394958 C4.79070973,8.04333855 5.32796718,7.4789916 5.99070784,7.4789916 Z M5.98916026,3.69747899 C7.23700597,3.69747899 8.41025546,4.20076614 9.24094644,5.07688122 C9.70862544,5.57013399 9.70708771,6.36823947 9.23751181,6.8594997 C8.81062463,7.30609992 8.14388676,7.345365 7.67481553,6.97822509 L7.54046168,6.85589189 C7.16384475,6.45868068 6.60391262,6.21848739 5.98916026,6.21848739 C5.45217256,6.21848739 4.95699292,6.40175126 4.5892595,6.71291514 L4.43971197,6.85394029 C3.97134523,7.34647252 3.21154857,7.34691805 2.74265863,6.85493541 C2.27376868,6.36295278 2.27334454,5.56484579 2.74171127,5.07231356 C3.57221426,4.19896056 4.7435433,3.69747899 5.98916026,3.69747899 Z M5.99475607,-2.04281037e-14 C8.12017935,-2.04281037e-14 10.1209773,0.803928133 11.6057622,2.21719322 C12.0968708,2.68464579 12.1342376,3.48178714 11.6892235,3.99765825 C11.2442094,4.51352937 10.485332,4.55278036 9.99422346,4.08532779 C8.95262631,3.09390281 7.52681982,2.5210084 5.99475607,2.5210084 C4.46700572,2.5210084 3.04484447,3.09065947 2.00384518,4.0772012 C1.5117718,4.54353286 0.752977337,4.50255159 0.309030302,3.98566698 C-0.134916734,3.46878236 -0.0959026271,2.6717281 0.396170748,2.20539644 C1.87986416,0.799319142 3.87540279,-2.04281037e-14 5.99475607,-2.04281037e-14 Z" id="path-3"></path>
        <filter x="-16.7%" y="-20.0%" width="133.3%" height="140.0%" filterUnits="objectBoundingBox" id="filter-4">
            <feGaussianBlur stdDeviation="1.5" in="SourceAlpha" result="shadowBlurInner1"></feGaussianBlur>
            <feOffset dx="0" dy="1" in="shadowBlurInner1" result="shadowOffsetInner1"></feOffset>
            <feComposite in="shadowOffsetInner1" in2="SourceAlpha" operator="arithmetic" k2="-1" k3="1" result="shadowInnerInner1"></feComposite>
            <feColorMatrix values="0 0 0 0 0   0 0 0 0 0   0 0 0 0 0  0 0 0 0.5 0" type="matrix" in="shadowInnerInner1"></feColorMatrix>
        </filter>
    </defs>
    <g id="Page-1" stroke="none" stroke-width="1" fill="none" fill-rule="evenodd" opacity="0.300000012">
        <g id="Group" fill-rule="nonzero">
            <g id="Group-5" transform="translate(0.000000, 4.000000)">
                <g id="Combined-Shape">
                    <use fill="#C8C8C8" xlink:href="#path-1"></use>
                    <use fill="black" fill-opacity="1" filter="url(#filter-2)" xlink:href="#path-1"></use>
                </g>
                <g id="Combined-Shape" transform="translate(33.000000, 27.000000)">
                    <use fill="#C8C8C8" xlink:href="#path-3"></use>
                    <use fill="black" fill-opacity="1" filter="url(#filter-4)" xlink:href="#path-3"></use>
                </g>
            </g>
        </g>
    </g>
</svg>