<?xml version="1.0" encoding="UTF-8"?>
<svg width="80px" height="80px" viewBox="0 0 80 80" version="1.1" xmlns="http://www.w3.org/2000/svg" xmlns:xlink="http://www.w3.org/1999/xlink">
    <!-- Generator: Sketch 52.3 (67297) - http://www.bohemiancoding.com/sketch -->
    <title>Artboard</title>
    <desc>Created with Sketch.</desc>
    <g id="Artboard" stroke="none" stroke-width="1" fill="none" fill-rule="evenodd">
        <g id="Group-11" transform="translate(13.000000, 10.000000)">
            <path d="M6.6386,5.5 L48.3616,5.5 C51.7516,5.5 54.4996,8.401 54.4996,11.98 L54.4996,53.02 C54.4996,56.599 51.7516,59.5 48.3616,59.5 L6.6386,59.5 C3.2476,59.5 0.4996,56.599 0.4996,53.02 L0.4996,11.98 C0.4996,8.401 3.2476,5.5 6.6386,5.5 Z" id="Stroke-1" stroke="#333333" stroke-width="3" stroke-linecap="round"></path>
            <path d="M15.5,0.5 L15.5,10.5" id="Stroke-3" stroke="#333333" stroke-width="3" stroke-linecap="round"></path>
            <path d="M39.5,0.5 L39.5,10.5" id="Stroke-5" stroke="#333333" stroke-width="3" stroke-linecap="round"></path>
            <polygon id="Fill-7" fill="#333333" points="30.1816 33.1143 30.1816 48.5003 24.8186 48.5003 24.8186 33.1143 17.4996 33.1143 17.4996 28.5003 37.4996 28.5003 37.4996 33.1143"></polygon>
            <path d="M0.5,18.5 L54.5,18.5" id="Stroke-9" stroke="#333333" stroke-width="3" stroke-linecap="round"></path>
        </g>
    </g>
</svg>