<?xml version="1.0" encoding="UTF-8"?>
<svg width="80px" height="80px" viewBox="0 0 80 80" version="1.1" xmlns="http://www.w3.org/2000/svg" xmlns:xlink="http://www.w3.org/1999/xlink">
    <!-- Generator: Sketch 52.4 (67378) - http://www.bohemiancoding.com/sketch -->
    <title>mdpi/Artboard Copy 4</title>
    <desc>Created with Sketch.</desc>
    <g id="Artboard-Copy-4" stroke="none" stroke-width="1" fill="none" fill-rule="evenodd">
        <g id="Group-19" transform="translate(16.000000, 1.000000)">
            <path d="M24,30.9902 C32,22.9902 36,16.8902 36,12.5902 C36,6.1902 30.6,0.9902 24,0.9902 C17.4,0.9902 12,6.1902 12,12.5902 C12,16.8902 16,22.9902 24,30.9902 Z" id="Stroke-3" stroke="#333333" stroke-width="3"></path>
            <path d="M24,16.4902 C26.5,16.4902 28.5,14.4902 28.5,11.9902 C28.5,9.4902 26.5,7.4902 24,7.4902 C21.5,7.4902 19.5,9.4902 19.5,11.9902 C19.5,14.4902 21.5,16.4902 24,16.4902" id="Fill-5" fill="#333333"></path>
            <path d="M46,44.9902 L46,73.8902 C46,75.5902 44.5,76.9902 42.6,76.9902 L5.4,76.9902 C3.5,76.9902 2,75.5902 2,73.8902 L2,44.9902" id="Stroke-7" stroke="#333333" stroke-width="3"></path>
            <path d="M6,46.9902 C2.7,46.9902 0,44.2902 0,40.9902 L0,30.9902 L12,30.9902 L12,40.9902 C12,44.3902 9.3,46.9902 6,46.9902 Z" id="Stroke-9" stroke="#333333" stroke-width="3" stroke-linecap="round" stroke-linejoin="round"></path>
            <path d="M18,46.9902 C14.7,46.9902 12,44.2902 12,40.9902 L12,30.9902 L24,30.9902 L24,40.9902 C24,44.3902 21.3,46.9902 18,46.9902 Z" id="Stroke-11" stroke="#333333" stroke-width="3" stroke-linecap="round" stroke-linejoin="round"></path>
            <path d="M30,46.9902 C26.7,46.9902 24,44.2902 24,40.9902 L24,30.9902 L36,30.9902 L36,40.9902 C36,44.3902 33.3,46.9902 30,46.9902 Z" id="Stroke-13" stroke="#333333" stroke-width="3" stroke-linecap="round" stroke-linejoin="round"></path>
            <path d="M42,46.9902 C38.7,46.9902 36,44.2902 36,40.9902 L36,30.9902 L48,30.9902 L48,40.9902 C48,44.3902 45.3,46.9902 42,46.9902 Z" id="Stroke-15" stroke="#333333" stroke-width="3" stroke-linecap="round" stroke-linejoin="round"></path>
            <path d="M22.5,63 L22.5,66.7 C22.5,69 23.5,70.9 25,71.5 L22.6,72.4 C22.1,72.6 21.6,72.4 21.4,72.2 C20.2,71.3 19.6,70 19.6,68 L19.6,64.1 C19.6,63.1 19.3,62 18.7,61.2 C18.3,60.6 17.8,60.2 17.2,59.9 C16,59.4 15,57.7 15,56 C15,54.5 15.7,53.6 16.5,53.5 C16.7,53.5 16.8,53.5 17,53.6 C17.5,53.8 17.9,54 17.9,54 C17.6,55.7 18.5,58.3 20.2,59 C20.9,59.3 21.3,59.7 21.7,60.3 C22.2,61.1 22.5,62.1 22.5,63 Z M24.7,65.3 C24.7,64.1 25,63.1 25.9,62.8 L29.5,61.5 C29.6,61.3 29.8,60.8 29.7,60.2 C29.7,57.9 28.5,56.3 26.8,55.7 L17,52.5 L19.6,51.6 C19.7,51.6 19.9,51.5 20.1,51.5 C20.3,51.5 20.5,51.5 20.6,51.6 L30.6,54.8 C32.3,55.4 33,57.6 33,58.7 C33,59.6 32.7,60.7 31.7,61.1 C30.8,61.4 28.2,62.4 28.2,62.4 C28.1,62.6 27.9,63.1 27.9,64 L27.9,68 C27.9,69.3 27.3,70.4 26.2,70.4 C25.7,70.4 25.2,70.1 24.7,69.7 L24.7,65.3 Z" id="Fill-17" fill="#333333"></path>
        </g>
    </g>
</svg>