<?xml version="1.0" encoding="UTF-8"?>
<svg width="34px" height="8px" viewBox="0 0 34 8" version="1.1" xmlns="http://www.w3.org/2000/svg" xmlns:xlink="http://www.w3.org/1999/xlink">
    <title>Line 3</title>
    <g id="Page-1" stroke="none" stroke-width="1" fill="none" fill-rule="evenodd" opacity="0.200000003">
        <g id="Line-3" fill="#000000" fill-rule="nonzero">
            <polygon id="Path" points="1 0 1 8 0 8 0 0"></polygon>
            <polygon id="Path" points="7 0 7 8 6 8 6 0"></polygon>
            <polygon id="Path" points="16 0 16 8 15 8 15 0"></polygon>
            <polygon id="Path" points="18 0 18 8 17 8 17 0"></polygon>
            <polygon id="Path" points="23 0 23 8 22 8 22 0"></polygon>
            <polygon id="Path" points="25 0 25 8 24 8 24 0"></polygon>
            <polygon id="Path" points="32 0 32 8 31 8 31 0"></polygon>
            <polygon id="Path" points="34 0 34 8 33 8 33 0"></polygon>
            <polygon id="Path" points="5 0 5 8 3 8 3 0"></polygon>
            <polygon id="Path" points="13 0 13 8 8 8 8 0"></polygon>
            <polygon id="Path" points="21 0 21 8 19 8 19 0"></polygon>
            <polygon id="Path" points="28 0 28 8 26 8 26 0"></polygon>
        </g>
    </g>
</svg>