<svg xmlns="http://www.w3.org/2000/svg" width="24" height="24" viewBox="0 0 24 24">
    <g fill="none" fill-rule="evenodd" stroke-linejoin="round">
        <g stroke="#000" stroke-width="1.2">
            <g>
                <g>
                    <path stroke-linecap="round" d="M8 4L8 6M12 4L12 6M16 4L16 6M8 12.12L10 12.12M8 14.12L12 14.12" transform="translate(-67 -109) translate(49 79) translate(18 30)"/>
                    <path d="M19.497 5H4.503C4.225 5 4 5.206 4 5.46V8h16V5.46c0-.254-.225-.46-.503-.46zM4 8v9.52c0 .265.225.48.503.48h14.994c.278 0 .503-.215.503-.48V8H4z" transform="translate(-67 -109) translate(49 79) translate(18 30)"/>
                </g>
            </g>
        </g>
    </g>
</svg>
