<?xml version="1.0" encoding="UTF-8"?>
<svg width="15px" height="15px" viewBox="0 0 15 15" version="1.1" xmlns="http://www.w3.org/2000/svg" xmlns:xlink="http://www.w3.org/1999/xlink">
    <title>Slice</title>
    <g id="Page-1" stroke="none" stroke-width="1" fill="none" fill-rule="evenodd">
        <g id="Group-9" fill="#333333" transform="translate(2.000000, 2.000000)">
            <polygon id="Fill-1" points="7.4806875 1.76171875 8.72746875 1.76171875 8.72746875 -0.00034375 7.4806875 -0.00034375"></polygon>
            <polygon id="Fill-2" points="2.27390625 1.76171875 3.5206875 1.76171875 3.5206875 -0.00034375 2.27390625 -0.00034375"></polygon>
            <path d="M9.20390625,0.971609375 L9.20390625,2.23867187 L7.00390625,2.23867187 L7.00390625,0.971609375 L3.99678125,0.971609375 L3.99678125,2.23867187 L1.7964375,2.23867187 L1.7964375,0.971609375 L0,0.971609375 L0,2.38545312 L0,11.0001719 L11,11.0001719 L11,0.971609375 L9.20390625,0.971609375 Z M1.24678125,9.75201563 L9.75390625,9.75201563 L9.75390625,3.50332812 L1.24678125,3.50332812 L1.24678125,9.75201563 Z" id="Fill-3"></path>
            <g id="Group-8" transform="translate(2.406250, 4.812500)">
                <path d="M1.29913438,1.90540625 C0.844696875,2.24228125 0.534290625,2.53515625 0.368603125,2.7836875 C0.203259375,3.0311875 0.103915625,3.295875 0.071946875,3.5770625 L2.91854062,3.5770625 L2.91854062,2.8029375 L1.43594688,2.8029375 C1.52325937,2.7176875 1.59922813,2.64859375 1.66385313,2.59565625 C1.72813437,2.5430625 1.85566562,2.45059375 2.04713438,2.31825 C2.36854063,2.091375 2.59025938,1.88271875 2.71160312,1.6933125 C2.83397812,1.50390625 2.89516562,1.30521875 2.89516562,1.09621875 C2.89516562,0.90096875 2.84188438,0.72359375 2.73600937,0.56615625 C2.62841562,0.408375 2.48266562,0.2915 2.29807188,0.21484375 C2.11210312,0.138875 1.85154062,0.10071875 1.51879062,0.10071875 C1.19772813,0.10071875 0.948165625,0.1409375 0.766665625,0.22103125 C0.586196875,0.30146875 0.445946875,0.41628125 0.346603125,0.56615625 C0.246915625,0.716375 0.179196875,0.92434375 0.141728125,1.19246875 L1.09150938,1.26878125 C1.11797813,1.07628125 1.17022813,0.941875 1.24688438,0.8655625 C1.32388438,0.78959375 1.42254063,0.7514375 1.54354063,0.7514375 C1.66041563,0.7514375 1.75700938,0.78821875 1.83366563,0.862125 C1.91066563,0.93603125 1.94916563,1.024375 1.94916563,1.12921875 C1.94916563,1.225125 1.90997812,1.32721875 1.83297812,1.434125 C1.75494688,1.541375 1.57722812,1.69846875 1.29913438,1.90540625" id="Fill-4"></path>
                <path d="M4.71717813,3.05748437 C4.59549063,3.05748437 4.49545937,3.02070312 4.41708437,2.94679687 C4.33836562,2.87289062 4.28061562,2.74054687 4.24383438,2.54907812 L3.29577187,2.67489062 C3.35764687,2.88835937 3.44633437,3.06470312 3.56252188,3.20529687 C3.67870937,3.34554687 3.82549062,3.45279687 4.00492813,3.52601562 C4.18402188,3.59854687 4.42980313,3.63567187 4.73986562,3.63567187 C5.05817813,3.63567187 5.31461563,3.58582813 5.51089688,3.48717187 C5.70683438,3.38851562 5.85602187,3.24826562 5.96052188,3.06539062 C6.06467812,2.88217187 6.11624062,2.69242187 6.11624062,2.49270312 C6.11624062,2.33423437 6.08495937,2.19810937 6.02170937,2.08398438 C5.95914688,1.96985937 5.87114687,1.87704688 5.75770938,1.80726562 C5.68792813,1.76360937 5.58720937,1.72545312 5.45486563,1.69314062 C5.61814687,1.60342187 5.74052188,1.49857812 5.82027187,1.37826562 C5.90139687,1.25898437 5.94195937,1.12457812 5.94195937,0.977453125 C5.94195937,0.725828125 5.84227187,0.516828125 5.64358437,0.350453125 C5.44489688,0.184078125 5.12280312,0.100546875 4.67695937,0.100546875 C4.28886562,0.100546875 3.98877187,0.177203125 3.77599062,0.329484375 C3.56424062,0.482109375 3.42124062,0.701078125 3.34699062,0.987078125 L4.24383438,1.14795312 C4.26858437,0.978140625 4.31567812,0.859203125 4.38614687,0.792171875 C4.45592812,0.724453125 4.54667812,0.690765625 4.65874062,0.690765625 C4.76702187,0.690765625 4.85295937,0.721703125 4.91449063,0.784265625 C4.97705312,0.846484375 5.00799062,0.929328125 5.00799062,1.03314062 C5.00799062,1.14210937 4.96639688,1.23595312 4.88286562,1.31535937 C4.79967812,1.39510937 4.69620937,1.43395312 4.57211562,1.43395312 C4.54255312,1.43395312 4.50164688,1.43085937 4.44870937,1.42260937 L4.40024062,2.10151562 C4.52983437,2.06370312 4.63330312,2.04514062 4.70789687,2.04514062 C4.84677187,2.04514062 4.95745938,2.08879687 5.03892812,2.17645312 C5.12074062,2.26239062 5.16164687,2.38614062 5.16164687,2.54460937 C5.16164687,2.69964062 5.11936562,2.82373437 5.03480312,2.91792187 C4.94955312,3.01107812 4.84402188,3.05748437 4.71717813,3.05748437" id="Fill-6"></path>
            </g>
        </g>
    </g>
</svg>