<?xml version="1.0" encoding="UTF-8"?>
<svg xmlns="http://www.w3.org/2000/svg" xmlns:xlink="http://www.w3.org/1999/xlink" width="200" height="200" viewBox="0 0 200 200">
    <g>
        <defs>
            <filter id="7ub44wbz9a">
                <feColorMatrix in="SourceGraphic" values="0 0 0 0 0.400000 0 0 0 0 0.400000 0 0 0 0 0.400000 0 0 0 1.000000 0"/>
            </filter>
            <path id="o3jqr44umb" d="M6.192 6.64c.093 0 .15-.047.168-.142.093-.71.14-1.377.14-1.998V3.442c0-.09-.053-.135-.159-.135H5.66c-.106 0-.159.045-.159.135V4.5c0 .621.047 1.288.14 1.998.019.095.075.143.168.143h.384zm.146 1.667c.108 0 .162-.03.162-.091V7.56c0-.057-.054-.086-.162-.086h-.676c-.108 0-.162.029-.162.086v.65c0 .065.054.097.162.097h.676z"/>
        </defs>
        <g fill="none" fill-rule="evenodd">
            <g>
                <g>
                    <g>
                        <g>
                            <g filter="url(#7ub44wbz9a)" transform="translate(-2378 -1250) translate(2346 1036) translate(0 82) translate(20 75) translate(12 56)">
                                <g>
                                    <path stroke="#666" stroke-width=".5" d="M6 .5c3.037 0 5.5 2.462 5.5 5.5 0 3.037-2.463 5.5-5.5 5.5S.5 9.037.5 6C.5 2.962 2.963.5 6 .5z" transform="translate(0 1)"/>
                                    <g fill-rule="nonzero" transform="translate(0 1)">
                                        <use fill="#000" xlink:href="#o3jqr44umb"/>
                                        <use fill="#666" xlink:href="#o3jqr44umb"/>
                                    </g>
                                </g>
                            </g>
                        </g>
                    </g>
                </g>
            </g>
        </g>
    </g>
    <g transform="translate(0, 12)">
        <g fill="none" fill-rule="evenodd">
            <g>
                <g>
                    <g>
                        <g transform="translate(-150 -725) translate(16 149) translate(0 538) translate(134 38)">
                            <circle cx="30" cy="30" r="30" fill="#DCDCDC"/>
                            <path fill="#FFF" fill-rule="nonzero" d="M30.184 35.61c1.62 0 2.48-.977 2.539-2.637l.293-13.516c.02-.195.02-.43.02-.586 0-1.797-1.095-2.871-2.833-2.871-1.758 0-2.871 1.074-2.871 2.871 0 .156.02.39.02.586l.312 13.516c.04 1.66.898 2.636 2.52 2.636zm0 9.492c1.777 0 3.183-1.348 3.183-3.067s-1.406-3.066-3.183-3.066c-1.778 0-3.184 1.347-3.184 3.066 0 1.719 1.406 3.067 3.184 3.067z"/>
                        </g>
                    </g>
                </g>
            </g>
        </g>
    </g>
    <g transform="translate(0, 72)"> <!-- w48/h48 -->
        <defs>
            <path d="M18.421312,0.243418776 C28.4639643,0.349773061 36.5204285,8.77665306 36.4159753,19.0639249 C36.3118377,29.3524898 28.0855977,37.6048065 18.0429453,37.4978057 C15.2372257,37.467742 12.5864501,36.7892082 10.2253665,35.6015314 C9.0801684,35.0254727 4.22009773,38.1398106 3.22637248,37.3400522 C2.7120644,36.926179 3.19345585,35.5042149 3.6852109,34.0709137 L3.76942943,33.8252798 C4.21717529,32.5166241 4.62651796,31.246103 4.2443965,30.7755037 C1.58383837,27.49824 0.00157784257,23.2731624 0.0482819825,18.6766531" id="path-1"></path>
        </defs>
        <g id="Page-1" stroke="none" stroke-width="1" fill="none" fill-rule="evenodd">
            <g id="Group">
                <path d="M44.9989783,27.691982 C44.8930359,37.9097284 36.5242331,46.1052425 26.3075389,45.9989782 C23.4528744,45.9694425 20.7564813,45.2952581 18.3544794,44.1157564 C17.1894347,43.5436628 12.2451378,46.636564 11.234191,45.8423106 C10.2026978,45.0323262 13.1080863,40.3306925 12.2698576,39.3229473 C9.56319133,36.0682418 7.95350982,31.8722464 8.00102335,27.3073758 C8.10728673,17.0909137 16.4757686,8.89475742 26.6924627,9.00102173 C36.9091569,9.10664395 45.1052417,17.4755198 44.9989783,27.691982" id="Fill-1" fill="#60BAEA"></path>
                <path d="M44.9989783,27.691982 C44.8930359,37.9097284 36.5242331,46.1052425 26.3075389,45.9989782 C23.4528744,45.9694425 20.7564813,45.2952581 18.3544794,44.1157564 C17.1894347,43.5436628 12.2451378,46.636564 11.234191,45.8423106 C10.2026978,45.0323262 13.1080863,40.3306925 12.2698576,39.3229473 C9.56319133,36.0682418 7.95350982,31.8722464 8.00102335,27.3073758 C8.10728673,17.0909137 16.4757686,8.89475742 26.6924627,9.00102173 C36.9091569,9.10664395 45.1052417,17.4755198 44.9989783,27.691982 Z" id="Stroke-3" stroke="#000000"></path>
                <g id="Group-10" transform="translate(9.000000, 9.000000)">
                    <mask id="mask-2" fill="white">
                        <use xlink:href="#path-1"></use>
                    </mask>
                    <g id="Clip-6"></g>
                    <path d="M17.7987584,-2.42507167 C7.75610603,-2.53207249 -0.470133971,5.72186057 -0.574587149,16.0084859 C-0.621291289,20.6059651 0.961284805,24.8307193 3.62215851,28.1076598 C4.44579233,29.1227128 1.58989728,33.8562867 2.60413448,34.6722083 C3.59785973,35.4716434 8.45761483,32.3576287 9.60281297,32.9349806 C11.9642122,34.121041 14.6143565,34.8005447 17.4203917,34.8302851 C27.4633597,34.9369626 35.6895997,26.6839993 35.7937373,16.396081 C35.898506,6.10913241 27.8414108,-2.31807086 17.7987584,-2.42507167 M36.4160384,19.0639896 C36.3119008,29.3525544 28.0856608,37.6048712 18.0430084,37.4978704 C15.2369732,37.4678067 12.5865133,36.7892728 10.2254296,35.6015961 C9.08023151,35.0255373 4.21984527,38.139552 3.22643559,37.3401169 C2.21251396,36.5241953 5.068409,31.7902981 4.24445962,30.7755683 C1.58358591,27.4979814 0.00164095627,23.2732271 0.0480295277,18.6763944 C0.152798274,8.38912261 8.37872271,0.136482612 18.4213751,0.243483429 C28.4640274,0.349837714 36.5204916,8.77639445 36.4160384,19.0639896" id="Fill-5" fill="#231815" opacity="0.104494" mask="url(#mask-2)"></path>
                </g>
                <line x1="11.4335938" y1="10.2241587" x2="9" y2="7" id="Stroke-11" stroke="#FAE252" stroke-width="2.26285714" stroke-linecap="round" stroke-linejoin="round"></line>
                <line x1="6.51893029" y1="16.5114183" x2="3" y2="15" id="Stroke-13" stroke="#FAE252" stroke-width="2.26285714" stroke-linecap="round" stroke-linejoin="round"></line>
                <line x1="19.5434195" y1="6.57389964" x2="19" y2="2" id="Stroke-15" stroke="#FAE252" stroke-width="2.26285714" stroke-linecap="round" stroke-linejoin="round"></line>
                <path d="M24.0715364,18.7359276 C24.0142514,17.2233976 25.0601911,16 26.5071257,16 C27.9683116,16 29.0142514,17.2233976 28.9569664,18.7359276 L28.5556922,29.5845163 C28.4984072,30.8879668 27.6103504,31.7892689 26.5071257,31.7892689 C25.3608674,31.7892689 24.4728106,30.8556317 24.429777,29.5845163 L24.0715364,18.7359276 Z M26.5071257,33.9139687 C27.8825239,33.9139687 29,34.9116483 29,36.4568274 C29,38.0020064 27.8825239,39 26.5071257,39 C25.1317275,39 24,38.0020064 24,36.4568274 C24,34.9116483 25.1317275,33.9139687 26.5071257,33.9139687 L26.5071257,33.9139687 Z" id="Fill-17" fill="#FFFFFF"></path>
                <path d="M24.0715364,18.7359276 C24.0142514,17.2233976 25.0601911,16 26.5071257,16 C27.9683116,16 29.0142514,17.2233976 28.9569664,18.7359276 L28.5556922,29.5845163 C28.4984072,30.8879668 27.6103504,31.7892689 26.5071257,31.7892689 C25.3608674,31.7892689 24.4728106,30.8556317 24.429777,29.5845163 L24.0715364,18.7359276 Z M26.5071257,33.9139687 C27.8825239,33.9139687 29,34.9116483 29,36.4568274 C29,38.0020064 27.8825239,39 26.5071257,39 C25.1317275,39 24,38.0020064 24,36.4568274 C24,34.9116483 25.1317275,33.9139687 26.5071257,33.9139687 Z" id="Stroke-19" stroke="#000000"></path>
            </g>
        </g>
    </g>
</svg>
