<?xml version="1.0" encoding="UTF-8"?>
<svg width="72px" height="72px" viewBox="0 0 72 72" version="1.1" xmlns="http://www.w3.org/2000/svg" xmlns:xlink="http://www.w3.org/1999/xlink">
    <title>Slice</title>
    <defs>
        <rect id="path-1" x="0" y="0" width="328" height="110"></rect>
        <circle id="path-3" cx="62" cy="36" r="36"></circle>
    </defs>
    <g id="Page-1" stroke="none" stroke-width="1" fill="none" fill-rule="evenodd">
        <g id="*Banner" transform="translate(30.000000, -104.000000)">
            <mask id="mask-2" fill="white">
                <use xlink:href="#path-1"></use>
            </mask>
            <use id="Mask" fill-opacity="0" fill="#FFFFFF" xlink:href="#path-1"></use>
        </g>
        <g id="Item_1-Copy-2" transform="translate(-26.000000, 0.000000)">
            <mask id="mask-4" fill="white">
                <use xlink:href="#path-3"></use>
            </mask>
            <use id="Mask" fill="#F9F9F9" xlink:href="#path-3"></use>
            <g id="Group" mask="url(#mask-4)">
                <g transform="translate(34.000000, 22.000000)" id="Illustration/T데이터-쿠폰">
                    <g id="데이터쿠폰" transform="translate(9.333333, 0.000000)" fill-rule="nonzero">
                        <rect id="Rectangle" fill="#FFFFFF" x="0.451612903" y="0.451612903" width="36.1290323" height="55.0967742" rx="3.375"></rect>
                        <path d="M35.2258065,0.903225806 C35.7246443,0.903225806 36.1290323,1.30761377 36.1290323,1.80645161 L36.1290323,54.1935484 C36.1290323,54.6923862 35.7246443,55.0967742 35.2258065,55.0967742 L1.80645161,55.0967742 C1.30761377,55.0967742 0.903225806,54.6923862 0.903225806,54.1935484 L0.903225806,1.80645161 C0.903225806,1.30761377 1.30761377,0.903225806 1.80645161,0.903225806 L35.2258065,0.903225806 M35.2258065,0 L1.80645161,0 C0.808775936,0 0,0.808775936 0,1.80645161 L0,54.1935484 C0,55.1912241 0.808775936,56 1.80645161,56 L35.2258065,56 C36.2234821,56 37.0322581,55.1912241 37.0322581,54.1935484 L37.0322581,1.80645161 C37.0322581,0.808775936 36.2234821,0 35.2258065,0 Z" id="Shape" fill="#000000"></path>
                        <rect id="Rectangle" fill="#EF463B" x="3.16129032" y="9.03225806" width="30.7096774" height="44.2580645" rx="2.25"></rect>
                        <rect id="Rectangle" fill="#000000" x="16.0322581" y="4.06451613" width="4.51612903" height="1" rx="0.5"></rect>
                        <path d="M32.2903226,0 C32.2903226,0 35.2258065,0.903225806 35.2258065,3.16129032 L35.2258065,56 L35.2258065,56 C36.2234821,56 37.0322581,55.1912241 37.0322581,54.1935484 L37.0322581,2.25806452 C37.0322581,2.25806452 37.2580645,0 35,0 L32.2903226,0 Z" id="Path" fill="#000000" opacity="0.1"></path>
                        <path d="M25.5206452,25.6832258 C23.7416808,23.9016811 21.3273382,22.9006025 18.8096774,22.9006025 C16.2920167,22.9006025 13.877674,23.9016811 12.0987097,25.6832258 L9.90387097,23.483871 C14.8241309,18.5737425 22.7907078,18.5737425 27.7109677,23.483871 L25.5206452,25.6832258 Z" id="Path" fill="#FFFFFF"></path>
                        <path d="M16.0006452,29.5896774 L13.8103226,27.3948387 C16.5729007,24.6374209 21.0464541,24.6374209 23.8090323,27.3948387 L21.6141935,29.5896774 C20.8703405,28.8442397 19.8605076,28.4253236 18.8074194,28.4253236 C17.7543311,28.4253236 16.7444982,28.8442397 16.0006452,29.5896774" id="Path" fill="#FFFFFF"></path>
                        <path d="M20.1058143,31.8025806 C20.1058143,32.3290528 19.7884204,32.8035984 19.3018479,33.0046461 C18.8152755,33.2056938 18.2554922,33.0935859 17.8838682,32.720667 C17.5122442,32.3477481 17.402084,31.7875783 17.6048229,31.3017081 C17.8075617,30.8158378 18.2832084,30.5001075 18.8096774,30.5019276 C19.1542161,30.5019276 19.4845779,30.6391092 19.7277794,30.8831582 C19.970981,31.1272072 20.1070069,31.458044 20.1058143,31.8025806" id="Path" fill="#FFFFFF"></path>
                        <path d="M11.2180645,42.9709677 L9.28967742,42.9709677 L9.28967742,38.603871 L8.67096774,38.603871 L8.67096774,37.5606452 L11.2180645,37.5606452 C12.9296774,37.5606452 14.0993548,38.6445161 14.0993548,40.2703226 C14.0993548,41.896129 12.9296774,42.9709677 11.2180645,42.9709677 Z M11.2180645,38.6309677 L10.5090323,38.6309677 L10.5090323,41.896129 L11.2180645,41.896129 C11.8218175,41.9278945 12.3938115,41.6238602 12.7052328,41.1056483 C13.0166541,40.5874365 13.0166541,39.9396603 12.7052328,39.4214484 C12.3938115,38.9032366 11.8218175,38.5992023 11.2180645,38.6309677 L11.2180645,38.6309677 Z" id="Shape" fill="#FFFFFF"></path>
                        <path d="M18.3219355,42.9709677 L17.8703226,41.7516129 L15.9374194,41.7516129 L15.4858065,42.9709677 L14.2167742,42.9709677 L16.3483871,37.5154839 L17.4548387,37.5154839 L19.5774194,42.9709677 L18.3219355,42.9709677 Z M16.903871,39.0283871 L16.3122581,40.6993548 L17.4909677,40.6993548 L16.903871,39.0283871 Z" id="Shape" fill="#FFFFFF"></path>
                        <polygon id="Path" fill="#FFFFFF" points="22.2554839 38.6716129 22.2554839 42.9709677 20.9864516 42.9709677 20.9864516 38.6716129 19.2567742 38.6716129 19.2567742 37.5606452 23.9851613 37.5606452 23.9851613 38.6716129"></polygon>
                        <path d="M27.7741935,42.9709677 L27.3225806,41.7516129 L25.3896774,41.7516129 L24.9380645,42.9709677 L23.6690323,42.9709677 L25.8051613,37.5154839 L26.9070968,37.5154839 L29.0341935,42.9709677 L27.7741935,42.9709677 Z M26.356129,39.0283871 L25.7690323,40.6993548 L26.9432258,40.6993548 L26.356129,39.0283871 Z" id="Shape" fill="#FFFFFF"></path>
                    </g>
                </g>
            </g>
        </g>
    </g>
</svg>