<?xml version="1.0" encoding="UTF-8"?>
<svg width="72px" height="72px" viewBox="0 0 72 72" version="1.1" xmlns="http://www.w3.org/2000/svg" xmlns:xlink="http://www.w3.org/1999/xlink">
    <title>Item_1 Copy</title>
    <defs>
        <rect id="path-1" x="0" y="0" width="328" height="110"></rect>
        <circle id="path-3" cx="62" cy="36" r="36"></circle>
    </defs>
    <g id="Page-1" stroke="none" stroke-width="1" fill="none" fill-rule="evenodd">
        <g id="*Banner" transform="translate(30.000000, -104.000000)">
            <mask id="mask-2" fill="white">
                <use xlink:href="#path-1"></use>
            </mask>
            <use id="Mask" fill-opacity="0" fill="#FFFFFF" xlink:href="#path-1"></use>
        </g>
        <g id="Item_1-Copy" transform="translate(-26.000000, 0.000000)">
            <mask id="mask-4" fill="white">
                <use xlink:href="#path-3"></use>
            </mask>
            <use id="Mask" fill="#F9F9F9" xlink:href="#path-3"></use>
            <g id="Group" mask="url(#mask-4)">
                <g transform="translate(34.000000, 22.000000)" id="Illustration/T데이터-쿠폰">
                    <g id="데이터쿠폰" transform="translate(9.333333, 0.000000)">
                        <rect id="Rectangle" fill="#FFFFFF" fill-rule="nonzero" x="0.451612903" y="0.451612903" width="36.1290323" height="55.0967742" rx="3.375"></rect>
                        <path d="M35.2258065,0.903225806 C35.7246443,0.903225806 36.1290323,1.30761377 36.1290323,1.80645161 L36.1290323,54.1935484 C36.1290323,54.6923862 35.7246443,55.0967742 35.2258065,55.0967742 L1.80645161,55.0967742 C1.30761377,55.0967742 0.903225806,54.6923862 0.903225806,54.1935484 L0.903225806,1.80645161 C0.903225806,1.30761377 1.30761377,0.903225806 1.80645161,0.903225806 L35.2258065,0.903225806 M35.2258065,0 L1.80645161,0 C0.808775936,0 0,0.808775936 0,1.80645161 L0,54.1935484 C0,55.1912241 0.808775936,56 1.80645161,56 L35.2258065,56 C36.2234821,56 37.0322581,55.1912241 37.0322581,54.1935484 L37.0322581,1.80645161 C37.0322581,0.808775936 36.2234821,0 35.2258065,0 Z" id="Shape" fill="#000000" fill-rule="nonzero"></path>
                        <rect id="Rectangle" fill="#EF463B" fill-rule="nonzero" x="3.16129032" y="9.03225806" width="30.7096774" height="44.2580645" rx="2.25"></rect>
                        <rect id="Rectangle" fill="#000000" fill-rule="nonzero" x="16.0322581" y="4.06451613" width="4.51612903" height="1" rx="0.5"></rect>
                        <path d="M32.2903226,0 C32.2903226,0 35.2258065,0.903225806 35.2258065,3.16129032 L35.2258065,56 L35.2258065,56 C36.2234821,56 37.0322581,55.1912241 37.0322581,54.1935484 L37.0322581,2.25806452 C37.0322581,2.25806452 37.2580645,0 35,0 L32.2903226,0 Z" id="Path" fill="#000000" fill-rule="nonzero" opacity="0.1"></path>
                        <g id="Group-7" transform="translate(9.333333, 22.166667)" stroke="#FFFFFF" stroke-linecap="round" stroke-linejoin="round" stroke-width="1.8">
                            <path d="M2.98274667,-9.33333333e-05 L6.53221333,3.54937333 C6.79354667,3.81070667 6.90928,4.18404 6.84021333,4.54804 L6.34648,7.16697333 L10.09848,10.91804 L12.71648,10.4243067 C13.0795467,10.3561733 13.4538133,10.4719067 13.71608,10.73324 L17.2646133,14.2817733 L14.8846133,16.6627067 C13.5695467,17.97684 10.9170133,17.4551067 5.36368,11.9017733 C-0.190586667,6.34750667 -0.711386667,3.69497333 0.602746667,2.38084 L2.98274667,-9.33333333e-05 Z" id="Stroke-1"></path>
                            <path d="M16.73532,6.99813333 C16.3134533,3.62226667 13.6422533,0.951066667 10.2663867,0.5292" id="Stroke-3" stroke-dasharray="47.70000171661377,5.400000214576721,90,3.60000005364418,36,3.60000005364418"></path>
                            <path d="M12.9345067,6.99813333 C12.5957067,5.69146667 11.5737067,4.66853333 10.26704,4.33066667" id="Stroke-5" stroke-dasharray="47.70000171661377,5.400000214576721,90,3.60000005364418,36,3.60000005364418"></path>
                        </g>
                    </g>
                </g>
            </g>
        </g>
    </g>
</svg>