<?xml version="1.0" encoding="UTF-8"?>
<svg width="12px" height="12px" viewBox="0 0 12 12" version="1.1" xmlns="http://www.w3.org/2000/svg" xmlns:xlink="http://www.w3.org/1999/xlink">
    <title>Tag/Tip_Tiny</title>
    <g id="Page-1" stroke="none" stroke-width="1" fill="none" fill-rule="evenodd">
        <g id="Group" transform="translate(0.000000, 0.500000)">
            <rect id="Rectangle-Copy-3" fill="#4DADF7" x="0" y="0" width="12" height="11" rx="5.5"></rect>
            <path d="M6,4 C6.55228475,4 7,3.55228475 7,3 C7,2.44771525 6.55228475,2 6,2 C5.44771525,2 5,2.44771525 5,3 C5,3.55228475 5.44771525,4 6,4 Z" id="Oval" fill="#FFFFFF"></path>
            <path d="M4.98693845,9 C4.77983166,9 4.61193845,8.81962412 4.61193845,8.5971192 C4.61193845,8.37461427 4.77983166,8.19423839 4.98693845,8.19423839 L5.36193845,8.19423839 L5.36193845,5.80576161 L4.98693845,5.80576161 C4.77983166,5.80576161 4.61193845,5.62538573 4.61193845,5.4028808 C4.61193845,5.18037588 4.77983166,5 4.98693845,5 L6.48693845,5 C6.69404523,5 6.86193845,5.18037588 6.86193845,5.4028808 L6.86193845,8.19423839 L7.23693845,8.19423839 C7.44404523,8.19423839 7.61193845,8.37461427 7.61193845,8.5971192 C7.61193845,8.81962412 7.44404523,9 7.23693845,9 L4.98693845,9 Z" id="Path" fill="#FFFFFF"></path>
        </g>
    </g>
</svg>