<?xml version="1.0" encoding="UTF-8"?>
<svg width="16px" height="16px" viewBox="0 0 16 16" version="1.1" xmlns="http://www.w3.org/2000/svg" xmlns:xlink="http://www.w3.org/1999/xlink">
     <style>
         <![CDATA[
            #loading line{animation:loading .8s infinite; animation-fill-mode:both; --delay:0.1s}
            #loading line:nth-child(1){animation-delay:calc(var(--delay) * 1)}
            #loading line:nth-child(2){animation-delay:calc(var(--delay) * 2)}
            #loading line:nth-child(3){animation-delay:calc(var(--delay) * 3)}
            #loading line:nth-child(4){animation-delay:calc(var(--delay) * 4)}
            #loading line:nth-child(5){animation-delay:calc(var(--delay) * 5)}
            #loading line:nth-child(6){animation-delay:calc(var(--delay) * 6)}
            #loading line:nth-child(7){animation-delay:calc(var(--delay) * 7)}
            #loading line:nth-child(8){animation-delay:calc(var(--delay) * 8)}
            @keyframes loading{
               from{opacity:.3}
               to{opacity:1}
            }
        ]]>
    </style>
   
    <g id="Page-1" stroke="none" stroke-width="1" fill="none" fill-rule="evenodd" stroke-linecap="round">
        <g id="loading" stroke="#868E96" transform="translate(1.000000, 1.000000)">
            <line x1="6.62536044" y1="0.5" x2="6.62536044" y2="2.5" id="line1"></line>
            <line x1="10.1608943" y1="1.96446609" x2="10.1608943" y2="3.96446609" transform="translate(10.535534, 2.964466) rotate(45.000000) translate(-10.535534, -2.964466) "></line>
            <line x1="11.6253604" y1="5.5" x2="11.6253604" y2="7.5" transform="translate(12.000000, 6.500000) rotate(90.000000) translate(-12.000000, -6.500000) "></line>
            <line x1="10.1608943" y1="9.03553391" x2="10.1608943" y2="11.0355339" transform="translate(10.535534, 10.035534) rotate(135.000000) translate(-10.535534, -10.035534) "></line>
            <line x1="6.62536044" y1="10.5" x2="6.62536044" y2="12.5" transform="translate(7.000000, 11.500000) rotate(180.000000) translate(-7.000000, -11.500000) "></line>
            <line x1="3.08982653" y1="9.03553391" x2="3.08982653" y2="11.0355339" transform="translate(3.464466, 10.035534) rotate(225.000000) translate(-3.464466, -10.035534) "></line>
            <line x1="1.62536044" y1="5.5" x2="1.62536044" y2="7.5" transform="translate(2.000000, 6.500000) rotate(270.000000) translate(-2.000000, -6.500000) "></line>
            <line x1="3.08982653" y1="1.96446609" x2="3.08982653" y2="3.96446609" transform="translate(3.464466, 2.964466) rotate(315.000000) translate(-3.464466, -2.964466) "></line>
        </g>
    </g>
</svg>