<svg xmlns="http://www.w3.org/2000/svg" width="11" height="11" viewBox="0 0 11 11">
    <defs>
        <filter id="dc4iwk14wa">
            <feColorMatrix in="SourceGraphic" values="0 0 0 0 1.000000 0 0 0 0 1.000000 0 0 0 0 1.000000 0 0 0 1.000000 0"/>
        </filter>
    </defs>
    <g fill="none" fill-rule="evenodd">
        <g>
            <g>
                <g filter="url(#dc4iwk14wa)" transform="translate(-258 -236) translate(0 216) translate(258 20)">
                    <g fill="#333">
                        <path d="M7.192 0L8.038 0 8.038 8.885 7.192 8.885zM2.538 10.154L3.385 10.154 3.385 1.269 2.538 1.269z" transform="rotate(-90 5.5 5.5)"/>
                        <path d="M10.197 6.84c.203.192.203.503 0 .695l-2.216 2.1c-.202.192-.53.192-.733 0l-2.216-2.1c-.203-.192-.203-.503 0-.695.202-.192.53-.192.732 0l1.85 1.754 1.85-1.754c.203-.192.53-.192.733 0zM5.543 3.3c.203-.191.203-.502 0-.694L3.327.506c-.202-.192-.53-.192-.733 0l-2.216 2.1c-.202.192-.202.503 0 .694.202.193.53.193.733 0l1.85-1.753 1.85 1.754c.202.192.53.192.732 0z" transform="rotate(-90 5.5 5.5)"/>
                    </g>
                </g>
            </g>
        </g>
    </g>
</svg>
