<svg xmlns="http://www.w3.org/2000/svg" width="25" height="24" viewBox="0 0 25 24">
    <g fill="none" fill-rule="evenodd">
        <g>
            <g>
                <g>
                    <path d="M0 24L24 24 24 0 0 0z" transform="translate(-21 -509) translate(0 448) translate(21.951 61)"/>
                    <path stroke="#222" stroke-linecap="round" stroke-width="1.5" d="M7.68 21.947H6.593c-.604 0-1.093-.461-1.093-1.03V3.477c0-.57.489-1.03 1.093-1.03h10.815c.603 0 1.092.46 1.092 1.03v17.44c0 .569-.489 1.03-1.092 1.03h-6.313M11.011 4.888L12.508 4.888M5.767 17.181L18.249 17.181" transform="translate(-21 -509) translate(0 448) translate(21.951 61)"/>
                </g>
            </g>
        </g>
    </g>
</svg>
