<svg xmlns="http://www.w3.org/2000/svg" width="25" height="24" viewBox="0 0 25 24">
    <g fill="none" fill-rule="evenodd">
        <g>
            <g>
                <g>
                    <path d="M0 24L24 24 24 0 0 0z" transform="translate(-21 -554) translate(0 448) translate(21.951 106)"/>
                    <path stroke="#222" stroke-linecap="round" stroke-width="1.5" d="M6.125 21.58H4.633c-.604 0-1.093-.461-1.093-1.03V3.11c0-.57.49-1.03 1.093-1.03h14.815c.603 0 1.092.46 1.092 1.03v17.44c0 .569-.489 1.03-1.092 1.03H9.476M11.292 18.835L12.789 18.835M3.902 16.085L20.179 16.085" transform="translate(-21 -554) translate(0 448) translate(21.951 106)"/>
                </g>
            </g>
        </g>
    </g>
</svg>
