<svg xmlns="http://www.w3.org/2000/svg" width="24" height="24" viewBox="0 0 24 24">
    <defs>
        <filter id="4x6883e3sa">
            <feColorMatrix in="SourceGraphic" values="0 0 0 0 1.000000 0 0 0 0 1.000000 0 0 0 0 1.000000 0 0 0 1.000000 0"/>
        </filter>
    </defs>
    <g fill="none" fill-rule="evenodd">
        <g>
            <g filter="url(#4x6883e3sa)" transform="translate(-16 -230) translate(0 216)">
                <g>
                    <path d="M0 24L24 24 24 0 0 0z" transform="translate(16 14)"/>
                    <path stroke="#222" stroke-linecap="round" stroke-width="1.5" d="M12.616 19.353c1.484 1.047 3.234 1.221 3.925 1.221.05.002.098.002.146.002.71 0 1.416-.33 1.957-.76 0 0 .301-.277.317-.294l1.143-1.26c.394-.392.394-.828 0-1.22l-2.848-2.835c-.383-.382-.966-.38-1.347 0l-1.195 1.247-.395.32c-.707.228-2.297-.874-3.937-2.5-1.657-1.65-2.356-3.042-2.029-3.536l1.761-1.744c.36-.349.36-.825 0-1.183l-2.998-3.02c-.345-.314-.91-.213-1.229.1L4.382 5.387c-.658.653-.782 1.54-.782 2.138 0 1.28.375 4.216 4.034 7.755 1.073 1.038.898.901 1.61 1.58l.258.247" transform="translate(16 14)"/>
                </g>
            </g>
        </g>
    </g>
</svg>
