<svg xmlns="http://www.w3.org/2000/svg" width="500" height="500" viewBox="0 0 500 500">
    <defs>
        <filter id="2c2ge8bwca">
            <feColorMatrix in="SourceGraphic" values="0 0 0 0 0.000000 0 0 0 0 0.000000 0 0 0 0 0.000000 0 0 0 1.000000 0"/>
        </filter>
    </defs>
    <g>
        <g fill="none" fill-rule="evenodd">
            <g transform="translate(-16 -92)">
                <g>
                    <g fill="#fff">
                        <g>
                            <path d="M14.139 17.192c0 .955-.778 1.733-1.733 1.733H3.309c-.957 0-1.734-.778-1.734-1.733V3.332c0-.956.777-1.733 1.734-1.733h9.097c.955 0 1.733.777 1.733 1.734v13.859zM3.309.024c-1.825 0-3.31 1.484-3.31 3.309v13.859C0 19.016 1.485 20.5 3.31 20.5h9.097c1.824 0 3.308-1.483 3.308-3.308V3.332c0-1.824-1.484-3.308-3.308-3.308H3.309z" transform="translate(16 92) translate(4 1) translate(0 .727)"/>
                        </g>
                        <path d="M6.785 4.201L8.929 4.201 8.929 3.151 6.785 3.151zM5.657 18.32L10.056 18.32 10.056 16.745 5.657 16.745z" transform="translate(16 92) translate(4 1)"/>
                    </g>
                </g>
            </g>
        </g>
    </g>
    <g transform="translate(24, 0)">
        <g fill="none" fill-rule="evenodd">
            <g transform="translate(-16 -92)">
                <g>
                    <g fill="#000">
                        <g>
                            <path d="M14.139 17.192c0 .955-.778 1.733-1.733 1.733H3.309c-.957 0-1.734-.778-1.734-1.733V3.332c0-.956.777-1.733 1.734-1.733h9.097c.955 0 1.733.777 1.733 1.734v13.859zM3.309.024c-1.825 0-3.31 1.484-3.31 3.309v13.859C0 19.016 1.485 20.5 3.31 20.5h9.097c1.824 0 3.308-1.483 3.308-3.308V3.332c0-1.824-1.484-3.308-3.308-3.308H3.309z" transform="translate(16 92) translate(4 1) translate(0 .727)"/>
                        </g>
                        <path d="M6.785 4.201L8.929 4.201 8.929 3.151 6.785 3.151zM5.657 18.32L10.056 18.32 10.056 16.745 5.657 16.745z" transform="translate(16 92) translate(4 1)"/>
                    </g>
                </g>
            </g>
        </g>
    </g>
    <g transform="translate(0, 24)">
        <g fill="none" fill-rule="evenodd">
            <g>
                <g>
                    <g transform="translate(-2363 -140) translate(2341 79) translate(21.951 61)">
                        <g stroke="#fff">
                            <path d="M11.82 3c4.871 0 8.82 3.949 8.82 8.82s-3.949 8.82-8.82 8.82S3 16.69 3 11.82 6.949 3 11.82 3z" transform="translate(.049)"/>
                            <path stroke-linecap="round" d="M4.919 6.78L19.055 6.78M3.064 11.82L20.542 11.82M4.775 16.44L19.286 16.44" transform="translate(.049)"/>
                            <path d="M11.82 3c2.087 0 3.78 3.949 3.78 8.82s-1.693 8.82-3.78 8.82c-2.088 0-3.78-3.949-3.78-8.82S9.732 3 11.82 3z" transform="translate(.049)"/>
                        </g>
                    </g>
                </g>
            </g>
        </g>
    </g>
     <g transform="translate(24, 24)">
        <g fill="none" fill-rule="evenodd">
            <g>
                <g>
                    <g filter="url(#2c2ge8bwca)" transform="translate(-2363 -140) translate(2341 79) translate(21.951 61)">
                        <g stroke="#000">
                            <path d="M11.82 3c4.871 0 8.82 3.949 8.82 8.82s-3.949 8.82-8.82 8.82S3 16.69 3 11.82 6.949 3 11.82 3z" transform="translate(.049)"/>
                            <path stroke-linecap="round" d="M4.919 6.78L19.055 6.78M3.064 11.82L20.542 11.82M4.775 16.44L19.286 16.44" transform="translate(.049)"/>
                            <path d="M11.82 3c2.087 0 3.78 3.949 3.78 8.82s-1.693 8.82-3.78 8.82c-2.088 0-3.78-3.949-3.78-8.82S9.732 3 11.82 3z" transform="translate(.049)"/>
                        </g>
                    </g>
                </g>
            </g>
        </g>
    </g>
    

   







</svg>
