<svg xmlns="http://www.w3.org/2000/svg" width="24" height="24" viewBox="0 0 24 24">
    <defs>
        <filter id="2xa3qyxmva">
            <feColorMatrix in="SourceGraphic" values="0 0 0 0 1.000000 0 0 0 0 1.000000 0 0 0 0 1.000000 0 0 0 1.000000 0"/>
        </filter>
    </defs>
    <g fill="none" fill-rule="evenodd">
        <g>
            <g filter="url(#2xa3qyxmva)" transform="translate(-16 -302) translate(0 288)">
                <g>
                    <path d="M0 24L24 24 24 0 0 0z" transform="translate(16 14)"/>
                    <path stroke="#222" stroke-linecap="round" stroke-width="1.5" d="M4.369 16.537c-1.152-1.543-1.855-3.445-1.914-5.516-.15-5.347 4.064-9.8 9.41-9.95 5.346-.148 9.8 4.065 9.95 9.41.149 5.347-4.064 9.8-9.41 9.95-1.687.046-3.514-.15-4.95-1.27" transform="translate(16 14)"/>
                    <path fill="#222" d="M16.884 9.22c-1.269-1.268-2.962-2.039-4.886-2.039-1.923 0-3.652.771-4.884 2.038-.077.077-.115.154-.115.271 0 .114.038.191.115.268l.54.54c.154.153.384.153.54 0 .96-.963 2.306-1.579 3.804-1.579 1.501 0 2.848.616 3.81 1.578.153.154.385.154.538 0l.538-.539c.076-.077.115-.154.115-.268 0-.117-.039-.232-.115-.27" transform="translate(16 14)"/>
                    <path fill="#222" d="M11.998 10.257c-1.075 0-2 .424-2.69 1.116-.155.154-.155.385 0 .54l.54.538c.15.154.381.154.536 0 .424-.424 1.001-.653 1.614-.653.617 0 1.192.268 1.617.653.153.154.384.154.538 0l.538-.539c.155-.154.155-.385 0-.539-.692-.692-1.614-1.116-2.693-1.116M12.769 14.103c0 .426-.344.77-.771.77-.423 0-.767-.344-.767-.77 0-.424.344-.768.767-.768.427 0 .771.344.771.768" transform="translate(16 14)"/>
                    <path stroke="#222" stroke-width="1.5" d="M14.301 20.766c0 1.197-.97 2.167-2.167 2.167-1.196 0-2.166-.97-2.166-2.167" transform="translate(16 14)"/>
                </g>
            </g>
        </g>
    </g>
</svg>
