<svg xmlns="http://www.w3.org/2000/svg" width="24" height="24" viewBox="0 0 24 24">
    <defs>
        <filter id="xp9xqfzbga">
            <feColorMatrix in="SourceGraphic" values="0 0 0 0 1.000000 0 0 0 0 1.000000 0 0 0 0 1.000000 0 0 0 1.000000 0"/>
        </filter>
    </defs>
    <g fill="none" fill-rule="evenodd">
        <g>
            <g filter="url(#xp9xqfzbga)" transform="translate(-16 -375) translate(0 360)">
                <g>
                    <path d="M0 24L24 24 24 0 0 0z" transform="translate(16 15)"/>
                    <path stroke="#222" stroke-width="1.5" d="M11.992 2.441c5.337 0 9.664 4.327 9.664 9.665 0 5.337-4.327 9.664-9.664 9.664-5.338 0-9.665-4.327-9.665-9.664 0-5.338 4.327-9.665 9.665-9.665z" transform="translate(16 15)"/>
                    <path stroke="#222" stroke-linecap="round" stroke-width="1.5" d="M4.43 6.583L19.919 6.583M2.397 12.105L21.548 12.105M4.272 17.168L20.171 17.168" transform="translate(16 15)"/>
                    <path stroke="#222" stroke-width="1.5" d="M11.992 2.441c2.287 0 4.142 4.327 4.142 9.665 0 5.337-1.855 9.664-4.142 9.664-2.288 0-4.143-4.327-4.143-9.664 0-5.338 1.855-9.665 4.143-9.665z" transform="translate(16 15)"/>
                </g>
            </g>
        </g>
    </g>
</svg>
