<svg xmlns="http://www.w3.org/2000/svg" width="24" height="24" viewBox="0 0 24 24">
    <g fill="none" fill-rule="evenodd">
        <g>
            <g>
                <g>
                    <g>
                        <path d="M0 24L24 24 24 0 0 0z" transform="translate(-22 -644) translate(0 448) translate(21 185) translate(1 11)"/>
                        <path stroke="#222" stroke-linecap="round" stroke-width="1.5" d="M4.916 16.531c-1.07-1.434-1.725-3.2-1.778-5.126C3 6.436 6.915 2.296 11.884 2.157c4.97-.138 9.108 3.778 9.247 8.746.14 4.97-3.777 9.11-8.746 9.248-1.569.043-3.266-.14-4.6-1.18" transform="translate(-22 -644) translate(0 448) translate(21 185) translate(1 11)"/>
                        <path fill="#222" d="M16.884 9.622c-1.269-1.267-2.962-2.038-4.886-2.038-1.923 0-3.652.77-4.884 2.038-.077.077-.115.155-.115.27 0 .115.038.192.115.269l.54.539c.154.154.384.154.54 0 .96-.961 2.306-1.578 3.804-1.578 1.501 0 2.848.617 3.81 1.578.153.154.385.154.538 0l.538-.54c.076-.076.115-.153.115-.267 0-.116-.039-.231-.115-.271" transform="translate(-22 -644) translate(0 448) translate(21 185) translate(1 11)"/>
                        <path fill="#222" d="M11.998 10.66c-1.075 0-2 .425-2.69 1.117-.155.154-.155.385 0 .539l.54.538c.15.154.381.154.536 0 .424-.423 1.001-.652 1.614-.652.617 0 1.192.268 1.617.652.153.154.384.154.538 0l.538-.538c.155-.155.155-.386 0-.54-.692-.691-1.614-1.115-2.693-1.115M12.769 14.507c0 .426-.344.77-.771.77-.423 0-.767-.344-.767-.77 0-.424.344-.768.767-.768.427 0 .771.344.771.768" transform="translate(-22 -644) translate(0 448) translate(21 185) translate(1 11)"/>
                        <path stroke="#222" d="M14.301 20.3c0 1.198-.97 2.168-2.167 2.168-1.196 0-2.166-.97-2.166-2.167" transform="translate(-22 -644) translate(0 448) translate(21 185) translate(1 11)"/>
                    </g>
                </g>
            </g>
        </g>
    </g>
</svg>
