<svg xmlns="http://www.w3.org/2000/svg" width="24" height="24" viewBox="0 0 24 24">
    <g fill="none" fill-rule="evenodd">
        <g>
            <g>
                <g>
                    <g>
                        <path d="M0 24L24 24 24 0 0 0z" transform="translate(-22 -601) translate(0 448) translate(21 140) translate(1 13)"/>
                        <path stroke="#222" stroke-linecap="round" stroke-width="1.5" d="M4.475 17H3c-.552 0-1-.448-1-1V4c0-.552.448-1 1-1h17c.553 0 1 .448 1 1v12c0 .552-.447 1-1 1H8.241M12 20L12 17.665M8 20.5L16 20.5" transform="translate(-22 -601) translate(0 448) translate(21 140) translate(1 13)"/>
                    </g>
                </g>
            </g>
        </g>
    </g>
</svg>
