<svg xmlns="http://www.w3.org/2000/svg" width="24" height="24" viewBox="0 0 24 24">
    <g fill="none" fill-rule="evenodd">
        <g>
            <g>
                <g>
                    <g>
                        <path d="M0 24L24 24 24 0 0 0z" transform="translate(-22 -736) translate(0 448) translate(21 275) translate(1 13)"/>
                        <path stroke="#222" stroke-width="1.5" d="M11.992 3.106c4.97 0 9 4.029 9 9 0 4.97-4.03 9-9 9-4.971 0-9-4.03-9-9 0-4.971 4.029-9 9-9z" transform="translate(-22 -736) translate(0 448) translate(21 275) translate(1 13)"/>
                        <path stroke="#222" stroke-linecap="round" stroke-width="1.5" d="M5.217 6.583L18.848 6.583M3.678 12.105L20.991 12.105M4.86 17.464L18.786 17.464" transform="translate(-22 -736) translate(0 448) translate(21 275) translate(1 13)"/>
                        <path stroke="#222" stroke-width="1.5" d="M11.992 3.106c2.287 0 4.142 4.029 4.142 9 0 4.97-1.855 9-4.142 9-2.288 0-4.143-4.03-4.143-9 0-4.971 1.855-9 4.143-9z" transform="translate(-22 -736) translate(0 448) translate(21 275) translate(1 13)"/>
                    </g>
                </g>
            </g>
        </g>
    </g>
</svg>
