<?xml version="1.0" encoding="UTF-8"?>
<svg width="16px" height="16px" viewBox="0 0 16 16" version="1.1" xmlns="http://www.w3.org/2000/svg" xmlns:xlink="http://www.w3.org/1999/xlink">
    <title>Item_2</title>
    <g id="Page-1" stroke="none" stroke-width="1" fill="none" fill-rule="evenodd">
        <g id="Group" transform="translate(0.000000, -38.000000)">
            <g id="Group" transform="translate(0.000000, 38.000000)">
                <g transform="translate(3.000000, 1.500000)">
                    <rect id="Rectangle" stroke="#000000" x="0.5" y="0.5" width="8" height="12" rx="1.5"></rect>
                    <path d="M4.2625,2.025 L4.80925,2.025 C4.95422475,2.025 5.07175,1.90747475 5.07175,1.7625 C5.07175,1.61752525 4.95422475,1.5 4.80925,1.5 L4.2625,1.5 C4.11752525,1.5 4,1.61752525 4,1.7625 C4,1.90747475 4.11752525,2.025 4.2625,2.025 Z" id="Fill-1" fill="#000000"></path>
                    <path d="M3.72225,11.2835007 L5.1345,11.2835007 C5.35196212,11.2835007 5.52825,11.1072129 5.52825,10.8897507 C5.52825,10.6722886 5.35196212,10.4960007 5.1345,10.4960007 L3.72225,10.4960007 C3.50478788,10.4960007 3.3285,10.6722886 3.3285,10.8897507 C3.3285,11.1072129 3.50478788,11.2835007 3.72225,11.2835007 Z" id="Fill-2" fill="#000000"></path>
                </g>
                <g id="Group-2" transform="translate(12.000000, 11.000000) scale(-1, 1) translate(-12.000000, -11.000000) translate(7.000000, 6.000000)">
                    <g id="Rectangle-2" transform="translate(5.383883, 5.073223) rotate(45.000000) translate(-5.383883, -5.073223) translate(2.383883, 1.573223)">
                        <path d="M1.34129552,1.28033963 L2.84129552,0.490387226 C3.06003943,0.375189038 3.32150292,0.375189038 3.54024684,0.490387226 L5.04024684,1.28033963 C5.28656872,1.41006134 5.44077118,1.66554883 5.44077118,1.94394099 L5.44077118,5.73984279 C5.44077118,6.15405635 5.10498474,6.48984279 4.69077118,6.48984279 L1.69077118,6.48984279 C1.27655761,6.48984279 0.940771177,6.15405635 0.940771177,5.73984279 L0.940771177,1.94394099 C0.940771177,1.66554883 1.09497363,1.41006134 1.34129552,1.28033963 Z" id="Rectangle" stroke="#000000" fill="#FFFFFF"></path>
                        <path d="M3.19077118,2.7986422 C3.46691355,2.7986422 3.69077118,2.57478457 3.69077118,2.2986422 C3.69077118,2.02249982 3.46691355,1.7986422 3.19077118,1.7986422 C2.9146288,1.7986422 2.69077118,2.02249982 2.69077118,2.2986422 C2.69077118,2.57478457 2.9146288,2.7986422 3.19077118,2.7986422 Z" id="Oval" fill="#000000"></path>
                    </g>
                </g>
            </g>
        </g>
    </g>
</svg>