<?xml version="1.0" encoding="UTF-8"?>
<svg width="16px" height="16px" viewBox="0 0 16 16" version="1.1" xmlns="http://www.w3.org/2000/svg" xmlns:xlink="http://www.w3.org/1999/xlink">
    <title>Slice</title>
    <g id="Page-1" stroke="none" stroke-width="1" fill="none" fill-rule="evenodd">
        <g id="Group" transform="translate(2.000000, 1.000000)">
            <path d="M6,4.68372226 C8.76142375,4.68372226 11,3.78829176 11,2.68372226 C11,1.57915276 8.76142375,0.683722257 6,0.683722257 C3.23857625,0.683722257 1,1.57915276 1,2.68372226 C1,3.78829176 3.23857625,4.68372226 6,4.68372226 Z" id="Oval-Copy" stroke="#000000" stroke-linejoin="round"></path>
            <path d="M1,5.68372226 C1,6.78829176 3.23857625,7.68372226 6,7.68372226 C8.76142375,7.68372226 11,6.78829176 11,5.68372226" id="Path" stroke="#000000" stroke-linejoin="round"></path>
            <line x1="11" y1="3.18372226" x2="11" y2="11.1837223" id="Line-2" stroke="#000000" stroke-linecap="square"></line>
            <line x1="1" y1="3.18372226" x2="1" y2="11.1837223" id="Line-2-Copy" stroke="#000000" stroke-linecap="square"></line>
            <path d="M1,8.68372226 C1,9.78829176 3.23857625,10.6837223 6,10.6837223 C8.76142375,10.6837223 11,9.78829176 11,8.68372226" id="Path" stroke="#000000" stroke-linejoin="round"></path>
            <path d="M1,11.6837223 C1,12.7882918 3.23857625,13.6837223 6,13.6837223 C8.76142375,13.6837223 11,12.7882918 11,11.6837223" id="Path-Copy-2" stroke="#000000" stroke-linejoin="round"></path>
            <path d="M9,6.68372226 C9.96649831,6.68372226 10.8414983,7.0754731 11.4748737,7.70884852 C12.1082492,8.34222394 12.5,9.21722394 12.5,10.1837223 C12.5,11.1502206 12.1082492,12.0252206 11.4748737,12.658596 C10.8414983,13.2919714 9.96649831,13.6837223 9,13.6837223 C8.03350169,13.6837223 7.15850169,13.2919714 6.52512627,12.658596 C5.89175084,12.0252206 5.5,11.1502206 5.5,10.1837223 C5.5,9.21722394 5.89175084,8.34222394 6.52512627,7.70884852 C7.15850169,7.0754731 8.03350169,6.68372226 9,6.68372226 Z" id="Oval" stroke="#000000" fill="#FFFFFF"></path>
            <path d="M9.69074307,10.9337223 C9.69074307,11.1527811 9.82166247,11.2603191 9.96845088,11.2603191 C10.1271411,11.2603191 10.2382242,11.156764 10.2382242,10.941688 C10.2382242,10.7186463 10.1033375,10.6031425 9.96051637,10.6031425 C9.79785894,10.6031425 9.69074307,10.7146634 9.69074307,10.9337223 Z M9.16662469,10.941688 C9.16662469,10.4756901 9.54395466,10.1809564 9.96845088,10.1809564 C10.3889798,10.1809564 10.75,10.4717072 10.75,10.9337223 C10.75,11.392197 10.3810453,11.6829478 9.96051637,11.6829478 C9.53557935,11.6829478 9.16662469,11.392197 9.16662469,10.941688 Z M7.76971033,9.42774792 C7.76971033,9.64680678 7.90459698,9.75832766 8.04741814,9.75832766 C8.20654912,9.75832766 8.31719144,9.65078967 8.31719144,9.4357137 C8.31719144,9.21267195 8.18671285,9.10115108 8.03992443,9.10115108 C7.8768262,9.10115108 7.76971033,9.20868907 7.76971033,9.42774792 Z M8.31366499,11.6510847 L7.73400504,11.6510847 L9.6784005,8.7187938 L10.2580605,8.7187938 L8.31366499,11.6510847 Z M7.25,9.4357137 C7.25,8.97369865 7.62688917,8.68294781 8.04741814,8.68294781 C8.47235516,8.68294781 8.83337531,8.96971577 8.83337531,9.42774792 C8.83337531,9.89020551 8.46397985,10.1809564 8.03992443,10.1809564 C7.61498741,10.1809564 7.25,9.89374586 7.25,9.4357137 Z" id="Fill-9" fill="#000000"></path>
        </g>
    </g>
</svg>