<?xml version="1.0" encoding="UTF-8"?>
<svg width="16px" height="16px" viewBox="0 0 16 16" version="1.1" xmlns="http://www.w3.org/2000/svg" xmlns:xlink="http://www.w3.org/1999/xlink">
    <title>Slice</title>
    <g id="Page-1" stroke="none" stroke-width="1" fill="none" fill-rule="evenodd">
        <g id="Group">
            <g transform="translate(1.000000, 1.000000)" fill="#FFFFFF" stroke="#000000">
                <path d="M2.26315789,4.3645 L11.7368421,4.3645 C12.4347368,4.3645 13,4.94017857 13,5.65021429 L13,12.0787857 C13,12.7888214 12.4347368,13.3645 11.7368421,13.3645 L2.26315789,13.3645 C1.56557895,13.3645 1,12.7888214 1,12.0787857 L1,5.65021429 C1,4.94017857 1.56557895,4.3645 2.26315789,4.3645 Z" id="Path"></path>
                <path d="M9.49685579,3.3645 C9.66967814,3.26510949 9.83407013,3.15743643 9.98750266,3.04235268 C10.4537015,2.69230627 10.78375,2.29735975 10.9426623,1.90023362 C11.0649025,1.59421547 10.9742761,1.30345462 10.8339107,1.03056663 C10.5772062,0.530562605 9.7438653,0.178336576 9.02391268,0.665698829 C8.63063645,0.932483891 8.06285181,1.33789256 7.50012538,2.22848387 C7.32603847,2.50485925 7.17471354,2.77164431 7.05795307,2.98873411 C6.63432756,2.31305299 5.82796376,1.11687945 5.13540981,0.599002563 C4.6224225,0.214954133 4.01670124,0.350962204 3.55935429,0.660467749 C3.14837431,0.938586817 3,1.33876441 3,1.88628408 C3,2.46824169 3.80257013,3.04976337 4.33536879,3.3645" id="Path"></path>
                <path d="M0.666904847,2.3645 L13.3330952,2.3645 C13.7015601,2.3645 14,2.752 14,3.2295 L14,4.5 C14,4.9775 13.7015601,5.3645 13.3330952,5.3645 L0.666904847,5.3645 C0.298773371,5.3645 0,4.9775 0,4.5 L0,3.2295 C0,2.752 0.298773371,2.3645 0.666904847,2.3645 Z" id="Path-Copy-3"></path>
            </g>
            <path d="M5.96927036,8.14592144 C6.01373751,8.14592144 6.05063579,8.15521911 6.08942628,8.16367154 C6.2389116,8.20677891 6.35622919,8.24904104 6.35622919,8.24904104 C6.27391765,8.65982891 6.52463669,9.29460606 7.03553588,9.4661903 C7.23611111,9.53042873 7.3534287,9.63101259 7.45371632,9.78146577 C7.58900999,9.97925252 7.66186043,10.2243729 7.66186043,10.437374 L7.66186043,10.437374 L7.66186043,11.3451645 C7.66186043,11.9055603 7.93717832,12.364527 8.38468816,12.4972301 L8.38468816,12.4972301 L7.69024372,12.727136 C7.54927339,12.7753149 7.41587193,12.727136 7.33166818,12.6738858 C6.99485316,12.4668013 6.81509234,12.1515259 6.81509234,11.6604399 L6.81509234,11.6604399 L6.81509234,10.7044706 C6.81509234,10.4694932 6.71480472,10.2023966 6.55301998,9.99953834 C6.43475628,9.84993041 6.29567817,9.75441801 6.11591735,9.69609627 C5.77531789,9.57776231 5.5,9.15683153 5.5,8.74604365 C5.5,8.38766081 5.69016803,8.16367154 5.94277929,8.14676669 C5.95129428,8.14676669 5.96075537,8.14592144 5.96927036,8.14592144 Z M6.99750227,7.74696696 C7.04386164,7.74696696 7.09589767,7.75710987 7.13090372,7.76302657 L9.85002271,8.54910214 C10.3221314,8.69279337 10.5,9.21853423 10.5,9.5 C10.5,9.72821549 10.413904,9.99446689 10.1489933,10.0849078 C10.0898615,10.104771 10.0016368,10.1342489 9.90256136,10.1672926 L9.69534802,10.2363422 C9.44933215,10.3182652 9.21045262,10.3976476 9.21045262,10.3976476 C9.18774599,10.4568146 9.14138662,10.5573984 9.14138662,10.7915306 L9.14138662,11.7635595 C9.14138662,12.0661564 8.97960188,12.3484674 8.67495459,12.3484674 C8.54155313,12.3425507 8.39206782,12.2842289 8.27096579,12.1777284 L8.27096579,11.0991989 C8.27096579,10.8126617 8.35800787,10.5624699 8.5879125,10.4880885 L9.56145928,10.1694321 C9.58511202,10.1111104 9.63052528,9.99953834 9.62484862,9.8457042 C9.61349531,9.29798703 9.29087193,8.89987779 8.84241599,8.76717471 L6.17438692,7.99631351 L6.87166969,7.76809803 C6.90667575,7.75710987 6.95776567,7.74696696 6.99750227,7.74696696 Z" id="Combined-Shape" fill="#000000"></path>
        </g>
    </g>
</svg>