<?xml version="1.0" encoding="UTF-8"?>
<svg width="16px" height="16px" viewBox="0 0 16 16" version="1.1" xmlns="http://www.w3.org/2000/svg" xmlns:xlink="http://www.w3.org/1999/xlink">
    <title>Slice</title>
    <g id="Page-1" stroke="none" stroke-width="1" fill="none" fill-rule="evenodd">
        <g id="Group" transform="translate(2.000000, 1.000000)">
            <rect id="Rectangle" stroke="#000000" x="1" y="1" width="8" height="12" rx="1.5"></rect>
            <path d="M4.7625,2.525 L5.30925,2.525 C5.45422475,2.525 5.57175,2.40747475 5.57175,2.2625 C5.57175,2.11752525 5.45422475,2 5.30925,2 L4.7625,2 C4.61752525,2 4.5,2.11752525 4.5,2.2625 C4.5,2.40747475 4.61752525,2.525 4.7625,2.525 Z" id="Fill-1" fill="#000000"></path>
            <path d="M9,6.5 C9.96649831,6.5 10.8414983,6.89175084 11.4748737,7.52512627 C12.1082492,8.15850169 12.5,9.03350169 12.5,10 C12.5,10.9664983 12.1082492,11.8414983 11.4748737,12.4748737 C10.8414983,13.1082492 9.96649831,13.5 9,13.5 C8.03350169,13.5 7.15850169,13.1082492 6.52512627,12.4748737 C5.89175084,11.8414983 5.5,10.9664983 5.5,10 C5.5,9.03350169 5.89175084,8.15850169 6.52512627,7.52512627 C7.15850169,6.89175084 8.03350169,6.5 9,6.5 Z" id="Oval" stroke="#000000" fill="#FFFFFF"></path>
            <line x1="9.92401644" y1="10.8399999" x2="9.92401644" y2="9.27307419" id="Line-Copy" stroke="#000000" stroke-linecap="round"></line>
            <line x1="8.14825397" y1="10.8399999" x2="8.14825397" y2="9.27307419" id="Line-Copy-2" stroke="#000000" stroke-linecap="round"></line>
            <path d="M4.22225,11.7835007 L5.6345,11.7835007 C5.85196212,11.7835007 6.02825,11.6072129 6.02825,11.3897507 C6.02825,11.1722886 5.85196212,10.9960007 5.6345,10.9960007 L4.22225,10.9960007 C4.00478788,10.9960007 3.8285,11.1722886 3.8285,11.3897507 C3.8285,11.6072129 4.00478788,11.7835007 4.22225,11.7835007 Z" id="Fill-2" fill="#000000"></path>
        </g>
    </g>
</svg>