<?xml version="1.0" encoding="UTF-8"?>
<svg width="16px" height="16px" viewBox="0 0 16 16" version="1.1" xmlns="http://www.w3.org/2000/svg" xmlns:xlink="http://www.w3.org/1999/xlink">
    <title>Slice</title>
    <g id="Page-1" stroke="none" stroke-width="1" fill="none" fill-rule="evenodd">
        <g id="Group">
            <path d="M3.74784,1.50034166 L12,1.5 C12.48256,1.5 12.87392,1.92229055 12.87392,2.44366223 L12.87392,14.4440039 L11.87392,13.4440039 L10.87392,14.4440039 L9.87392,13.4440039 L8.87392,14.4440039 L7.87392,13.4440039 L6.87392,14.4440039 L5.87392,13.4440039 L4.87392,14.4440039 L3.87392,13.4440039 L2.87392,14.4440039 L2.87392,2.44400388 C2.87392,1.92263221 3.26528,1.50034166 3.74784,1.50034166 Z" id="Stroke-3" stroke="#000000" stroke-linejoin="round"></path>
            <line x1="4.48535156" y1="10" x2="10.4853516" y2="10" id="Line-5" stroke="#000000" stroke-width="0.75" stroke-linecap="round"></line>
            <line x1="4.48535156" y1="11.5" x2="7.48535156" y2="11.5" id="Line-5-Copy" stroke="#000000" stroke-width="0.75" stroke-linecap="round"></line>
            <line x1="4.5" y1="8.5" x2="10.5" y2="8.5" id="Line-5-Copy-3" stroke="#000000" stroke-width="0.75" stroke-linecap="round"></line>
            <path d="M6.82493369,6.05670886 L6.90185676,5.68455696 L6.73580902,5.68455696 L6.82493369,6.05670886 Z M5.91724138,5.27139241 L6.07427056,5.27139241 L5.99363395,4.9235443 L5.91724138,5.27139241 Z M5.18355438,6.05670886 L5.26419098,5.68455696 L5.1071618,5.68455696 L5.18355438,6.05670886 Z M7.1729443,7 L6.53209549,7 L6.17188329,5.68455696 L5.82387268,5.68455696 L5.47586207,7 L4.83129973,7 L4.4668435,5.68455696 L4.00424403,5.68455696 L4.00424403,5.27139241 L4.35225464,5.27139241 L4,4 L4.73793103,4 L5.03076923,5.27139241 L5.35702918,5.27139241 L5.69655172,4 L6.30344828,4 L6.64668435,5.27139241 L6.97771883,5.27139241 L7.27055703,4 L8,4 L7.65251989,5.27139241 L7.99575597,5.27139241 L7.99575597,5.68455696 L7.53793103,5.68455696 L7.1729443,7 Z" id="Fill-4" fill="#000000"></path>
        </g>
    </g>
</svg>