<?xml version="1.0" encoding="UTF-8"?>
<svg width="16px" height="16px" viewBox="0 0 16 16" version="1.1" xmlns="http://www.w3.org/2000/svg" xmlns:xlink="http://www.w3.org/1999/xlink">
    <title>Slice</title>
    <g id="Page-1" stroke="none" stroke-width="1" fill="none" fill-rule="evenodd">
        <g id="Group-3" stroke="#000000" transform="translate(2.000000, 1.000000)">
            <path d="M6,0.800417097 C6.79595252,0.800417097 7.44119952,1.4456641 7.44119952,2.24161662 C7.44119952,2.26082301 7.44081558,2.28002749 7.44004794,2.29921854 L7.03996804,12.3012161 C7.01764051,12.8594044 6.55863461,13.3004171 6,13.3004171 C5.44136539,13.3004171 4.98235949,12.8594044 4.96003196,12.3012161 L4.55995206,2.29921854 C4.5281394,1.50390202 5.14708156,0.833381336 5.94239808,0.801568675 C5.96158913,0.800801033 5.98079361,0.800417097 6,0.800417097 Z" id="Rectangle"></path>
            <polyline id="Path-4" stroke-linejoin="round" points="4.5 5.0504171 0 8.5504171 0 9.5504171 4.75 8.0504171"></polyline>
            <polyline id="Path-4-Copy" stroke-width="0.75" stroke-linejoin="round" points="4.75 10.8004171 3 12.5504171 3 13.5504171 5 12.8004171"></polyline>
            <polyline id="Path-4" stroke-linejoin="round" transform="translate(9.625000, 7.300417) scale(-1, 1) translate(-9.625000, -7.300417) " points="11.75 5.0504171 7.25 8.5504171 7.25 9.5504171 12 8.0504171"></polyline>
            <polyline id="Path-4-Copy" stroke-width="0.75" stroke-linejoin="round" transform="translate(8.000000, 12.175417) scale(-1, 1) translate(-8.000000, -12.175417) " points="8.75 10.8004171 7 12.5504171 7 13.5504171 9 12.8004171"></polyline>
        </g>
    </g>
</svg>