<?xml version="1.0" encoding="UTF-8"?>
<svg width="16px" height="16px" viewBox="0 0 16 16" version="1.1" xmlns="http://www.w3.org/2000/svg" xmlns:xlink="http://www.w3.org/1999/xlink">
    <title>Slice</title>
    <g id="Page-1" stroke="none" stroke-width="1" fill="none" fill-rule="evenodd">
        <g id="Group" transform="translate(1.000000, 1.000000)">
            <path d="M2.26315789,4.3645 L11.7368421,4.3645 C12.4347368,4.3645 13,4.94017857 13,5.65021429 L13,12.0787857 C13,12.7888214 12.4347368,13.3645 11.7368421,13.3645 L2.26315789,13.3645 C1.56557895,13.3645 1,12.7888214 1,12.0787857 L1,5.65021429 C1,4.94017857 1.56557895,4.3645 2.26315789,4.3645 Z" id="Path" stroke="#000000" fill="#FFFFFF"></path>
            <path d="M9.49685579,3.3645 C9.66967814,3.26510949 9.83407013,3.15743643 9.98750266,3.04235268 C10.4537015,2.69230627 10.78375,2.29735975 10.9426623,1.90023362 C11.0649025,1.59421547 10.9742761,1.30345462 10.8339107,1.03056663 C10.5772062,0.530562605 9.7438653,0.178336576 9.02391268,0.665698829 C8.63063645,0.932483891 8.06285181,1.33789256 7.50012538,2.22848387 C7.32603847,2.50485925 7.17471354,2.77164431 7.05795307,2.98873411 C6.63432756,2.31305299 5.82796376,1.11687945 5.13540981,0.599002563 C4.6224225,0.214954133 4.01670124,0.350962204 3.55935429,0.660467749 C3.14837431,0.938586817 3,1.33876441 3,1.88628408 C3,2.46824169 3.80257013,3.04976337 4.33536879,3.3645" id="Path" stroke="#000000" fill="#FFFFFF"></path>
            <path d="M0.666904847,2.3645 L13.3330952,2.3645 C13.7015601,2.3645 14,2.752 14,3.2295 L14,4.5 C14,4.9775 13.7015601,5.3645 13.3330952,5.3645 L0.666904847,5.3645 C0.298773371,5.3645 0,4.9775 0,4.5 L0,3.2295 C0,2.752 0.298773371,2.3645 0.666904847,2.3645 Z" id="Path-Copy-3" stroke="#000000" fill="#FFFFFF"></path>
            <path d="M7.98677582,10.3655326 C7.98677582,10.6576111 8.17380353,10.8009951 8.38350126,10.8009951 C8.61020151,10.8009951 8.76889169,10.6629216 8.76889169,10.3761536 C8.76889169,10.0787646 8.57619647,9.92475963 8.37216625,9.92475963 C8.13979849,9.92475963 7.98677582,10.0734541 7.98677582,10.3655326 Z M7.23803526,10.3761536 C7.23803526,9.75482306 7.77707809,9.36184474 8.38350126,9.36184474 C8.98425693,9.36184474 9.5,9.74951254 9.5,10.3655326 C9.5,10.9768322 8.97292191,11.3645 8.37216625,11.3645 C7.76511335,11.3645 7.23803526,10.9768322 7.23803526,10.3761536 Z M5.24244332,8.35756682 C5.24244332,8.6496453 5.43513854,8.7983398 5.63916877,8.7983398 C5.86649874,8.7983398 6.02455919,8.65495582 6.02455919,8.36818786 C6.02455919,8.07079886 5.83816121,7.92210437 5.62846348,7.92210437 C5.39546599,7.92210437 5.24244332,8.06548835 5.24244332,8.35756682 Z M6.01952141,11.3220159 L5.19143577,11.3220159 L7.96914358,7.41229466 L8.79722922,7.41229466 L6.01952141,11.3220159 Z M4.5,8.36818786 C4.5,7.7521678 5.0384131,7.3645 5.63916877,7.3645 C6.24622166,7.3645 6.76196474,7.74685728 6.76196474,8.35756682 C6.76196474,8.97417694 6.23425693,9.36184474 5.62846348,9.36184474 C5.02141058,9.36184474 4.5,8.9788974 4.5,8.36818786 Z" id="Fill-9" fill="#000000"></path>
        </g>
    </g>
</svg>