<?xml version="1.0" encoding="UTF-8"?>
<svg width="16px" height="16px" viewBox="0 0 16 16" version="1.1" xmlns="http://www.w3.org/2000/svg" xmlns:xlink="http://www.w3.org/1999/xlink">
    <title>Slice</title>
    <g id="Page-1" stroke="none" stroke-width="1" fill="none" fill-rule="evenodd">
        <g id="Group" stroke="#000000" transform="translate(1.000000, 1.000000)">
            <path d="M4.84591449,2.91489247 L6.40201823,2.91489247 C6.58601823,2.91489247 6.73535156,3.02664247 6.73535156,3.16489247 L6.73535156,5.25 C6.73535156,5.388 6.58601823,5.5 6.40201823,5.5 L4.84591449,5.5 C4.66158115,5.5 4.51258115,5.388 4.51258115,5.25 L4.51258115,3.16489247 C4.51258115,3.02664247 4.66158115,2.91489247 4.84591449,2.91489247 Z" id="Path" stroke-width="0.75"></path>
            <path d="M8.51868279,3.42427202 L9.85201612,3.42427202 C10.0360161,3.42427202 10.1853495,3.55227202 10.1853495,3.7099863 L10.1853495,5.13855773 C10.1853495,5.29655773 10.0360161,5.42427202 9.85201612,5.42427202 L8.51868279,5.42427202 C8.33434946,5.42427202 8.18534946,5.29655773 8.18534946,5.13855773 L8.18534946,3.7099863 C8.18534946,3.55227202 8.33434946,3.42427202 8.51868279,3.42427202 Z" id="Path" stroke-width="0.75"></path>
            <line x1="4.48535156" y1="7" x2="10.4853516" y2="7" id="Line-5" stroke-width="0.75" stroke-linecap="round"></line>
            <line x1="4.48535156" y1="8.5" x2="7.48535156" y2="8.5" id="Line-5-Copy" stroke-width="0.75" stroke-linecap="round"></line>
            <path d="M13.675072,9.40243282 L13.675072,1.90073866 C13.675072,1.34845391 13.2273567,0.900738656 12.675072,0.900738656 C9.32639077,0.900738656 5.97770954,0.900738656 2.62902832,0.900738656 C3.41240965,1.26609521 3.80410031,1.96584899 3.80410031,3 L3.80410031,11.9023438 C3.80410031,12.4546285 4.25181556,12.9023438 4.80410031,12.9023438 C7.17777726,12.9023438 9.55145421,12.9023438 11.9251312,12.9023438" id="Stroke-1-Copy-2" stroke-linecap="round" stroke-linejoin="round" transform="translate(8.152050, 6.901541) scale(-1, 1) translate(-8.152050, -6.901541) "></path>
            <path d="M0.62902832,9.90243282 L0.62902832,9.93262729 C1.31756602,10.0718289 1.83577041,10.6767419 1.83577041,11.4024328 C1.83577041,12.1281237 1.31756602,12.7330367 0.62902832,12.8722383 L0.62902832,12.9024328 L8.14822091,12.9024328 C9.14757833,12.9024328 9.95807675,12.0963939 9.95807675,11.1025352 L9.95807675,9.90243282 L0.62902832,9.90243282 Z" id="Stroke-3" transform="translate(5.293553, 11.402433) scale(-1, 1) translate(-5.293553, -11.402433) "></path>
        </g>
    </g>
</svg>