<?xml version="1.0" encoding="UTF-8"?>
<svg width="16px" height="16px" viewBox="0 0 16 16" version="1.1" xmlns="http://www.w3.org/2000/svg" xmlns:xlink="http://www.w3.org/1999/xlink">
    <title>Slice</title>
    <g id="Page-1" stroke="none" stroke-width="1" fill="none" fill-rule="evenodd">
        <g id="Group" stroke="#000000" transform="translate(1.000000, 1.000000)">
            <path d="M6,13 L7,13 C10.0375661,13 12.5,10.5375661 12.5,7.5 C12.5,4.46243388 10.0375661,2 7,2 L6,2" id="Path" stroke-linecap="round" stroke-linejoin="round"></path>
            <line x1="6.75" y1="2.75" x2="6.75" y2="0.75" id="Line" stroke-linecap="round"></line>
            <line x1="7.5" y1="0.5" x2="6" y2="0.5" id="Line-Copy" stroke-linecap="round"></line>
            <path d="M6.86109434,6.07259062 L9.66799436,6.94974688 L9.66799436,6.94974688 L6.86109434,7.82690314 C6.37665431,7.97829065 5.86121425,7.70829824 5.70982675,7.22385821 C5.68209901,7.13512945 5.66799436,7.0427072 5.66799436,6.94974688 C5.66799436,6.44220347 6.07943959,6.03075824 6.586983,6.03075824 C6.67994333,6.03075824 6.77236557,6.04486288 6.86109434,6.07259062 Z" id="Rectangle" stroke-width="0.75" stroke-linejoin="round" transform="translate(7.667994, 6.949747) rotate(-27.000000) translate(-7.667994, -6.949747) "></path>
            <g id="Group-2" transform="translate(6.000000, 2.000000)" stroke-linecap="round" stroke-width="0.75">
                <line x1="0.75" y1="0.25" x2="0.75" y2="0.75" id="Line-6"></line>
                <line x1="3.25" y1="0.919872981" x2="3.25" y2="1.41987298" id="Line-6" transform="translate(3.250000, 1.169873) rotate(30.000000) translate(-3.250000, -1.169873) "></line>
                <line x1="5.08012702" y1="2.75" x2="5.08012702" y2="3.25" id="Line-6" transform="translate(5.080127, 3.000000) rotate(60.000000) translate(-5.080127, -3.000000) "></line>
                <line x1="5.75" y1="5.25" x2="5.75" y2="5.75" id="Line-6" transform="translate(5.750000, 5.500000) rotate(90.000000) translate(-5.750000, -5.500000) "></line>
                <line x1="5.08012702" y1="7.75" x2="5.08012702" y2="8.25" id="Line-6" transform="translate(5.080127, 8.000000) rotate(120.000000) translate(-5.080127, -8.000000) "></line>
                <line x1="3.25" y1="9.58012702" x2="3.25" y2="10.080127" id="Line-6" transform="translate(3.250000, 9.830127) rotate(150.000000) translate(-3.250000, -9.830127) "></line>
                <line x1="0.75" y1="10.25" x2="0.75" y2="10.75" id="Line-6" transform="translate(0.750000, 10.500000) rotate(180.000000) translate(-0.750000, -10.500000) "></line>
            </g>
            <g id="Line-8" transform="translate(0.000000, 2.500000)" stroke-linecap="round">
                <line x1="4.25" y1="1.25" x2="3.15522572" y2="1.25" id="Line-7"></line>
                <line x1="4.25" y1="3.125" x2="1.54596842" y2="3.125" id="Line-7-Copy"></line>
                <line x1="4.25" y1="5" x2="0.5" y2="5" id="Line-7-Copy-2"></line>
                <line x1="4.25" y1="6.875" x2="1.54596842" y2="6.875" id="Line-7-Copy-3"></line>
                <line x1="4.25" y1="8.75" x2="3.15522572" y2="8.75" id="Line-7-Copy-4"></line>
            </g>
            <g id="Group-3" transform="translate(11.969670, 2.324626) rotate(-315.000000) translate(-11.969670, -2.324626) translate(10.469670, 0.824626)" stroke-width="0.75">
                <path d="M0.896446609,0.353553391 L2.39644661,0.353553391 C2.5345178,0.353553391 2.64644661,0.465482203 2.64644661,0.603553391 L2.64644661,1.35215058 C2.64644661,1.49022176 2.5345178,1.60215058 2.39644661,1.60215058 L0.896446609,1.60215058 C0.758375422,1.60215058 0.646446609,1.49022176 0.646446609,1.35215058 L0.646446609,0.603553391 C0.646446609,0.465482203 0.758375422,0.353553391 0.896446609,0.353553391 Z" id="Rectangle"></path>
                <line x1="1.64644661" y1="1.60215058" x2="1.64644661" y2="2.60215058" id="Line-2" stroke-linecap="square"></line>
            </g>
        </g>
    </g>
</svg>