<?xml version="1.0" encoding="UTF-8"?>
<svg width="16px" height="16px" viewBox="0 0 16 16" version="1.1" xmlns="http://www.w3.org/2000/svg" xmlns:xlink="http://www.w3.org/1999/xlink">
    <title>Slice</title>
    <g id="Page-1" stroke="none" stroke-width="1" fill="none" fill-rule="evenodd">
        <g id="Group" transform="translate(1.000000, 2.000000)">
            <path d="M8.39011936,6.05822785 L8.49588859,5.5 L8.26757294,5.5 L8.39011936,6.05822785 Z M7.14204244,4.88025316 L7.35795756,4.88025316 L7.24708223,4.35848101 L7.14204244,4.88025316 Z M6.13322281,6.05822785 L6.24409814,5.5 L6.02818302,5.5 L6.13322281,6.05822785 Z M8.86863395,7.47316456 L7.98746684,7.47316456 L7.49217507,5.5 L7.01366048,5.5 L6.53514589,7.47316456 L5.64887268,7.47316456 L5.14774536,5.5 L4.51167109,5.5 L4.51167109,4.88025316 L4.99018568,4.88025316 L4.50583554,2.97316456 L5.52049072,2.97316456 L5.92314324,4.88025316 L6.37175066,4.88025316 L6.83859416,2.97316456 L7.67307692,2.97316456 L8.14502653,4.88025316 L8.60019894,4.88025316 L9.00285146,2.97316456 L10.0058355,2.97316456 L9.5280504,4.88025316 L10,4.88025316 L10,5.5 L9.37049072,5.5 L8.86863395,7.47316456 Z" id="Fill-4" fill="#000000"></path>
            <path d="M13.3966269,8.64784966 L13.3966269,1.1461555 C13.3966269,0.593870748 12.9489116,0.146155497 12.3966269,0.146155497 C9.04794567,0.146155497 5.69926445,0.146155497 2.35058323,0.146155497 C3.13396455,0.511512049 3.52565522,1.21126583 3.52565522,2.24541684 L3.52565522,11.1477606 C3.52565522,11.7000453 3.97337047,12.1477606 4.52565522,12.1477606 C6.89933217,12.1477606 9.27300911,12.1477606 11.6466861,12.1477606" id="Stroke-1-Copy-2" stroke="#000000" stroke-linecap="round" stroke-linejoin="round" transform="translate(7.873605, 6.146958) scale(-1, 1) translate(-7.873605, -6.146958) "></path>
            <path d="M0.350583227,9.14784966 L0.350583227,9.17804414 C1.03912093,9.31724577 1.55732532,9.92215877 1.55732532,10.6478497 C1.55732532,11.3735406 1.03912093,11.9784536 0.350583227,12.1176552 L0.350583227,12.1478497 L7.86977582,12.1478497 C8.86913324,12.1478497 9.67963165,11.3418108 9.67963165,10.347952 L9.67963165,9.14784966 L0.350583227,9.14784966 Z" id="Stroke-3" stroke="#000000" transform="translate(5.015107, 10.647850) scale(-1, 1) translate(-5.015107, -10.647850) "></path>
        </g>
    </g>
</svg>