<?xml version="1.0" encoding="UTF-8"?>
<svg width="16px" height="16px" viewBox="0 0 16 16" version="1.1" xmlns="http://www.w3.org/2000/svg" xmlns:xlink="http://www.w3.org/1999/xlink">
    <title>Item_1</title>
    <g id="Page-1" stroke="none" stroke-width="1" fill="none" fill-rule="evenodd">
        <g id="Group" transform="translate(2.000000, 1.000000)">
            <path d="M6.78391077,0.944003884 L10.9740104,4.66853692 L10.9740104,11.9440039 C10.9740104,12.2201463 10.8620816,12.4701463 10.6811172,12.6511107 C10.5001528,12.8320751 10.2501528,12.9440039 9.97401043,12.9440039 L9.97401043,12.9440039 L1.97401043,12.9440039 C1.69786805,12.9440039 1.44786805,12.8320751 1.26690365,12.6511107 C1.08593924,12.4701463 0.97401043,12.2201463 0.97401043,11.9440039 L0.97401043,11.9440039 L0.97401043,1.94400388 C0.97401043,1.66786151 1.08593924,1.41786151 1.26690365,1.2368971 C1.44786805,1.0559327 1.69786805,0.944003884 1.97401043,0.944003884 L1.97401043,0.944003884 L6.78391077,0.944003884 Z" id="Rectangle" stroke="#000000"></path>
            <polygon id="Rectangle" stroke="#000000" fill="#FFFFFF" stroke-linejoin="round" points="6.97401043 0.944003884 10.9740104 4.44400388 6.97401043 4.44400388"></polygon>
            <path d="M2.69626043,10.7275046 L7.40876043,10.7275046 C7.62622255,10.7275046 7.80251043,10.5512167 7.80251043,10.3337546 C7.80251043,10.1162925 7.62622255,9.94000462 7.40876043,9.94000462 L2.69626043,9.94000462 C2.47879831,9.94000462 2.30251043,10.1162925 2.30251043,10.3337546 C2.30251043,10.5512167 2.47879831,10.7275046 2.69626043,10.7275046 Z" id="Fill-2-Copy-2" fill="#000000"></path>
            <path d="M2.69626043,6.72750462 L5.40876043,6.72750462 C5.62622255,6.72750462 5.80251043,6.55121674 5.80251043,6.33375462 C5.80251043,6.1162925 5.62622255,5.94000462 5.40876043,5.94000462 L2.69626043,5.94000462 C2.47879831,5.94000462 2.30251043,6.1162925 2.30251043,6.33375462 C2.30251043,6.55121674 2.47879831,6.72750462 2.69626043,6.72750462 Z" id="Fill-2" fill="#000000"></path>
            <path d="M2.69626043,8.72750462 L9.40876043,8.72750462 C9.62622255,8.72750462 9.80251043,8.55121674 9.80251043,8.33375462 C9.80251043,8.1162925 9.62622255,7.94000462 9.40876043,7.94000462 L2.69626043,7.94000462 C2.47879831,7.94000462 2.30251043,8.1162925 2.30251043,8.33375462 C2.30251043,8.55121674 2.47879831,8.72750462 2.69626043,8.72750462 Z" id="Fill-2-Copy" fill="#000000"></path>
            <path d="M7.22401043,6.44400388 C7.98340196,6.44400388 8.67090196,6.75180812 9.16855408,7.24946024 C9.6662062,7.74711235 9.97401043,8.43461235 9.97401043,9.19400388 C9.97401043,9.95339542 9.6662062,10.6408954 9.16855408,11.1385475 C8.67090196,11.6361996 7.98340196,11.9440039 7.22401043,11.9440039 C6.4646189,11.9440039 5.7771189,11.6361996 5.27946678,11.1385475 C4.78181466,10.6408954 4.47401043,9.95339542 4.47401043,9.19400388 C4.47401043,8.43461235 4.78181466,7.74711235 5.27946678,7.24946024 C5.7771189,6.75180812 6.4646189,6.44400388 7.22401043,6.44400388 Z" id="Oval" stroke="#000000" fill="#FFFFFF"></path>
            <line x1="9.47401043" y1="11.4440039" x2="11.9740104" y2="13.4440039" id="Line" stroke="#000000" stroke-linecap="round"></line>
        </g>
    </g>
</svg>