<?xml version="1.0" encoding="UTF-8"?>
<svg width="32px" height="32px" viewBox="0 0 32 32" version="1.1" xmlns="http://www.w3.org/2000/svg" xmlns:xlink="http://www.w3.org/1999/xlink">
    <title>Group 19 Copy 6</title>
    <g id="Page-1" stroke="none" stroke-width="1" fill="none" fill-rule="evenodd">
        <g id="Group-2" transform="translate(-72.000000, 0.000000)">
            <g id="Group-19-Copy-6" transform="translate(59.000000, 0.000000)">
                <g id="Group" transform="translate(13.000000, 0.000000)">
                    <rect id="Rectangle" stroke="#000000" stroke-width="2" x="6" y="4" width="16" height="24" rx="3"></rect>
                    <path d="M13.525,7.05 L14.6185,7.05 C14.9084495,7.05 15.1435,6.81494949 15.1435,6.525 C15.1435,6.23505051 14.9084495,6 14.6185,6 L13.525,6 C13.2350505,6 13,6.23505051 13,6.525 C13,6.81494949 13.2350505,7.05 13.525,7.05 Z" id="Fill-1" fill="#000000"></path>
                    <path d="M12.4445,25.5670015 L15.269,25.5670015 C15.7039242,25.5670015 16.0565,25.2144257 16.0565,24.7795015 C16.0565,24.3445772 15.7039242,23.9920015 15.269,23.9920015 L12.4445,23.9920015 C12.0095758,23.9920015 11.657,24.3445772 11.657,24.7795015 C11.657,25.2144257 12.0095758,25.5670015 12.4445,25.5670015 Z" id="Fill-2" fill="#000000"></path>
                    <g id="Group-8" transform="translate(14.000000, 13.493850)">
                        <path d="M7.5318,12.16065 C4.1433,12.16065 2.31555,11.08965 2.31555,10.65165 L2.31555,9.34215 C3.6258,10.02915 5.5848,10.3824 7.5318,10.3824 C9.4788,10.3824 11.4378,10.02915 12.7488,9.34215 L12.7488,10.65165 C12.7488,11.08965 10.92105,12.16065 7.5318,12.16065 M7.5318,15.67515 C4.1433,15.67515 2.31555,14.6034 2.31555,14.1654 L2.31555,12.6954 C3.6258,13.38165 5.5848,13.73565 7.5318,13.73565 C9.4788,13.73565 11.4378,13.38165 12.7488,12.6954 L12.7488,14.1654 C12.7488,14.6034 10.92105,15.67515 7.5318,15.67515 M7.5318,8.8074 C4.1433,8.8074 2.31555,7.7364 2.31555,7.29765 L2.31555,5.8224 C3.6258,6.5094 5.5848,6.8634 7.5318,6.8634 C9.4788,6.8634 11.4378,6.5094 12.7488,5.8224 L12.7488,7.29765 C12.7488,7.7364 10.92105,8.8074 7.5318,8.8074 M7.5318,5.28765 C4.1433,5.28765 2.31555,4.21665 2.31555,3.77865 C2.31555,3.34065 4.1433,2.26965 7.5318,2.26965 C10.92105,2.26965 12.7488,3.34065 12.7488,3.77865 C12.7488,4.21665 10.92105,5.28765 7.5318,5.28765 M7.5318,0.6939 C4.1568,0.6939 0.7398,1.75365 0.7398,3.77865 L0.7398,14.27865 L0.7458,14.27865 C0.87105,16.2294 4.2198,17.25015 7.5318,17.25015 C10.8438,17.25015 14.19255,16.2294 14.31855,14.27865 L14.32455,14.27865 L14.32455,3.77865 C14.32455,1.75365 10.90755,0.6939 7.5318,0.6939" id="Fill-6" fill="#000000"></path>
                        <path d="M7.5318,12.16065 C4.1433,12.16065 2.31555,11.08965 2.31555,10.65165 L2.31555,9.34215 C3.6258,10.02915 5.5848,10.3824 7.5318,10.3824 C9.4788,10.3824 11.4378,10.02915 12.7488,9.34215 L12.7488,10.65165 C12.7488,11.08965 10.92105,12.16065 7.5318,12.16065" id="Path-Copy-4" fill="#FFFFFF"></path>
                        <path d="M7.5318,15.67515 C4.1433,15.67515 2.31555,14.6034 2.31555,14.1654 L2.31555,12.6954 C3.6258,13.38165 5.5848,13.73565 7.5318,13.73565 C9.4788,13.73565 11.4378,13.38165 12.7488,12.6954 L12.7488,14.1654 C12.7488,14.6034 10.92105,15.67515 7.5318,15.67515" id="Path-Copy-3" fill="#FFFFFF"></path>
                        <path d="M7.5318,8.8074 C4.1433,8.8074 2.31555,7.7364 2.31555,7.29765 L2.31555,5.8224 C3.6258,6.5094 5.5848,6.8634 7.5318,6.8634 C9.4788,6.8634 11.4378,6.5094 12.7488,5.8224 L12.7488,7.29765 C12.7488,7.7364 10.92105,8.8074 7.5318,8.8074" id="Path-Copy-2" fill="#FFFFFF"></path>
                        <path d="M7.5318,5.28765 C4.1433,5.28765 2.31555,4.21665 2.31555,3.77865 C2.31555,3.34065 4.1433,2.26965 7.5318,2.26965 C10.92105,2.26965 12.7488,3.34065 12.7488,3.77865 C12.7488,4.21665 10.92105,5.28765 7.5318,5.28765" id="Path-Copy" fill="#FFFFFF"></path>
                    </g>
                </g>
            </g>
        </g>
    </g>
</svg>