<?xml version="1.0" encoding="UTF-8"?>
<svg width="32px" height="32px" viewBox="0 0 32 32" version="1.1" xmlns="http://www.w3.org/2000/svg" xmlns:xlink="http://www.w3.org/1999/xlink">
    <title>Group 19 Copy 4</title>
    <g id="Page-1" stroke="none" stroke-width="1" fill="none" fill-rule="evenodd">
        <g id="Group-2" transform="translate(-216.000000, 0.000000)">
            <g id="Group-19-Copy-4" transform="translate(210.000000, 0.000000)">
                <g id="Group" transform="translate(6.000000, 0.000000)">
                    <rect id="Rectangle" stroke="#000000" stroke-width="2" x="6" y="4" width="16" height="24" rx="3"></rect>
                    <path d="M13.525,7.05 L14.6185,7.05 C14.9084495,7.05 15.1435,6.81494949 15.1435,6.525 C15.1435,6.23505051 14.9084495,6 14.6185,6 L13.525,6 C13.2350505,6 13,6.23505051 13,6.525 C13,6.81494949 13.2350505,7.05 13.525,7.05 Z" id="Fill-1" fill="#000000"></path>
                    <path d="M12.4445,25.5670015 L15.269,25.5670015 C15.7039242,25.5670015 16.0565,25.2144257 16.0565,24.7795015 C16.0565,24.3445772 15.7039242,23.9920015 15.269,23.9920015 L12.4445,23.9920015 C12.0095758,23.9920015 11.657,24.3445772 11.657,24.7795015 C11.657,25.2144257 12.0095758,25.5670015 12.4445,25.5670015 Z" id="Fill-2" fill="#000000"></path>
                    <circle id="Oval" stroke="#000000" stroke-width="2" fill="#FFFFFF" cx="22" cy="22" r="7"></circle>
                    <line x1="22" y1="19" x2="22" y2="25" id="Line" stroke="#000000" stroke-width="2" stroke-linecap="round"></line>
                    <line x1="25" y1="22" x2="19" y2="22" id="Line-Copy" stroke="#000000" stroke-width="2" stroke-linecap="round"></line>
                </g>
            </g>
        </g>
    </g>
</svg>