<?xml version="1.0" encoding="UTF-8"?>
<svg width="32px" height="32px" viewBox="0 0 32 32" version="1.1" xmlns="http://www.w3.org/2000/svg" xmlns:xlink="http://www.w3.org/1999/xlink">
    <title>Slice</title>
    <g id="Page-1" stroke="none" stroke-width="1" fill="none" fill-rule="evenodd">
        <g id="Group">
            <ellipse id="Oval-Copy" stroke="#000000" stroke-width="2" stroke-linejoin="round" cx="16" cy="7" rx="10" ry="4"></ellipse>
            <path d="M6,13 C6,15.209139 10.4771525,17 16,17 C21.5228475,17 26,15.209139 26,13" id="Path" stroke="#000000" stroke-width="2" stroke-linejoin="round"></path>
            <path d="M6,19 C6,21.209139 10.4771525,23 16,23 C21.5228475,23 26,21.209139 26,19" id="Path" stroke="#000000" stroke-width="2" stroke-linejoin="round"></path>
            <path d="M6,25 C6,27.209139 10.4771525,29 16,29 C21.5228475,29 26,27.209139 26,25" id="Path-Copy-2" stroke="#000000" stroke-width="2" stroke-linejoin="round"></path>
            <line x1="26" y1="8" x2="26" y2="24" id="Line-2" stroke="#000000" stroke-width="2" stroke-linecap="square"></line>
            <line x1="6" y1="8" x2="6" y2="24" id="Line-2-Copy" stroke="#000000" stroke-width="2" stroke-linecap="square"></line>
            <circle id="Oval" stroke="#000000" stroke-width="2" fill="#FFFFFF" cx="22" cy="22" r="7"></circle>
            <path d="M21.5852047,20.1816 L21.5852047,22.2932587 L22.4376573,22.2932587 C23.1974775,22.2932587 23.6383608,21.8935307 23.6383608,21.2368345 C23.6383608,20.5432587 23.169336,20.1816 22.4001353,20.1816 L21.5852047,20.1816 Z M21.5852047,23.6911173 L21.5852047,25.7932587 L20.0092813,25.7932587 L20.0092813,20.1435307 L19.2318726,20.1435307 L19.2318726,18.7932587 L22.5877452,18.7932587 C24.23754,18.7932587 25.2318726,19.7818719 25.2318726,21.2368345 C25.2318726,22.8631092 24.0874521,23.6911173 22.5408427,23.6911173 L21.5852047,23.6911173 Z" id="Fill-4" fill="#000000"></path>
        </g>
    </g>
</svg>