<?xml version="1.0" encoding="UTF-8"?>
<svg width="32px" height="32px" viewBox="0 0 32 32" version="1.1" xmlns="http://www.w3.org/2000/svg" xmlns:xlink="http://www.w3.org/1999/xlink">
    <title>Slice</title>
    <g id="Page-1" stroke="none" stroke-width="1" fill="none" fill-rule="evenodd">
        <g id="Group">
            <path d="M17.6198007,4 L26,11.4490661 L26,26 C26,26.5522847 25.7761424,27.0522847 25.4142136,27.4142136 C25.0522847,27.7761424 24.5522847,28 24,28 L24,28 L8,28 C7.44771525,28 6.94771525,27.7761424 6.58578644,27.4142136 C6.22385763,27.0522847 6,26.5522847 6,26 L6,26 L6,6 C6,5.44771525 6.22385763,4.94771525 6.58578644,4.58578644 C6.94771525,4.22385763 7.44771525,4 8,4 L8,4 L17.6198007,4 Z" id="Rectangle" stroke="#000000" stroke-width="2"></path>
            <polygon id="Rectangle" stroke="#000000" stroke-width="2" fill="#FFFFFF" stroke-linejoin="round" points="18 4 26 11 18 11"></polygon>
            <path d="M9.4445,15.5670015 L14.8695,15.5670015 C15.3044242,15.5670015 15.657,15.2144257 15.657,14.7795015 C15.657,14.3445772 15.3044242,13.9920015 14.8695,13.9920015 L9.4445,13.9920015 C9.00957576,13.9920015 8.657,14.3445772 8.657,14.7795015 C8.657,15.2144257 9.00957576,15.5670015 9.4445,15.5670015 Z" id="Fill-2" fill="#000000"></path>
            <path d="M9.4445,19.5670015 L22.8695,19.5670015 C23.3044242,19.5670015 23.657,19.2144257 23.657,18.7795015 C23.657,18.3445772 23.3044242,17.9920015 22.8695,17.9920015 L9.4445,17.9920015 C9.00957576,17.9920015 8.657,18.3445772 8.657,18.7795015 C8.657,19.2144257 9.00957576,19.5670015 9.4445,19.5670015 Z" id="Fill-2-Copy" fill="#000000"></path>
            <path d="M9.4445,23.5670015 L22.8695,23.5670015 C23.3044242,23.5670015 23.657,23.2144257 23.657,22.7795015 C23.657,22.3445772 23.3044242,21.9920015 22.8695,21.9920015 L9.4445,21.9920015 C9.00957576,21.9920015 8.657,22.3445772 8.657,22.7795015 C8.657,23.2144257 9.00957576,23.5670015 9.4445,23.5670015 Z" id="Fill-2-Copy-2" fill="#000000"></path>
            <circle id="Oval" stroke="#000000" stroke-width="2" fill="#FFFFFF" cx="22" cy="22" r="7"></circle>
            <path d="M23.4125995,23.6134177 L23.5472149,22.8691139 L23.2566313,22.8691139 L23.4125995,23.6134177 Z M21.8241379,22.0427848 L22.098939,22.0427848 L21.9578249,21.3470886 L21.8241379,22.0427848 Z M20.5401857,23.6134177 L20.6812997,22.8691139 L20.4064987,22.8691139 L20.5401857,23.6134177 Z M24.021618,25.5 L22.9001326,25.5 L22.2697613,22.8691139 L21.6607427,22.8691139 L21.0517241,25.5 L19.9237401,25.5 L19.2859416,22.8691139 L18.4763926,22.8691139 L18.4763926,22.0427848 L19.0854111,22.0427848 L18.4689655,19.5 L19.7603448,19.5 L20.2728117,22.0427848 L20.8437666,22.0427848 L21.437931,19.5 L22.5,19.5 L23.1006631,22.0427848 L23.6799735,22.0427848 L24.1924403,19.5 L25.4689655,19.5 L24.8608753,22.0427848 L25.4615385,22.0427848 L25.4615385,22.8691139 L24.6603448,22.8691139 L24.021618,25.5 Z" id="Fill-4" fill="#000000"></path>
        </g>
    </g>
</svg>