<?xml version="1.0" encoding="UTF-8"?>
<svg width="32px" height="32px" viewBox="0 0 32 32" version="1.1" xmlns="http://www.w3.org/2000/svg" xmlns:xlink="http://www.w3.org/1999/xlink">
    <title>Slice</title>
    <g id="Page-1" stroke="none" stroke-width="1" fill="none" fill-rule="evenodd">
        <g id="Group">
            <path d="M17.6198007,4 L26,11.4490661 L26,26 C26,26.5522847 25.7761424,27.0522847 25.4142136,27.4142136 C25.0522847,27.7761424 24.5522847,28 24,28 L24,28 L8,28 C7.44771525,28 6.94771525,27.7761424 6.58578644,27.4142136 C6.22385763,27.0522847 6,26.5522847 6,26 L6,26 L6,6 C6,5.44771525 6.22385763,4.94771525 6.58578644,4.58578644 C6.94771525,4.22385763 7.44771525,4 8,4 L8,4 L17.6198007,4 Z" id="Rectangle" stroke="#000000" stroke-width="2"></path>
            <polygon id="Rectangle" stroke="#000000" stroke-width="2" fill="#FFFFFF" stroke-linejoin="round" points="18 4 26 11 18 11"></polygon>
            <path d="M9.4445,15.5670015 L14.8695,15.5670015 C15.3044242,15.5670015 15.657,15.2144257 15.657,14.7795015 C15.657,14.3445772 15.3044242,13.9920015 14.8695,13.9920015 L9.4445,13.9920015 C9.00957576,13.9920015 8.657,14.3445772 8.657,14.7795015 C8.657,15.2144257 9.00957576,15.5670015 9.4445,15.5670015 Z" id="Fill-2" fill="#000000"></path>
            <path d="M9.4445,19.5670015 L22.8695,19.5670015 C23.3044242,19.5670015 23.657,19.2144257 23.657,18.7795015 C23.657,18.3445772 23.3044242,17.9920015 22.8695,17.9920015 L9.4445,17.9920015 C9.00957576,17.9920015 8.657,18.3445772 8.657,18.7795015 C8.657,19.2144257 9.00957576,19.5670015 9.4445,19.5670015 Z" id="Fill-2-Copy" fill="#000000"></path>
            <path d="M9.4445,23.5670015 L22.8695,23.5670015 C23.3044242,23.5670015 23.657,23.2144257 23.657,22.7795015 C23.657,22.3445772 23.3044242,21.9920015 22.8695,21.9920015 L9.4445,21.9920015 C9.00957576,21.9920015 8.657,22.3445772 8.657,22.7795015 C8.657,23.2144257 9.00957576,23.5670015 9.4445,23.5670015 Z" id="Fill-2-Copy-2" fill="#000000"></path>
            <circle id="Oval" stroke="#000000" stroke-width="2" fill="#FFFFFF" cx="22" cy="22" r="7"></circle>
            <path d="M22.1972656,23.328125 C22.8828125,23.328125 23.3515625,22.9296875 23.375,22.2265625 L23.375,18.9453125 C23.3808594,18.8222656 23.3867188,18.6875 23.3867188,18.5878906 C23.3867188,17.8320313 22.9589844,17.3984375 22.203125,17.3984375 C21.4472656,17.3984375 21.0078125,17.8320313 21.0078125,18.5878906 C21.0078125,18.6875 21.0136719,18.8222656 21.0195313,18.9453125 L21.0078125,22.2265625 C21.03125,22.9296875 21.5058594,23.328125 22.1972656,23.328125 Z M22.1972656,26.234375 C22.8769531,26.234375 23.4394531,25.71875 23.4394531,25.0625 C23.4394531,24.4121094 22.8769531,23.8964844 22.1972656,23.8964844 C21.5058594,23.8964844 20.9492188,24.4121094 20.9492188,25.0625 C20.9492188,25.71875 21.5058594,26.234375 22.1972656,26.234375 Z" id="!" fill="#000000" fill-rule="nonzero" transform="translate(22.194336, 21.816406) rotate(-180.000000) translate(-22.194336, -21.816406) "></path>
        </g>
    </g>
</svg>