<?xml version="1.0" encoding="UTF-8"?>
<svg width="32px" height="32px" viewBox="0 0 32 32" version="1.1" xmlns="http://www.w3.org/2000/svg" xmlns:xlink="http://www.w3.org/1999/xlink">
    <title>Slice</title>
    <g id="Page-1" stroke="none" stroke-width="1" fill="none" fill-rule="evenodd">
        <g id="Group">
            <path d="M17.6198007,4 L26,11.4490661 L26,26 C26,26.5522847 25.7761424,27.0522847 25.4142136,27.4142136 C25.0522847,27.7761424 24.5522847,28 24,28 L24,28 L8,28 C7.44771525,28 6.94771525,27.7761424 6.58578644,27.4142136 C6.22385763,27.0522847 6,26.5522847 6,26 L6,26 L6,6 C6,5.44771525 6.22385763,4.94771525 6.58578644,4.58578644 C6.94771525,4.22385763 7.44771525,4 8,4 L8,4 L17.6198007,4 Z" id="Rectangle" stroke="#000000" stroke-width="2"></path>
            <polygon id="Rectangle" stroke="#000000" stroke-width="2" fill="#FFFFFF" stroke-linejoin="round" points="18 4 26 11 18 11"></polygon>
            <path d="M9.4445,15.5670015 L14.8695,15.5670015 C15.3044242,15.5670015 15.657,15.2144257 15.657,14.7795015 C15.657,14.3445772 15.3044242,13.9920015 14.8695,13.9920015 L9.4445,13.9920015 C9.00957576,13.9920015 8.657,14.3445772 8.657,14.7795015 C8.657,15.2144257 9.00957576,15.5670015 9.4445,15.5670015 Z" id="Fill-2" fill="#000000"></path>
            <path d="M9.4445,19.5670015 L22.8695,19.5670015 C23.3044242,19.5670015 23.657,19.2144257 23.657,18.7795015 C23.657,18.3445772 23.3044242,17.9920015 22.8695,17.9920015 L9.4445,17.9920015 C9.00957576,17.9920015 8.657,18.3445772 8.657,18.7795015 C8.657,19.2144257 9.00957576,19.5670015 9.4445,19.5670015 Z" id="Fill-2-Copy" fill="#000000"></path>
            <path d="M9.4445,23.5670015 L22.8695,23.5670015 C23.3044242,23.5670015 23.657,23.2144257 23.657,22.7795015 C23.657,22.3445772 23.3044242,21.9920015 22.8695,21.9920015 L9.4445,21.9920015 C9.00957576,21.9920015 8.657,22.3445772 8.657,22.7795015 C8.657,23.2144257 9.00957576,23.5670015 9.4445,23.5670015 Z" id="Fill-2-Copy-2" fill="#000000"></path>
            <circle id="Oval" stroke="#000000" stroke-width="2" fill="#FFFFFF" cx="22" cy="22" r="7"></circle>
            <path d="M23.9441191,20.057546 L21.412,22.59725 L21.412,22.59725 L20.1047029,21.5051578 C19.7640168,21.2205548 19.2612858,21.2477192 18.95325,21.567375 C18.6642753,21.8672507 18.6731123,22.3446083 18.9729879,22.633583 C18.9809422,22.6412481 18.989064,22.6487376 18.9973474,22.6560458 L20.7364555,24.1904351 C21.1334881,24.5407311 21.7347536,24.5208368 22.1077624,24.1450621 L25.0695961,21.1612666 C25.3740681,20.8545369 25.372238,20.3590601 25.0655083,20.054588 C25.0643839,20.0534719 25.0632561,20.0523593 25.062125,20.05125 C24.7509226,19.7460682 24.2518646,19.7488786 23.9441191,20.057546 Z" id="Fill-4" fill="#000000"></path>
        </g>
    </g>
</svg>