<?xml version="1.0" encoding="UTF-8"?>
<svg width="32px" height="32px" viewBox="0 0 32 32" version="1.1" xmlns="http://www.w3.org/2000/svg" xmlns:xlink="http://www.w3.org/1999/xlink">
    <title>Slice</title>
    <g id="Page-1" stroke="none" stroke-width="1" fill="none" fill-rule="evenodd">
        <g id="Group">
            <rect id="Rectangle" stroke="#000000" stroke-width="2" x="6" y="4" width="16" height="24" rx="3"></rect>
            <path d="M13.525,7.05 L14.6185,7.05 C14.9084495,7.05 15.1435,6.81494949 15.1435,6.525 C15.1435,6.23505051 14.9084495,6 14.6185,6 L13.525,6 C13.2350505,6 13,6.23505051 13,6.525 C13,6.81494949 13.2350505,7.05 13.525,7.05 Z" id="Fill-1" fill="#000000"></path>
            <path d="M12.4445,25.5670015 L15.269,25.5670015 C15.7039242,25.5670015 16.0565,25.2144257 16.0565,24.7795015 C16.0565,24.3445772 15.7039242,23.9920015 15.269,23.9920015 L12.4445,23.9920015 C12.0095758,23.9920015 11.657,24.3445772 11.657,24.7795015 C11.657,25.2144257 12.0095758,25.5670015 12.4445,25.5670015 Z" id="Fill-2" fill="#000000"></path>
            <circle id="Oval" stroke="#000000" stroke-width="2" fill="#FFFFFF" cx="22" cy="22" r="7"></circle>
            <path d="M20.0592715,21.718433 L20.0592715,20.4026798 L21.4162118,20.4026798 L21.4162118,19.5854418 L20.0592715,19.5854418 L20.0592715,18.8472034 L21.5556602,18.8472034 L21.5556602,18 L19,18 L19,21.718433 L20.0592715,21.718433 Z M22.8948654,21.718433 L22.8948654,20.4544382 L23.238123,20.4544382 L23.8334605,21.718433 L25,21.718433 L24.2786227,20.3155077 C24.4958404,20.2174392 24.9222307,19.8769233 24.9222307,19.2639948 C24.9222307,18.5121358 24.4422064,18 23.5009297,18 L21.8570475,18 L21.8570475,21.718433 L22.8948654,21.718433 Z M23.337346,19.7270964 L22.8948654,19.7270964 L22.8948654,18.7791002 L23.3400277,18.7791002 C23.5974709,18.7791002 23.8307788,18.9398237 23.8307788,19.2612707 C23.8307788,19.5772694 23.6108794,19.7270964 23.337346,19.7270964 Z M21.566387,26 L21.566387,25.1664172 L20.0485447,25.1664172 L20.0485447,24.5180751 L21.4671641,24.5180751 L21.4671641,23.7607678 L20.0485447,23.7607678 L20.0485447,23.1151498 L21.566387,23.1151498 L21.566387,22.281567 L19,22.281567 L19,26 L21.566387,26 Z M24.544111,26 L24.544111,25.1664172 L23.0262687,25.1664172 L23.0262687,24.5180751 L24.4448881,24.5180751 L24.4448881,23.7607678 L23.0262687,23.7607678 L23.0262687,23.1151498 L24.544111,23.1151498 L24.544111,22.281567 L21.977724,22.281567 L21.977724,26 L24.544111,26 Z" id="FREE" fill="#000000" fill-rule="nonzero"></path>
        </g>
    </g>
</svg>