<?xml version="1.0" encoding="UTF-8"?>
<svg width="32px" height="32px" viewBox="0 0 32 32" version="1.1" xmlns="http://www.w3.org/2000/svg" xmlns:xlink="http://www.w3.org/1999/xlink">
    <title>Slice</title>
    <g id="Page-1" stroke="none" stroke-width="1" fill="none" fill-rule="evenodd">
        <g id="Group" stroke="#000000" stroke-width="2">
            <g>
                <path d="M10.5248788,28.4877627 L8.52487876,28.4877627 C7.42030926,28.4877627 6.52487876,27.5923322 6.52487876,26.4877627 L6.52487876,9.48776268 C6.52487876,8.38319318 7.42030926,7.48776268 8.52487876,7.48776268 L20.5122373,7.52487876 C21.6168068,7.52487876 22.5122373,8.42030926 22.5122373,9.52487876 L22.5122373,26.5248788 C22.5122373,27.6294483 21.6168068,28.5248788 20.5122373,28.5248788 L18.5122373,28.5248788" id="Path" transform="translate(14.518558, 18.006321) rotate(-90.000000) translate(-14.518558, -18.006321) "></path>
                <rect id="Rectangle-Copy" transform="translate(24.000000, 18.000000) rotate(-90.000000) translate(-24.000000, -18.000000) " x="21" y="14" width="6" height="8" rx="2"></rect>
                <path d="M12.1879023,-0.836572288 L16.7005438,12.1263116 C17.2733272,13.6810094 16.4773283,15.4056737 14.9226305,15.9784571 C14.5905419,16.1008055 14.239424,16.1634277 13.8855144,16.1634277 L12.1879023,16.1634277" id="Path" transform="translate(14.537116, 7.663428) rotate(-90.000000) translate(-14.537116, -7.663428) "></path>
            </g>
        </g>
    </g>
</svg>