<?xml version="1.0" encoding="UTF-8"?>
<svg width="32px" height="32px" viewBox="0 0 32 32" version="1.1" xmlns="http://www.w3.org/2000/svg" xmlns:xlink="http://www.w3.org/1999/xlink">
    <title>Slice</title>
    <g id="Page-1" stroke="none" stroke-width="1" fill="none" fill-rule="evenodd">
        <g id="Group-14" transform="translate(-24.000000, 0.000000)">
            <g id="Group" transform="translate(24.000000, 0.000000)">
                <path d="M17.6198007,4 L26,11.4490661 L26,26 C26,26.5522847 25.7761424,27.0522847 25.4142136,27.4142136 C25.0522847,27.7761424 24.5522847,28 24,28 L24,28 L8,28 C7.44771525,28 6.94771525,27.7761424 6.58578644,27.4142136 C6.22385763,27.0522847 6,26.5522847 6,26 L6,26 L6,6 C6,5.44771525 6.22385763,4.94771525 6.58578644,4.58578644 C6.94771525,4.22385763 7.44771525,4 8,4 L8,4 L17.6198007,4 Z" id="Rectangle" stroke="#000000" stroke-width="2"></path>
                <polygon id="Rectangle" stroke="#000000" stroke-width="2" fill="#FFFFFF" stroke-linejoin="round" points="18 4 26 11 18 11"></polygon>
                <path d="M12.7875,19.575 L22.2125,19.575 C22.6474242,19.575 23,19.2224242 23,18.7875 C23,18.3525758 22.6474242,18 22.2125,18 L12.7875,18 C12.3525758,18 12,18.3525758 12,18.7875 C12,19.2224242 12.3525758,19.575 12.7875,19.575 Z" id="Fill-2-Copy" fill="#000000"></path>
                <path d="M12.7875,15.575 L22.2125,15.575 C22.6474242,15.575 23,15.2224242 23,14.7875 C23,14.3525758 22.6474242,14 22.2125,14 L12.7875,14 C12.3525758,14 12,14.3525758 12,14.7875 C12,15.2224242 12.3525758,15.575 12.7875,15.575 Z" id="Fill-2-Copy-3" fill="#000000"></path>
                <path d="M9.7875,19.575 L10.2125,19.575 C10.6474242,19.575 11,19.2224242 11,18.7875 C11,18.3525758 10.6474242,18 10.2125,18 L9.7875,18 C9.35257576,18 9,18.3525758 9,18.7875 C9,19.2224242 9.35257576,19.575 9.7875,19.575 Z" id="Fill-2-Copy-5" fill="#000000"></path>
                <path d="M9.7875,15.575 L10.2125,15.575 C10.6474242,15.575 11,15.2224242 11,14.7875 C11,14.3525758 10.6474242,14 10.2125,14 L9.7875,14 C9.35257576,14 9,14.3525758 9,14.7875 C9,15.2224242 9.35257576,15.575 9.7875,15.575 Z" id="Fill-2-Copy-4" fill="#000000"></path>
                <path d="M18.7875,23.575 L22.2125,23.575 C22.6474242,23.575 23,23.2224242 23,22.7875 C23,22.3525758 22.6474242,22 22.2125,22 L18.7875,22 C18.3525758,22 18,22.3525758 18,22.7875 C18,23.2224242 18.3525758,23.575 18.7875,23.575 Z" id="Fill-2-Copy-2" fill="#000000"></path>
            </g>
        </g>
    </g>
</svg>