<?xml version="1.0" encoding="UTF-8"?>
<svg width="32px" height="32px" viewBox="0 0 32 32" version="1.1" xmlns="http://www.w3.org/2000/svg" xmlns:xlink="http://www.w3.org/1999/xlink">
    <title>Slice</title>
    <g id="Page-1" stroke="none" stroke-width="1" fill="none" fill-rule="evenodd">
        <g id="Group" stroke="#000000" stroke-width="2">
            <g>
                <path d="M27,16 L27,25 C27,25.5522847 26.7761424,26.0522847 26.4142136,26.4142136 C26.0522847,26.7761424 25.5522847,27 25,27 L25,27 L7,27 C6.44771525,27 5.94771525,26.7761424 5.58578644,26.4142136 C5.22385763,26.0522847 5,25.5522847 5,25 L5,25 L5,16 L27,16 Z" id="Rectangle"></path>
                <rect id="Rectangle-Copy" x="3" y="10" width="26" height="6" rx="3"></rect>
                <line x1="16" y1="11" x2="16" y2="27" id="Line-2-Copy" stroke-linecap="square"></line>
                <g transform="translate(7.000000, 3.804318)" id="Path">
                    <path d="M9,5.69568151 L2.75,5.69568151 C1.23121694,5.69568151 2.27559673e-13,4.46446457 2.27373675e-13,2.94568151 L2.27373675e-13,2.69568151 C2.27204587e-13,1.31496963 1.11928813,0.195681509 2.5,0.195681509 C4.09283041,0.195681509 5.61235609,0.864992106 6.68754581,2.04018392 L9,4.5677167 L9,4.5677167 L9,5.69568151 Z"></path>
                </g>
                <g id="Group-Copy-2" transform="translate(20.500000, 6.804318) scale(-1, 1) translate(-20.500000, -6.804318) translate(16.000000, 3.804318)">
                    <path d="M9,5.69568151 L2.75,5.69568151 C1.23121694,5.69568151 2.27559673e-13,4.46446457 2.27373675e-13,2.94568151 L2.27373675e-13,2.69568151 C2.27204587e-13,1.31496963 1.11928813,0.195681509 2.5,0.195681509 C4.09283041,0.195681509 5.61235609,0.864992106 6.68754581,2.04018392 L9,4.5677167 L9,4.5677167 L9,5.69568151 Z" id="Path"></path>
                </g>
            </g>
        </g>
    </g>
</svg>