<?xml version="1.0" encoding="UTF-8"?>
<svg width="16px" height="16px" viewBox="0 0 16 16" version="1.1" xmlns="http://www.w3.org/2000/svg" xmlns:xlink="http://www.w3.org/1999/xlink">
    <title>Slice</title>
    <g id="Page-1" stroke="none" stroke-width="1" fill="none" fill-rule="evenodd">
        <g id="Group" transform="translate(2.000000, 1.000000)">
            <path d="M6.30990034,0.5 L10.5,4.22453303 L10.5,11.5 C10.5,11.7761424 10.3880712,12.0261424 10.2071068,12.2071068 C10.0261424,12.3880712 9.77614237,12.5 9.5,12.5 L9.5,12.5 L1.5,12.5 C1.22385763,12.5 0.973857625,12.3880712 0.792893219,12.2071068 C0.611928813,12.0261424 0.5,11.7761424 0.5,11.5 L0.5,11.5 L0.5,1.5 C0.5,1.22385763 0.611928813,0.973857625 0.792893219,0.792893219 C0.973857625,0.611928813 1.22385763,0.5 1.5,0.5 L1.5,0.5 L6.30990034,0.5 Z" id="Rectangle" stroke="#000000"></path>
            <polygon id="Rectangle" stroke="#000000" fill="#FFFFFF" stroke-linejoin="round" points="6.5 0.5 10.5 4 6.5 4"></polygon>
            <path d="M2.22225,6.28350074 L4.93475,6.28350074 C5.15221212,6.28350074 5.3285,6.10721286 5.3285,5.88975074 C5.3285,5.67228862 5.15221212,5.49600074 4.93475,5.49600074 L2.22225,5.49600074 C2.00478788,5.49600074 1.8285,5.67228862 1.8285,5.88975074 C1.8285,6.10721286 2.00478788,6.28350074 2.22225,6.28350074 Z" id="Fill-2" fill="#000000"></path>
            <path d="M2.22225,8.28350074 L8.93475,8.28350074 C9.15221212,8.28350074 9.3285,8.10721286 9.3285,7.88975074 C9.3285,7.67228862 9.15221212,7.49600074 8.93475,7.49600074 L2.22225,7.49600074 C2.00478788,7.49600074 1.8285,7.67228862 1.8285,7.88975074 C1.8285,8.10721286 2.00478788,8.28350074 2.22225,8.28350074 Z" id="Fill-2-Copy" fill="#000000"></path>
            <circle id="Oval" stroke="#000000" fill="#FFFFFF" cx="8.5" cy="9.5" r="3.5"></circle>
            <path d="M2.22225,10.2835007 L8.93475,10.2835007 C9.15221212,10.2835007 9.3285,10.1072129 9.3285,9.88975074 C9.3285,9.67228862 9.15221212,9.49600074 8.93475,9.49600074 L2.22225,9.49600074 C2.00478788,9.49600074 1.8285,9.67228862 1.8285,9.88975074 C1.8285,10.1072129 2.00478788,10.2835007 2.22225,10.2835007 Z" id="Fill-2-Copy-2" fill="#000000"></path>
            <path d="M9.20629973,10.3067089 L9.27360743,9.93455696 L9.12831565,9.93455696 L9.20629973,10.3067089 Z M8.41206897,9.52139241 L8.5494695,9.52139241 L8.47891247,9.1735443 L8.41206897,9.52139241 Z M7.77009284,10.3067089 L7.84064987,9.93455696 L7.70324934,9.93455696 L7.77009284,10.3067089 Z M9.51080902,11.25 L8.95006631,11.25 L8.63488064,9.93455696 L8.33037135,9.93455696 L8.02586207,11.25 L7.46187003,11.25 L7.14297082,9.93455696 L6.73819629,9.93455696 L6.73819629,9.52139241 L7.04270557,9.52139241 L6.73448276,8.25 L7.38017241,8.25 L7.63640584,9.52139241 L7.92188329,9.52139241 L8.21896552,8.25 L8.75,8.25 L9.05033156,9.52139241 L9.33998674,9.52139241 L9.59622016,8.25 L10.2344828,8.25 L9.93043767,9.52139241 L10.2307692,9.52139241 L10.2307692,9.93455696 L9.83017241,9.93455696 L9.51080902,11.25 Z" id="Fill-4" fill="#000000"></path>
        </g>
    </g>
</svg>