<?xml version="1.0" encoding="UTF-8"?>
<svg width="32px" height="32px" viewBox="0 0 32 32" version="1.1" xmlns="http://www.w3.org/2000/svg" xmlns:xlink="http://www.w3.org/1999/xlink">
    <title>Slice</title>
    <g id="Page-1" stroke="none" stroke-width="1" fill="none" fill-rule="evenodd">
        <g id="Group">
            <rect id="Rectangle" stroke="#000000" stroke-width="2" x="6" y="4" width="16" height="24" rx="3"></rect>
            <path d="M13.525,7.05 L14.6185,7.05 C14.9084495,7.05 15.1435,6.81494949 15.1435,6.525 C15.1435,6.23505051 14.9084495,6 14.6185,6 L13.525,6 C13.2350505,6 13,6.23505051 13,6.525 C13,6.81494949 13.2350505,7.05 13.525,7.05 Z" id="Fill-1" fill="#000000"></path>
            <path d="M12.4445,25.5670015 L15.269,25.5670015 C15.7039242,25.5670015 16.0565,25.2144257 16.0565,24.7795015 C16.0565,24.3445772 15.7039242,23.9920015 15.269,23.9920015 L12.4445,23.9920015 C12.0095758,23.9920015 11.657,24.3445772 11.657,24.7795015 C11.657,25.2144257 12.0095758,25.5670015 12.4445,25.5670015 Z" id="Fill-2" fill="#000000"></path>
            <circle id="Oval" stroke="#000000" stroke-width="2" fill="#FFFFFF" cx="22" cy="22" r="7"></circle>
            <path d="M23.0275,23.4465 C23.0275,23.81775 23.25025,24 23.5,24 C23.77,24 23.959,23.8245 23.959,23.46 C23.959,23.082 23.7295,22.88625 23.4865,22.88625 C23.20975,22.88625 23.0275,23.07525 23.0275,23.4465 Z M22.13575,23.46 C22.13575,22.67025 22.77775,22.17075 23.5,22.17075 C24.2155,22.17075 24.82975,22.6635 24.82975,23.4465 C24.82975,24.2235 24.202,24.71625 23.4865,24.71625 C22.7635,24.71625 22.13575,24.2235 22.13575,23.46 Z M19.759,20.89425 C19.759,21.2655 19.9885,21.4545 20.2315,21.4545 C20.50225,21.4545 20.6905,21.27225 20.6905,20.90775 C20.6905,20.52975 20.4685,20.34075 20.21875,20.34075 C19.94125,20.34075 19.759,20.523 19.759,20.89425 Z M20.6845,24.66225 L19.69825,24.66225 L23.0065,19.69275 L23.99275,19.69275 L20.6845,24.66225 Z M18.87475,20.90775 C18.87475,20.12475 19.516,19.632 20.2315,19.632 C20.9545,19.632 21.56875,20.118 21.56875,20.89425 C21.56875,21.678 20.94025,22.17075 20.21875,22.17075 C19.49575,22.17075 18.87475,21.684 18.87475,20.90775 Z" id="Fill-9" fill="#000000"></path>
        </g>
    </g>
</svg>