<?xml version="1.0" encoding="UTF-8"?>
<svg width="32px" height="32px" viewBox="0 0 32 32" version="1.1" xmlns="http://www.w3.org/2000/svg" xmlns:xlink="http://www.w3.org/1999/xlink">
    <title>Slice</title>
    <g id="Page-1" stroke="none" stroke-width="1" fill="none" fill-rule="evenodd">
        <g id="Group">
            <rect id="Rectangle" stroke="#000000" stroke-width="2" x="7" y="4" width="16" height="24" rx="3"></rect>
            <path d="M14.525,7.05 L15.6185,7.05 C15.9084495,7.05 16.1435,6.81494949 16.1435,6.525 C16.1435,6.23505051 15.9084495,6 15.6185,6 L14.525,6 C14.2350505,6 14,6.23505051 14,6.525 C14,6.81494949 14.2350505,7.05 14.525,7.05 Z" id="Fill-1" fill="#000000"></path>
            <path d="M12.7875,25.575 L15.612,25.575 C16.0469242,25.575 16.3995,25.2224242 16.3995,24.7875 C16.3995,24.3525758 16.0469242,24 15.612,24 L12.7875,24 C12.3525758,24 12,24.3525758 12,24.7875 C12,25.2224242 12.3525758,25.575 12.7875,25.575 Z" id="Fill-2" fill="#000000"></path>
            <path d="M25.0857864,16 L28,18.9142136 L28,27 C28,27.5522847 27.7761424,28.0522847 27.4142136,28.4142136 C27.0522847,28.7761424 26.5522847,29 26,29 L26,29 L19,29 C18.4477153,29 17.9477153,28.7761424 17.5857864,28.4142136 C17.2238576,28.0522847 17,27.5522847 17,27 L17,27 L17,18 C17,17.4477153 17.2238576,16.9477153 17.5857864,16.5857864 C17.9477153,16.2238576 18.4477153,16 19,16 L19,16 L25.0857864,16 Z" id="Rectangle" stroke="#000000" stroke-width="2" fill="#FFFFFF"></path>
            <path d="M23.951061,24.7443038 L24.0856764,24 L23.7950928,24 L23.951061,24.7443038 Z M22.3625995,23.1736709 L22.6374005,23.1736709 L22.4962865,22.4779747 L22.3625995,23.1736709 Z M21.0786472,24.7443038 L21.2197613,24 L20.9449602,24 L21.0786472,24.7443038 Z M24.5600796,26.6308861 L23.4385942,26.6308861 L22.8082228,24 L22.1992042,24 L21.5901857,26.6308861 L20.4622016,26.6308861 L19.8244032,24 L19.0148541,24 L19.0148541,23.1736709 L19.6238727,23.1736709 L19.0074271,20.6308861 L20.2988064,20.6308861 L20.8112732,23.1736709 L21.3822281,23.1736709 L21.9763926,20.6308861 L23.0384615,20.6308861 L23.6391247,23.1736709 L24.218435,23.1736709 L24.7309019,20.6308861 L26.0074271,20.6308861 L25.3993369,23.1736709 L26,23.1736709 L26,24 L25.1988064,24 L24.5600796,26.6308861 Z" id="Fill-4" fill="#000000"></path>
        </g>
    </g>
</svg>