<?xml version="1.0" encoding="UTF-8"?>
<svg width="32px" height="32px" viewBox="0 0 32 32" version="1.1" xmlns="http://www.w3.org/2000/svg" xmlns:xlink="http://www.w3.org/1999/xlink">
    <title>Slice</title>
    <g id="Page-1" stroke="none" stroke-width="1" fill="none" fill-rule="evenodd">
        <g id="Group">
            <rect id="Rectangle-Copy-2" stroke="#000000" stroke-width="2" transform="translate(15.000000, 18.500000) rotate(-90.000000) translate(-15.000000, -18.500000) " x="6.5" y="6.5" width="17" height="24" rx="3"></rect>
            <line x1="4.5" y1="15.5" x2="24.5" y2="15.5" id="Line" stroke="#000000" stroke-width="2" stroke-linecap="square"></line>
            <line x1="7" y1="23" x2="9" y2="23" id="Line-Copy" stroke="#000000" stroke-width="2" stroke-linecap="round"></line>
            <line x1="12" y1="23" x2="14" y2="23" id="Line-Copy-2" stroke="#000000" stroke-width="2" stroke-linecap="round"></line>
            <circle id="Oval" stroke="#000000" stroke-width="2" fill="#FFFFFF" cx="22" cy="11" r="7"></circle>
            <path d="M19.5631244,8.55853627 C19.616485,8.55853627 19.6607629,8.57155301 19.7073115,8.5833864 C19.8866939,8.64373672 20.027475,8.7029037 20.027475,8.7029037 C19.9287012,9.27800673 20.229564,10.1666947 20.8426431,10.4069127 C21.0833333,10.4968465 21.2241144,10.6376639 21.3444596,10.8482983 C21.506812,11.1251998 21.5942325,11.4683683 21.5942325,11.7665698 L21.5942325,11.7665698 L21.5942325,13.0374765 C21.5942325,13.8220306 21.924614,14.464584 22.4616258,14.6503683 L22.4616258,14.6503683 L21.6282925,14.9722367 C21.4591281,15.039687 21.2990463,14.9722367 21.1980018,14.8976863 C20.7938238,14.6077681 20.5781108,14.1663825 20.5781108,13.4788622 L20.5781108,13.4788622 L20.5781108,12.1405051 C20.5781108,11.8115367 20.4577657,11.4376014 20.263624,11.1535999 C20.1217075,10.9441488 19.9548138,10.8104315 19.7391008,10.728781 C19.3303815,10.5631135 19,9.97381039 19,9.39870736 C19,8.89697139 19.2282016,8.5833864 19.5313351,8.55971961 C19.5415531,8.55971961 19.5529064,8.55853627 19.5631244,8.55853627 Z M20.7970027,8 C20.852634,8 20.9150772,8.01420007 20.9570845,8.02248345 L24.2200272,9.12298924 C24.7865577,9.32415697 25,10.0601942 25,10.4542463 C25,10.7737479 24.8966848,11.1464999 24.578792,11.2731172 C24.2949591,11.3843511 23.4525431,11.7109529 23.4525431,11.7109529 C23.4252952,11.7937866 23.3696639,11.934604 23.3696639,12.2623891 L23.3696639,13.6232296 C23.3696639,14.0468652 23.1755223,14.4421006 22.8099455,14.4421006 C22.6498638,14.4338172 22.4704814,14.3521668 22.3251589,14.203066 L22.3251589,12.6931247 C22.3251589,12.2919726 22.4296094,11.9417041 22.705495,11.8375702 L23.8737511,11.3914512 C23.9021344,11.3098008 23.9566303,11.1535999 23.9498183,10.9382321 C23.9361944,10.1714281 23.5490463,9.61407516 23.0108992,9.42829085 L19.8092643,8.34908517 L20.6460036,8.02958349 C20.6880109,8.01420007 20.7493188,8 20.7970027,8 Z" id="Combined-Shape" fill="#000000"></path>
        </g>
    </g>
</svg>