<?xml version="1.0" encoding="UTF-8"?>
<svg width="32px" height="32px" viewBox="0 0 32 32" version="1.1" xmlns="http://www.w3.org/2000/svg" xmlns:xlink="http://www.w3.org/1999/xlink">
    <title>Group 19 Copy 5</title>
    <g id="Page-1" stroke="none" stroke-width="1" fill="none" fill-rule="evenodd">
        <g id="Group-2" transform="translate(-144.000000, 0.000000)">
            <g id="Group-19-Copy-5" transform="translate(136.000000, 0.000000)">
                <g id="Group" transform="translate(8.000000, 0.000000)">
                    <rect id="Rectangle" stroke="#000000" stroke-width="2" x="6" y="4" width="20" height="24" rx="3"></rect>
                    <line x1="6.5" y1="12" x2="25.5" y2="12" id="Line" stroke="#000000" stroke-width="2" stroke-linecap="square"></line>
                    <line x1="6.5" y1="20" x2="25.5" y2="20" id="Line-Copy" stroke="#000000" stroke-width="2" stroke-linecap="square"></line>
                    <line x1="16" y1="12" x2="16" y2="28" id="Line-Copy-2" stroke="#000000" stroke-width="2" stroke-linecap="square"></line>
                    <polygon id="Fill-6" fill="#000000" points="10.1388184 18.3657957 11.7145684 18.3657957 11.7145684 16.7907957 13.2888184 16.7907957 13.2888184 15.2157957 11.7145684 15.2157957 11.7145684 13.6407957 10.1388184 13.6407957 10.1388184 15.2157957 8.56381836 15.2157957 8.56381836 16.7907957 10.1388184 16.7907957"></polygon>
                    <polygon id="Fill-7" fill="#000000" points="19.7483607 18.2275 20.8621107 17.1145 21.9758607 18.2275 23.0896107 17.1145 21.9758607 16 23.0896107 14.88625 21.9758607 13.77325 20.8621107 14.887 19.7483607 13.77325 18.6353607 14.88625 19.7483607 16 18.6353607 17.1145"></polygon>
                    <polygon id="Fill-8" fill="#000000" points="8.56381836 24.7460175 13.2888184 24.7460175 13.2888184 23.1710175 8.56381836 23.1710175"></polygon>
                    <polygon id="Fill-9" fill="#000000" points="18.6353607 26.0487782 23.3603607 26.0487782 23.3603607 24.4737782 18.6353607 24.4737782"></polygon>
                    <polygon id="Fill-10" fill="#000000" points="18.6353607 23.5880282 23.3603607 23.5880282 23.3603607 22.0130282 18.6353607 22.0130282"></polygon>
                    <path d="M20.8624857,8.51991935 L22.0671749,8.51991935 L22.0671749,7.42566935 L20.8624857,7.42566935 L20.8624857,8.51991935 Z M19.2882357,10.0949194 L23.6429249,10.0949194 L23.6429249,5.85066935 L19.2882357,5.85066935 L19.2882357,10.0949194 Z" id="Fill-4" fill="#000000"></path>
                </g>
            </g>
        </g>
    </g>
</svg>