<?xml version="1.0" encoding="UTF-8"?>
<svg width="32px" height="32px" viewBox="0 0 32 32" version="1.1" xmlns="http://www.w3.org/2000/svg" xmlns:xlink="http://www.w3.org/1999/xlink">
    <title>Slice</title>
    <g id="Page-1" stroke="none" stroke-width="1" fill="none" fill-rule="evenodd">
        <g id="Group" stroke="#000000">
            <path d="M8,23.5 L8,8 L24,8 L24,29 C24,30.6568542 22.6568542,32 21,32" id="Shape" stroke-width="2" transform="translate(16.000000, 20.000000) rotate(-270.000000) translate(-16.000000, -20.000000) "></path>
            <g transform="translate(4.000000, 8.000000)" id="Path" stroke-width="2">
                <path d="M0,17 C0,15.3431458 1.34314575,14 3,14 L8.5,14"></path>
                <path d="M8.5,15 L8.5,0 L3,0 C1.34314575,0 0,1.34314575 0,3 L0,17" stroke-linejoin="round"></path>
            </g>
            <circle id="Oval" stroke-width="2" fill="#FFFFFF" cx="21.5" cy="7.5" r="4.5"></circle>
            <path d="M19,7.5 C19,8.88071187 20.1192881,10 21.5,10" id="Path" fill="#FFFFFF"></path>
            <line x1="21.5" y1="12.5" x2="21.5" y2="18.5" id="Line-4" stroke-width="2" stroke-linecap="round"></line>
        </g>
    </g>
</svg>