<?xml version="1.0" encoding="UTF-8"?>
<svg width="120px" height="120px" viewBox="0 0 120 120" version="1.1" xmlns="http://www.w3.org/2000/svg" xmlns:xlink="http://www.w3.org/1999/xlink">
    <!-- Generator: Sketch 52.4 (67378) - http://www.bohemiancoding.com/sketch -->
    <title>mdpi/##Element/Graphic/Warning Copy</title>
    <desc>Created with Sketch.</desc>
    <g id="##Element/Graphic/Warning-Copy" stroke="none" stroke-width="1" fill="none" fill-rule="evenodd">
        <rect id="Icon_Area" fill-opacity="0" fill="#FFFFFF" x="0" y="0" width="120" height="120"></rect>
        <circle id="Oval-5" fill="#F76252" cx="60" cy="60" r="60"></circle>
        <g id="Group-17" transform="translate(31.000000, 39.000000)">
            <rect id="Rectangle" stroke="#FFFFFF" stroke-width="5" x="0" y="0" width="58" height="42" rx="4"></rect>
            <path d="M38,24 L38,34" id="Path-10" stroke="#FFFFFF" stroke-width="4"></path>
            <path d="M49,24 L49,34" id="Path-10-Copy-3" stroke="#FFFFFF" stroke-width="3"></path>
            <path d="M42,24 L42,34" id="Path-10-Copy" stroke="#FFFFFF"></path>
            <path d="M34,24 L34,34" id="Path-10-Copy-4" stroke="#FFFFFF"></path>
            <path d="M45,24 L45,34" id="Path-10-Copy-2" stroke="#FFFFFF" stroke-width="2"></path>
            <path d="M16.3673395,19.2810216 C16.3673395,18.3156093 16.6290706,17.475343 17.32702,17.2250509 L20.2758562,16.1523706 C20.3456511,15.9557125 20.485241,15.5802744 20.4677923,15.0618123 C20.4328948,13.2203777 19.4557656,11.8795272 18.0947643,11.4325771 L10.016,8.84026627 L12.1272969,8.07151202 C12.2319893,8.03575601 12.389028,8 12.5111691,8 C12.650759,8 12.8077976,8.03575601 12.91249,8.05363402 L21.1482929,10.6995789 C22.5790892,11.182285 23.12,12.9522076 23.12,13.8997419 C23.12,14.6684961 22.858269,15.5623964 22.0556272,15.8663225 C21.340229,16.1344926 19.2114834,16.9211248 19.2114834,16.9211248 C19.1416884,17.1177829 19.0020985,17.457465 19.0020985,18.2440973 C19.0020985,18.6910474 19.0020985,21.0867002 19.0020985,21.5157723 C19.0020985,22.5348186 18.513534,23.4823529 17.588751,23.4823529 C17.1874301,23.4644749 16.733763,23.2678169 16.3673395,22.9102568 L16.3673395,19.2810216 Z M14.5477592,17.0279544 L14.5477592,20.0814278 C14.5477592,21.9673966 15.3789515,23.5120949 16.736,23.9611351 L14.6325748,24.7334842 C14.2084971,24.8951387 13.8013825,24.7334842 13.5469359,24.5538682 C12.5291495,23.8533654 11.9863301,22.7936306 11.9863301,21.1411626 C11.9863301,20.3688135 11.9863301,19.3090786 11.9863301,17.9260348 C11.9863301,17.1357241 11.6809942,16.2376437 11.1890641,15.5551026 C10.8328388,15.0521775 10.4087612,14.7288686 9.86594175,14.5312909 C8.83119223,14.1361355 8,12.7171685 8,11.3341247 C8,10.130697 8.57674563,9.37630942 9.34008544,9.3224246 C9.5097165,9.30446299 9.64542136,9.34038621 9.78112621,9.37630942 C10.2391301,9.52000229 10.5953553,9.66369515 10.5953553,9.66369515 C10.3409087,11.046739 11.1042485,13.1841703 12.6478913,13.7589418 C13.2585631,13.9744811 13.6147883,14.3157516 13.9201243,14.8186766 C14.3272388,15.4832561 14.5477592,16.3094901 14.5477592,17.0279544 Z" id="Combined-Shape" fill="#FFFFFF" fill-rule="nonzero"></path>
        </g>
    </g>
</svg>