<?xml version="1.0" encoding="UTF-8"?>
<svg width="120px" height="120px" viewBox="0 0 120 120" version="1.1" xmlns="http://www.w3.org/2000/svg" xmlns:xlink="http://www.w3.org/1999/xlink">
    <!-- Generator: Sketch 52.3 (67297) - http://www.bohemiancoding.com/sketch -->
    <title>Group 9</title>
    <desc>Created with Sketch.</desc>
    <g id="Icon_Badge_Graphic" stroke="none" stroke-width="1" fill="none" fill-rule="evenodd">
        <g id="Artboard">
            <g id="Group-9">
                <path d="M120,60 C120,93.137 93.137,120 60,120 C26.863,120 0,93.137 0,60 C0,26.863 26.863,0 60,0 C93.137,0 120,26.863 120,60" id="Fill-1" fill="#F76252"></path>
                <path d="M75,38 L75,82 C75,82.553 74.553,83 74,83 L46,83 C45.448,83 45,82.553 45,82 L45,38 L40,38 L40,85 C40,86.657 41.343,88 43,88 L77,88 C78.657,88 80,86.657 80,85 L80,38 L75,38 Z" id="Fill-3" fill="#FFFFFF"></path>
                <path d="M66,85 L62,85 C60.896,85 60,84.104 60,83 L60,41 C60,39.896 60.896,39 62,39 L66,39 C67.104,39 68,39.896 68,41 L68,83 C68,84.104 67.104,85 66,85" id="Fill-5" fill="#FFFFFF"></path>
                <path d="M92,42 L28,42 C26.343,42 25,40.657 25,39 C25,37.343 26.343,36 28,36 L92,36 C93.657,36 95,37.343 95,39 C95,40.657 93.657,42 92,42" id="Fill-7" fill="#FFFFFF"></path>
            </g>
        </g>
    </g>
</svg>