<?xml version="1.0" encoding="UTF-8"?>
<svg width="136px" height="56px" viewBox="0 0 136 56" version="1.1" xmlns="http://www.w3.org/2000/svg" xmlns:xlink="http://www.w3.org/1999/xlink">
    <!-- Generator: Sketch 52.6 (67491) - http://www.bohemiancoding.com/sketch -->
    <title>graphic_home_tab_store_on</title>
    <desc>Created with Sketch.</desc>
    <g id="Icon_Badge_Graphic" stroke="none" stroke-width="1" fill="none" fill-rule="evenodd">
        <g id="##Element/HomeTab/StoreOn">
            <path d="M23.628,40.548 C21.7919908,40.548 20.0353417,40.2363364 18.358,39.613 C16.6806583,38.9896636 15.1280071,38.0320065 13.7,36.74 L16.216,33.748 C17.3720058,34.7453383 18.5393274,35.5103307 19.718,36.043 C20.8966726,36.5756693 22.2339925,36.842 23.73,36.842 C25.0220065,36.842 26.0476629,36.5700027 26.807,36.026 C27.5663371,35.4819973 27.946,34.7566712 27.946,33.85 L27.946,33.782 C27.946,33.3513312 27.8723341,32.9716683 27.725,32.643 C27.5776659,32.3143317 27.3056687,32.0026681 26.909,31.708 C26.5123313,31.4133319 25.9683368,31.1413346 25.277,30.892 C24.5856632,30.6426654 23.6846722,30.3933346 22.574,30.144 C21.3046603,29.8493319 20.1770049,29.5150019 19.191,29.141 C18.2049951,28.7669981 17.37767,28.3136693 16.709,27.781 C16.04033,27.2483307 15.5303351,26.5966705 15.179,25.826 C14.8276649,25.0553295 14.652,24.1260054 14.652,23.038 L14.652,22.97 C14.652,21.9499949 14.855998,21.0150043 15.264,20.165 C15.672002,19.3149958 16.2329964,18.5896697 16.947,17.989 C17.6610036,17.3883303 18.5166617,16.9180017 19.514,16.578 C20.5113383,16.2379983 21.5993274,16.068 22.778,16.068 C24.5233421,16.068 26.092993,16.3229975 27.487,16.833 C28.881007,17.3430026 30.1899939,18.0853285 31.414,19.06 L29.17,22.222 C28.0819946,21.4286627 27.0053387,20.8223354 25.94,20.403 C24.8746613,19.9836646 23.7980054,19.774 22.71,19.774 C21.4859939,19.774 20.5340034,20.0459973 19.854,20.59 C19.1739966,21.1340027 18.834,21.8026627 18.834,22.596 L18.834,22.664 C18.834,23.1173356 18.9133325,23.5196649 19.072,23.871 C19.2306675,24.2223351 19.5196646,24.5396652 19.939,24.823 C20.3583354,25.1063348 20.9363296,25.3726654 21.673,25.622 C22.4096703,25.8713346 23.344661,26.1319986 24.478,26.404 C25.7246729,26.7213349 26.8296619,27.0726647 27.793,27.458 C28.7563381,27.8433353 29.5553302,28.3136639 30.19,28.869 C30.8246698,29.4243361 31.3063317,30.0703297 31.635,30.807 C31.9636683,31.5436703 32.128,32.3993285 32.128,33.374 L32.128,33.442 C32.128,34.5526722 31.9183354,35.5499956 31.499,36.434 C31.0796646,37.3180044 30.4960037,38.0659969 29.748,38.678 C28.9999963,39.2900031 28.1046719,39.7546651 27.062,40.072 C26.0193281,40.3893349 24.8746729,40.548 23.628,40.548 Z M41.206,20.284 L33.658,20.284 L33.658,16.408 L52.97,16.408 L52.97,20.284 L45.422,20.284 L45.422,40.208 L41.206,40.208 L41.206,20.284 Z M66.814,36.774 C67.9926726,36.774 69.0749951,36.5530022 70.061,36.111 C71.0470049,35.6689978 71.8913298,35.0683371 72.594,34.309 C73.2966702,33.5496629 73.8463313,32.6600051 74.243,31.64 C74.6396687,30.6199949 74.838,29.5320058 74.838,28.376 L74.838,28.308 C74.838,27.1519942 74.6396687,26.0583385 74.243,25.027 C73.8463313,23.9956615 73.2910036,23.1003371 72.577,22.341 C71.8629964,21.5816629 71.0073383,20.9753356 70.01,20.522 C69.0126617,20.0686644 67.9246726,19.842 66.746,19.842 C65.5673274,19.842 64.4850049,20.0629978 63.499,20.505 C62.5129951,20.9470022 61.6686702,21.5476629 60.966,22.307 C60.2633298,23.0663371 59.7136687,23.9559949 59.317,24.976 C58.9203313,25.9960051 58.722,27.0839942 58.722,28.24 L58.722,28.308 C58.722,29.4640058 58.9203313,30.5576615 59.317,31.589 C59.7136687,32.6203385 60.2689964,33.5156629 60.983,34.275 C61.6970036,35.0343371 62.5526617,35.6406644 63.55,36.094 C64.5473383,36.5473356 65.6353274,36.774 66.814,36.774 Z M66.746,40.616 C64.9099908,40.616 63.2326743,40.2930032 61.714,39.647 C60.1953257,39.0009968 58.8920054,38.1226722 57.804,37.012 C56.7159946,35.9013278 55.8660031,34.6036741 55.254,33.119 C54.6419969,31.6343259 54.336,30.0533417 54.336,28.376 L54.336,28.308 C54.336,26.6306583 54.6419969,25.0496741 55.254,23.565 C55.8660031,22.0803259 56.7273278,20.7770056 57.838,19.655 C58.9486722,18.5329944 60.2633257,17.6433366 61.782,16.986 C63.3006743,16.3286634 64.9779908,16 66.814,16 C68.6500092,16 70.3273257,16.3229968 71.846,16.969 C73.3646743,17.6150032 74.6679946,18.4933278 75.756,19.604 C76.8440054,20.7146722 77.6939969,22.0123259 78.306,23.497 C78.9180031,24.9816741 79.224,26.5626583 79.224,28.24 L79.224,28.308 C79.224,29.9853417 78.9180031,31.5663259 78.306,33.051 C77.6939969,34.5356741 76.8326722,35.8389944 75.722,36.961 C74.6113278,38.0830056 73.2966743,38.9726634 71.778,39.63 C70.2593257,40.2873366 68.5820092,40.616 66.746,40.616 Z M92.592,28.206 C94.0880075,28.206 95.2779956,27.8490036 96.162,27.135 C97.0460044,26.4209964 97.488,25.4520061 97.488,24.228 L97.488,24.16 C97.488,22.8679935 97.0573376,21.88767 96.196,21.219 C95.3346624,20.55033 94.1220078,20.216 92.558,20.216 L86.472,20.216 L86.472,28.206 L92.592,28.206 Z M82.29,16.408 L92.898,16.408 C94.3940075,16.408 95.7199942,16.6176646 96.876,17.037 C98.0320058,17.4563354 98.9953295,18.0399963 99.766,18.788 C100.40067,19.4453366 100.887998,20.2046624 101.228,21.066 C101.568002,21.9273376 101.738,22.8793281 101.738,23.922 L101.738,23.99 C101.738,24.9646715 101.596335,25.8429961 101.313,26.625 C101.029665,27.4070039 100.638669,28.0983303 100.14,28.699 C99.6413308,29.2996697 99.0463368,29.8096646 98.355,30.229 C97.6636632,30.6483354 96.8986709,30.9713322 96.06,31.198 L102.486,40.208 L97.556,40.208 L91.708,31.912 L86.472,31.912 L86.472,40.208 L82.29,40.208 L82.29,16.408 Z M105,16.408 L122.646,16.408 L122.646,20.148 L109.182,20.148 L109.182,26.336 L121.116,26.336 L121.116,30.076 L109.182,30.076 L109.182,36.468 L122.816,36.468 L122.816,40.208 L105,40.208 L105,16.408 Z" id="STORE-Copy" fill="#EF4B49" fill-rule="nonzero"></path>
            <rect id="Icon_Area" fill-opacity="0" fill="#FFFFFF" x="0" y="0" width="136" height="56"></rect>
        </g>
    </g>
</svg>