<?xml version="1.0" encoding="UTF-8" standalone="no"?>
<svg width="208px" height="24px" viewBox="0 0 208 24" version="1.1" xmlns="http://www.w3.org/2000/svg" xmlns:xlink="http://www.w3.org/1999/xlink">
    <!-- Generator: Sketch 50.2 (55047) - http://www.bohemiancoding.com/sketch -->
    <title>graphic_ci_sktelecom</title>
    <desc>Created with Sketch.</desc>
    <defs>
        <path d="M8.71,20.26 C7.30599298,20.26 5.96267308,20.021669 4.68,19.545 C3.39732692,19.068331 2.21000546,18.3360049 1.118,17.348 L3.042,15.06 C3.92600442,15.8226705 4.81866216,16.4076646 5.72,16.815 C6.62133784,17.2223354 7.64399428,17.426 8.788,17.426 C9.77600494,17.426 10.5603304,17.2180021 11.141,16.802 C11.7216696,16.3859979 12.012,15.8313368 12.012,15.138 L12.012,15.086 C12.012,14.756665 11.9556672,14.4663346 11.843,14.215 C11.7303328,13.9636654 11.5223349,13.7253345 11.219,13.5 C10.9156652,13.2746655 10.4996693,13.0666676 9.971,12.876 C9.44233069,12.6853324 8.75333758,12.4946676 7.904,12.304 C6.93332848,12.0786655 6.07100377,11.8230014 5.317,11.537 C4.56299623,11.2509986 3.93033589,10.9043354 3.419,10.497 C2.90766411,10.0896646 2.51766801,9.59133628 2.249,9.002 C1.98033199,8.41266372 1.846,7.70200416 1.846,6.87 L1.846,6.818 C1.846,6.0379961 2.00199844,5.32300325 2.314,4.673 C2.62600156,4.02299675 3.05499727,3.46833563 3.601,3.009 C4.14700273,2.54966437 4.80132952,2.1900013 5.564,1.93 C6.32667048,1.6699987 7.15866216,1.54 8.06,1.54 C9.39467334,1.54 10.5949947,1.73499805 11.661,2.125 C12.7270053,2.51500195 13.7279953,3.08266294 14.664,3.828 L12.948,6.246 C12.1159958,5.6393303 11.2926707,5.17566827 10.478,4.855 C9.66332926,4.53433173 8.84000416,4.374 8.008,4.374 C7.07199532,4.374 6.3440026,4.58199792 5.824,4.998 C5.3039974,5.41400208 5.044,5.9253303 5.044,6.532 L5.044,6.584 C5.044,6.9306684 5.10466606,7.23833199 5.226,7.507 C5.34733394,7.77566801 5.56833173,8.01833225 5.889,8.235 C6.20966827,8.45166775 6.65166385,8.65533238 7.215,8.846 C7.77833615,9.03666762 8.493329,9.23599896 9.36,9.444 C10.3133381,9.68666788 11.1583297,9.95533186 11.895,10.25 C12.6316704,10.5446681 13.2426642,10.9043312 13.728,11.329 C14.2133358,11.7536688 14.5816654,12.2476639 14.833,12.811 C15.0843346,13.3743361 15.21,14.0286629 15.21,14.774 L15.21,14.826 C15.21,15.6753376 15.0496683,16.4379966 14.729,17.114 C14.4083317,17.7900034 13.9620029,18.3619977 13.39,18.83 C12.8179971,19.2980023 12.1333373,19.6533321 11.336,19.896 C10.5386627,20.1386679 9.6633381,20.26 8.71,20.26 Z M17.58,1.8 L20.778,1.8 L20.778,10.952 L29.436,1.8 L33.362,1.8 L25.796,9.626 L33.7,20 L29.826,20 L23.612,11.81 L20.778,14.722 L20.778,20 L17.58,20 L17.58,1.8 Z M45.6680001,20.234 C45.0959972,20.234 44.5673358,20.1646674 44.0820001,20.026 C43.5966643,19.8873326 43.1763352,19.6620016 42.8210001,19.35 C42.465665,19.0379984 42.1926677,18.6263359 42.0020001,18.115 C41.8113325,17.6036641 41.7160001,16.9666705 41.7160001,16.204 L41.7160001,8.976 L39.9740001,8.976 L39.9740001,6.272 L41.7160001,6.272 L41.7160001,2.502 L44.8620001,2.502 L44.8620001,6.272 L48.5540001,6.272 L48.5540001,8.976 L44.8620001,8.976 L44.8620001,15.71 C44.8620001,16.3166697 45.0093319,16.754332 45.3040001,17.023 C45.5986682,17.291668 46.0146641,17.426 46.5520001,17.426 C47.2280035,17.426 47.877997,17.2700016 48.5020001,16.958 L48.5020001,19.532 C48.1033314,19.7573345 47.678669,19.9306661 47.2280001,20.052 C46.7773312,20.1733339 46.2573364,20.234 45.6680001,20.234 Z M59.7380001,12.174 C59.6859998,11.6713308 59.5733343,11.1990022 59.4000001,10.757 C59.2266659,10.3149978 58.9926682,9.93366827 58.6980001,9.613 C58.403332,9.29233173 58.0523355,9.03666762 57.6450001,8.846 C57.2376647,8.65533238 56.7740027,8.56 56.2540001,8.56 C55.2833286,8.56 54.4816699,8.89366333 53.8490001,9.561 C53.2163303,10.2283367 52.8306675,11.099328 52.6920001,12.174 L59.7380001,12.174 Z M56.6180001,20.312 C55.6299952,20.312 54.7070044,20.1386684 53.8490001,19.792 C52.9909958,19.4453316 52.2456699,18.9600031 51.6130001,18.336 C50.9803303,17.7119969 50.4820019,16.9623377 50.1180001,16.087 C49.7539983,15.2116623 49.5720001,14.2453386 49.5720001,13.188 L49.5720001,13.136 C49.5720001,12.1479951 49.7366651,11.220671 50.0660001,10.354 C50.3953351,9.487329 50.8589971,8.72900325 51.4570001,8.079 C52.0550031,7.42899675 52.7613294,6.91766853 53.5760001,6.545 C54.3906708,6.17233147 55.2919952,5.986 56.2800001,5.986 C57.3720056,5.986 58.3296626,6.18533134 59.1530001,6.584 C59.9763375,6.98266866 60.6609974,7.51999662 61.2070001,8.196 C61.7530028,8.87200338 62.1646654,9.65632887 62.4420001,10.549 C62.7193348,11.4416711 62.8580001,12.3819951 62.8580001,13.37 C62.8580001,13.5086674 62.8536668,13.6516659 62.8450001,13.799 C62.8363334,13.9463341 62.8233335,14.0979992 62.8060001,14.254 L52.7180001,14.254 C52.8913343,15.3806723 53.3376632,16.242997 54.0570001,16.841 C54.776337,17.439003 55.6473283,17.738 56.6700001,17.738 C57.450004,17.738 58.1259972,17.5993347 58.6980001,17.322 C59.270003,17.0446653 59.8333307,16.637336 60.3880001,16.1 L62.2340001,17.738 C61.5753301,18.5180039 60.7910046,19.1419977 59.8810001,19.61 C58.9709955,20.0780023 57.8833398,20.312 56.6180001,20.312 Z M64.8120001,1.02 L67.9580001,1.02 L67.9580001,20 L64.8120001,20 L64.8120001,1.02 Z M80.0780001,12.174 C80.0259999,11.6713308 79.9133343,11.1990022 79.7400001,10.757 C79.5666659,10.3149978 79.3326683,9.93366827 79.0380001,9.613 C78.743332,9.29233173 78.3923355,9.03666762 77.9850001,8.846 C77.5776648,8.65533238 77.1140027,8.56 76.5940001,8.56 C75.6233286,8.56 74.82167,8.89366333 74.1890001,9.561 C73.5563303,10.2283367 73.1706675,11.099328 73.0320001,12.174 L80.0780001,12.174 Z M76.9580001,20.312 C75.9699952,20.312 75.0470044,20.1386684 74.1890001,19.792 C73.3309959,19.4453316 72.58567,18.9600031 71.9530001,18.336 C71.3203303,17.7119969 70.822002,16.9623377 70.4580001,16.087 C70.0939983,15.2116623 69.9120001,14.2453386 69.9120001,13.188 L69.9120001,13.136 C69.9120001,12.1479951 70.0766652,11.220671 70.4060001,10.354 C70.7353351,9.487329 71.1989972,8.72900325 71.7970001,8.079 C72.3950031,7.42899675 73.1013294,6.91766853 73.9160001,6.545 C74.7306709,6.17233147 75.6319952,5.986 76.6200001,5.986 C77.7120056,5.986 78.6696627,6.18533134 79.4930001,6.584 C80.3163376,6.98266866 81.0009974,7.51999662 81.5470001,8.196 C82.0930029,8.87200338 82.5046654,9.65632887 82.7820001,10.549 C83.0593349,11.4416711 83.1980001,12.3819951 83.1980001,13.37 C83.1980001,13.5086674 83.1936669,13.6516659 83.1850001,13.799 C83.1763334,13.9463341 83.1633336,14.0979992 83.1460001,14.254 L73.0580001,14.254 C73.2313343,15.3806723 73.6776632,16.242997 74.3970001,16.841 C75.1163371,17.439003 75.9873284,17.738 77.0100001,17.738 C77.790004,17.738 78.4659973,17.5993347 79.0380001,17.322 C79.610003,17.0446653 80.1733307,16.637336 80.7280001,16.1 L82.5740001,17.738 C81.9153302,18.5180039 81.1310047,19.1419977 80.2210001,19.61 C79.3109956,20.0780023 78.2233398,20.312 76.9580001,20.312 Z M91.3140002,20.312 C90.2913284,20.312 89.3466712,20.1256685 88.4800002,19.753 C87.6133292,19.3803315 86.86367,18.8733365 86.2310002,18.232 C85.5983303,17.5906635 85.1043353,16.836671 84.7490002,15.97 C84.3936651,15.103329 84.2160002,14.1846715 84.2160002,13.214 L84.2160002,13.162 C84.2160002,12.1913285 84.3936651,11.2683377 84.7490002,10.393 C85.1043353,9.51766229 85.5983303,8.75500325 86.2310002,8.105 C86.86367,7.45499675 87.6176625,6.93933524 88.4930002,6.558 C89.3683379,6.17666476 90.3173284,5.986 91.3400002,5.986 C92.6400067,5.986 93.7189959,6.2026645 94.5770002,6.636 C95.4350045,7.0693355 96.1846636,7.64132978 96.8260002,8.352 L94.8760002,10.458 C94.3906644,9.95533082 93.8750029,9.54366827 93.3290002,9.223 C92.7829974,8.90233173 92.1113375,8.742 91.3140002,8.742 C90.7419973,8.742 90.2133359,8.85899883 89.7280002,9.093 C89.2426644,9.32700117 88.8266686,9.63899805 88.4800002,10.029 C88.1333318,10.4190019 87.8603345,10.882664 87.6610002,11.42 C87.4616658,11.957336 87.3620002,12.5206637 87.3620002,13.11 L87.3620002,13.162 C87.3620002,13.7686697 87.4616658,14.340664 87.6610002,14.878 C87.8603345,15.415336 88.1419983,15.8833313 88.5060002,16.282 C88.870002,16.6806687 89.303331,16.9969988 89.8060002,17.231 C90.3086693,17.4650012 90.8633305,17.582 91.4700002,17.582 C92.2153372,17.582 92.869664,17.4216683 93.4330002,17.101 C93.9963363,16.7803317 94.529331,16.3686692 95.0320002,15.866 L96.9300002,17.738 C96.2539968,18.5006705 95.4826712,19.1203309 94.6160002,19.597 C93.7493292,20.073669 92.6486735,20.312 91.3140002,20.312 Z M104.994,17.582 C105.635337,17.582 106.211664,17.4650012 106.723,17.231 C107.234336,16.9969988 107.671998,16.6806687 108.036,16.282 C108.400002,15.8833313 108.677333,15.4196693 108.868,14.891 C109.058668,14.3623307 109.154,13.8033363 109.154,13.214 L109.154,13.162 C109.154,12.5553303 109.050001,11.983336 108.842,11.446 C108.633999,10.908664 108.343669,10.4406687 107.971,10.042 C107.598332,9.64333134 107.156336,9.32700117 106.645,9.093 C106.133664,8.85899883 105.566003,8.742 104.942,8.742 C104.317997,8.742 103.750336,8.85899883 103.239,9.093 C102.727664,9.32700117 102.290002,9.63899805 101.926,10.029 C101.561998,10.4190019 101.284668,10.882664 101.094,11.42 C100.903333,11.957336 100.808,12.5206637 100.808,13.11 L100.808,13.162 C100.808,13.7686697 100.911999,14.3363307 101.12,14.865 C101.328001,15.3936693 101.618332,15.8616646 101.991,16.269 C102.363669,16.6763354 102.805664,16.9969988 103.317,17.231 C103.828336,17.4650012 104.38733,17.582 104.994,17.582 Z M104.942,20.312 C103.901995,20.312 102.935671,20.1256685 102.043,19.753 C101.150329,19.3803315 100.379003,18.8733365 99.7290002,18.232 C99.0789969,17.5906635 98.572002,16.836671 98.2080002,15.97 C97.8439984,15.103329 97.6620002,14.1846715 97.6620002,13.214 L97.6620002,13.162 C97.6620002,12.1739951 97.8483317,11.246671 98.2210002,10.38 C98.5936687,9.513329 99.1049969,8.75500325 99.7550002,8.105 C100.405003,7.45499675 101.176329,6.93933524 102.069,6.558 C102.961671,6.17666476 103.936662,5.986 104.994,5.986 C106.051339,5.986 107.026329,6.17233147 107.919,6.545 C108.811671,6.91766853 109.582997,7.42899675 110.233,8.079 C110.883003,8.72900325 111.389998,9.48299571 111.754,10.341 C112.118002,11.1990043 112.3,12.1219951 112.3,13.11 L112.3,13.162 C112.3,14.1326715 112.113669,15.051329 111.741,15.918 C111.368332,16.784671 110.857003,17.5429968 110.207,18.193 C109.556997,18.8430032 108.781338,19.3586648 107.88,19.74 C106.978662,20.1213352 105.999339,20.312 104.942,20.312 Z M114.098,6.272 L117.244,6.272 L117.244,8.352 C117.469335,8.03999844 117.711999,7.74533472 117.972,7.468 C118.232002,7.19066528 118.530999,6.93933446 118.869,6.714 C119.207002,6.48866554 119.588331,6.31100065 120.013,6.181 C120.437669,6.05099935 120.909998,5.986 121.43,5.986 C122.418005,5.986 123.25433,6.20699779 123.939,6.649 C124.62367,7.09100221 125.147998,7.67599636 125.512,8.404 C126.06667,7.67599636 126.720996,7.09100221 127.475,6.649 C128.229004,6.20699779 129.125995,5.986 130.166,5.986 C131.674008,5.986 132.852663,6.44099545 133.702,7.351 C134.551338,8.26100455 134.976,9.55665826 134.976,11.238 L134.976,20 L131.83,20 L131.83,12.2 C131.83,11.1079945 131.587336,10.2760029 131.102,9.704 C130.616664,9.13199714 129.932005,8.846 129.048,8.846 C128.181329,8.846 127.475003,9.13633043 126.929,9.717 C126.382997,10.2976696 126.11,11.1426611 126.11,12.252 L126.11,20 L122.964,20 L122.964,12.174 C122.964,11.099328 122.721336,10.2760029 122.236,9.704 C121.750664,9.13199714 121.066005,8.846 120.182,8.846 C119.297996,8.846 118.587336,9.1493303 118.05,9.756 C117.512664,10.3626697 117.244,11.203328 117.244,12.278 L117.244,20 L114.098,20 L114.098,6.272 Z M137.19,16.438 L140.648,16.438 L140.648,20 L137.19,20 L137.19,16.438 Z M141.9,22.444 C143.494675,22.1319984 144.231334,21.3173399 144.11,20 L142.784,20 L142.784,16.438 L146.242,16.438 L146.242,19.454 C146.242,20.9100073 145.904004,21.96733 145.228,22.626 C144.551997,23.28467 143.55534,23.6659995 142.238,23.77 L141.9,22.444 Z M155.35,1.8 L158.548,1.8 L158.548,17.088 L168.116,17.088 L168.116,20 L155.35,20 L155.35,1.8 Z M174.516,4.764 L168.744,4.764 L168.744,1.8 L183.512,1.8 L183.512,4.764 L177.74,4.764 L177.74,20 L174.516,20 L174.516,4.764 Z M192.278,17.088 C193.231338,17.088 194.097996,16.9363348 194.878,16.633 C195.658004,16.3296652 196.320998,15.9050027 196.867,15.359 C197.413003,14.8129973 197.837666,14.1630038 198.141,13.409 C198.444335,12.6549962 198.596,11.8360044 198.596,10.952 L198.596,10.9 C198.596,10.0159956 198.444335,9.19267048 198.141,8.43 C197.837666,7.66732952 197.413003,7.01300273 196.867,6.467 C196.320998,5.92099727 195.658004,5.49200156 194.878,5.18 C194.097996,4.86799844 193.231338,4.712 192.278,4.712 L188.69,4.712 L188.69,17.088 L192.278,17.088 Z M185.492,1.8 L192.278,1.8 C193.699341,1.8 195.003661,2.02966437 196.191,2.489 C197.37834,2.94833563 198.400996,3.58532926 199.259,4.4 C200.117005,5.21467074 200.779998,6.17232783 201.248,7.273 C201.716003,8.37367217 201.95,9.56532692 201.95,10.848 L201.95,10.9 C201.95,12.1826731 201.716003,13.3786611 201.248,14.488 C200.779998,15.5973389 200.117005,16.5593293 199.259,17.374 C198.400996,18.1886707 197.37834,18.8299977 196.191,19.298 C195.003661,19.7660023 193.699341,20 192.278,20 L185.492,20 L185.492,1.8 Z" id="path-1"></path>
        <filter x="-0.2%" y="-2.2%" width="100.5%" height="104.4%" filterUnits="objectBoundingBox" id="filter-2">
            <feOffset dx="0" dy="1" in="SourceAlpha" result="shadowOffsetInner1"></feOffset>
            <feComposite in="shadowOffsetInner1" in2="SourceAlpha" operator="arithmetic" k2="-1" k3="1" result="shadowInnerInner1"></feComposite>
            <feColorMatrix values="0 0 0 0 0   0 0 0 0 0   0 0 0 0 0  0 0 0 0.10193048 0" type="matrix" in="shadowInnerInner1"></feColorMatrix>
        </filter>
    </defs>
    <g id="Icon_Badge_Graphic" stroke="none" stroke-width="1" fill="none" fill-rule="evenodd">
        <g id="##Element/CI/Footer">
            <rect id="Icon_Area" fill-opacity="0" fill="#FFFFFF" x="0" y="0" width="80" height="80"></rect>
            <g id="SK-telecom.,-LTD">
                <use fill="#C1C1C1" fill-rule="evenodd" xlink:href="#path-1"></use>
                <use fill="black" fill-opacity="1" filter="url(#filter-2)" xlink:href="#path-1"></use>
            </g>
        </g>
    </g>
</svg>