<?xml version="1.0" encoding="UTF-8" standalone="no"?>
<svg width="88px" height="88px" viewBox="0 0 88 88" version="1.1" xmlns="http://www.w3.org/2000/svg" xmlns:xlink="http://www.w3.org/1999/xlink">
    <!-- Generator: Sketch 50.2 (55047) - http://www.bohemiancoding.com/sketch -->
    <title>graphic_80px_thumb_gift</title>
    <desc>Created with Sketch.</desc>
    <defs></defs>
    <g id="Icon_Badge_Graphic" stroke="none" stroke-width="1" fill="none" fill-rule="evenodd">
        <g id="##Element/Thumbnail/Gift">
            <circle id="Oval-3" fill="#59BCF5" cx="44" cy="44" r="44"></circle>
            <g id="Gift" transform="translate(24.000000, 23.000000)" stroke="#FFFFFF" stroke-width="2">
                <path d="M19.4444444,8.35714286 L9.44444444,17.2714286" id="Line-11" stroke-linecap="round"></path>
                <path d="M31.6666667,8.35714286 L21.6666667,17.2714286" id="Line-11-Copy" stroke-linecap="round" transform="translate(26.666667, 12.814286) scale(-1, 1) translate(-26.666667, -12.814286) "></path>
                <rect id="Rectangle-10" x="0" y="8.91428571" width="40" height="30.0857143" rx="3.3"></rect>
                <path d="M0,23.9571429 L39.583093,23.9571429" id="Line-9" stroke-linecap="square"></path>
                <path d="M20.5555556,9.47142857 L20.5555556,39" id="Line-10" stroke-linecap="square"></path>
                <path d="M19.8630188,7.36945424 C19.8630188,5.5613512 18.2952268,2.6877132 15.1531186,0.917221737 C12.0110104,-0.853269725 8.58994198,0.0862617298 7.90015304,2.47890738 C7.21036411,4.87155303 9.47852219,7.49602619 13.6466148,8.05385227 C15.1172683,8.20006687 16.8545255,8.27317417 18.8583864,8.27317417" id="Oval-2" stroke-linecap="round"></path>
                <path d="M32.1917197,8.27317417 C30.1878588,8.27317417 28.4506016,8.20006687 26.9799481,8.05385227 C22.8118555,7.49602619 20.5436974,4.87155303 21.2334864,2.47890738 C21.9232753,0.0862617298 25.3443437,-0.853269725 28.4864519,0.917221737 C31.6285601,2.6877132 33.1963521,5.5613512 33.1963521,7.36945424" id="Oval-2-Copy" stroke-linecap="round" transform="translate(27.153732, 4.136587) scale(-1, 1) translate(-27.153732, -4.136587) "></path>
            </g>
        </g>
    </g>
</svg>