<?xml version="1.0" encoding="UTF-8"?>
<svg width="136px" height="56px" viewBox="0 0 136 56" version="1.1" xmlns="http://www.w3.org/2000/svg" xmlns:xlink="http://www.w3.org/1999/xlink">
    <!-- Generator: Sketch 53.2 (72643) - https://sketchapp.com -->
    <title>graphic_home_tab_store_off</title>
    <desc>Created with Sketch.</desc>
    <g id="Icon_Badge_Graphic" stroke="none" stroke-width="1" fill="none" fill-rule="evenodd">
        <g id="##Element/HomeTab/StoreOff">
            <path d="M15.44,22.15 C15.44,22.7166668 15.5306668,23.2266668 15.712,23.68 C15.8933332,24.1333332 16.222,24.547 16.698,24.921 C17.174,25.295 17.8313332,25.635 18.67,25.941 C19.5086668,26.247 20.5853332,26.536 21.9,26.808 C24.552,27.3973332 26.507,28.2133332 27.765,29.256 C29.023,30.2986668 29.652,31.738 29.652,33.574 C29.652,34.594 29.448,35.5233332 29.04,36.362 C28.632,37.2006668 28.071,37.9146668 27.357,38.504 C26.643,39.0933332 25.7873332,39.5466668 24.79,39.864 C23.7926668,40.1813332 22.7046668,40.34 21.526,40.34 C19.622,40.34 17.8823332,40.0283332 16.307,39.405 C14.7316668,38.7816668 13.23,37.824 11.802,36.532 L13.468,34.56 C14.7146668,35.6933332 15.9726668,36.5376668 17.242,37.093 C18.5113332,37.6483332 19.9733332,37.926 21.628,37.926 C23.2373332,37.926 24.5236668,37.552 25.487,36.804 C26.4503332,36.056 26.932,35.07 26.932,33.846 C26.932,33.2793332 26.8413332,32.775 26.66,32.333 C26.4786668,31.891 26.1613332,31.4886668 25.708,31.126 C25.2546668,30.7633332 24.6256668,30.4346668 23.821,30.14 C23.0163332,29.8453332 21.9906668,29.562 20.744,29.29 C19.384,28.9953332 18.1996668,28.6553332 17.191,28.27 C16.1823332,27.8846668 15.3493332,27.42 14.692,26.876 C14.0346668,26.332 13.5473332,25.6973332 13.23,24.972 C12.9126668,24.2466668 12.754,23.3853332 12.754,22.388 C12.754,21.436 12.9466668,20.5633332 13.332,19.77 C13.7173332,18.9766668 14.2613332,18.291 14.964,17.713 C15.6666668,17.135 16.494,16.6816668 17.446,16.353 C18.398,16.0243332 19.4406668,15.86 20.574,15.86 C22.3193332,15.86 23.8436668,16.1036668 25.147,16.591 C26.4503332,17.0783332 27.714,17.8093332 28.938,18.784 L27.374,20.858 C26.2633332,19.9513332 25.147,19.294 24.025,18.886 C22.903,18.478 21.73,18.274 20.506,18.274 C19.7353332,18.274 19.0383332,18.376 18.415,18.58 C17.7916668,18.784 17.259,19.056 16.817,19.396 C16.375,19.736 16.035,20.144 15.797,20.62 C15.559,21.096 15.44,21.606 15.44,22.15 Z M43.376,18.682 L43.376,40 L40.656,40 L40.656,18.682 L32.666,18.682 L32.666,16.2 L51.366,16.2 L51.366,18.682 L43.376,18.682 Z M78.476,28.066 C78.476,29.7206668 78.1813332,31.2903332 77.592,32.775 C77.0026668,34.2596668 76.1753332,35.5686668 75.11,36.702 C74.0446668,37.8353332 72.764,38.7363332 71.268,39.405 C69.772,40.0736668 68.1173332,40.408 66.304,40.408 C64.4906668,40.408 62.8416668,40.0793332 61.357,39.422 C59.8723332,38.7646668 58.5973332,37.875 57.532,36.753 C56.4666668,35.631 55.645,34.3276668 55.067,32.843 C54.489,31.3583332 54.2,29.7886668 54.2,28.134 C54.2,26.4793332 54.4946668,24.9096668 55.084,23.425 C55.6733332,21.9403332 56.5006668,20.6313332 57.566,19.498 C58.6313332,18.3646668 59.912,17.4636668 61.408,16.795 C62.904,16.1263332 64.5586668,15.792 66.372,15.792 C68.1853332,15.792 69.8343332,16.1206668 71.319,16.778 C72.8036668,17.4353332 74.0786668,18.325 75.144,19.447 C76.2093332,20.569 77.031,21.8723332 77.609,23.357 C78.187,24.8416668 78.476,26.4113332 78.476,28.066 Z M75.688,28.134 C75.688,26.774 75.4556668,25.4933332 74.991,24.292 C74.5263332,23.0906668 73.8746668,22.048 73.036,21.164 C72.1973332,20.28 71.2056668,19.5773332 70.061,19.056 C68.9163332,18.5346668 67.664,18.274 66.304,18.274 C64.944,18.274 63.6916668,18.529 62.547,19.039 C61.4023332,19.549 60.422,20.246 59.606,21.13 C58.79,22.014 58.1496668,23.051 57.685,24.241 C57.2203332,25.431 56.988,26.706 56.988,28.066 C56.988,29.426 57.2203332,30.7066668 57.685,31.908 C58.1496668,33.1093332 58.8013332,34.152 59.64,35.036 C60.4786668,35.92 61.4703332,36.6226668 62.615,37.144 C63.7596668,37.6653332 65.012,37.926 66.372,37.926 C67.732,37.926 68.9843332,37.671 70.129,37.161 C71.2736668,36.651 72.254,35.954 73.07,35.07 C73.886,34.186 74.5263332,33.149 74.991,31.959 C75.4556668,30.769 75.688,29.494 75.688,28.134 Z M102.052,40 L98.754,40 L91.852,30.752 L85.052,30.752 L85.052,40 L82.366,40 L82.366,16.2 L92.6,16.2 C93.9146668,16.2 95.099,16.37 96.153,16.71 C97.207,17.05 98.108,17.5316668 98.856,18.155 C99.604,18.7783332 100.182,19.5263332 100.59,20.399 C100.998,21.2716668 101.202,22.2406668 101.202,23.306 C101.202,24.3033332 101.043333,25.193 100.726,25.975 C100.408667,26.757 99.961,27.437 99.383,28.015 C98.805,28.593 98.1193332,29.0746668 97.326,29.46 C96.5326668,29.8453332 95.6713332,30.1173332 94.742,30.276 L102.052,40 Z M98.482,23.408 C98.482,21.912 97.9493332,20.7503332 96.884,19.923 C95.8186668,19.0956668 94.3226668,18.682 92.396,18.682 L85.052,18.682 L85.052,28.338 L92.362,28.338 C93.246,28.338 94.062,28.2246668 94.81,27.998 C95.558,27.7713332 96.204,27.4483332 96.748,27.029 C97.292,26.6096668 97.717,26.094 98.023,25.482 C98.329,24.87 98.482,24.1786668 98.482,23.408 Z M123.57,16.2 L123.57,18.648 L109.052,18.648 L109.052,26.774 L122.04,26.774 L122.04,29.222 L109.052,29.222 L109.052,37.552 L123.74,37.552 L123.74,40 L106.366,40 L106.366,16.2 L123.57,16.2 Z" id="Combined-Shape" fill="#333333" fill-rule="nonzero"></path>
            <rect id="Icon_Area" fill-opacity="0" fill="#FFFFFF" x="0" y="0" width="136" height="56"></rect>
        </g>
    </g>
</svg>