<?xml version="1.0" encoding="UTF-8" standalone="no"?>
<svg width="120px" height="120px" viewBox="0 0 120 120" version="1.1" xmlns="http://www.w3.org/2000/svg" xmlns:xlink="http://www.w3.org/1999/xlink">
    <!-- Generator: Sketch 50.2 (55047) - http://www.bohemiancoding.com/sketch -->
    <title>graphic_112px_graph_sms</title>
    <desc>Created with Sketch.</desc>
    <defs></defs>
    <g id="Icon_Badge_Graphic" stroke="none" stroke-width="1" fill="none" fill-rule="evenodd">
        <g id="##Element/Graph/Dounut/Small/SMS">
            <path d="M60,104 C84.300529,104 104,84.300529 104,60 C104,35.699471 84.300529,16 60,16 C35.699471,16 16,35.699471 16,60 C16,84.300529 35.699471,104 60,104 Z M60,120 C26.862915,120 0,93.137085 0,60 C0,26.862915 26.862915,0 60,0 C93.137085,0 120,26.862915 120,60 C120,93.137085 93.137085,120 60,120 Z" id="Oval-6" fill="#E8E8E8" fill-rule="nonzero"></path>
            <path d="M108.621598,78.4770694 C110.80467,72.7356239 112,66.5074041 112,60 C112,31.281193 88.718807,8 60,8" id="Oval-6-Copy-2" stroke="#FFB11A" stroke-width="16"></path>
        </g>
    </g>
</svg>