<?xml version="1.0" encoding="UTF-8"?>
<svg width="136px" height="56px" viewBox="0 0 136 56" version="1.1" xmlns="http://www.w3.org/2000/svg" xmlns:xlink="http://www.w3.org/1999/xlink">
    <!-- Generator: Sketch 53 (72520) - https://sketchapp.com -->
    <title>graphic_home_tab_store_off</title>
    <desc>Created with Sketch.</desc>
    <g id="Icon_Badge_Graphic" stroke="none" stroke-width="1" fill="none" fill-rule="evenodd">
        <g id="##Element/HomeTab/StoreOff">
            <path d="M21.9146667,40.96 C19.9733236,40.96 18.1995636,40.6422253 16.5933333,40.0066667 C14.9871031,39.371108 13.4560072,38.3946733 12,37.0773333 L13.6986667,35.0666667 C14.9697841,36.222228 16.252438,37.0831083 17.5466667,37.6493333 C18.8408954,38.2155584 20.3315472,38.4986667 22.0186667,38.4986667 C23.6595638,38.4986667 24.9711063,38.1115594 25.9533333,37.3373333 C26.9355605,36.5631073 27.4266667,35.5751172 27.4266667,34.3733333 L27.4266667,34.304 C27.4266667,33.7493306 27.3342231,33.2466689 27.1493333,32.796 C26.9644436,32.3453311 26.6408912,31.935113 26.1786667,31.5653333 C25.7164421,31.1955537 25.0751152,30.8604459 24.2546667,30.56 C23.4342181,30.2595541 22.3884508,29.9706681 21.1173333,29.6933333 C19.7306597,29.3928874 18.5231162,29.0462242 17.4946667,28.6533333 C16.4662171,28.2604424 15.6168922,27.7866694 14.9466667,27.232 C14.2764411,26.6773306 13.7795572,26.030226 13.456,25.2906667 C13.1324428,24.5511074 12.9706667,23.6844494 12.9706667,22.6906667 L12.9706667,22.6213333 C12.9706667,21.673773 13.1671091,20.7955596 13.56,19.9866667 C13.9528909,19.1777737 14.507552,18.4786696 15.224,17.8893333 C15.940448,17.299997 16.7839951,16.8377794 17.7546667,16.5026667 C18.7253382,16.1675539 19.7884387,16 20.944,16 C22.7235645,16 24.2777711,16.2484419 25.6066667,16.7453333 C26.9355621,17.2422247 28.2239938,17.9875506 29.472,18.9813333 L27.8773333,21.096 C26.7448832,20.1715509 25.6066724,19.5013354 24.4626667,19.0853333 C23.318661,18.6693313 22.1226729,18.4613333 20.8746667,18.4613333 C19.279992,18.4613333 18.0204491,18.8368852 17.096,19.588 C16.1715509,20.3391148 15.7093333,21.2693278 15.7093333,22.3786667 L15.7093333,22.448 C15.7093333,23.0257807 15.8017769,23.5399978 15.9866667,23.9906667 C16.1715564,24.4413356 16.5066642,24.8573314 16.992,25.2386667 C17.4773358,25.6200019 18.1475512,25.9666651 19.0026667,26.2786667 C19.8577821,26.5906682 20.9555489,26.8853319 22.296,27.1626667 C25.0000136,27.7635586 26.9933269,28.5955502 28.276,29.6586667 C29.5586731,30.7217831 30.2,32.1777685 30.2,34.0266667 L30.2,34.096 C30.2,35.1360052 29.992002,36.0777735 29.576,36.9213333 C29.159998,37.7648931 28.5880037,38.4871081 27.86,39.088 C27.1319963,39.6888919 26.2595606,40.1511095 25.2426667,40.4746667 C24.2257727,40.7982238 23.1164505,40.96 21.9146667,40.96 Z M41.114,18.89 L33.124,18.89 L33.124,16.408 L51.824,16.408 L51.824,18.89 L43.834,18.89 L43.834,40.208 L41.114,40.208 L41.114,18.89 Z M65.974,38.134 C67.3340068,38.134 68.5863276,37.8790025 69.731,37.369 C70.8756724,36.8589975 71.8559959,36.1620044 72.672,35.278 C73.4880041,34.3939956 74.128331,33.3626726 74.593,32.184 C75.057669,31.0053274 75.29,29.7360068 75.29,28.376 L75.29,28.308 C75.29,26.9479932 75.057669,25.673006 74.593,24.483 C74.128331,23.2929941 73.4766709,22.2560044 72.638,21.372 C71.7993291,20.4879956 70.8076724,19.7853359 69.663,19.264 C68.5183276,18.7426641 67.2660068,18.482 65.906,18.482 C64.5459932,18.482 63.2936724,18.7369975 62.149,19.247 C61.0043276,19.7570025 60.0240041,20.4539956 59.208,21.338 C58.3919959,22.2220044 57.751669,23.2533274 57.287,24.432 C56.822331,25.6106726 56.59,26.8799932 56.59,28.24 L56.59,28.308 C56.59,29.6680068 56.822331,30.942994 57.287,32.133 C57.751669,33.3230059 58.4033291,34.3599956 59.242,35.244 C60.0806709,36.1280044 61.0723276,36.8306641 62.217,37.352 C63.3616724,37.8733359 64.6139932,38.134 65.974,38.134 Z M65.906,40.616 C64.0926576,40.616 62.4436741,40.2873366 60.959,39.63 C59.4743259,38.9726634 58.1993387,38.0830056 57.134,36.961 C56.0686613,35.8389944 55.2470029,34.5356741 54.669,33.051 C54.0909971,31.5663259 53.802,30.0080082 53.802,28.376 L53.802,28.308 C53.802,26.6759918 54.0966637,25.1120075 54.686,23.616 C55.2753363,22.1199925 56.1026613,20.8110056 57.168,19.689 C58.2333387,18.5669944 59.5139925,17.67167 61.01,17.003 C62.5060075,16.33433 64.1606576,16 65.974,16 C67.7873424,16 69.4363259,16.3286634 70.921,16.986 C72.4056741,17.6433366 73.6806613,18.5329944 74.746,19.655 C75.8113387,20.7770056 76.6329971,22.0803259 77.211,23.565 C77.7890029,25.0496741 78.078,26.6079918 78.078,28.24 C78.1006668,28.2626668 78.1006668,28.2853332 78.078,28.308 C78.078,29.9400082 77.7833363,31.5039925 77.194,33 C76.6046637,34.4960075 75.7773387,35.8049944 74.712,36.927 C73.6466613,38.0490056 72.3660075,38.94433 70.87,39.613 C69.3739925,40.28167 67.7193424,40.616 65.906,40.616 Z M92.752,28.546 C93.6360044,28.546 94.4519963,28.4326678 95.2,28.206 C95.9480037,27.9793322 96.5939973,27.6563354 97.138,27.237 C97.6820027,26.8176646 98.1069985,26.3076697 98.413,25.707 C98.7190015,25.1063303 98.872,24.4206705 98.872,23.65 L98.872,23.582 C98.872,22.1086593 98.3393387,20.9583375 97.274,20.131 C96.2086613,19.3036625 94.7126763,18.89 92.786,18.89 L85.442,18.89 L85.442,28.546 L92.752,28.546 Z M82.756,16.408 L92.99,16.408 C94.4633407,16.408 95.7723276,16.6176646 96.917,17.037 C98.0616724,17.4563354 99.0079963,18.0399963 99.756,18.788 C100.345336,19.3773363 100.798665,20.0686627 101.116,20.862 C101.433335,21.6553373 101.592,22.5279952 101.592,23.48 L101.592,23.548 C101.592,24.5453383 101.433335,25.4349961 101.116,26.217 C100.798665,26.9990039 100.351003,27.6789971 99.773,28.257 C99.1949971,28.8350029 98.5093373,29.3109981 97.716,29.685 C96.9226627,30.0590019 96.061338,30.3253325 95.132,30.484 L102.442,40.208 L99.144,40.208 L92.242,30.96 L85.442,30.96 L85.442,40.208 L82.756,40.208 L82.756,16.408 Z M106.338,16.408 L123.542,16.408 L123.542,18.856 L109.024,18.856 L109.024,26.982 L122.012,26.982 L122.012,29.43 L109.024,29.43 L109.024,37.76 L123.712,37.76 L123.712,40.208 L106.338,40.208 L106.338,16.408 Z" id="STORE-Copy" fill="#333333" fill-rule="nonzero"></path>
            <rect id="Icon_Area" fill-opacity="0" fill="#FFFFFF" x="0" y="0" width="136" height="56"></rect>
        </g>
    </g>
</svg>