<?xml version="1.0" encoding="UTF-8"?>
<svg width="136px" height="56px" viewBox="0 0 136 56" version="1.1" xmlns="http://www.w3.org/2000/svg" xmlns:xlink="http://www.w3.org/1999/xlink">
    <!-- Generator: Sketch 52.6 (67491) - http://www.bohemiancoding.com/sketch -->
    <title>graphic_home_tab_store_off</title>
    <desc>Created with Sketch.</desc>
    <g id="Icon_Badge_Graphic" stroke="none" stroke-width="1" fill="none" fill-rule="evenodd">
        <g id="##Element/HomeTab/StoreOff">
            <path d="M23.424,40.548 C21.5199905,40.548 19.7803412,40.2363364 18.205,39.613 C16.6296588,38.9896636 15.1280071,38.0320065 13.7,36.74 L15.366,34.768 C16.6126729,35.901339 17.8706603,36.7456639 19.14,37.301 C20.4093397,37.8563361 21.8713251,38.134 23.526,38.134 C25.1353414,38.134 26.4216619,37.7543371 27.385,36.995 C28.3483382,36.2356629 28.83,35.2666726 28.83,34.088 L28.83,34.02 C28.83,33.4759973 28.7393342,32.9830022 28.558,32.541 C28.3766658,32.0989978 28.0593356,31.6966685 27.606,31.334 C27.1526644,30.9713315 26.5236707,30.6426681 25.719,30.348 C24.9143293,30.0533319 23.8886729,29.7700014 22.642,29.498 C21.2819932,29.2033319 20.0976717,28.8633353 19.089,28.478 C18.0803283,28.0926647 17.2473366,27.6280027 16.59,27.084 C15.9326634,26.5399973 15.4453349,25.905337 15.128,25.18 C14.8106651,24.454663 14.652,23.6046715 14.652,22.63 L14.652,22.562 C14.652,21.632662 14.8446647,20.7713373 15.23,19.978 C15.6153353,19.1846627 16.1593298,18.4990029 16.862,17.921 C17.5646702,17.3429971 18.3919952,16.8896683 19.344,16.561 C20.2960048,16.2323317 21.338661,16.068 22.472,16.068 C24.2173421,16.068 25.7416601,16.3116642 27.045,16.799 C28.3483398,17.2863358 29.6119939,18.0173285 30.836,18.992 L29.272,21.066 C28.1613278,20.1593288 27.0450056,19.502002 25.923,19.094 C24.8009944,18.685998 23.6280061,18.482 22.404,18.482 C20.8399922,18.482 19.6046712,18.8503297 18.698,19.587 C17.7913288,20.3236703 17.338,21.2359946 17.338,22.324 L17.338,22.392 C17.338,22.9586695 17.4286658,23.4629978 17.61,23.905 C17.7913342,24.3470022 18.1199976,24.7549981 18.596,25.129 C19.0720024,25.5030019 19.7293291,25.8429985 20.568,26.149 C21.4066709,26.4550015 22.4833268,26.7439986 23.798,27.016 C26.4500133,27.6053363 28.4049937,28.4213281 29.663,29.464 C30.9210063,30.5066719 31.55,31.9346576 31.55,33.748 L31.55,33.816 C31.55,34.8360051 31.346002,35.7596625 30.938,36.587 C30.529998,37.4143375 29.9690036,38.1226637 29.255,38.712 C28.5409964,39.3013363 27.6853383,39.7546651 26.688,40.072 C25.6906617,40.3893349 24.6026726,40.548 23.424,40.548 Z M41.614,18.89 L33.624,18.89 L33.624,16.408 L52.324,16.408 L52.324,18.89 L44.334,18.89 L44.334,40.208 L41.614,40.208 L41.614,18.89 Z M66.474,38.134 C67.8340068,38.134 69.0863276,37.8790025 70.231,37.369 C71.3756724,36.8589975 72.3559959,36.1620044 73.172,35.278 C73.9880041,34.3939956 74.628331,33.3626726 75.093,32.184 C75.557669,31.0053274 75.79,29.7360068 75.79,28.376 L75.79,28.308 C75.79,26.9479932 75.557669,25.673006 75.093,24.483 C74.628331,23.2929941 73.9766709,22.2560044 73.138,21.372 C72.2993291,20.4879956 71.3076724,19.7853359 70.163,19.264 C69.0183276,18.7426641 67.7660068,18.482 66.406,18.482 C65.0459932,18.482 63.7936724,18.7369975 62.649,19.247 C61.5043276,19.7570025 60.5240041,20.4539956 59.708,21.338 C58.8919959,22.2220044 58.251669,23.2533274 57.787,24.432 C57.322331,25.6106726 57.09,26.8799932 57.09,28.24 L57.09,28.308 C57.09,29.6680068 57.322331,30.942994 57.787,32.133 C58.251669,33.3230059 58.9033291,34.3599956 59.742,35.244 C60.5806709,36.1280044 61.5723276,36.8306641 62.717,37.352 C63.8616724,37.8733359 65.1139932,38.134 66.474,38.134 Z M66.406,40.616 C64.5926576,40.616 62.9436741,40.2873366 61.459,39.63 C59.9743259,38.9726634 58.6993387,38.0830056 57.634,36.961 C56.5686613,35.8389944 55.7470029,34.5356741 55.169,33.051 C54.5909971,31.5663259 54.302,30.0080082 54.302,28.376 L54.302,28.308 C54.302,26.6759918 54.5966637,25.1120075 55.186,23.616 C55.7753363,22.1199925 56.6026613,20.8110056 57.668,19.689 C58.7333387,18.5669944 60.0139925,17.67167 61.51,17.003 C63.0060075,16.33433 64.6606576,16 66.474,16 C68.2873424,16 69.9363259,16.3286634 71.421,16.986 C72.9056741,17.6433366 74.1806613,18.5329944 75.246,19.655 C76.3113387,20.7770056 77.1329971,22.0803259 77.711,23.565 C78.2890029,25.0496741 78.578,26.6079918 78.578,28.24 C78.6006668,28.2626668 78.6006668,28.2853332 78.578,28.308 C78.578,29.9400082 78.2833363,31.5039925 77.694,33 C77.1046637,34.4960075 76.2773387,35.8049944 75.212,36.927 C74.1466613,38.0490056 72.8660075,38.94433 71.37,39.613 C69.8739925,40.28167 68.2193424,40.616 66.406,40.616 Z M92.252,28.546 C93.1360044,28.546 93.9519963,28.4326678 94.7,28.206 C95.4480037,27.9793322 96.0939973,27.6563354 96.638,27.237 C97.1820027,26.8176646 97.6069985,26.3076697 97.913,25.707 C98.2190015,25.1063303 98.372,24.4206705 98.372,23.65 L98.372,23.582 C98.372,22.1086593 97.8393387,20.9583375 96.774,20.131 C95.7086613,19.3036625 94.2126763,18.89 92.286,18.89 L84.942,18.89 L84.942,28.546 L92.252,28.546 Z M82.256,16.408 L92.49,16.408 C93.9633407,16.408 95.2723276,16.6176646 96.417,17.037 C97.5616724,17.4563354 98.5079963,18.0399963 99.256,18.788 C99.8453363,19.3773363 100.298665,20.0686627 100.616,20.862 C100.933335,21.6553373 101.092,22.5279952 101.092,23.48 L101.092,23.548 C101.092,24.5453383 100.933335,25.4349961 100.616,26.217 C100.298665,26.9990039 99.8510029,27.6789971 99.273,28.257 C98.6949971,28.8350029 98.0093373,29.3109981 97.216,29.685 C96.4226627,30.0590019 95.561338,30.3253325 94.632,30.484 L101.942,40.208 L98.644,40.208 L91.742,30.96 L84.942,30.96 L84.942,40.208 L82.256,40.208 L82.256,16.408 Z M105,16.408 L122.204,16.408 L122.204,18.856 L107.686,18.856 L107.686,26.982 L120.674,26.982 L120.674,29.43 L107.686,29.43 L107.686,37.76 L122.374,37.76 L122.374,40.208 L105,40.208 L105,16.408 Z" id="STORE-Copy" fill="#959595" fill-rule="nonzero"></path>
            <rect id="Icon_Area" fill-opacity="0" fill="#FFFFFF" x="0" y="0" width="136" height="56"></rect>
        </g>
    </g>
</svg>