<?xml version="1.0" encoding="UTF-8"?>
<svg width="136px" height="56px" viewBox="0 0 136 56" version="1.1" xmlns="http://www.w3.org/2000/svg" xmlns:xlink="http://www.w3.org/1999/xlink">
    <!-- Generator: Sketch 53.2 (72643) - https://sketchapp.com -->
    <title>graphic_home_tab_store_on</title>
    <desc>Created with Sketch.</desc>
    <g id="Icon_Badge_Graphic" stroke="none" stroke-width="1" fill="none" fill-rule="evenodd">
        <g id="##Element/HomeTab/StoreOn">
            <path d="M16.1558011,22.1372928 C16.1558011,22.6245856 16.2370164,23.0422652 16.3994475,23.3903315 C16.5618786,23.7383978 16.857735,24.0632595 17.2870166,24.3649171 C17.7162982,24.6665748 18.3080109,24.9450278 19.0621547,25.2002762 C19.8162985,25.4555247 20.7734808,25.7223757 21.9337017,26.0008287 C23.2099449,26.3256904 24.3411604,26.6853593 25.3273481,27.0798343 C26.3135357,27.4743092 27.1314915,27.9558013 27.7812155,28.5243094 C28.4309394,29.0928175 28.924033,29.7541435 29.2604972,30.5082873 C29.5969615,31.2624311 29.7651934,32.1500002 29.7651934,33.1709945 C29.7651934,34.3312153 29.5505523,35.3638122 29.1212707,36.2687845 C28.6919891,37.1737569 28.0944751,37.9395028 27.3287293,38.5660221 C26.5629834,39.1925414 25.646409,39.6682322 24.5790055,39.9930939 C23.511602,40.3179556 22.3397792,40.4803867 21.0635359,40.4803867 C19.1839779,40.4803867 17.3856352,40.1613258 15.6685083,39.5232044 C13.9513814,38.885083 12.3618785,37.9046961 10.9,36.5820442 L13.4756906,33.5190608 C14.659116,34.5400551 15.8541435,35.3232042 17.0607735,35.8685083 C18.2674035,36.4138123 19.6364641,36.6864641 21.1679558,36.6864641 C22.4906077,36.6864641 23.5406079,36.408011 24.3179558,35.851105 C25.0953037,35.2941989 25.4839779,34.5400551 25.4839779,33.588674 C25.4839779,33.1477899 25.4085634,32.7533149 25.2577348,32.4052486 C25.1069063,32.0571823 24.8284532,31.7381214 24.4223757,31.4480663 C24.0162982,31.1580112 23.4593921,30.8853589 22.7516575,30.6301105 C22.0439228,30.3748621 21.1215471,30.108011 19.9845304,29.829558 C18.685083,29.5279004 17.530663,29.1914366 16.5212707,28.8201657 C15.5118785,28.4488949 14.6649173,27.9848066 13.9803867,27.4279006 C13.2958562,26.8709945 12.7737567,26.1980665 12.4140884,25.409116 C12.0544201,24.6201656 11.8745856,23.6571825 11.8745856,22.5201657 C11.8745856,21.4527623 12.0834254,20.4839779 12.501105,19.6138122 C12.9187845,18.7436464 13.4930939,17.9953039 14.2240331,17.3687845 C14.9549724,16.7422652 15.8309394,16.2607737 16.8519337,15.9243094 C17.872928,15.5878451 18.9867402,15.4196133 20.1933702,15.4196133 C21.9801103,15.4196133 23.5870166,15.680663 25.0140884,16.2027624 C26.4411602,16.7248619 27.7812155,17.4848065 29.0342541,18.4825967 L26.7370166,21.7196133 C25.6232044,20.9074587 24.5209943,20.2867402 23.4303867,19.8574586 C22.3397792,19.428177 21.2375691,19.2135359 20.1237569,19.2135359 C18.8707182,19.2135359 17.8961326,19.4977902 17.2,20.0662983 C16.5038674,20.6348065 16.1558011,21.3251383 16.1558011,22.1372928 Z M44.1854398,19.7356354 L44.1854398,40.1323204 L39.8694177,40.1323204 L39.8694177,19.7356354 L32.1423459,19.7356354 L32.1423459,15.7676796 L51.9125117,15.7676796 L51.9125117,19.7356354 L44.1854398,19.7356354 Z M79.018453,27.9151934 C79.018453,29.6323203 78.7051934,31.2566298 78.078674,32.7881215 C77.4521547,34.3196133 76.5703869,35.6596685 75.4333702,36.8082873 C74.2963534,37.9569061 72.9504974,38.8676797 71.3958011,39.5406077 C69.8411048,40.2135357 68.1239779,40.55 66.2444199,40.55 C64.3648619,40.55 62.647735,40.219337 61.0930387,39.558011 C59.5383424,38.8966851 58.2040884,37.997514 57.0902762,36.8604972 C55.9764641,35.7234805 55.1062983,34.3892265 54.479779,32.8577348 C53.8532597,31.3262431 53.54,29.7019335 53.54,27.9848066 C53.54,26.2676797 53.8532597,24.6433702 54.479779,23.1118785 C55.1062983,21.5803867 55.9880661,20.2403315 57.1250829,19.0917127 C58.2620996,17.9430939 59.6079556,17.0323203 61.1626519,16.3593923 C62.7173482,15.6864643 64.4344751,15.35 66.3140331,15.35 C68.1935912,15.35 69.9107181,15.680663 71.4654144,16.341989 C73.0201107,17.0033149 74.3543646,17.902486 75.4681768,19.0395028 C76.581989,20.1765195 77.4521547,21.5107735 78.078674,23.0422652 C78.7051934,24.5737569 79.018453,26.1980665 79.018453,27.9151934 Z M74.5283978,27.9848066 C74.5283978,26.8013812 74.3253593,25.6817678 73.9192818,24.6259669 C73.5132042,23.5701659 72.9446961,22.6477902 72.2137569,21.8588398 C71.4828177,21.0698893 70.6068507,20.44337 69.5858564,19.9792818 C68.5648621,19.5151935 67.4510499,19.2831492 66.2444199,19.2831492 C65.0377899,19.2831492 63.929779,19.5093923 62.9203867,19.9618785 C61.9109945,20.4143646 61.04663,21.0292819 60.3272928,21.8066298 C59.6079556,22.5839777 59.0452488,23.5005527 58.6391713,24.5563536 C58.2330937,25.6121545 58.0300552,26.731768 58.0300552,27.9151934 C58.0300552,29.0986188 58.2330937,30.2182322 58.6391713,31.2740331 C59.0452488,32.3298341 59.6137569,33.2522098 60.3446961,34.0411602 C61.0756354,34.8301107 61.9516024,35.45663 62.9725967,35.9207182 C63.993591,36.3848065 65.1074031,36.6168508 66.3140331,36.6168508 C67.5206632,36.6168508 68.628674,36.3906077 69.6380663,35.9381215 C70.6474586,35.4856354 71.511823,34.8707181 72.2311602,34.0933702 C72.9504974,33.3160223 73.5132042,32.3994473 73.9192818,31.3436464 C74.3253593,30.2878455 74.5283978,29.168232 74.5283978,27.9848066 Z M102.675138,40.1323204 L97.6281768,40.1323204 L91.6414365,31.6395028 L86.2812155,31.6395028 L86.2812155,40.1323204 L82,40.1323204 L82,15.7676796 L92.8596685,15.7676796 C94.2519337,15.7676796 95.5107737,15.947514 96.6361878,16.3071823 C97.761602,16.6668507 98.7129836,17.1773481 99.4903315,17.838674 C100.267679,18.5 100.865193,19.3121545 101.282873,20.2751381 C101.700552,21.2381217 101.909392,22.311326 101.909392,23.4947514 C101.909392,24.5157457 101.764364,25.4265193 101.474309,26.2270718 C101.184254,27.0276243 100.783978,27.7353589 100.273481,28.3502762 C99.7629832,28.9651935 99.1538672,29.487293 98.4461326,29.9165746 C97.738398,30.3458562 96.9552488,30.6765192 96.0966851,30.9085635 L102.675138,40.1323204 Z M97.5585635,23.7383978 C97.5585635,22.3925413 97.1176794,21.3773482 96.2359116,20.6928177 C95.3541438,20.0082871 94.1127072,19.6660221 92.5116022,19.6660221 L86.2812155,19.6660221 L86.2812155,27.8455801 L92.5464088,27.8455801 C94.0779006,27.8455801 95.2961326,27.4743092 96.201105,26.731768 C97.1060773,25.9892267 97.5585635,24.9914365 97.5585635,23.7383978 Z M124.064641,15.7676796 L124.064641,19.5964088 L110.281215,19.5964088 L110.281215,25.9312155 L122.498343,25.9312155 L122.498343,29.7599448 L110.281215,29.7599448 L110.281215,36.3035912 L124.238674,36.3035912 L124.238674,40.1323204 L106,40.1323204 L106,15.7676796 L124.064641,15.7676796 Z" id="Combined-Shape" fill="#EF4B49" fill-rule="nonzero"></path>
            <rect id="Icon_Area" fill-opacity="0" fill="#FFFFFF" x="0" y="0" width="136" height="56"></rect>
        </g>
    </g>
</svg>