<?xml version="1.0" encoding="utf-8"?>
<!-- Generator: Adobe Illustrator 21.0.1, SVG Export Plug-In . SVG Version: 6.00 Build 0)  -->
<svg version="1.1" id="레이어_1" xmlns="http://www.w3.org/2000/svg" xmlns:xlink="http://www.w3.org/1999/xlink" x="0px"
	 y="0px" viewBox="0 0 88 88" style="enable-background:new 0 0 88 88;" xml:space="preserve">
<style type="text/css">
	.st0{fill:#8D8F99;}
	.st1{enable-background:new    ;}
	.st2{fill:#FFFFFF;}
</style>
<title>graphic_80px_thumb_send</title>
<desc>Created with Sketch.</desc>
<g id="Icon_Badge_Graphic">
	<g id="_x23__x23_Element_x2F_Thumbnail_x2F_보냄">
		<circle id="Oval-3" class="st0" cx="44" cy="44" r="44"/>
		<g class="st1">
			<path class="st2" d="M33.6,45.1v4.8h9.9v2H21.3v-2h9.7v-4.8H24V32.2h2.5v4.5h11.8v-4.5h2.5v12.9H33.6z M38.3,38.7H26.5v4.4h11.8
				V38.7z"/>
		</g>
		<g class="st1">
			<path class="st2" d="M48.5,42.3c-0.9,0-1.9,0.1-2.9,0.1V32.1h2.5v8.2c2.4,0,6.1-0.3,7.8-0.7c0.1,0.7,0.2,1.3,0.4,2
				C54.6,41.9,51.3,42.2,48.5,42.3z M49,54.6v-9.1h16.2v9.1H49z M62.8,47.5H51.5v5.2h11.2V47.5z M62.8,44.2v-5.7h-3V44h-2.4v-13h2.4
				v5.6h3v-6h2.4v13.7H62.8z"/>
		</g>
	</g>
</g>
</svg>
