<?xml version="1.0" encoding="UTF-8"?>
<svg width="48px" height="48px" viewBox="0 0 48 48" version="1.1" xmlns="http://www.w3.org/2000/svg" xmlns:xlink="http://www.w3.org/1999/xlink">
    <!-- Generator: Sketch 52.4 (67378) - http://www.bohemiancoding.com/sketch -->
    <title>mdpi/##Icon/48/Charge</title>
    <desc>Created with Sketch.</desc>
    <g id="##Icon/48/Charge" stroke="none" stroke-width="1" fill="none" fill-rule="evenodd">
        <rect id="Icon_Area" fill-opacity="0" fill="#FFFFFF" x="0" y="0" width="48" height="48"></rect>
        <g id="Group-12" transform="translate(5.000000, 4.000000)" stroke="#333333" stroke-linecap="round" stroke-width="2">
            <polyline id="Stroke-3" stroke-linejoin="round" points="9 12 13 24 17 12 21 24 25 12"></polyline>
            <path d="M8,18 L26,18" id="Stroke-4" stroke-linejoin="round"></path>
            <g id="Group-11">
                <path d="M23.666,38 L19.869,34.465 L16.073,38 L12.278,34.465 L8.481,38 L4.685,34.465 L0,38 L0.003,34.465 L0,33.36 L0,1.768 C0,0.795 0.8,0 1.778,0 L31.222,0 C32.2,0 33,0.795 33,1.768 L33,22.104" id="Stroke-5" stroke-linejoin="round"></path>
                <path d="M33,34 C35.209,34 37,32.209 37,30 C37,27.791 35.209,26 33,26 C30.791,26 29,27.791 29,30 C29,32.209 30.791,34 33,34 Z" id="Stroke-7"></path>
                <path d="M39,40 C39,36.687 36.313,34 33,34 C29.687,34 27,36.687 27,40" id="Stroke-9"></path>
            </g>
        </g>
    </g>
</svg>