<?xml version="1.0" encoding="UTF-8" standalone="no"?>
<svg width="48px" height="48px" viewBox="0 0 48 48" version="1.1" xmlns="http://www.w3.org/2000/svg" xmlns:xlink="http://www.w3.org/1999/xlink">
    <!-- Generator: Sketch 50.2 (55047) - http://www.bohemiancoding.com/sketch -->
    <title>icon_48px_share</title>
    <desc>Created with Sketch.</desc>
    <defs></defs>
    <g id="New-GUI" stroke="none" stroke-width="1" fill="none" fill-rule="evenodd">
        <g id="##Icon/48/Share">
            <rect id="Icon_Area" fill-opacity="0" fill="#FFFFFF" x="0" y="0" width="48" height="48"></rect>
            <path d="M36,32.3685237 L36,41 C36,41.5522847 35.5522847,42 35,42 L7,42 C6.44771525,42 6,41.5522847 6,41 L6,15 C6,14.4477153 6.44771525,14 7,14 L15.7122809,14" id="Rectangle-5" stroke="#333333" stroke-width="2" stroke-linecap="round" stroke-linejoin="round"></path>
            <path d="M33.0008384,14.759548 C33.0008384,12.9160833 33.0008384,10.4870266 33.0008384,7.47237806 L44.0600337,18.0122291 L33.0008384,28.6600102 C33.0008384,25.418348 33.0008384,23.222546 33.0008384,22.0726042 C26.477554,22.0726042 20.6349152,20.8276084 16.0671426,27.4544432 C16.9481185,14.759548 26.828431,14.759548 33.0008384,14.759548 Z" id="Path-3" stroke="#333333" stroke-width="2" stroke-linejoin="round"></path>
        </g>
    </g>
</svg>