<?xml version="1.0" encoding="UTF-8" standalone="no"?>
<svg width="41px" height="41px" viewBox="0 0 41 41" version="1.1" xmlns="http://www.w3.org/2000/svg" xmlns:xlink="http://www.w3.org/1999/xlink">
    <!-- Generator: Sketch 50.2 (55047) - http://www.bohemiancoding.com/sketch -->
    <title>icon_40px_tmembership</title>
    <desc>Created with Sketch.</desc>
    <defs></defs>
    <g id="Icon_Badge_Graphic" stroke="none" stroke-width="1" fill="none" fill-rule="evenodd">
        <g id="##Icon/40/Tmembership">
            <rect id="Icon_Area" fill-opacity="0" fill="#FFFFFF" x="0" y="0" width="40.32" height="40.32"></rect>
            <g id="Group-17" transform="translate(2.520000, 5.544000)">
                <rect id="Rectangle-29" stroke="#666666" stroke-width="2" x="0" y="0.336" width="35.28" height="28.56" rx="2.016"></rect>
                <path d="M18.4473395,17.1610216 C18.4473395,16.1956093 18.7090706,15.355343 19.40702,15.1050509 L22.3558562,14.0323706 C22.4256511,13.8357125 22.565241,13.4602744 22.5477923,12.9418123 C22.5128948,11.1003777 21.5357656,9.75952724 20.1747643,9.3125771 L12.096,6.72026627 L14.2072969,5.95151202 C14.3119893,5.91575601 14.469028,5.88 14.5911691,5.88 C14.730759,5.88 14.8877976,5.91575601 14.99249,5.93363402 L23.2282929,8.57957886 C24.6590892,9.06228502 25.2,10.8322076 25.2,11.7797419 C25.2,12.5484961 24.938269,13.4423964 24.1356272,13.7463225 C23.420229,14.0144926 21.2914834,14.8011248 21.2914834,14.8011248 C21.2216884,14.9977829 21.0820985,15.337465 21.0820985,16.1240973 C21.0820985,16.5710474 21.0820985,18.9667002 21.0820985,19.3957723 C21.0820985,20.4148186 20.593534,21.3623529 19.668751,21.3623529 C19.2674301,21.3444749 18.813763,21.1478169 18.4473395,20.7902568 L18.4473395,17.1610216 Z M16.6277592,14.9079544 L16.6277592,17.9614278 C16.6277592,19.8473966 17.4589515,21.3920949 18.816,21.8411351 L16.7125748,22.6134842 C16.2884971,22.7751387 15.8813825,22.6134842 15.6269359,22.4338682 C14.6091495,21.7333654 14.0663301,20.6736306 14.0663301,19.0211626 C14.0663301,18.2488135 14.0663301,17.1890786 14.0663301,15.8060348 C14.0663301,15.0157241 13.7609942,14.1176437 13.2690641,13.4351026 C12.9128388,12.9321775 12.4887612,12.6088686 11.9459417,12.4112909 C10.9111922,12.0161355 10.08,10.5971685 10.08,9.21412469 C10.08,8.01069696 10.6567456,7.25630942 11.4200854,7.2024246 C11.5897165,7.18446299 11.7254214,7.22038621 11.8611262,7.25630942 C12.3191301,7.40000229 12.6753553,7.54369515 12.6753553,7.54369515 C12.4209087,8.92673897 13.1842485,11.0641703 14.7278913,11.6389418 C15.3385631,11.8544811 15.6947883,12.1957516 16.0001243,12.6986766 C16.4072388,13.3632561 16.6277592,14.1894901 16.6277592,14.9079544 Z" id="Combined-Shape" fill="#666666" fill-rule="nonzero"></path>
            </g>
        </g>
    </g>
</svg>