<?xml version="1.0" encoding="UTF-8"?>
<svg width="80px" height="80px" viewBox="0 0 80 80" version="1.1" xmlns="http://www.w3.org/2000/svg" xmlns:xlink="http://www.w3.org/1999/xlink">
    <!-- Generator: Sketch 53 (72520) - https://sketchapp.com -->
    <title>icon_80px_tablet1</title>
    <desc>Created with Sketch.</desc>
    <defs>
        <path d="M41.356255,56.9734 L34.408905,56.9734 C33.621355,56.9734 32.983905,57.61085 32.983905,58.3984 C32.983905,59.185 33.621355,59.8234 34.408905,59.8234 L41.356255,59.8234 C42.142855,59.8234 42.781255,59.185 42.781255,58.3984 C42.781255,57.61085 42.142855,56.9734 41.356255,56.9734 M58.8886,63.92075 L16.8758,63.92075 C16.4749,63.92075 16.15,63.5949 16.15,63.194 L16.15,53.43465 C16.2165,53.44415 16.283,53.4546 16.3533,53.4546 L59.61535,53.4546 L59.61535,63.194 C59.61535,63.5949 59.2895,63.92075 58.8886,63.92075 M16.8758,12.35 L58.8886,12.35 C59.2895,12.35 59.61535,12.67585 59.61535,13.07675 L59.61535,50.6046 L16.3533,50.6046 C16.283,50.6046 16.2165,50.616 16.15,50.6255 L16.15,13.07675 C16.15,12.67585 16.4749,12.35 16.8758,12.35 M62.56605,52.0296 C62.56605,51.84625 62.529,51.67145 62.46535,51.5109 L62.46535,13.07675 C62.46535,11.10455 60.8608,9.5 58.8886,9.5 L16.8758,9.5 C14.90455,9.5 13.3,11.10455 13.3,13.07675 L13.3,63.194 C13.3,65.1662 14.90455,66.77075 16.8758,66.77075 L58.8886,66.77075 C60.8608,66.77075 62.46535,65.1662 62.46535,63.194 L62.46535,52.54925 C62.529,52.38775 62.56605,52.2139 62.56605,52.0296" id="path-1"></path>
    </defs>
    <g id="Icon_Badge_Graphic" stroke="none" stroke-width="1" fill="none" fill-rule="evenodd">
        <g id="##Icon/80/Tablet1">
            <g id="📌IMG-/-Device_Tablet" transform="translate(2.000000, 2.000000)">
                <mask id="mask-2" fill="white">
                    <use xlink:href="#path-1"></use>
                </mask>
                <g id="Mask"></g>
                <g id="🎨Color-/-#333333" mask="url(#mask-2)" fill="#333333" fill-rule="evenodd">
                    <rect id="Rectangle-2" x="0" y="0" width="76" height="76"></rect>
                </g>
            </g>
            <rect id="Icon_Area" fill-opacity="0" fill="#FFFFFF" x="0" y="0" width="80" height="80"></rect>
        </g>
        <rect id="Rectangle-Copy" stroke="#50E3C2" stroke-width="5" fill-rule="nonzero" x="-112.5" y="-274.5" width="812" height="394"></rect>
    </g>
</svg>