<?xml version="1.0" encoding="UTF-8" standalone="no"?>
<svg width="56px" height="56px" viewBox="0 0 56 56" version="1.1" xmlns="http://www.w3.org/2000/svg" xmlns:xlink="http://www.w3.org/1999/xlink">
    <!-- Generator: Sketch 50.2 (55047) - http://www.bohemiancoding.com/sketch -->
    <title>icon_56px_dialog_emoji</title>
    <desc>Created with Sketch.</desc>
    <defs></defs>
    <g id="New-GUI" stroke="none" stroke-width="1" fill="none" fill-rule="evenodd">
        <g id="##Icon/56/Dialog">
            <g id="Group-10" transform="translate(6.000000, 4.000000)" stroke="#000000" stroke-width="2.5">
                <path d="M22.5,45 C34.9264069,45 45,34.9264069 45,22.5 C45,10.0735931 34.9264069,0 22.5,0 C10.0735931,0 0,10.0735931 0,22.5 C0,28.8848678 2.65948216,34.6485802 6.93112464,38.7438154 C6.93112464,39.6539058 6.93112464,42.7770522 6.93112464,48.1132546 C9.20203093,46.3953954 11.4674366,44.7661902 13.7273418,43.2256389 C16.4231133,44.3681147 19.3877643,45 22.5,45 Z" id="Oval-11" stroke-linejoin="round"></path>
                <path d="M32,16 L32,19" id="Line-8" stroke-linecap="round"></path>
                <path d="M13,16 L13,19" id="Line-8-Copy" stroke-linecap="round"></path>
                <path d="M13,27.6051476 C14.1190792,31.6358085 17.9492481,34.6051476 22.5021464,34.6051476 C27.0492409,34.6051476 30.8754475,31.643374 32,27.6205566" id="Oval-12" stroke-linecap="round"></path>
                <polyline id="Path-7" stroke-linecap="round" stroke-linejoin="round" points="23.7238776 18.6697678 20.4800389 22.0040206 23.3368517 25.6475702"></polyline>
            </g>
            <rect id="Icon_Area" fill-opacity="0" fill="#FFFFFF" x="0" y="0" width="56" height="56"></rect>
        </g>
    </g>
</svg>