<?xml version="1.0" encoding="UTF-8" standalone="no"?>
<svg width="41px" height="41px" viewBox="0 0 41 41" version="1.1" xmlns="http://www.w3.org/2000/svg" xmlns:xlink="http://www.w3.org/1999/xlink">
    <!-- Generator: Sketch 50.2 (55047) - http://www.bohemiancoding.com/sketch -->
    <title>icon_40px_dcoupon</title>
    <desc>Created with Sketch.</desc>
    <defs></defs>
    <g id="Icon_Badge_Graphic" stroke="none" stroke-width="1" fill="none" fill-rule="evenodd">
        <g id="##Icon/40/Dcoupon">
            <rect id="Icon_Area" fill-opacity="0" fill="#FFFFFF" x="0" y="0" width="40.32" height="40.32"></rect>
            <g id="Group-15" transform="translate(1.008000, 5.376000)" stroke="#666666" stroke-width="2">
                <path d="M36.632,23.7206294 L36.632,5.29803142 C34.570015,5.00758328 32.8907621,3.49496683 32.3793206,1.504 L5.92467944,1.504 C5.41323794,3.49496683 3.73398504,5.00758328 1.672,5.29803142 L1.672,23.7206294 C3.92792183,24.0378403 5.71394369,25.8153902 6.03396724,28.064 L32.2700328,28.064 C32.5900563,25.8153902 34.3760782,24.0378403 36.632,23.7206294 Z" id="Combined-Shape"></path>
            </g>
            <path d="M20.16504,23.80728 C20.7440829,23.80728 21.2738376,23.7148809 21.75432,23.53008 C22.2348024,23.3452791 22.6444383,23.0804017 22.98324,22.73544 C23.3220417,22.3904783 23.586919,21.9839223 23.77788,21.51576 C23.968841,21.0475977 24.06432,20.5240029 24.06432,19.94496 L24.06432,19.908 C24.06432,19.3412772 23.968841,18.8176824 23.77788,18.3372 C23.586919,17.8567176 23.3220417,17.4440017 22.98324,17.09904 C22.6444383,16.7540783 22.2348024,16.486121 21.75432,16.29516 C21.2738376,16.104199 20.7440829,16.00872 20.16504,16.00872 L17.96592,16.00872 L17.96592,23.80728 L20.16504,23.80728 Z M15.12,13.44 L20.16504,13.44 C21.1752851,13.44 22.1023558,13.6032384 22.94628,13.92972 C23.7902042,14.2562016 24.517077,14.7089571 25.12692,15.288 C25.736763,15.8670429 26.2079983,16.5477161 26.54064,17.33004 C26.8732817,18.1123639 27.0396,18.9593554 27.0396,19.87104 L27.0396,19.908 C27.0396,20.8196846 26.8732817,21.6697561 26.54064,22.45824 C26.2079983,23.2467239 25.736763,23.9304771 25.12692,24.50952 C24.517077,25.0885629 23.7902042,25.5443983 22.94628,25.87704 C22.1023558,26.2096817 21.1752851,26.376 20.16504,26.376 L15.12,26.376 L15.12,13.44 Z" id="D" fill="#666666"></path>
        </g>
    </g>
</svg>