<?xml version="1.0" encoding="UTF-8" standalone="no"?>
<svg width="32px" height="32px" viewBox="0 0 32 32" version="1.1" xmlns="http://www.w3.org/2000/svg" xmlns:xlink="http://www.w3.org/1999/xlink">
    <!-- Generator: Sketch 50.2 (55047) - http://www.bohemiancoding.com/sketch -->
    <title>icon_32px_setting</title>
    <desc>Created with Sketch.</desc>
    <defs></defs>
    <g id="New-GUI" stroke="none" stroke-width="1" fill="none" fill-rule="evenodd">
        <g id="##Icon/32/SettingSmall">
            <rect id="Icon_Area" fill-opacity="0" fill="#FFFFFF" x="0" y="0" width="32" height="32"></rect>
            <path d="M16,21 C13.2390269,21 11,18.7614726 11,15.9996782 C11,13.2385274 13.2390269,11 16,11 C18.7609731,11 21,13.2385274 21,15.9996782 C21,18.7614726 18.7609731,21 16,21 Z M26.0452591,15.2065227 C25.9619152,14.304532 25.7661231,13.4371029 25.4704506,12.6177891 L27.3642099,9.67259636 C26.6690157,8.40465904 25.7793523,7.26277001 24.7335843,6.29436679 L21.506322,7.53316391 C20.7879767,7.05268954 20.0081156,6.6643795 19.178645,6.38246506 L18.0740072,3.01982211 C17.9179027,2.99339263 14.0820973,2.99339263 13.9259928,3.01982211 L12.8206935,6.38246506 C11.9912229,6.6643795 11.2100389,7.05336722 10.4916936,7.53384159 L7.26443127,6.29639983 C6.21866334,7.26480305 5.32966138,8.40669208 4.63380568,9.67462939 L6.52888798,12.6191444 C6.23321546,13.4377806 6.03742336,14.3072427 5.95407943,15.207878 L3,17.0199915 C3.08797415,18.5034307 3.41275091,19.9204574 3.9359656,21.2351546 L7.36563462,21.552986 C7.8167502,22.3140195 8.36179306,23.0086404 8.98290381,23.6246506 L8.52318925,27.1228293 C9.66817615,27.9475646 10.9481008,28.5866158 12.3232758,29 L14.7071768,26.4485388 C15.1311726,26.5047861 16.8694889,26.5047861 17.2941461,26.4485388 L19.6787086,29 C21.0538835,28.5852605 22.3331468,27.9462092 23.4787951,27.121474 L23.0177577,23.6232952 C23.6388684,23.0079627 24.1839113,22.3119864 24.6350268,21.550953 L28.0646959,21.2317662 C28.5872491,19.9191021 28.9120258,18.50072 29,17.0166031 L26.0452591,15.2065227 Z" id="Fill-1" fill="#959595"></path>
        </g>
    </g>
</svg>