<?xml version="1.0" encoding="UTF-8"?>
<svg width="80px" height="80px" viewBox="0 0 80 80" version="1.1" xmlns="http://www.w3.org/2000/svg" xmlns:xlink="http://www.w3.org/1999/xlink">
    <!-- Generator: Sketch 52.4 (67378) - http://www.bohemiancoding.com/sketch -->
    <title>mdpi/Artboard Copy 6</title>
    <desc>Created with Sketch.</desc>
    <g id="Artboard-Copy-6" stroke="none" stroke-width="1" fill="none" fill-rule="evenodd">
        <g id="Group-11" transform="translate(9.000000, 7.000000)" stroke="#333333" stroke-width="3">
            <path d="M6.4199,48.3259 C4.6899,45.9489 8.0649,40.8739 7.1379,38.0179 C6.2429,35.2629 0.4999,33.1549 0.4999,30.1019 C0.4999,27.0479 6.2429,24.9399 7.1379,22.1849 C8.0649,19.3289 4.6909,14.2539 6.4199,11.8779 C8.1669,9.4769 14.0479,11.1279 16.4489,9.3809 C18.8249,7.6509 19.0629,1.5389 21.9189,0.6119 C24.6729,-0.2831 28.4469,4.4929 31.4999,4.4929 C34.5539,4.4929 38.3269,-0.2831 41.0819,0.6119 C43.9379,1.5389 44.1749,7.6509 46.5519,9.3809 C48.9519,11.1279 54.8329,9.4769 56.5799,11.8779 C58.3099,14.2549 54.9349,19.3299 55.8619,22.1849 C56.7569,24.9399 62.4999,27.0489 62.4999,30.1019 C62.4999,33.1559 56.7569,35.2629 55.8619,38.0179 C55.7519,38.3599 55.7019,38.7339 55.6979,39.1309" id="Stroke-1" stroke-linecap="round" stroke-linejoin="round"></path>
            <path d="M21.4238,53.8484 L39.0498,53.8484 L53.5788,41.0464 C55.4868,39.3554 58.3878,39.4654 60.1608,41.2984 C61.9898,43.1894 61.9388,46.2054 60.0468,48.0344 L44.2338,63.3064 C42.2458,65.2264 39.5898,64.9664 36.8248,64.9664 L10.7358,64.9664 C7.8438,64.9664 5.4998,62.6214 5.4998,59.7304 L5.4998,52.0184 C5.4998,50.2244 6.4198,48.5554 7.9358,47.5974 L12.7468,44.5594 C14.5448,43.8204 16.8008,43.8534 18.7918,43.9104 L34.6858,44.3554 C37.2698,44.4234 39.3238,46.5454 39.3088,49.1294 C39.2938,51.6944 37.2458,53.7824 34.6828,53.8484" id="Stroke-3" stroke-linecap="round" stroke-linejoin="round"></path>
            <path d="M23.5,27.3327 C25.433,27.3327 27,25.7657 27,23.8327 C27,21.8997 25.433,20.3327 23.5,20.3327 C21.567,20.3327 20,21.8997 20,23.8327 C20,25.7657 21.567,27.3327 23.5,27.3327 Z" id="Stroke-5"></path>
            <path d="M39.5,35.3327 C41.433,35.3327 43,33.7657 43,31.8327 C43,29.8997 41.433,28.3327 39.5,28.3327 C37.567,28.3327 36,29.8997 36,31.8327 C36,33.7657 37.567,35.3327 39.5,35.3327 Z" id="Stroke-7"></path>
            <path d="M23.877,34.8327 L40.217,19.4927" id="Stroke-9"></path>
        </g>
    </g>
</svg>