<?xml version="1.0" encoding="utf-8"?>
<!-- Generator: Adobe Illustrator 22.1.0, SVG Export Plug-In . SVG Version: 6.00 Build 0)  -->
<svg version="1.1" id="Layer_1" xmlns="http://www.w3.org/2000/svg" xmlns:xlink="http://www.w3.org/1999/xlink" x="0px" y="0px"
	 viewBox="0 0 80 80" style="enable-background:new 0 0 80 80;" xml:space="preserve">
<style type="text/css">
	.st0{fill:#FFFFFF;fill-opacity:0;}
	.st1{fill:#333333;}
	.st2{fill:none;stroke:#333333;stroke-width:3;stroke-linecap:round;stroke-linejoin:round;}
</style>
<title>icon_80px_pc</title>
<desc>Created with Sketch.</desc>
<rect id="Icon_Area" class="st0" width="80" height="80"/>
<g>
	<g>
		<path class="st1" d="M66.5,27c3,0,5.5,2.7,5.5,6v25.6c0,3.3-2.3,6.2-5.2,6.4l-0.1,0c-1.8,0-7-2.6-14.2-8.3c-0.3-0.2-1-0.7-2-0.7
			H29.4c-1,0-1.7,0.5-2,0.7C20.2,62.4,15,65,13.2,65l-0.1,0C10.3,64.8,8,62,8,58.6V33c0-3.3,2.5-6,5.5-6H66.5 M66.5,24h-53
			C8.8,24,5,28,5,33v25.6c0,4.8,3.4,9.1,8,9.4c0.1,0,0.2,0,0.2,0c5,0,16.2-9,16.2-9c1.1,0,20,0,21.1,0c0,0,11.2,9,16.2,9
			c0.1,0,0.2,0,0.2,0c4.5-0.3,8-4.5,8-9.4c0-4.4,0-20.2,0-25.6C75,28,71.2,24,66.5,24L66.5,24z"/>
	</g>
	<line class="st2" x1="40" y1="25" x2="40" y2="13"/>
	<g>
		<line class="st2" x1="17.5" y1="42" x2="30.5" y2="42"/>
		<line class="st2" x1="24" y1="35.5" x2="24" y2="48.5"/>
	</g>
	<g>
		<path class="st1" d="M56,37.5c2.5,0,4.5,2,4.5,4.5s-2,4.5-4.5,4.5s-4.5-2-4.5-4.5S53.5,37.5,56,37.5 M56,34.5
			c-4.1,0-7.5,3.4-7.5,7.5s3.4,7.5,7.5,7.5s7.5-3.4,7.5-7.5S60.1,34.5,56,34.5L56,34.5z"/>
	</g>
</g>
</svg>
