<?xml version="1.0" encoding="UTF-8" standalone="no"?>
<svg width="80px" height="80px" viewBox="0 0 80 80" version="1.1" xmlns="http://www.w3.org/2000/svg" xmlns:xlink="http://www.w3.org/1999/xlink">
    <!-- Generator: Sketch 50.2 (55047) - http://www.bohemiancoding.com/sketch -->
    <title>icon_80px_roaming</title>
    <desc>Created with Sketch.</desc>
    <defs></defs>
    <g id="Icon_Badge_Graphic" stroke="none" stroke-width="1" fill="none" fill-rule="evenodd">
        <g id="##Icon/80/Roaming">
            <rect id="Icon_Area" fill-opacity="0" fill="#FFFFFF" x="0" y="0" width="80" height="80"></rect>
            <g id="Group" transform="translate(8.000000, 7.000000)" stroke="#333333" stroke-linejoin="round" stroke-width="3">
                <path d="M32,0.44 C36.29,0.44 39.59,6.27 39.26,9.46 L37.61,56.43 C37.5,59.62 34.97,62.26 31.89,62.26 C28.81,62.26 26.28,59.73 26.17,56.43 L24.52,9.46 C24.41,6.27 27.71,0.44 32,0.44 Z" id="Rectangle-9" stroke-linecap="round"></path>
                <polyline id="Rectangle-3" points="25.62 36.74 0.1 44.44 0.1 38.94 24.74 20.13"></polyline>
                <polyline id="Rectangle-3-Copy" points="38.38 36.74 63.9 44.44 63.9 38.94 39.26 20.13"></polyline>
                <polyline id="Rectangle-3-Copy-2" points="30.13 61.82 16.49 65.45 16.49 61.16 26.17 52.36"></polyline>
                <polyline id="Rectangle-3-Copy-3" points="34.42 61.93 47.51 65.56 47.51 61.27 37.83 52.36"></polyline>
            </g>
        </g>
    </g>
</svg>