<?xml version="1.0" encoding="UTF-8"?>
<svg width="40px" height="40px" viewBox="0 0 40 40" version="1.1" xmlns="http://www.w3.org/2000/svg" xmlns:xlink="http://www.w3.org/1999/xlink">
    <!-- Generator: Sketch 52.5 (67469) - http://www.bohemiancoding.com/sketch -->
    <title>icon_40px_discount</title>
    <desc>Created with Sketch.</desc>
    <g id="Icon_Badge_Graphic" stroke="none" stroke-width="1" fill="none" fill-rule="evenodd">
        <g id="##Icon/40/Discount">
            <g id="Group-19" transform="translate(4.000000, 5.000000)" stroke="#666666">
                <path d="M3,13 L3,29.941 C3,30.526 3.447,31 4,31 L28,31 C28.553,31 29,30.526 29,29.941 L29,13" id="Stroke-3" stroke-width="2" stroke-linecap="round" stroke-linejoin="round"></path>
                <path d="M30,12 L2,12 C0.896,12 0,11.104 0,10 L0,6 C0,4.896 0.896,4 2,4 L30,4 C31.104,4 32,4.896 32,6 L32,10 C32,11.104 31.104,12 30,12 Z" id="Stroke-5" stroke-width="2" stroke-linecap="round" stroke-linejoin="round"></path>
                <polyline id="Stroke-7" stroke-width="3" stroke-linecap="round" stroke-linejoin="round" points="19.5 0.5 16 3.5 12.5 0.5"></polyline>
                <path d="M10,4.5 L10,11.5" id="Stroke-9" stroke-width="2" stroke-linecap="round" stroke-linejoin="round"></path>
                <path d="M21,4.5 L21,11.5" id="Stroke-11" stroke-width="2" stroke-linecap="round" stroke-linejoin="round"></path>
                <path d="M12,20 C13.104,20 14,19.104 14,18 C14,16.896 13.104,16 12,16 C10.896,16 10,16.896 10,18 C10,19.104 10.896,20 12,20 Z" id="Stroke-13" stroke-width="2"></path>
                <path d="M20,26 C21.104,26 22,25.104 22,24 C22,22.896 21.104,22 20,22 C18.896,22 18,22.896 18,24 C18,25.104 18.896,26 20,26 Z" id="Stroke-15" stroke-width="2"></path>
                <path d="M11,25 L21,17" id="Stroke-17" stroke-width="2"></path>
            </g>
            <rect id="Icon_Area" fill-opacity="0" fill="#FFFFFF" x="0" y="0" width="40.32" height="40.32"></rect>
        </g>
        <rect id="Rectangle" stroke="#50E3C2" stroke-width="5" fill-rule="nonzero" x="-11.5" y="-10.5" width="67" height="64"></rect>
    </g>
</svg>