<?xml version="1.0" encoding="UTF-8"?>
<svg width="48px" height="48px" viewBox="0 0 48 48" version="1.1" xmlns="http://www.w3.org/2000/svg" xmlns:xlink="http://www.w3.org/1999/xlink">
    <!-- Generator: Sketch 53.2 (72643) - https://sketchapp.com -->
    <title>icon_48px_directshop</title>
    <desc>Created with Sketch.</desc>
    <defs>
        <path d="M42,41.1 C42,41.2692 41.8902,41.4 41.796,41.4 L25.2,41.4 L25.2,20.7 C25.2,19.542 24.258,18.6 23.1,18.6 L16.2,18.6 L16.2,11.1 C16.2,10.9284 16.308,10.8 16.404,10.8 L21,10.8 L21,15 L20.1,15 C19.6032,15 19.2,15.4026 19.2,15.9 C19.2,16.3974 19.6032,16.8 20.1,16.8 L23.7,16.8 C24.1968,16.8 24.6,16.3974 24.6,15.9 C24.6,15.4026 24.1968,15 23.7,15 L22.8,15 L22.8,10.8 L35.4,10.8 L35.4,15 L34.5,15 C34.0032,15 33.6,15.4026 33.6,15.9 C33.6,16.3974 34.0032,16.8 34.5,16.8 L38.1,16.8 C38.5968,16.8 39,16.3974 39,15.9 C39,15.4026 38.5968,15 38.1,15 L37.2,15 L37.2,10.8 L41.796,10.8 C41.892,10.8 42,10.9284 42,11.1 L42,41.1 Z M23.4,43.5 C23.4,43.6626 23.2626,43.8 23.1,43.8 L6.3,43.8 C6.1374,43.8 6,43.6626 6,43.5 L6,20.7 C6,20.5344 6.1344,20.4 6.3,20.4 L23.1,20.4 C23.2656,20.4 23.4,20.5344 23.4,20.7 L23.4,43.5 Z M29.1,4.2 C32.0562,4.2 34.5366,6.2496 35.2122,9 L22.9878,9 C23.6634,6.2496 26.1438,4.2 29.1,4.2 L29.1,4.2 Z M41.796,9 L37.0548,9 C36.3492,5.2488 33.0534,2.4 29.1,2.4 C25.1466,2.4 21.8508,5.2488 21.1452,9 L16.404,9 C15.2988,9 14.4,9.942 14.4,11.1 L14.4,18.6 L6.3,18.6 C5.142,18.6 4.2,19.542 4.2,20.7 L4.2,43.5 C4.2,44.658 5.142,45.6 6.3,45.6 L23.1,45.6 C24.258,45.6 25.2,44.658 25.2,43.5 L25.2,43.2 L41.796,43.2 C42.9012,43.2 43.8,42.258 43.8,41.1 L43.8,11.1 C43.8,9.942 42.9012,9 41.796,9 L41.796,9 Z M19.5,23.4 L17.1,23.4 C16.6032,23.4 16.2,23.8026 16.2,24.3 C16.2,24.7974 16.6032,25.2 17.1,25.2 L17.4,25.2 L17.4,26.6052 C17.4,28.146 16.0542,29.4 14.4,29.4 C12.7458,29.4 11.4,28.146 11.4,26.6052 L11.4,25.2 L11.7,25.2 C12.1968,25.2 12.6,24.7974 12.6,24.3 C12.6,23.8026 12.1968,23.4 11.7,23.4 L9.3,23.4 C8.8032,23.4 8.4,23.8026 8.4,24.3 C8.4,24.7974 8.8032,25.2 9.3,25.2 L9.6,25.2 L9.6,26.6052 C9.6,29.1384 11.7534,31.2 14.4,31.2 C17.0466,31.2 19.2,29.1384 19.2,26.6052 L19.2,25.2 L19.5,25.2 C19.9968,25.2 20.4,24.7974 20.4,24.3 C20.4,23.8026 19.9968,23.4 19.5,23.4" id="path-1"></path>
    </defs>
    <g id="Icon_Badge_Graphic" stroke="none" stroke-width="1" fill="none" fill-rule="evenodd">
        <g id="##Icon/48/DirectShop">
            <g id="📌IMG-/-DirectShop">
                <mask id="mask-2" fill="white">
                    <use xlink:href="#path-1"></use>
                </mask>
                <use id="Mask" fill="#333333" fill-rule="evenodd" xlink:href="#path-1"></use>
            </g>
            <rect id="Icon_Area" fill-opacity="0" fill="#FFFFFF" x="0" y="0" width="48" height="48"></rect>
        </g>
    </g>
</svg>