<?xml version="1.0" encoding="UTF-8" standalone="no"?>
<svg width="48px" height="48px" viewBox="0 0 48 48" version="1.1" xmlns="http://www.w3.org/2000/svg" xmlns:xlink="http://www.w3.org/1999/xlink">
    <!-- Generator: Sketch 50.2 (55047) - http://www.bohemiancoding.com/sketch -->
    <title>icon_48px_setting</title>
    <desc>Created with Sketch.</desc>
    <defs></defs>
    <g id="New-GUI" stroke="none" stroke-width="1" fill="none" fill-rule="evenodd">
        <g id="##Icon/48/Setting">
            <rect id="Icon_Area" fill-opacity="0" fill="#FFFFFF" x="0" y="0" width="48" height="48"></rect>
            <path d="M24,31.826087 C19.6784769,31.826087 16.173913,28.322305 16.173913,23.9994963 C16.173913,19.677695 19.6784769,16.173913 24,16.173913 C28.3215231,16.173913 31.826087,19.677695 31.826087,23.9994963 C31.826087,28.322305 28.3215231,31.826087 24,31.826087 Z M39.4542448,22.7792656 C39.3260234,21.3915877 39.0248047,20.0570814 38.5699239,18.7965986 L41.4833999,14.2655329 C40.4138703,12.3148601 39.0451574,10.5581077 37.4362836,9.06825661 L32.4712647,10.9740983 C31.366118,10.234907 30.1663317,9.63750692 28.8902231,9.2037924 L27.1907803,4.03049555 C26.9506195,3.98983482 21.0493805,3.98983482 20.8092197,4.03049555 L19.1087593,9.2037924 C17.8326507,9.63750692 16.6308291,10.2359496 15.5256824,10.9751409 L10.5606635,9.07138435 C8.95178976,10.5612355 7.58409444,12.3179878 6.51354721,14.2686606 L9.42905844,18.7986837 C8.97417763,20.058124 8.67295901,21.395758 8.54473758,22.7813508 L4,25.5692177 C4.13534485,27.8514319 4.6350014,30.031473 5.43994708,32.054084 L10.716361,32.5430554 C11.4103849,33.7138761 12.2489124,34.7825237 13.2044674,35.7302316 L12.4972142,41.1120451 C14.2587325,42.3808686 16.2278475,43.3640244 18.3435012,44 L22.0110413,40.074675 C22.6633424,40.1612094 25.3376752,40.1612094 25.990994,40.074675 L29.6595517,44 C31.7752054,43.3619392 33.7433027,42.3787834 35.5058387,41.1099599 L34.7965502,35.7281465 C35.7521052,34.7814811 36.5906327,33.7107484 37.2846567,32.5399277 L42.5610705,32.0488711 C43.3649986,30.0293878 43.8646552,27.8472616 44,25.5640048 L39.4542448,22.7792656 Z" id="Fill-1-Copy" stroke="#333333" stroke-width="2"></path>
        </g>
    </g>
</svg>