<?xml version="1.0" encoding="UTF-8"?>
<svg width="80px" height="80px" viewBox="0 0 80 80" version="1.1" xmlns="http://www.w3.org/2000/svg" xmlns:xlink="http://www.w3.org/1999/xlink">
    <!-- Generator: Sketch 53 (72520) - https://sketchapp.com -->
    <title>icon_80px_price_plan</title>
    <desc>Created with Sketch.</desc>
    <defs>
        <path d="M38.7641929,61.5567714 L4.59276429,61.5567714 C4.03933571,61.5567714 3.57133571,61.1314857 3.57133571,60.6282 L3.57133571,52.7353429 L39.7856214,52.7353429 L39.7856214,60.6282 C39.7856214,61.0460571 39.3139071,61.5567714 38.7641929,61.5567714 M4.59276429,3.4282 L38.7641929,3.4282 C39.3176214,3.4282 39.7856214,3.85348571 39.7856214,4.35677143 L39.7856214,49.9496286 L3.57133571,49.9496286 L3.57133571,4.35677143 C3.57133571,3.71884286 4.10062143,3.4282 4.59276429,3.4282 M38.7641929,0.642485714 L4.59276429,0.642485714 C2.45797857,0.642485714 0.785621429,2.27398571 0.785621429,4.35677143 L0.785621429,60.6282 C0.785621429,62.6766286 2.49326429,64.3424857 4.59276429,64.3424857 L38.7641929,64.3424857 C40.8284071,64.3424857 42.5713357,62.6413429 42.5713357,60.6282 L42.5713357,4.35677143 C42.5713357,2.30834286 40.8636929,0.642485714 38.7641929,0.642485714 M18.0572357,11.97115 L25.39295,11.97115 C26.1618071,11.97115 26.7858071,11.3480786 26.7858071,10.5782929 C26.7858071,9.80943571 26.1618071,9.18543571 25.39295,9.18543571 L18.0572357,9.18543571 C17.28745,9.18543571 16.6643786,9.80943571 16.6643786,10.5782929 C16.6643786,11.3480786 17.28745,11.97115 18.0572357,11.97115 M16.8407143,32.3067714 L16.2,34.0116286 L15.5592857,32.3067714 L16.8407143,32.3067714 Z M21.6785714,27.3519143 L22.4938571,29.5210571 L20.8632857,29.5210571 L21.6785714,27.3519143 Z M27.7978571,32.3067714 L27.1571429,34.0116286 L26.5164286,32.3067714 L27.7978571,32.3067714 Z M9.32857143,30.9139143 C9.32857143,31.6837 9.95257143,32.3067714 10.7214286,32.3067714 L12.5832143,32.3067714 L14.8962857,38.4613429 C15.0996429,39.0045571 15.6196429,39.3639143 16.2,39.3639143 C16.7803571,39.3639143 17.2994286,39.0045571 17.5037143,38.4613429 L19.8167857,32.3067714 L23.5403571,32.3067714 L25.8534286,38.4613429 C26.0577143,39.0045571 26.5767857,39.3639143 27.1571429,39.3639143 C27.7375,39.3639143 28.2565714,39.0045571 28.4608571,38.4613429 L30.7739286,32.3067714 L32.6357143,32.3067714 C33.4045714,32.3067714 34.0285714,31.6837 34.0285714,30.9139143 C34.0285714,30.1450571 33.4045714,29.5210571 32.6357143,29.5210571 L31.8204286,29.5210571 L33.9394286,23.8827714 C34.2105714,23.1622 33.8456429,22.3599143 33.126,22.0887714 C32.4054286,21.8185571 31.6022143,22.1825571 31.332,22.9031286 L28.8443571,29.5210571 L25.469,29.5210571 L22.9822857,22.9031286 C22.7789286,22.3599143 22.2589286,21.9996286 21.6785714,21.9996286 C21.0982143,21.9996286 20.5782143,22.3599143 20.3748571,22.9031286 L17.8872143,29.5210571 L14.5127857,29.5210571 L12.0251429,22.9031286 C11.754,22.1825571 10.9517143,21.8185571 10.2311429,22.0887714 C9.5115,22.3599143 9.14657143,23.1622 9.41771429,23.8827714 L11.5367143,29.5210571 L10.7214286,29.5210571 C9.95257143,29.5210571 9.32857143,30.1450571 9.32857143,30.9139143 L9.32857143,30.9139143 Z" id="path-1"></path>
    </defs>
    <g id="Icon_Badge_Graphic" stroke="none" stroke-width="1" fill="none" fill-rule="evenodd">
        <g id="##Icon/80/PricePlan-(요금제)">
            <g id="📌IMG-/-MyAccount" transform="translate(18.000000, 7.000000)">
                <mask id="mask-2" fill="white">
                    <use xlink:href="#path-1"></use>
                </mask>
                <use id="Mask" fill="#333333" xlink:href="#path-1"></use>
            </g>
            <rect id="Icon_Area" fill-opacity="0" fill="#FFFFFF" x="0" y="0" width="80" height="80"></rect>
        </g>
        <rect id="Rectangle-Copy" stroke="#50E3C2" stroke-width="5" fill-rule="nonzero" x="-21.5" y="-63.5" width="812" height="394"></rect>
    </g>
</svg>