<?xml version="1.0" encoding="UTF-8" standalone="no"?>
<svg width="88px" height="80px" viewBox="0 0 88 80" version="1.1" xmlns="http://www.w3.org/2000/svg" xmlns:xlink="http://www.w3.org/1999/xlink">
    <!-- Generator: Sketch 50.2 (55047) - http://www.bohemiancoding.com/sketch -->
    <title>icon_gnb_bi_d</title>
    <desc>Created with Sketch.</desc>
    <defs></defs>
    <g id="Icon_Badge_Graphic" stroke="none" stroke-width="1" fill="none" fill-rule="evenodd">
        <g id="##Icon/GNB/BI/2Disable">
            <rect id="Icon_Area" fill-opacity="0" fill="#FFFFFF" x="0" y="0" width="88" height="80"></rect>
            <g id="BI/Tlogo/Prototype" transform="translate(22.000000, 15.000000)" fill="#DCDCDC">
                <path d="M24.6566661,33.5791322 C24.6566661,30.7054822 25.4254848,28.2043424 27.4756679,27.459322 L36.1376914,24.2663776 C36.3427097,23.6810045 36.7527463,22.5634739 36.7014918,21.0202174 C36.5989826,15.5389962 33.7287263,11.5478157 29.7308693,10.2174221 L6,2.5011398 L12.2018038,0.212862961 C12.5093313,0.106431481 12.9706225,0 13.3294045,0 C13.7394412,0 14.2007324,0.106431481 14.5082598,0.159647221 L38.7004203,8.03557679 C42.9032956,9.47240178 44.4921875,14.7407601 44.4921875,17.5611943 C44.4921875,19.8494712 43.7233688,22.5102582 41.3656583,23.4149258 C39.2642206,24.2131619 33.0111622,26.5546544 33.0111622,26.5546544 C32.8061439,27.1400276 32.3961073,28.1511267 32.3961073,30.4926192 C32.3961073,31.8230127 32.3961073,38.9539219 32.3961073,40.2310997 C32.3961073,43.2643969 30.9609791,46.0848312 28.2444865,46.0848312 C27.0656312,46.0316154 25.7330122,45.4462423 24.6566661,44.3819275 L24.6566661,33.5791322 Z" id="Shape"></path>
                <path d="M19.2336367,26.9505305 L19.2336367,36.039511 C19.2336367,41.653293 21.6752124,46.2512479 25.6614583,47.5878626 L19.4827771,49.8868401 C18.2370752,50.3680214 17.0412015,49.8868401 16.2937803,49.3521941 C13.3040959,47.2670751 11.7095975,44.1126642 11.7095975,39.1939218 C11.7095975,36.8949444 11.7095975,33.7405335 11.7095975,29.62376 C11.7095975,27.271318 10.8126922,24.5980884 9.36767799,22.566434 C8.32128843,21.0694254 7.07558657,20.1070628 5.48108819,19.5189523 C2.44157565,18.3427313 0,14.1190286 0,10.0022551 C0,6.42012745 1.69415453,4.17461462 3.93641788,4.01422085 C4.43469862,3.96075626 4.83332322,4.06768544 5.23194782,4.17461462 C6.57730583,4.60233135 7.62369539,5.03004808 7.62369539,5.03004808 C6.87627427,9.1468216 9.11853762,15.5091079 13.6528924,17.2199749 C15.4467031,17.86155 16.4930926,18.8773772 17.389998,20.3743857 C18.5858718,22.3525756 19.2336367,24.8119468 19.2336367,26.9505305 Z" id="Shape"></path>
            </g>
        </g>
    </g>
</svg>