<?xml version="1.0" encoding="UTF-8" standalone="no"?>
<svg width="48px" height="48px" viewBox="0 0 48 48" version="1.1" xmlns="http://www.w3.org/2000/svg" xmlns:xlink="http://www.w3.org/1999/xlink">
    <!-- Generator: Sketch 50.2 (55047) - http://www.bohemiancoding.com/sketch -->
    <title>icon_48p_call</title>
    <desc>Created with Sketch.</desc>
    <defs></defs>
    <g id="Icon_Badge_Graphic" stroke="none" stroke-width="1" fill="none" fill-rule="evenodd">
        <g id="##Icon/48/Call">
            <rect id="Icon_Area" fill-opacity="0" fill="#FFFFFF" x="0" y="0" width="48" height="48"></rect>
            <path d="M35.1021073,43.9941219 C32.1786993,43.9955914 23.3898152,40.1662235 15.6669727,31.9323525 C7.94413022,23.6984815 5,17.0826753 5,14.1131959 C5,12.7217182 5.28968544,10.6659747 6.81500609,9.14942409 L10.3096534,5.67676701 C11.0472347,4.94961271 12.3609696,4.71477487 13.1626239,5.44192917 L20.1208466,12.453348 C20.9590358,13.2859103 20.9590358,14.3914348 20.1208466,15.2005649 L16.0334809,19.248678 C15.2758585,20.3957961 16.8992482,23.6275603 20.7443581,27.4571445 C24.5524817,31.2323562 28.2434395,33.7908988 29.8826547,33.2610449 L30.8013481,32.5183955 L33.5761836,29.6221966 C34.4594197,28.7419507 35.8136855,28.7375421 36.7028394,29.6221966 L43.3129768,36.2066509 C44.228761,37.1148178 44.228761,38.1264241 43.3144563,39.0375301 L40.0908379,42.2380386 C40.0538514,42.2762463 40.0139061,42.3100454 39.9695224,42.3409054 L39.7106173,42.5275352 C38.4560374,43.5224041 37.0860598,44 35.4394236,44 C35.3284643,44 35.2145461,43.9985305 35.1021073,43.9941219 Z" id="Path" stroke="#333333" stroke-width="2"></path>
        </g>
    </g>
</svg>