<?xml version="1.0" encoding="UTF-8" standalone="no"?>
<svg width="80px" height="80px" viewBox="0 0 80 80" version="1.1" xmlns="http://www.w3.org/2000/svg" xmlns:xlink="http://www.w3.org/1999/xlink">
    <!-- Generator: Sketch 50.2 (55047) - http://www.bohemiancoding.com/sketch -->
    <title>icon_80px_accessory</title>
    <desc>Created with Sketch.</desc>
    <defs></defs>
    <g id="Icon_Badge_Graphic" stroke="none" stroke-width="1" fill="none" fill-rule="evenodd">
        <g id="##Icon/80/Accessory">
            <rect id="Icon_Area" fill-opacity="0" fill="#FFFFFF" x="0" y="0" width="80" height="80"></rect>
            <g id="icon_80px_accessory" transform="translate(11.000000, 7.000000)" stroke="#333333" stroke-width="3">
                <path d="M29.1967649,65.4 C23.2863727,65.4 14.4207844,65.4 2.6,65.4 C1.2,65.4 0,64.4 0,62.9 L0,3.1 C0,1.7 1.2,0.6 2.6,0.6 L38.5,0.6 C39.9,0.6 41.1,1.6 41.1,3.1 C41.1,8.07823247 41.1,11.8119068 41.1,14.301023" id="Rectangle"></path>
                <path d="M29.1,14.7 L56.5,14.7 C57.9,14.7 59,15.7 59,17 L59,63.1 C59,64.3 57.9,65.4 56.5,65.4 L29.1,65.4 C27.7,65.4 26.6,64.4 26.6,63.1 L26.6,17 C26.6,15.6 27.8,14.7 29.1,14.7 Z" id="Rectangle_1_" fill-rule="nonzero"></path>
                <path d="M16.5,13 L9.5,13 C8.1,13 7,11.9 7,10.5 L7,9.5 C7,8.1 8.1,7 9.5,7 L16.5,7 C17.9,7 19,8.1 19,9.5 L19,10.5 C19,11.9 17.8,13 16.5,13 Z" id="Shape"></path>
                <circle id="Oval" cx="36" cy="23.3" r="3"></circle>
            </g>
        </g>
    </g>
</svg>