<?xml version="1.0" encoding="UTF-8" standalone="no"?>
<svg width="41px" height="41px" viewBox="0 0 41 41" version="1.1" xmlns="http://www.w3.org/2000/svg" xmlns:xlink="http://www.w3.org/1999/xlink">
    <!-- Generator: Sketch 50.2 (55047) - http://www.bohemiancoding.com/sketch -->
    <title>icon_40px_roaming</title>
    <desc>Created with Sketch.</desc>
    <defs></defs>
    <g id="Icon_Badge_Graphic" stroke="none" stroke-width="1" fill="none" fill-rule="evenodd">
        <g id="##Icon/40/Roaming">
            <rect id="Icon_Area" fill-opacity="0" fill="#FFFFFF" x="0" y="0" width="40.32" height="40.32"></rect>
            <path d="M20.58,2.52 C22.7251717,2.52 24.4167906,5.53241639 24.3585396,7.20256487 L23.4832427,32.2559287 C23.4286973,33.9260771 22.1289622,35.28 20.58,35.28 C19.0310378,35.28 17.7313027,33.9260771 17.6767573,32.2559287 L16.8014604,7.20256487 C16.7432094,5.53241639 18.4348283,2.52 20.58,2.52 Z" id="Rectangle-9" stroke="#666666" stroke-width="2"></path>
            <polyline id="Rectangle-3" stroke="#666666" stroke-width="2" stroke-linecap="round" points="17.2636907 22.115155 4.2 26.04 4.2 23.2730771 16.7665564 13.44"></polyline>
            <polyline id="Rectangle-3-Copy" stroke="#666666" stroke-width="2" stroke-linecap="round" transform="translate(30.401858, 19.740000) scale(-1, 1) translate(-30.401858, -19.740000) " points="36.96 22.115155 23.8437157 26.04 23.8437157 23.2730771 36.4628657 13.44"></polyline>
            <polyline id="Rectangle-3-Copy-2" stroke="#666666" stroke-width="2" stroke-linecap="round" points="19.6763902 35.137093 12.6 36.96 12.6 34.7635211 17.5576207 30.24"></polyline>
            <polyline id="Rectangle-3-Copy-3" stroke="#666666" stroke-width="2" stroke-linecap="round" transform="translate(25.213182, 33.645169) scale(-1, 1) translate(-25.213182, -33.645169) " points="28.5863631 35.1783944 21.84 37.0503372 21.84 34.8538583 26.8223564 30.24"></polyline>
        </g>
    </g>
</svg>