<?xml version="1.0" encoding="UTF-8" standalone="no"?>
<svg width="41px" height="41px" viewBox="0 0 41 41" version="1.1" xmlns="http://www.w3.org/2000/svg" xmlns:xlink="http://www.w3.org/1999/xlink">
    <!-- Generator: Sketch 50.2 (55047) - http://www.bohemiancoding.com/sketch -->
    <title>icon_40px_certify</title>
    <desc>Created with Sketch.</desc>
    <defs></defs>
    <g id="Icon_Badge_Graphic" stroke="none" stroke-width="1" fill="none" fill-rule="evenodd">
        <g id="##Icon/40/Certify">
            <rect id="Icon_Area" fill-opacity="0" fill="#FFFFFF" x="0" y="0" width="40.32" height="40.32"></rect>
            <g id="Group-13" transform="translate(6.000000, 3.000000)">
                <path d="M14,6 L6,6" id="Stroke-5" stroke="#666666" stroke-width="2" stroke-linecap="round"></path>
                <path d="M11,11 L6,11" id="Stroke-7" stroke="#666666" stroke-width="2" stroke-linecap="round"></path>
                <path d="M25,14 L25,1.879 C25,0.841 24.104,0 23,0 L2,0 C0.896,0 0,0.841 0,1.879 L0,29.121 C0,30.159 0.896,31 2,31 L19.0926487,31" id="Stroke-9" stroke="#666666" stroke-width="2"></path>
                <path d="M27,23.4883155 L27,33.7897877 C27,33.9566168 26.7884707,34.0574279 26.6303001,33.964646 L23,31.8520725 L19.368747,33.964646 C19.2105765,34.0574279 19,33.9566168 19,33.7897877 L19,24.2180812" id="Stroke-1" stroke="#666666" stroke-width="2" stroke-linecap="round"></path>
                <path d="M29,19 C29,22.314 26.313,25 23,25 C19.687,25 17,22.314 17,19 C17,15.687 19.687,13 23,13 C26.313,13 29,15.687 29,19 Z" id="Stroke-3" stroke="#666666" stroke-width="2"></path>
                <path d="M24,20 L22,20 C21.45,20 21,19.55 21,19 C21,18.45 21.45,18 22,18 L24,18 C24.55,18 25,18.45 25,19 C25,19.55 24.55,20 24,20" id="Fill-11" fill="#666666" fill-rule="nonzero"></path>
            </g>
        </g>
    </g>
</svg>