<?xml version="1.0" encoding="UTF-8" standalone="no"?>
<svg width="80px" height="80px" viewBox="0 0 80 80" version="1.1" xmlns="http://www.w3.org/2000/svg" xmlns:xlink="http://www.w3.org/1999/xlink">
    <!-- Generator: Sketch 50.2 (55047) - http://www.bohemiancoding.com/sketch -->
    <title>icon_80px_data_charge</title>
    <desc>Created with Sketch.</desc>
    <defs></defs>
    <g id="Icon_Badge_Graphic" stroke="none" stroke-width="1" fill="none" fill-rule="evenodd">
        <g id="##Icon/80/DataCharge">
            <rect id="Icon_Area" fill-opacity="0" fill="#FFFFFF" x="0" y="0" width="80" height="80"></rect>
            <g id="Group" transform="translate(9.000000, 11.000000)">
                <path d="M58,29 C58,12.9837423 45.0162577,0 29,0 C12.9837423,0 0,12.9837423 0,29 C0,45.0162577 12.9837423,58 29,58 C31.3936897,58 33.7196438,57.7099897 35.9446426,57.1631888" id="Oval" stroke="#333333" stroke-width="3" stroke-linecap="round"></path>
                <ellipse id="Oval-2" stroke="#333333" stroke-width="3" cx="53" cy="40.5" rx="12" ry="5.5"></ellipse>
                <path d="M42.2639329,44.0403297 C41.4551568,44.7804701 41,45.6158729 41,46.5 C41,49.5375661 46.372583,52 53,52 C59.627417,52 65,49.5375661 65,46.5 C65,45.6692133 64.5981068,44.8814491 63.8785667,44.1753203" id="Oval-2-Copy" stroke="#333333" stroke-width="3"></path>
                <path d="M42.2639329,50.0403297 C41.4551568,50.7804701 41,51.6158729 41,52.5 C41,55.5375661 46.372583,58 53,58 C59.627417,58 65,55.5375661 65,52.5 C65,51.6692133 64.5981068,50.8814491 63.8785667,50.1753203" id="Oval-2-Copy-2" stroke="#333333" stroke-width="3"></path>
                <path d="M28.828,35.864 C29.8546718,35.864 30.7879958,35.7006683 31.628,35.374 C32.4680042,35.0473317 33.1819971,34.5900029 33.77,34.002 C34.3580029,33.4139971 34.8153317,32.7140041 35.142,31.902 C35.4686683,31.0899959 35.632,30.2080048 35.632,29.256 L35.632,29.2 C35.632,28.2479952 35.4686683,27.3613374 35.142,26.54 C34.8153317,25.7186626 34.3580029,25.0140029 33.77,24.426 C33.1819971,23.8379971 32.4680042,23.3760017 31.628,23.04 C30.7879958,22.7039983 29.8546718,22.536 28.828,22.536 L24.964,22.536 L24.964,35.864 L28.828,35.864 Z M21.52,19.4 L28.828,19.4 C30.3586743,19.4 31.7633269,19.6473309 33.042,20.142 C34.3206731,20.6366691 35.4219954,21.3226623 36.346,22.2 C37.2700046,23.0773377 37.9839975,24.1086607 38.488,25.294 C38.9920025,26.4793393 39.244,27.7626598 39.244,29.144 L39.244,29.2 C39.244,30.5813402 38.9920025,31.8693274 38.488,33.064 C37.9839975,34.2586726 37.2700046,35.2946623 36.346,36.172 C35.4219954,37.0493377 34.3206731,37.7399975 33.042,38.244 C31.7633269,38.7480025 30.3586743,39 28.828,39 L21.52,39 L21.52,19.4 Z" id="D" fill="#333333"></path>
            </g>
        </g>
    </g>
</svg>