<?xml version="1.0" encoding="UTF-8"?>
<svg width="80px" height="80px" viewBox="0 0 80 80" version="1.1" xmlns="http://www.w3.org/2000/svg" xmlns:xlink="http://www.w3.org/1999/xlink">
    <!-- Generator: Sketch 52.4 (67378) - http://www.bohemiancoding.com/sketch -->
    <title>mdpi/##Icon/80/Discount1 Copy</title>
    <desc>Created with Sketch.</desc>
    <g id="##Icon/80/Discount1-Copy" stroke="none" stroke-width="1" fill="none" fill-rule="evenodd">
        <rect id="Icon_Area" fill-opacity="0" fill="#FFFFFF" x="0" y="0" width="80" height="80"></rect>
        <g id="Group-15" transform="translate(13.000000, 21.000000)" stroke="#333333" stroke-width="3">
            <path d="M35.5,38 L6.981,38 C6.981,34.375 4.08,31.438 0.5,31.438 L0.5,6.563 C4.08,6.563 6.981,3.625 6.981,0 L26.426,0 L34.5,13" id="Stroke-3"></path>
            <path d="M34.5,13 L34.5,37" id="Stroke-5" stroke-linecap="square" stroke-dasharray="2,5,2,5"></path>
            <path d="M34.8125,38 L46.9375,38 C46.9375,34.375 49.8755,31.438 53.4995,31.438 L53.4995,6.563 C49.8755,6.563 46.9375,3.625 46.9375,0 L41.3745,0 L34.5005,13" id="Stroke-7"></path>
            <path d="M22,15 L12,25" id="Stroke-9" stroke-linecap="square"></path>
            <path d="M11,13 C12.657,13 14,14.343 14,16 C14,17.657 12.657,19 11,19 C9.343,19 8,17.657 8,16 C8,14.343 9.343,13 11,13 Z" id="Stroke-11"></path>
            <path d="M23,21 C24.657,21 26,22.343 26,24 C26,25.657 24.657,27 23,27 C21.343,27 20,25.657 20,24 C20,22.343 21.343,21 23,21 Z" id="Stroke-13"></path>
        </g>
    </g>
</svg>