<?xml version="1.0" encoding="UTF-8"?>
<svg width="80px" height="80px" viewBox="0 0 80 80" version="1.1" xmlns="http://www.w3.org/2000/svg" xmlns:xlink="http://www.w3.org/1999/xlink">
    <!-- Generator: Sketch 53 (72520) - https://sketchapp.com -->
    <title>icon_80px_vas</title>
    <desc>Created with Sketch.</desc>
    <defs>
        <path d="M38.0199075,60.952315 L3.9799075,60.952315 C3.4286075,60.952315 2.9624075,60.528665 2.9624075,60.027315 L2.9624075,52.164815 L39.0374075,52.164815 L39.0374075,60.027315 C39.0374075,60.443565 38.5675075,60.952315 38.0199075,60.952315 M3.9799075,3.047315 L38.0199075,3.047315 C38.5712075,3.047315 39.0374075,3.470965 39.0374075,3.972315 L39.0374075,49.389815 L2.9624075,49.389815 L2.9624075,3.972315 C2.9624075,3.33684 3.4896575,3.047315 3.9799075,3.047315 M38.0199075,0.272315 L3.9799075,0.272315 C1.8533325,0.272315 0.1874075,1.89754 0.1874075,3.972315 L0.1874075,60.027315 C0.1874075,62.067865 1.8884825,63.727315 3.9799075,63.727315 L38.0199075,63.727315 C40.0761825,63.727315 41.8124075,62.032715 41.8124075,60.027315 L41.8124075,3.972315 C41.8124075,1.931765 40.1113325,0.272315 38.0199075,0.272315 M17.3925925,11.5574075 L24.7000925,11.5574075 C25.4659925,11.5574075 26.0875925,10.9367325 26.0875925,10.1699075 C26.0875925,9.4040075 25.4659925,8.7824075 24.7000925,8.7824075 L17.3925925,8.7824075 C16.6257675,8.7824075 16.0050925,9.4040075 16.0050925,10.1699075 C16.0050925,10.9367325 16.6257675,11.5574075 17.3925925,11.5574075 M10.085,27.2825 L31.915,27.2825 L31.915,24.5075 L10.085,24.5075 L10.085,27.2825 Z M10.085,34.59 L25.9025,34.59 L25.9025,31.815 L10.085,31.815 L10.085,34.59 Z" id="path-1"></path>
    </defs>
    <g id="Icon_Badge_Graphic" stroke="none" stroke-width="1" fill="none" fill-rule="evenodd">
        <g id="##Icon/80/Vas-(부가서비스)">
            <g id="📌IMG-/-MyAccount" transform="translate(19.000000, 8.000000)">
                <mask id="mask-2" fill="white">
                    <use xlink:href="#path-1"></use>
                </mask>
                <use id="Mask" fill="#333333" xlink:href="#path-1"></use>
            </g>
            <rect id="Icon_Area" fill-opacity="0" fill="#FFFFFF" x="0" y="0" width="80" height="80"></rect>
        </g>
        <rect id="Rectangle-Copy" stroke="#50E3C2" stroke-width="5" fill-rule="nonzero" x="-499.5" y="-162.5" width="812" height="394"></rect>
    </g>
</svg>