<?xml version="1.0" encoding="UTF-8" standalone="no"?>
<svg width="88px" height="80px" viewBox="0 0 88 80" version="1.1" xmlns="http://www.w3.org/2000/svg" xmlns:xlink="http://www.w3.org/1999/xlink">
    <!-- Generator: Sketch 50.2 (55047) - http://www.bohemiancoding.com/sketch -->
    <title>icon_gnb_share_n</title>
    <desc>Created with Sketch.</desc>
    <defs></defs>
    <g id="Icon_Badge_Graphic" stroke="none" stroke-width="1" fill="none" fill-rule="evenodd">
        <g id="##Icon/GNB/Share/0Normal">
            <rect id="Icon_Area" fill-opacity="0" fill="#FFFFFF" x="0" y="0" width="88" height="80"></rect>
            <g id="Group" transform="translate(26.000000, 22.000000)" stroke="#333333" stroke-linejoin="round" stroke-width="2">
                <path d="M30,25.3685237 L30,34 C30,34.5522847 29.5522847,35 29,35 L1,35 C0.44771525,35 6.76353751e-17,34.5522847 0,34 L0,8 C-6.76353751e-17,7.44771525 0.44771525,7 1,7 L9.71228087,7" id="Rectangle-5" stroke-linecap="round"></path>
                <path d="M27.0008384,7.75954802 C27.0008384,5.9160833 27.0008384,3.48702664 27.0008384,0.47237806 L38.0600337,11.0122291 L27.0008384,21.6600102 C27.0008384,18.418348 27.0008384,16.222546 27.0008384,15.0726042 C20.477554,15.0726042 14.6349152,13.8276084 10.0671426,20.4544432 C10.9481185,7.75954802 20.828431,7.75954802 27.0008384,7.75954802 Z" id="Path-3"></path>
            </g>
        </g>
    </g>
</svg>