<?xml version="1.0" encoding="UTF-8"?>
<svg width="80px" height="80px" viewBox="0 0 80 80" version="1.1" xmlns="http://www.w3.org/2000/svg" xmlns:xlink="http://www.w3.org/1999/xlink">
    <!-- Generator: Sketch 53 (72520) - https://sketchapp.com -->
    <title>icon_80px_roaming</title>
    <desc>Created with Sketch.</desc>
    <defs>
        <path d="M58.35991,39.47836 L38.05771,33.35296 L38.46271,21.82486 L58.35991,37.01416 L58.35991,39.47836 Z M43.60891,57.03556 L43.60891,58.52866 L35.76901,56.35426 C36.73201,55.21396 37.34221,53.74156 37.39801,52.13416 L37.42591,51.34396 L43.60891,57.03556 Z M27.10201,52.03966 L25.61701,9.76756 C25.57201,8.46886 26.44771,6.17206 27.98851,4.57726 C28.66261,3.87886 29.73361,3.04636 30.99991,3.04636 C32.34091,3.04636 33.44791,3.96076 34.14001,4.72846 C35.57911,6.32416 36.31261,8.49676 36.19111,9.67486 C36.18841,9.70546 36.18571,9.73606 36.18481,9.76666 L34.69981,52.04056 C34.62421,54.21496 32.92051,55.98346 30.90091,55.98346 C28.84441,55.98346 27.17581,54.25276 27.10201,52.03966 L27.10201,52.03966 Z M18.39091,56.94106 L24.38131,51.49516 L24.40381,52.13236 C24.45871,53.78386 25.06981,55.27156 26.04091,56.41276 L18.39091,58.44856 L18.39091,56.94106 Z M3.63991,39.47836 L3.63991,37.01416 L23.34451,21.97156 L23.74681,33.41236 L3.63991,39.47836 Z M60.52891,35.27266 L38.57881,18.51646 L38.88121,9.90346 C39.07831,7.79296 37.95871,4.93006 36.14521,2.91946 C34.64851,1.25986 32.82151,0.34636 30.99991,0.34636 C29.24761,0.34636 27.53491,1.15996 26.04631,2.70076 C24.12751,4.68706 22.84231,7.63096 22.91881,9.86116 L23.22841,18.66406 L1.47091,35.27266 C1.13611,35.52826 0.93991,35.92516 0.93991,36.34636 L0.93991,41.29636 C0.93991,41.72296 1.14241,42.12526 1.48531,42.37996 C1.72021,42.55456 2.00371,42.64636 2.28991,42.64636 C2.42041,42.64636 2.55181,42.62746 2.67961,42.58876 L23.84401,36.20236 L24.25711,47.95906 L16.13281,55.34446 C15.85111,55.60096 15.69091,55.96366 15.69091,56.34436 L15.69091,60.20536 C15.69091,60.62476 15.88621,61.01986 16.21831,61.27546 C16.45681,61.45816 16.74661,61.55536 17.04091,61.55536 C17.15701,61.55536 17.27401,61.54006 17.38831,61.50946 L29.05051,58.40626 C29.63641,58.58536 30.25741,58.68346 30.90091,58.68346 C31.58491,58.68346 32.24641,58.56556 32.87011,58.35226 L44.59801,61.60486 C44.71681,61.63816 44.83831,61.65436 44.95891,61.65436 C45.25051,61.65436 45.53851,61.55896 45.77611,61.37806 C46.11181,61.12336 46.30891,60.72556 46.30891,60.30436 L46.30891,56.44336 C46.30891,56.06536 46.15141,55.70536 45.87331,55.44976 L37.55101,47.78896 L37.95961,36.14296 L59.32021,42.58876 C59.44801,42.62746 59.57941,42.64636 59.70991,42.64636 C59.99611,42.64636 60.27961,42.55456 60.51541,42.37996 C60.85741,42.12526 61.05991,41.72296 61.05991,41.29636 L61.05991,36.34636 C61.05991,35.92516 60.86371,35.52826 60.52891,35.27266 L60.52891,35.27266 Z" id="path-1"></path>
    </defs>
    <g id="Icon_Badge_Graphic" stroke="none" stroke-width="1" fill="none" fill-rule="evenodd">
        <g id="##Icon/80/Roaming-(Të¡œë°)">
            <g id="ðŸ“ŒIMG-/-MyAccount" transform="translate(9.000000, 9.000000)">
                <mask id="mask-2" fill="white">
                    <use xlink:href="#path-1"></use>
                </mask>
                <use id="Mask" fill="#333333" xlink:href="#path-1"></use>
            </g>
            <rect id="Icon_Area" fill-opacity="0" fill="#FFFFFF" x="0" y="0" width="80" height="80"></rect>
        </g>
        <rect id="Rectangle-Copy" stroke="#50E3C2" stroke-width="5" fill-rule="nonzero" x="-114.5" y="-162.5" width="812" height="394"></rect>
    </g>
</svg>