<?xml version="1.0" encoding="UTF-8"?>
<svg width="80px" height="80px" viewBox="0 0 80 80" version="1.1" xmlns="http://www.w3.org/2000/svg" xmlns:xlink="http://www.w3.org/1999/xlink">
    <!-- Generator: Sketch 52.4 (67378) - http://www.bohemiancoding.com/sketch -->
    <title>mdpi/Artboard Copy 8</title>
    <desc>Created with Sketch.</desc>
    <g id="Artboard-Copy-8" stroke="none" stroke-width="1" fill="none" fill-rule="evenodd">
        <g id="Group-9" transform="translate(10.000000, 10.000000)">
            <path d="M57.7275,0.5 L3.2725,0.5 C1.7485,0.5 0.4995,1.743 0.4995,3.262 L0.4995,44.69 C0.4995,46.21 1.7485,47.452 3.2725,47.452 L11.5905,47.452 L11.5905,58.5 L25.4545,47.452 L57.7275,47.452 C59.2515,47.452 60.4995,46.21 60.4995,44.69 L60.4995,3.262 C60.4995,1.743 59.2515,0.5 57.7275,0.5 Z" id="Stroke-1" stroke="#333333" stroke-width="3" stroke-linecap="round" stroke-linejoin="round"></path>
            <path d="M20.8896,14 C19.8106,14 18.7496,14.435 17.9806,15.193 L16.2696,16.894 C15.1116,18.045 14.4996,19.617 14.4996,21.44 C14.4996,24.149 16.7456,28.162 20.5086,32.173 C24.4796,36.407 29.4926,38.952 32.0956,38.996 C32.1746,38.999 32.2526,39 32.3286,39 C33.7766,39 35.0826,38.557 36.2116,37.682 L36.2816,37.633 C36.4376,37.521 36.5846,37.396 36.7196,37.261 L38.2796,35.711 C39.0696,34.925 39.5006,33.923 39.4996,32.888 C39.4986,31.854 39.0646,30.854 38.2776,30.073 L35.0626,26.87 C34.2856,26.098 33.2636,25.673 32.1836,25.673 C31.1016,25.673 30.0786,26.098 29.3036,26.871 L29.2796,26.895 L29.2556,26.92 L28.9226,27.267 C28.5016,26.943 27.9516,26.473 27.2826,25.81 C26.8726,25.402 26.5586,25.045 26.3246,24.749 L26.9776,24.101 C27.7316,23.374 28.1646,22.381 28.1726,21.332 C28.1806,20.278 27.7566,19.274 26.9806,18.503 L23.6066,15.102 L23.5506,15.046 L23.4926,14.993 C22.7856,14.353 21.8626,14 20.8896,14 M20.8896,17 C21.1036,17 21.3126,17.066 21.4766,17.215 L24.8666,20.631 C25.2756,21.037 25.2756,21.575 24.8666,21.97 L22.8746,23.942 C22.5056,24.5 23.2966,26.075 25.1696,27.94 C26.8626,29.618 28.5056,30.802 29.3886,30.802 C29.4736,30.802 29.5516,30.791 29.6216,30.769 L30.0706,30.406 L31.4216,28.996 C31.6366,28.781 31.9106,28.673 32.1836,28.673 C32.4556,28.673 32.7286,28.78 32.9456,28.996 L36.1646,32.203 C36.6116,32.646 36.6116,33.139 36.1656,33.582 L34.5956,35.142 C34.5776,35.16 34.5576,35.177 34.5356,35.191 L34.4106,35.282 C33.7986,35.768 33.1316,36 32.3286,36 C32.2756,36 32.2196,35.999 32.1646,35.997 L32.1636,35.997 C30.7396,35.997 26.4576,34.132 22.6966,30.121 C18.9346,26.109 17.4996,22.886 17.4996,21.44 C17.4996,20.762 17.6416,19.76 18.3836,19.021 L20.0866,17.33 C20.2946,17.125 20.5966,17 20.8896,17" id="Fill-3" fill="#333333"></path>
            <path d="M32.7158,17.3286 C34.2448,17.2016 35.7278,17.6616 36.7988,18.7386 C37.8568,19.8026 38.3158,21.2666 38.2058,22.7826" id="Stroke-5" stroke="#333333" stroke-width="3"></path>
            <path d="M32.5,12.0405 C35.554,11.7885 38.514,12.7085 40.654,14.8615 C42.78,16.9995 43.698,19.9515 43.465,22.9995" id="Stroke-7" stroke="#333333" stroke-width="3"></path>
        </g>
    </g>
</svg>