<?xml version="1.0" encoding="UTF-8"?>
<svg width="48px" height="48px" viewBox="0 0 48 48" version="1.1" xmlns="http://www.w3.org/2000/svg" xmlns:xlink="http://www.w3.org/1999/xlink">
    <!-- Generator: Sketch 52.4 (67378) - http://www.bohemiancoding.com/sketch -->
    <title>mdpi/##Icon/48/Tcoupon Copy 4</title>
    <desc>Created with Sketch.</desc>
    <g id="##Icon/48/Tcoupon-Copy-4" stroke="none" stroke-width="1" fill="none" fill-rule="evenodd">
        <rect id="Icon_Area" fill-opacity="0" fill="#FFFFFF" x="0" y="0" width="48" height="48"></rect>
        <g id="Group-11" transform="translate(3.000000, 3.000000)">
            <path d="M21,0 C32.598,0 42,9.402 42,21 C42,32.598 32.598,42 21,42 C9.402,42 0,32.598 0,21 C0,9.402 9.402,0 21,0 Z" id="Stroke-3" stroke="#333333" stroke-width="2"></path>
            <polygon id="Fill-5" fill="#333333" points="10.7002 18 10.7002 26.4 8.2002 26.4 8.2002 18 4.9002 18 4.9002 15.8 14.1002 15.8 14.1002 18"></polygon>
            <path d="M15.4,17.2 L18,17.2 L18,15 L15.4,15 L15.4,17.2 Z M15.4,26.4 L15.4,20.4 L14.2,20.4 L14.2,18.3 L17.8,18.3 L17.8,26.4 L15.4,26.4 Z" id="Fill-7" fill="#333333"></path>
            <path d="M25.2002,26.3999 L25.2002,21.8999 C25.2002,21.3999 25.1002,20.9999 24.9002,20.6999 C24.7002,20.3999 24.3002,20.2999 23.9002,20.2999 C23.5002,20.2999 23.1002,20.3999 22.9002,20.6999 C22.7002,20.9999 22.6002,21.3999 22.6002,21.8999 L22.6002,26.3999 L20.3002,26.3999 L20.3002,20.3999 L19.1002,20.3999 L19.1002,18.2999 L22.6002,18.2999 L22.6002,19.2999 C22.9002,18.9999 23.2002,18.6999 23.5002,18.4999 C23.8002,18.2999 24.3002,18.1999 24.9002,18.1999 C25.8002,18.1999 26.5002,18.4999 26.9002,18.9999 C27.3002,19.4999 27.6002,20.2999 27.6002,21.1999 L27.6002,26.3999 L25.2002,26.3999 Z" id="Fill-9" fill="#333333"></path>
            <path d="M34.7998,22 C34.7998,21.7 34.7998,21.5 34.6998,21.2 C34.5998,20.9 34.4998,20.8 34.2998,20.6 C34.0998,20.4 33.8998,20.3 33.6998,20.2 C33.4998,20.1 33.1998,20 32.8998,20 C32.5998,20 32.3998,20 32.0998,20.2 C31.7998,20.4 31.6998,20.4 31.4998,20.6 C31.2998,20.8 31.1998,21 31.0998,21.2 C30.9998,21.4 30.8998,21.7 30.8998,22 C30.8998,22.3 30.8998,22.5 31.0998,22.8 C31.1998,23 31.2998,23.2 31.4998,23.4 C31.6998,23.6 31.8998,23.7 32.0998,23.8 C32.2998,23.9 32.5998,24 32.8998,24 C33.1998,24 33.3998,24 33.6998,23.8 C33.8998,23.7 34.0998,23.6 34.2998,23.4 C34.4998,23.2 34.5998,23 34.6998,22.8 C34.7998,22.6 34.7998,22.3 34.7998,22 Z M37.0998,24.9 C37.0998,25.7 36.9998,26.3 36.7998,26.8 C36.5998,27.3 36.2998,27.8 35.9998,28.1 C35.6998,28.4 35.1998,28.7 34.5998,28.8 C33.9998,28.9 33.3998,29 32.5998,29 C31.8998,29 31.2998,28.9 30.6998,28.8 C30.0998,28.7 29.5998,28.5 29.0998,28.2 L29.8998,26.4 C30.2998,26.6 30.6998,26.8 31.1998,26.9 C31.5998,27 32.0998,27.1 32.5998,27.1 C33.3998,27.1 33.9998,26.9 34.2998,26.6 C34.6998,26.3 34.7998,25.8 34.7998,25 L34.7998,24.7 C34.4998,25.1 34.1998,25.4 33.7998,25.5 C33.3998,25.7 32.8998,25.8 32.1998,25.8 C31.6998,25.8 31.2998,25.7 30.8998,25.5 C30.4998,25.3 30.0998,25.1 29.7998,24.7 C29.4998,24.4 29.1998,24 28.9998,23.5 C28.7998,23 28.6998,22.5 28.6998,21.9 C28.6998,21.3 28.7998,20.7 28.9998,20.3 C29.1998,19.9 29.4998,19.4 29.7998,19.1 C30.0998,18.8 30.4998,18.5 30.9998,18.3 C31.4998,18.1 31.8998,18 32.2998,18 C32.8998,18 33.3998,18.1 33.7998,18.3 C34.1998,18.5 34.4998,18.8 34.7998,19.1 L34.7998,18.1 L37.0998,18.1 L37.0998,24.9 Z" id="Fill-10" fill="#333333"></path>
        </g>
    </g>
</svg>