<?xml version="1.0" encoding="UTF-8"?>
<svg width="80px" height="80px" viewBox="0 0 80 80" version="1.1" xmlns="http://www.w3.org/2000/svg" xmlns:xlink="http://www.w3.org/1999/xlink">
    <!-- Generator: Sketch 53 (72520) - https://sketchapp.com -->
    <title>icon_80px_call</title>
    <desc>Created with Sketch.</desc>
    <defs>
        <path d="M52.012075,46.2493425 L47.734875,50.4960175 L47.340825,50.7818425 C45.81735,51.9908175 44.151425,52.5088175 42.13585,52.4311175 L42.1081,52.4301925 L42.081275,52.4301925 L42.079425,52.4301925 C38.4229,52.4301925 27.013025,47.2242925 17.280175,36.8476425 C7.80355,26.7447925 3.4875,17.9887425 3.4875,14.1287175 C3.4875,12.4785175 3.8353,10.1650925 5.4892,8.5204425 L10.126225,3.9120925 C10.61,3.4347925 11.537775,3.2118675 11.9568,3.5892675 L21.205875,12.9095675 C21.40105,13.1038175 21.633225,13.4099925 21.631375,13.7661175 C21.6286,14.1092925 21.4066,14.3951175 21.2068,14.5875175 L15.777975,19.9645425 L15.596675,20.1856175 C13.29065,23.6784175 19.93955,30.7518925 22.034675,32.8377675 C25.56355,36.3361175 32.0145,42.0322675 35.57575,40.8815675 L35.820875,40.8020175 L37.241675,39.6540925 L41.034175,35.7108175 C41.66965,35.0781175 42.591875,35.0781175 43.228275,35.7108175 L52.010225,44.4585425 C52.239625,44.6860925 52.5125,45.0246425 52.5125,45.3520925 C52.513425,45.6804675 52.239625,46.0217925 52.012075,46.2493425 M53.9666,42.4910675 L45.1865,33.7442675 C43.472475,32.0385675 40.788125,32.0394925 39.052825,33.7683175 L35.428675,37.5515675 L34.535125,38.2739925 C33.338175,38.3470675 29.6613,36.4915175 23.99105,30.8702925 C18.823075,25.7226675 17.74175,22.4879425 17.894375,21.7738425 L23.14745,16.5716425 C23.9522,15.7955675 24.39805,14.8058175 24.40545,13.7864675 C24.413775,12.7560175 23.971625,11.7449925 23.168725,10.9467175 L13.874325,1.5838675 C12.1566,0.0261675 9.57955,0.5543425 8.174475,1.9399925 L3.532825,6.5520425 C1.201825,8.8691675 0.7125,11.9512675 0.7125,14.1287175 C0.7125,18.3319175 4.52165,27.3016425 15.256275,38.7457425 C25.31195,49.4674175 37.26295,55.1848425 42.05445,55.2051925 C42.21355,55.2107425 42.373575,55.2125925 42.5299,55.2125925 C45.0126,55.2125925 47.150275,54.4744425 49.01415,52.9944425 L49.33975,52.7604175 C49.47295,52.6669925 49.5932,52.5652425 49.6857,52.4690425 L53.96845,48.2168175 C55.05995,47.1290175 55.288425,46.0569425 55.2875,45.3493175 C55.286575,44.6416925 55.05625,43.5714675 53.9666,42.4910675" id="path-1"></path>
    </defs>
    <g id="Icon_Badge_Graphic" stroke="none" stroke-width="1" fill="none" fill-rule="evenodd">
        <g id="##Icon/80/Call">
            <g id="📌IMG-/-MyAccount" transform="translate(12.000000, 13.000000)">
                <mask id="mask-2" fill="white">
                    <use xlink:href="#path-1"></use>
                </mask>
                <use id="Mask" fill="#333333" xlink:href="#path-1"></use>
            </g>
            <rect id="Icon_Area" fill-opacity="0" fill="#FFFFFF" x="0" y="0" width="80" height="80"></rect>
        </g>
        <rect id="Rectangle-Copy" stroke="#50E3C2" stroke-width="5" fill-rule="nonzero" x="-500.5" y="-274.5" width="812" height="394"></rect>
    </g>
</svg>