<?xml version="1.0" encoding="UTF-8" standalone="no"?>
<svg width="80px" height="80px" viewBox="0 0 80 80" version="1.1" xmlns="http://www.w3.org/2000/svg" xmlns:xlink="http://www.w3.org/1999/xlink">
    <!-- Generator: Sketch 50.2 (55047) - http://www.bohemiancoding.com/sketch -->
    <title>icon_80px_tmembership</title>
    <desc>Created with Sketch.</desc>
    <defs></defs>
    <g id="New-GUI" stroke="none" stroke-width="1" fill="none" fill-rule="evenodd">
        <g id="##Icon/80/Tmembership">
            <rect id="Icon_Area" fill-opacity="0" fill="#FFFFFF" x="0" y="0" width="80" height="80"></rect>
            <g id="Group-17" transform="translate(10.000000, 16.000000)">
                <rect id="Rectangle-29" stroke="#333333" stroke-width="3" x="0" y="0" width="60" height="48" rx="4"></rect>
                <path d="M31.7926718,28.6550734 C31.7926718,27.0586012 32.2241076,25.6690791 33.3746032,25.2551789 L38.2354469,23.4813209 C38.3504965,23.1561136 38.5805956,22.5352633 38.5518332,21.6778986 C38.4943084,18.6327757 36.8836146,16.4154531 34.6401483,15.6763456 L21.3231622,11.3895221 L24.8034112,10.1182572 C24.9759856,10.0591286 25.2348471,10 25.4361838,10 C25.6662829,10 25.9251444,10.0591286 26.0977188,10.0886929 L39.6735664,14.4642093 C42.0320823,15.2624454 42.9237163,18.1893112 42.9237163,19.7562191 C42.9237163,21.027484 42.4922805,22.505699 41.1692106,23.0082921 C39.9899527,23.4517566 36.4809412,24.7525858 36.4809412,24.7525858 C36.3658916,25.0777931 36.1357925,25.6395148 36.1357925,26.940344 C36.1357925,27.6794515 36.1357925,31.6410677 36.1357925,32.350611 C36.1357925,34.0357761 35.3304456,35.602684 33.806039,35.602684 C33.1445041,35.5731197 32.3966819,35.2479124 31.7926718,34.6566264 L31.7926718,28.6550734 Z M28.7932866,24.9292465 L28.7932866,29.9786801 C28.7932866,33.097448 30.1634188,35.6518673 32.4003694,36.3944311 L28.933096,37.6716408 C28.234049,37.9389637 27.5629638,37.6716408 27.1435355,37.3746152 C25.4658226,36.2162158 24.5710424,34.4637653 24.5710424,31.7311306 C24.5710424,30.4539209 24.5710424,28.7014705 24.5710424,26.4143741 C24.5710424,25.1074618 24.0677285,23.6223343 23.2568339,22.4936374 C22.6696344,21.661966 21.9705873,21.12732 21.0758071,20.800592 C19.3701322,20.1471359 18,17.8006344 18,15.513538 C18,13.5234671 18.950704,12.27596 20.2089887,12.1868523 C20.4886075,12.1571497 20.7123026,12.2165549 20.9359977,12.27596 C21.6909685,12.5135804 22.278168,12.7512008 22.278168,12.7512008 C21.8587398,15.0382972 23.1170245,18.5729007 25.6615558,19.5233823 C26.6681835,19.8798129 27.2553831,20.4441614 27.758697,21.2758328 C28.4297821,22.3748272 28.7932866,23.7411445 28.7932866,24.9292465 Z" id="Combined-Shape" fill="#333333" fill-rule="nonzero"></path>
            </g>
        </g>
    </g>
</svg>