<?xml version="1.0" encoding="UTF-8"?>
<svg width="40px" height="40px" viewBox="0 0 40 40" version="1.1" xmlns="http://www.w3.org/2000/svg" xmlns:xlink="http://www.w3.org/1999/xlink">
    <!-- Generator: Sketch 52.4 (67378) - http://www.bohemiancoding.com/sketch -->
    <title>mdpi/##Icon/40/History</title>
    <desc>Created with Sketch.</desc>
    <g id="##Icon/40/History" stroke="none" stroke-width="1" fill="none" fill-rule="evenodd">
        <rect id="Icon_Area" fill-opacity="0" fill="#FFFFFF" x="0" y="0" width="40.32" height="40.32"></rect>
        <g id="Group-15" transform="translate(5.000000, 4.000000)" stroke="#666666" stroke-width="2">
            <path d="M25,4 C25,6.209 19.627,8 13,8 C6.373,8 1,6.209 1,4 C1,1.791 6.373,0 13,0 C19.627,0 25,1.791 25,4 Z" id="Stroke-3" stroke-linecap="round" stroke-linejoin="round"></path>
            <path d="M25,11 C25,13.209 19.627,15 13,15 C6.373,15 1,13.209 1,11" id="Stroke-5" stroke-linecap="round" stroke-linejoin="round"></path>
            <path d="M20.9937,20.9854 C18.8707,21.6164 16.0707,22.0004 13.0007,22.0004 C6.3697,22.0004 0.9937,20.2104 0.9937,18.0004" id="Stroke-7" stroke-linecap="round" stroke-linejoin="round"></path>
            <path d="M24.9995,15.5 L24.9995,4.5" id="Stroke-9" stroke-linecap="round" stroke-linejoin="round"></path>
            <path d="M1,3.999 L1,24.551 C1,26.613 5.458,28.779 12,29.001" id="Stroke-11" stroke-linecap="round" stroke-linejoin="round"></path>
            <path d="M18.6504,32.998 C19.8494,32.998 23.4554,31.427 26.6244,28.049 C29.7924,24.671 31.0004,21.957 31.0004,20.738 C31.0004,20.168 30.8814,19.324 30.2554,18.702 L28.8214,17.277 C28.5194,16.979 27.9804,16.883 27.6514,17.182 L24.7964,20.058 C24.4524,20.399 24.4524,20.852 24.7964,21.185 L26.4734,22.846 C26.7844,23.316 26.1184,24.642 24.5414,26.213 C22.9784,27.762 21.4644,28.811 20.7914,28.595 L20.4154,28.29 L19.2764,27.102 C18.9144,26.74 18.3584,26.738 17.9934,27.102 L15.2814,29.803 C14.9064,30.176 14.9064,30.59 15.2814,30.964 L16.6044,32.277 C16.6194,32.293 16.6354,32.307 16.6534,32.319 L16.7594,32.395 C17.2744,32.804 17.8364,33 18.5124,33 C18.5574,33 18.6044,32.999 18.6504,32.998 Z" id="Stroke-13"></path>
        </g>
    </g>
</svg>