<?xml version="1.0" encoding="UTF-8" standalone="no"?>
<svg width="41px" height="41px" viewBox="0 0 41 41" version="1.1" xmlns="http://www.w3.org/2000/svg" xmlns:xlink="http://www.w3.org/1999/xlink">
    <!-- Generator: Sketch 50.2 (55047) - http://www.bohemiancoding.com/sketch -->
    <title>icon_40px_call</title>
    <desc>Created with Sketch.</desc>
    <defs></defs>
    <g id="Icon_Badge_Graphic" stroke="none" stroke-width="1" fill="none" fill-rule="evenodd">
        <g id="##Icon/40/Call">
            <rect id="Icon_Area" fill-opacity="0" fill="#FFFFFF" x="0" y="0" width="40.32" height="40.32"></rect>
            <path d="M29.2941232,36.9549358 C26.7754948,36.9562018 19.2035331,33.6570541 12.5500073,26.5632575 C5.89648142,19.4694609 3.36,13.7696895 3.36,11.2113687 C3.36,10.0125572 3.60957515,8.24145512 4.92369755,6.93488845 L7.93447066,3.94306081 C8.56992527,3.31658941 9.70175845,3.11426758 10.3924144,3.74073898 L16.3871909,9.78134594 C17.1093231,10.4986304 17.1093231,11.4510823 16.3871909,12.148179 L12.8657682,15.6357842 C12.2130474,16.6240704 13.61166,19.4083597 16.9243701,22.7076937 C20.205215,25.9601838 23.3851171,28.1644666 24.797364,27.7079771 L25.5888538,27.0681561 L27.9794812,24.5729694 C28.7404231,23.8146036 29.9071752,23.8108055 30.6732155,24.5729694 L36.3681031,30.24573 C37.1570864,31.0281507 37.1570864,31.8996885 36.3693777,32.6846413 L33.5921065,35.4420025 C33.5602412,35.4749199 33.5258268,35.5040391 33.4875885,35.5306262 L33.2645318,35.6914149 C32.183663,36.5485328 31.0033746,36.96 29.5847342,36.96 C29.4891385,36.96 29.3909935,36.9587339 29.2941232,36.9549358 Z" id="Path" stroke="#666666" stroke-width="2"></path>
        </g>
    </g>
</svg>