<?xml version="1.0" encoding="UTF-8"?>
<svg width="48px" height="48px" viewBox="0 0 48 48" version="1.1" xmlns="http://www.w3.org/2000/svg" xmlns:xlink="http://www.w3.org/1999/xlink">
    <!-- Generator: Sketch 52.5 (67469) - http://www.bohemiancoding.com/sketch -->
    <title>Artboard</title>
    <desc>Created with Sketch.</desc>
    <g id="Artboard" stroke="none" stroke-width="1" fill="none" fill-rule="evenodd">
        <g id="Group-5" transform="translate(3.000000, 7.000000)">
            <path d="M2.3999,0 L39.5999,0 C40.8999,0 41.9999,1.1 41.9999,2.4 L41.9999,31.6 C41.9999,32.9 40.8999,34 39.5999,34 L2.3999,34 C1.0999,34 -0.0001,32.9 -0.0001,31.6 L-0.0001,2.4 C-0.0001,1.1 1.0999,0 2.3999,0 Z" id="Stroke-1" stroke="#333333" stroke-width="2"></path>
            <path d="M19.7998,17.2998 L19.7998,20.9008 C19.7998,23.0998 20.7998,24.9998 22.4008,25.4998 L19.8998,26.4008 C19.3998,26.5998 18.8998,26.4008 18.5998,26.1998 C17.3998,25.4008 16.6998,24.0998 16.6998,22.0998 L16.6998,18.2998 C16.6998,17.3998 16.2998,16.2998 15.7998,15.4998 C15.3998,14.8998 14.8998,14.4998 14.1998,14.2998 C12.9998,13.8998 11.9998,12.1998 11.9998,10.5998 C11.9998,9.1998 12.6998,8.2998 13.5998,8.1998 C13.7998,8.1998 13.9998,8.1998 14.0998,8.2998 C14.5998,8.4998 15.0998,8.5998 15.0998,8.5998 C14.7998,10.1998 15.6998,12.7998 17.4998,13.4998 C18.1998,13.7998 18.6998,14.1998 18.9998,14.7998 C19.4998,15.4998 19.7998,16.4998 19.7998,17.2998 Z M21.9998,19.9998 C21.9998,18.9008 22.2998,17.8998 23.0998,17.5998 L26.5998,16.2998 C26.6998,16.0998 26.7998,15.5998 26.7998,14.9998 C26.7998,12.7998 25.5998,11.1998 23.9998,10.6998 L14.3998,7.5998 L16.8998,6.6998 C16.9998,6.5998 17.1998,6.5998 17.3998,6.5998 C17.5998,6.5998 17.7998,6.5998 17.8998,6.6998 L27.6998,9.7998 C29.4008,10.3998 29.9998,12.4998 29.9998,13.5998 C29.9998,14.4998 29.6998,15.5998 28.6998,15.8998 C27.7998,16.1998 25.2998,17.1998 25.2998,17.1998 C25.1998,17.3998 25.0998,17.7998 25.0998,18.7998 L25.0998,22.6998 C25.0998,23.9008 24.4998,24.9998 23.4008,24.9998 C22.9008,24.9998 22.4008,24.6998 21.8998,24.2998 L21.8998,19.9998 L21.9998,19.9998 Z" id="Fill-3" fill="#333333"></path>
        </g>
    </g>
</svg>