<?xml version="1.0" encoding="UTF-8" standalone="no"?>
<svg width="80px" height="80px" viewBox="0 0 80 80" version="1.1" xmlns="http://www.w3.org/2000/svg" xmlns:xlink="http://www.w3.org/1999/xlink">
    <!-- Generator: Sketch 50.2 (55047) - http://www.bohemiancoding.com/sketch -->
    <title>icon_fab_bi_p</title>
    <desc>Created with Sketch.</desc>
    <defs></defs>
    <g id="Icon_Badge_Graphic" stroke="none" stroke-width="1" fill="none" fill-rule="evenodd">
        <g id="##Icon/FAB/BI/1Press">
            <rect id="Icon_Area" fill-opacity="0" fill="#FFFFFF" x="0" y="0" width="80" height="80"></rect>
            <g id="icon_FAB_80px_bi_p">
                <circle id="Oval" fill="#F76252" fill-rule="nonzero" cx="40" cy="40" r="40"></circle>
                <path d="M42,47.32 C42,45.02 42.61,43.03 44.25,42.43 L51.16,39.88 C51.4864847,39.0567904 51.6396757,38.1750907 51.61,37.29 C51.53,32.91 49.24,29.72 46.05,28.66 L27.13,22.5 L32.08,20.67 C32.3702964,20.5704709 32.6734004,20.5132179 32.98,20.5 C33.2963072,20.5181102 33.6106501,20.5615831 33.92,20.63 L53.24,26.92 C56.6,28.07 57.87,32.27 57.87,34.53 C57.87,36.35 57.25,38.48 55.37,39.2 L48.7,41.71 C48.3283239,42.713366 48.1617035,43.7810968 48.21,44.85 L48.21,52.63 C48.21,55.05 47.06,57.31 44.89,57.31 C43.8000133,57.2369216 42.7733743,56.7715593 42,56 L42,47.32 Z" id="Shape" fill="#FFFFFF"></path>
                <path d="M37.69,42 L37.69,49.26 C37.69,53.75 39.69,57.42 42.83,58.49 L37.89,60.32 C37.025444,60.6196757 36.067743,60.4575453 35.35,59.89 C32.96,58.23 31.69,55.71 31.69,51.78 L31.69,44.16 C31.6366686,42.1351348 30.982254,40.171891 29.81,38.52 C29.0613905,37.400931 27.9754652,36.5497057 26.71,36.09 C24.28,35.15 22.33,31.78 22.33,28.49 C22.33,25.63 23.69,23.83 25.48,23.71 C25.8179629,23.6846956 26.1576191,23.7254543 26.48,23.83 C27.56,24.18 28.39,24.52 28.39,24.52 C27.79,27.81 29.59,32.89 33.21,34.25 C34.4911902,34.6830775 35.5622792,35.5827923 36.21,36.77 C37.1525224,38.3537748 37.6628574,40.1571885 37.69,42 Z" id="Shape" fill="#FFFFFF"></path>
                <circle id="Oval" fill="#000000" fill-rule="nonzero" opacity="0.12" cx="40" cy="40" r="40"></circle>
            </g>
        </g>
    </g>
</svg>