<?xml version="1.0" encoding="UTF-8"?>
<svg width="80px" height="80px" viewBox="0 0 80 80" version="1.1" xmlns="http://www.w3.org/2000/svg" xmlns:xlink="http://www.w3.org/1999/xlink">
    <!-- Generator: Sketch 53 (72520) - https://sketchapp.com -->
    <title>icon_80px_tablet1</title>
    <desc>Created with Sketch.</desc>
    <defs>
        <path d="M28.356255,47.9734 L21.408905,47.9734 C20.621355,47.9734 19.983905,48.61085 19.983905,49.3984 C19.983905,50.185 20.621355,50.8234 21.408905,50.8234 L28.356255,50.8234 C29.142855,50.8234 29.781255,50.185 29.781255,49.3984 C29.781255,48.61085 29.142855,47.9734 28.356255,47.9734 M45.8886,54.92075 L3.8758,54.92075 C3.4749,54.92075 3.15,54.5949 3.15,54.194 L3.15,44.43465 C3.2165,44.44415 3.283,44.4546 3.3533,44.4546 L46.61535,44.4546 L46.61535,54.194 C46.61535,54.5949 46.2895,54.92075 45.8886,54.92075 M3.8758,3.35 L45.8886,3.35 C46.2895,3.35 46.61535,3.67585 46.61535,4.07675 L46.61535,41.6046 L3.3533,41.6046 C3.283,41.6046 3.2165,41.616 3.15,41.6255 L3.15,4.07675 C3.15,3.67585 3.4749,3.35 3.8758,3.35 M49.56605,43.0296 C49.56605,42.84625 49.529,42.67145 49.46535,42.5109 L49.46535,4.07675 C49.46535,2.10455 47.8608,0.5 45.8886,0.5 L3.8758,0.5 C1.90455,0.5 0.3,2.10455 0.3,4.07675 L0.3,54.194 C0.3,56.1662 1.90455,57.77075 3.8758,57.77075 L45.8886,57.77075 C47.8608,57.77075 49.46535,56.1662 49.46535,54.194 L49.46535,43.54925 C49.529,43.38775 49.56605,43.2139 49.56605,43.0296" id="path-1"></path>
    </defs>
    <g id="Icon_Badge_Graphic" stroke="none" stroke-width="1" fill="none" fill-rule="evenodd">
        <g id="##Icon/80/Tablet1">
            <g id="📌IMG-/-MyAccount" transform="translate(15.000000, 11.000000)">
                <mask id="mask-2" fill="white">
                    <use xlink:href="#path-1"></use>
                </mask>
                <use id="Mask" fill="#333333" xlink:href="#path-1"></use>
            </g>
            <rect id="Icon_Area" fill-opacity="0" fill="#FFFFFF" x="0" y="0" width="80" height="80"></rect>
        </g>
        <rect id="Rectangle-Copy" stroke="#50E3C2" stroke-width="5" fill-rule="nonzero" x="-112.5" y="-274.5" width="812" height="394"></rect>
    </g>
</svg>