<?xml version="1.0" encoding="UTF-8"?>
<svg width="80px" height="80px" viewBox="0 0 80 80" version="1.1" xmlns="http://www.w3.org/2000/svg" xmlns:xlink="http://www.w3.org/1999/xlink">
    <!-- Generator: Sketch 53 (72520) - https://sketchapp.com -->
    <title>icon_80px_pc</title>
    <desc>Created with Sketch.</desc>
    <defs>
        <path d="M60.917725,48.18325 C60.917725,48.50145 60.658725,48.76045 60.340525,48.76045 L13.5272,48.76045 C13.209,48.76045 12.95,48.50145 12.95,48.18325 L12.95,17.2272 C12.95,16.908075 13.209,16.65 13.5272,16.65 L60.340525,16.65 C60.658725,16.65 60.917725,16.908075 60.917725,17.2272 L60.917725,48.18325 Z M60.340525,13.875 L13.5272,13.875 C11.67905,13.875 10.175,15.378125 10.175,17.2272 L10.175,48.18325 C10.175,50.032325 11.67905,51.53545 13.5272,51.53545 L35.5459,51.53545 L35.5459,58.275 L27.419775,58.275 C26.65295,58.275 26.032275,58.895675 26.032275,59.6625 C26.032275,60.4284 26.65295,61.05 27.419775,61.05 L46.44795,61.05 C47.214775,61.05 47.83545,60.4284 47.83545,59.6625 C47.83545,58.895675 47.214775,58.275 46.44795,58.275 L38.3209,58.275 L38.3209,51.53545 L60.340525,51.53545 C62.188675,51.53545 63.692725,50.032325 63.692725,48.18325 L63.692725,17.2272 C63.692725,15.378125 62.188675,13.875 60.340525,13.875 L60.340525,13.875 Z" id="path-1"></path>
    </defs>
    <g id="Icon_Badge_Graphic" stroke="none" stroke-width="1" fill="none" fill-rule="evenodd">
        <g id="##Icon/80/PC">
            <g id="📌IMG-/-Device_PC" transform="translate(3.000000, 3.000000)">
                <mask id="mask-2" fill="white">
                    <use xlink:href="#path-1"></use>
                </mask>
                <g id="Mask"></g>
                <g id="🎨Color-/-#333333" mask="url(#mask-2)" fill="#333333" fill-rule="evenodd">
                    <rect id="Rectangle-2" x="0" y="0" width="74" height="74"></rect>
                </g>
            </g>
            <rect id="Icon_Area" fill-opacity="0" fill="#FFFFFF" x="0" y="0" width="80" height="80"></rect>
        </g>
        <rect id="Rectangle-Copy" stroke="#50E3C2" stroke-width="5" fill-rule="nonzero" x="-14.5" y="-274.5" width="812" height="394"></rect>
    </g>
</svg>