<?xml version="1.0" encoding="UTF-8"?>
<svg width="48px" height="48px" viewBox="0 0 48 48" version="1.1" xmlns="http://www.w3.org/2000/svg" xmlns:xlink="http://www.w3.org/1999/xlink">
    <!-- Generator: Sketch 52.4 (67378) - http://www.bohemiancoding.com/sketch -->
    <title>mdpi/##Icon/48/Tcoupon Copy 3</title>
    <desc>Created with Sketch.</desc>
    <g id="##Icon/48/Tcoupon-Copy-3" stroke="none" stroke-width="1" fill="none" fill-rule="evenodd">
        <rect id="Icon_Area" fill-opacity="0" fill="#FFFFFF" x="0" y="0" width="48" height="48"></rect>
        <g id="Group-13" transform="translate(3.000000, 8.000000)">
            <polygon id="Fill-3" fill="#333333" points="6 20.5 6 11.5 11.9 11.5 11.9 13.3 8.1 13.3 8.1 15.2 11.3 15.2 11.3 17 8.1 17 8.1 20.5"></polygon>
            <g id="Group-12">
                <path d="M18.6001,14.6001 C18.6001,14.1001 18.5001,13.8001 18.2001,13.6001 C17.9001,13.4001 17.5001,13.3001 17.0001,13.3001 L15.7001,13.3001 L15.7001,16.0001 L17.0001,16.0001 C17.5001,16.0001 17.9001,15.9001 18.2001,15.6001 C18.5001,15.4001 18.6001,15.1001 18.6001,14.6001 M20.6001,14.6001 C20.6001,15.3001 20.4001,15.9001 20.1001,16.3001 C19.8001,16.8001 19.4001,17.1001 18.9001,17.3001 L21.0001,20.4001 L18.7001,20.4001 L16.9001,17.7001 L15.7001,17.7001 L15.7001,20.4001 L13.7001,20.4001 L13.7001,13.1001 L12.7001,13.1001 L12.7001,11.4001 L17.1001,11.4001 C17.6001,11.4001 18.1001,11.5001 18.5001,11.6001 C18.9001,11.8001 19.3001,12.0001 19.6001,12.2001 C19.9001,12.5001 20.1001,12.8001 20.3001,13.2001 C20.5001,13.8001 20.6001,14.2001 20.6001,14.6001" id="Fill-4" fill="#333333"></path>
                <polygon id="Fill-6" fill="#333333" points="22.3999 20.5 22.3999 13.2 21.3999 13.2 21.3999 11.5 28.2999 11.5 28.2999 13.3 24.5999 13.3 24.5999 15 27.6999 15 27.6999 16.7 24.5999 16.7 24.5999 18.6 28.3999 18.6 28.3999 20.4 22.3999 20.4"></polygon>
                <polygon id="Fill-8" fill="#333333" points="30.1001 20.5 30.1001 13.2 29.1001 13.2 29.1001 11.5 36.0001 11.5 36.0001 13.3 32.3001 13.3 32.3001 15 35.4001 15 35.4001 16.7 32.3001 16.7 32.3001 18.6 36.0001 18.6 36.0001 20.4 30.1001 20.4"></polygon>
                <path d="M42,27 L42,5 C39.2,5 37,2.8 37,0 L5,0 C5,2.8 2.8,5 0,5 L0,27 C2.8,27 5,29.2 5,32 L37,32 C37,29.2 39.2,27 42,27 Z" id="Stroke-10" stroke="#333333" stroke-width="2"></path>
            </g>
        </g>
    </g>
</svg>