<?xml version="1.0" encoding="UTF-8" standalone="no"?>
<svg width="41px" height="41px" viewBox="0 0 41 41" version="1.1" xmlns="http://www.w3.org/2000/svg" xmlns:xlink="http://www.w3.org/1999/xlink">
    <!-- Generator: Sketch 50.2 (55047) - http://www.bohemiancoding.com/sketch -->
    <title>icon_40px_tcoupon</title>
    <desc>Created with Sketch.</desc>
    <defs></defs>
    <g id="Icon_Badge_Graphic" stroke="none" stroke-width="1" fill="none" fill-rule="evenodd">
        <g id="##Icon/40/Tcoupon">
            <rect id="Icon_Area" fill-opacity="0" fill="#FFFFFF" x="0" y="0" width="40.32" height="40.32"></rect>
            <g id="Group-15" transform="translate(1.008000, 5.376000)" stroke="#666666" stroke-width="2">
                <path d="M36.632,23.7206294 L36.632,5.29803142 C34.570015,5.00758328 32.8907621,3.49496683 32.3793206,1.504 L5.92467944,1.504 C5.41323794,3.49496683 3.73398504,5.00758328 1.672,5.29803142 L1.672,23.7206294 C3.92792183,24.0378403 5.71394369,25.8153902 6.03396724,28.064 L32.2700328,28.064 C32.5900563,25.8153902 34.3760782,24.0378403 36.632,23.7206294 Z" id="Combined-Shape"></path>
            </g>
            <path d="M20.9673395,23.0410216 C20.9673395,22.0756093 21.2290706,21.235343 21.92702,20.9850509 L24.8758562,19.9123706 C24.9456511,19.7157125 25.085241,19.3402744 25.0677923,18.8218123 C25.0328948,16.9803777 24.0557656,15.6395272 22.6947643,15.1925771 L14.616,12.6002663 L16.7272969,11.831512 C16.8319893,11.795756 16.989028,11.76 17.1111691,11.76 C17.250759,11.76 17.4077976,11.795756 17.51249,11.813634 L25.7482929,14.4595789 C27.1790892,14.942285 27.72,16.7122076 27.72,17.6597419 C27.72,18.4284961 27.458269,19.3223964 26.6556272,19.6263225 C25.940229,19.8944926 23.8114834,20.6811248 23.8114834,20.6811248 C23.7416884,20.8777829 23.6020985,21.217465 23.6020985,22.0040973 C23.6020985,22.4510474 23.6020985,24.8467002 23.6020985,25.2757723 C23.6020985,26.2948186 23.113534,27.2423529 22.188751,27.2423529 C21.7874301,27.2244749 21.333763,27.0278169 20.9673395,26.6702568 L20.9673395,23.0410216 Z M19.1477592,20.7879544 L19.1477592,23.8414278 C19.1477592,25.7273966 19.9789515,27.2720949 21.336,27.7211351 L19.2325748,28.4934842 C18.8084971,28.6551387 18.4013825,28.4934842 18.1469359,28.3138682 C17.1291495,27.6133654 16.5863301,26.5536306 16.5863301,24.9011626 C16.5863301,24.1288135 16.5863301,23.0690786 16.5863301,21.6860348 C16.5863301,20.8957241 16.2809942,19.9976437 15.7890641,19.3151026 C15.4328388,18.8121775 15.0087612,18.4888686 14.4659417,18.2912909 C13.4311922,17.8961355 12.6,16.4771685 12.6,15.0941247 C12.6,13.890697 13.1767456,13.1363094 13.9400854,13.0824246 C14.1097165,13.064463 14.2454214,13.1003862 14.3811262,13.1363094 C14.8391301,13.2800023 15.1953553,13.4236952 15.1953553,13.4236952 C14.9409087,14.806739 15.7042485,16.9441703 17.2478913,17.5189418 C17.8585631,17.7344811 18.2147883,18.0757516 18.5201243,18.5786766 C18.9272388,19.2432561 19.1477592,20.0694901 19.1477592,20.7879544 Z" id="Combined-Shape" fill="#666666" fill-rule="nonzero"></path>
        </g>
    </g>
</svg>