<?xml version="1.0" encoding="UTF-8"?>
<svg width="48px" height="48px" viewBox="0 0 48 48" version="1.1" xmlns="http://www.w3.org/2000/svg" xmlns:xlink="http://www.w3.org/1999/xlink">
    <!-- Generator: Sketch 52.4 (67378) - http://www.bohemiancoding.com/sketch -->
    <title>mdpi/##Icon/48/Tcoupon Copy</title>
    <desc>Created with Sketch.</desc>
    <g id="##Icon/48/Tcoupon-Copy" stroke="none" stroke-width="1" fill="none" fill-rule="evenodd">
        <rect id="Icon_Area" fill-opacity="0" fill="#FFFFFF" x="0" y="0" width="48" height="48"></rect>
        <g id="Group-11" transform="translate(8.000000, 3.000000)" stroke="#333333" stroke-width="2">
            <path d="M30,43 L2,43 C0.9,43 0,42.1 0,41 L0,11 C0,9.896 0.896,9 2,9 L30,9 C31.104,9 32,9.896 32,11 L32,41 C32,42.1 31.1,43 30,43 Z" id="Stroke-3"></path>
            <path d="M8,14 L12,14" id="Stroke-5" stroke-linecap="round"></path>
            <path d="M20,14 L24,14" id="Stroke-7" stroke-linecap="round"></path>
            <path d="M22,14 L22,6.158 C22,2.771 19.3,0 16,0 C12.7,0 10,2.771 10,6.158 L10,14" id="Stroke-9" stroke-linecap="round"></path>
        </g>
    </g>
</svg>