<?xml version="1.0" encoding="UTF-8"?>
<svg width="80px" height="80px" viewBox="0 0 80 80" version="1.1" xmlns="http://www.w3.org/2000/svg" xmlns:xlink="http://www.w3.org/1999/xlink">
    <!-- Generator: Sketch 53 (72520) - https://sketchapp.com -->
    <title>icon_80px_call</title>
    <desc>Created with Sketch.</desc>
    <defs>
        <path d="M61.012075,56.2493425 L56.734875,60.4960175 L56.340825,60.7818425 C54.81735,61.9908175 53.151425,62.5088175 51.13585,62.4311175 L51.1081,62.4301925 L51.081275,62.4301925 L51.079425,62.4301925 C47.4229,62.4301925 36.013025,57.2242925 26.280175,46.8476425 C16.80355,36.7447925 12.4875,27.9887425 12.4875,24.1287175 C12.4875,22.4785175 12.8353,20.1650925 14.4892,18.5204425 L19.126225,13.9120925 C19.61,13.4347925 20.537775,13.2118675 20.9568,13.5892675 L30.205875,22.9095675 C30.40105,23.1038175 30.633225,23.4099925 30.631375,23.7661175 C30.6286,24.1092925 30.4066,24.3951175 30.2068,24.5875175 L24.777975,29.9645425 L24.596675,30.1856175 C22.29065,33.6784175 28.93955,40.7518925 31.034675,42.8377675 C34.56355,46.3361175 41.0145,52.0322675 44.57575,50.8815675 L44.820875,50.8020175 L46.241675,49.6540925 L50.034175,45.7108175 C50.66965,45.0781175 51.591875,45.0781175 52.228275,45.7108175 L61.010225,54.4585425 C61.239625,54.6860925 61.5125,55.0246425 61.5125,55.3520925 C61.513425,55.6804675 61.239625,56.0217925 61.012075,56.2493425 M62.9666,52.4910675 L54.1865,43.7442675 C52.472475,42.0385675 49.788125,42.0394925 48.052825,43.7683175 L44.428675,47.5515675 L43.535125,48.2739925 C42.338175,48.3470675 38.6613,46.4915175 32.99105,40.8702925 C27.823075,35.7226675 26.74175,32.4879425 26.894375,31.7738425 L32.14745,26.5716425 C32.9522,25.7955675 33.39805,24.8058175 33.40545,23.7864675 C33.413775,22.7560175 32.971625,21.7449925 32.168725,20.9467175 L22.874325,11.5838675 C21.1566,10.0261675 18.57955,10.5543425 17.174475,11.9399925 L12.532825,16.5520425 C10.201825,18.8691675 9.7125,21.9512675 9.7125,24.1287175 C9.7125,28.3319175 13.52165,37.3016425 24.256275,48.7457425 C34.31195,59.4674175 46.26295,65.1848425 51.05445,65.2051925 C51.21355,65.2107425 51.373575,65.2125925 51.5299,65.2125925 C54.0126,65.2125925 56.150275,64.4744425 58.01415,62.9944425 L58.33975,62.7604175 C58.47295,62.6669925 58.5932,62.5652425 58.6857,62.4690425 L62.96845,58.2168175 C64.05995,57.1290175 64.288425,56.0569425 64.2875,55.3493175 C64.286575,54.6416925 64.05625,53.5714675 62.9666,52.4910675" id="path-1"></path>
    </defs>
    <g id="Icon_Badge_Graphic" stroke="none" stroke-width="1" fill="none" fill-rule="evenodd">
        <g id="##Icon/80/Call">
            <g id="📌IMG-/-Call" transform="translate(3.000000, 3.000000)">
                <mask id="mask-2" fill="white">
                    <use xlink:href="#path-1"></use>
                </mask>
                <g id="Mask"></g>
                <g id="🎨Color-/-#333333" mask="url(#mask-2)" fill="#333333" fill-rule="evenodd">
                    <rect id="Rectangle-2" x="0" y="0" width="74" height="74"></rect>
                </g>
            </g>
            <rect id="Icon_Area" fill-opacity="0" fill="#FFFFFF" x="0" y="0" width="80" height="80"></rect>
        </g>
        <rect id="Rectangle-Copy" stroke="#50E3C2" stroke-width="5" fill-rule="nonzero" x="-500.5" y="-274.5" width="812" height="394"></rect>
    </g>
</svg>