<?xml version="1.0" encoding="UTF-8"?>
<svg width="80px" height="80px" viewBox="0 0 80 80" version="1.1" xmlns="http://www.w3.org/2000/svg" xmlns:xlink="http://www.w3.org/1999/xlink">
    <!-- Generator: Sketch 53 (72520) - https://sketchapp.com -->
    <title>icon_80px_accessory</title>
    <desc>Created with Sketch.</desc>
    <defs>
        <path d="M63.3625,64.8425925 C63.3625,65.1848425 62.958275,65.5825925 62.4375,65.5825925 L37.182225,65.5825925 L37.0925,65.5825925 C36.56525,65.5825925 36.1675,65.2643925 36.1675,64.8425925 L36.1675,22.2000925 C36.1675,21.6571175 36.72065,21.4600925 37.0925,21.4600925 L62.4375,21.4600925 C62.96475,21.4600925 63.3625,21.7782925 63.3625,22.2000925 L63.3625,64.8425925 Z M11.5625,64.6575925 L11.5625,9.3425925 C11.5625,8.8412425 12.0287,8.4175925 12.58,8.4175925 L45.7875,8.4175925 C46.27775,8.4175925 46.805,8.7071175 46.805,9.3425925 L46.805,18.6850925 L37.0925,18.6850925 C35.017725,18.6850925 33.3925,20.2289175 33.3925,22.2000925 L33.3925,64.8425925 C33.3925,65.0969675 33.4221,65.3439425 33.4739,65.5825925 L12.58,65.5825925 C12.08975,65.5825925 11.5625,65.2930675 11.5625,64.6575925 L11.5625,64.6575925 Z M62.4375,18.6850925 L49.58,18.6850925 L49.58,9.3425925 C49.58,7.2678175 47.914075,5.6425925 45.7875,5.6425925 L12.58,5.6425925 C10.488575,5.6425925 8.7875,7.3020425 8.7875,9.3425925 L8.7875,64.6575925 C8.7875,66.7323675 10.453425,68.3575925 12.58,68.3575925 L37.0925,68.3575925 L37.182225,68.3575925 L62.4375,68.3575925 C64.4429,68.3575925 66.1375,66.7480925 66.1375,64.8425925 L66.1375,22.2000925 C66.1375,20.2289175 64.512275,18.6850925 62.4375,18.6850925 L62.4375,18.6850925 Z M26.3625,16.1875 C26.3625,16.7166 25.8741,17.1125 25.4375,17.1125 L18.9625,17.1125 C18.43525,17.1125 18.0375,16.71475 18.0375,16.1875 L18.0375,15.2625 C18.0375,14.73525 18.43525,14.3375 18.9625,14.3375 L25.4375,14.3375 C25.96475,14.3375 26.3625,14.73525 26.3625,15.2625 L26.3625,16.1875 Z M25.4375,11.5625 L18.9625,11.5625 C16.887725,11.5625 15.2625,13.187725 15.2625,15.2625 L15.2625,16.1875 C15.2625,18.262275 16.887725,19.8875 18.9625,19.8875 L25.4375,19.8875 C27.4429,19.8875 29.1375,18.1929 29.1375,16.1875 L29.1375,15.2625 C29.1375,13.187725 27.512275,11.5625 25.4375,11.5625 L25.4375,11.5625 Z M43.475,29.414815 C42.710025,29.414815 42.0875,28.79229 42.0875,28.027315 C42.0875,27.26234 42.710025,26.639815 43.475,26.639815 C44.239975,26.639815 44.8625,27.26234 44.8625,28.027315 C44.8625,28.79229 44.239975,29.414815 43.475,29.414815 M43.475,23.864815 C41.180075,23.864815 39.3125,25.73239 39.3125,28.027315 C39.3125,30.32224 41.180075,32.189815 43.475,32.189815 C45.769925,32.189815 47.6375,30.32224 47.6375,28.027315 C47.6375,25.73239 45.769925,23.864815 43.475,23.864815" id="path-1"></path>
    </defs>
    <g id="Icon_Badge_Graphic" stroke="none" stroke-width="1" fill="none" fill-rule="evenodd">
        <g id="##Icon/80/Accessory">
            <g id="📌IMG-/-Accessory" transform="translate(3.000000, 3.000000)">
                <mask id="mask-2" fill="white">
                    <use xlink:href="#path-1"></use>
                </mask>
                <g id="Mask"></g>
                <g id="🎨Color-/-#333333" mask="url(#mask-2)" fill="#333333" fill-rule="evenodd">
                    <rect id="Rectangle-2" x="0" y="0" width="74" height="74"></rect>
                </g>
            </g>
            <rect id="Icon_Area" fill-opacity="0" fill="#FFFFFF" x="0" y="0" width="80" height="80"></rect>
        </g>
    </g>
</svg>