<?xml version="1.0" encoding="UTF-8"?>
<svg width="80px" height="80px" viewBox="0 0 80 80" version="1.1" xmlns="http://www.w3.org/2000/svg" xmlns:xlink="http://www.w3.org/1999/xlink">
    <!-- Generator: Sketch 53 (72520) - https://sketchapp.com -->
    <title>icon_80px_accessory</title>
    <desc>Created with Sketch.</desc>
    <defs>
        <path d="M55.3625,59.8425925 C55.3625,60.1848425 54.958275,60.5825925 54.4375,60.5825925 L29.182225,60.5825925 L29.0925,60.5825925 C28.56525,60.5825925 28.1675,60.2643925 28.1675,59.8425925 L28.1675,17.2000925 C28.1675,16.6571175 28.72065,16.4600925 29.0925,16.4600925 L54.4375,16.4600925 C54.96475,16.4600925 55.3625,16.7782925 55.3625,17.2000925 L55.3625,59.8425925 Z M3.5625,59.6575925 L3.5625,4.3425925 C3.5625,3.8412425 4.0287,3.4175925 4.58,3.4175925 L37.7875,3.4175925 C38.27775,3.4175925 38.805,3.7071175 38.805,4.3425925 L38.805,13.6850925 L29.0925,13.6850925 C27.017725,13.6850925 25.3925,15.2289175 25.3925,17.2000925 L25.3925,59.8425925 C25.3925,60.0969675 25.4221,60.3439425 25.4739,60.5825925 L4.58,60.5825925 C4.08975,60.5825925 3.5625,60.2930675 3.5625,59.6575925 L3.5625,59.6575925 Z M54.4375,13.6850925 L41.58,13.6850925 L41.58,4.3425925 C41.58,2.2678175 39.914075,0.6425925 37.7875,0.6425925 L4.58,0.6425925 C2.488575,0.6425925 0.7875,2.3020425 0.7875,4.3425925 L0.7875,59.6575925 C0.7875,61.7323675 2.453425,63.3575925 4.58,63.3575925 L29.0925,63.3575925 L29.182225,63.3575925 L54.4375,63.3575925 C56.4429,63.3575925 58.1375,61.7480925 58.1375,59.8425925 L58.1375,17.2000925 C58.1375,15.2289175 56.512275,13.6850925 54.4375,13.6850925 L54.4375,13.6850925 Z M18.3625,11.1875 C18.3625,11.7166 17.8741,12.1125 17.4375,12.1125 L10.9625,12.1125 C10.43525,12.1125 10.0375,11.71475 10.0375,11.1875 L10.0375,10.2625 C10.0375,9.73525 10.43525,9.3375 10.9625,9.3375 L17.4375,9.3375 C17.96475,9.3375 18.3625,9.73525 18.3625,10.2625 L18.3625,11.1875 Z M17.4375,6.5625 L10.9625,6.5625 C8.887725,6.5625 7.2625,8.187725 7.2625,10.2625 L7.2625,11.1875 C7.2625,13.262275 8.887725,14.8875 10.9625,14.8875 L17.4375,14.8875 C19.4429,14.8875 21.1375,13.1929 21.1375,11.1875 L21.1375,10.2625 C21.1375,8.187725 19.512275,6.5625 17.4375,6.5625 L17.4375,6.5625 Z M35.475,24.414815 C34.710025,24.414815 34.0875,23.79229 34.0875,23.027315 C34.0875,22.26234 34.710025,21.639815 35.475,21.639815 C36.239975,21.639815 36.8625,22.26234 36.8625,23.027315 C36.8625,23.79229 36.239975,24.414815 35.475,24.414815 M35.475,18.864815 C33.180075,18.864815 31.3125,20.73239 31.3125,23.027315 C31.3125,25.32224 33.180075,27.189815 35.475,27.189815 C37.769925,27.189815 39.6375,25.32224 39.6375,23.027315 C39.6375,20.73239 37.769925,18.864815 35.475,18.864815" id="path-1"></path>
    </defs>
    <g id="Icon_Badge_Graphic" stroke="none" stroke-width="1" fill="none" fill-rule="evenodd">
        <g id="##Icon/80/Accessory">
            <g id="📌IMG-/-MyAccount" transform="translate(11.000000, 8.000000)">
                <mask id="mask-2" fill="white">
                    <use xlink:href="#path-1"></use>
                </mask>
                <use id="Mask" fill="#333333" xlink:href="#path-1"></use>
            </g>
            <rect id="Icon_Area" fill-opacity="0" fill="#FFFFFF" x="0" y="0" width="80" height="80"></rect>
        </g>
        <rect id="Rectangle-Copy" stroke="#50E3C2" stroke-width="5" fill-rule="nonzero" x="-401.5" y="-274.5" width="812" height="394"></rect>
    </g>
</svg>