<?xml version="1.0" encoding="UTF-8" standalone="no"?>
<svg width="48px" height="48px" viewBox="0 0 48 48" version="1.1" xmlns="http://www.w3.org/2000/svg" xmlns:xlink="http://www.w3.org/1999/xlink">
    <!-- Generator: Sketch 50.2 (55047) - http://www.bohemiancoding.com/sketch -->
    <title>icon_48px_event</title>
    <desc>Created with Sketch.</desc>
    <defs></defs>
    <g id="Icon_Badge_Graphic" stroke="none" stroke-width="1" fill="none" fill-rule="evenodd">
        <g id="##Icon/48/Event">
            <rect id="Icon_Area" fill-opacity="0" fill="#FFFFFF" x="0" y="0" width="48" height="48"></rect>
            <rect id="Rectangle-7" stroke="#333333" stroke-width="2" x="5" y="7" width="38" height="36" rx="4.32"></rect>
            <path d="M18.0271444,21.6245955 L15.5445168,21.6245955 C15.6737249,20.6399088 16.0336561,19.8485467 16.6243214,19.2504854 C17.4487917,18.4168243 18.4855167,18 19.7345277,18 C20.8481778,18 21.7818457,18.3473536 22.5355592,19.0420712 C23.2892727,19.7367888 23.6661238,20.561376 23.6661238,21.5158576 C23.6661238,22.1078778 23.5015398,22.6485412 23.172367,23.1378641 C22.8431942,23.6271869 22.364824,24.022868 21.7372421,24.3249191 C22.5617124,24.56656 23.2062047,24.987915 23.6707383,25.5889968 C24.135272,26.1900785 24.3675353,26.8983778 24.3675353,27.7139159 C24.3675353,28.9100383 23.9183903,29.9234047 23.0200869,30.7540453 C22.1217834,31.5846859 20.9773866,32 19.5868621,32 C18.2701708,32 17.1965297,31.6088497 16.3659066,30.8265372 C15.5352836,30.0442248 15.0799859,28.9795105 15,27.6323625 L17.5564604,27.6323625 C17.6672101,28.321039 17.9117788,28.833008 18.2901737,29.1682848 C18.6685687,29.5035615 19.1469388,29.6711974 19.7252986,29.6711974 C20.3282694,29.6711974 20.8281739,29.4809081 21.2250271,29.1003236 C21.6218804,28.7197392 21.820304,28.2545874 21.820304,27.7048544 C21.820304,27.1007521 21.5526628,26.5902933 21.0173724,26.1734628 C20.482082,25.7566322 19.7099218,25.5421791 18.7008686,25.5300971 L18.7008686,23.3553398 C19.3222977,23.3070116 19.7852862,23.2118669 20.089848,23.0699029 C20.3944098,22.9279389 20.6312876,22.7331188 20.8004886,22.4854369 C20.9696896,22.237755 21.0542888,21.9749744 21.0542888,21.6970874 C21.0542888,21.334626 20.9250827,21.0340897 20.6666667,20.7954693 C20.4082506,20.5568489 20.0698537,20.4375405 19.6514658,20.4375405 C19.2823,20.4375405 18.9469794,20.5477875 18.645494,20.7682848 C18.3440086,20.9887821 18.1378941,21.2742162 18.0271444,21.6245955 Z M28.1330076,18.3352751 L32,18.3352751 L32,31.6647249 L29.4343105,31.6647249 L29.4343105,20.7184466 L26.6378936,20.7184466 L28.1330076,18.3352751 Z" id="31" fill="#333333"></path>
            <path d="M17,3.44444444 L17,10.5555556" id="Line" stroke="#333333" stroke-width="2" stroke-linecap="round"></path>
            <path d="M31,3.44444444 L31,10.5555556" id="Line-Copy" stroke="#333333" stroke-width="2" stroke-linecap="round"></path>
        </g>
    </g>
</svg>