<?xml version="1.0" encoding="UTF-8"?>
<svg width="80px" height="80px" viewBox="0 0 80 80" version="1.1" xmlns="http://www.w3.org/2000/svg" xmlns:xlink="http://www.w3.org/1999/xlink">
    <!-- Generator: Sketch 53 (72520) - https://sketchapp.com -->
    <title>icon_80px_watch</title>
    <desc>Created with Sketch.</desc>
    <defs>
        <path d="M54.0199075,53.1875 C54.0199075,53.8054 53.5250325,54.39 53.0024075,54.39 L19.9799075,54.39 C19.3425825,54.39 18.9624075,53.778575 18.9624075,53.1875 L18.9624075,20.72 C18.9624075,20.1021 19.4572825,19.5175 19.9799075,19.5175 L53.0024075,19.5175 C53.4917325,19.5175 54.0199075,19.977225 54.0199075,20.72 L54.0199075,53.1875 Z M44.8069075,66.834025 L44.6977575,67.2327 C44.6126575,67.557375 44.4822325,68.0467 44.4045325,68.1392 C44.4045325,68.1392 44.3323825,68.1725 44.1224075,68.1725 L29.2299075,68.1725 C28.8913575,68.1725 28.8488075,68.1725 28.5315325,67.0218 L26.4965325,57.165 L46.7864075,57.165 L44.8069075,66.834025 Z M28.3511575,7.202975 L28.4547575,6.799675 C28.5454075,6.4417 28.6702825,5.952375 28.7331825,5.863575 C28.7341075,5.86265 28.8136575,5.8275 29.0449075,5.8275 L43.8449075,5.8275 C44.1908575,5.8275 44.2269325,5.8275 44.5386575,6.8894 L46.5015075,16.7425 L26.3846075,16.7425 L28.3511575,7.202975 Z M57.7199075,27.4725 C57.3952325,27.4725 57.0816575,27.5428 56.7949075,27.667675 L56.7949075,20.72 C56.7949075,18.526825 55.0938325,16.7425 53.0024075,16.7425 L49.3347825,16.7425 L47.3340075,6.57675 L47.2008075,6.109625 C46.8881575,5.04125 46.3063325,3.0525 43.8449075,3.0525 L29.0449075,3.0525 C26.5437075,3.0525 26.0756575,4.896025 25.7657825,6.1161 L23.5531825,16.7425 L19.9799075,16.7425 C17.9245575,16.7425 16.1874075,18.563825 16.1874075,20.72 L16.1874075,53.1875 C16.1874075,55.380675 17.8884825,57.165 19.9799075,57.165 L23.6595575,57.165 L25.7435825,67.340925 L25.8555075,67.7581 C26.1848075,68.95135 26.7333325,70.9475 29.2299075,70.9475 L44.1224075,70.9475 C46.5829075,70.9475 47.0824075,69.0679 47.3802575,67.94495 L49.6150575,57.165 L53.0024075,57.165 C55.0586825,57.165 56.7949075,55.343675 56.7949075,53.1875 L56.7949075,36.804825 C57.0816575,36.9297 57.3952325,37 57.7199075,37 C59.0149075,37 60.1249075,35.7975 60.1249075,34.595 L60.1249075,29.8775 C60.1249075,28.5825 59.0149075,27.4725 57.7199075,27.4725 L57.7199075,27.4725 Z" id="path-1"></path>
    </defs>
    <g id="Icon_Badge_Graphic" stroke="none" stroke-width="1" fill="none" fill-rule="evenodd">
        <g id="##Icon/80/Watch">
            <g id="📌IMG-/-Device_Watch" transform="translate(3.000000, 3.000000)">
                <mask id="mask-2" fill="white">
                    <use xlink:href="#path-1"></use>
                </mask>
                <g id="Mask"></g>
                <g id="🎨Color-/-#333333" mask="url(#mask-2)" fill="#333333" fill-rule="evenodd">
                    <rect id="Rectangle-2" x="0" y="0" width="74" height="74"></rect>
                </g>
            </g>
            <rect id="Icon_Area" fill-opacity="0" fill="#FFFFFF" x="0" y="0" width="80" height="80"></rect>
        </g>
        <rect id="Rectangle-Copy" stroke="#50E3C2" stroke-width="5" fill-rule="nonzero" x="-308.5" y="-274.5" width="812" height="394"></rect>
    </g>
</svg>