<?xml version="1.0" encoding="UTF-8"?>
<svg width="80px" height="80px" viewBox="0 0 80 80" version="1.1" xmlns="http://www.w3.org/2000/svg" xmlns:xlink="http://www.w3.org/1999/xlink">
    <!-- Generator: Sketch 53 (72520) - https://sketchapp.com -->
    <title>icon_80px_tmembership</title>
    <desc>Created with Sketch.</desc>
    <defs>
        <path d="M54.65,41 C54.65,42.2402 53.6402,43.25 52.4,43.25 L5.6,43.25 C4.3598,43.25 3.35,42.2402 3.35,41 L3.35,5 C3.35,3.7598 4.3598,2.75 5.6,2.75 L52.4,2.75 C53.6402,2.75 54.65,3.7598 54.65,5 L54.65,41 Z M52.4,0.05 L5.6,0.05 C2.8703,0.05 0.65,2.2703 0.65,5 L0.65,41 C0.65,43.7297 2.8703,45.95 5.6,45.95 L52.4,45.95 C55.1297,45.95 57.35,43.7297 57.35,41 L57.35,5 C57.35,2.2703 55.1297,0.05 52.4,0.05 L52.4,0.05 Z M27.91415,28.38065 L27.91415,23.83655 C27.91415,22.76735 27.58655,21.53705 26.98265,20.54795 C26.52995,19.80005 26.00165,19.29155 25.09535,18.97115 C22.80575,18.11525 21.67265,14.93465 22.05065,12.87545 C22.05065,12.87545 21.52145,12.66215 20.84285,12.44795 C20.64125,12.39485 20.43965,12.34175 20.18855,12.36785 C19.05545,12.44795 18.20045,13.57115 18.20045,15.36215 C18.20045,17.42045 19.43345,19.53185 20.96795,20.12045 C21.77345,20.41475 22.40255,20.89625 22.93085,21.64415 C23.66075,22.66025 24.11435,23.99675 24.11435,25.17305 L24.11435,29.95745 C24.11435,32.41715 24.91895,33.99485 26.42915,35.03705 C26.80715,35.30435 27.41015,35.54465 28.04015,35.30435 L31.16045,34.15505 C29.14715,33.48635 27.91415,31.18775 27.91415,28.38065 M37.70642,14.41796 L25.48802,10.48046 C25.33232,10.45346 25.10012,10.40036 24.89222,10.40036 C24.71132,10.40036 24.47822,10.45346 24.32252,10.50656 L21.19052,11.65046 L33.17582,15.50876 C35.19542,16.17386 36.64442,18.16916 36.69662,20.90966 C36.72272,21.68186 36.51572,22.24076 36.41222,22.53326 L32.03732,24.12986 C31.00142,24.50246 30.61352,25.75256 30.61352,27.18986 L30.61352,32.59076 C31.15712,33.12356 31.83032,33.41606 32.42522,33.44216 C33.79772,33.44216 34.52222,32.03186 34.52222,30.51536 L34.52222,25.64636 C34.52222,24.47546 34.72922,23.96966 34.83272,23.67716 C34.83272,23.67716 37.99082,22.50626 39.05282,22.10756 C40.24262,21.65576 40.63142,20.32466 40.63142,19.18076 C40.63142,17.77046 39.82862,15.13616 37.70642,14.41796" id="path-1"></path>
    </defs>
    <g id="Icon_Badge_Graphic" stroke="none" stroke-width="1" fill="none" fill-rule="evenodd">
        <g id="##Icon/80/Tmembership">
            <g id="📌IMG-/-MyAccount" transform="translate(11.000000, 17.000000)">
                <mask id="mask-2" fill="white">
                    <use xlink:href="#path-1"></use>
                </mask>
                <use id="Mask" fill="#333333" xlink:href="#path-1"></use>
            </g>
            <rect id="Icon_Area" fill-opacity="0" fill="#FFFFFF" x="0" y="0" width="80" height="80"></rect>
        </g>
        <rect id="Rectangle-Copy" stroke="#50E3C2" stroke-width="5" fill-rule="nonzero" x="-210.5" y="-162.5" width="812" height="394"></rect>
    </g>
</svg>