<?xml version="1.0" encoding="UTF-8"?>
<svg width="80px" height="80px" viewBox="0 0 80 80" version="1.1" xmlns="http://www.w3.org/2000/svg" xmlns:xlink="http://www.w3.org/1999/xlink">
    <!-- Generator: Sketch 52.6 (67491) - http://www.bohemiancoding.com/sketch -->
    <title>icon_80px_tablet1</title>
    <desc>Created with Sketch.</desc>
    <defs>
        <path d="M43.5329,59.972 L36.2199,59.972 C35.3909,59.972 34.7199,60.643 34.7199,61.472 C34.7199,62.3 35.3909,62.972 36.2199,62.972 L43.5329,62.972 C44.3609,62.972 45.0329,62.3 45.0329,61.472 C45.0329,60.643 44.3609,59.972 43.5329,59.972 M61.988,67.285 L17.764,67.285 C17.342,67.285 17,66.942 17,66.52 L17,56.247 C17.07,56.257 17.14,56.268 17.214,56.268 L62.753,56.268 L62.753,66.52 C62.753,66.942 62.41,67.285 61.988,67.285 M17.764,13 L61.988,13 C62.41,13 62.753,13.343 62.753,13.765 L62.753,53.268 L17.214,53.268 C17.14,53.268 17.07,53.28 17,53.29 L17,13.765 C17,13.343 17.342,13 17.764,13 M65.859,54.768 C65.859,54.575 65.82,54.391 65.753,54.222 L65.753,13.765 C65.753,11.689 64.064,10 61.988,10 L17.764,10 C15.689,10 14,11.689 14,13.765 L14,66.52 C14,68.596 15.689,70.285 17.764,70.285 L61.988,70.285 C64.064,70.285 65.753,68.596 65.753,66.52 L65.753,55.315 C65.82,55.145 65.859,54.962 65.859,54.768" id="path-1"></path>
    </defs>
    <g id="Icon_Badge_Graphic" stroke="none" stroke-width="1" fill="none" fill-rule="evenodd">
        <g id="##Icon/80/Tablet1">
            <mask id="mask-2" fill="white">
                <use xlink:href="#path-1"></use>
            </mask>
            <use id="Mask" fill="#333333" xlink:href="#path-1"></use>
            <rect id="Icon_Area" fill-opacity="0" fill="#FFFFFF" x="0" y="0" width="80" height="80"></rect>
        </g>
    </g>
</svg>