<?xml version="1.0" encoding="UTF-8"?>
<svg width="80px" height="80px" viewBox="0 0 80 80" version="1.1" xmlns="http://www.w3.org/2000/svg" xmlns:xlink="http://www.w3.org/1999/xlink">
    <!-- Generator: Sketch 53 (72520) - https://sketchapp.com -->
    <title>icon_80px_watch</title>
    <desc>Created with Sketch.</desc>
    <defs>
        <path d="M38.0199075,50.1875 C38.0199075,50.8054 37.5250325,51.39 37.0024075,51.39 L3.9799075,51.39 C3.3425825,51.39 2.9624075,50.778575 2.9624075,50.1875 L2.9624075,17.72 C2.9624075,17.1021 3.4572825,16.5175 3.9799075,16.5175 L37.0024075,16.5175 C37.4917325,16.5175 38.0199075,16.977225 38.0199075,17.72 L38.0199075,50.1875 Z M28.8069075,63.834025 L28.6977575,64.2327 C28.6126575,64.557375 28.4822325,65.0467 28.4045325,65.1392 C28.4045325,65.1392 28.3323825,65.1725 28.1224075,65.1725 L13.2299075,65.1725 C12.8913575,65.1725 12.8488075,65.1725 12.5315325,64.0218 L10.4965325,54.165 L30.7864075,54.165 L28.8069075,63.834025 Z M12.3511575,4.202975 L12.4547575,3.799675 C12.5454075,3.4417 12.6702825,2.952375 12.7331825,2.863575 C12.7341075,2.86265 12.8136575,2.8275 13.0449075,2.8275 L27.8449075,2.8275 C28.1908575,2.8275 28.2269325,2.8275 28.5386575,3.8894 L30.5015075,13.7425 L10.3846075,13.7425 L12.3511575,4.202975 Z M41.7199075,24.4725 C41.3952325,24.4725 41.0816575,24.5428 40.7949075,24.667675 L40.7949075,17.72 C40.7949075,15.526825 39.0938325,13.7425 37.0024075,13.7425 L33.3347825,13.7425 L31.3340075,3.57675 L31.2008075,3.109625 C30.8881575,2.04125 30.3063325,0.0525 27.8449075,0.0525 L13.0449075,0.0525 C10.5437075,0.0525 10.0756575,1.896025 9.7657825,3.1161 L7.5531825,13.7425 L3.9799075,13.7425 C1.9245575,13.7425 0.1874075,15.563825 0.1874075,17.72 L0.1874075,50.1875 C0.1874075,52.380675 1.8884825,54.165 3.9799075,54.165 L7.6595575,54.165 L9.7435825,64.340925 L9.8555075,64.7581 C10.1848075,65.95135 10.7333325,67.9475 13.2299075,67.9475 L28.1224075,67.9475 C30.5829075,67.9475 31.0824075,66.0679 31.3802575,64.94495 L33.6150575,54.165 L37.0024075,54.165 C39.0586825,54.165 40.7949075,52.343675 40.7949075,50.1875 L40.7949075,33.804825 C41.0816575,33.9297 41.3952325,34 41.7199075,34 C43.0149075,34 44.1249075,32.7975 44.1249075,31.595 L44.1249075,26.8775 C44.1249075,25.5825 43.0149075,24.4725 41.7199075,24.4725 L41.7199075,24.4725 Z" id="path-1"></path>
    </defs>
    <g id="Icon_Badge_Graphic" stroke="none" stroke-width="1" fill="none" fill-rule="evenodd">
        <g id="##Icon/80/Watch">
            <g id="📌IMG-/-MyAccount" transform="translate(19.000000, 6.000000)">
                <mask id="mask-2" fill="white">
                    <use xlink:href="#path-1"></use>
                </mask>
                <use id="Mask" fill="#333333" xlink:href="#path-1"></use>
            </g>
            <rect id="Icon_Area" fill-opacity="0" fill="#FFFFFF" x="0" y="0" width="80" height="80"></rect>
        </g>
        <rect id="Rectangle-Copy" stroke="#50E3C2" stroke-width="5" fill-rule="nonzero" x="-308.5" y="-274.5" width="812" height="394"></rect>
    </g>
</svg>