<?xml version="1.0" encoding="UTF-8" standalone="no"?>
<svg width="80px" height="80px" viewBox="0 0 80 80" version="1.1" xmlns="http://www.w3.org/2000/svg" xmlns:xlink="http://www.w3.org/1999/xlink">
    <!-- Generator: Sketch 50.2 (55047) - http://www.bohemiancoding.com/sketch -->
    <title>icon_80px_immediate</title>
    <desc>Created with Sketch.</desc>
    <defs></defs>
    <g id="Icon_Badge_Graphic" stroke="none" stroke-width="1" fill="none" fill-rule="evenodd">
        <g id="##Icon/80/Immediate">
            <rect id="Icon_Area" fill-opacity="0" fill="#FFFFFF" x="0" y="0" width="80" height="80"></rect>
            <g id="Group-12" transform="translate(2.000000, 14.000000)">
                <path d="M50.40017,15.0389172 C46.1259768,6.14197045 37.0302554,0 26.5,0 C11.8644541,0 0,11.8644541 0,26.5 C0,41.1355459 11.8644541,53 26.5,53 C36.5301424,53 45.2587755,47.4275766 49.7589244,39.2097049 C49.9029053,38.9467766 50.0425577,38.6811403 50.1777856,38.4128917" id="Oval-17-Copy" stroke="#333333" stroke-width="3" stroke-linecap="round"></path>
                <path d="M74.9683689,2.14794579 C71.7571324,0.765675314 68.2179827,0 64.5,0 C49.8644541,0 38,11.8644541 38,26.5 C38,41.1355459 49.8644541,53 64.5,53 C68.450263,53 72.1986499,52.1356653 75.5663572,50.5857993" id="Oval-17-Copy-2" stroke="#333333" stroke-width="3" transform="translate(56.783179, 26.500000) scale(-1, 1) translate(-56.783179, -26.500000) "></path>
                <polyline id="Path-4-Copy" stroke="#333333" stroke-width="3" stroke-linecap="round" stroke-linejoin="round" points="15 19 20.8095974 35 26.6191949 19 32.4287923 35 38.2383897 19"></polyline>
                <path d="M14,27 L40,27" id="Line-13-Copy" stroke="#333333" stroke-width="3" stroke-linecap="round" stroke-linejoin="round"></path>
                <path d="M50,27 L61.5108644,27" id="Line-13-Copy-2" stroke="#333333" stroke-width="3" stroke-linecap="round" stroke-linejoin="round"></path>
                <polygon id="Path-8" fill="#333333" points="58 20 58 34.1291994 66 27.0825008"></polygon>
            </g>
        </g>
    </g>
</svg>