<?xml version="1.0" encoding="UTF-8"?>
<svg width="48px" height="48px" viewBox="0 0 48 48" version="1.1" xmlns="http://www.w3.org/2000/svg" xmlns:xlink="http://www.w3.org/1999/xlink">
    <!-- Generator: Sketch 52.5 (67469) - http://www.bohemiancoding.com/sketch -->
    <title>icon_48px_coupon_refill</title>
    <desc>Created with Sketch.</desc>
    <g id="Icon_Badge_Graphic" stroke="none" stroke-width="1" fill="none" fill-rule="evenodd">
        <g id="##Icon/48/CouponRefill">
            <rect id="Icon_Area" fill-opacity="0" fill="#FFFFFF" x="0" y="0" width="48" height="48"></rect>
            <g id="Group-15" transform="translate(2.000000, 7.000000)" stroke="#333333" stroke-width="2">
                <path d="M28.75,1.42105263 L28.75,32.1578947" id="Stroke-5" stroke-linecap="square" stroke-dasharray="1.684210526315789,4.210526315789473,1.684210526315789,4.210526315789473"></path>
                <path d="M43,27.806746 L43,5.53932024 C40.4975937,5.25741883 38.4534933,3.41927119 37.8964795,1 L6.10352046,1 C5.54650671,3.41927119 3.50240633,5.25741883 1,5.53932024 L1,27.806746 C3.73387915,28.1141084 5.90535533,30.2752969 6.21565283,33 L37.7843472,33 C38.0946447,30.2752969 40.2661209,28.1141084 43,27.806746 Z" id="Combined-Shape"></path>
                <path d="M19.3333333,13.6315789 L11,22.0526316" id="Stroke-9" stroke-linecap="square"></path>
                <path d="M10.1666667,11.9473684 C11.5475,11.9473684 12.6666667,13.0783158 12.6666667,14.4736842 C12.6666667,15.8690526 11.5475,17 10.1666667,17 C8.78583333,17 7.66666667,15.8690526 7.66666667,14.4736842 C7.66666667,13.0783158 8.78583333,11.9473684 10.1666667,11.9473684 Z" id="Stroke-11"></path>
                <path d="M20.1666667,18.6842105 C21.5475,18.6842105 22.6666667,19.8151579 22.6666667,21.2105263 C22.6666667,22.6058947 21.5475,23.7368421 20.1666667,23.7368421 C18.7858333,23.7368421 17.6666667,22.6058947 17.6666667,21.2105263 C17.6666667,19.8151579 18.7858333,18.6842105 20.1666667,18.6842105 Z" id="Stroke-13"></path>
            </g>
        </g>
    </g>
</svg>