<?xml version="1.0" encoding="UTF-8" standalone="no"?>
<svg width="48px" height="48px" viewBox="0 0 48 48" version="1.1" xmlns="http://www.w3.org/2000/svg" xmlns:xlink="http://www.w3.org/1999/xlink">
    <!-- Generator: Sketch 50.2 (55047) - http://www.bohemiancoding.com/sketch -->
    <title>icon_48px_notice</title>
    <desc>Created with Sketch.</desc>
    <defs></defs>
    <g id="Icon_Badge_Graphic" stroke="none" stroke-width="1" fill="none" fill-rule="evenodd">
        <g id="##Icon/48/notice">
            <rect id="Icon_Area" fill-opacity="0" fill="#FFFFFF" x="0" y="0" width="48" height="48"></rect>
            <g id="icon_48px_notice" transform="translate(11.000000, 11.000000)" stroke="#333333" stroke-width="2">
                <path d="M8,17.5996 C8,18.2006 8.4,18.7996 9,18.9996 L24.2,24.9006 C25.2,25.2006 26,24.4996 26,23.4996 L26,2.5996 C26,1.4996 25,0.7006 24,0.9996 L9,6.9996 C8.4,7.2006 8,7.7996 8,8.3996" id="Stroke-3" stroke-linejoin="round"></path>
                <path d="M1.2002,19 L8.0002,19 L8.0002,7 L1.2002,7 C0.6002,7 0.0002,7.5 0.0002,8.2 L0.0002,17.9 C0.0002,18.5 0.5002,19 1.2002,19 Z" id="Stroke-5"></path>
                <path d="M4.6001,18.7998 C3.9001,21.4998 5.9001,24.0998 8.9001,24.6998 C11.9001,25.2998 14.8001,23.5998 15.5001,20.9008" id="Stroke-7"></path>
            </g>
        </g>
    </g>
</svg>