<?xml version="1.0" encoding="UTF-8" standalone="no"?>
<svg width="80px" height="80px" viewBox="0 0 80 80" version="1.1" xmlns="http://www.w3.org/2000/svg" xmlns:xlink="http://www.w3.org/1999/xlink">
    <!-- Generator: Sketch 50.2 (55047) - http://www.bohemiancoding.com/sketch -->
    <title>icon_80px_nugu</title>
    <desc>Created with Sketch.</desc>
    <defs></defs>
    <g id="Icon_Badge_Graphic" stroke="none" stroke-width="1" fill="none" fill-rule="evenodd">
        <g id="##Icon/80/Nugu">
            <rect id="Icon_Area" fill-opacity="0" fill="#FFFFFF" x="0" y="0" width="80" height="80"></rect>
            <g id="icon_80px_nugu" transform="translate(15.000000, 7.000000)" fill="#333333" fill-rule="nonzero">
                <path d="M4.8,14.5 C5.1,14.5 5.4,14.5 5.7,14.6 C5.5,14.5 5.1,14.5 4.8,14.5 Z" id="Shape"></path>
                <path d="M4.1,14.6 C4.4,14.6 4.6,14.5 4.9,14.5 C4.6,14.5 4.3,14.5 4.1,14.6 Z" id="Shape"></path>
                <path d="M3.2,14.8 C3.3,14.8 3.6,14.7 3.7,14.7 C3.6,14.8 3.5,14.8 3.2,14.8 Z" id="Shape"></path>
                <path d="M2.5,15.3 C2.6,15.2 2.9,15.1 3,15.1 C2.8,15 2.6,15.1 2.5,15.3 Z" id="Shape"></path>
                <path d="M3,14.9 C3.1,14.9 3.1,14.8 3.3,14.8 C3.2,14.9 3.1,14.9 3,14.9 Z" id="Shape"></path>
                <path d="M2.3,15.3 C2.3,15.3 2.5,15.3 2.3,15.3 C2.5,15.3 2.3,15.3 2.3,15.3 Z" id="Shape"></path>
                <path d="M3.7,14.6 C3.8,14.6 3.9,14.6 3.9,14.5 C4,14.6 3.8,14.6 3.7,14.6 Z" id="Shape"></path>
                <path d="M12.7,6.6 C12.7,6.8 12.7,6.8 12.7,6.6 Z" id="Shape"></path>
                <path d="M12.8,7.8 C12.8,7.7 12.8,7.7 12.8,7.5 C12.8,7.5 12.8,7.6 12.8,7.8 Z" id="Shape"></path>
                <path d="M12.7,6.8 C12.7,7.1 12.7,7.3 12.8,7.6 C12.7,7.3 12.7,7 12.7,6.8 Z" id="Shape"></path>
                <path d="M32.7,41 C31.5,41 30.3,41.5 29.5,42.2 L13.8,57.9 C13,58.6 12.6,59.8 12.6,61 C12.6,63.4 14.6,65.5 17.1,65.5 C18.3,65.5 19.3,65 20.3,64.3 L36.1,48.7 C36.8,48 37.3,46.8 37.3,45.6 C37.2,43 35.2,41 32.7,41 Z" id="Shape"></path>
                <path d="M24.7,41 L14.1,41 C11.2,41 8.9,38.6 8.9,35.8 L8.9,23 L8.9,17.9 C8.9,17.7 8.9,17.5 8.9,17.3 C8.9,15.2 7.4,13.4 5.4,12.9 C5.2,12.9 4.8,12.8 4.5,12.8 C4.2,12.8 4,12.8 3.7,12.9 C3.6,12.9 3.5,12.9 3.5,13 C3.4,13 3.1,13.1 3,13.1 C2.9,13.1 2.9,13.2 2.8,13.2 C2.7,13.3 2.4,13.3 2.3,13.5 C2.3,13.5 2.2,13.5 2.2,13.6 C1.1,14.4 0.3,15.7 0.3,17.2 C0.3,17.4 0.3,17.6 0.3,17.8 L0.3,34 C0.3,35.1 0.3,37.1 0.4,37.4 C0.5,38.5 0.7,39.5 1,40.6 C2.4,44.4 5.4,47.2 9,48.6 C10,49 11.5,49.3 12.5,49.3 L16.8,49.3 C16.9,49.3 16.9,49.3 17,49.2 L25.1,41.1 C25.1,41.2 25,41 24.7,41 Z" id="Shape"></path>
                <path d="M49.2,9.1 C47.8,5.4 45.1,2.5 41.2,1.1 C40.8,1 40.4,0.9 40.1,0.7 C39.2,0.6 38.3,0.5 37.5,0.5 L18,0.5 L17,0.5 C14.5,0.5 12.6,2.5 12.5,4.9 C12.5,5.2 12.5,5.4 12.6,5.7 C12.6,5.4 12.5,5.2 12.5,4.9 C12.5,7.4 14.5,9.4 17,9.4 L23.1,9.4 L35.9,9.4 C38.8,9.4 41.1,11.8 41.1,14.6 L41.1,27.3 L41.1,32.4 C41.1,32.6 41.1,32.8 41.1,32.9 C41.1,32.9 41.1,32.9 41.1,33 C41.1,33 41.1,33 41.1,33.1 C41.1,35.2 42.6,37 44.6,37.3 L44.7,37.3 C44.9,37.3 45.2,37.4 45.6,37.4 C45.8,37.4 46.1,37.4 46.5,37.3 C46.6,37.3 46.6,37.3 46.7,37.3 C47,37.3 47.1,37.2 47.3,37.2 C47.4,37.2 47.4,37.2 47.6,37.1 C47.8,37 48.1,36.9 48.2,36.7 C49.3,35.9 50.2,34.6 50.2,32.9 L50.2,12.6 C49.8,11.4 49.6,10.1 49.2,9.1 Z" id="Shape"></path>
            </g>
        </g>
    </g>
</svg>