<?xml version="1.0" encoding="UTF-8"?>
<svg width="32px" height="32px" viewBox="0 0 32 32" version="1.1" xmlns="http://www.w3.org/2000/svg" xmlns:xlink="http://www.w3.org/1999/xlink">
    <!-- Generator: Sketch 52.4 (67378) - http://www.bohemiancoding.com/sketch -->
    <title>mdpi/##Icon/32/Timer Copy 4</title>
    <desc>Created with Sketch.</desc>
    <g id="##Icon/32/Timer-Copy-4" stroke="none" stroke-width="1" fill="none" fill-rule="evenodd">
        <rect id="Icon_Area" fill-opacity="0" fill="#FFFFFF" x="0" y="0" width="32" height="32"></rect>
        <g id="Group-15" transform="translate(4.000000, 3.000000)" stroke="#666666" stroke-width="2">
            <path d="M19.5,3 C19.5,4.657 15.247,6 10,6 C4.753,6 0.5,4.657 0.5,3 C0.5,1.344 4.753,0 10,0 C15.247,0 19.5,1.344 19.5,3 Z" id="Stroke-3" stroke-linecap="round" stroke-linejoin="round"></path>
            <path d="M19.5,8.5 C19.5,10.157 15.247,11.5 10,11.5 C4.753,11.5 0.5,10.157 0.5,8.5" id="Stroke-5" stroke-linecap="round" stroke-linejoin="round"></path>
            <path d="M16.5947,15.6592 C14.8867,16.1802 12.5617,16.5002 9.9997,16.5002 C4.7537,16.5002 0.4997,15.1572 0.4997,13.5002" id="Stroke-7" stroke-linecap="round" stroke-linejoin="round"></path>
            <path d="M19.5,12 L19.5,3" id="Stroke-9" stroke-linecap="round" stroke-linejoin="round"></path>
            <path d="M0.5,2.9995 L0.5,18.4405 C0.5,20.0905 4.147,21.8235 9.5,22.0005" id="Stroke-11" stroke-linecap="round" stroke-linejoin="round"></path>
            <path d="M15.1943,26.998 C16.2433,26.998 19.3983,25.623 22.1713,22.668 C24.9433,19.712 26.0003,17.337 26.0003,16.271 C26.0003,15.772 25.8963,15.034 25.3483,14.49 L24.0933,13.243 C23.8293,12.982 23.3573,12.897 23.0693,13.159 L20.5713,15.676 C20.2713,15.975 20.2713,16.371 20.5713,16.662 L22.0393,18.115 C22.3113,18.527 21.7283,19.687 20.3483,21.061 C18.9813,22.416 17.6563,23.335 17.0683,23.145 L16.7373,22.878 L15.7413,21.839 C15.4243,21.523 14.9383,21.521 14.6193,21.839 L12.2463,24.202 C11.9183,24.528 11.9183,24.892 12.2463,25.219 L13.4033,26.368 C13.4163,26.381 13.4303,26.394 13.4463,26.404 L13.5393,26.471 C13.9903,26.829 14.4823,27 15.0733,27 C15.1123,27 15.1533,26.999 15.1943,26.998 Z" id="Stroke-13"></path>
        </g>
    </g>
</svg>