<?xml version="1.0" encoding="UTF-8"?>
<svg width="80px" height="80px" viewBox="0 0 80 80" version="1.1" xmlns="http://www.w3.org/2000/svg" xmlns:xlink="http://www.w3.org/1999/xlink">
    <!-- Generator: Sketch 53 (72520) - https://sketchapp.com -->
    <title>icon_80px_price_plan</title>
    <desc>Created with Sketch.</desc>
    <defs>
        <path d="M53.7641929,65.5567714 L19.5927643,65.5567714 C19.0393357,65.5567714 18.5713357,65.1314857 18.5713357,64.6282 L18.5713357,56.7353429 L54.7856214,56.7353429 L54.7856214,64.6282 C54.7856214,65.0460571 54.3139071,65.5567714 53.7641929,65.5567714 M19.5927643,7.4282 L53.7641929,7.4282 C54.3176214,7.4282 54.7856214,7.85348571 54.7856214,8.35677143 L54.7856214,53.9496286 L18.5713357,53.9496286 L18.5713357,8.35677143 C18.5713357,7.71884286 19.1006214,7.4282 19.5927643,7.4282 M53.7641929,4.64248571 L19.5927643,4.64248571 C17.4579786,4.64248571 15.7856214,6.27398571 15.7856214,8.35677143 L15.7856214,64.6282 C15.7856214,66.6766286 17.4932643,68.3424857 19.5927643,68.3424857 L53.7641929,68.3424857 C55.8284071,68.3424857 57.5713357,66.6413429 57.5713357,64.6282 L57.5713357,8.35677143 C57.5713357,6.30834286 55.8636929,4.64248571 53.7641929,4.64248571 M33.0572357,15.97115 L40.39295,15.97115 C41.1618071,15.97115 41.7858071,15.3480786 41.7858071,14.5782929 C41.7858071,13.8094357 41.1618071,13.1854357 40.39295,13.1854357 L33.0572357,13.1854357 C32.28745,13.1854357 31.6643786,13.8094357 31.6643786,14.5782929 C31.6643786,15.3480786 32.28745,15.97115 33.0572357,15.97115 M31.8407143,36.3067714 L31.2,38.0116286 L30.5592857,36.3067714 L31.8407143,36.3067714 Z M36.6785714,31.3519143 L37.4938571,33.5210571 L35.8632857,33.5210571 L36.6785714,31.3519143 Z M42.7978571,36.3067714 L42.1571429,38.0116286 L41.5164286,36.3067714 L42.7978571,36.3067714 Z M24.3285714,34.9139143 C24.3285714,35.6837 24.9525714,36.3067714 25.7214286,36.3067714 L27.5832143,36.3067714 L29.8962857,42.4613429 C30.0996429,43.0045571 30.6196429,43.3639143 31.2,43.3639143 C31.7803571,43.3639143 32.2994286,43.0045571 32.5037143,42.4613429 L34.8167857,36.3067714 L38.5403571,36.3067714 L40.8534286,42.4613429 C41.0577143,43.0045571 41.5767857,43.3639143 42.1571429,43.3639143 C42.7375,43.3639143 43.2565714,43.0045571 43.4608571,42.4613429 L45.7739286,36.3067714 L47.6357143,36.3067714 C48.4045714,36.3067714 49.0285714,35.6837 49.0285714,34.9139143 C49.0285714,34.1450571 48.4045714,33.5210571 47.6357143,33.5210571 L46.8204286,33.5210571 L48.9394286,27.8827714 C49.2105714,27.1622 48.8456429,26.3599143 48.126,26.0887714 C47.4054286,25.8185571 46.6022143,26.1825571 46.332,26.9031286 L43.8443571,33.5210571 L40.469,33.5210571 L37.9822857,26.9031286 C37.7789286,26.3599143 37.2589286,25.9996286 36.6785714,25.9996286 C36.0982143,25.9996286 35.5782143,26.3599143 35.3748571,26.9031286 L32.8872143,33.5210571 L29.5127857,33.5210571 L27.0251429,26.9031286 C26.754,26.1825571 25.9517143,25.8185571 25.2311429,26.0887714 C24.5115,26.3599143 24.1465714,27.1622 24.4177143,27.8827714 L26.5367143,33.5210571 L25.7214286,33.5210571 C24.9525714,33.5210571 24.3285714,34.1450571 24.3285714,34.9139143 L24.3285714,34.9139143 Z" id="path-1"></path>
    </defs>
    <g id="Icon_Badge_Graphic" stroke="none" stroke-width="1" fill="none" fill-rule="evenodd">
        <g id="##Icon/80/PricePlan-(요금제)">
            <g id="📌IMG-/-PricePlan" transform="translate(3.000000, 3.000000)">
                <mask id="mask-2" fill="white">
                    <use xlink:href="#path-1"></use>
                </mask>
                <g id="Mask"></g>
                <g id="🎨Color-/-#333333" mask="url(#mask-2)" fill="#333333" fill-rule="evenodd">
                    <rect id="Rectangle-2" x="0" y="0" width="73.8863287" height="73.8863287"></rect>
                </g>
            </g>
            <rect id="Icon_Area" fill-opacity="0" fill="#FFFFFF" x="0" y="0" width="80" height="80"></rect>
        </g>
    </g>
</svg>