<?xml version="1.0" encoding="UTF-8"?>
<svg width="80px" height="80px" viewBox="0 0 80 80" version="1.1" xmlns="http://www.w3.org/2000/svg" xmlns:xlink="http://www.w3.org/1999/xlink">
    <!-- Generator: Sketch 53 (72520) - https://sketchapp.com -->
    <title>icon_80px_charge</title>
    <desc>Created with Sketch.</desc>
    <defs>
        <path d="M30.71875,31.65125 L29.9359375,29.5625 L31.5015625,29.5625 L30.71875,31.65125 Z M24.3109375,26.75 L25.09375,24.66125 L25.8765625,26.75 L24.3109375,26.75 Z M19.46875,31.65125 L18.6859375,29.5625 L20.2515625,29.5625 L19.46875,31.65125 Z M37.28125,26.75 L35.5609375,26.75 L37.66,21.1503125 C37.9328125,20.4228125 37.564375,19.611875 36.8378125,19.34 C36.1103125,19.0671875 35.299375,19.435625 35.0275,20.1621875 L32.55625,26.75 L28.88125,26.75 L26.41,20.1621875 C26.2046875,19.61375 25.6796875,19.25 25.09375,19.25 C24.5078125,19.25 23.9828125,19.61375 23.7775,20.1621875 L21.30625,26.75 L17.63125,26.75 L15.16,20.1621875 C14.888125,19.435625 14.0771875,19.0671875 13.3496875,19.34 C12.623125,19.611875 12.2546875,20.4228125 12.5275,21.1503125 L14.6265625,26.75 L12.90625,26.75 C12.1290625,26.75 11.5,27.3790625 11.5,28.15625 C11.5,28.9334375 12.1290625,29.5625 12.90625,29.5625 L15.68125,29.5625 L18.1525,36.1503125 C18.3578125,36.69875 18.8828125,37.0625 19.46875,37.0625 C20.0546875,37.0625 20.5796875,36.69875 20.785,36.1503125 L23.25625,29.5625 L26.93125,29.5625 L29.4025,36.1503125 C29.6078125,36.69875 30.1328125,37.0625 30.71875,37.0625 C31.3046875,37.0625 31.8296875,36.69875 32.035,36.1503125 L34.50625,29.5625 L37.28125,29.5625 C38.0584375,29.5625 38.6875,28.9334375 38.6875,28.15625 C38.6875,27.3790625 38.0584375,26.75 37.28125,26.75 L37.28125,26.75 Z M30.5558125,49.8125937 C30.0158125,49.3100937 29.1795625,49.3100937 28.6395625,49.8125937 L24.258625,53.8907187 L19.8805,49.8125937 C19.3405,49.3100937 18.50425,49.3100937 17.9633125,49.8125937 L13.5833125,53.8916562 L9.202375,49.8125937 C8.7026875,49.3475937 7.9414375,49.3082187 7.39675,49.7188437 L3.0645625,52.9879062 L3.0626875,4.86040625 C3.0626875,4.26603125 3.553,3.78134375 4.15675,3.78134375 L46.031125,3.78134375 C46.6339375,3.78134375 47.1251875,4.26603125 47.1251875,4.86040625 L47.1251875,33.4597812 C47.1251875,34.2360312 47.75425,34.8660312 48.5314375,34.8660312 C49.3076875,34.8660312 49.9376875,34.2360312 49.9376875,33.4597812 L49.9376875,4.86040625 C49.9376875,2.71446875 48.1855,0.96884375 46.031125,0.96884375 L4.15675,0.96884375 C2.002375,0.96884375 0.2501875,2.71446875 0.2501875,4.86040625 L0.2501875,49.2922812 L0.2539375,50.8410312 L0.2501875,55.8116562 C0.24925,56.3450937 0.551125,56.8325937 1.0283125,57.0707187 C1.2270625,57.1700937 1.44175,57.2188437 1.6564375,57.2188437 C1.9564375,57.2188437 2.2545625,57.1222812 2.503,56.9347812 L8.1495625,52.6747812 L12.626125,56.8419687 C13.166125,57.3444687 14.002375,57.3444687 14.542375,56.8419687 L18.922375,52.7629062 L23.2995625,56.8419687 C23.8395625,57.3444687 24.67675,57.3444687 25.21675,56.8419687 L29.5976875,52.7629062 L33.978625,56.8419687 C34.54675,57.3707187 35.4364375,57.3388437 35.966125,56.7707187 C36.494875,56.2025937 36.463,55.3129062 35.894875,54.7832187 L30.5558125,49.8125937 Z M44.3125,44.5625 C44.3125,42.2365625 46.2053125,40.34375 48.53125,40.34375 C50.8571875,40.34375 52.75,42.2365625 52.75,44.5625 C52.75,46.8884375 50.8571875,48.78125 48.53125,48.78125 C46.2053125,48.78125 44.3125,46.8884375 44.3125,44.5625 M53.0875,49.9071875 C54.5996875,48.6171875 55.5625,46.7009375 55.5625,44.5625 C55.5625,40.685 52.40875,37.53125 48.53125,37.53125 C44.65375,37.53125 41.5,40.685 41.5,44.5625 C41.5,46.7009375 42.4628125,48.6171875 43.975,49.9071875 C40.83625,51.554375 38.6875,54.84125 38.6875,58.625 C38.6875,59.4021875 39.3165625,60.03125 40.09375,60.03125 C40.8709375,60.03125 41.5,59.4021875 41.5,58.625 C41.5,54.7475 44.65375,51.59375 48.53125,51.59375 C52.40875,51.59375 55.5625,54.7475 55.5625,58.625 C55.5625,59.4021875 56.1925,60.03125 56.96875,60.03125 C57.745,60.03125 58.375,59.4021875 58.375,58.625 C58.375,54.84125 56.22625,51.554375 53.0875,49.9071875" id="path-1"></path>
    </defs>
    <g id="Icon_Badge_Graphic" stroke="none" stroke-width="1" fill="none" fill-rule="evenodd">
        <g id="##Icon/80/Charge-(ë‚˜ì˜ìš”ê¸ˆ)">
            <g id="ðŸ“ŒIMG-/-Charge" transform="translate(14.000000, 10.000000)">
                <mask id="mask-2" fill="white">
                    <use xlink:href="#path-1"></use>
                </mask>
                <use id="Mask" fill="#333333" xlink:href="#path-1"></use>
            </g>
            <rect id="Icon_Area" fill-opacity="0" fill="#FFFFFF" x="0" y="0" width="80" height="80"></rect>
        </g>
        <rect id="Rectangle-Copy" stroke="#50E3C2" stroke-width="5" fill-rule="nonzero" x="-308.5" y="-63.5" width="812" height="394"></rect>
    </g>
</svg>