<?xml version="1.0" encoding="utf-8"?>
<!-- Generator: Adobe Illustrator 22.1.0, SVG Export Plug-In . SVG Version: 6.00 Build 0)  -->
<svg version="1.1" id="Layer_1" xmlns="http://www.w3.org/2000/svg" xmlns:xlink="http://www.w3.org/1999/xlink" x="0px" y="0px"
	 viewBox="0 0 48 48" style="enable-background:new 0 0 48 48;" xml:space="preserve">
<style type="text/css">
	.st0{fill:none;stroke:#333333;stroke-width:1.9;stroke-miterlimit:10;}
	.st1{fill:none;stroke:#333333;stroke-width:1.9;stroke-linecap:round;stroke-miterlimit:10;}
	.st2{fill:#333333;}
</style>
<title>icon_48px_directshop</title>
<desc>Created with Sketch.</desc>
<path class="st0" d="M11.2,2h25.6C38,2,39,3,39,4.2v39.6c0,1.2-1,2.2-2.2,2.2H11.2C10,46,9,45,9,43.8V4.2C9,3,10,2,11.2,2z"/>
<line class="st1" x1="21" y1="8" x2="27" y2="8"/>
<line class="st1" x1="9.5" y1="38.5" x2="38.5" y2="38.5"/>
<path id="Combined-Shape_4_" class="st2" d="M24.7,26.1c0-0.8,0.2-1.6,0.8-1.8l2.6-0.9c0.1-0.2,0.2-0.5,0.2-1c0-1.6-0.9-2.8-2.1-3.2
	l-7.1-2.3l1.9-0.7c0.1,0,0.2-0.1,0.3-0.1c0.1,0,0.3,0,0.4,0l7.2,2.3c1.3,0.4,1.7,2,1.7,2.8c0,0.7-0.2,1.5-0.9,1.7
	c-0.6,0.2-2.5,0.9-2.5,0.9c-0.1,0.2-0.2,0.5-0.2,1.2c0,0.4,0,2.5,0,2.9c0,0.9-0.4,1.7-1.2,1.7c-0.4,0-0.8-0.2-1.1-0.5V26.1z
	 M23.1,24.1v2.7c0,1.7,0.7,3,1.9,3.4l-1.9,0.7c-0.4,0.1-0.7,0-1-0.2c-0.9-0.6-1.4-1.5-1.4-3c0-0.7,0-1.6,0-2.8
	c0-0.7-0.3-1.5-0.7-2.1c-0.3-0.4-0.7-0.7-1.2-0.9c-0.9-0.3-1.6-1.6-1.6-2.8c0-1.1,0.5-1.7,1.2-1.8c0.1,0,0.3,0,0.4,0
	c0.4,0.1,0.7,0.3,0.7,0.3c-0.2,1.2,0.4,3.1,1.8,3.6c0.5,0.2,0.9,0.5,1.1,0.9C22.9,22.7,23.1,23.5,23.1,24.1z"/>
</svg>
