<?xml version="1.0" encoding="UTF-8" standalone="no"?>
<svg width="80px" height="80px" viewBox="0 0 80 80" version="1.1" xmlns="http://www.w3.org/2000/svg" xmlns:xlink="http://www.w3.org/1999/xlink">
    <!-- Generator: Sketch 50.2 (55047) - http://www.bohemiancoding.com/sketch -->
    <title>icon_80px_call</title>
    <desc>Created with Sketch.</desc>
    <defs></defs>
    <g id="New-GUI" stroke="none" stroke-width="1" fill="none" fill-rule="evenodd">
        <g id="##Icon/80/Call">
            <rect id="Icon_Area" fill-opacity="0" fill="#FFFFFF" x="0" y="0" width="80" height="80"></rect>
            <path d="M55.2235387,68.9915596 C51.0258247,68.9936697 38.4058886,63.4950901 27.3166788,51.6720958 C16.227469,39.8491016 12,30.3494825 12,26.0856146 C12,24.0875953 12.4159586,21.1357585 14.6061626,18.9581474 L19.6241178,13.971768 C20.6832088,12.927649 22.5695974,12.590446 23.7206907,13.634565 L33.7119849,23.7022432 C34.9155386,24.8977174 34.9155386,26.4851371 33.7119849,27.646965 L27.8429469,33.4596403 C26.7550789,35.1067841 29.0861,39.7472661 34.6072835,45.2461562 C40.0753583,50.666973 45.3751952,54.3407777 47.72894,53.5799618 L49.0480896,52.5135935 L53.0324687,48.354949 C54.3007052,47.0910061 56.245292,47.0846758 57.5220258,48.354949 L67.0135052,57.80955 C68.3284773,59.1135845 68.3284773,60.5661474 67.0156295,61.8744022 L62.3868441,66.4700041 C62.3337354,66.5248664 62.276378,66.5733985 62.2126475,66.6177103 L61.8408864,66.8856915 C60.0394383,68.3142213 58.0722909,69 55.7078903,69 C55.5485641,69 55.3849892,68.9978899 55.2235387,68.9915596 Z" id="Path" stroke="#333333" stroke-width="3"></path>
        </g>
    </g>
</svg>