<?xml version="1.0" encoding="UTF-8"?>
<svg width="80px" height="80px" viewBox="0 0 80 80" version="1.1" xmlns="http://www.w3.org/2000/svg" xmlns:xlink="http://www.w3.org/1999/xlink">
    <!-- Generator: Sketch 53 (72520) - https://sketchapp.com -->
    <title>icon_80px_roaming</title>
    <desc>Created with Sketch.</desc>
    <defs>
        <path d="M63.35991,44.47836 L43.05771,38.35296 L43.46271,26.82486 L63.35991,42.01416 L63.35991,44.47836 Z M48.60891,62.03556 L48.60891,63.52866 L40.76901,61.35426 C41.73201,60.21396 42.34221,58.74156 42.39801,57.13416 L42.42591,56.34396 L48.60891,62.03556 Z M32.10201,57.03966 L30.61701,14.76756 C30.57201,13.46886 31.44771,11.17206 32.98851,9.57726 C33.66261,8.87886 34.73361,8.04636 35.99991,8.04636 C37.34091,8.04636 38.44791,8.96076 39.14001,9.72846 C40.57911,11.32416 41.31261,13.49676 41.19111,14.67486 C41.18841,14.70546 41.18571,14.73606 41.18481,14.76666 L39.69981,57.04056 C39.62421,59.21496 37.92051,60.98346 35.90091,60.98346 C33.84441,60.98346 32.17581,59.25276 32.10201,57.03966 L32.10201,57.03966 Z M23.39091,61.94106 L29.38131,56.49516 L29.40381,57.13236 C29.45871,58.78386 30.06981,60.27156 31.04091,61.41276 L23.39091,63.44856 L23.39091,61.94106 Z M8.63991,44.47836 L8.63991,42.01416 L28.34451,26.97156 L28.74681,38.41236 L8.63991,44.47836 Z M65.52891,40.27266 L43.57881,23.51646 L43.88121,14.90346 C44.07831,12.79296 42.95871,9.93006 41.14521,7.91946 C39.64851,6.25986 37.82151,5.34636 35.99991,5.34636 C34.24761,5.34636 32.53491,6.15996 31.04631,7.70076 C29.12751,9.68706 27.84231,12.63096 27.91881,14.86116 L28.22841,23.66406 L6.47091,40.27266 C6.13611,40.52826 5.93991,40.92516 5.93991,41.34636 L5.93991,46.29636 C5.93991,46.72296 6.14241,47.12526 6.48531,47.37996 C6.72021,47.55456 7.00371,47.64636 7.28991,47.64636 C7.42041,47.64636 7.55181,47.62746 7.67961,47.58876 L28.84401,41.20236 L29.25711,52.95906 L21.13281,60.34446 C20.85111,60.60096 20.69091,60.96366 20.69091,61.34436 L20.69091,65.20536 C20.69091,65.62476 20.88621,66.01986 21.21831,66.27546 C21.45681,66.45816 21.74661,66.55536 22.04091,66.55536 C22.15701,66.55536 22.27401,66.54006 22.38831,66.50946 L34.05051,63.40626 C34.63641,63.58536 35.25741,63.68346 35.90091,63.68346 C36.58491,63.68346 37.24641,63.56556 37.87011,63.35226 L49.59801,66.60486 C49.71681,66.63816 49.83831,66.65436 49.95891,66.65436 C50.25051,66.65436 50.53851,66.55896 50.77611,66.37806 C51.11181,66.12336 51.30891,65.72556 51.30891,65.30436 L51.30891,61.44336 C51.30891,61.06536 51.15141,60.70536 50.87331,60.44976 L42.55101,52.78896 L42.95961,41.14296 L64.32021,47.58876 C64.44801,47.62746 64.57941,47.64636 64.70991,47.64636 C64.99611,47.64636 65.27961,47.55456 65.51541,47.37996 C65.85741,47.12526 66.05991,46.72296 66.05991,46.29636 L66.05991,41.34636 C66.05991,40.92516 65.86371,40.52826 65.52891,40.27266 L65.52891,40.27266 Z" id="path-1"></path>
    </defs>
    <g id="Icon_Badge_Graphic" stroke="none" stroke-width="1" fill="none" fill-rule="evenodd">
        <g id="##Icon/80/Roaming-(Të¡œë°)">
            <g id="ðŸ“ŒIMG-/-Roaming" transform="translate(4.000000, 4.000000)">
                <mask id="mask-2" fill="white">
                    <use xlink:href="#path-1"></use>
                </mask>
                <g id="Mask"></g>
                <g id="ðŸŽ¨Color-/-#333333" mask="url(#mask-2)" fill="#333333" fill-rule="evenodd">
                    <rect id="Rectangle-2" x="0" y="0" width="72" height="72"></rect>
                </g>
            </g>
            <rect id="Icon_Area" fill-opacity="0" fill="#FFFFFF" x="0" y="0" width="80" height="80"></rect>
        </g>
    </g>
</svg>