<?xml version="1.0" encoding="UTF-8" standalone="no"?>
<svg width="48px" height="48px" viewBox="0 0 48 48" version="1.1" xmlns="http://www.w3.org/2000/svg" xmlns:xlink="http://www.w3.org/1999/xlink">
    <!-- Generator: Sketch 50.2 (55047) - http://www.bohemiancoding.com/sketch -->
    <title>icon_48px_roaming</title>
    <desc>Created with Sketch.</desc>
    <defs></defs>
    <g id="Icon_Badge_Graphic" stroke="none" stroke-width="1" fill="none" fill-rule="evenodd">
        <g id="##Icon/48/Roaming">
            <rect id="Icon_Area" fill-opacity="0" fill="#FFFFFF" x="0" y="0" width="48" height="48"></rect>
            <path d="M24.5,3 C27.0537759,3 29.0676079,6.58620999 28.9982615,8.57448199 L27.9562413,38.3999151 C27.8913063,40.3881871 26.3440026,42 24.5,42 C22.6559974,42 21.1086937,40.3881871 21.0437587,38.3999151 L20.0017385,8.57448199 C19.9323921,6.58620999 21.9462241,3 24.5,3 Z" id="Rectangle-9" stroke="#333333" stroke-width="2"></path>
            <polyline id="Rectangle-3" stroke="#333333" stroke-width="2" stroke-linecap="round" points="20.5520127 26.3275654 5 31 5 27.7060442 19.9601862 16"></polyline>
            <polyline id="Rectangle-3-Copy" stroke="#333333" stroke-width="2" stroke-linecap="round" transform="translate(36.192688, 23.500000) scale(-1, 1) translate(-36.192688, -23.500000) " points="44 26.3275654 28.3853759 31 28.3853759 27.7060442 43.4081734 16"></polyline>
            <polyline id="Rectangle-3-Copy-2" stroke="#333333" stroke-width="2" stroke-linecap="round" points="23.4242741 41.8298726 15 44 15 41.3851442 20.9019294 36"></polyline>
            <polyline id="Rectangle-3-Copy-3" stroke="#333333" stroke-width="2" stroke-linecap="round" transform="translate(30.015692, 40.053772) scale(-1, 1) translate(-30.015692, -40.053772) " points="34.0313846 41.879041 26 44.1075443 26 41.4926884 31.9313766 36"></polyline>
        </g>
    </g>
</svg>