<?xml version="1.0" encoding="utf-8"?>
<!-- Generator: Adobe Illustrator 22.1.0, SVG Export Plug-In . SVG Version: 6.00 Build 0)  -->
<svg version="1.1" id="Layer_1" xmlns="http://www.w3.org/2000/svg" xmlns:xlink="http://www.w3.org/1999/xlink" x="0px" y="0px"
	 viewBox="0 0 48 48" style="enable-background:new 0 0 48 48;" xml:space="preserve">
<style type="text/css">
	.st0{fill:none;stroke:#333333;stroke-width:3;stroke-linecap:round;stroke-miterlimit:10;}
	.st1{fill-rule:evenodd;clip-rule:evenodd;fill:#333333;}
	.st2{fill:none;stroke:#DCDCDC;stroke-width:3;stroke-linecap:round;stroke-miterlimit:10;}
	.st3{fill-rule:evenodd;clip-rule:evenodd;fill:#DCDCDC;}
	.st4{fill:#333333;stroke:#333333;stroke-width:3;stroke-linecap:round;stroke-miterlimit:10;}
	.st5{fill-rule:evenodd;clip-rule:evenodd;fill:#FFFFFF;}
</style>
<g>
	<g>
		<path class="st4" d="M38,43.5H10c-1.1,0-2-0.9-2-2v-21c0-1.1,0.9-2,2-2h28c1.1,0,2,0.9,2,2v21C40,42.6,39.1,43.5,38,43.5z"/>
		<polygon class="st5" points="28.4,27 25.2,29.1 25.4,25.1 22.7,25.1 22.8,29.1 19.5,27 18.2,29.3 21.7,31 18.2,32.7 19.5,35 
			22.8,32.9 22.7,36.9 25.4,36.9 25.2,32.9 28.4,35 29.8,32.7 26.3,31 29.8,29.3 		"/>
		<path class="st0" d="M16,17.5v-4.8c0-4.5,3.6-8.2,8-8.2s8,3.7,8,8.2v4.8"/>
	</g>
</g>
</svg>
