<?xml version="1.0" encoding="UTF-8"?>
<svg width="80px" height="80px" viewBox="0 0 80 80" version="1.1" xmlns="http://www.w3.org/2000/svg" xmlns:xlink="http://www.w3.org/1999/xlink">
    <!-- Generator: Sketch 52.4 (67378) - http://www.bohemiancoding.com/sketch -->
    <title>mdpi/Artboard Copy 7</title>
    <desc>Created with Sketch.</desc>
    <g id="Artboard-Copy-7" stroke="none" stroke-width="1" fill="none" fill-rule="evenodd" stroke-linecap="round" stroke-linejoin="round">
        <g id="Group-9" transform="translate(14.000000, 7.000000)" stroke="#333333" stroke-width="3">
            <path d="M26.5,0.5 C26.5,0.5 35.938,10.6 52.5,10.6 L52.5,37.5 C52.5,52.4 26.5,64.5 26.5,64.5 C26.5,64.5 0.5,52.4 0.5,37.5 L0.5,10.6 C17.11,10.6 26.5,0.5 26.5,0.5" id="Stroke-1"></path>
            <path d="M40.5,32.5 C40.5,40.232 34.232,46.5 26.5,46.5 C18.768,46.5 12.5,40.232 12.5,32.5 C12.5,24.768 18.768,18.5 26.5,18.5 C34.232,18.5 40.5,24.768 40.5,32.5 Z" id="Stroke-3"></path>
            <path d="M21.5,32.5 L31.5,32.5" id="Stroke-5"></path>
            <path d="M26.5498,27.5 L26.5498,37.5" id="Stroke-7"></path>
        </g>
    </g>
</svg>