<?xml version="1.0" encoding="UTF-8"?>
<svg width="193px" height="145px" viewBox="0 0 193 145" version="1.1" xmlns="http://www.w3.org/2000/svg" xmlns:xlink="http://www.w3.org/1999/xlink">
    <!-- Generator: Sketch 53.2 (72643) - https://sketchapp.com -->
    <title>타이틀_svg처리?</title>
    <desc>Created with Sketch.</desc>
    <g id="모바일" stroke="none" stroke-width="1" fill="none" fill-rule="evenodd">
        <g id="0.수정안" transform="translate(-30.000000, -95.000000)" fill="#1C1C36" fill-rule="nonzero">
            <g id="01_상단" transform="translate(30.000000, 95.000000)">
                <g id="title">
                    <g id="타이틀_svg처리?">
                        <path d="M33.884,38.397 L29.111,38.397 L29.111,19.176 L25.929,19.176 L25.929,36.634 L21.242,36.634 L21.242,0.772 L25.929,0.772 L25.929,15.134 L29.111,15.134 L29.111,0.084 L33.884,0.084 L33.884,38.397 Z M20.339,25.497 L17.458,29.066 C15.007,27.518 11.739,23.734 10.707,19.95 C9.675,23.949 6.794,27.905 3.182,30.055 L0.301,26.615 C5.117,23.476 8.256,17.714 8.256,9.544 L8.256,3.782 L13.115,3.782 L13.115,9.501 C13.115,16.897 15.695,22.745 20.339,25.497 Z M69.532,23.648 L57.922,23.648 L57.922,29.625 L72.8,29.625 L72.8,33.624 L38.185,33.624 L38.185,29.625 L52.891,29.625 L52.891,23.648 L42.614,23.648 L42.614,10.963 L63.426,10.963 L63.426,6.534 L42.399,6.534 L42.399,2.535 L68.414,2.535 L68.414,14.962 L47.602,14.962 L47.602,19.606 L69.532,19.606 L69.532,23.648 Z M97.268,9.802 C97.268,14.403 93.054,17.757 87.206,17.757 C81.272,17.757 77.273,14.403 77.273,9.802 C77.273,5.072 81.272,1.589 87.206,1.589 C93.226,1.589 97.268,5.072 97.268,9.802 Z M94.516,29.797 L94.516,25.927 L102.428,25.927 L102.428,0.084 L107.416,0.084 L107.416,38.397 L102.428,38.397 L102.428,29.797 L94.516,29.797 Z M89.872,37.279 L84.798,37.279 L84.798,24.379 C81.014,24.551 78.133,24.594 75.209,24.594 L74.521,20.509 C78.907,20.509 82.863,20.466 87.077,20.294 C92.538,19.993 96.279,19.735 99.547,19.305 L99.805,23.132 C97.01,23.519 93.441,23.82 89.872,24.078 L89.872,37.279 Z M92.28,9.759 C92.28,7.48 90.173,5.717 87.206,5.717 C84.368,5.717 82.304,7.48 82.304,9.759 C82.304,12.038 84.325,13.672 87.206,13.672 C90.259,13.672 92.28,12.038 92.28,9.759 Z M113.695,7.136 L113.695,3.18 L133.905,3.18 L133.905,7.136 L126.552,7.136 C126.638,12.984 130.637,17.241 135.023,18.617 L132.271,22.573 C129.39,21.498 125.735,18.402 124.015,14.747 C122.854,18.574 118.898,22.444 115.2,23.734 L112.19,19.735 C117.737,17.714 121.392,13.027 121.392,7.136 L113.695,7.136 Z M144.483,37.365 L118.081,37.365 L118.081,25.239 L123.112,25.239 L123.112,33.409 L144.483,33.409 L144.483,37.365 Z M143.623,27.862 L138.635,27.862 L138.635,0.084 L143.623,0.084 L143.623,27.862 Z" id="새로워진"></path>
                        <path d="M187.905,71.283 L153.29,71.283 L153.29,67.585 L187.905,67.585 L187.905,71.283 Z M184.379,87.967 L157.676,87.967 L157.676,79.066 L178.488,79.066 L178.488,77.045 L157.504,77.045 L157.504,73.433 L183.476,73.433 L183.476,82.377 L162.707,82.377 L162.707,84.355 L184.379,84.355 L184.379,87.967 Z M184.078,65.564 L157.848,65.564 L157.848,56.878 L178.187,56.878 L178.187,54.857 L157.762,54.857 L157.762,51.288 L183.261,51.288 L183.261,60.017 L162.879,60.017 L162.879,61.995 L184.078,61.995 L184.078,65.564 Z" id="를"></path>
                        <path d="M16.1938477,87 L10.546875,87 L10.546875,60.0834961 L1.0546875,60.0834961 L1.0546875,55.293457 L25.6640625,55.293457 L25.6640625,60.0834961 L16.1938477,60.0834961 L16.1938477,87 Z M70.5874023,63.7089844 L64.28125,87 L58.5244141,87 L53.9321289,69.9711914 L53.8222656,69.9711914 L49.2519531,87 L43.5390625,87 L37.2329102,63.7089844 L42.7260742,63.7089844 L46.6591797,81.5947266 L46.769043,81.5947266 L51.3173828,63.7089844 L56.5688477,63.7089844 L61.1171875,81.5947266 L61.2490234,81.5947266 L65.1821289,63.7089844 L70.5874023,63.7089844 Z M83.8974609,87.4614258 C77.0639648,87.4614258 72.6254883,82.9130859 72.6254883,75.3544922 C72.6254883,67.8398438 77.1079102,63.2255859 83.8974609,63.2255859 C90.6870117,63.2255859 95.1694336,67.8178711 95.1694336,75.3544922 C95.1694336,82.9130859 90.730957,87.4614258 83.8974609,87.4614258 Z M83.8974609,83.1328125 C87.3691406,83.1328125 89.6103516,80.3203125 89.6103516,75.3544922 C89.6103516,70.4106445 87.3691406,67.5761719 83.8974609,67.5761719 C80.4477539,67.5761719 78.1845703,70.4106445 78.1845703,75.3544922 C78.1845703,80.3203125 80.4257812,83.1328125 83.8974609,83.1328125 Z M99.1850586,87 L99.1850586,63.7089844 L104.436523,63.7089844 L104.436523,67.7739258 L104.546387,67.7739258 C105.337402,64.9394531 107.380859,63.3134766 110.127441,63.3134766 C110.830566,63.3134766 111.445801,63.4453125 111.841309,63.5332031 L111.841309,68.4770508 C111.379883,68.3012695 110.544922,68.1694336 109.62207,68.1694336 C106.523926,68.1694336 104.65625,70.1689453 104.65625,73.4428711 L104.65625,87 L99.1850586,87 Z M115.307617,87 L115.307617,55.293457 L120.778809,55.293457 L120.778809,87 L115.307617,87 Z M134.638184,87.3735352 C128.771484,87.3735352 124.970215,82.7373047 124.970215,75.3325195 C124.970215,67.9716797 128.771484,63.3134766 134.638184,63.3134766 C137.978027,63.3134766 140.614746,65.0493164 141.845215,67.6201172 L141.977051,67.6201172 L141.977051,55.293457 L147.448242,55.293457 L147.448242,87 L142.086914,87 L142.086914,83.0229492 L141.999023,83.0229492 C140.724609,85.6376953 138.043945,87.3735352 134.638184,87.3735352 Z M136.286133,67.8178711 C132.770508,67.8178711 130.573242,70.7402344 130.573242,75.3544922 C130.573242,79.9907227 132.748535,82.8911133 136.286133,82.8911133 C139.73584,82.8911133 141.999023,79.96875 141.999023,75.3544922 C141.999023,70.7841797 139.73584,67.8178711 136.286133,67.8178711 Z" id="Tworld"></path>
                        <path d="M34.916,123.069 L32.551,127.025 C27.305,125.821 20.769,121.822 18.576,116.791 C16.598,121.951 9.89,125.864 4.644,127.025 L2.365,122.94 C8.6,122.037 15.996,117.221 15.996,110.384 L15.996,108.062 L21.242,108.062 L21.242,110.384 C21.242,117.135 29.111,122.123 34.916,123.069 Z M35.905,139.624 L1.29,139.624 L1.29,135.668 L15.953,135.668 L15.953,126.552 L21.027,126.552 L21.027,135.668 L35.905,135.668 L35.905,139.624 Z M70.822,144.397 L66.049,144.397 L66.049,125.09 L62.652,125.09 L62.652,142.634 L57.965,142.634 L57.965,106.772 L62.652,106.772 L62.652,121.091 L66.049,121.091 L66.049,106.084 L70.822,106.084 L70.822,144.397 Z M54.482,110.599 C54.525,122.037 49.967,130.766 40.593,136.915 L37.325,133.432 C44.807,128.96 48.978,122.252 49.623,114.641 L39.647,114.641 L39.647,110.599 L54.482,110.599 Z M110.426,120.661 L105.051,120.661 L105.051,128.702 L100.02,128.702 L100.02,106.084 L105.051,106.084 L105.051,116.533 L110.426,116.533 L110.426,120.661 Z M105.051,144.096 L80.197,144.096 L80.197,130.551 L85.185,130.551 L85.185,133.518 L100.02,133.518 L100.02,130.508 L105.051,130.508 L105.051,144.096 Z M100.02,140.14 L100.02,137.431 L85.185,137.431 L85.185,140.14 L100.02,140.14 Z M97.225,116.275 L74.779,116.275 L74.779,112.491 L97.225,112.491 L97.225,116.275 Z M80.541,110.685 L80.541,106.858 L91.893,106.858 L91.893,110.685 L80.541,110.685 Z M95.29,123.284 C95.29,127.025 91.42,129.519 86.217,129.519 C80.928,129.519 76.972,127.025 76.972,123.284 C76.972,119.672 80.885,117.092 86.217,117.092 C91.42,117.092 95.29,119.672 95.29,123.284 Z M82.003,123.284 C82.003,124.875 83.938,125.821 86.217,125.821 C88.41,125.821 90.345,124.875 90.345,123.284 C90.345,121.736 88.41,120.79 86.217,120.79 C83.895,120.79 82.003,121.736 82.003,123.284 Z M143.58,106.084 L143.58,144.397 L138.635,144.397 L138.635,106.084 L143.58,106.084 Z M134.722,129.046 L135.367,133.088 C130.723,134.292 122.123,134.808 117.608,134.808 L114.082,134.808 L114.082,109.911 L119.07,109.911 L119.07,130.508 C124.273,130.508 130.551,130.035 134.722,129.046 Z M178.798,106.084 L178.798,120.532 L184.302,120.532 L184.302,124.703 L178.798,124.703 L178.798,144.397 L173.767,144.397 L173.767,106.084 L178.798,106.084 Z M155.32,131.368 C160.781,131.368 166.113,131.196 170.456,130.207 C170.671,131.54 170.8,132.916 171.015,134.206 C167.317,135.152 161.512,135.496 154.03,135.496 L150.332,135.496 L150.332,109.61 L167.833,109.61 L167.833,113.652 L155.32,113.652 L155.32,131.368 Z M187.27,139.925 L187.27,134.894 L192.516,134.894 L192.516,139.925 L187.27,139.925 Z" id="소개합니다."></path>
                    </g>
                </g>
            </g>
        </g>
    </g>
</svg>