<?xml version="1.0" encoding="UTF-8"?>
<svg width="34px" height="15px" viewBox="0 0 34 15" version="1.1" xmlns="http://www.w3.org/2000/svg" xmlns:xlink="http://www.w3.org/1999/xlink">
    <title>Group</title>
    <defs>
        <linearGradient x1="98.9464393%" y1="100%" x2="0.970302484%" y2="100%" id="linearGradient-1">
            <stop stop-color="#FF6600" offset="0%"></stop>
            <stop stop-color="#FF0000" offset="100%"></stop>
        </linearGradient>
    </defs>
    <g id="Page-1" stroke="none" stroke-width="1" fill="none" fill-rule="evenodd">
        <g id="T_P0_02_full_01" transform="translate(-307.000000, -435.000000)">
            <g id="Group" transform="translate(307.000000, 435.000000)">
                <path d="M7.5,0 L26.5,0 C30.6421356,-7.6089797e-16 34,3.35786438 34,7.5 C34,11.6421356 30.6421356,15 26.5,15 L7.5,15 C3.35786438,15 5.07265313e-16,11.6421356 0,7.5 C-5.07265313e-16,3.35786438 3.35786438,7.6089797e-16 7.5,0 Z" id="Rectangle" fill="url(#linearGradient-1)"></path>
                <path d="M10.805,10.59 C12.425,10.59 13.195,9.77 13.195,8.63 C13.195,7.63 12.635,7.15 11.775,6.99 L11.775,6.96 C12.595,6.7 12.895,6.18 12.895,5.46 C12.895,4.37 12.215,3.73 10.635,3.73 L8.235,3.73 L8.235,10.59 L10.805,10.59 Z M10.415,6.65 L9.455,6.65 L9.455,4.64 L10.465,4.64 C11.255,4.64 11.675,4.89 11.675,5.63 C11.675,6.41 11.135,6.65 10.415,6.65 Z M10.635,9.67 L9.455,9.67 L9.455,7.47 L10.565,7.47 C11.435,7.47 11.905,7.77 11.905,8.56 C11.905,9.31 11.465,9.67 10.635,9.67 Z M16.275,10.68 C17.145,10.68 17.745,10.43 18.095,10.2 L18.095,9.4 C17.645,9.63 17.165,9.78 16.505,9.78 C15.525,9.78 14.975,9.4 14.905,8.33 L18.265,8.33 L18.265,7.85 C18.265,6.21 17.605,5.36 16.085,5.36 C14.775,5.36 13.725,6.21 13.725,7.94 L13.725,8.08 C13.725,9.71 14.565,10.68 16.275,10.68 Z M17.095,7.54 L14.905,7.54 C14.985,6.49 15.535,6.21 16.065,6.21 C16.735,6.21 17.095,6.57 17.095,7.54 Z M20.785,10.65 C21.265,10.65 21.545,10.54 21.745,10.44 L21.745,9.67 C21.565,9.72 21.355,9.75 21.155,9.75 C20.615,9.75 20.455,9.59 20.455,9.16 L20.455,6.34 L21.685,6.34 L21.685,5.44 L20.455,5.44 L20.455,4.23 L19.325,4.23 L19.325,5.44 L18.605,5.44 L18.605,6.34 L19.325,6.34 L19.325,9.32 C19.325,10.29 19.895,10.65 20.785,10.65 Z M23.785,10.68 C24.455,10.68 24.865,10.46 25.115,10.17 L25.175,10.17 L25.265,10.59 L26.215,10.59 L26.215,6.89 C26.215,5.82 25.525,5.36 24.335,5.36 C23.665,5.36 23.115,5.45 22.635,5.64 L22.635,6.43 C22.945,6.36 23.385,6.29 23.885,6.29 C24.755,6.29 25.065,6.45 25.065,7.15 L25.065,7.54 L23.855,7.68 C22.835,7.83 22.205,8.27 22.205,9.22 C22.205,10.21 22.855,10.68 23.785,10.68 Z M24.135,9.87 C23.665,9.87 23.335,9.65 23.335,9.16 C23.335,8.64 23.605,8.43 24.115,8.39 L25.065,8.29 L25.065,9.56 C24.875,9.74 24.505,9.87 24.135,9.87 Z" id="Beta" fill="#FFFFFF" fill-rule="nonzero"></path>
            </g>
        </g>
    </g>
</svg>