<?xml version="1.0" encoding="UTF-8"?>
<svg width="80px" height="80px" viewBox="0 0 80 80" version="1.1" xmlns="http://www.w3.org/2000/svg" xmlns:xlink="http://www.w3.org/1999/xlink">
    <!-- Generator: Sketch 52.4 (67378) - http://www.bohemiancoding.com/sketch -->
    <title>mdpi/Artboard</title>
    <desc>Created with Sketch.</desc>
    <g id="Artboard" stroke="none" stroke-width="1" fill="none" fill-rule="evenodd">
        <g id="Group-17" transform="translate(17.000000, 6.000000)">
            <path d="M47,66 C55.3,57.5 59.5,50.9 59.5,46.4 C59.5,39.5 53.9,34 47,34 C40.1,34 34.5,39.5 34.5,46.4 C34.5,50.9 38.7,57.5 47,66 Z" id="Stroke-3" stroke="#333333" stroke-width="3"></path>
            <path d="M47,50 C49.8,50 52,47.8 52,45 C52,42.2 49.8,40 47,40 C44.2,40 42,42.2 42,45 C42,47.8 44.2,50 47,50" id="Fill-5" fill="#333333"></path>
            <path d="M42.5,61.5 L42.5,64 C42.5,65.3 41.3,66.5 39.9,66.5 L3.1,66.5 C1.7,66.5 0.5,65.4 0.5,64 L0.5,3 C0.5,1.5 1.7,0.5 3.1,0.5 L39.9,0.5 C41.3,0.5 42.5,1.6 42.5,3 L42.5,34.2" id="Stroke-7" stroke="#333333" stroke-width="3"></path>
            <path d="M17,9.5 L26,9.5" id="Stroke-9" stroke="#333333" stroke-width="3" stroke-linecap="round"></path>
            <path d="M0.5,53.5 L35.5,53.5" id="Stroke-11" stroke="#333333" stroke-width="3" stroke-linecap="round"></path>
            <path d="M19.7998,36.9004 L18.4998,33.5004 L13.0998,33.5004 L11.7998,36.9004 L8.3998,36.9004 L14.3998,21.7004 L17.4998,21.7004 L23.3998,36.9004 L19.7998,36.9004 Z M15.8998,25.9004 L14.2998,30.6004 L17.5998,30.6004 L15.8998,25.9004 Z" id="Fill-13" fill="#333333"></path>
            <path d="M35.7002,32.5 C35.7002,33.3 35.5992,33.9 35.3002,34.5 C35.0002,35.1 34.5992,35.6 34.2002,36 C33.7002,36.4 33.0992,36.7 32.5002,36.9 C31.8002,37.1 31.0992,37.2 30.3002,37.2 C29.0992,37.2 28.0002,37 26.9002,36.6 C25.8002,36.2 24.8002,35.6 23.9002,34.8 L25.7002,32.4 C26.4002,33 27.0992,33.4 27.9002,33.8 C28.7002,34.2 29.5002,34.3 30.3002,34.3 C31.0002,34.3 31.5002,34.2 31.8002,33.9 C32.0992,33.6 32.3002,33.3 32.3002,32.8 C32.3002,32.6 32.3002,32.4 32.2002,32.2 C32.0992,32 32.0002,31.8 31.8002,31.7 C31.5992,31.5 31.3002,31.4 31.0002,31.2 C30.5992,31 30.0992,30.9 29.5002,30.7 C28.7002,30.5 28.0002,30.3 27.4002,30.1 C26.8002,29.9 26.2002,29.6 25.8002,29.2 C25.4002,28.8 25.0002,28.4 24.8002,27.9 C24.5992,27.4 24.4002,26.8 24.4002,26 C24.4002,25.3 24.5002,24.7 24.8002,24.1 C25.0992,23.5 25.4002,23 25.9002,22.6 C26.4002,22.2 26.9002,21.9 27.5992,21.7 C28.3002,21.5 29.0002,21.4 29.7002,21.4 C30.8002,21.4 31.8002,21.6 32.8002,21.9 C33.7002,22.2 34.5992,22.7 35.3002,23.3 L33.7002,25.8 C33.0002,25.3 32.3002,25 31.5992,24.7 C30.9002,24.4 30.3002,24.3 29.5992,24.3 C29.0992,24.3 28.5992,24.4 28.3002,24.7 C28.0002,25 27.9002,25.3 27.9002,25.7 C27.9002,25.9 27.9002,26.2 28.0002,26.4 C28.0992,26.6 28.2002,26.8 28.4002,26.9 C28.5992,27.1 28.9002,27.2 29.3002,27.3 C29.7002,27.4 30.2002,27.6 30.9002,27.8 C31.7002,28 32.4002,28.2 33.0002,28.5 C33.5992,28.8 34.0992,29.1 34.5002,29.4 C34.9002,29.8 35.2002,30.2 35.4002,30.7 C35.5992,31.2 35.7002,31.8 35.7002,32.5" id="Fill-15" fill="#333333"></path>
        </g>
    </g>
</svg>