<?xml version="1.0" encoding="UTF-8"?>
<svg width="80px" height="80px" viewBox="0 0 80 80" version="1.1" xmlns="http://www.w3.org/2000/svg" xmlns:xlink="http://www.w3.org/1999/xlink">
    <!-- Generator: Sketch 52.4 (67378) - http://www.bohemiancoding.com/sketch -->
    <title>mdpi/v</title>
    <desc>Created with Sketch.</desc>
    <g id="v" stroke="none" stroke-width="1" fill="none" fill-rule="evenodd">
        <g id="Group-13" transform="translate(9.000000, 3.000000)" stroke="#333333" stroke-width="3">
            <path d="M8.5,26 L44.5,26" id="Stroke-1"></path>
            <path d="M8.5,35 L30.929,35" id="Stroke-2"></path>
            <path d="M8.5,44 L30.929,44" id="Stroke-3"></path>
            <g id="Group-12">
                <path d="M37.375,69.5 L2.5,69.5 C1.4,69.5 0.5,68.6 0.5,67.5 L0.5,2.5 C0.5,1.4 1.4,0.5 2.5,0.5 L38.5,0.5 L52.5,14.5 L52.5,48.375" id="Stroke-4"></path>
                <path d="M50.7227,16.5 L38.2777,16.5 C37.2997,16.5 36.4997,15.7 36.4997,14.723 L36.4997,2.277 C36.4997,1.3 37.2997,0.5 38.2777,0.5 L52.4997,14.723 C52.4997,15.7 51.7007,16.5 50.7227,16.5 Z" id="Stroke-6"></path>
                <path d="M60.6211,57.2002 L59.0701,56.9002 C58.3401,56.7632 57.7661,56.2852 57.4931,55.5902 C57.2201,54.9022 57.3191,54.1612 57.7551,53.5612 L58.7331,52.2302 C59.0491,51.8002 59.0021,51.2062 58.6291,50.8322 L56.5141,48.7232 C56.1521,48.3602 55.5781,48.3032 55.1531,48.5922 L53.8381,49.4802 C53.2231,49.9012 52.4811,49.9652 51.7991,49.6702 C51.1201,49.3702 50.6631,48.7822 50.5521,48.0462 L50.2991,46.4152 C50.2211,45.8882 49.7681,45.5002 49.2371,45.5002 L46.2561,45.5002 C45.7411,45.5002 45.2931,45.8692 45.1991,46.3742 L44.8091,48.3822 C44.6741,49.0962 44.2111,49.6652 43.5381,49.9432 C42.8651,50.2212 42.1401,50.1482 41.5351,49.7392 L39.8421,48.5922 C39.4201,48.3032 38.8431,48.3602 38.4791,48.7232 L36.3711,50.8322 C35.9911,51.2062 35.9441,51.8002 36.2611,52.2302 L37.2381,53.5612 C37.6741,54.1612 37.7751,54.9022 37.5011,55.5962 C37.2271,56.2852 36.6551,56.7632 35.9291,56.9002 L34.3721,57.2002 C33.8621,57.3002 33.5001,57.7412 33.5001,58.2572 L33.5001,61.2442 C33.5001,61.7742 33.8841,62.2262 34.4101,62.3052 L36.0441,62.5572 C36.7751,62.6682 37.3701,63.1262 37.6651,63.8042 C37.9641,64.4882 37.8951,65.2282 37.4801,65.8442 L36.5921,67.1582 C36.3031,67.5842 36.3551,68.1572 36.7231,68.5202 L38.8321,70.6292 C39.2051,71.0072 39.7991,71.0502 40.2251,70.7392 L41.5601,69.7622 C42.1591,69.3242 42.8951,69.2242 43.5901,69.4982 C44.2791,69.7672 44.7581,70.3452 44.9001,71.0702 L45.1991,72.6282 C45.2931,73.1332 45.7411,73.5002 46.2561,73.5002 L49.2371,73.5002 C49.7681,73.5002 50.2211,73.1112 50.2991,72.5852 L50.4781,71.4392 C50.5941,70.6972 51.0721,70.0882 51.7671,69.8042 C52.4611,69.5142 53.2281,69.6082 53.8331,70.0522 L54.7691,70.7332 C55.1951,71.0502 55.7881,71.0072 56.1681,70.6292 L58.2761,68.5202 C58.6401,68.1572 58.6971,67.5842 58.4081,67.1582 L57.5191,65.8442 C57.0991,65.2282 57.0291,64.4882 57.3301,63.8042 C57.6251,63.1262 58.2181,62.6682 58.9541,62.5572 L60.5851,62.3052 C61.1091,62.2262 61.5001,61.7742 61.5001,61.2442 L61.5001,58.2572 C61.5001,57.7412 61.1311,57.3002 60.6211,57.2002 Z" id="Stroke-8"></path>
                <path d="M47.5,54.833 C44.93,54.833 42.833,56.925 42.833,59.5 C42.833,62.07 44.93,64.167 47.5,64.167 C50.075,64.167 52.167,62.07 52.167,59.5 C52.167,56.925 50.075,54.833 47.5,54.833 Z" id="Stroke-10"></path>
            </g>
        </g>
    </g>
</svg>