<?xml version="1.0" encoding="UTF-8"?>
<svg width="80px" height="80px" viewBox="0 0 80 80" version="1.1" xmlns="http://www.w3.org/2000/svg" xmlns:xlink="http://www.w3.org/1999/xlink">
    <!-- Generator: Sketch 52.4 (67378) - http://www.bohemiancoding.com/sketch -->
    <title>mdpi/Artboard</title>
    <desc>Created with Sketch.</desc>
    <g id="Artboard" stroke="none" stroke-width="1" fill="none" fill-rule="evenodd">
        <g id="Group-11" transform="translate(2.000000, 5.000000)" stroke="#333333" stroke-width="3">
            <path d="M53.5,28.5 L53.5,9.5 C53.5,4.392 49.654,0.5 44.5,0.5 L0.5,0.5 C3.41,1.634 6.326,2.67 6.5,8.5 L6.723,69.5 L9.5,65.5 L12.5,69.5 L15.5,65.5 L18.5,69.5 L21.5,65.5 L24.5,69.5 L27.5,65.5 L30.5,69.5 L33.5,65.5 L36.5,69.5 L39.5,65.5 L42.5,69.5 L45.5,65.5 L48.5,69.5 L51,66 L53.5,69.5 L53.5,58.5" id="Stroke-1" stroke-linejoin="round"></path>
            <polyline id="Stroke-3" stroke-linecap="round" stroke-linejoin="round" points="19.5 21.5 24.5 36.5 30.5 21.5 36.5 36.5 41.5 21.5"></polyline>
            <path d="M18.5,28.5 L42.5,28.5" id="Stroke-5" stroke-linecap="round" stroke-linejoin="round"></path>
            <path d="M69.5,43.5 C69.5,51.784 62.784,58.5 54.5,58.5 C46.216,58.5 39.5,51.784 39.5,43.5 C39.5,35.216 46.216,28.5 54.5,28.5 C62.784,28.5 69.5,35.216 69.5,43.5 Z" id="Stroke-7" stroke-linejoin="round"></path>
            <path d="M65.5,54.5 L76.5,65.5" id="Stroke-9" stroke-linecap="round"></path>
        </g>
    </g>
</svg>