<?xml version="1.0" encoding="UTF-8"?>
<svg width="80px" height="80px" viewBox="0 0 80 80" version="1.1" xmlns="http://www.w3.org/2000/svg" xmlns:xlink="http://www.w3.org/1999/xlink">
    <!-- Generator: Sketch 52.4 (67378) - http://www.bohemiancoding.com/sketch -->
    <title>mdpi/Artboard Copy 5</title>
    <desc>Created with Sketch.</desc>
    <g id="Artboard-Copy-5" stroke="none" stroke-width="1" fill="none" fill-rule="evenodd">
        <g id="Group-11" transform="translate(3.000000, 10.000000)">
            <path d="M14,58 C22.3,49.5 26.5,42.9 26.5,38.4 C26.5,31.5 20.9,26 14,26 C7.1,26 1.5,31.5 1.5,38.4 C1.5,42.9 5.7,49.5 14,58 Z" id="Stroke-3" stroke="#333333" stroke-width="3"></path>
            <path d="M14,43 C16.8,43 19,40.8 19,38 C19,35.2 16.8,33 14,33 C11.2,33 9,35.2 9,38 C9,40.8 11.2,43 14,43" id="Fill-5" fill="#333333"></path>
            <polyline id="Stroke-7" stroke="#333333" stroke-width="3" stroke-linejoin="round" points="37.3999 15 54.9999 5.6 46.6999 1 22.9999 7"></polyline>
            <path d="M19.2002,26.7002 L16.7002,20.8002 L6.3002,16.2002 C1.8002,13.8002 -0.8998,8.7002 1.2002,4.5002 C3.3002,0.3002 9.1002,-0.6998 13.5002,2.0002 L54.4002,24.2002 L67.2002,18.2002 L73.5992,22.1002 C73.5992,22.1002 61.8002,34.0002 61.0992,34.8002 C58.8002,37.3002 55.9002,39.0002 52.5992,37.5002 L32.2002,28.2002 L38.5002,51.5002 L29.0002,49.4002 L25.6002,41.7002" id="Stroke-9" stroke="#333333" stroke-width="3" stroke-linejoin="round"></path>
        </g>
    </g>
</svg>