<?xml version="1.0" encoding="UTF-8"?>
<svg width="32px" height="32px" viewBox="0 0 32 32" version="1.1" xmlns="http://www.w3.org/2000/svg" xmlns:xlink="http://www.w3.org/1999/xlink">
    <!-- Generator: Sketch 52.3 (67297) - http://www.bohemiancoding.com/sketch -->
    <title>Artboard</title>
    <desc>Created with Sketch.</desc>
    <g id="Artboard" stroke="none" stroke-width="1" fill="none" fill-rule="evenodd">
        <g id="Group-13" fill="#333333">
            <path d="M16,4 C9.373,4 4,9.373 4,16 C4,22.627 9.373,28 16,28 C22.627,28 28,22.627 28,16 C28,9.373 22.627,4 16,4 M16,6 C21.514,6 26,10.486 26,16 C26,21.514 21.514,26 16,26 C10.486,26 6,21.514 6,16 C6,10.486 10.486,6 16,6" id="Fill-1"></path>
            <path d="M19,16 C19,17.657 17.657,19 16,19 C14.343,19 13,17.657 13,16 C13,14.343 14.343,13 16,13 C17.657,13 19,14.343 19,16" id="Fill-3"></path>
            <path d="M16,6 C15.45,6 15,5.55 15,5 L15,1 C15,0.45 15.45,0 16,0 C16.55,0 17,0.45 17,1 L17,5 C17,5.55 16.55,6 16,6" id="Fill-5"></path>
            <path d="M16,32 C15.45,32 15,31.55 15,31 L15,27 C15,26.45 15.45,26 16,26 C16.55,26 17,26.45 17,27 L17,31 C17,31.55 16.55,32 16,32" id="Fill-7"></path>
            <path d="M0,16 C0,15.45 0.45,15 1,15 L5,15 C5.55,15 6,15.45 6,16 C6,16.55 5.55,17 5,17 L1,17 C0.45,17 0,16.55 0,16" id="Fill-9"></path>
            <path d="M26,16 C26,15.45 26.45,15 27,15 L31,15 C31.55,15 32,15.45 32,16 C32,16.55 31.55,17 31,17 L27,17 C26.45,17 26,16.55 26,16" id="Fill-11"></path>
        </g>
    </g>
</svg>