<?xml version="1.0" encoding="UTF-8"?>
<svg xmlns="http://www.w3.org/2000/svg" xmlns:xlink="http://www.w3.org/1999/xlink" width="200" height="200" viewBox="0 0 200 200">
    <g>
         <defs>
            <filter id="filter-1">
                <feColorMatrix in="SourceGraphic" type="matrix" values="0 0 0 0 0.509804 0 0 0 0 0.533333 0 0 0 0 0.560784 0 0 0 1.000000 0"></feColorMatrix>
            </filter>
            <path d="M6.137,6.981 C6.247,6.981 6.313,6.915 6.335,6.783 C6.445,5.793 6.5,4.86533333 6.5,4 L6.5,2.526 C6.5,2.40133333 6.43766667,2.339 6.313,2.339 L5.51,2.339 C5.38533333,2.339 5.323,2.40133333 5.323,2.526 L5.323,4 C5.323,4.86533333 5.378,5.793 5.488,6.783 C5.51,6.915 5.576,6.981 5.686,6.981 L6.137,6.981 Z M6.291,9.412 C6.40833333,9.412 6.467,9.34966667 6.467,9.225 L6.467,7.883 C6.467,7.76566667 6.40833333,7.707 6.291,7.707 L5.554,7.707 C5.43666667,7.707 5.378,7.76566667 5.378,7.883 L5.378,9.214 C5.378,9.346 5.43666667,9.412 5.554,9.412 L6.291,9.412 Z" id="path-2"></path>
             <path d="M6.137,6.981 C6.247,6.981 6.313,6.915 6.335,6.783 C6.445,5.793 6.5,4.86533333 6.5,4 L6.5,2.526 C6.5,2.40133333 6.43766667,2.339 6.313,2.339 L5.51,2.339 C5.38533333,2.339 5.323,2.40133333 5.323,2.526 L5.323,4 C5.323,4.86533333 5.378,5.793 5.488,6.783 C5.51,6.915 5.576,6.981 5.686,6.981 L6.137,6.981 Z M6.291,9.412 C6.40833333,9.412 6.467,9.34966667 6.467,9.225 L6.467,7.883 C6.467,7.76566667 6.40833333,7.707 6.291,7.707 L5.554,7.707 C5.43666667,7.707 5.378,7.76566667 5.378,7.883 L5.378,9.214 C5.378,9.346 5.43666667,9.412 5.554,9.412 L6.291,9.412 Z" id="path-1"></path>
        </defs>
         <g id="Page-1" stroke="none" stroke-width="1" fill="none" fill-rule="evenodd">
            <g id="Group">
                <path d="M6,0.5 C9.03740426,0.5 11.5,2.96212766 11.5,6 C11.5,9.03740426 9.03740426,11.5 6,11.5 C2.96259574,11.5 0.5,9.03740426 0.5,6 C0.5,2.96212766 2.96259574,0.5 6,0.5 Z" id="Path" stroke="#666666"></path>
                <g id="!" fill-rule="nonzero">
                    <use fill="#000000" xlink:href="#path-1"></use>
                    <use fill="#666666" xlink:href="#path-1"></use>
                </g>
            </g>
        </g>
    </g>
</svg>
