<?xml version="1.0" encoding="UTF-8"?>
<svg width="88px" height="80px" viewBox="0 0 88 80" version="1.1" xmlns="http://www.w3.org/2000/svg" xmlns:xlink="http://www.w3.org/1999/xlink">
    <!-- Generator: Sketch 53 (72520) - https://sketchapp.com -->
    <title>icon_gnb_lock_s</title>
    <desc>Created with Sketch.</desc>
    <g id="Icon_Badge_Graphic" stroke="none" stroke-width="1" fill="none" fill-rule="evenodd">
        <g id="##Icon/GNB/Lock/3Selected">
            <g id="Group-2" transform="translate(30.000000, 22.000000)">
                <polygon id="*" fill="#FFFFFF" points="12.8360656 27.7295082 12.9672131 24.2540984 10.1147541 26.1229508 9 24.057377 12.0163934 22.6147541 9 21.1721311 10.1147541 19.1065574 12.9672131 20.942623 12.8360656 17.5 15.1967213 17.5 15.0655738 20.942623 17.8196721 19.1065574 19 21.1721311 16.0163934 22.6147541 19 24.057377 17.8196721 26.1229508 15.0655738 24.2540984 15.1967213 27.7295082"></polygon>
                <g id="Lock">
                    <rect id="Rectangle-3" stroke="#F76252" stroke-width="2" fill="#F76252" x="0" y="12" width="28" height="22" rx="2"></rect>
                    <path d="M22,13 L22,7 C22,3.13400675 25.1340068,0 29,0 C32.8659932,0 36,3.13400675 36,7 L36,13" id="Rectangle-4" stroke="#F76252" stroke-width="2"></path>
                    <polygon id="*" fill="#FFFFFF" points="12.8360656 27.7295082 12.9672131 24.2540984 10.1147541 26.1229508 9 24.057377 12.0163934 22.6147541 9 21.1721311 10.1147541 19.1065574 12.9672131 20.942623 12.8360656 17.5 15.1967213 17.5 15.0655738 20.942623 17.8196721 19.1065574 19 21.1721311 16.0163934 22.6147541 19 24.057377 17.8196721 26.1229508 15.0655738 24.2540984 15.1967213 27.7295082"></polygon>
                </g>
            </g>
            <rect id="Icon_Area" fill-opacity="0" fill="#FFFFFF" x="0" y="0" width="88" height="80"></rect>
        </g>
    </g>
</svg>