<?xml version="1.0" encoding="UTF-8"?>
<svg width="48px" height="48px" viewBox="0 0 48 48" version="1.1" xmlns="http://www.w3.org/2000/svg" xmlns:xlink="http://www.w3.org/1999/xlink">
    <!-- Generator: Sketch 52.5 (67469) - http://www.bohemiancoding.com/sketch -->
    <title>Artboard</title>
    <desc>Created with Sketch.</desc>
    <g id="Artboard" stroke="none" stroke-width="1" fill="none" fill-rule="evenodd">
        <g id="Group-11" transform="translate(9.000000, 1.000000)" stroke="#333333" stroke-width="1.9">
            <polyline id="Stroke-1" stroke-linecap="round" stroke-linejoin="round" points="6.95 15.95 11.45 27.95 15.95 15.95 20.45 27.95 24.95 15.95"></polyline>
            <g id="Group-10" transform="translate(0.000000, 0.900000)">
                <path d="M3.1351,0.05 L28.7651,0.05 C29.9711,0.05 30.9501,1.028 30.9501,2.235 L30.9501,41.865 C30.9501,43.071 29.9711,44.05 28.7651,44.05 L3.1351,44.05 C1.9281,44.05 0.9501,43.071 0.9501,41.865 L0.9501,2.235 C0.9501,1.028 1.9281,0.05 3.1351,0.05 Z" id="Stroke-2"></path>
                <path d="M12.95,6.05 L18.95,6.05" id="Stroke-4" stroke-linecap="round"></path>
                <path d="M1.4847,36.55 L30.4497,36.55" id="Stroke-6" stroke-linecap="round"></path>
                <path d="M6.95,22.05 L24.95,22.05" id="Stroke-8" stroke-linecap="round" stroke-linejoin="round"></path>
            </g>
        </g>
    </g>
</svg>