<?xml version="1.0" encoding="UTF-8"?>
<svg width="29px" height="16px" viewBox="0 0 29 16" version="1.1" xmlns="http://www.w3.org/2000/svg" xmlns:xlink="http://www.w3.org/1999/xlink">
    <title>Tag/Tip</title>
    <g id="Page-1" stroke="none" stroke-width="1" fill="none" fill-rule="evenodd">
        <g id="Group">
            <rect id="Rectangle-Copy-3" stroke="#4DADF7" x="0.5" y="0.5" width="28" height="15" rx="7.5"></rect>
            <path d="M9.83886719,12 L9.83886719,5.32617188 L12.1123047,5.32617188 L12.1123047,4.00195312 L5.98339844,4.00195312 L5.98339844,5.32617188 L8.25097656,5.32617188 L8.25097656,12 L9.83886719,12 Z M14.9365234,12 L14.9365234,4.00195312 L13.3544922,4.00195312 L13.3544922,12 L14.9365234,12 Z M18.5224609,12 L18.5224609,9.31640625 L20.1279297,9.31640625 C21.8564453,9.31640625 22.8408203,8.17382812 22.8408203,6.66796875 C22.8408203,5.17382812 21.8681641,4.00195312 20.1396484,4.00195312 L16.9404297,4.00195312 L16.9404297,12 L18.5224609,12 Z M19.8349609,8.07421875 L18.5166016,8.07421875 L18.5166016,5.26171875 L19.8349609,5.26171875 C20.7080078,5.26171875 21.2294922,5.77148438 21.2294922,6.66796875 C21.2294922,7.55859375 20.7080078,8.07421875 19.8349609,8.07421875 Z" id="TIP" fill="#4DADF7" fill-rule="nonzero"></path>
        </g>
    </g>
</svg>