<?xml version="1.0" encoding="UTF-8"?>
<svg width="30px" height="30px" viewBox="0 0 30 30" version="1.1" xmlns="http://www.w3.org/2000/svg" xmlns:xlink="http://www.w3.org/1999/xlink">
    <title>Icon / 30 / 부가서비스_Flo</title>
    <g id="Icon-/-30-/-부가서비스_Flo" stroke="none" stroke-width="1" fill="none" fill-rule="evenodd">
        <g id="icon-/-42-/-datagift">
            <circle id="Oval-17" fill="#FF6B7B" cx="15" cy="15" r="15"></circle>
            <g id="Group-9" transform="translate(9.000000, 7.000000)">
                <path d="M2.87999992,6.03961325e-14 L9.43578922,6.03961325e-14 C11.0263693,6.01039477e-14 12.3157891,1.28941989 12.3157891,2.87999992 L12.3157891,13.7663996 C12.3157891,15.3569797 11.0263693,16.6463996 9.43578922,16.6463996 L2.87999992,16.6463996 C1.28941989,16.6463996 1.47632408e-13,15.3569797 1.47437618e-13,13.7663996 L1.47437618e-13,2.87999992 C1.47242828e-13,1.28941989 1.28941989,6.11324066e-14 2.87999992,6.03961325e-14 Z" id="Rectangle" stroke="#FFFFFF" stroke-width="1.44" stroke-linecap="round" stroke-linejoin="round"></path>
                <line x1="1.04874001e-14" y1="13.4639996" x2="12.5" y2="13.5" id="Path-8" stroke="#FFFFFF" stroke-width="1.5"></line>
                <line x1="1.04874001e-14" y1="2.93759992" x2="12.8084207" y2="2.93759992" id="Path-8" stroke="#FFFFFF" stroke-width="1.5"></line>
                <path d="M6.86066017,5.55355339 L8.27487373,6.96776695 C8.47013588,7.1630291 8.47013588,7.47961159 8.27487373,7.67487373 C8.07961159,7.87013588 7.7630291,7.87013588 7.56776695,7.67487373 L6.99951556,7.10610678 L7.00202068,9.90943793 C7.08193675,10.2481465 6.91653207,10.607815 6.58870446,10.7606835 L5.86365823,11.0987781 C5.48825326,11.2738324 5.04201791,11.111416 4.8669637,10.736011 C4.69190948,10.360606 4.85432586,9.91437068 5.22973084,9.73931646 L5.95477707,9.40122186 L5.99951556,9.38310678 L6,6 C6,5.96787363 6.00302991,5.93645494 6.00881955,5.90601408 C6.00723449,5.77881114 6.05604994,5.65105684 6.15355339,5.55355339 C6.34881554,5.35829124 6.66539803,5.35829124 6.86066017,5.55355339 Z" id="Combined-Shape" fill="#FFFFFF"></path>
            </g>
        </g>
    </g>
</svg>