<?xml version="1.0" encoding="UTF-8"?>
<svg width="24px" height="24px" viewBox="0 0 24 24" version="1.1" xmlns="http://www.w3.org/2000/svg" xmlns:xlink="http://www.w3.org/1999/xlink">
    <title>Icon / 24 / 챗봇</title>
    <defs>
        <linearGradient x1="98.9464393%" y1="100%" x2="0.970302484%" y2="100%" id="linearGradient-1">
            <stop stop-color="#9086FD" offset="0%"></stop>
            <stop stop-color="#5F9AFF" offset="100%"></stop>
        </linearGradient>
        <linearGradient x1="98.9464393%" y1="100%" x2="0.970302484%" y2="100%" id="linearGradient-2">
            <stop stop-color="#9086FD" offset="0%"></stop>
            <stop stop-color="#5F9AFF" offset="100%"></stop>
        </linearGradient>
        <path d="M5.5,11 C5.79411765,11.7208589 6.80090498,12.25 8,12.25 C9.19909502,12.25 10.2058824,11.7208589 10.5,11.0077454" id="path-3"></path>
        <filter x="-159.6%" y="-620.0%" width="579.1%" height="2460.0%" filterUnits="objectBoundingBox" id="filter-4">
            <feMorphology radius="0.75" operator="dilate" in="SourceAlpha" result="shadowSpreadOuter1"></feMorphology>
            <feOffset dx="4" dy="10" in="shadowSpreadOuter1" result="shadowOffsetOuter1"></feOffset>
            <feMorphology radius="1" operator="erode" in="SourceAlpha" result="shadowInner"></feMorphology>
            <feOffset dx="4" dy="10" in="shadowInner" result="shadowInner"></feOffset>
            <feComposite in="shadowOffsetOuter1" in2="shadowInner" operator="out" result="shadowOffsetOuter1"></feComposite>
            <feGaussianBlur stdDeviation="2" in="shadowOffsetOuter1" result="shadowBlurOuter1"></feGaussianBlur>
            <feColorMatrix values="0 0 0 0 0   0 0 0 0 0   0 0 0 0 0  0 0 0 0.09 0" type="matrix" in="shadowBlurOuter1"></feColorMatrix>
        </filter>
    </defs>
    <g id="Icon-/-24-/-챗봇" stroke="none" stroke-width="1" fill="none" fill-rule="evenodd">
        <g id="icon-/-42-/-datagift" transform="translate(4.000000, 3.000000)">
            <path d="M3.38,1.77635684e-15 L12.6127395,1.77635684e-15 C14.2033196,2.89689092e-15 15.4927395,1.28941992 15.4927395,2.88 L15.4927395,14.5982564 L15.4927395,14.5982564 L15.4927511,17.4175026 C15.5274149,17.7165022 15.4377582,17.9016859 15.223781,17.9730536 C15.0098038,18.0444212 14.8173996,17.9740258 14.6465684,17.7618673 L12.5251977,15.4443645 L3.38,15.4443645 C1.78941992,15.4443645 0.5,14.1549446 0.5,12.5643645 L0.5,2.88 C0.5,1.28941992 1.78941992,1.62445245e-15 3.38,1.77635684e-15 Z" id="Rectangle-Copy-2" stroke="url(#linearGradient-1)" stroke-width="2"></path>
            <g id="Stroke-1" stroke-linecap="round" stroke-linejoin="round">
                <use fill="black" fill-opacity="1" filter="url(#filter-4)" xlink:href="#path-3"></use>
                <use stroke="url(#linearGradient-2)" stroke-width="1.5" xlink:href="#path-3"></use>
            </g>
        </g>
    </g>
</svg>