<?xml version="1.0" encoding="UTF-8"?>
<svg width="30px" height="30px" viewBox="0 0 30 30" version="1.1" xmlns="http://www.w3.org/2000/svg" xmlns:xlink="http://www.w3.org/1999/xlink">
    <title>Icon / 30 / Alpha / 부가서비스_V컬러링</title>
    <g id="Icon-/-30-/-Alpha-/-부가서비스_V컬러링" stroke="none" stroke-width="1" fill="none" fill-rule="evenodd">
        <g id="icon-/-42-/-datagift">
            <circle id="Oval" fill-opacity="0.3" fill="#2269FF" cx="15" cy="15" r="15"></circle>
            <g id="Group-9" transform="translate(9.000000, 7.000000)" stroke="#FFFFFF">
                <path d="M2.87999992,6.03961325e-14 L9.43578922,6.03961325e-14 C11.0263693,6.01039477e-14 12.3157891,1.28941989 12.3157891,2.87999992 L12.3157891,13.7663996 C12.3157891,15.3569797 11.0263693,16.6463996 9.43578922,16.6463996 L2.87999992,16.6463996 C1.28941989,16.6463996 1.47632408e-13,15.3569797 1.47437618e-13,13.7663996 L1.47437618e-13,2.87999992 C1.47242828e-13,1.28941989 1.28941989,6.11324066e-14 2.87999992,6.03961325e-14 Z" id="Rectangle" stroke-width="1.44" stroke-linecap="round" stroke-linejoin="round"></path>
                <line x1="1.04874001e-14" y1="13.4639996" x2="12.5" y2="13.5" id="Path-8" stroke-width="1.5"></line>
                <line x1="1.04874001e-14" y1="2.93759992" x2="12.8084207" y2="2.93759992" id="Path-8" stroke-width="1.5"></line>
            </g>
        </g>
        <polyline id="Path-3" stroke="#FFFFFF" stroke-linecap="round" stroke-linejoin="round" points="14 14 15.4132313 17 17 14"></polyline>
    </g>
</svg>