<?xml version="1.0" encoding="UTF-8"?>
<svg width="30px" height="30px" viewBox="0 0 30 30" version="1.1" xmlns="http://www.w3.org/2000/svg" xmlns:xlink="http://www.w3.org/1999/xlink">
    <title>Icon / 30 / 컨텐츠 결제</title>
    <g id="Icon-/-30-/-컨텐츠-결제" stroke="none" stroke-width="1" fill="none" fill-rule="evenodd">
        <g id="icon-/-42-/-datagift">
            <circle id="Oval-17" fill="#48BEED" cx="15" cy="15" r="15"></circle>
            <rect id="Rectangle" fill="#FFFFFF" x="19.3" y="15.3" width="1" height="5.7"></rect>
            <g id="Group" transform="translate(8.000000, 6.000000)" stroke="#FFFFFF">
                <path d="M9.92842079,16.6463996 L3.37263149,16.6463996 C1.78205145,16.6463996 0.492631566,15.3569797 0.492631566,13.7663996 L0.492631566,2.87999992 C0.492631566,1.28941989 1.78205145,6.03961325e-14 3.37263149,6.03961325e-14 L9.92842079,6.03961325e-14 C11.5190008,6.03961325e-14 12.8084207,1.28941989 12.8084207,2.87999992 L12.8084207,8.18981934 L12.8084207,8.18981934" id="Shape" stroke-width="1.44" stroke-linecap="round" stroke-linejoin="round"></path>
                <line x1="1.04874001e-14" y1="13.4639996" x2="7.5" y2="13.5" id="Path-8" stroke-width="1.4"></line>
                <line x1="-1.05891931e-15" y1="2.93759992" x2="12.8084207" y2="2.93759992" id="Path-8" stroke-width="1.4"></line>
                <circle id="Oval" stroke-width="1.4" stroke-linecap="round" stroke-linejoin="round" cx="11.4861537" cy="12.236923" r="4.23692296"></circle>
            </g>
            <path d="M20.5693693,15.709986 L20.5693693,16.709986 L19.5230121,16.709986 L19.5230121,16.709986 C19.1491075,16.709986 18.8720731,16.950689 18.8720731,17.209986 C18.8720731,17.4433534 19.0964709,17.6616595 19.413927,17.7029871 L19.6299249,17.7271934 L19.6520731,18.2730668 L19.6524199,17.7305213 L19.9645438,17.733723 C20.8005584,17.8009502 21.4782849,18.4282044 21.4782849,19.2277517 C21.4782849,20.0743313 20.7184808,20.7277517 19.8154744,20.7277517 L19.8154744,20.7277517 L18.6690533,20.7277517 L18.6690533,19.7207175 L19.926713,19.7207175 C20.2503413,19.6791899 20.4782849,19.4599427 20.4782849,19.2277517 C20.4782849,18.9863363 20.2318701,18.7589135 19.8876969,18.7306884 C19.882971,18.7303009 19.8717045,18.7300616 19.8565067,18.7299269 L19.7390174,18.730022 C19.6980449,18.730238 19.6622211,18.7305213 19.6524199,18.7305213 L19.6524199,18.7305213 L19.6520731,18.7230668 L19.6108937,18.7217433 C19.5321985,18.7169533 19.4120993,18.7070055 19.3756364,18.7040642 C18.5446284,18.6370299 17.8720731,18.0085399 17.8720731,17.209986 C17.8720731,16.4116732 18.6493469,15.7565431 19.3748839,15.7159687 C19.8585752,15.6889192 20.256737,15.6869249 20.5693693,15.709986 Z" id="Combined-Shape" fill="#FFFFFF" fill-rule="nonzero" transform="translate(19.675179, 18.210909) rotate(11.000000) translate(-19.675179, -18.210909) "></path>
        </g>
    </g>
</svg>