<?xml version="1.0" encoding="UTF-8"?>
<svg width="30px" height="30px" viewBox="0 0 30 30" version="1.1" xmlns="http://www.w3.org/2000/svg" xmlns:xlink="http://www.w3.org/1999/xlink">
    <title>Icon / 30 / Alpha / 부가서비스_wavve</title>
    <g id="Icon-/-30-/-Alpha-/-부가서비스_wavve" stroke="none" stroke-width="1" fill="none" fill-rule="evenodd">
        <g id="icon-/-42-/-datagift">
            <circle id="Oval" fill-opacity="0.3" fill="#2269FF" cx="15" cy="15" r="15"></circle>
            <g id="Group-9" transform="translate(9.000000, 7.000000)">
                <path d="M2.87999992,6.03961325e-14 L9.43578922,6.03961325e-14 C11.0263693,6.01039477e-14 12.3157891,1.28941989 12.3157891,2.87999992 L12.3157891,13.7663996 C12.3157891,15.3569797 11.0263693,16.6463996 9.43578922,16.6463996 L2.87999992,16.6463996 C1.28941989,16.6463996 1.47632408e-13,15.3569797 1.47437618e-13,13.7663996 L1.47437618e-13,2.87999992 C1.47242828e-13,1.28941989 1.28941989,6.11324066e-14 2.87999992,6.03961325e-14 Z" id="Rectangle" stroke="#FFFFFF" stroke-width="1.44" stroke-linecap="round" stroke-linejoin="round"></path>
                <line x1="1.04874001e-14" y1="13.4639996" x2="12.5" y2="13.5" id="Path-8" stroke="#FFFFFF" stroke-width="1.5"></line>
                <line x1="1.04874001e-14" y1="2.93759992" x2="12.8084207" y2="2.93759992" id="Path-8" stroke="#FFFFFF" stroke-width="1.5"></line>
                <path d="M5.72625896,6.36853741 L8.10820513,7.57724716 C8.35445656,7.70220654 8.4527832,8.00313235 8.32782383,8.24938378 C8.27886538,8.34586383 8.19993349,8.42386088 8.102877,8.47166642 L5.72093083,9.64490284 C5.47320814,9.76691957 5.17347513,9.66501476 5.0514584,9.41729207 C5.01760586,9.34856345 5,9.27297467 5,9.19636124 L5,6.81441507 C5,6.53827269 5.22385763,6.31441507 5.5,6.31441507 C5.57862602,6.31441507 5.65614379,6.33295773 5.72625896,6.36853741 Z" id="Rectangle" fill="#FFFFFF"></path>
            </g>
        </g>
    </g>
</svg>