<?xml version="1.0" encoding="UTF-8"?>
<svg width="30px" height="30px" viewBox="0 0 30 30" version="1.1" xmlns="http://www.w3.org/2000/svg" xmlns:xlink="http://www.w3.org/1999/xlink">
    <title>Icon / 30 / Alpha / 챗봇</title>
    <defs>
        <path d="M10.88,7 L19.1132235,7 C20.7038036,7 21.9932235,8.28941992 21.9932235,9.88 L21.9932235,19.9762279 L21.9932235,19.9762279 L21.9932344,22.4822245 C22.0255872,22.748002 21.9419076,22.9126097 21.7421956,22.9760476 C21.5424835,23.0394856 21.3629063,22.9769119 21.2034638,22.7883265 L19.2235178,20.728324 L10.88,20.728324 C9.28941992,20.728324 8,19.4389041 8,17.848324 L8,9.88 C8,8.28941992 9.28941992,7 10.88,7 Z" id="path-1"></path>
        <filter x="-55.1%" y="-48.2%" width="267.4%" height="284.0%" filterUnits="objectBoundingBox" id="filter-2">
            <feMorphology radius="0.72" operator="dilate" in="SourceAlpha" result="shadowSpreadOuter1"></feMorphology>
            <feOffset dx="4" dy="10" in="shadowSpreadOuter1" result="shadowOffsetOuter1"></feOffset>
            <feMorphology radius="1" operator="erode" in="SourceAlpha" result="shadowInner"></feMorphology>
            <feOffset dx="4" dy="10" in="shadowInner" result="shadowInner"></feOffset>
            <feComposite in="shadowOffsetOuter1" in2="shadowInner" operator="out" result="shadowOffsetOuter1"></feComposite>
            <feGaussianBlur stdDeviation="2" in="shadowOffsetOuter1" result="shadowBlurOuter1"></feGaussianBlur>
            <feColorMatrix values="0 0 0 0 0   0 0 0 0 0   0 0 0 0 0  0 0 0 0.09 0" type="matrix" in="shadowBlurOuter1"></feColorMatrix>
        </filter>
    </defs>
    <g id="Icon-/-30-/-Alpha-/-챗봇" stroke="none" stroke-width="1" fill="none" fill-rule="evenodd">
        <g id="icon-/-42-/-datagift">
            <circle id="Oval" fill-opacity="0.3" fill="#2269FF" cx="15" cy="15" r="15"></circle>
            <g id="Rectangle-Copy">
                <use fill="black" fill-opacity="1" filter="url(#filter-2)" xlink:href="#path-1"></use>
                <use stroke="#FFFFFF" stroke-width="1.44" xlink:href="#path-1"></use>
            </g>
        </g>
        <path d="M13,16 C13.2352941,16.7689162 14.040724,17.3333333 15,17.3333333 C15.959276,17.3333333 16.7647059,16.7689162 17,16.0082618" id="Stroke-1" stroke="#FFFFFF" stroke-width="1.44" stroke-linecap="round"></path>
    </g>
</svg>