<?xml version="1.0" encoding="UTF-8"?>
<svg width="24px" height="24px" viewBox="0 0 24 24" version="1.1" xmlns="http://www.w3.org/2000/svg" xmlns:xlink="http://www.w3.org/1999/xlink">
    <title>Icon / 24 / 부가서비스_Flo</title>
    <g id="Icon-/-24-/-부가서비스_Flo" stroke="none" stroke-width="1" fill="none" fill-rule="evenodd">
        <g id="Group-9" transform="translate(4.000000, 2.000000)">
            <path d="M12.6719997,19.5839995 L12.6719997,19.5839995 L12.6719997,19.5839995 L2.87999992,19.5839995 C1.60753589,19.5839995 0.575999985,18.5524636 0.575999985,17.2799995 L0.575999985,2.30399994 C0.575999985,1.03153591 1.60753589,0 2.87999992,0 L12.6719997,0 C13.2621511,0 13.8004794,0.22188105 14.208114,0.586772598 C14.6794071,1.00864757 14.9759996,1.62168731 14.9759996,2.30399994 L14.9759996,9.79199974 L14.994294,17.2560061 C14.9974376,18.5385739 13.9602594,19.5808489 12.6776917,19.5839925 C12.6757943,19.5839972 12.673897,19.5839995 12.6719997,19.5839995 Z" id="Path" stroke="#FF6B7B" stroke-width="2" stroke-linecap="round" stroke-linejoin="round"></path>
            <line x1="1.22621909e-14" y1="15.8399996" x2="15.976" y2="15.8399996" id="Path-8" stroke="#FF6B7B" stroke-width="1.5"></line>
            <line x1="1.22621909e-14" y1="3.45599991" x2="14.9759996" y2="3.45599991" id="Path-8" stroke="#FF6B7B" stroke-width="1.5"></line>
            <path d="M8.37835534,6.53033009 L10.2880465,8.44002127 C10.5417485,8.6937232 10.5417485,9.10505529 10.2880465,9.35875721 C10.0343446,9.61245913 9.62301252,9.61245913 9.3693106,9.35875721 L8.58449668,8.57405364 L8.58493157,12.0965809 C8.58493157,12.1327632 8.58197523,12.168255 8.57629092,12.2028279 L8.55659652,12.1090361 C8.69953834,12.6425022 8.38295585,13.1908392 7.84948974,13.333781 L6.88356392,13.5926001 C6.35009781,13.7355419 5.80176086,13.4189594 5.65881905,12.8854933 C5.51587723,12.3520272 5.83245972,11.8036902 6.36592583,11.6607484 L7.28449668,11.4140536 L7.28493157,7.15 L7.28452544,7.12970107 C7.23857166,6.92051143 7.29693632,6.69301318 7.45961941,6.53033009 C7.71332133,6.27662816 8.12465342,6.27662816 8.37835534,6.53033009 Z" id="Combined-Shape" fill="#FF6B7B"></path>
        </g>
    </g>
</svg>