<?xml version="1.0" encoding="UTF-8"?>
<svg width="30px" height="30px" viewBox="0 0 30 30" version="1.1" xmlns="http://www.w3.org/2000/svg" xmlns:xlink="http://www.w3.org/1999/xlink">
    <title>Icon / 30 / Alpha / 부가서비스_Flo</title>
    <g id="Icon-/-30-/-Alpha-/-부가서비스_Flo" stroke="none" stroke-width="1" fill="none" fill-rule="evenodd">
        <g id="Group-9">
            <circle id="Oval" fill-opacity="0.3" fill="#2269FF" cx="15" cy="15" r="15"></circle>
            <path d="M11.8799999,7 L18.4357892,7 C20.0263693,7 21.3157891,8.28941989 21.3157891,9.87999992 L21.3157891,20.7663996 C21.3157891,22.3569797 20.0263693,23.6463996 18.4357892,23.6463996 L11.8799999,23.6463996 C10.2894199,23.6463996 9,22.3569797 9,20.7663996 L9,9.87999992 C9,8.28941989 10.2894199,7 11.8799999,7 Z" id="Rectangle" stroke="#FFFFFF" stroke-width="1.44" stroke-linecap="round" stroke-linejoin="round"></path>
            <line x1="9" y1="20.4639996" x2="21.5" y2="20.5" id="Path-8" stroke="#FFFFFF" stroke-width="1.5"></line>
            <line x1="9" y1="9.93759992" x2="21.8084207" y2="9.93759992" id="Path-8" stroke="#FFFFFF" stroke-width="1.5"></line>
            <path d="M15.8606602,12.5535534 L17.2748737,13.967767 C17.4701359,14.1630291 17.4701359,14.4796116 17.2748737,14.6748737 C17.0796116,14.8701359 16.7630291,14.8701359 16.567767,14.6748737 L15.9995156,14.1061068 L16.0020207,16.9094379 C16.0819367,17.2481465 15.9165321,17.607815 15.5887045,17.7606835 L14.8636582,18.0987781 C14.4882533,18.2738324 14.0420179,18.111416 13.8669637,17.736011 C13.6919095,17.360606 13.8543259,16.9143707 14.2297308,16.7393165 L14.9547771,16.4012219 L14.9995156,16.3831068 L15,13 C15,12.9678736 15.0030299,12.9364549 15.0088195,12.9060141 C15.0072345,12.7788111 15.0560499,12.6510568 15.1535534,12.5535534 C15.3488155,12.3582912 15.665398,12.3582912 15.8606602,12.5535534 Z" id="Combined-Shape" fill="#FFFFFF"></path>
        </g>
    </g>
</svg>