<?xml version="1.0" encoding="UTF-8"?>
<svg width="24px" height="24px" viewBox="0 0 24 24" version="1.1" xmlns="http://www.w3.org/2000/svg" xmlns:xlink="http://www.w3.org/1999/xlink">
    <title>Icon / 24 / 부가서비스_game</title>
    <g id="Icon-/-24-/-부가서비스_game" stroke="none" stroke-width="1" fill="none" fill-rule="evenodd">
        <g id="Group-20" transform="translate(1.000000, 4.000000)">
            <g id="Group" transform="translate(0.500000, 0.000000)">
                <path d="M15,1 C16.3807119,1 17.6307119,1.55964406 18.5355339,2.46446609 C19.4403559,3.36928813 20,4.61928813 20,6 L20,6 L20,11.9136167 C19.999996,12.6703646 19.7036734,13.357923 19.220646,13.8664913 C18.7402745,14.3722632 18.0753842,14.701376 17.333595,14.7450129 C16.7809487,14.7431733 16.280965,14.6158531 15.8629471,14.3768489 C15.4501264,14.1408163 15.1206413,13.7963006 14.9016625,13.3720942 L14.9016625,13.3720942 L13.7411284,11.1239045 C13.4837052,10.6252236 13.097863,10.2192475 12.6360757,9.9379416 C12.1742883,9.65663569 11.6365559,9.5 11.0753525,9.5 L11.0753525,9.5 L9.9435632,9.5 C8.89638803,9.5 7.92499482,10.0460323 7.38068268,10.9406272 L7.38068268,10.9406272 L5.64724945,13.7895818 C5.28437469,14.3859785 4.63677921,14.75 3.93866244,14.75 C3.08634193,14.75 2.34602831,14.4601 1.81933519,13.9686627 C1.30360115,13.4874509 0.999994197,12.8165014 1,12.0749841 L1,12.0749841 L1,6 C1,4.61928813 1.55964406,3.36928813 2.46446609,2.46446609 C3.36928813,1.55964406 4.61928813,1 6,1 L6,1 Z" id="Rectangle" stroke="#FF6B7B" stroke-width="2"></path>
                <rect id="Rectangle" stroke="#FF6B7B" stroke-width="1.5" x="13.95" y="4.55" width="2.9" height="2.9" rx="1.45"></rect>
                <path d="M5.7375,3.8 C6.15171356,3.8 6.4875,4.13578644 6.4875,4.55 L6.487,5.212 L7.15,5.2125 C7.56421356,5.2125 7.9,5.54828644 7.9,5.9625 L7.9,6.0375 C7.9,6.45171356 7.56421356,6.7875 7.15,6.7875 L6.487,6.787 L6.4875,7.45 C6.4875,7.86421356 6.15171356,8.2 5.7375,8.2 L5.6625,8.2 C5.24828644,8.2 4.9125,7.86421356 4.9125,7.45 L4.912,6.787 L4.25,6.7875 C3.83578644,6.7875 3.5,6.45171356 3.5,6.0375 L3.5,5.9625 C3.5,5.54828644 3.83578644,5.2125 4.25,5.2125 L4.912,5.212 L4.9125,4.55 C4.9125,4.13578644 5.24828644,3.8 5.6625,3.8 L5.7375,3.8 Z" id="Combined-Shape" fill="#FF6B7B"></path>
            </g>
        </g>
    </g>
</svg>