<?xml version="1.0" encoding="UTF-8"?>
<svg width="30px" height="30px" viewBox="0 0 30 30" version="1.1" xmlns="http://www.w3.org/2000/svg" xmlns:xlink="http://www.w3.org/1999/xlink">
    <title>Icon / 30 / 부가서비스_V컬러링</title>
    <g id="Icon-/-30-/-부가서비스_V컬러링" stroke="none" stroke-width="1" fill="none" fill-rule="evenodd">
        <g id="icon-/-42-/-datagift">
            <circle id="Oval-17" fill="#FF6B7B" cx="15" cy="15" r="15"></circle>
            <g id="Group" transform="translate(5.000000, 8.000000)">
                <path d="M14,0.7 C15.4635546,0.7 16.7885546,1.29322271 17.7476659,2.25233406 C18.7067773,3.21144541 19.3,4.53644541 19.3,6 L19.3,6 L19.3,10.3462921 C19.3000023,11.1334777 18.9920913,11.8487609 18.4900767,12.3781984 C17.9891214,12.9065187 17.2949817,13.2500427 16.5205729,13.2949613 C15.9348667,13.2943942 15.4055319,13.162185 14.9599021,12.9158078 C14.5134988,12.669003 14.1534184,12.3079704 13.9063164,11.8611963 L13.9063164,11.8611963 L12.8916202,10.0265688 C12.6538902,9.59673971 12.3088099,9.24843084 11.9003644,9.00757924 C11.4919188,8.76672765 11.020108,8.63333333 10.528917,8.63333333 L10.528917,8.63333333 L9.48300963,8.63333333 C8.5704074,8.63333333 7.71956487,9.09433681 7.22118352,9.8588359 L7.22118352,9.8588359 L5.65842368,12.2560534 C5.23387661,12.9072933 4.50908482,13.3 3.73168293,13.3 C2.85797097,13.3 2.09893036,12.9953711 1.55744096,12.4874966 C1.01868118,11.9821822 0.699989696,11.2781855 0.7,10.4999744 L0.7,10.4999744 L0.7,6 C0.7,4.53644541 1.29322271,3.21144541 2.25233406,2.25233406 C3.21144541,1.29322271 4.53644541,0.7 6,0.7 L6,0.7 Z" id="Rectangle" stroke="#FFFFFF" stroke-width="1.4"></path>
                <rect id="Rectangle" stroke="#FFFFFF" x="13.5" y="4" width="3" height="3" rx="1.5"></rect>
                <path d="M5,3.5 C5.27614237,3.5 5.5,3.72385763 5.5,4 L5.5,5 L6.5,5 C6.77614237,5 7,5.22385763 7,5.5 C7,5.77614237 6.77614237,6 6.5,6 L5.5,6 L5.5,7 C5.5,7.27614237 5.27614237,7.5 5,7.5 C4.72385763,7.5 4.5,7.27614237 4.5,7 L4.5,6 L3.5,6 C3.22385763,6 3,5.77614237 3,5.5 C3,5.22385763 3.22385763,5 3.5,5 L4.5,5 L4.5,4 C4.5,3.72385763 4.72385763,3.5 5,3.5 Z" id="Combined-Shape" fill="#FFFFFF"></path>
            </g>
        </g>
    </g>
</svg>