<?xml version="1.0" encoding="UTF-8"?>
<svg width="24px" height="24px" viewBox="0 0 24 24" version="1.1" xmlns="http://www.w3.org/2000/svg" xmlns:xlink="http://www.w3.org/1999/xlink">
    <title>Icon / 24 / 부가서비스_Wavve</title>
    <g id="Icon-/-24-/-부가서비스_Wavve" stroke="none" stroke-width="1" fill="none" fill-rule="evenodd">
        <g id="Group-9" transform="translate(4.000000, 2.000000)">
            <path d="M12.6719997,19.5839995 L12.6719997,19.5839995 L12.6719997,19.5839995 L2.87999992,19.5839995 C1.60753589,19.5839995 0.575999985,18.5524636 0.575999985,17.2799995 L0.575999985,2.30399994 C0.575999985,1.03153591 1.60753589,0 2.87999992,0 L12.6719997,0 C13.2621511,0 13.8004794,0.22188105 14.208114,0.586772598 C14.6794071,1.00864757 14.9759996,1.62168731 14.9759996,2.30399994 L14.9759996,9.79199974 L14.994294,17.2560061 C14.9974376,18.5385739 13.9602594,19.5808489 12.6776917,19.5839925 C12.6757943,19.5839972 12.673897,19.5839995 12.6719997,19.5839995 Z" id="Path" stroke="#FF6B7B" stroke-width="2" stroke-linecap="round" stroke-linejoin="round"></path>
            <path d="M6.72625896,7.36853741 L10.1082051,9.08469345 C10.3544566,9.20965282 10.4527832,9.51057864 10.3278238,9.75683007 C10.2788654,9.85331012 10.1999335,9.93130717 10.102877,9.97911271 L6.72093083,11.6449028 C6.47320814,11.7669196 6.17347513,11.6650148 6.0514584,11.4172921 C6.01760586,11.3485635 6,11.2729747 6,11.1963612 L6,7.81441507 C6,7.53827269 6.22385763,7.31441507 6.5,7.31441507 C6.57862602,7.31441507 6.65614379,7.33295773 6.72625896,7.36853741 Z" id="Rectangle" fill="#FF6B7B"></path>
            <line x1="1.22621909e-14" y1="15.8399996" x2="15.976" y2="15.8399996" id="Path-8" stroke="#FF6B7B" stroke-width="1.5"></line>
            <line x1="1.22621909e-14" y1="3.45599991" x2="14.9759996" y2="3.45599991" id="Path-8" stroke="#FF6B7B" stroke-width="1.5"></line>
        </g>
    </g>
</svg>