<?xml version="1.0" encoding="UTF-8"?>
<svg width="24px" height="24px" viewBox="0 0 24 24" version="1.1" xmlns="http://www.w3.org/2000/svg" xmlns:xlink="http://www.w3.org/1999/xlink">
    <title>Icon / 24 / 부가서비스_V컬러링</title>
    <g id="Icon-/-24-/-부가서비스_V컬러링" stroke="none" stroke-width="1" fill="none" fill-rule="evenodd">
        <g id="Group-9" stroke="#FF6B7B" transform="translate(4.000000, 2.000000)">
            <path d="M12.6719997,19.5839995 L12.6719997,19.5839995 L12.6719997,19.5839995 L2.87999992,19.5839995 C1.60753589,19.5839995 0.575999985,18.5524636 0.575999985,17.2799995 L0.575999985,2.30399994 C0.575999985,1.03153591 1.60753589,0 2.87999992,0 L12.6719997,0 C13.2621511,0 13.8004794,0.22188105 14.208114,0.586772598 C14.6794071,1.00864757 14.9759996,1.62168731 14.9759996,2.30399994 L14.9759996,9.79199974 L14.994294,17.2560061 C14.9974376,18.5385739 13.9602594,19.5808489 12.6776917,19.5839925 C12.6757943,19.5839972 12.673897,19.5839995 12.6719997,19.5839995 Z" id="Path" stroke-width="2" stroke-linecap="round" stroke-linejoin="round"></path>
            <line x1="1.22621909e-14" y1="15.8399996" x2="15.976" y2="15.8399996" id="Path-8" stroke-width="1.5"></line>
            <polyline id="Path-3" stroke-width="1.5" stroke-linecap="round" stroke-linejoin="round" points="6 8 7.8843084 12 10 8"></polyline>
            <line x1="1.22621909e-14" y1="3.45599991" x2="14.9759996" y2="3.45599991" id="Path-8" stroke-width="1.5"></line>
        </g>
    </g>
</svg>