<?xml version="1.0" encoding="UTF-8"?>
<svg width="11px" height="10px" viewBox="0 0 11 10" version="1.1" xmlns="http://www.w3.org/2000/svg" xmlns:xlink="http://www.w3.org/1999/xlink">
    <title>button / intro / B1_2line - Pupple</title>
    <defs>
        <linearGradient x1="98.9464393%" y1="100%" x2="0.970302484%" y2="100%" id="linearGradient-1">
            <stop stop-color="#9086FD" offset="0%"></stop>
            <stop stop-color="#5F9AFF" offset="100%"></stop>
        </linearGradient>
        <linearGradient x1="22.0859977%" y1="48.0962083%" x2="148.784504%" y2="54.5958391%" id="linearGradient-2">
            <stop stop-color="#000000" stop-opacity="0" offset="0%"></stop>
            <stop stop-color="#000000" stop-opacity="0.12147618" offset="100%"></stop>
        </linearGradient>
        <path d="M12,-1.13686838e-13 L289.973013,-1.13686838e-13 C296.60043,-1.14904274e-13 301.973013,5.372583 301.973013,12 L301.973013,54.3379542 L301.973013,54.3379542 L301.973056,64.8318152 C302.101901,65.9447583 301.768647,66.634053 300.973293,66.8996994 C300.177939,67.1653458 299.462773,66.9033184 298.827792,66.1136173 L290.942652,57.4873568 L12,57.4873568 C5.372583,57.4873568 8.92438176e-13,52.1147738 9.09494702e-13,45.4873568 L9.09494702e-13,12 C9.10459434e-13,5.372583 5.372583,-1.16022115e-13 12,-1.13686838e-13 Z" id="path-3"></path>
    </defs>
    <g id="Symbols" stroke="none" stroke-width="1" fill="none" fill-rule="evenodd">
        <g id="Rectangle" transform="translate(-291.000000, -57.000000)">
            <use fill="url(#linearGradient-1)" xlink:href="#path-3"></use>
            <use fill="url(#linearGradient-2)" style="mix-blend-mode: overlay;" xlink:href="#path-3"></use>
        </g>
    </g>
</svg>